<?xml version="1.0" encoding="utf-8"?>
 <svg id="svgMap" width="100%" height="100%" viewBox="0 8 1024 643" xmlns="http://www.w3.org/2000/svg" xmlns:bx="https://boxy-svg.com">
   <g id="map" style="visibility: visible; fill: none; stroke-width: 1.5;">
     <g id="South America" style="stroke: rgb(222, 121, 82); fill: rgb(231, 146, 115); visibility: visible;">
       <path class="country" id="Venezuela" d="M219 423c0,0 1,-1 1,-1 -2,-1 -2,-1 -16,-6 -2,-6 -10,-6 -16,-10 1,-7 4,-13 5,-21 -1,0 -2,0 -3,-1 0,-3 1,-7 2,-10 1,0 2,0 3,0 0,-2 0,-4 0,-5 2,2 3,3 3,6 1,1 2,1 3,2 0,-2 -1,-4 -1,-6 4,-2 8,-5 12,-8 4,-2 7,-2 12,-5 2,0 3,0 5,-1 1,1 2,2 3,3 -1,1 -2,3 -4,4 1,2 2,3 3,5 0,-2 0,-2 0,-3 1,-1 1,-1 2,-1 0,-1 0,-2 0,-3 5,-1 8,0 13,2 10,0 18,-2 21,9 0,0 1,0 2,0 1,1 1,2 1,4 6,1 9,3 13,7 1,-1 2,-1 2,-2 5,3 16,7 19,9 -3,6 -9,16 -16,11 -6,5 -13,3 -20,4 -1,-6 -1,-6 -4,-13 -8,1 -9,3 -15,4 0,5 0,6 -3,9 -5,0 -7,1 -11,-2 -2,0 -5,1 -7,2 -1,7 4,11 0,18 -3,0 -5,0 -8,0 0,0 -1,-1 -1,-1z"/>
     </g>
   </g>
 </svg>