<?xml version="1.0" encoding="utf-8"?>
<!-- Generator: Adobe Illustrator 19.0.0, SVG Export Plug-In . SVG Version: 6.00 Build 0)  -->
<svg version="1.1" id="Layer_1" xmlns="http://www.w3.org/2000/svg" xmlns:xlink="http://www.w3.org/1999/xlink" x="0px" y="0px"
	 viewBox="0 0 1195 716" style="enable-background:new 0 0 1195 716;" xml:space="preserve">
<style type="text/css">
	.st0{fill:#FEFEFD;}
	.st1{fill:#4B7FAC;}
	.st2{fill:#C9B363;}
	.st3{fill:#B2822E;}
	.st4{fill:#111111;}
	.st5{fill:#CAA531;}
</style>
<g id="XMLID_4_">
	<path id="XMLID_128_" class="st0" d="M-3,360C-3,241.7-3,123.3-3.1,5c0-3.4,0.7-4.1,4.1-4.1C398,1,795,1,1192,0.9
		c3.4,0,4.1,0.7,4.1,4.1c-0.1,118.3-0.1,236.7-0.1,355c-108.6,0-217.3,0-325.9,0c-0.9-1.5-0.7-3.3-0.6-4.9c0.8-11-0.9-22-2.4-32.7
		c-3-20.6-7.2-41-15.3-60.6c-9.2-22.2-19.1-43.7-33.4-63.2c-16.1-22-34.6-41.4-56.3-57.9c-12.3-9.3-25.5-17-38.9-24.4
		c-5.4-3-10.9-6.1-17.2-7.1l-0.3-0.1c-4.4-4-10-5.5-15.4-7.3c-10.6-3.6-21.3-6.8-32.1-9.9c-2.3-0.7-4.7-0.4-7.5,1.6
		c4.5,1.5,8.3,3.1,12.2,4c9.8,2.1,18.4,7.7,28.1,10.1c15.3,7.2,29.6,16.2,43.4,25.8c9.6,6.7,18,14.9,26.2,23.5
		c11.4,11.9,20.8,25.3,29.9,39c1.4,5.3,4.2,9.8,7.6,14c1.2,5.5,3.8,10.4,7,15c4.6,9.3,7.7,19.1,10.2,29c8.4,32.6,10,65.6,3.7,98.8
		c-5.8,31.1-17.5,59.7-35.3,85.9c-13.2,19.3-28.5,36.6-47.3,50.4c-18.1,13.3-37.4,24.5-58.6,32.6c-22.3,8.5-45.3,13.4-68.9,14.8
		c-17.6,1-35.1-0.3-52.6-3.6c-29.5-5.4-56.7-16.4-82-32.3c-20.8-13.1-38.6-29.7-54.2-48.4c-16.8-20.1-28.8-43.3-37.2-68.3
		c-10.6-31.6-14-63.9-10.5-96.9c2.1-19.6,6.7-38.9,14.3-57.3c9.4-22.8,20.9-44.1,37.8-62.5c10.3-11.3,21.1-21.9,32.5-32
		c2.3-0.4,3.7-2.1,5.1-3.8l-0.1-0.3l0.2,0.2c1.3-0.3,2.3-0.9,2.8-2.2c0.4,0,0.6-0.1,0.8-0.4c10.4-6.2,20.7-12.4,31.1-18.6
		c14.6-6.3,29.5-11.8,45.1-16.6c-1.7-2-3-1.3-4.2-1.1c-12.2,2.2-24.2,5.7-35.8,10c-19.3,7-37.4,16.5-54.5,27.7
		c-18.2,11.9-35.1,25.4-50,41.3c-6.1,6.5-11.3,13.8-17,20.5c-7.6,8.9-13.5,18.9-19.7,28.5c-5.9,9.2-10.1,19.6-14.6,29.7
		c-2.8,6.3-6.4,12.4-6.5,19.7c-2.2,4.7-3.8,9.5-5.1,14.5c-6,22.4-9.5,45.1-9.8,68.3c-0.1,8.4,0.7,7.4-7.5,7.4
		c-101.8,0-203.6,0-305.4,0C7,360.1,2,360.1-3,360z M595.6,473.5C595.6,473.5,595.6,473.5,595.6,473.5c15.3,0,30.7,0,46,0
		c16.2,0,32.3-0.1,48.5,0.1c3.5,0,4.5-0.6,2.8-4.1c-4.6-9.9-8.5-20.2-12.4-30.4c-9.6-24.9-19.6-49.6-29.3-74.4
		c-10.8-27.4-21.4-54.9-32.3-82.3c-1.7-4.2-0.4-4.7,3.4-4.6c24,0.1,48-0.1,72,0.1c4.2,0,5.2-1.2,5.1-5.3c-0.2-19.3-0.1-38.7-0.1-58
		c0-19.7-0.1-39.3,0.1-59c0-3.2-0.7-4.6-4.1-4.3c-4.1,0.3-8.4,0.4-12.5,0c-4.7-0.4-5.7,1.3-5.7,5.8c0.2,31.3,0.1,62.7,0.2,94
		c0,3.6-0.8,4.9-4.6,4.8c-20.2-0.2-40.3-0.1-60.5-0.1c-2.4,0-4.3-0.2-4.9-2.9c-0.6-2.6,1.4-3.1,3-3.8c6.1-2.7,11-6.6,14.9-12
		c8.8-12.1,10.2-25.1,4.8-38.9c-6.8-17.3-28.5-27.8-46.3-22.3c-16.5,5.1-27.7,19-28.7,35.8c-1,17.2,9.9,34.2,27.5,39.1
		c1.2,0.3,2.4,0.7,2.2,2.1c-0.2,1.5-0.7,3-2.7,3c-1,0-2,0-3,0c-16.3,0-32.7,0-49,0c-4.5,0-10.3,1.5-13.1-0.8
		c-3.2-2.6-1.1-8.7-1.1-13.3c-0.1-28.3-0.2-56.7,0-85c0-4.5-1.3-5.9-5.6-5.5c-4,0.3-8,0.4-12,0c-3.8-0.3-4.7,1-4.7,4.8
		c0.1,38.8,0.2,77.6,0,116.5c0,4.6,1.4,5.4,5.6,5.4c23.3-0.2,46.7,0,70-0.2c4.4,0,5.2,0.9,3.4,5.1c-6.7,15.7-12.6,31.7-19.3,47.4
		c-7.4,17.5-13.9,35.4-21,53c-11.5,28.4-23.7,56.6-33.9,85.5c-1.6,4.5-0.6,4.8,3.4,4.8C533,473.4,564.3,473.5,595.6,473.5z
		 M696.8,70.3c1.8-0.1,2.9-1.4,3.4-2.7c2.2-5.2,4.4-10.5,6.2-15.9c0.8-2.4,1.8-4.2,4.2-5.1c5.3-2,10.6-4.2,16-6.1
		c1.5-0.5,2.2-1.4,2.7-2.6c0.7-1.7-0.7-2.2-1.8-3.1c-2.4-2-5.6-2-8.1-3.5c-3.9-2.3-9.5-2.2-12-6.4c-2.6-4.3-4.3-9.2-6.3-13.9
		c-0.9-2.1-1.4-5.4-3.5-5.3c-2.4,0.1-3.3,3.4-4.3,5.6c-0.3,0.6-0.1,1.3-0.3,2c-2.4,7.8-4.8,15.5-14.4,17.6c-3.5,0.8-6.7,2.7-10,4
		c-2.2,0.9-2.6,2.8-1,3.7c3.5,2.1,6.4,5.1,10.7,5.9c3.3,0.6,7.1,1.7,8.5,4.5c2.6,5.4,6.5,10.4,6.9,16.8
		C693.7,68.1,695,69.3,696.8,70.3z M628.8,37.5c0.1-1.4-0.5-2.2-1.6-2.3c-2.8-0.1-4.8-2-7.3-2.8c-8.2-2.6-15.7-6.1-17.4-16
		c-0.3-1.9-1.5-3.6-2.3-5.4c-0.7-1.6-1.7-2.9-3.6-3c-1.9-0.1-2.4,1.4-2.9,2.8c-0.8,2.2-1.6,4.4-2.7,6.4c-2.2,4.1-2,10.4-8.2,11.3
		c-5.3,0.8-9.7,3.9-14.8,5c-2.1,0.4-3,1.6-3.1,3.3c-0.1,1.5,0.3,3.4,2.1,3.5c4.7,0.5,8.3,3.7,12.9,4.7c2.9,0.7,6.8,1.7,7.6,5.5
		c1.2,5.9,5.1,10.7,6.3,16.5c0.3,1.6,1.6,3.3,3.4,3.1c1.9-0.1,2.8-1.9,3.4-3.7c1.7-4.8,3.6-9.4,5.3-14.2c1.1-2.9,2.9-4.6,5.7-6.2
		c4.4-2.5,8.8-4.4,13.5-5.9C626.5,39.7,628.3,39.2,628.8,37.5z M496.9,5.1c-3.7,1.6-4.9,4.4-5.6,8.1c-1.4,7.2-2.4,15-11.4,17.3
		c-2.7,0.7-5.4,1.5-8,2.5c-2.1,0.8-5.1,1.1-5.1,4c0,2.9,3.1,3,5.1,4c0.6,0.3,1.4,0.1,2,0.3c5.6,2.2,12,3.5,14.6,9.9
		c2,5,4.8,9.8,5.1,15.4c0.1,1.7,1.3,3,2.6,3.2c1.4,0.3,2.2-1.2,2.8-2.4c2.1-4.6,4.2-9.2,6-13.9c2-5.3,5.8-8.2,11.2-9
		c1.4-0.2,2.4-1,3.5-1.6c2.9-1.4,7.2-2.7,7.2-5.8c0-3.3-4.7-3.4-7.5-4.4c-8-2.9-15.4-6.1-17.6-15.6c-0.6-2.5-0.5-4.9-1.1-7.3
		C500.1,7.5,498.9,5.9,496.9,5.1z"/>
	<path id="XMLID_127_" class="st1" d="M870.1,360c108.6,0,217.3,0,325.9,0c0,117.6,0,235.3,0.1,352.9c0,3.2-0.4,4.2-4,4.2
		C795,717,398,717,0.9,717.1c-3.6,0-4-1-4-4.2C-3,595.6-3,478.3-3,361c2.4-1,4.9-0.6,7.4-0.6c103.3,0,206.6,0,309.9-0.1
		c2.2,0,4.3,0.1,6.5,0.1c2.2,0,3.4,0.8,3.4,3.2c-0.1,10.9,0.8,21.8,2.2,32.7c0.7,5.7,2.4,11.2,3.4,16.8c0.9,5.6,3.8,10.7,4.2,16.1
		c0.8,9.6,5,18,8.4,26.5c4.2,10.4,10.2,20,14.7,30.2c2.3,5.2,4,10.7,7.3,15.4c4.3,6.1,9.3,11.8,13.5,18
		c6.8,10.1,13.6,20.1,24.5,26.4c0.4,0.2,0.7,0.7,1,1.1c11,11.6,21.2,24,36,31c0.9,0.4,1.7,1.1,2.5,1.7c5.6,4.3,11.4,8.4,17.8,11.2
		c3.1,1.4,5,5.2,9,4.4c0,0,0,0,0,0c0.3,3.1,2.3,4.6,5,5.3c1.3,0.3,2.6,0.3,3.7,1.3c4.2,3.7,9.7,4.5,14.6,6.7
		c8.3,3.7,16.7,7.3,25.6,9.4c8.2,2,16.3,4.6,24.5,6.4c9.6,2,19.5,2.7,29.2,3.8c13.7,1.5,27.5,0.9,41.3,0.7c2.3,0,0.7-1,0.4-1.6
		c1.8-1.7,4.1-1.2,6.1-1.3c9.3-0.1,18.5-1.5,27.5-3.2c8.3-1.6,16.5-4.3,24.7-6.3c13.1-3.1,25.2-8.5,37.3-13.6
		c9.9-4.1,19.6-9,28.8-14.7c12.9-7.9,25.3-16.5,36.4-26.7c7.7-3.5,14-8.6,18-16.1c1.2-1.3,2.4-2.7,3.6-4c3.6-3.9,7.4-7.5,10.4-11.9
		c2,0,2.8-1.7,3.8-2.9c3.3-4,6.2-8.4,9.7-12.3c1.9-2.1,3-4.2,2.8-7c6.1-8.2,11.9-16.5,15.8-26c2.1-0.6,3.5-1.4,4-4
		c0.5-2.8,2.2-5.4,3.2-8.2c3.3-8.5,9.6-15.9,8.8-25.8c2.7-7.1,4.6-14.4,6.2-21.8c1-0.1,1.5-0.6,1.6-1.5c3.2-17,6.5-34.1,6.4-51.5
		C868.4,365.3,868.9,362.6,870.1,360z"/>
	<path id="XMLID_126_" class="st2" d="M468.8,595.2c-4.1,0.8-5.9-3.1-9-4.4c-6.4-2.8-12.2-6.9-17.8-11.2c-0.8-0.6-1.6-1.2-2.5-1.7
		c-14.9-7-25.1-19.5-36-31c-0.3-0.4-0.6-0.8-1-1.1c-10.9-6.3-17.7-16.3-24.5-26.4c-4.2-6.2-9.2-11.9-13.5-18
		c-3.3-4.7-5-10.2-7.3-15.4c-4.5-10.2-10.5-19.9-14.7-30.2c-3.5-8.5-7.6-16.9-8.4-26.5c-0.4-5.4-3.3-10.6-4.2-16.1
		c-0.9-5.6-2.6-11.1-3.4-16.8c-1.4-10.9-2.2-21.7-2.2-32.7c0-2.4-1.2-3.2-3.4-3.2c-2.2,0-4.3-0.1-6.5-0.1
		c-103.3,0-206.6,0-309.9,0.1c-2.5,0-5-0.4-7.4,0.6c0-0.3,0-0.7,0-1c5,0.1,10,0.1,15,0.1c101.8,0,203.6,0,305.4,0
		c8.2,0,7.4,1,7.5-7.4c0.3-23.2,3.8-45.9,9.8-68.3c1.3-5,2.9-9.8,5.1-14.5c0.1,0.1,0.3,0.2,0.4,0.4c-0.5,3.5-1.8,7.4-1.7,10.4
		c0.2,6.9-5.4,11.5-5.2,18.4c0.1,3.9-0.3,8.8-1.7,12.9c-2.5,7.5-2.9,15.3-3.3,22.9c-0.9,15.8-0.3,31.7-0.2,47.5
		c0,1.5-0.2,3.1,0.3,4.5c2.5,6.6,2.3,13.7,3.5,20.6c0.7,4.4,1.5,8.9,3,12.8c3.4,8.8,6.3,17.8,8.5,26.7c2.2,8.8,6.9,16,10,24
		c4.5,11.7,11.4,22.3,18.1,32.9c7.4,11.8,16.4,22.2,25.4,32.5c15.3,17.5,32.8,32.9,52.4,45.5c4.1,2.6,8.3,5.1,12.8,6.9
		C465.3,590.2,467.6,591.9,468.8,595.2z"/>
	<path id="XMLID_125_" class="st3" d="M457.2,135.2c-11.4,10.1-22.2,20.7-32.5,32c-16.9,18.4-28.4,39.7-37.8,62.5
		c-7.6,18.4-12.2,37.7-14.3,57.3c-3.5,32.9-0.2,65.3,10.5,96.9c8.4,25,20.4,48.2,37.2,68.3c15.6,18.7,33.4,35.3,54.2,48.4
		c25.3,16,52.4,26.9,82,32.3c17.5,3.2,35,4.6,52.6,3.6c23.6-1.4,46.6-6.3,68.9-14.8c21.2-8.1,40.4-19.3,58.6-32.6
		c18.9-13.8,34.2-31.1,47.3-50.4c17.9-26.2,29.5-54.9,35.3-85.9c6.2-33.2,4.6-66.2-3.7-98.8c-2.5-9.9-5.6-19.7-10.2-29
		c1-4.3-3.1-7-3.4-10.9c0.8-3.1-0.4-5.1-3.5-5.8c-0.2-0.7-0.4-1.5-0.6-2.2c0-1.5,1.2-3.5-1.7-3.7l-0.3-0.3c0.4-2.8-1.5-3.8-3.5-4.9
		c-0.1-0.4-0.2-0.7-0.3-1.1c0-1-0.4-1.9-0.7-2.8c-1.4-4.9-5.4-8-8.3-11.9c-1.5-2,0.2-5.1-2.3-6.2c-4.6-1.9-6.4-6.4-9.4-9.7
		c-3.9-4.2-8.1-8.1-11.8-12.5c-2-2.4-3.3-5.6-6-7.1c-9.7-5.3-16.3-14.8-26.7-19.3c-1.6-0.7-1.1-2.6,0.3-3.7c1,0.4,2,0.8,2.9,1.2
		c1.3,2.4,3.5,3,6,3c1,1.2,2.4,1.8,3.9,2.1c0.1,1.3,0.8,2,2.1,1.9c0.3,0,0.6,0.1,0.9,0.1c0.3,0.3,0.7,0.7,1,1c0.3,0.3,0.7,0.6,1,0.9
		c1.5,3,4.4,4.4,7.2,5.9c0.3,0,0.6,0,0.8,0.1c0.9,2.2,2,4.7,4.2,5.4c4.5,1.5,7.4,5.1,10.5,8c15.4,14.5,29.4,30.2,40.7,48.2
		c9.8,15.6,18.6,31.6,24.7,49.1c5.1,14.5,9.7,29.1,12.1,44.4c1.4,9,2.1,18.1,3.1,27.1c2.3,19.6-0.5,38.8-3,57.9
		c-1.3,9.7-4,19.3-6.8,28.8c-3.4,11.7-7.8,22.8-12.5,34c-5.4,13-13.2,24.7-20.9,36.4c-11.7,17.8-25.8,33.4-42,47.3
		c-10.7,9.1-21.7,17.8-33.9,24.9c-17.8,10.3-36.2,19.1-55.7,25.5c-21.3,7.1-43.4,10.5-65.8,11.9c-19.1,1.2-38.2-0.7-57-4.2
		c-21.4-4-41.8-11-61.5-20.4c-25.6-12.1-48.4-28.3-68.8-47.6c-25.3-24-44.1-52.6-56.8-85.1c-5.6-14.4-10.8-29-13.6-44.3
		c-2.6-14.3-4.8-28.7-5-43.4c-0.1-7.8,0.2-15.6,0.7-23.4c0.9-13.4,2.9-26.6,5.8-39.6c4-17.9,10.8-34.8,18.4-51.5
		c7.6-16.6,17.7-31.6,28.6-46.2c4.9-6.6,10.3-12.8,15.5-19.2c6.4-3.9,11.6-9.2,17.1-14.1c13-11.4,27-21.2,41.7-30.1
		c1.9,2.7,0.1,3.7-2.1,4.5c-2.7,0.9-4.3,2.8-4.9,5.5c-0.2,0.3-0.5,0.4-0.8,0.4c-1.6-0.1-2.7,0.4-2.8,2.2l-0.2-0.2
		c0,0,0.1,0.3,0.1,0.3C459.2,130.8,457.9,132.6,457.2,135.2z"/>
	<path id="XMLID_121_" class="st4" d="M595.6,473.5c-31.3,0-62.7,0-94,0.1c-3.9,0-5-0.3-3.4-4.8c10.2-28.9,22.5-57.1,33.9-85.5
		c7.1-17.6,13.6-35.5,21-53c6.7-15.7,12.6-31.7,19.3-47.4c1.8-4.2,1-5.1-3.4-5.1c-23.3,0.1-46.7-0.1-70,0.2c-4.3,0-5.7-0.8-5.6-5.4
		c0.2-38.8,0.2-77.6,0-116.5c0-3.7,0.9-5.1,4.7-4.8c4,0.3,8,0.3,12,0c4.3-0.4,5.7,1,5.6,5.5c-0.2,28.3-0.2,56.7,0,85
		c0,4.6-2.2,10.7,1.1,13.3c2.8,2.2,8.6,0.8,13.1,0.8c16.3,0,32.7,0,49,0c1,0,2,0,3,0c2,0,2.5-1.5,2.7-3c0.2-1.5-1-1.8-2.2-2.1
		c-17.6-4.9-28.5-21.9-27.5-39.1c1-16.8,12.2-30.7,28.7-35.8c17.7-5.5,39.5,5.1,46.3,22.3c5.4,13.8,4.1,26.8-4.8,38.9
		c-3.9,5.3-8.9,9.3-14.9,12c-1.6,0.7-3.6,1.3-3,3.8c0.6,2.7,2.5,2.9,4.9,2.9c20.2-0.1,40.3-0.1,60.5,0.1c3.9,0,4.6-1.2,4.6-4.8
		c-0.1-31.3,0-62.7-0.2-94c0-4.5,1-6.3,5.7-5.8c4.1,0.4,8.3,0.3,12.5,0c3.4-0.2,4.2,1.2,4.1,4.3c-0.1,19.7-0.1,39.3-0.1,59
		c0,19.3-0.1,38.7,0.1,58c0,4.1-0.9,5.4-5.1,5.3c-24-0.2-48,0-72-0.1c-3.8,0-5.1,0.5-3.4,4.6c10.9,27.4,21.5,54.8,32.3,82.3
		c9.8,24.8,19.7,49.5,29.3,74.4c3.9,10.2,7.9,20.4,12.4,30.4c1.6,3.6,0.6,4.2-2.8,4.1c-16.2-0.1-32.3-0.1-48.5-0.1
		C626.3,473.5,611,473.5,595.6,473.5C595.6,473.5,595.6,473.5,595.6,473.5z M596.1,287.3c-1.8,4-3.1,6.7-4.2,9.4
		c-10.1,25-20.3,50-30.3,75.1c-9.5,23.7-18.9,47.4-28.6,71c-1.7,4.2-0.6,4.9,3.3,4.7c5.3-0.2,10.7-0.1,16-0.1
		c33.8,0,67.6-0.1,101.4,0.1c4.5,0,5.1-1,3.4-4.9c-2.2-5-4-10.1-6-15.2c-13.3-33.8-26.7-67.5-40-101.3
		C606.3,313.6,601.5,301.1,596.1,287.3z M616.1,213.2c0-12.1-9.7-21.7-21.8-21.7c-13,0.1-22.4,9.1-22.3,21.6
		c0.1,12.9,9.5,22.6,22,22.6C606.4,235.7,616.1,225.9,616.1,213.2z"/>
	<path id="XMLID_120_" class="st2" d="M696.8,70.3c-1.8-0.9-3.1-2.2-3.2-4.5c-0.4-6.3-4.4-11.3-6.9-16.8c-1.3-2.9-5.2-3.9-8.5-4.5
		c-4.2-0.8-7.2-3.8-10.7-5.9c-1.6-1-1.2-2.9,1-3.7c3.4-1.3,6.5-3.2,10-4c9.6-2.1,12-9.8,14.4-17.6c0.2-0.6,0.1-1.4,0.3-2
		c1-2.2,1.9-5.5,4.3-5.6c2.1-0.1,2.6,3.2,3.5,5.3c2,4.7,3.7,9.6,6.3,13.9c2.6,4.2,8.1,4.1,12,6.4c2.5,1.5,5.8,1.5,8.1,3.5
		c1,0.9,2.5,1.4,1.8,3.1c-0.5,1.2-1.2,2.1-2.7,2.6c-5.4,1.9-10.7,4.1-16,6.1c-2.4,0.9-3.4,2.6-4.2,5.1c-1.7,5.4-3.9,10.7-6.2,15.9
		C699.7,68.8,698.6,70.1,696.8,70.3z"/>
	<path id="XMLID_119_" class="st2" d="M628.8,37.5c-0.4,1.8-2.2,2.2-3.7,2.7c-4.7,1.6-9.2,3.4-13.5,5.9c-2.9,1.6-4.7,3.3-5.7,6.2
		c-1.7,4.8-3.6,9.4-5.3,14.2c-0.6,1.8-1.5,3.6-3.4,3.7c-1.8,0.1-3-1.6-3.4-3.1c-1.2-5.9-5.1-10.6-6.3-16.5c-0.8-3.8-4.7-4.8-7.6-5.5
		c-4.6-1-8.2-4.3-12.9-4.7c-1.7-0.2-2.2-2.1-2.1-3.5c0.1-1.7,1-2.8,3.1-3.3c5.1-1.1,9.5-4.2,14.8-5c6.2-0.9,6-7.1,8.2-11.3
		c1.1-2,1.9-4.2,2.7-6.4c0.5-1.5,1.1-3,2.9-2.8c1.8,0.1,2.9,1.4,3.6,3c0.8,1.8,2,3.5,2.3,5.4c1.7,9.9,9.2,13.4,17.4,16
		c2.5,0.8,4.5,2.8,7.3,2.8C628.3,35.2,628.9,36.1,628.8,37.5z"/>
	<path id="XMLID_118_" class="st2" d="M496.9,5.1c2,0.8,3.3,2.4,3.8,4.6c0.6,2.4,0.6,4.9,1.1,7.3c2.2,9.6,9.6,12.7,17.6,15.6
		c2.8,1,7.5,1.1,7.5,4.4c0,3.1-4.3,4.3-7.2,5.8c-1.2,0.6-2.1,1.4-3.5,1.6c-5.4,0.8-9.2,3.7-11.2,9c-1.8,4.7-3.9,9.3-6,13.9
		c-0.5,1.2-1.4,2.7-2.8,2.4c-1.4-0.3-2.5-1.6-2.6-3.2c-0.3-5.6-3.1-10.4-5.1-15.4c-2.5-6.4-9-7.7-14.6-9.9c-0.6-0.2-1.4,0-2-0.3
		c-2-1-5.1-1-5.1-4c0-2.9,3-3.2,5.1-4c2.6-1,5.3-1.8,8-2.5c9-2.4,9.9-10.1,11.4-17.3C492,9.5,493.1,6.6,496.9,5.1z"/>
	<path id="XMLID_117_" class="st2" d="M472.9,118.8c-14.8,8.8-28.7,18.7-41.7,30.1c-5.5,4.8-10.8,10.2-17.1,14.1
		c-0.3-1.6-0.9-1.9-2.3-0.8c-8.4,7.1-15.3,15.7-22.8,23.5c-4.7,4.8-8.5,11-12,17.1c-5.6,9.7-12.7,18.4-18.1,28.3
		c-4.3,8-8.2,16.1-11.2,24.7c-1.8,5-2.7,10.8-7.3,14.5c-0.1-0.1-0.3-0.2-0.4-0.4c0.1-7.2,3.7-13.4,6.5-19.7
		c4.4-10.1,8.7-20.5,14.6-29.7c6.2-9.7,12.1-19.7,19.7-28.5c5.8-6.7,10.9-14,17-20.5c14.9-15.9,31.8-29.4,50-41.3
		c17.1-11.2,35.2-20.7,54.5-27.7c11.7-4.2,23.6-7.7,35.8-10c1.3-0.2,2.5-0.9,4.2,1.1c-15.6,4.8-30.5,10.3-45.1,16.6
		c0-1.8-0.1-3.8-2.6-2.7c-4.3,1.9-8.8,3.2-12.5,6.2c-1.4,0.6-3,1-4,2.3l0,0c-1.7,0.2-3.1,0.9-4.4,2
		C473.4,118.2,473.2,118.5,472.9,118.8z"/>
	<path id="XMLID_116_" class="st2" d="M730,124c-1-0.4-2-0.8-2.9-1.2c-1.4-2.9-4-4.4-6.8-5.9c-4.8-2.4-10.1-4-14.3-7.7
		c6.3,1,11.8,4.1,17.2,7.1c13.4,7.4,26.6,15,38.9,24.4c21.8,16.5,40.2,35.9,56.3,57.9c14.3,19.5,24.3,41,33.4,63.2
		c8.1,19.6,12.3,40,15.3,60.6c1.5,10.7,3.2,21.7,2.4,32.7c-0.1,1.6-0.3,3.3,0.6,4.9c-1.2,2.6-1.7,5.3-1.7,8.2
		c0.1,17.4-3.2,34.5-6.4,51.5c-0.2,0.9-0.7,1.5-1.6,1.5c-0.1-1.7-0.5-3.3-0.3-5c0.8-6.1,2.6-12.1,3.7-18.1
		c1.2-6.9,1.4-14.1,1.8-21.1c1.4-20.5,1.2-41.2-1.9-61.6c-0.6-4.1-1-8.4-2-12.5c-2.4-9.9-5.1-19.7-7.7-29.5
		c-0.2-0.9-0.6-1.9-1.1-2.7c-4.2-7.5-7.6-15.6-10.3-23.6c-2.7-8.2-7.4-14.8-11.3-22.1c-2.3-4.3-5.3-8.3-7.1-12.7
		c-1.4-3.4-2.7-6.5-5.1-9.3c-4.5-5.4-8.7-11.1-13-16.6c-2.5-3.2-5.3-6.2-7.7-9.5c-4.9-6.7-12.6-10.7-17.4-17.7
		c-1.3-1.9-3.5-3.3-5.6-4.7c-2.7-1.8-5.4-3.9-8-6c-4.4-3.6-8.1-8.8-14.4-9.7c-0.3,0-0.6-0.1-0.8-0.1c-0.1-4.7-3-6.1-7.2-5.9
		c-0.3-0.3-0.7-0.6-1-0.9c-0.3-0.3-0.7-0.7-1-1c-0.3,0-0.6-0.1-0.9-0.1c-0.1-1.3-0.8-1.9-2.1-1.9c-1.5-0.3-2.9-0.8-3.9-2.1
		C734.6,124.9,733.3,122.4,730,124z"/>
	<path id="XMLID_115_" class="st5" d="M706,109.3c4.2,3.7,9.5,5.2,14.3,7.7c2.8,1.4,5.4,2.9,6.8,5.9c-1.3,1.2-1.9,3-0.3,3.7
		c10.3,4.5,17,13.9,26.7,19.3c2.7,1.5,4,4.7,6,7.1c3.7,4.4,7.9,8.3,11.8,12.5c3,3.3,4.8,7.8,9.4,9.7c2.5,1.1,0.8,4.1,2.3,6.2
		c2.8,3.9,6.8,7,8.3,11.9c0.3,0.9,0.7,1.8,0.7,2.8c-0.5,0-1-0.1-1.4-0.1c-9.1-13.7-18.5-27-29.9-39c-8.1-8.5-16.6-16.8-26.2-23.5
		c-13.8-9.6-28.1-18.6-43.4-25.8c-0.8-2.6-4.9-1.1-5.5-4.2c3.1-1.1,5.6,0.7,8.2,1.5c4.1,1.2,7.3,4.8,12,4.3L706,109.3z"/>
	<path id="XMLID_114_" class="st2" d="M705.6,109.2c-4.7,0.5-7.9-3.1-12-4.3c-2.6-0.8-5.1-2.6-8.2-1.5c0.6,3.1,4.7,1.6,5.5,4.2
		c-9.7-2.4-18.3-8-28.1-10.1c-3.9-0.9-7.7-2.5-12.2-4c2.8-2,5.3-2.3,7.5-1.6c10.7,3.2,21.5,6.4,32.1,9.9
		C695.6,103.7,701.3,105.2,705.6,109.2z"/>
	<path id="XMLID_113_" class="st5" d="M482,113.7c3.7-3,8.3-4.3,12.5-6.2c2.5-1.1,2.6,1,2.6,2.7c-10.4,6.2-20.7,12.4-31.1,18.6
		c0.5-2.8,2.2-4.6,4.9-5.5c2.2-0.7,4-1.7,2.1-4.5c0.2-0.3,0.5-0.5,0.7-0.8c1.7-0.2,4,1,4.3-2c0,0,0,0,0,0
		C479.7,115.9,482,116.7,482,113.7z"/>
	<path id="XMLID_112_" class="st2" d="M801.8,214c0.3,3.9,4.4,6.6,3.4,10.9c-3.2-4.6-5.8-9.5-7-15c0,0,0.3-0.2,0.3-0.2
		C800.2,210.6,799.5,213.4,801.8,214z"/>
	<path id="XMLID_111_" class="st2" d="M790.5,195.9c0.5,0,1,0.1,1.4,0.1c0.1,0.4,0.2,0.7,0.3,1.1c0.4,2.2,1.4,3.9,3.5,4.9
		c0,0,0.3,0.3,0.3,0.3c0.2,1.4-0.3,3.1,1.7,3.7c0.2,0.7,0.4,1.5,0.6,2.2c0.1,0.5,0.1,1,0.2,1.5c0,0-0.3,0.2-0.3,0.2
		C794.7,205.7,791.9,201.2,790.5,195.9z"/>
	<path id="XMLID_110_" class="st5" d="M457.2,135.2c0.7-2.5,2-4.4,5.1-3.8C460.9,133,459.5,134.8,457.2,135.2z"/>
	<path id="XMLID_109_" class="st5" d="M462.3,131.3c0.2-1.8,1.2-2.3,2.8-2.2C464.6,130.4,463.6,131,462.3,131.3z"/>
	<path id="XMLID_108_" class="st5" d="M753,138.9c6.3,0.9,10,6,14.4,9.7c2.6,2.1,5.3,4.2,8,6c2.1,1.4,4.3,2.7,5.6,4.7
		c4.7,7,12.5,11,17.4,17.7c2.4,3.3,5.1,6.3,7.7,9.5c4.3,5.5,8.5,11.2,13,16.6c2.3,2.8,3.7,6,5.1,9.3c1.8,4.5,4.8,8.4,7.1,12.7
		c3.9,7.3,8.6,13.9,11.3,22.1c2.7,8,6.1,16.1,10.3,23.6c0.5,0.8,0.8,1.8,1.1,2.7c2.6,9.8,5.3,19.6,7.7,29.5c1,4.1,1.4,8.4,2,12.5
		c3.1,20.4,3.3,41.1,1.9,61.6c-0.5,7-0.6,14.2-1.8,21.1c-1.1,6-2.9,12-3.7,18.1c-0.2,1.6,0.2,3.3,0.3,5c-1.6,7.4-3.5,14.7-6.2,21.8
		c-3.1,0.6-4.3,2.7-4.2,5.7c0.1,1.7-0.5,3.1-1.2,4.6c-4.4,8.9-9,17.7-10.6,27.6c-3.9,9.5-9.7,17.8-15.8,26c-1.3-0.2-2.2,0.6-2.9,1.6
		c-3.9,5.8-7.8,11.6-12.7,16.7c-1,1.1-0.7,2.5-0.6,3.8c-2.9,4.4-6.8,8.1-10.4,11.9c-1.2,1.3-2.4,2.7-3.6,4c-2.6,0.1-5.2-0.3-8.6-1.5
		c4.1,5-0.1,6.7-2.3,9.3c-2.4,2.8-5.9,4.6-7.1,8.4c-11.2,10.3-23.5,18.8-36.4,26.7c-9.3,5.7-19,10.6-28.8,14.7
		c-12.2,5.1-24.2,10.5-37.3,13.6c-8.2,1.9-16.4,4.7-24.7,6.3c-9,1.7-18.2,3.1-27.5,3.2c-2.1,0-4.4-0.5-6.1,1.3
		c-11.2,0.6-22.3-2.1-33.4-1.9c-8.3,0.1-16.1-3.3-24.4-2.3c-0.6,0.1-1.3-0.3-1.9-0.5c-4.6-2.1-9.7-2.5-14.5-3.1
		c-6.8-0.9-13-3.8-19.6-5.2c-7-1.5-13.8-4.5-20.6-7.1c-8.2-3-16.1-6.5-23.8-10.7c-2.1-1.1-4-1.4-6.1-1.1c0,0,0,0,0,0
		c-1.1-3.3-3.4-5-6.7-6.3c-4.5-1.8-8.8-4.3-12.8-6.9c-19.7-12.6-37.2-28-52.4-45.5c-9-10.3-18-20.8-25.4-32.5
		c-6.7-10.7-13.6-21.3-18.1-32.9c-3.1-8.1-7.8-15.3-10-24c-2.2-8.9-5.1-18-8.5-26.7c-1.5-3.8-2.2-8.4-3-12.8
		c-1.1-6.8-0.9-13.9-3.5-20.6c-0.5-1.3-0.3-3-0.3-4.5c0-15.8-0.7-31.7,0.2-47.5c0.4-7.6,0.8-15.4,3.3-22.9c1.4-4.1,1.8-9,1.7-12.9
		c-0.1-7,5.4-11.6,5.2-18.4c-0.1-3,1.3-6.9,1.7-10.4c4.6-3.8,5.5-9.5,7.3-14.5c3-8.6,6.9-16.7,11.2-24.7
		c5.4-9.9,12.6-18.6,18.1-28.3c3.5-6.1,7.3-12.3,12-17.1c7.6-7.8,14.5-16.4,22.8-23.5c1.4-1.2,2-0.9,2.3,0.8
		c-5.2,6.4-10.6,12.6-15.5,19.2c-10.9,14.6-21,29.6-28.6,46.2c-7.6,16.7-14.4,33.6-18.4,51.5c-2.9,13.1-5,26.2-5.8,39.6
		c-0.5,7.8-0.8,15.6-0.7,23.4c0.2,14.6,2.4,29,5,43.4c2.7,15.3,8,29.9,13.6,44.3c12.6,32.6,31.4,61.2,56.8,85.1
		c20.4,19.3,43.2,35.5,68.8,47.6c19.7,9.3,40.2,16.3,61.5,20.4c18.8,3.5,37.8,5.5,57,4.2c22.3-1.5,44.4-4.9,65.8-11.9
		c19.5-6.4,37.9-15.2,55.7-25.5c12.2-7.1,23.2-15.7,33.9-24.9c16.2-13.8,30.3-29.5,42-47.3c7.7-11.7,15.5-23.4,20.9-36.4
		c4.6-11.1,9-22.3,12.5-34c2.8-9.5,5.6-19.1,6.8-28.8c2.6-19.2,5.3-38.4,3-57.9c-1-9-1.7-18.1-3.1-27.1c-2.4-15.3-7-29.9-12.1-44.4
		c-6.1-17.5-14.9-33.5-24.7-49.1c-11.3-18-25.3-33.7-40.7-48.2c-3.1-3-6-6.5-10.5-8C755,143.6,753.9,141.2,753,138.9z"/>
	<path id="XMLID_107_" class="st2" d="M468.8,595.2c2.2-0.3,4-0.1,6.1,1.1c7.6,4.2,15.6,7.7,23.8,10.7c6.8,2.5,13.5,5.6,20.6,7.1
		c6.6,1.4,12.8,4.3,19.6,5.2c4.8,0.7,9.9,1.1,14.5,3.1c0.6,0.3,1.3,0.6,1.9,0.5c8.3-1,16.1,2.4,24.4,2.3c11.1-0.2,22.2,2.6,33.4,1.9
		c0.3,0.6,1.9,1.6-0.4,1.6c-13.8,0.2-27.6,0.8-41.3-0.7c-9.7-1-19.6-1.8-29.2-3.8c-8.3-1.7-16.3-4.4-24.5-6.4
		c-8.9-2.1-17.3-5.7-25.6-9.4c-4.9-2.2-10.4-3.1-14.6-6.7c-1.1-1-2.4-1-3.7-1.3C471.1,599.8,469.1,598.3,468.8,595.2z"/>
	<path id="XMLID_106_" class="st2" d="M838.1,481.1c1.7-9.9,6.2-18.8,10.6-27.6c0.8-1.6,1.3-3,1.2-4.6c-0.1-3,1-5.1,4.2-5.7
		c0.8,9.9-5.5,17.3-8.8,25.8c-1.1,2.7-2.7,5.3-3.2,8.2C841.6,479.7,840.2,480.5,838.1,481.1z"/>
	<path id="XMLID_105_" class="st2" d="M774.1,561.3c1.2-3.8,4.7-5.6,7.1-8.4c2.2-2.5,6.5-4.3,2.3-9.3c3.3,1.3,5.9,1.6,8.6,1.5
		C788.1,552.7,781.8,557.8,774.1,561.3z"/>
	<path id="XMLID_104_" class="st2" d="M806.1,529.3c-0.1-1.3-0.4-2.8,0.6-3.8c4.9-5.1,8.8-10.9,12.7-16.7c0.7-1,1.6-1.7,2.9-1.6
		c0.2,2.8-0.8,4.8-2.8,7c-3.5,3.8-6.4,8.3-9.7,12.3C808.9,527.6,808.1,529.3,806.1,529.3z"/>
	<path id="XMLID_103_" class="st5" d="M745,132.9c4.2-0.2,7,1.2,7.2,5.9C749.4,137.4,746.6,135.9,745,132.9z"/>
	<path id="XMLID_102_" class="st5" d="M798.4,209.7c-0.1-0.5-0.1-1-0.2-1.5c3.2,0.7,4.3,2.7,3.5,5.8
		C799.5,213.4,800.2,210.6,798.4,209.7z"/>
	<path id="XMLID_101_" class="st5" d="M730,124c3.3-1.6,4.6,0.9,6,3C733.5,127,731.4,126.4,730,124z"/>
	<path id="XMLID_100_" class="st5" d="M795.7,201.9c-2.1-1-3.1-2.7-3.5-4.9C794.2,198.1,796.2,199.2,795.7,201.9z"/>
	<path id="XMLID_99_" class="st5" d="M797.7,206c-2-0.6-1.5-2.3-1.7-3.7C798.9,202.5,797.7,204.5,797.7,206z"/>
	<path id="XMLID_98_" class="st5" d="M740,129c1.3-0.1,2,0.6,2.1,1.9C740.8,131,740.1,130.4,740,129z"/>
	<path id="XMLID_97_" class="st5" d="M743,131c0.3,0.3,0.7,0.7,1,1C743.6,131.7,743.3,131.4,743,131z"/>
	<path id="XMLID_96_" class="st0" d="M596.1,287.3c5.4,13.8,10.2,26.3,15.1,38.7c13.3,33.8,26.7,67.5,40,101.3
		c2,5.1,3.7,10.2,6,15.2c1.7,3.9,1.1,5-3.4,4.9c-33.8-0.2-67.6-0.1-101.4-0.1c-5.3,0-10.7-0.1-16,0.1c-3.9,0.2-5.1-0.5-3.3-4.7
		c9.7-23.6,19-47.3,28.6-71c10.1-25,20.2-50,30.3-75.1C593,294,594.3,291.3,596.1,287.3z"/>
	<path id="XMLID_95_" class="st0" d="M616.1,213.2c0,12.6-9.7,22.4-22.2,22.5c-12.5,0-21.9-9.6-22-22.6
		c-0.1-12.5,9.3-21.6,22.3-21.6C606.4,191.5,616.1,201.1,616.1,213.2z"/>
	<path id="XMLID_94_" class="st3" d="M478,116c-0.4,3-2.7,1.8-4.3,2C474.9,116.9,476.3,116.2,478,116z"/>
	<path id="XMLID_93_" class="st3" d="M482,113.7c0,3-2.3,2.2-4,2.3C479,114.7,480.5,114.3,482,113.7z"/>
</g>
</svg>
