<svg id="svg" version="1.1" xmlns="http://www.w3.org/2000/svg" xmlns:xlink="http://www.w3.org/1999/xlink" width="400" height="314.20000000000005" viewBox="0, 0, 400,314.20000000000005"><g id="svgg"><path id="path0" d="M179.900 88.205 C 119.685 92.606,92.335 165.348,134.893 207.907 C 173.981 246.994,241.004 227.488,253.095 173.506 C 263.269 128.085,226.148 84.824,179.900 88.205 " stroke="none" fill="#e41c1b" fill-rule="evenodd"></path><path id="path1" d="M24.436 0.405 C 20.970 1.314,17.254 3.750,11.500 8.889 C 7.249 12.686,3.635 15.438,2.200 15.972 C 1.086 16.387,0.915 16.506,0.646 17.053 C 0.137 18.090,0.012 20.700,0.006 30.450 L 0.000 40.400 178.550 40.450 L 357.100 40.500 357.100 158.300 L 357.100 276.100 178.540 276.150 L -0.020 276.200 0.040 286.550 C 0.111 298.778,0.115 298.800,2.237 298.800 C 4.002 298.801,6.101 300.301,10.900 304.992 C 20.782 314.652,22.858 315.208,40.063 312.796 C 49.726 311.442,50.177 310.371,42.800 306.306 C 34.130 301.528,32.278 294.825,39.178 293.200 C 43.154 292.264,47.496 294.477,52.048 299.758 C 57.731 306.351,58.906 306.969,59.881 303.876 C 60.776 301.037,64.340 299.182,69.500 298.869 C 73.753 298.612,75.003 299.318,81.648 305.736 C 90.354 314.143,93.530 315.010,108.599 313.090 C 120.952 311.515,121.097 311.017,110.913 305.132 C 102.512 300.278,103.775 291.992,112.730 293.213 C 116.135 293.677,118.512 295.399,123.199 300.800 C 128.176 306.535,129.287 306.995,130.176 303.689 C 130.934 300.873,135.227 298.945,140.809 298.915 L 143.519 298.900 145.085 299.673 C 146.471 300.358,147.123 300.909,150.780 304.485 C 160.289 313.783,163.023 314.843,174.300 313.599 C 184.580 312.466,188.024 311.637,188.161 310.262 C 188.266 309.207,187.452 308.583,182.200 305.690 C 175.018 301.734,173.302 295.117,179.009 293.384 C 183.607 291.987,187.706 294.142,193.719 301.118 C 198.266 306.393,199.226 306.812,200.303 303.992 C 201.502 300.855,204.762 299.166,210.223 298.855 C 213.850 298.648,215.820 299.671,220.496 304.193 C 231.405 314.739,233.642 315.325,252.600 312.595 C 260.365 311.477,260.637 310.506,254.222 306.800 C 247.808 303.095,245.719 300.863,245.706 297.700 C 245.694 294.802,247.920 293.143,251.800 293.159 C 256.067 293.176,258.649 294.971,265.154 302.439 C 268.551 306.339,269.627 306.630,270.586 303.907 C 271.724 300.680,275.337 298.970,281.100 298.931 C 285.328 298.903,286.058 299.299,291.275 304.461 C 300.635 313.722,303.468 314.833,314.600 313.613 C 329.958 311.929,331.795 310.760,325.000 306.995 C 320.949 304.750,320.255 304.287,318.883 302.916 C 314.227 298.262,315.481 293.421,321.438 293.055 C 325.409 292.811,328.728 294.876,333.961 300.850 C 338.913 306.501,339.801 306.901,340.792 303.925 C 341.836 300.786,345.597 298.980,351.200 298.926 C 355.257 298.887,356.023 299.318,361.760 304.867 C 367.276 310.202,370.652 312.477,374.871 313.701 C 379.741 315.114,397.513 312.405,398.769 310.058 C 399.187 309.276,397.479 306.507,394.962 303.884 C 392.488 301.307,390.971 300.673,385.896 300.094 C 376.825 299.059,376.316 297.595,382.601 290.600 C 389.206 283.249,389.352 282.751,385.271 281.491 C 380.583 280.045,380.533 278.250,384.946 269.800 C 390.954 258.297,391.976 255.697,392.408 250.829 C 392.809 246.314,391.495 234.200,390.605 234.200 C 390.182 234.200,388.781 236.427,386.012 241.500 C 382.984 247.046,382.247 247.776,379.500 247.954 C 376.154 248.170,375.754 247.649,375.392 242.600 C 374.946 236.384,375.114 235.970,380.242 230.653 C 387.110 223.533,388.780 220.582,385.247 221.814 C 382.853 222.648,379.925 216.637,379.931 210.900 C 379.936 206.000,381.249 203.350,386.967 196.700 C 392.165 190.655,393.520 187.472,393.732 180.800 C 393.960 173.661,391.827 158.000,390.627 158.000 C 390.151 158.000,388.565 160.521,385.475 166.188 C 382.920 170.873,381.942 171.684,378.881 171.656 C 376.250 171.633,375.789 171.214,375.406 168.500 C 374.485 161.984,375.667 159.208,382.227 152.477 C 387.297 147.276,387.383 147.068,384.936 145.934 C 382.008 144.576,380.503 141.801,379.988 136.810 C 379.442 131.519,380.220 129.694,386.391 121.800 C 394.223 111.779,394.876 108.703,392.696 92.100 C 391.500 82.990,391.165 80.920,390.935 81.217 C 388.881 83.868,387.317 86.524,386.928 88.022 C 384.974 95.540,376.610 98.874,375.573 92.549 C 374.505 86.044,375.131 84.392,381.269 77.517 C 386.844 71.273,387.067 70.782,384.827 69.667 C 381.950 68.236,380.498 65.522,379.985 60.621 C 379.502 56.011,380.335 54.069,385.096 48.700 C 392.412 40.451,393.407 36.919,388.555 36.428 C 383.547 35.920,380.356 31.250,380.337 24.400 C 380.321 18.785,382.534 16.122,390.100 12.651 C 397.918 9.066,400.000 7.285,400.000 4.185 C 400.000 2.670,399.806 2.529,397.958 2.697 C 396.148 2.862,393.532 2.490,388.100 1.297 C 375.977 -1.366,372.670 -0.323,361.800 9.593 C 354.284 16.449,351.771 17.277,345.748 14.884 C 342.309 13.518,340.619 11.960,340.305 9.865 C 339.902 7.174,339.743 7.270,334.247 13.530 C 328.401 20.189,327.311 20.897,322.900 20.898 C 318.903 20.898,317.613 20.351,316.650 18.248 C 315.167 15.009,317.610 11.664,324.363 7.687 C 328.720 5.122,331.355 2.145,328.950 2.507 C 326.318 2.903,323.643 2.591,317.800 1.207 C 307.140 -1.317,302.995 -0.252,294.375 7.230 C 293.317 8.148,291.505 9.721,290.351 10.725 C 284.050 16.200,281.468 17.012,276.228 15.164 C 273.821 14.315,272.320 13.520,271.415 12.615 C 270.646 11.846,270.541 11.576,270.301 9.750 C 270.053 7.867,269.100 8.472,264.262 13.585 C 257.700 20.522,256.442 21.263,251.800 20.931 C 242.504 20.267,243.763 14.231,254.621 7.410 C 258.687 4.855,260.868 2.139,258.550 2.515 C 256.129 2.908,253.594 2.614,247.200 1.200 C 235.732 -1.336,232.069 -0.193,221.900 9.092 C 214.087 16.226,211.672 17.154,206.059 15.175 C 201.879 13.701,200.422 12.430,199.808 9.720 C 199.266 7.323,199.197 7.370,192.923 14.468 C 187.822 20.238,186.771 20.879,182.400 20.882 C 178.512 20.885,177.076 20.290,176.173 18.302 C 174.622 14.887,176.878 11.939,184.682 7.185 C 188.466 4.880,190.612 2.147,188.350 2.515 C 186.005 2.895,182.630 2.507,177.800 1.301 C 166.674 -1.478,162.446 -0.311,152.789 8.200 C 143.704 16.208,141.640 17.101,136.322 15.321 C 131.565 13.729,130.091 12.523,129.819 10.000 C 129.583 7.815,129.323 7.979,123.222 14.156 C 116.840 20.617,116.228 21.000,112.290 21.000 C 103.117 21.000,102.916 14.777,111.900 8.912 C 113.220 8.050,114.791 7.020,115.391 6.622 C 116.944 5.594,119.200 3.346,119.200 2.826 C 119.200 2.328,118.321 2.239,117.213 2.626 C 116.060 3.027,113.216 2.604,104.700 0.764 C 95.374 -1.250,91.154 0.275,81.284 9.227 C 73.590 16.206,71.242 17.121,65.800 15.261 C 61.629 13.835,59.675 12.129,59.300 9.583 C 58.971 7.355,58.544 7.593,54.344 12.350 C 47.179 20.465,46.035 21.196,40.924 20.936 C 37.110 20.742,35.285 19.305,35.311 16.516 C 35.339 13.649,37.615 11.150,43.300 7.745 C 47.974 4.946,50.476 2.127,47.950 2.507 C 45.336 2.900,42.718 2.592,36.800 1.196 C 31.099 -0.149,27.445 -0.383,24.436 0.405 " stroke="none" fill="#339bcc" fill-rule="evenodd"></path><path id="path2" d="M-0.000 158.300 L -0.000 276.200 178.550 276.150 L 357.100 276.100 357.100 158.300 L 357.100 40.500 178.550 40.450 L 0.000 40.400 -0.000 158.300 M192.399 88.513 C 250.154 95.225,275.404 165.431,235.030 207.049 C 196.722 246.537,129.855 228.695,116.399 175.395 C 104.450 128.067,143.973 82.886,192.399 88.513 " stroke="none" fill="#fccb04" fill-rule="evenodd"></path></g></svg>