<?xml version="1.0" encoding="utf-8"?>
<svg version="1.1" id="Layer_1" x="0px" y="0px" viewBox="0 0 300 200" style="enable-background:new 0 0 300 200;" xmlns="http://www.w3.org/2000/svg">
  <style type="text/css">
	.st0{fill:#FFFEFE;}
	.st1{fill:#F8FCF8;}
	.st2{fill:#EE2425;}
</style>
  <g id="XMLID_4_">
    <path id="XMLID_40_" class="st0" d="M267,201c-74,0-148,0-222,0c0.3-9.3-0.9-18.5-1.9-27.7c-1.8-17.1-3.9-34.2-8.3-50.8 c-2.2-8.3-2.8-17.5-10.3-23.8c-1.6-1.4-1.9-3.7-0.9-6c0.7-1.7,1.2-3.5,1.4-5.3c0.6-5.9,3.7-10.5,8.2-13.7 c13.1-9.5,24.5-20.2,30.5-35.7c3-7.9,6.5-15.4,3.5-24.3C65.8,9.7,64.4,5.4,65,1c69.3,0,138.7,0,208,0c-1.2,6.8-2.5,13.6-3.6,20.4 c-1.8,10.8-3.3,21.6-3.3,32.5C266.4,103,264.8,152,267,201z M41.9,92.3c7.6,9.4,13.4,19.5,18.9,29.7c8.2,15.2,16.5,30.4,24.3,45.7 c2.7,5.2,6.9,3.1,10.4,3c3.2-0.1,1.5-3.5,1.5-5.3c0.1-23.3,0.2-46.7,0-70c0-3.8,1-4.6,4.7-4.6c23.7,0.2,47.3,0.2,71,0 c3.9,0,4.5,1.2,4.5,4.7c-0.2,23.8,0,47.7-0.2,71.5c0,4.2,2,4.1,4.8,3.9c2.5-0.2,5.5,1.3,5.4-3.7c-0.2-27.5-0.2-55,0-82.5 c0-3.1-0.7-3.9-3.8-3.9c-12.5,0.2-25,0-37.5,0.2c-3.2,0.1-3.9-0.9-3.8-3.9c0.2-9.2,0.2-18.3,0-27.5c-0.1-3.5,0.8-6,3.5-8.6 c6.3-6,4.5-15.9-3.1-19c-5.7-2.3-12.3-0.8-15.3,3.6c-3.3,4.9-2.8,11.4,2.1,15.8c2.4,2.2,3,4.4,3,7.4c-0.1,9.2-0.2,18.3,0,27.5 c0.1,3.6-0.6,4.8-4.5,4.7c-12.2-0.3-24.3,0-36.5-0.2c-3.2-0.1-4.2,0.8-4.1,4.1c0.2,16,0.1,32,0.1,48c0,7.1,0,14.1,0,21.2 c-4.9-7.4-8.9-14.9-12.8-22.5c-5.9-11.5-11.9-23-16.9-35c-1.5-3.5-0.8-9.5-4.4-9.9C49.5,86.4,45.7,90.2,41.9,92.3z M212.3,169.9 c20.8-1.4,41.3-16.2,39.7-47.6c-1.1-22.1-16.1-39-38.5-40c7.4,4.3,11.7,9.2,14.5,17.9c5.4,16.7,5.5,33.7,0.6,50.5 C226.2,158.8,221.7,165.7,212.3,169.9z"/>
    <path id="XMLID_39_" class="st1" d="M 127.49 1 C 126.307 5.4 129.067 9.7 131.631 13.7 C 137.349 22.6 130.645 30.1 124.729 38 C 112.898 53.6 90.419 64.2 64.588 73.7 C 55.912 76.9 49.602 81.5 48.419 87.4 C 48.024 89.2 47.038 91 45.658 92.7 C 43.686 95 44.278 97.4 47.433 98.7 C 62.025 105 63.208 114.2 67.743 122.5 C 76.616 139.1 80.757 156.2 84.109 173.3 C 86.081 182.5 88.447 191.7 87.856 201 C 60.644 201 33.236 200.9 6.024 201.1 C 1.883 201.1 0.897 200.7 0.897 198.5 C 1.094 133.5 1.094 68.5 0.7 3.5 C 1.094 0.4 3.855 1 7.207 1 C 47.236 1 87.461 1 127.49 1 Z" style="fill: rgb(255, 254, 254);"/>
    <path id="XMLID_38_" class="st1" d="M 213.194 201 C 207.522 152 211.647 103 210.873 53.9 C 210.616 43 214.74 32.2 219.381 21.4 C 222.216 14.6 225.567 7.8 228.661 1 C 250.573 1 272.485 1.1 294.397 0.9 C 300.069 0.9 301.1 1.3 301.1 3.5 C 300.842 68.5 300.842 133.5 301.1 198.5 C 301.1 200.6 300.069 201.1 294.397 201.1 C 267.329 200.9 240.262 201 213.194 201 Z" style="fill: rgb(255, 254, 254);"/>
    <path id="XMLID_35_" class="st2" d="M41.9,92.3c3.8-2.1,7.7-6,11-5.6c3.6,0.4,3,6.5,4.4,9.9c5,12,11,23.4,16.9,35 c3.9,7.6,8,15.1,12.8,22.5c0-7.1,0-14.1,0-21.2c0-16,0.1-32-0.1-48c0-3.3,0.9-4.1,4.1-4.1c12.2,0.2,24.3-0.1,36.5,0.2 c3.9,0.1,4.6-1.1,4.5-4.7c-0.3-9.2-0.2-18.3,0-27.5c0-3-0.6-5.2-3-7.4c-4.8-4.5-5.4-11-2.1-15.8c3-4.4,9.6-6,15.3-3.6 c7.6,3.2,9.4,13,3.1,19c-2.7,2.6-3.6,5.1-3.5,8.6c0.2,9.2,0.2,18.3,0,27.5c-0.1,3,0.6,4,3.8,3.9c12.5-0.2,25,0,37.5-0.2 c3.1,0,3.9,0.8,3.8,3.9c-0.1,27.5-0.2,55,0,82.5c0,5-2.9,3.5-5.4,3.7c-2.8,0.2-4.8,0.3-4.8-3.9c0.2-23.8,0-47.7,0.2-71.5 c0-3.5-0.6-4.8-4.5-4.7c-23.7,0.2-47.3,0.2-71,0c-3.7,0-4.7,0.8-4.7,4.6c0.2,23.3,0.1,46.7,0,70c0,1.8,1.7,5.2-1.5,5.3 c-3.5,0.1-7.7,2.2-10.4-3C77.3,152.4,69,137.2,60.8,122C55.2,111.8,49.4,101.7,41.9,92.3z M131.8,32.6c0.2,4,2.3,6.1,5.7,6 c3.4-0.1,5.6-2.5,5.4-6c-0.1-3.4-2.1-5.7-5.7-5.6C133.5,27.2,131.9,29.5,131.8,32.6z"/>
    <path id="XMLID_34_" class="st2" d="M212.3,169.9c9.4-4.2,13.9-11.1,16.3-19.2c5-16.8,4.8-33.7-0.6-50.5 c-2.8-8.7-7.1-13.6-14.5-17.9c22.4,1,37.4,17.9,38.5,40C253.6,153.8,233.1,168.6,212.3,169.9z"/>
    <path id="XMLID_33_" class="st1" d="M131.8,32.6c0.1-3.1,1.7-5.4,5.4-5.5c3.6-0.1,5.6,2.2,5.7,5.6c0.1,3.5-2,5.9-5.4,6 C134.1,38.7,132,36.6,131.8,32.6z"/>
  </g>
</svg>