<?xml version="1.0" encoding="utf-8"?>
<!-- Generator: Adobe Illustrator 19.0.0, SVG Export Plug-In . SVG Version: 6.00 Build 0)  -->
<svg version="1.1" id="Layer_1" xmlns="http://www.w3.org/2000/svg" xmlns:xlink="http://www.w3.org/1999/xlink" x="0px" y="0px"
	 viewBox="0 0 290 186" style="enable-background:new 0 0 290 186;" xml:space="preserve">
<style type="text/css">
	.st0{fill:#010101;}
	.st1{fill:#C18D2C;}
	.st2{fill:#DBA726;}
	.st3{fill:#C6922B;}
	.st4{fill:#C5902C;}
	.st5{fill:#E7B322;}
	.st6{fill:#DBA926;}
	.st7{fill:#C4912B;}
	.st8{fill:#F0CC20;}
	.st9{fill:#CF9C2A;}
	.st10{fill:#CF9C29;}
	.st11{fill:#EDCA23;}
	.st12{fill:#F2CB22;}
	.st13{fill:#AD7B2B;}
	.st14{fill:#D7AA28;}
	.st15{fill:#DFAC25;}
	.st16{fill:#F0D83C;}
	.st17{fill:#F7D223;}
	.st18{fill:#F4DD35;}
	.st19{fill:#F4E76A;}
	.st20{fill:#E3B022;}
	.st21{fill:#DEAA26;}
	.st22{fill:#241E10;}
	.st23{fill:#1B170C;}
	.st24{fill:#B8932F;}
	.st25{fill:#B9932F;}
	.st26{fill:#BC9731;}
	.st27{fill:#B6912F;}
	.st28{fill:#725D26;}
	.st29{fill:#BC9730;}
	.st30{fill:#AE8C2F;}
	.st31{fill:#B9942F;}
	.st32{fill:#5F5128;}
	.st33{fill:#BD9A35;}
	.st34{fill:#55461D;}
	.st35{fill:#B49232;}
	.st36{fill:#B99430;}
	.st37{fill:#B28E2E;}
	.st38{fill:#594920;}
	.st39{fill:#93782E;}
	.st40{fill:#BA942F;}
	.st41{fill:#BC952E;}
	.st42{fill:#776025;}
	.st43{fill:#796328;}
	.st44{fill:#352D11;}
	.st45{fill:#18150A;}
	.st46{fill:#B89431;}
	.st47{fill:#BC962F;}
	.st48{fill:#7C6A35;}
	.st49{fill:#7E6528;}
	.st50{fill:#796126;}
	.st51{fill:#614F1F;}
	.st52{fill:#A38839;}
	.st53{fill:#B19236;}
	.st54{fill:#B48F2E;}
	.st55{fill:#7C6427;}
	.st56{fill:#B08F30;}
	.st57{fill:#5B4D26;}
	.st58{fill:#5D4D1F;}
	.st59{fill:#7D6831;}
	.st60{fill:#665529;}
	.st61{fill:#3E3519;}
	.st62{fill:#BA952F;}
	.st63{fill:#625021;}
	.st64{fill:#B69230;}
	.st65{fill:#B08E30;}
	.st66{fill:#BA9531;}
	.st67{fill:#B28F2F;}
	.st68{fill:#B6912E;}
	.st69{fill:#B69435;}
	.st70{fill:#BA942E;}
	.st71{fill:#AC8B32;}
	.st72{fill:#B89430;}
	.st73{fill:#50431C;}
	.st74{fill:#BB952F;}
	.st75{fill:#AC8E38;}
	.st76{fill:#AC8A2E;}
	.st77{fill:#BE9A33;}
	.st78{fill:#3C3520;}
	.st79{fill:#433B23;}
	.st80{fill:#56471F;}
	.st81{fill:#B99531;}
	.st82{fill:#6D5823;}
	.st83{fill:#4F421E;}
	.st84{fill:#685624;}
	.st85{fill:#302912;}
	.st86{fill:#5E4D21;}
	.st87{fill:#705B26;}
	.st88{fill:#745F26;}
	.st89{fill:#C5A646;}
	.st90{fill:#241F0E;}
	.st91{fill:#5A4A1F;}
	.st92{fill:#77632E;}
	.st93{fill:#433A1F;}
	.st94{fill:#6B5824;}
	.st95{fill:#B59231;}
	.st96{fill:#463C1F;}
	.st97{fill:#403820;}
	.st98{fill:#B69B49;}
	.st99{fill:#574B29;}
	.st100{fill:#B79230;}
	.st101{fill:#BE982F;}
	.st102{fill:#816728;}
	.st103{fill:#B8932E;}
	.st104{fill:#AE8B2E;}
	.st105{fill:#6E5923;}
	.st106{fill:#8C742E;}
	.st107{fill:#766027;}
	.st108{fill:#AE8C30;}
	.st109{fill:#A7872F;}
	.st110{fill:#B08D30;}
	.st111{fill:#BC9832;}
	.st112{fill:#BE9931;}
	.st113{fill:#B39030;}
	.st114{fill:#3D3419;}
	.st115{fill:#645528;}
	.st116{fill:#40361A;}
	.st117{fill:#A78A3B;}
	.st118{fill:#2F2A18;}
	.st119{fill:#4B401F;}
	.st120{fill:#715C24;}
	.st121{fill:#92762C;}
	.st122{fill:#B39132;}
	.st123{fill:#BC972F;}
</style>
<g id="XMLID_4_">
	<g id="XMLID_138_">
		<path id="XMLID_281_" class="st0" d="M150.5,203.9c-49.7,0-99.5,0-149.2,0.1c-3.1,0-3.8-0.6-3.8-3.8C-2.4,134.5-2.4,68.7-2.6,3
			c0-3.1,0.6-3.8,3.8-3.8c99.5,0.1,199,0.1,298.5,0c3.1,0,3.8,0.6,3.8,3.8c-0.1,65.7-0.1,131.5,0,197.2c0,3.1-0.6,3.8-3.8,3.8
			C250,203.9,200.2,203.9,150.5,203.9z"/>
		<path id="XMLID_280_" class="st1" d="M171.5,166.9c-30.2,11.6-65.9-1.9-80.4-30.3c1.3-2.2,3.4-1.7,5.4-1.6
			c2.8,1.1,4.1,3.7,5.8,5.8c14.8,18.4,33.7,26.1,57.1,22.1c3-0.5,6.1-2,9.3-0.7C170.6,163.3,172.4,164.3,171.5,166.9z"/>
		<path id="XMLID_279_" class="st2" d="M87,128.3c-6.4-14.9-6.6-30.1-3-45.6c1.4-1.4,2.8-2.5,4.9-1.1c2,1.9,1.2,4.3,0.8,6.4
			c-2.3,10.9-1.5,21.6,1.7,32.2c0.7,2.3,1.8,4.7,0,7C90.1,128.6,88.6,128.5,87,128.3z"/>
		<path id="XMLID_278_" class="st3" d="M194.7,49.1c9.8,7.9,15,18.8,18.8,30.4c-1.5,2.2-3.4,2-5.5,0.9c-4-3.2-4.8-8.3-7.3-12.5
			c-2.9-4.8-5.9-9.4-9.7-13.5c-1.3-1.4-3-2.7-1.7-4.9C191,47.7,192.9,49.3,194.7,49.1z"/>
		<path id="XMLID_277_" class="st4" d="M88.3,81.6c-1.4,0.3-2.8,0.7-4.2,1c3-12.2,8.2-23.2,17.7-31.8c1.9,0.3,2.8,1.6,3.4,3.3
			c0.3,1.7-0.5,3.1-1.5,4.3c-4.9,5.7-7.8,12.4-10.9,19.1C91.9,79.5,91.4,82.1,88.3,81.6z"/>
		<path id="XMLID_271_" class="st5" d="M136.4,31.8c11.5-1.1,23.1-2.4,34.2,2.2c0.5,1.9,1.7,3.9-0.6,5.5c-4,1.3-7.5-0.8-11.2-1.6
			c-6.3-1.4-12.8,0-19.1-1.2C138.3,35.3,136.8,33.9,136.4,31.8z"/>
		<path id="XMLID_268_" class="st6" d="M209.3,79.8c1.4-0.1,2.8-0.2,4.2-0.3c2.4,7.2,3.9,14.5,3.2,22.1c-1.9,1.1-3.6,0.7-5.2-0.6
			c-2.7-5.7-2.4-12-3.7-18.1C207.6,81.7,208.2,80.6,209.3,79.8z"/>
		<path id="XMLID_267_" class="st7" d="M197.8,150.1c-4.2,5.1-9.5,8.9-15.3,11.9c-2.3,0.5-4.6,2.1-6.8-0.1c-1-2.2,0.2-3.7,1.9-4.8
			c4.5-2.9,8.8-6.3,13.7-8.6C193.5,148.6,196,147.7,197.8,150.1z"/>
		<path id="XMLID_266_" class="st8" d="M170.5,38.2c-0.8-1.5-1-2.9,0.2-4.2c6.2,1.2,11.1,4.5,15.7,8.7c0.6,2-0.3,3.3-2.1,4.3
			c-5.1,0.5-8.8-2.7-12.8-4.9C170.2,41.3,170.1,39.7,170.5,38.2z"/>
		<path id="XMLID_265_" class="st9" d="M106.2,46.8c5.3-3.5,9.3-8.9,15.7-10.6c2.5,0.5,2.8,2.5,3.2,4.5c-2.9,5.6-8.2,7.4-13.8,8.7
			C109.6,48.6,107.3,49,106.2,46.8z"/>
		<path id="XMLID_264_" class="st10" d="M215.7,112.1c-0.6,6.1-1.8,12-4.9,17.3c-2,0.1-3.5-0.7-4.6-2.3c0.4-7.2,1.2-14.4,5.6-20.5
			C215.5,106.7,213.4,111,215.7,112.1z"/>
		<path id="XMLID_263_" class="st11" d="M136.4,31.8c1.9,0.3,3.4,1,3.4,3.3c-2.5,4-8.9,5.9-14.1,4.2c-1.4-1.3-1.7-2.7-0.7-4.3
			C128.6,33.1,132.4,31.8,136.4,31.8z"/>
		<path id="XMLID_262_" class="st12" d="M197.8,150.1c-2.2,0.3-4.3,0.6-6.5,0.9c0.8-5.7,3.2-10.1,8.8-12.4c2.4,0.3,3.5,1.6,3.2,4
			C201.5,145.2,200.4,148.2,197.8,150.1z"/>
		<path id="XMLID_261_" class="st13" d="M175.8,160.8c2.1,1.2,4.4,0.9,6.7,1.2c-3.3,2.4-6.9,4.2-10.9,5c-1.1-1.1-2.2-2.1-3.2-3.2
			C170.1,159.3,171.5,158.7,175.8,160.8z"/>
		<path id="XMLID_260_" class="st14" d="M203.2,142.6c-1-1-1.9-2-2.9-3c-2-4.7,1-6.8,4.6-8.6c1.6-0.1,2.8,0.7,3.8,1.8
			C208.2,136.9,205.5,139.6,203.2,142.6z"/>
		<path id="XMLID_259_" class="st15" d="M184.1,45.9c0.2-1.4,1.3-2.3,2.2-3.3c3.3,1.5,5.9,3.9,8.4,6.4c-1.6,1.1-3.4,0.7-5.1,0.8
			C185.9,51.2,184.1,49.9,184.1,45.9z"/>
		<path id="XMLID_258_" class="st16" d="M106.2,46.8c1.8,0.1,3.7-0.4,5.2,1.2c-0.8,4.9-2.6,6.5-7.3,6.2c-1.5-0.6-2.2-1.8-2.4-3.4
			C103.2,49.5,104.7,48.1,106.2,46.8z"/>
		<path id="XMLID_257_" class="st17" d="M215.7,112.1c-4,0-2.5-3.3-3.2-5.3c-2.1-2.2-2.2-4.2,0.3-6.2c1.3,0.3,2.6,0.7,3.9,1
			C216.4,105.1,216,108.6,215.7,112.1z"/>
		<path id="XMLID_256_" class="st18" d="M87,128.3c1-1.1,2.4-1.4,3.8-1.5c4.1,0.7,4.8,3.2,3.8,6.7c-1.9,2.5-3.6,0.8-5.3-0.4
			C88.1,131.7,87.3,130.1,87,128.3z"/>
		<path id="XMLID_255_" class="st19" d="M208.6,132.8c-1.3,0.4-2.5,0.1-3.5-0.9c-1.4-2.6-0.6-4.1,2.2-4.6c1.7-0.1,2.8,0.6,3.5,2.1
			C210.6,130.9,209.9,132,208.6,132.8z"/>
		<path id="XMLID_254_" class="st20" d="M125,34.9c0.5,1.2,0.9,2.5,1.4,3.7c0.4,1.9-0.2,2.5-2.1,1.9c-0.8-1.5-1.6-2.9-2.4-4.4
			C122.8,35.3,123.8,34.9,125,34.9z"/>
		<path id="XMLID_253_" class="st21" d="M89.3,133.1c1.5-0.1,3,0.8,4.5-0.1c2,0.3,2.6,1.5,1.9,3.3c-1.5,0.1-3,0.2-4.6,0.3
			C90.2,135.6,89.4,134.5,89.3,133.1z"/>
		<path id="XMLID_252_" class="st22" d="M95.7,136.3c-0.6-1.1-1.2-2.2-1.9-3.3c-1-2.1-2-4.2-3-6.2c-5.5-14.8-6.7-29.8-2.5-45.2
			c4.4-9.6,8.2-19.7,15.9-27.4c2.4-2.1,4.9-4.1,7.3-6.2c4.3-2.5,8.6-4.9,12.9-7.4c1.1-0.2,2.5-0.1,2.1-1.9c4.5-1.2,9-2.4,13.5-3.6
			c10.5-1.7,20.6,0.2,30.6,3.2c3.9,3.7,9.2,5,13.6,7.7c1.8,1.3,3.7,2.6,5.5,3.9c9.6,8,14.9,18.8,19.7,29.9c1.9,6.8,3,13.7,3.5,20.8
			c-0.1,2.1-0.2,4.1-0.3,6.2c-1.5,6.9-2.7,13.9-5.2,20.5c-0.7,1.5-1.5,3.1-2.2,4.6c-1.6,2.6-3.2,5.1-4.8,7.7c-3,3.8-6,7.6-9,11.4
			c-5.1,3.3-10.3,6.5-15.4,9.8c-2.5,1-5,2-7.5,3c-14.6,3.9-28.8,3.9-43-2.1C112.5,156.4,102.9,147.8,95.7,136.3z"/>
		<path id="XMLID_251_" class="st23" d="M172.6,132.2c-2.7-1.9-5.8-0.5-8.7-0.7c-2.9-0.1-3.1,2.4-1.9,4.6c1.4,2.6,3.1,5.1,4.7,7.6
			c1.6,2.6,1.5,5.3-0.9,7.1c-8,5.8-20.1,9.8-28.9,0.2c-3.8-4.1-4.3-7.8-1-12.1c0.7-1,2-2,1.2-3.2c-0.9-1.4-2.2,0-3.3,0
			c-5.2-0.1-7.7,1.9-8.3,7.5c-0.4,4.1-5.9,5.5-8.5,1.9c-5.6-7.6-15-12.4-16.6-23.1c-1.9-12.7-5.2-25.4,0.3-37.9
			c1.3-2.9,0.1-5.7,0.6-8.6c2,0.5,1.5,2.3,2.4,3c0.9-0.1,1.6,0.3,2.1,1c0.4,0.7,0.5,1.5,0.3,2.3c-7,8.2-4.1,17.5-2.9,26.6
			c0.1,0.7,0.9,1,1.7,0.9c0.9-0.2,1.7-0.5,2.5-0.8c1.5-0.6,2.8-1.6,4-2.7c1.6-1,3.4-1.7,4.6-3.3c0.3-0.4,0.6-0.7,1-1
			c1.7-0.9,2.6-2.4,3.5-4c0.4-0.6,0.8-1.2,1.2-1.8c1.5-1.9,1.7-3.4-0.2-5.4c-3.5-3.8-5.5-8.5-7.2-13.4c0.6-2.1,2.2-3.1,4-3.9
			c0.8-0.2,1.6-0.3,2.4-0.2c4,1.2,5.9,3.9,5.8,8.1c0.3,0.9,0.9,1.6,1.5,2.2c0.9,0.6,1.8,1.1,2.9,1.1c3,0,4.4,1.2,4.1,4.4
			c-0.2,1.9,0.9,3.6,1.8,5.3c2.7,3,1.7,6.4,1.3,9.8c0.2,2.6,0.3,5.1,1.3,7.5c0.6,2.4,2.5,3.9,4,5.7c0.8,1.5,0.8,3,0.4,4.5
			c-0.2,0.5-0.6,0.8-1,1.1c-4.9-0.2-8.8,0.6-8.9,6.9c0,1.8-1.9,2.8-3.8,2.6c-1.4-0.2-2.4-0.9-3.2-2.1c-0.6-1.2-1.4-2.3-1.2-3.7
			c0-1,0.3-2,0.8-2.8c0.4-0.8,0.8-1.6,1-2.6c0.2-1.8,0.2-3.5-0.8-5.1c-0.4-0.9-0.9-1.7-0.9-2.8c0.1-1,0.6-1.9,1.1-2.8
			c2.6-2.6,3.2-5.9,3-8.8c-0.4,3.3-0.6,7.4-5,9.2c-1.2,0.4-2,1.6-3.2,1.8c-4.5,1.1-6.2,4.2-6.1,8.6c0,1.1-0.2,2.1-0.8,3
			c-1.2,1.2-2.6,2.1-4.3,2.2c1.3-0.1,2.5,0,3.4,1.2c0.9,1.7-0.7,2.7-1.2,4.1c1.6,0.6,3.4,0.7,4.6,2c1.9,1.5-0.7,5.8,2.7,5.8
			c2.8,0,0.8-4,2.3-5.6c0.1-0.1,0.2-0.3,0.3-0.4c0.9-0.6,1.8-1,2.8-1.5c1.6-0.3,3.1-0.1,4.7,0.2c4.2-1.8,8.5-3,12.9-4.2
			c0.5,0,1.1,0.1,1.6,0.4c0.9,0.6,1.4,1.5,1.4,2.7c-2.4,3.4-4.1,7.2-6.3,10.8c-1.3,2.1-2.1,4.2,0.9,5.6c0.4,0.2,0.9,0.4,1.3,0.6
			c1.3,1.2,2.7,2.2,4.7,1.8c0.5,0,0.9,0.1,1.3,0.3c1.1,1.1,2.4,1.7,4.1,1.1c0.9-0.1,1.7-0.4,2.6-0.6c2.4,0.2,2.4-2.6,4-3.4
			c3.4-0.5,3.9-2.5,2.4-5.1c-1.6-2.9-3.2-5.8-5-8.6c-0.8-1.3-2-2.4-1.9-4.1c0.4-1.5,1.6-3,2.8-2.5c4.3,1.6,7.7-1.3,11.6-1.6
			c2.7,0.2,5.5-0.8,7.9,1.2C176.9,129.7,177.4,132.7,172.6,132.2z"/>
		<path id="XMLID_250_" class="st24" d="M163.1,82.6c3.9-2.5,5.6-6.7,7.9-10.4c2.8-4.4,6.1-7.5,11.9-5.5c1.1,0.4,2.5,0.5,3.6,0.4
			c4-0.6,4.2-0.4,2.9,3.9c-1.2,0.8-2.8,1-3.7,2.5c-0.7,1.3-2.1,1.7-3.4,0.6c-0.2-0.3-0.3-0.6-0.3-0.9c-0.8-1.4-1.6-2.7-3.2-3.1
			c1.1,0.5,2.5,0.9,2,2.8c-3.2,0.9-5.6,2.1-5,6.5c0.3,2.3,0.1,6-3.9,6.5c-1.5,0.2-1.9,0.3-0.6,1.5c0.6,0.6,0.4,2.2-0.5,2.2
			c-4,0-3.9,3.8-5.7,5.8c-0.2,0.2-0.4,0.4-0.6,0.6c-1.7,0.8-3.1-0.1-4.5-0.9C155.5,88.3,155.5,88.2,163.1,82.6z"/>
		<path id="XMLID_249_" class="st25" d="M186.3,125.2c-1.8,1.2-2.7,2.6-1.7,4.8c1.3,2.7-2.5,3.5-2.3,5.8c0.3,5.1-3.3,0-4.4,1.6
			c-0.3-3.3,1.9-6.4,0.5-9.8c0-0.5,0-0.9,0-1.4c0-0.5,0-0.9-0.1-1.4c-0.8-4.5-3.8-6.7-8-7.6c-2-1.8-2.7-4.3-3.6-6.8
			c-1-2.7-1.5-5.6-3.3-8.2c-1.7-2.6-1.5-5.3,1.8-7c0,0-0.1,0.1-0.1,0.1c7.7-1.1,10.4,1.5,9.7,9.4c0.5,2.2,2.4,3.1,3.9,4.4
			c0.9,0.8,2,1.3,3.1,1.8c1.6,1.6,3,3.3,4.5,5c0.9,1.5,1.8,3,2.4,4.5C189.9,123,189.5,124.9,186.3,125.2z"/>
		<path id="XMLID_248_" class="st26" d="M124.1,82.6c0.4-3.4-0.4-6.3-3.5-8.2c-0.5-0.7-0.7-1.7-1.9-1.7c-3.4,1.9-4.8,6-8.5,7.5
			c-1.9,1.1-3.6,0.9-5.3-0.5c-0.4-0.4-0.8-0.9-1.2-1.3c0.1-1.7-1.4-4.4,2.7-3.2c2.2,0.7,3.9-1.8,5.6-3.3c7.9-7.1,12.5-6.2,17.2,3.4
			c1.7,3.5,3.2,7.1,7.9,7.3c2,0.1,1.2,3.4,3.6,3.2c2.4,1.4,3,3.2,1.2,5.6c-1.9,2.5-3.1,6.3-7.5,3.9c-1.4-1.5-1-4.9-4.5-4.5
			c-0.2,0-0.8-1.1-0.8-1.7c0.2-2.1,1.9-2.7,3.6-2.6c-1.1-3.6-6.9,4.6-6.4-2.9C126.2,82.4,124.6,83.7,124.1,82.6z"/>
		<path id="XMLID_247_" class="st27" d="M135.7,53.3c3.4-1.4,6.8-2.5,10.1-4.2c5.6-2.9,10.2,0.2,14.2,3.7c1.7,1.5,3.4,3.1,5.5,4.3
			c-1.6,2.4-4.5-3.8-5.2,1.2c0.6,1.7-0.2,3.5-1.7,2.8c-5-2.5-8.9,0.6-13.1,2c-2.8,0-4.1-2.8-6.5-3.5c-0.5,0-1-0.1-1.5,0
			c-4.8,1.3-4.7-1.1-3.4-4.4C134.1,54,134.7,53.5,135.7,53.3z"/>
		<path id="XMLID_246_" class="st28" d="M145.2,61.5c0.6-0.2,1.4-0.3,1.9-0.7c3.2-2.5,6.2-6,10.6-1.7c1,1,2.2,0.8,2.6-0.9
			c1.7,2.3-0.2,4.4-0.4,6.6c-4.6,3.6-5.3,6.9-2.1,10.3c0.4,2.1,0.8,4.3,1.2,6.4c-0.5,0.7-1.2,1.2-2,1.3c-1.2,0.2-2.1-0.4-3.1-0.8
			c-2.1-1.7-6.4,0.5-6.9-4c1.2-2.9,1.5-6.1,2.8-9c1.3-3-0.1-3.8-2.6-4c-1.1-0.3-1.9-0.9-2.2-2C144.6,62.5,144.8,62,145.2,61.5z"/>
		<path id="XMLID_245_" class="st29" d="M190.5,75.3c4.4,2.8,6.3,7.2,7.6,12c2,7.4,0.4,15.1,2.3,22.7c-2.8-0.1-3.6-1.6-4.6-3.1
			c-2.2-4.4-1.3-9.1-1.5-13.7c0.9-4.4-0.2-8.5-2.7-12.1c-0.2-0.4-0.5-0.8-0.7-1.3c-0.7-1.3-1.7-2.5-0.8-4.1
			C190.1,75.6,190.3,75.5,190.5,75.3z"/>
		<path id="XMLID_244_" class="st30" d="M138.6,69.1c0.1,2.1,1.6,3.4,2.4,5.2c1.1,2.5,1,4.9-1.9,6.1c-1.3,0.6-2.8,0.4-3.9-0.6
			c-0.7-0.6-0.9-1.5-0.5-2.4c1.1-2.5,2.5,1.2,3.8-0.2c-0.7-3.9-8.2-2.6-6.5-7.8c0.5-1.5,0.4-4.9,3.7-4.7
			C138.3,65,138.5,67.1,138.6,69.1z"/>
		<path id="XMLID_243_" class="st25" d="M157.7,75.1c-0.8,0.7-1.6,1.4-2.5,2c-0.9,0.6-1.9,1.4-2.9,0.7c-1-0.7-0.4-1.9-0.2-2.9
			c0.8-2.9,1.9-5.7,2.2-8.6c0.6-5.9,2.8-4.3,5.4-1.4C159.1,68.2,158.4,71.7,157.7,75.1z"/>
		<path id="XMLID_242_" class="st31" d="M147.5,64.1c1.8-0.5,3.1-2.2,5.5-2.1c0.4,5.4-2.3,10.2-3,15.4c0,0.3-1.1,0.5-1.7,0.7
			c-1.3,0.1-2.5-0.1-2.9-1.7c0.3-2.1,0.5-4.2,0.8-6.4C145.2,67.7,146.5,65.9,147.5,64.1z"/>
		<path id="XMLID_241_" class="st32" d="M186.3,125.2c3.8-3.5-0.6-5.8-1.3-8.7c0.2-0.2,0.3-0.3,0.5-0.5c2.3-0.7,3.5,1.7,5.4,1.8
			c0.9,0.5,2,0.1,2.8,0.7c5.3,2.5-1.2,5.4,0.2,8.3c0.5,1.1-2.3,2-3.7,2.1C188.2,129,186.3,127.9,186.3,125.2z"/>
		<path id="XMLID_240_" class="st33" d="M193.8,118.5c-1.4,2.1-2.5,0.2-3.8-0.2c-0.9,0.2-1.2-0.5-1.6-1c-1.6-2.8-1.8-6.3-5-8
			c-0.4-0.4-0.7-0.9-1-1.3c-0.9,3-2.8,3.5-5.4,2.3c-2.2-1.3-2.7-3.2-1.5-5.4c3.7-3.3,6.6-3.2,10.1,0.6
			C189.1,109.2,191.1,114,193.8,118.5z"/>
		<path id="XMLID_239_" class="st34" d="M134.6,95.3c4.8-1.4,7.3-5.1,6.3-9.4c1.4-0.9,0.3-2.2,0.6-3.3c0.7-0.3,1.4-0.4,2.1-0.1
			c1.1,0.7,2.2,1.2,3.6,0.7c0.5,0,1,0.1,1.5,0.4c1.8,1.9,1.2,4.2,1.1,6.4c-0.4,1.1-1.3,1.8-2.3,2.2c-2.4,0.5-4.2,1.6-3.8,4.5
			c0.1,2.6-2.2,3.7-3.2,5.7c-0.2,0.5-0.5,0.9-0.9,1.3c-1.2,0.9-2.5,0.9-3.7,0.2C135.6,100.9,138.3,97.7,134.6,95.3z"/>
		<path id="XMLID_238_" class="st35" d="M178.5,63.7c-3.5-0.8-6.8-2-7.4-7.2c-0.3-2.8,0.2-2.7,2.2-2c2.2,0.8,3.7,2.1,4.8,4.3
			c0.8,1.8,1.2,1.7,2.5-0.5c0.4-0.6,0.9-1.1,1.7-0.9c1.3,0.4,2.1,1.4,1.9,2.8C183.7,63.1,181.6,63.8,178.5,63.7z"/>
		<path id="XMLID_237_" class="st36" d="M182.1,95.9c-5.4,1.3-3.6-2.2-3.2-4.8c-1.5-2.4,0.4-3.9,1.4-5.6c2-2,3.3-4.4,4.3-7
			c0.7-0.8,1.6-1.5,2.8-1.5c1.9,0.4,3.6,1.5,5.3,2.4l-0.1-0.1c1,1.3,0.3,2.3-0.6,3.2c-1.2,0.6-2.7,0.6-3.7,1.8
			c-1.9,2.3-1,5.4-2.6,7.8C184.7,93.7,184.8,96.1,182.1,95.9z"/>
		<path id="XMLID_236_" class="st37" d="M186.5,82.1c1-1.7,2.5-1.6,4.1-0.8c0.1,1.1,0.6,2.2,0.4,3.3c-0.6,2.9-0.9,5.8-1.1,8.8
			c-0.2,3.2-0.9,6.3-4.7,7.3c-3.2,1.2-3.3-0.8-3-3.1C184.8,92.7,186.6,87.6,186.5,82.1z"/>
		<path id="XMLID_235_" class="st38" d="M157,81.6c0.6,0,1.3,0,1.9,0c1.1,1.5,2.7,1,4.2,1.1c-0.1,0.5,0,1.3-0.3,1.5
			c-4.6,2.7-5,6.1-1.7,10c-0.3,0.5-0.7,0.8-1.3,1c-3.8,0.3-5.1-3.5-8-4.8c-0.6-1.9,0.1-3.6,0.7-5.3C153.9,83.7,155.5,82.8,157,81.6z
			"/>
		<path id="XMLID_234_" class="st39" d="M187.4,78.3c-0.6,0.4-1.3,0.8-1.9,1.2c-1.3,0.2-0.4,2.3-2,2.4c-0.8-0.1-1.2-0.7-1.4-1.4
			c0.8-2.1,3-4.3,0.1-6.5c2.3-1.1,3.9-4,7.1-3.1c-2.3,2.1,1.7,2.6,1.1,4.3c0,0,0.1-0.1,0.1-0.1C189.7,76.4,189.7,78.5,187.4,78.3z"
			/>
		<path id="XMLID_233_" class="st40" d="M189.4,103.6c-0.6,0-1.3,0-1.9,0c-0.9-0.8-1-2.1-0.6-2.9c1.7-3.9,2-8,2.6-12.1
			c0.2-1.1,0.6-2,1.8-2.3c1.1,0,1.7,0.5,2,1.5c0,3.4-0.2,6.8-0.2,10.3C193.1,100.7,192.2,102.9,189.4,103.6z"/>
		<path id="XMLID_232_" class="st41" d="M182.2,80.6c0.3,0.3,0.7,0.7,1,1c1.1,2.2-0.6,3.9-1.1,5.8c-1.1,1.2-2.1,2.5-3.2,3.7
			c-4.6-0.9-4.5-2.9-1.4-5.8C179.1,83.8,180.6,82.2,182.2,80.6z"/>
		<path id="XMLID_231_" class="st42" d="M191.7,86.7c-2.5,5.4-2.8,11.2-4.2,16.9c-0.7-1-1.5-2-2.2-3c4.3-5.2,2.4-11.9,4.3-17.7
			c1.9-0.7,3.4,0,4.1,1.7C194.4,86.3,192.8,86.4,191.7,86.7z"/>
		<path id="XMLID_230_" class="st24" d="M170.5,61.5c1.3,3.8,0.4,7.2-1.9,10.2c-3.1,4.1-6.5,3.4-8.6-1.7c2.3-0.6,4.6-1.3,6.3-3.1
			c1.2-1,0.9-2.4,1.1-3.8C167.7,61.5,168.4,60.2,170.5,61.5z"/>
		<path id="XMLID_229_" class="st43" d="M170.5,61.5c-2.9,1.9,0.5,5.5-2,7.5c-0.8-0.1-1.6-0.1-2.3-0.6c-1.9-1.4-2.1-3.1-0.9-5
			c1-1.9,1.9-3.9,2.9-5.9C169.7,58.6,169.8,60.2,170.5,61.5z"/>
		<path id="XMLID_228_" class="st44" d="M180,126.4c0.1,3.8,3.4,8.3-2.1,11c-0.7-0.2-1.4-0.5-2.1-0.7
			C174.6,132.6,176.1,128.8,180,126.4z"/>
		<path id="XMLID_227_" class="st45" d="M145.2,61.5c0.1,0.3,0.1,0.7,0.1,1c-0.2,0.6-0.4,1.1-0.8,1.5c-1.7,1.9-3.6,1.4-5.6,0.7
			c-0.5-0.3-0.8-0.8-1-1.4c0.4-1.3,0.7-2.5,1.1-3.8c-0.2-1.2-0.3-2.5-0.6-4.3C140.9,57.6,143,59.6,145.2,61.5z"/>
		<path id="XMLID_226_" class="st46" d="M180,126.4c-1.7,3.3-4.2,6.3-4.2,10.3c-1.2-1.4-3.2-2.2-3.2-4.5c3.5-0.4,2.7-3.4,3.2-5.5
			c0.9-2.6,2.4-2.1,4-0.6L180,126.4z"/>
		<path id="XMLID_225_" class="st47" d="M193.6,105.7c-0.6,0-1.3,0-1.9,0c-0.2-5.3,0.2-10.6,1.2-15.9c1.6-0.2,2.1,0.8,2.2,2.1
			c-0.8,2.6,0.1,5.2,0.4,7.8C195.8,102,196.1,104.3,193.6,105.7z"/>
		<path id="XMLID_224_" class="st48" d="M138.7,63.5c1.9,0.2,3.8,0.2,5.6-0.7c1.7,1.2,3.8,2.4,2,4.9c-2.1,2.9-4.6,1.3-6.9,0.2
			c-0.1,0.2-0.2,0.3-0.4,0.4C138.1,66.7,137.8,65.1,138.7,63.5z"/>
		<path id="XMLID_223_" class="st49" d="M193.7,90c-2.1,5.1-0.3,10.6-2,15.7c-0.8-0.7-1.5-1.4-2.3-2.1c2.4-3.1,2.1-6.7,2.2-10.3
			c0.1-1.8-0.4-3.8,0.8-5.4c1.8-0.7,3.2-0.2,3.3,1.8C195.8,90.6,194.5,90.6,193.7,90z"/>
		<path id="XMLID_222_" class="st50" d="M193.6,105.7c1.4-2.8,1.3-5.8,0.8-8.7c-0.3-1.7-1-3.4,0.5-4.9c0.2-0.4,0.4-0.4,0.7-0.1
			c0,5,1.4,9.9,0.2,14.9C195.1,106.5,194.3,106.1,193.6,105.7z"/>
		<path id="XMLID_221_" class="st51" d="M186.5,82.1c1,5.8-0.6,10.9-4.3,15.4c-0.1-0.5-0.1-1.1-0.2-1.6
			C184.6,91.6,185.4,86.8,186.5,82.1z"/>
		<path id="XMLID_220_" class="st52" d="M145.4,76.4c1,0.6,1.9,1.1,2.9,1.7c1.3,3,4.7,0.5,6.4,2.4c-0.1,0.2-0.2,0.5-0.2,0.7
			c-1.4,2-3.4,2.1-5.5,1.6c-0.5-0.1-1-0.3-1.5-0.4c-1.6-0.1-3.2-0.1-3.9-1.9C144.1,79.1,144.8,77.7,145.4,76.4z"/>
		<path id="XMLID_219_" class="st53" d="M139.3,67.9c2-0.4,4.1,1.7,5.9-0.4c1.6-1.9-0.3-3.2-0.9-4.7c0.3-0.1,0.6-0.2,1-0.2
			c0.8,0.5,1.5,1,2.3,1.5c1.3,2.4,0,4.1-1.3,5.9C143.6,70.3,141.1,70.1,139.3,67.9z"/>
		<path id="XMLID_218_" class="st54" d="M165.2,63.5c0.7,1.5,1.5,3,2.2,4.5c-0.2,2.5-2,3-3.9,2.8c-1.6-0.1-2.3-1.3-1.6-2.9
			C163.2,66.5,163.4,64.3,165.2,63.5z"/>
		<path id="XMLID_217_" class="st55" d="M143.5,80.5c1.6,0.3,3.5-0.2,4.9,1.1c0.2,1-0.4,1.6-1,2.1l0.1-0.1c-0.9,0.7-0.4,2.4-2,2.6
			c-1.7,0.2-1.6-1.4-2.1-2.3c-0.6-0.4-1.2-0.9-1.8-1.3C142.1,81.9,142.8,81.2,143.5,80.5z"/>
		<path id="XMLID_216_" class="st56" d="M135.7,53.3c-0.5,0.6-1.1,1.2-1.6,1.8c-0.7-1.4-2.3-2.2-2.3-3.9c0-1.1,0.6-2,1.7-2.4
			c1.1-0.4,2.1-0.3,2.7,0.7c1,1.7-1.1,1.2-1.4,1.8C134.2,52.2,134.8,52.9,135.7,53.3z"/>
		<path id="XMLID_215_" class="st57" d="M161.9,67.8c1.8,4,3.6,2.3,5.5,0.1c0.4,0.4,0.7,0.7,1.1,1.1c-2.4,3.9-5.3,3.2-8.4,1.1
			C160.2,69,161,68.4,161.9,67.8z"/>
		<path id="XMLID_214_" class="st58" d="M138.7,63.5c1.2,1.5,0.7,3.2,0.3,4.8c0,0.3-0.1,0.6-0.3,0.8c-0.3-1.9-3-2.2-2.9-4.4
			c0.7-0.5,1.4-0.9,2.1-1.4C138.1,63.4,138.4,63.4,138.7,63.5z"/>
		<path id="XMLID_213_" class="st59" d="M180.9,72.9c-0.8-2.4-3-1.6-4.8-2.2c3.5-2.3,4-2.1,5.9,2.5C181.6,73.1,181.2,73,180.9,72.9z
			"/>
		<path id="XMLID_212_" class="st60" d="M175.6,104.7c0.1,2.1,0.4,4.1,2.3,5.4c0.4,0.2,0.6,0.4,0.4,0.6c-0.1,0.2-0.3,0.3-0.4,0.3
			c-3.4-0.9-4.9-2.7-3.1-6.2C175.1,104.7,175.3,104.6,175.6,104.7z"/>
		<path id="XMLID_211_" class="st61" d="M138.8,102.4c0.1-0.4,0.1-0.9,0.2-1.3c1-0.4,1.9-0.7,2.9-0.3c1,0.5,1.3,1.5,1.7,2.5
			c1.3,3.7,2.8,1.6,4.3,0.1c0.4-0.2,0.9-0.3,1.4-0.2c1.6,0.8,3.2,2.4,4.8,0c0.4-0.2,0.9-0.3,1.4-0.4c3.8,0.2,3.6,5.3,7.2,5.7
			c2,1.8,0.9,4.6,2.1,6.7c1,2.8,5,4.1,4,7.9c-1,1.3-2.4,1.6-3.8,0.9c-2.1-1.1-3.7-0.2-5.3,1.1c-2.5,2-5.6,0-8.2,1.3
			c-2.9-1-4.2,1.3-5.8,2.9c-0.7,0.4-1.4,0.3-2.1,0l-0.3,0c-1.9-0.3-2.4-2.2-3.7-3.2c-0.3-0.4-0.4-0.9-0.5-1.3
			c0.2-2.3,2.1-2.1,3.6-2.6l0.3-0.3c2.2-4,0.7-7.2-2.5-9.8c-0.7-0.8-1.4-1.4-1.7-2.5C138.4,107,138.8,104.7,138.8,102.4z"/>
		<path id="XMLID_210_" class="st25" d="M114.3,124.2c-1.8-8.9-1.2-9.9,7.1-13.6c0.9-0.4,1.7-1.1,2.6-1.7c4.1-1,4.3-0.8,4.3,2.1
			c-0.4,0.7-0.8,1.4-1.1,2.1c-0.2,0.3-0.3,0.6-0.6,0.8c-8,6.1-8.6,9-3.6,18.1c0.1,0.8-0.1,1.5-0.5,2.2c-2.2,2.4-3.7,0.2-5.5-0.7
			c-4.5,1.5-8-0.5-12.2-3.5c3.7-0.8,7.1,2.3,8.7-2C113,126.6,112.9,125.2,114.3,124.2z"/>
		<path id="XMLID_209_" class="st62" d="M106.3,111.2c-1.4,1.8-2.8,3.4-5.8,4.5c1.4-8-1.3-15-0.7-22.3c0.4-4.6,2.1-8.7,5.2-12.2
			c1.2-0.4,2.2,0.1,3,1c0.5,0.7,0.6,1.5,0.5,2.4c-0.2,0.8-0.5,1.5-0.8,2.2c-4.3,3.6-1.7,7.8-1,11.8
			C106,102.8,108.5,107.1,106.3,111.2z"/>
		<path id="XMLID_208_" class="st63" d="M143.7,129.1c0.5-0.3,0.9-0.6,1.4-0.9c1.8-1.7,3.3-0.3,4.8,0.5c1.2,0.8,2.6,1,4,1.3
			c0.2,0.1,0.5,0.1,0.7,0.2c1.2,0.4,2.3,1,3.1,2.2c-1.6,2.7,0.6,4.5,1.4,6.6c0.9,2.1,2.1,4.2-0.9,5.6c-1.3,0.2-2.2-0.5-2.8-1.6
			c-0.9-1.5-0.4,0.6-0.9,0.4c-0.5,0.6-1.1,1-1.8,1.1c-1.9-1.5-2.5-1.5-4.1,0.2c-0.5,0.1-1,0-1.4-0.2c-0.7-0.5-1.2-1.2-1.3-2.1
			c-0.4,0.7-0.5,1.4-0.6,2.1c-0.3,2.5-0.6,4.8-4,4.6c-0.5-0.1-1-0.1-1.5-0.2c-1.9-2.7-0.7-5.3,0.5-7.8c1.5-3.2,3.2-6.4,4.8-9.6
			C144.6,130.7,144.1,129.9,143.7,129.1z"/>
		<path id="XMLID_207_" class="st64" d="M115.8,77.1c1.4,0.6,2.2,1.7,2.4,3.1c0.6,3.9,3.1,6.3,6,8.6c4.2,3.3,3.9,5.6-1,8.3
			c-2.8,0.2-4.3-1.1-5.4-3.7c-1.8-4.3-2.7-9.1-6.7-12.1c-0.7-1.1-0.5-2.1,0.1-3.2C112.5,77,113.9,76,115.8,77.1z"/>
		<path id="XMLID_206_" class="st64" d="M139.9,124.8c3.1-0.1,3.4,2,3.5,4.3c-4.2,1.7-8.4,3.7-13.1,3.8c-0.4-0.6-0.4-1.2,0.2-1.7
			c1.3-1,2-2.2,2.2-3.9c1.5-8.5,2.7-9.1,10.2-5.4c0.2,2.1-3.2,0.7-2.9,3l-0.4,0.3L139.9,124.8z"/>
		<path id="XMLID_205_" class="st65" d="M107.2,84.3c0-0.4,0-0.7,0-1.1c0.5-3.8,2.7-3.2,5.2-2c2.8,1.6,3.4,4.6,4.5,7.3
			c1.4,3.5,2.4,7.2,5.3,9.8c2.4,5.4-1,4.8-4.3,4.2c-4.9-1-4.9-5.2-5.7-8.7c-0.7-2.9-1.2-5.8-4.1-7.4
			C107.5,85.7,107.2,85.1,107.2,84.3z"/>
		<path id="XMLID_204_" class="st25" d="M145,131.5c1.7,2.4-0.2,4.3-0.9,6.3c-1.4,3.7-2.9,7.4-4.4,11.1c-5.4-1.1-6.8-3.6-3.3-7
			C139.6,138.6,140.4,133.5,145,131.5z"/>
		<path id="XMLID_203_" class="st66" d="M158,144.2c1.3-2.9-1-5.1-1.5-7.6c-0.3-1.7-1.8-3.6,1.2-4.4c1.1,3.9,4,6.8,5.9,10.2
			c0.4,0.7,1.2,1.3,1.5,2.1c0.9,2.4,0.4,4.4-1.8,5.9c-3.2,2.2-2.6-2.3-4.4-2.5C157.3,147,157,145.8,158,144.2z"/>
		<path id="XMLID_202_" class="st67" d="M117,133.4c2.1-1.8,3.5,0.6,5.3,0.8c0.3-0.2,0.6-0.2,0.9,0.1c0.2,0.8,0.7,1.7,0.6,2.5
			c-0.1,2.3,1.8,5.3-0.9,6.6c-1.9,1-4.4-0.2-6.3-1.6c-2.8-2-1.3-4.3-0.4-6.5C116.4,134.7,116.7,134.1,117,133.4z"/>
		<path id="XMLID_201_" class="st68" d="M151.4,124.3c1-3.2,3-3.8,4.8-1.1c1.3,1.9,1.7,0.5,2.5-0.1c2.7-0.6,5.3,0,7.9,0.9
			c0.8,0.7,1.3,1.6,0.7,2.7c-3.4,0.3-6.2,5.1-10.3,1.2c-0.8-0.7-1.8,1.1-2.4,2.1c0,0,0.1-0.1,0.1-0.1c-3.2,1.6-4.3-0.1-4.6-3
			C150.1,125.9,150.6,125.1,151.4,124.3z"/>
		<path id="XMLID_200_" class="st69" d="M167.3,126.8c-0.4-0.7-0.7-1.4-1.1-2c0.5-1.1,1.9-1.1,2.5-2c-1.7-2.2-2.8-5.3-6.7-4.6
			c-0.6,0.1-0.1-1.1,0.1-1.7c2.4-3.3,4.9-2.4,7.3,0c1.1,1.1,1.7,3.3,4,2c3.7,0.5,6.7,3.9,6.5,7.4c0,0-0.1,0.2-0.1,0.2
			c-1.4-0.2-2.8-0.2-4,0.6C173,126.7,170.2,126.8,167.3,126.8z"/>
		<path id="XMLID_199_" class="st25" d="M141.3,149.1c2.6-4.5,3-9.9,6.4-14.5c1.6,3.5-0.9,6.4-0.3,9.3c2.4,2.8,0.9,5.1-1,7.3
			c-1,1.5-2.4,2.7-4.3,1.9C140.2,152.3,141.2,150.5,141.3,149.1z"/>
		<path id="XMLID_198_" class="st70" d="M148.4,143.8c1.7-2.3,0.4-5.5,2.3-8.1c1.7,2.8,0.1,5.9,1.7,8.2c2.9,3,1.7,6.2,0.3,9.4
			c-2.8,2.1-5.1,2.7-5.3-2C147.4,148.7,147.5,146.2,148.4,143.8z"/>
		<path id="XMLID_197_" class="st62" d="M158,144.2c0.3,1.2,0.6,2.4,0.9,3.7c-0.5,2.5,1.1,7-4.4,4.4c-1.6-3-1.7-6.2-1-9.4
			c0.7-2.6-1.3-5.1,0-8.2C156.3,137.5,155.5,141.7,158,144.2z"/>
		<path id="XMLID_196_" class="st71" d="M128.3,111c-0.8-2.1-2.6-1.9-4.3-2.1c3.4-3.6,4.2-8.4,5.3-12.9
			C133.9,100.3,133.5,106.5,128.3,111z"/>
		<path id="XMLID_195_" class="st31" d="M117.7,103.8c-0.8,2.6-2.9,3.1-5.2,3.2c-1.2,0-2-0.7-2.6-1.7c-1.7-4.1-0.4-8.8-2.4-12.9
			c-0.2-0.5-0.3-1-0.3-1.6c0.1-0.8,0.4-1.6,1-2.2c0.8-0.7,1.5-1.5,2.8-1.3c1.3,0.9,1.4,2.3,1.6,3.6
			C113.2,95.8,115.1,100,117.7,103.8z"/>
		<path id="XMLID_194_" class="st72" d="M111.5,105.2c0.4,0.6,0.7,1.2,1.1,1.8c-0.5,2.2-1.9,3-4.1,2.8c-2.5-1.7-2.2-4.3-2.3-6.9
			c0-2,0.3-4.1-0.4-6.1c-0.3-0.6-0.6-1.3-1.1-1.7c-1.3-1.2-2.1-2.5-0.8-4.1c1.4-1.6,3-1.6,4.4,0l0-0.1c1.8,2.6,1.6,5.5,1.6,8.4
			C109.8,101.5,110.6,103.4,111.5,105.2z"/>
		<path id="XMLID_193_" class="st22" d="M111.8,115.9c-0.8,1.9,0.3,5.4-3.6,5.2c-1.9-0.1-3-1.8-2.9-3.8c0.3-2.9,2.3-4.4,4.9-4.6
			C112.5,112.6,112,114.4,111.8,115.9z"/>
		<path id="XMLID_192_" class="st73" d="M121.8,132.3c-6.1-5.5-4.5-17.7,2.7-20.4c0.7-0.3,1.4,1.5,2.6,1.1c0.4,0.7,0.8,1.3,1.2,2
			c-0.1,1.1-0.7,1.9-1.7,2.3c-5.7,0.7-5.2,4.6-4.5,8.6c0.1,1.5,1.1,2.6,1.5,4.1C123.7,131.3,123.8,132.7,121.8,132.3z"/>
		<path id="XMLID_191_" class="st74" d="M138.8,102.4c3.9,1.1,1.3,4.5,2.4,6.6c0.5,2.7,0.3,4.8-3.3,3c-1.9-2.4-2.3-5.2-2.2-8.2
			C136.8,103.3,137.8,102.8,138.8,102.4z"/>
		<path id="XMLID_190_" class="st75" d="M114.3,124.2c0.4,1.4,0.2,2.7-0.9,3.7c-8.6-0.7-8.6-0.7-10.1-6.3
			C106.6,125,110.3,125.3,114.3,124.2z"/>
		<path id="XMLID_189_" class="st76" d="M142.1,111.4c2.9,0.4,4.7,1.8,4.4,5.1c-0.2,2.3,0.3,5.1-3.3,5.1c-0.5-1.3-0.9-2.6-1.4-4
			C139.2,115.4,139.9,113.4,142.1,111.4z"/>
		<path id="XMLID_188_" class="st77" d="M120,126.8c0-2.4-0.4-5,0.1-7.3c0.6-3.3,2.3-5.6,6.1-3c0,0.2,0,0.5-0.1,0.7
			c-1.9,3.1,2.3,4.2,2.3,6.7c-0.4,0.7-0.8,1.3-1.2,2c-0.4,0.6-0.9,1.1-1.6,1.5C123.7,127.4,121.8,127.9,120,126.8z"/>
		<path id="XMLID_187_" class="st78" d="M122.1,98.2c-3.4-1.6-4.2-4.9-5.5-7.9c-1.3-3-2.8-6-4.1-9l0-0.4c3.4,1,4.2,3.8,5.1,6.7
			c1.1,3.6,1.9,7.5,5.7,9.6C122.9,97.6,122.5,97.9,122.1,98.2z"/>
		<path id="XMLID_186_" class="st79" d="M117.7,103.8c-5.4-4.1-4.5-10.9-7.1-16.3c-1.9-0.3-2.2-1.3-1.5-2.9c0.9,0.3,2-2.5,2.8,0.7
			c1.5,5.8,1.8,12.1,5.9,17.1C117.8,102.9,117.8,103.3,117.7,103.8z"/>
		<path id="XMLID_185_" class="st80" d="M125.2,125.9c0.7,0,1.3-0.1,2-0.1c0.3,1.1,0.7,2.3,1,3.4c0.1,1.6,0.1,3.1-1.2,4.2
			c-1.2,0.3-2.5,0.6-3.7,0.9c-0.3-0.1-0.6-0.1-0.9-0.1c-0.2-0.6-0.3-1.2-0.5-1.9c0.1-0.9,0.2-1.8,0.4-2.7
			C122.4,127.8,123.5,126.6,125.2,125.9z"/>
		<path id="XMLID_184_" class="st81" d="M126.2,116.4c0.7-0.4,1.4-0.9,2.2-1.3c1.4,2.1,3.5,4.1,1,6.8c-1.1-0.1-2,0.5-3,0.6
			c-1.6,0.2-2.7-0.5-3.1-2.1C122.6,117.9,124.4,117.1,126.2,116.4C126.2,116.4,126.2,116.4,126.2,116.4z"/>
		<path id="XMLID_183_" class="st82" d="M106.2,96.3c2.2,4.3-0.5,9.3,2.2,13.5c-0.7,0.5-1.4,0.9-2.2,1.4c-1.2-4.6-1.4-9.2-0.9-13.9
			C105.5,96.8,105.8,96.5,106.2,96.3z"/>
		<path id="XMLID_182_" class="st83" d="M126.2,116.4c-1.2,1-2.5,1.8-2,3.7c0.9,3.2,3.9-0.1,5.1,1.7c-0.3,0.7-0.6,1.3-1,2
			c-1.3-0.2-2.8-0.1-4-0.6c-1.7-0.7-2.6-2.2-2.4-4.1C122.3,116.4,124.3,116.5,126.2,116.4z"/>
		<path id="XMLID_181_" class="st84" d="M115.8,77.1c-1.4,0.1-2.8,0.3-3.9,1.3c-0.5,0.5-1.1,0.5-1.5-0.1c1.7-2.5,6-2.8,5.6-7.1
			c-0.1-0.9,1.8-1.6,2.9-0.2c1.2,1.1,0.2,2.4,0.4,3.6C118.2,75.6,116.4,75.6,115.8,77.1z"/>
		<path id="XMLID_180_" class="st85" d="M110.3,78.4c0.5,0,1,0.1,1.5,0.1c-0.3,0.9,0,1.7,0.6,2.4c0,0,0,0.4,0,0.4
			c-2,0-4.2-0.7-5.3,1.9c-0.6-0.8-0.9-1.8-2.1-1.9c0-0.5,0-1,0-1.6C106.9,79.7,108.8,79.7,110.3,78.4z"/>
		<path id="XMLID_179_" class="st86" d="M142.1,111.4c-1.3,2-1.2,4.1-0.3,6.2c-4.7,0.4-1.5-4.5-3.8-5.7c2.4,0.4,3.2-0.9,3.3-3
			C141.5,109.8,141.8,110.6,142.1,111.4z"/>
		<path id="XMLID_178_" class="st87" d="M119.2,74.6c-1.2-1.1-1-2.3-0.4-3.6c1.7-0.8,3.4-1.8,5.6,0.2c-1.7,0.7-4.3,0.4-3.7,3.2
			C120.2,74.4,119.7,74.5,119.2,74.6z"/>
		<path id="XMLID_177_" class="st22" d="M153.5,142.9c0.3,3.1,0.7,6.3,1,9.4c-0.6,0.3-1.2,0.7-1.7,1c-0.1-3.1-0.2-6.2-0.3-9.4
			C152.8,143.6,153.1,143.2,153.5,142.9z"/>
		<path id="XMLID_176_" class="st88" d="M124.1,82.6c2.4,0.1,5-1.2,7.9,1.1c-2.2,0-3.9,0-5.5,0C125.6,83.6,124.6,83.6,124.1,82.6z"
			/>
		<path id="XMLID_175_" class="st89" d="M126.9,133.4c-0.6-1.7,0.1-3,1.2-4.2c0.5,1,1.2,1.8,2.3,2c-0.1,0.6-0.1,1.1-0.2,1.7
			C129.1,133,128,133.2,126.9,133.4z"/>
		<path id="XMLID_174_" class="st22" d="M148.4,143.8c-0.2,2.5,0.4,5.1-1,7.4c-0.3,0-0.7,0-1,0c0.3-2.4,0.7-4.9,1-7.3
			C147.8,143.9,148.1,143.8,148.4,143.8z"/>
		<path id="XMLID_173_" class="st90" d="M174.5,120.6c0.4,1.3,1,2.9-1,3.4c-2.2,0.6-3.2-1.1-3.8-2.7c-1.3-3.8-3.2-6.1-7.6-4.9
			c-2.1-2.5,0.1-5.2-0.3-7.7c-2.7-1.8-0.3-4.7-1.4-6.9c0-1.5-1.1-2.7-1.2-4.2c-0.3-1.2-0.8-2.4,0.1-3.6c0.6,0,1.1,0,1.7,0
			c1.4,0.4,2.8,0.8,4.1,1.1c-3.3,4.2,0,7.8,2.1,10.2c2.1,2.4,2.7,4.3,2.6,7.1c0,1.3,1,2.5,1.6,3.8
			C174,116.7,174.4,118.6,174.5,120.6z"/>
		<path id="XMLID_172_" class="st91" d="M174.5,120.6c-1-1.4-1.9-2.9-2.9-4.3c2-1.2,3.5-1.4,4.8,1.1c0.8,1.6,1.4,3.6,3.6,4.2
			c5.9,1.5,2,2.9-0.1,4.3c0.3-3.7-3.6-4.2-5-6.7C174.8,119.7,174.7,120.2,174.5,120.6z"/>
		<path id="XMLID_171_" class="st92" d="M183.3,106.8c0.3,0.3,0.6,0.7,1,1c0.8,2,2.8,3.6,2.6,6.1c-0.2,0.9-0.6,1.6-1.3,2.1
			c-0.1,0.2-0.3,0.4-0.5,0.5c-1.4-1.4-2.8-2.8-4.2-4.2C180,109.7,181.4,108.1,183.3,106.8z"/>
		<path id="XMLID_170_" class="st93" d="M183.3,106.8c-0.8,1.8-1.6,3.7-2.4,5.5c-1-0.5-2-0.9-2.9-1.4c0-0.3,0-0.6,0-0.9
			c1.8,0,3.1-0.7,3.3-2.6c0.2-2.2-2.1-1.1-3.1-2.5C180.8,103.2,182.2,104.6,183.3,106.8z"/>
		<path id="XMLID_169_" class="st94" d="M145,52.7c0.1-0.6,0-0.9,0.1-1c1.7-1.8,3.8-2.1,6.1-1.4c0.3,0.1,0.3,0.9,0.4,1.3
			C149.6,51.9,147.7,54,145,52.7z"/>
		<path id="XMLID_168_" class="st95" d="M157,81.6c0.1,0.5,0,1,0.2,1.5c0.6,1.4,2.7,2.9,0.4,4.3c-2.7,1.6-2.6-1.7-4-2.6
			c-0.2-0.2-0.4-0.3-0.6-0.5c-0.9-1.9,0.3-2.8,1.6-3.7c0,0,0,0,0,0C155.4,80.9,156.2,81.2,157,81.6z"/>
		<path id="XMLID_167_" class="st96" d="M195.6,92c-0.2,0-0.5,0.1-0.7,0.1c-0.4-0.7-0.8-1.4-1.2-2.1c2-2.1-0.6-1.5-1.2-2.1
			c-0.3-0.4-0.5-0.8-0.8-1.2c2.4-3-1-2.7-2.1-3.8c-0.7-1.2-0.1-1.5,1-1.7c1.8,0.7,1.8-0.7,2.1-1.8C194.6,83.4,198.8,86.8,195.6,92z"
			/>
		<path id="XMLID_166_" class="st97" d="M187.4,78.3c1.4-0.7,1.1-3.1,3.2-3.1c-0.1,1.8,1.5,2.8,2.1,4.3
			C191,79.1,189,79.7,187.4,78.3z"/>
		<path id="XMLID_165_" class="st98" d="M185.5,116c-0.1-0.6-0.2-1.3-0.3-1.9c3-0.4,3.1,2.2,4.3,3.8c0.2,0.1,0.3,0.3,0.5,0.4
			c0,0.6,0.2,1.5-0.2,1.9c-0.6,0.6-1,0-1.5-0.6C187.6,118.3,186.5,117.1,185.5,116z"/>
		<path id="XMLID_164_" class="st99" d="M189.5,117.9c-1.4-1.3-2.9-2.5-4.3-3.8c-0.3-2.1-0.7-4.2-1-6.2
			C188.2,110,189.5,113.6,189.5,117.9z"/>
		<path id="XMLID_163_" class="st100" d="M146.1,91c1-0.2,2-0.5,3-0.7c1.1-0.5,2.2-0.3,3,0.6c1.4,2.4,1,5,0.7,7.6
			c-1.1,2.9-3.1,4.6-6.3,4.4c-2.2-0.1-3.4-1.5-3.6-3.7C143.7,96.3,143.3,93.1,146.1,91z"/>
		<path id="XMLID_162_" class="st101" d="M151.6,91.2c-0.8-0.3-1.7-0.5-2.5-0.8c-1.5-2-0.2-4.7-1.8-6.6c0-0.9,0.1-1.7,1-2.1
			c0,0,0,0,0,0c1.6,1.3,4.9-0.2,5.3,3.2c0,0,0-0.1,0-0.1c0.3,2-0.4,3.7-1.2,5.4c0.3,0.1,0.5,0.3,0.5,0.6c0,0.3-0.1,0.4-0.1,0.4
			C152.4,91.4,152,91.4,151.6,91.2z"/>
		<path id="XMLID_161_" class="st102" d="M146.1,91c-0.6,2.5-1.3,5-1.9,7.5c-0.7,0-1.2-0.3-1.5-0.9c-0.1-0.4-0.3-0.8-0.5-1.1
			C142.3,93.8,142.3,91,146.1,91z"/>
		<path id="XMLID_160_" class="st103" d="M143.3,83.9c1.5,2.1,2.8,1.6,4.1-0.3c0,0.2,0,0.4,0,0.5c-0.1,1.8,0.6,4.5-2.1,4.6
			C141.8,88.7,143.4,85.8,143.3,83.9z"/>
		<path id="XMLID_159_" class="st104" d="M142.2,96.5c0.3,0.3,0.7,0.7,1,1c0.7,1.4,0.8,2.7-0.5,3.8c-0.2,0.1-0.4,0.1-0.7,0.2
			c-1-0.2-2-0.3-3-0.5C137,97.4,143,99.3,142.2,96.5z"/>
		<path id="XMLID_158_" class="st105" d="M182.1,87.4c0.4-1.9,0.7-3.9,1.1-5.8c1-0.4,0.6-2.4,2.3-2
			C184.9,82.4,184.3,85.3,182.1,87.4z"/>
		<path id="XMLID_157_" class="st106" d="M152.1,91.1c0-0.3,0.1-0.6,0.3-0.9c3.2-0.1,5.2,1.8,7,4c0.5,1.1,1.1,2.1,1.6,3.2
			c0.3,3-2.2,2.3-3.8,2.7c-0.6,0-1.1,0-1.7-0.1C151,98.3,153,94.1,152.1,91.1z"/>
		<path id="XMLID_156_" class="st107" d="M153.6,84.8c-3.9-2.9-0.9,3.2-3.9,2.1c-1.2-1.1,0.9-4-1.4-5.3c2.2,0.3,4.3-0.5,6.4-1.1
			C153.8,81.8,153.5,83.2,153.6,84.8z"/>
		<path id="XMLID_155_" class="st108" d="M148.2,103.8c0.1,0.3,0.3,0.7,0.3,1c0.2,2.5,0,5.7-2.8,6c-2.9,0.2-3.2-3.2-3.6-5.5
			c-0.2-1.2,0-2.4,0-3.6c0,0-0.1,0.1-0.1,0.1C144.7,100.6,146.4,102.3,148.2,103.8z"/>
		<path id="XMLID_154_" class="st109" d="M161.3,101.8c3,2.1,1.2,4.6,0.6,7c-2.3,2.3-3.9,1.5-5-1.1c-0.5-1.2-0.8-2.6-1.2-3.9
			c-0.6-2.3,0.7-3.1,2.7-3.5C159.6,100.2,160.5,100.9,161.3,101.8z"/>
		<path id="XMLID_153_" class="st110" d="M153.8,115.2c-0.2-2.2,0.7-4.3,2.6-4.5c1.7-0.2,2.8,1.7,2.6,3.8c-0.2,2.3-0.9,5.5-2.8,5.6
			C154,120.3,154.1,117.1,153.8,115.2z"/>
		<path id="XMLID_152_" class="st111" d="M147.1,115.4c0-2,0-4.2,1.8-4.1c2.4,0.2,3.9,2,3.6,4.8c-0.2,2,0.2,5.2-2.2,5.1
			C147.4,121,147.7,117.4,147.1,115.4z"/>
		<path id="XMLID_151_" class="st112" d="M155,103.7c-0.5,2.5,1,6.8-2.4,7c-3.4,0.1-3.4-4-3.5-7C151.7,99.7,152.6,99.7,155,103.7z"
			/>
		<path id="XMLID_150_" class="st113" d="M151.4,124.3c0,1,0,2-0.1,3c-0.5,1-0.4,2.4-1.9,2.7c-1.9,0.4-2.9-1.3-4.3-1.9
			c0-2.2-1.1-4.9,1.5-6.1C148.7,121,149.9,123.2,151.4,124.3z"/>
		<path id="XMLID_149_" class="st114" d="M155,103.7c-2-1.7-3.9-2.8-5.9,0c-0.3,0-0.6,0-0.9,0.1c-2.1-0.7-4.1-1.4-6.2-2.1
			c0.4-1.4,0.8-2.8,1.2-4.1c0.4,0.3,0.7,0.7,1.1,1c-0.1,2.1,1.1,3,3.1,3.2c3.1,0.3,2.7-2.9,4.2-4.2c1.8,0.2,3,3.4,5.3,0.9
			c0.3,0,0.6,0.1,0.9,0.1c1.5,0.7,2,1.7,1.4,3.3c-1.8-0.5-2.6,0.6-3.4,1.9C155.5,103.7,155.2,103.7,155,103.7z"/>
		<path id="XMLID_148_" class="st115" d="M168.8,122.7c0.5,2.3-1.5,1.6-2.5,2c-1,0-2.4-0.4-3.1,0.2c-2.7,2.3-3.3-0.4-4.5-1.7
			c0.9-2.5,2.7-1.9,4.6-1.5C165.1,122.1,167,122.4,168.8,122.7z"/>
		<path id="XMLID_147_" class="st116" d="M106.2,96.3c-0.3,0.3-0.6,0.7-0.9,1c-3.9-4.2-3.7-7.2,0.9-12c1.3,1.4,3.2,2.4,3.3,4.7
			c-0.4,0.4-0.8,0.8-1.2,1.2C100.7,90.1,107,94.6,106.2,96.3z"/>
		<path id="XMLID_146_" class="st117" d="M109.5,89.9c-1.7-1.1-4.1-1.7-3.3-4.7c0.3-0.3,0.6-0.7,0.9-1c0.6,0.1,1.3,0.2,1.9,0.4
			c0.5,1,1,1.9,1.5,2.9C110.2,88.3,109.9,89.1,109.5,89.9z"/>
		<path id="XMLID_145_" class="st118" d="M149.4,130.1c0.6-0.9,1.3-1.8,1.9-2.7c0,2.3,1.3,3,3.4,2.7
			C153,130.5,151.2,136.1,149.4,130.1z"/>
		<path id="XMLID_144_" class="st119" d="M139.9,124.8c-0.4,1.2,1.9,3.1-0.9,3.6c-0.7,0.1-1.6-0.4-2.4-0.7c0.8-1.3,1.2-3,3.3-2.8
			C139.9,124.9,139.9,124.8,139.9,124.8z"/>
		<path id="XMLID_143_" class="st120" d="M111.5,105.2c-3.7-4.1-1.7-9.6-3.2-14.2C112,95.2,109.9,100.6,111.5,105.2z"/>
		<path id="XMLID_142_" class="st121" d="M125.2,125.9c-1.2,1.1,0.1,4.2-3,3.8c-1.1-0.7-2.2-1.3-2.1-2.9
			C121.2,123.1,123.4,125.6,125.2,125.9z"/>
		<path id="XMLID_141_" class="st122" d="M159.1,101.9c-0.5-1.1-0.9-2.2-1.4-3.3c0.8-1.3,2.4-0.5,3.3-1.3c1.7,1.4,1.1,2.9,0.3,4.5
			C160.6,102.2,159.8,102.4,159.1,101.9z"/>
		<path id="XMLID_140_" class="st123" d="M156.8,98.5c0,1.6-0.6,3-2.3,2.9c-2.1-0.1-2.6-2.1-3-3.8c0.3-2.1-0.7-4.3,0.1-6.4
			c0.2,0,0.4-0.1,0.5-0.1C154.1,93.3,152.4,97.8,156.8,98.5z"/>
		<path id="XMLID_139_" class="st34" d="M147.4,99.4c-1.7-2.6,0.1-4.2,0.6-6C148.4,95.3,149,97.2,147.4,99.4z"/>
	</g>
</g>
</svg>
