<?xml version="1.0" encoding="utf-8"?>
<!-- Generator: Adobe Illustrator 19.0.0, SVG Export Plug-In . SVG Version: 6.00 Build 0)  -->
<svg version="1.1" id="Layer_1" xmlns="http://www.w3.org/2000/svg" xmlns:xlink="http://www.w3.org/1999/xlink" x="0px" y="0px"
	 viewBox="0 0 512 256" style="enable-background:new 0 0 512 256;" xml:space="preserve">
<style type="text/css">
	.st0{fill:#4875B1;}
	.st1{fill:#FFFFFF;}
	.st2{fill:#9E3B23;}
	.st3{fill:#78555E;}
	.st4{fill:#7E532D;}
	.st5{fill:#7B522C;}
	.st6{fill:#7C542D;}
	.st7{fill:#7D552D;}
	.st8{fill:#805830;}
	.st9{fill:#4776B2;}
	.st10{fill:#4875B0;}
	.st11{fill:#53321A;}
	.st12{fill:#4876B1;}
	.st13{fill:#5570A0;}
	.st14{fill:#556C9A;}
	.st15{fill:#4C74AA;}
	.st16{fill:#58719F;}
	.st17{fill:#4679B4;}
	.st18{fill:#4C75AC;}
	.st19{fill:#834E4C;}
	.st20{fill:#F9D187;}
	.st21{fill:#FAD58A;}
	.st22{fill:#F7D388;}
	.st23{fill:#F6D489;}
	.st24{fill:#F7D186;}
	.st25{fill:#EDCD84;}
	.st26{fill:#FEF5A2;}
	.st27{fill:#9C3C23;}
	.st28{fill:#D9B271;}
	.st29{fill:#744E2A;}
	.st30{fill:#F5D58A;}
	.st31{fill:#EFB358;}
	.st32{fill:#61391B;}
	.st33{fill:#DEBD78;}
	.st34{fill:#FBD88C;}
	.st35{fill:#F8D187;}
	.st36{fill:#F8D488;}
	.st37{fill:#79532D;}
</style>
<g id="XMLID_4_">
	<g id="XMLID_51_">
		<path id="XMLID_94_" class="st0" d="M517,260.7c-171.7,0-343.5,0-515.2,0.1c-4.2,0-4.9-1-4.9-5C-2.9,171.6-3,87.3-3.1,3
			c0-3.5,0.6-4.5,4.4-4.5C173.2-1.3,345.1-1.3,517-1.3c1,1.8,0.5,3.7,0.5,5.5c0,83.7,0,167.4,0,251.1C517.5,257.1,518,259,517,260.7
			z"/>
		<path id="XMLID_93_" class="st1" d="M517,260.7c0-87.3,0-174.7,0-262c2-0.2,1,1.4,1,2c0.1,86,0.1,172,0,258
			C518,259.3,519,260.9,517,260.7z"/>
		<path id="XMLID_92_" class="st2" d="M203.2,188.6c-13,10-29.4,10.1-41.6,0.1c-12.3-10.1-15.5-26.6-8.1-41.3
			c0.7-1.4,2.8-2.9-0.8-3.8c-2.4-0.6-1.9-3.3-1.7-5.3c1.6-13.2,8.3-22.9,20.7-27.8c12.8-5,24.7-2.6,34.8,6.8
			c2.3,2.1,3.4,2.7,5.8,0.2c5.1-5.6,12-8,19.4-9.3c-2-4.9-4.3-9.6-5.9-14.5c-6.4-19-3.9-37,7.2-53.6c1.1-1.7,0.4-2.4-0.5-3.4
			c-2.1-2.3-1.4-4.2,0.5-6.2c9.4-9.9,21.3-9.6,30.3,0.7c0.3,0.4,0.7,0.6,1.3,1.1c1.2-4.2,2.4-8.2,3.6-12.1c0.6-1.8,1.3-3.8,3.6-3.6
			c2.1,0.2,2.9,2.1,3.5,3.9c2.5,8.1,3.5,16.4,2.2,24.9c-0.8,4.8,0.9,6.9,5.9,6.1c6-1,11.3,0.4,15.8,4.6c1.6,1.5,5,2,3.6,5.2
			c-1.2,2.7-3.9,4.5-6.9,4.3c-3.8-0.2-7.9,0.1-11.5-1.4c-2.1-0.9-3.9-0.3-6.5,0c3.2,3.5,2.7,7.3,1.3,10.7c-1.7,4.3-1.6,8.5-1.6,12.9
			c0,13,0,26.1,0,39.1c0,5.9,0.5,11.8-1.6,17.6c5.9-0.8,10.3-2.7,14.4-6.9c12.2-12.4,26.4-22.1,42.4-29c3.7-1.6,5.8-0.3,4.8,3.7
			c-1.1,4.4,0.8,6.4,3.7,8.8c4,3.3,7.7,7.1,11.4,10.8c2.6,2.6,3.8,10.6,2,12.7c-3.2,3.8-9.8,4-14.2,0.4c-1.7-1.4-3.4-2.9-5.7-3.2
			c-3.1-0.4-6.2-0.6-6.6,3.9c-0.2,1.5-0.6,3.1-1.5,4.3c-5,6.6-3.8,14.3-4.3,21.7c-0.2,2.6,1.3,2.8,3.1,2.9c2.7,0.1,5.4,0.2,8.1,0
			c4-0.3,7,1.9,6.7,5.2c-0.8,7.5,4.1,12.5,6.5,18.6c0.3,0.6,0.7,1.2,0.9,1.8c1.1,3.7,1.3,7.5-1.3,10.6c-2.7,3.2-5.7,0.3-8.3-0.7
			c-3.7-1.4-7.1-4-11.1-0.6c-0.4,0.4-1.4,0.5-1.9,0.2c-4.6-2.2-3.9-7.1-5.1-10.9c-0.8-2.5,1.1-3.9,3.8-4.2c2.8-0.3,3-3,2.8-4.6
			c-0.3-2.1-2.5-0.9-3.8-0.8c-4.7,0.3-9.4,0.9-14.1,1.3c-1.7,0.1-3.6,0.5-5-0.1c-11.8-5-24.6-1.7-36.6-4.6c-0.5-0.1-1-0.1-1.5-0.2
			c-8.5-3.2-16-3.8-22.8,4.6c-3.4,4.2-10.1,4.6-15.7,4.4c-2.7-0.1-3.9,0.8-5,3c-2.5,5.5-5.2,10.9-7.7,16.4c-1.1,2.4-3,4.1-5.1,5.5
			c-4.9,3.2-7.4,2.4-8.8-3.1c-0.8-3.1-1.7-3-4.3-2.1c-6.5,2.2-8.2,0.8-8.1-6.2c0-4.2-1.3-8.2,6.1-8.8c3.7-0.3,6.9-6.8,10.3-10.5
			C203.9,187.5,203.6,188.5,203.2,188.6z"/>
		<path id="XMLID_91_" class="st3" d="M203.2,188.6c1.6-1.8,3.3-3.6,4.9-5.4c-0.5,2.5-1.6,4.3-3.7,5.4
			C204,188.6,203.6,188.6,203.2,188.6z"/>
		<path id="XMLID_90_" class="st4" d="M255.9,135.3c-2.7,3.9-6.5,3.6-10.2,3.5c-2.5,0-5-0.9-7.1,2.2c-1.3,1.9-4.8,1.2-7.2,0.4
			c-2.3-0.7-1.7-3.1-1.7-4.8c-0.1-4.2-0.1-8.5,0-12.7c0.1-3-0.9-4-4-2.9c-6.4,2.5-11.2,9.1-11.5,16c-0.1,1.6,0.5,3.6-1.5,4.5
			c-2.3,0.9-3.8-0.6-5.3-2c-1.6-1.5-2.1-3.4-2.7-5.3c-2-6.4-6.3-10.7-12.3-13.4c-2.5-1.1-4.5-1.1-4.3,2.3c0.2,4-1.1,5.9-5.5,5.7
			c-4.4-0.2-5.1-2.4-4.4-6c0.5-2.8-0.9-2.8-2.9-2c-4.9,2-8.7,5.4-11,10.1c-1.6,3.3-4,5.8-6.6,8.3c-0.9,0.9-1.8,2.5-3.3,1.9
			c-1.7-0.8-1-2.7-0.9-4.1c1.3-11.7,11.5-22.7,23.3-25.4c11.4-2.6,21.1,0.7,28.9,9.2c2.6,2.8,4.1,3.3,7,0.1
			c6.7-7.5,15.3-11,25.4-9.9c3,0.3,3.7-1,3.4-3.4c-0.3-3.4-0.3-6.9-1.3-10c-2.3-7.3-1-14,2.1-20.6c1.1-2.3,1-4.4-0.1-6.8
			c-3.1-7.1-4.4-14.2,0.5-21.2c1.4-2,0.9-3.8-0.7-5.5c-1.5-1.6-3.1-3.1-4.7-4.7c-4.3-4.5-4.2-5.7,1.1-9.3c6.2-4.3,14-4.4,18.9-0.3
			c4.4,3.8,5.6,11.5,2.2,16.7c-1.3,1.9-1.6,3.2,0,4.8c1.9,1.9,4,3.4,6.7,2.6c2.3-0.7,1.7-3,1.8-4.8c0.6-7.5-2.5-15.1,0.8-22.5
			c0.3-0.8,0.4-1.7,0.7-2.4c0.4-1,0.6-2.6,2.2-2.3c1.2,0.2,1.1,1.5,1.5,2.4c2.8,7.3,2.1,14.9,1.9,22.5c-0.2,7.6,0,7.9,7.5,7.5
			c5.5-0.3,10.4,0.8,14.5,4.5c0.9,0.8,2.7,1.3,2.1,3c-0.4,1.2-1.7,1.6-3,1.6c-3.7,0-7.5,0.6-11-0.8c-1.5-0.6-2.8-0.8-4.4-0.6
			c-5.8,0.7-6.1,1-4.2,6.5c0.6,1.9,0.9,3.8,0.1,5.5c-2.1,4.3-1.7,8.9-1.7,13.5c0,15.2,0,30.5,0,45.7c0,1.7,0.1,3.4-0.2,5.1
			c-0.3,1.5-0.1,3.9-2.5,3.7c-2.1-0.1-3.9-1.3-4.1-3.8c-0.1-1.5-0.1-3-0.1-4.6c0-16.6,0.1-33.2-0.1-49.8c0-2,1.2-5.6-2.5-5.4
			c-3.4,0.2-4.8,2.8-4.4,6.6c1.2,10.9,2.7,21.8,1.9,32.8c-0.4,6-0.3,12.1,1.6,18.1c1.6,5.3-0.8,7.7-5.2,6.8
			C256.2,141,257.6,137.9,255.9,135.3z"/>
		<path id="XMLID_89_" class="st5" d="M335.3,198.6c-2.5,1.8-2.7,5.5-5.8,6.9c-2,0.9-4.5,2.3-5.3-1.1c-0.6-2.4-4.1-5.8,1-7.5
			c4.1-1.4,3.9-4.9,3.6-7.9c-0.4-3.4-3.6-2.4-5.8-2.3c-4.6,0.1-9.1,0.8-13.6,1c-4.2,0.2-8.4,0.3-12.2-2.4c-1.2-0.8-3.3-0.7-4.9-0.6
			c-13.3,0.4-26.4-0.7-39.1-4.9c-2.3-0.7-3.7-0.3-5.1,1.7c-5.2,7.3-12.4,10.8-21.4,10.2c-3.3-0.2-5.4,0.9-6.8,4
			c-1.9,4.3-4.5,8.3-5.9,12.9c-0.8,2.6-2.4,4.9-4.4,6.7c-1.6,1.4-3.2,4-5.5,2.5c-2.1-1.4-2-4.5-2.4-7c-0.1-0.4,0.3-1.2,0.6-1.3
			c7.2-1.3,5.2-8.9,9.3-12.3c-0.3-0.3-0.7-0.5-1-0.8c-3.5,3.9-7,7.8-10.6,11.7c-1,1.1-2.2,2.2-3.5,2.9c-1.8,1-4,1.8-5.6-0.1
			c-1.7-1.9-1.3-4.5-0.7-6.8c0.6-2.5,2.5-1.6,4.1-1.1c0.9,0.3,1.7,0.3,2.2-0.7c3.8-7.8,12.3-12,15.3-20.5c0.7-2,2.8-2.2,4.6-2.7
			c5.8-1.5,8.5-5.3,8-11.3c-0.2-2.4-0.5-4.8,0.4-7c1.2-3,1.8-5.4-1.9-7c-1.4-0.6-1-2-0.4-3.1c0.8-1.5,2.2-2.6,3.7-1.5
			c3.5,2.4,6.3,0.6,9.3-1.1c9.8-5.6,20.2-4.6,30.6-2.5c4.8,1,9.5,1.5,14.5,0.8c8.2-1.2,11.6-8.3,17.2-12.7c10.4-8.1,21-16,33.1-21.5
			c3.3-1.5,4.6-1.1,3.5,2.7c-1,3.3,1.2,5.1,3.4,6.7c4.4,3.2,8,7.3,11.9,11.1c3.1,3.1,4.4,7.2,1.8,10.4c-3,3.6-7,2-10.3-0.8
			c-1-0.9-2.2-1.6-3.4-2.3c-5.7-3-9.9-1.3-11.9,4.7c-0.6,1.8-1,3.7-2,5.2c-4.9,6.9-3.9,14.8-4,22.5c-0.1,3.2,1.6,4.6,4.6,4.8
			c0.8,0.1,1.7,0.1,2.5,0.1c10.6,0.2,10.6,0.2,11.2,10.2c-0.8,1.3,0.9,2.3,0.5,3.6c-0.6,1.7-0.7,3.4-1.1,5.1
			C337,197.1,336.3,198,335.3,198.6z"/>
		<path id="XMLID_88_" class="st6" d="M182.8,171.3c-4.6,1.1-7.1,4.8-10.2,7.8c-1.9,1.8-1.6,3.1,0.7,4.2c6.4,3,12.8,2.6,19.1-0.3
			c2-0.9,2.3-2.3,0.7-4c-0.8-0.8-2-1.4-1.8-2.8c9.5-3.1,10.5-3.7,21.3-13.5c0.6,6.9-1.4,12.6-5,17.6c-13,18.6-39.6,17.5-51.4-1.9
			c-7.4-12.2-4.8-27.7,6.6-38.2c9.6-8.9,25.8-9.9,36.7-2.3c1.1,0.8,2.7,1.4,2.6,2.8c0,1.8-2,1.4-3.1,2c-2.9,1.5-5.6,1.3-8.6-0.1
			c-5.1-2.4-10.5-2.1-15.8-0.1c-3.1,1.2-4.3,2.7-1.3,5.3c1.8,1.6,3.5,3.2,5,5c1,1.2,4.9,1.5,1.8,4.2c-2,1.8-4.3,4.4-7.4,1.4
			c-1.8-1.8-3.7-3.5-5.4-5.4c-2-2.1-3.7-2.2-4.9,0.7c-2.6,6.2-2.6,12.5,0,18.7c0.8,2,2.4,3.4,4.1,1.2c2.7-3.4,5.8-4.1,9.7-2.7
			C178.3,171.8,180.4,170,182.8,171.3z"/>
		<path id="XMLID_87_" class="st7" d="M195.1,162.5c-8.2,2.6-14.3,9.3-22.8,5.5c-2.5-1.1-4.6-2.7-5.4-6.8c9.9,3.6,15.3-2.6,20.7-8.5
			c6.8-7.5,15.3-10.1,25-9.7c1.5,0.1,3,0.3,4.5,0.8c2,0.7,4.8,1.3,4.6,3.8c-0.2,2.3-1.1,5.1-4.1,5.7c-3.1,0.6-4.2,3.2-5.6,5.5
			c-3.8,6.2-9.5,10-15.6,13.3c-2,1.1-4.1,1.5-6.4,1.2c-1.8-0.3-3.5-1.1-3.7-2.9c-0.2-2.2,1.9-1.2,3-1.7
			C191.7,167.6,193.4,165.8,195.1,162.5z"/>
		<path id="XMLID_86_" class="st8" d="M236.1,108.2c-14.4-19.3-13.5-49.7-1.7-64.7C235,65,235.5,86.1,236.1,108.2z"/>
		<path id="XMLID_85_" class="st0" d="M227.5,123.1c0,4.6,0,8.6,0,12.6c0,8.1,0,8.1,8.7,8.6c-2.8,1.9-4.9,5-8,2.4
			c-4.1-3.4-12.5-2.9-11.7-10.9C217.1,129.8,221.4,126,227.5,123.1z"/>
		<path id="XMLID_84_" class="st9" d="M212.7,176.6c1.8-5.4,3.4-10.6,2.4-16c-0.4-2,0.7-3.5,2.1-4.1c1.6-0.7,3.6-1,5.3,0.2
			c1.8,1.4,0.1,2.8-0.2,4c-0.5,2.5-0.4,5-0.2,7.5C222.5,173.8,219.9,176.2,212.7,176.6z"/>
		<path id="XMLID_83_" class="st10" d="M175,145.5c5.6-2.6,9.8-2.5,15.6,0.2C183.3,154.2,181.3,154.2,175,145.5z"/>
		<path id="XMLID_82_" class="st10" d="M190.8,181c-5.5,2.2-10.6,2.5-15.9,0.2C181.7,172.3,183.4,172.2,190.8,181z"/>
		<path id="XMLID_81_" class="st11" d="M335.3,198.6c0-1.1,0-2.1,1-2.8c2.9,1,2.9,1,4.5,3.7c-0.7-2.9-5.2-4.5-2.8-8.4
			c-0.2-1.2-0.9-2.4,0.2-3.5c2.1,4,4.1,8,6.2,12c0.8,1.4,1.2,2.8,1.1,4.3c-0.1,1.9,0.6,4.9-1.8,5.1c-2.7,0.3-5.5-1.2-7.7-3.1
			c-0.7-0.6-0.3-1.7,0.3-2.2C338.8,201.3,337.3,199.9,335.3,198.6z"/>
		<path id="XMLID_80_" class="st10" d="M191,123.2c7,2.8,10.6,7.2,11.2,13.5c-3.5-2-6.6-4.1-10.4-5c-1.5-0.4-1.6-1.1-1.2-2.6
			C191,127.4,190.9,125.5,191,123.2z"/>
		<path id="XMLID_79_" class="st12" d="M165.2,134.7c2.3-5.4,5.4-8.9,10-11.1C176.6,129.9,176.6,129.9,165.2,134.7z"/>
		<path id="XMLID_78_" class="st13" d="M264,36.7c2.9,4.4,1.7,8.4,2,12.2c0.1,1.7-0.9,2-2.3,1.6c-1.1-0.3-2.7-1.1-1.9-2.3
			C264.1,45,262.8,41.1,264,36.7z"/>
		<path id="XMLID_77_" class="st14" d="M265,81.2c1.5,5.9,1.1,11.8,0.8,19.1C264.4,93,263.6,87.1,265,81.2z"/>
		<path id="XMLID_76_" class="st15" d="M237.8,80.4c0-5.3,0-9.2,0-13.5C240.9,71.1,241.3,75,237.8,80.4z"/>
		<path id="XMLID_75_" class="st16" d="M163.4,167.5c-1.6-4.3-0.9-8.4,1.2-12.4c1.7,0.6,2.6,1.7,3.6,3c-2.8,0.7-5.8,1.2-3.8,5.2
			C163.6,164.6,165.2,166.4,163.4,167.5z"/>
		<path id="XMLID_74_" class="st17" d="M237,52.2c0.2-2.8,0.5-5.7,0.7-8.9c7.3,3.4-0.1,6,0.7,8.9C237.9,52.2,237.5,52.2,237,52.2z"
			/>
		<path id="XMLID_73_" class="st18" d="M163.4,167.5c0.3-1.4,0.6-2.8,0.9-4.2c0.6,1,1.1,2,1.7,3c0.6,1.1,2.8,1.8,1,3.5
			c-0.6,0.6-1.5,1.6-1.8,1.5C163.6,170.6,163.5,169,163.4,167.5z"/>
		<path id="XMLID_72_" class="st19" d="M253.8,141.6c-2.4,0-4.9,0-7.3,0C249,141.3,251.3,139.6,253.8,141.6z"/>
		<path id="XMLID_71_" class="st20" d="M254.1,61.9c6.6-0.1,7.3,0.1,5.8,6.2c-2.9,12.2,1.2,24,1.7,35.9c0.3,6.6-0.7,13-1.2,19.5
			c-4.9-6.3,2.4-13.7-2.4-21.3c-0.1,6.2,0,11.2-1.9,16.4c-3.6-2.1-6.9-4.7-10.8-6.2c-1.3-0.5-1.2-1.9-1.4-3c-1-6.5-1.9-13-2.9-19.5
			c-0.8-5.2,2.6-9.3,4-13.9c0.7-2.2,0.6-3.6-0.4-5.5c-1.9-3.6-2.8-7.6-2.9-11.7c0-3.3,0.7-6.1,3.1-8.8c2-2.2,3.7-5.1-0.4-7.7
			c-2.2-1.4-3.8-3.8-5.9-5.6c-2.7-2.2-1.9-3.8,0.5-5.5c3.1-2.3,6.4-3.6,10.4-3.4c4.2,0.2,8.5,1.9,9.5,5.6c1,3.5,1.7,8.3-2,11.6
			c-0.5,0.4-1.2,1.2-1,1.6c1.8,5.3-3.6,9-2.9,14C253.6,60.9,252.6,62.4,254.1,61.9z"/>
		<path id="XMLID_70_" class="st21" d="M211.8,139.9c-2.9-1.8-4.2-3.8-5.1-6.6c-2.4-7.3-7.4-12.4-14.7-15c-4.8-1.7-5.5-1.2-5.8,3.9
			c-0.1,1.8,1,4.2-2.6,4.3c-3,0.1-3.1-1.5-3.2-3.8c-0.2-5.6-1.2-6.2-6.3-3.9c-5.3,2.4-9.4,6.1-11.8,11.4c-1.3,2.9-3.3,5-5.8,6.8
			c-0.3-10.1,9.5-21.2,21.1-23.6c11.5-2.5,21.2,1,28.5,10.1c2.9,3.6,4.2,3.4,7.1-0.1c7.2-8.9,16.8-12.5,28-10.1
			c10.8,2.3,17.8,9.2,21.3,19.7c0.3,1,0.6,2,0.7,3c0.1,1.3,1.1,3.2-1.4,3.5c-2.1,0.2-2.4-1.3-2.7-2.9c-1.5-7.2-5.2-12.8-11.6-16.5
			c-1.3-0.8-2.7-1.3-4.1-1.9c-4.1-1.9-5.5-0.2-5.4,4c0.2,4.6,0.1,9.1,0.1,13.7c0,1.9,0.3,3.7-2.7,3.8c-3.1,0.1-3.2-1.6-3.1-3.9
			c0.1-4.7,0-9.5,0-14.2c0.1-3.9-1.6-4.6-5.1-3.4C217.9,121.4,211.7,129.7,211.8,139.9z"/>
		<path id="XMLID_69_" class="st22" d="M271.1,138.1c-1.4-1.6-0.7-3.6-0.7-5.3c-0.1-17.6-0.2-35.2,0.1-52.8c0.1-4.1-1-5.5-5.1-4.8
			c-1.4,0.2-3.9,1.9-4.2-1.4c-0.2-2.9,1.3-3.9,4.1-3.2c3.9,0.9,5.8-0.4,5.2-4.7c-0.2-1.2-0.6-3.1,1.4-3.2c1.7-0.1,0.7,2.1,1.3,2.7
			c5,4.9-0.2,9.7-0.1,14.5c0.1,17.6,0.1,35.2,0,52.8c0,1.8,0.6,3.7-0.7,5.4c-1.1-1.7-0.6-3.6-0.6-5.4c-0.1-16.9,0-33.7-0.1-50.6
			c0-1.6,0.5-3.3-0.6-5.1c-0.1-0.4-0.5,0.7,0.1,0.3c0.2-0.2,0.4,0,0.4,0.3c0.2,19.7,0.1,39.5,0.1,59.2
			C271.7,137.3,271.4,137.7,271.1,138.1z"/>
		<path id="XMLID_68_" class="st23" d="M296.5,61c-12.3-3.7-24.7,0.5-37-1c-1.9-0.2-4.5,0.7-3.8-3.3c0.6-3.7,2.4-2.8,4.5-2.2
			c7.8,1.9,15.8,1.6,23.7,1.3C288.9,55.6,293.2,56.5,296.5,61z"/>
		<path id="XMLID_67_" class="st24" d="M247.3,136.7c-6.8,0-6.8,0-5.6-6.5c0.2-0.8,0.2-1.7,0.5-2.5c0.8-2.1,0.2-6.3,2-6.2
			c3.9,0.2,6.5,3.7,8.9,6.9c1.8,2.4,1.1,5.1-0.1,7.2C251.9,137.8,249.1,136.2,247.3,136.7z"/>
		<path id="XMLID_66_" class="st25" d="M271.5,25.2c3.8,9.3,0.8,18,1.6,26.6c0.1,0.9-0.3,1.8-1.3,1.8c-1,0-1.5-0.9-1.3-1.7
			C271.5,43.3,267.3,34.7,271.5,25.2z"/>
		<path id="XMLID_65_" class="st26" d="M271.1,138.1c0-20.4,0-40.8,0-61.1c0.4,0,0.8,0,1.2,0c0,20.4,0,40.7,0,61.1
			C272,138.9,271.6,138.8,271.1,138.1z"/>
		<path id="XMLID_64_" class="st27" d="M268.1,65.8c-0.1,1.8-1,2.8-2.8,2.8c-2,0-3.1-1-3-3c0-1.8,1-2.7,2.8-2.8
			C267.1,62.7,268.1,63.8,268.1,65.8z"/>
		<path id="XMLID_63_" class="st28" d="M240.3,125.9c-0.6-2.1-1-4.1,0.4-7C242.5,121.9,241.1,123.9,240.3,125.9z"/>
		<path id="XMLID_62_" class="st29" d="M254.1,61.9c-0.3,2.3-1.3,4.2-4,5.2c1-2.2,2-4.3,2.9-6.5C253.4,61.1,253.8,61.5,254.1,61.9z"
			/>
		<path id="XMLID_61_" class="st20" d="M198.9,201.4c4.3-4.8,9.4-9,12.5-14.5c2.7-4.6,6-5.9,10.5-7.5c4-1.4,4.5-6.6,4.6-10.6
			c0.1-4.1-0.3-8.1,2.1-11.7c1.9-2.8-0.8-2.9-2.2-3.8c-0.8-0.5-2.3-0.7-1.8-2c0.5-1.3,1.8-0.8,2.5-0.2c2.9,2.2,5.2,1.2,8-0.7
			c7-4.9,15.1-5.7,23.3-4.4c9.6,1.5,19.1,4.2,28.8,0.9c1.5,3.9,0.6,8,0.6,11.9c-0.1,7.8,0.9,15.7-0.5,23.5
			c-11.6,0.6-22.9-1.3-34-4.7c-2.4-0.7-2.8-1.8-2.1-4c1.1-3.1,0.7-6.2-1.8-10.3c-0.2,4.6,0.8,7.7-0.2,10.9
			c-3.8,12.1-15.2,18.1-28.4,14.3c-3.8-1.1-5.9-0.3-8.2,2.5c-4,4.8-8.3,9.2-12.5,13.8C197.6,204.7,198.8,202.8,198.9,201.4z"/>
		<path id="XMLID_60_" class="st20" d="M314.3,176.4c5.7,2,11,1.7,16.3,1.8c5.3,0.1,5.8,1.2,5.2,6.5c-0.7,5.9-1.8,11.6-5,16.6
			c-1,1.5-2.2,3.5-4.2,3c-0.7-0.2-1.1-2.3-1.6-3.5c-0.3-0.7,0.1-1.6,0.8-1.5c7.1,1.1,4.2-5.1,5.1-7.7c2-5.9,0.5-7.2-5.7-6.9
			c-6.6,0.3-13.1,1.6-19.7,1.4c-2.4-0.1-4.8-0.1-6.5-2.2c-1.6-2-3.8-1.2-5.7-1c-3.4,0.5-4.4-0.9-4.3-4.2c0.2-10.2,0.1-20.3,0-30.5
			c0-1.8,0.2-3.3,1.6-4.6c12.1-12.2,25.7-22.4,42.2-29.9c-1.5,4.4,0,6.7,3.1,8.9c4.6,3.2,8.5,7.3,12.3,11.3c2.2,2.4,4.1,5.4,2.1,8
			c-2.3,2.9-5.2,1.2-7.8-1c-2.8-2.4-6.1-4.2-10.2-3.5c-3.1,0.5-6-0.3-8.9-2.3c4.3,7.5-1,13.1-3.6,18.9c-1.3,3-2.5,5.5-1.9,9
			c0.6,3.3-0.1,6.7-0.2,10.1C317.9,175,317.2,176.5,314.3,176.4z"/>
		<path id="XMLID_59_" class="st30" d="M206.1,216c-2-0.5-1.6-2.1-2.1-3.3c-0.6-1.6,0.1-2.1,1.6-2.1c2.6,0.1,2.9-0.9,3.5-3.7
			c1.5-5.7,4.8-11,7.4-16.4c0.4-0.9,1.3-0.9,2.2-0.4c0.8,0.4,1.6,0.9,0.9,1.9c-4.3,7.2-6.7,15.3-11.5,22.2
			C207.8,215,206.8,215.5,206.1,216z"/>
		<path id="XMLID_58_" class="st31" d="M338,191c1.7,3.4,3.5,6.7,5,10.1c0.7,1.6,1.4,3.7,0.2,5.3c-1,1.2-2.4-0.4-3.6-0.7
			c-0.8-0.2-1.7-0.9-0.8-1.8c3.5-3.5,1.2-5-2-6.4c-0.4-0.2-0.3-1.2-0.5-1.8C336.7,194.1,335.4,191.8,338,191z"/>
		<path id="XMLID_57_" class="st32" d="M287.4,182.5c0-11.8,0-23.6,0-35.5c1.7,2.8,1,5.9,0.9,8.9
			C287.9,164.8,289.5,173.7,287.4,182.5z"/>
		<path id="XMLID_56_" class="st33" d="M198.9,201.4c0.5,1.2,0.9,2.3,1.4,3.5c-1.6,1.2-2,3.5-4.1,4.3c-1.2,0.5-2.6,1.6-3.5,0.2
			c-0.6-1-0.6-2.6-0.4-3.9c0.4-1.9,1.9-0.9,2.8-0.6C198.6,206.1,198.4,203.4,198.9,201.4z"/>
		<path id="XMLID_55_" class="st34" d="M210,168.1c-1.9,12.5-12.4,22.2-24.5,23.4c-13,1.2-25.2-6.3-29.7-18.4
			c-4.5-11.9-0.3-25.4,10.2-32.9c9.9-7.1,23.2-7.1,32.1,0c-2,1.8-3.9,1.8-6.3,0.8c-6.7-2.9-13.5-2.6-20.1,0.6
			c-3.6,1.7-4.9,3.5-1.3,6.6c2.2,1.9,4.1,4,6.1,6.1c0.9,0.9,1.9,1.6,0.3,2.8c-1.1,0.8-2,1.1-3.1,0c-2.1-2.2-4.4-4.2-6.4-6.5
			c-2.7-2.9-4.4-2.2-6.1,1c-4,7.6-4.1,15.3-0.3,22.9c2.2,4.4,3.4,4.6,7,1.1c1.9-1.8,3.5-4.6,7.8-1.1c-1.9,1.5-3.8,2.9-5.5,4.3
			c-2.7,2.2-2.6,4.1,0.6,5.8c8,4.1,15.9,4.1,23.8-0.3c1.8-1,3.7-2.2,1.7-4.7c-0.5-0.6-1.6-1.1-0.7-2c0.8-0.8,2.1-1.7,3.2-0.9
			c3.2,2.2,4.3-0.2,5.3-2.4C205.2,171.6,207.3,170.1,210,168.1z"/>
		<path id="XMLID_54_" class="st35" d="M190,171c3.5-2.1,6.3-4.6,7.4-8.5c0.3-1.1,0.7-2.4-0.4-3.2c-1-0.7-1.9,0.2-2.7,0.7
			c-4,2.1-8,4.3-12.2,6.1c-3.5,1.5-7.1,1.8-11.6-1.7c8.7,0.7,12.8-4.6,17.2-9.4c6.6-7.2,14.7-10.6,24.4-10.1c1.8,0.1,3.7,0.5,5.4,1
			c1.1,0.3,2.5,0.7,2.2,2.3c-0.2,1.1-0.7,2.7-1.9,2.7c-4,0.2-5.2,3.5-6.8,6c-4,6.2-9.6,10.4-16,13.6
			C193.5,171.4,192.1,172.5,190,171z"/>
		<path id="XMLID_53_" class="st36" d="M233,52.6c0,15.1,0,30.2,0,46c-7.2-15.5-7.3-30.6-1.4-45.9C232.1,52.6,232.5,52.6,233,52.6z"
			/>
		<path id="XMLID_52_" class="st37" d="M333.6,122.8c1.5,0.5,2.9,1.3,2.7,3.1c-0.1,1.7-1.3,2.8-3,2.6c-1.5-0.1-2.4-1.2-2.5-2.7
			C330.8,124,332,123.2,333.6,122.8z"/>
	</g>
</g>
</svg>
