<?xml version="1.0" encoding="UTF-8"?>
<svg version="1.0" xmlns="http://www.w3.org/2000/svg" width="900" height="600">
	<rect width="900" height="600" fill="#fff"/>
	<g fill="#be0026">
		<circle cx="442" cy="300" r="153"/>
		<path d="M 0,0 L 129.92969,0 L 348.3086,184.82812 L 328.10938,205.89062 z"/>
		<path d="M 230.0625,0 L 304.9336,0 L 399.07422,156.41797 L 372.08985,168.0039 z"/>
		<path d="M 405.0625,0 L 474.9336,0 L 456.42578,150.68359 L 427.22266,150.64843 z"/>
		<path d="M 575.0625,0 L 649.9336,0 L 511.63672,167.85547 L 484.55469,156.45312 z"/>
		<path d="M 750.06251,0 L 879.92969,0 L 555.85157,205.66797 L 535.54297,184.6289 z"/>
		<path d="M 405.0625,600 L 474.9336,600 L 456.38672,449.3125 L 427.24219,449.23047 z"/>
		<path d="M 230.06641,600 L 304.9336,600 L 399.10157,443.55859 L 372.125,432.05469 z"/>
		<path d="M 0,600 L 129.92578,600 L 348.19531,415.39453 L 326.95313,394.98437 z"/>
		<path d="M 575.0625,600 L 649.9336,600 L 511.41016,432.04687 L 484.59375,443.69531 z"/>
		<path d="M 750.0586,600 L 879.92969,600 L 555.75391,394.39062 L 535.66407,415.59375 z"/>
		<path d="M 900,95.062497 L 900,169.9375 L 583.80079,256.85937 L 572.86719,229.48047 z"/>
		<path d="M 900,265.0625 L 900,334.9375 L 589.67579,314.73828 L 589.94141,285.27734 z"/>
		<path d="M 900,430.0625 L 900,504.9375 L 572.51563,370.40625 L 583.875,343.30469 z"/>
		<path d="M 0,95.062497 L 0,169.9375 L 300.10938,257.05078 L 311.5,229.96094 z"/>
		<path d="M 0,265.0625 L 0,334.9375 L 294.05078,314.69922 L 294.00391,285.33594 z"/>
		<path d="M 0,430.06641 L 0,504.9375 L 311.41016,370.23047 L 300,343.17187 z"/>
	</g>
</svg>