<?xml version="1.0" encoding="utf-8"?>
<!-- Generator: Adobe Illustrator 19.0.0, SVG Export Plug-In . SVG Version: 6.00 Build 0)  -->
<svg version="1.1" id="Layer_1" xmlns="http://www.w3.org/2000/svg" xmlns:xlink="http://www.w3.org/1999/xlink" x="0px" y="0px"
	 viewBox="0 0 1366 768" style="enable-background:new 0 0 1366 768;" xml:space="preserve">
<style type="text/css">
	.st0{fill:#3D52A3;}
	.st1{fill:#F4D660;}
	.st2{fill:#CFBCC6;}
</style>
<g id="XMLID_4_">
	<g id="XMLID_70_">
		<path id="XMLID_113_" class="st0" d="M684,769c-226.1,0-452.3,0-678.4,0.1c-3.5,0-4.7-0.4-4.7-4.5C1,511.5,1,258.3,0.9,5.2
			c0-3.7,0.9-4.3,4.4-4.3C457.7,1,910.2,1,1362.6,0.9c3.3,0,4.5,0.3,4.5,4.2c-0.1,253.3-0.1,506.6,0,759.9c0,3.5-0.8,4-4.1,4
			C1136.7,769,910.3,769,684,769z M911.1,158.2c-3.4,1.3-5.9,3.7-8.1,6.5c-6.8,6-13.6,12-20.4,17.9c-24.2,20.9-48.8,41.5-72.6,62.9
			c-15.2,13.6-30.8,26.7-45.8,40.5c-10.2,9.3-20.8,18.1-31.2,27.2c-2.4,2.1-3.9,4.8-4.1,8.2c-0.3,7.1,3.6,14.1,10,16.9
			c6.8,2.9,14.2,2.2,19.4-3.3c7.7-8.1,15.3-16.3,22.3-25c13.3-16.6,27.7-32.2,41.4-48.5c7.2-8.6,15.2-16.7,22.2-25.3
			c13.5-16.6,28.2-32.1,41.6-48.7c5.6-6.9,11.5-13.5,17.3-20.2C906.9,164.9,908.8,161.3,911.1,158.2c0-0.2,0-0.3,0-0.4
			C911.2,157.9,911.1,158.1,911.1,158.2z M457.2,159.8l-0.2,0L457.2,159.8c1.7,5.2,6,8.3,9.7,11.9c6.3,9,14.1,16.6,21.2,24.9
			c14.3,16.7,29.1,33.1,43.5,49.7c8.3,9.5,16.8,19,25.1,28.5c18.2,20.7,36.3,41.4,54.3,62.1c4.1,4.7,9.1,6.3,15,4.4
			c13-4.1,18.2-19.5,6.5-30.2c-8-7.4-16.4-14.5-24.7-21.6c-28.2-24.3-56.5-48.5-84.8-72.8c-17.8-15.3-35.6-30.6-53.4-46
			C465.5,167.2,461.3,163.5,457.2,159.8z M773.3,372.1c-6.1-2.3-10.4-1.2-14.4,3.3c-3.6,4.2-4.3,9-4,14.3
			c0.4,7.8,6.2,13.7,13.8,13.3c18.3-1,36.6-2.6,54.9-3.7c19.8-1.2,39.6-2.8,59.3-4c15.8-1,31.6-2,47.4-3.2c19-1.4,38-2.2,57-3.2
			c3.7,0,7.6,1.2,11.4-1.6c-5.9-2.3-11.6-1-17.3-1.2c-3.5-2.1-7.5-0.7-11.2-1.2c-5.6-1.4-11.3-1-17-0.9c-4.2-2.2-8.7-0.6-13.1-1.1
			c-6.3-1.2-12.6-1.1-19-0.8c-3.8-1.5-7.7-1.2-11.6-1.2c-6-1.4-12.2-1-18.3-0.9c-3.5-2.1-7.3-0.6-10.9-1.1c-5.7-1.2-11.5-1-17.2-0.9
			c-1.7-1.6-3.8-0.9-5.7-1c-7.6-0.4-15.2-0.6-22.8-1.1c-14.9-0.9-29.7-2-44.6-3C784.5,371.9,778.9,371.9,773.3,372.1z M692.1,186.9
			c-0.5-5.2,0.7-10.6-1-15.8c-0.8-13.8-1.5-27.6-2.3-41.4c0-0.6-0.5-1.2-0.7-1.8c-0.4-5.5,0.7-11.2-1-16.6
			c-0.7-11.2-1.4-22.4-2-33.6c-0.2-4.3,0-8.6,0-12.8c-0.6,0-1.1,0.1-1.7,0.1c-0.4,10.5-1.5,21-2.1,31.5c-0.9,15.5-2,31-3.1,46.5
			c-1.3,19-2.2,38-3.2,57c-1.2,6.4-2.5,12.8-1.8,19.3c0.4,7.8-0.9,15.6-1.4,23.3c-0.3,5.2-0.4,10.5-0.8,15.8
			c-1,13.8-2.2,27.6-2.8,41.4c-0.3,6.9,6.5,13.1,12.7,14c10.8,1.7,20.4-6.5,19.1-18.5c-1.6-14.7-2.5-29.5-3-44.3
			c0-1.3-0.4-2.6-0.7-3.9c-0.7-5.5,0.5-11.2-1.2-16.6c-0.6-4,1-8.2-1.2-12c0.2-6.3,0.6-12.6-0.8-18.8
			C692.6,195.5,693.7,191.1,692.1,186.9z M485.7,378.9c-4.3,0.5-8.8-1-12.9,1.1c-5.7,0-11.4-0.4-17.1,0.9
			c-6.9,0.1-13.8,1.4-20.6,1.6c-17.2,0.6-34.2,2.3-51.4,2.6c-7.3,0.8-14.7,0.8-21.5,2.4c4,2.2,8.7,1.6,13.3,1.1
			c16.3,0.8,32.6,2.2,48.9,3.2c19.3,1.1,38.5,3.2,57.9,3.3c4.4,0.5,8.6,2.7,13.3,1.8c15.6-0.3,31,2.4,46.6,2.5
			c4.2,0,8.6,0.4,12.8,0.8c14.6,1.3,29.2,2.4,43.9,3.1c5.8,0.3,13.7-8.1,14.4-13.9c1.3-9.8-8.8-20.7-19.4-18.2c-6,0.6-12,1.2-18,1.8
			c-6.6,0-13.1,0.8-19.7,1.3c-17.4,1.4-34.9,2-52.4,2.9C497.8,378.8,491.6,377.5,485.7,378.9z M691.1,598.6c2-4.6-0.2-9.6,1.7-14.2
			c0.1-5,0.2-10,0.2-15c1.6-5.9,0.9-11.9,0.8-17.9c2.2-3.8,0.6-8.1,1.2-12.1c1.7-5.4,0.4-11.1,1.2-16.6c0.6-9.5,1.1-19.1,1.8-28.6
			c0.4-5.6,0.3-11.3,1.3-16.7c2.5-13.2-3.1-20.4-16.5-20.5c-9.2-0.1-14.8,5.7-14.9,15c0,4,0.8,7.9,0.8,11.8c0.3,13.6,2.5,27,3,40.5
			c0.7,16.2,2.1,32.3,3,48.5c1.1,19.6,2.5,39.2,4,58.8c1.4,17.6,1.8,35.3,3.3,52.9c0.5,6.8,0.6,13.6,1.3,20.6
			c1.9-0.9,1.3-2.3,1.3-3.3c0.7-15.7,2.3-31.3,3-46.9C688.7,636.1,690.5,617.4,691.1,598.6z M903.3,602.9
			c-15.4-17.7-30.8-35.5-46.3-53.2c-30.7-35.2-61.4-70.5-92.1-105.7c-5.2-6-10.1-12.1-19.8-11.3c-8.3,0.7-12.2,4.9-15.6,12
			c-2,4.3,0.7,11.7,5.4,15.8c4.6,4,9.3,7.9,13.9,11.9c20.7,17.9,41.5,35.8,62.2,53.8c12.1,10.6,24.3,21.1,36.4,31.7
			c12.7,11,25.5,21.8,38.2,32.9c5.7,4.9,11.6,9.6,17.4,14.4c1.3,2.6,3.4,4.3,6.7,6.1C908.2,607.2,905.7,605.1,903.3,602.9z
			 M674.2,445.1c6.4,3.1,12.8,2,19.2,0c10.1-0.5,19.1-4.8,26.3-10.8c21.1-17.6,29.5-42.2,19.1-68.7c-7.8-19.7-22.9-32.4-43.4-36.2
			c-18.7-3.5-36.4,0.6-51,14.1c-11.6,10.7-18.1,23.8-19.3,39.5c-1.2,15.2,3.2,29,12.5,40.8C646.8,435.6,659,443.1,674.2,445.1z
			 M462.1,606.1c0.2,0.2,0.4,0.5,0.6,0.7c1.2-0.7,2.5-1.3,3.5-2.2c8.6-7.8,17.6-15,26.3-22.6c15.8-13.9,31.8-27.7,47.8-41.4
			c8.6-7.3,16.9-14.8,25.4-22.1c13.8-12,27.7-23.8,41.6-35.8c9.2-8,18.9-15.6,27.4-24.3c6.8-6.9,5.8-13.7-0.9-20.9
			c-6.3-6.8-16-6.9-21.8-0.9c-3.6,3.7-7.4,7.2-10.7,11.2c-16.5,20.3-34.5,39.2-51.7,58.8c-8,9.1-16.3,17.9-24.3,27
			c-19.2,22.1-38.8,43.9-58.2,65.9C465.4,601.7,463.8,604,462.1,606.1z M949.2,497c-2.5-0.8-3.8-3.2-6.2-4.4
			c-18.3-9.3-36.5-18.9-54.7-28.4c-31.4-16.4-62.7-32.8-94.1-49c-2.6-1.3-5.1-2.6-7.6-4c-7.3-4.2-11.9-3.1-19.6,4.1
			c-7.4,7-4.9,22.6,4.5,26.7c2.1,0.9,4.4,1.4,6.6,2c11.8,3.2,23.1,8.1,34.9,11.2c9.7,2.5,19.1,5.9,28.5,9.2
			c8.6,2.9,17.3,5.5,25.9,8.2c7.9,2.5,15.9,5,23.9,7.4c11.5,3.4,23,6.8,34,11.3c3.3,1.3,6.5,1,9.6,2.4
			C939.3,495.7,944,497.2,949.2,497z M795.8,658.7c1.3-3.4-0.4-6.2-1.3-8.9c-4.9-14-8.9-28.2-13.5-42.2c-3-9.3-6-18.7-9-28
			c-4.3-13.4-8.6-26.8-12.9-40.1c-3.7-11.6-7.4-23.3-11-34.9c-3.1-9.8-6.1-19.6-9.2-29.4c-0.7-2.4-2.1-4.3-4.1-6
			c-4.4-3.6-9.6-1.5-14.4-2.1c-7.3-1-17.9,13.4-13.2,22c10.1,18.3,19.6,36.9,29.3,55.5c7.3,14,14.4,28.1,21.7,42.1
			C770.8,610.6,783.3,634.7,795.8,658.7z M950.4,275c-5.1-0.3-8.8,1.8-12.7,3c-11.5,3.5-23,7.4-34.5,11.1c-9.4,3-19,5.3-28.3,8.7
			c-9.2,3.4-18.6,6.1-27.8,9.2c-11.4,3.9-23,7.3-34.5,10.8c-10.3,3.2-20.7,5.9-30.8,9.6c-4.2,1.5-9.4,1.9-12.5,5.7
			c-5.3,6.7-7.2,15.2,1.2,24.2c4.9,5.3,10.9,7.6,15.4,5.1c24-13,48.5-25.3,72.8-37.8c25.4-13,50.8-26.3,76-39.8
			C939.9,282.1,946,280.6,950.4,275z M415.7,497.8c5.1-0.1,9.5-1.7,13.7-3.2c15.9-5.7,32.1-10.2,48.1-15.5
			c11.3-3.7,22.6-7.3,34-10.6c13.3-3.9,26.3-9.3,39.6-13c14.1-4,27.9-9.1,42.1-13c3.9-1.1,6.6-3.8,8-8.4c2-6.7-0.8-12-3.7-17
			c-5.5-9.1-9.9-10-19.2-5.2c-1.9,1-3.8,2.2-5.7,3.2c-19.5,10.1-39.2,20-58.6,30.2c-10.8,5.6-21.9,10.7-32.5,16.6
			c-18.7,10.2-37.9,19.5-56.6,29.7C421.8,493.1,417.7,493.7,415.7,497.8z M573.9,119.2c-1.3,2-1.4,4.1-0.7,5.5
			c2,4.1,2.9,8.5,4.3,12.8c5.7,17.6,11.7,35.1,17.3,52.8c5.7,17.8,10.9,35.8,16.7,53.6c6,18.1,12.1,36.3,17.7,54.5
			c1.6,5.2,4.7,9.2,12,8.9c4.8-0.2,8.8-2.1,12.9-4.1c5.9-3,9.1-11.9,6.2-17.6c-3.3-6.5-6.8-13-10.2-19.5
			c-15-28.9-30.1-57.7-45.1-86.6C594.6,159.5,584.4,139.5,573.9,119.2z M794.2,119.2c-3.4,6.2-6.9,12.3-10.2,18.5
			c-10,19.1-19.8,38.3-29.7,57.5c-15,28.9-30.1,57.7-45,86.6c-2.5,4.8-5.3,9.7-1.4,15.5c4.9,7.3,11.9,9.6,20,9.9
			c5.1,0.1,8.9-3.3,10.1-8.3c0.3-1.4,0.8-2.8,1.3-4.2c3.9-12.1,7.8-24.1,11.8-36.2c5-15.3,10-30.6,15-46
			c4.3-13.2,8.6-26.5,12.8-39.7c3.2-9.8,6.4-19.6,9.4-29.5C790.7,135.5,793.9,127.9,794.2,119.2z M414.8,277.8
			c12.5,6.2,24.2,11.8,35.7,17.6c29.5,14.9,58.9,30,88.4,45c14.4,7.3,28.8,14.6,43.2,22c4.7,2.4,9.5,1.4,13-1.9
			c4.3-4,6.4-9.5,6.7-14.9c0.2-3.9,0.1-8.7-5.7-11.1c-4.3-1.8-8.6-3.3-12.9-4.8c-12.8-4.4-25.7-8.6-38.6-12.7
			c-11.9-3.8-23.9-7.3-35.7-11.1c-15.1-4.9-30.1-10-45.1-14.9c-11.8-3.8-23.6-7.4-35.3-11.3C424.4,278.5,420.5,275.6,414.8,277.8z
			 M573.7,650.4c3.1-0.7,4.2-2.7,4.8-4c6.9-15.1,15.1-29.7,22.4-44.6c12.7-26.3,26.8-51.9,39.3-78.3c5.6-12,12.4-23.4,18.5-35.1
			c4.7-9-0.2-15.1-6.4-18.1c-1.6-0.8-3.4-1.3-5-2c-7.5-3.3-15.9-0.5-18.2,8.7c-0.8,3.2-1.7,6.3-2.8,9.4
			c-4.4,13.8-8.9,27.6-13.4,41.3c-3.5,11-7,22-10.5,33c-3.8,11.8-7.6,23.5-11.5,35.3c-3.2,9.7-6.5,19.3-9.6,28.9
			C578.8,633.1,576.4,641.4,573.7,650.4z"/>
		<path id="XMLID_112_" class="st1" d="M674.2,445.1c-15.2-2-27.4-9.5-36.7-21.3c-9.3-11.8-13.6-25.6-12.5-40.8
			c1.2-15.7,7.7-28.8,19.3-39.5c14.6-13.5,32.4-17.6,51-14.1c20.5,3.9,35.6,16.5,43.4,36.2c10.4,26.5,2,51.1-19.1,68.7
			c-7.2,6-16.2,10.4-26.3,10.8C687,445.1,680.6,445.1,674.2,445.1z"/>
		<path id="XMLID_111_" class="st1" d="M903.3,167c-5.8,6.7-11.7,13.3-17.3,20.2c-13.4,16.6-28.2,32.1-41.6,48.7
			c-7,8.7-15,16.8-22.2,25.3c-13.7,16.3-28.1,31.9-41.4,48.5c-7,8.7-14.6,16.9-22.3,25c-5.2,5.5-12.6,6.2-19.4,3.3
			c-6.4-2.7-10.4-9.7-10-16.9c0.2-3.4,1.7-6.1,4.1-8.2c10.3-9.1,21-17.9,31.2-27.2c15-13.8,30.6-26.9,45.8-40.5
			c23.8-21.4,48.4-42,72.6-62.9c6.8-5.9,13.6-11.9,20.4-17.9C903.1,165.5,903.2,166.2,903.3,167z"/>
		<path id="XMLID_110_" class="st1" d="M469.7,170.8c17.8,15.3,35.6,30.7,53.4,46c28.2,24.3,56.5,48.5,84.8,72.8
			c8.3,7.1,16.7,14.2,24.7,21.6c11.6,10.7,6.4,26.2-6.5,30.2c-5.9,1.8-10.9,0.3-15-4.4c-18.1-20.8-36.2-41.5-54.3-62.1
			c-8.4-9.5-16.8-19-25.1-28.5c-14.4-16.6-29.2-33-43.5-49.7c-7.1-8.3-14.9-15.9-21.2-24.9C467.5,170.5,468.6,170.8,469.7,170.8z"/>
		<path id="XMLID_109_" class="st1" d="M903,605.2c-5.8-4.8-11.7-9.5-17.4-14.4c-12.7-11-25.5-21.8-38.2-32.9
			c-12.1-10.6-24.3-21.1-36.4-31.7c-20.7-18-41.4-35.9-62.2-53.8c-4.6-4-9.3-7.9-13.9-11.9c-4.7-4-7.4-11.4-5.4-15.8
			c3.4-7.1,7.3-11.4,15.6-12c9.7-0.8,14.6,5.3,19.8,11.3c30.7,35.2,61.4,70.4,92.1,105.7c15.4,17.7,30.9,35.5,46.3,53.2
			C903.2,603.7,903.1,604.4,903,605.2z"/>
		<path id="XMLID_108_" class="st1" d="M462.1,606.1c1.7-2.2,3.3-4.4,5.1-6.5c19.5-21.9,39-43.7,58.2-65.9
			c7.9-9.1,16.3-17.9,24.3-27c17.2-19.6,35.2-38.6,51.7-58.8c3.2-4,7.1-7.5,10.7-11.2c5.8-6,15.5-5.9,21.8,0.9
			c6.7,7.2,7.6,13.9,0.9,20.9c-8.5,8.7-18.2,16.3-27.4,24.3c-13.8,12-27.7,23.8-41.6,35.8c-8.5,7.3-16.9,14.8-25.4,22.1
			c-16,13.7-32,27.5-47.8,41.4c-8.7,7.6-17.7,14.8-26.3,22.6c-1,0.9-2.3,1.4-3.5,2.2C462.5,606.6,462.3,606.4,462.1,606.1z"/>
		<path id="XMLID_107_" class="st1" d="M695.1,539.5c-0.6,4,1,8.2-1.2,12.1c-1.4,5.9-0.9,11.9-0.8,17.9c-0.1,5-0.2,10-0.2,15
			c-0.6,0.2-1.1-2.5-1.4-0.3c-0.5,4.8-0.3,9.7-0.4,14.6c-0.6,18.8-2.4,37.5-3.3,56.3c-0.7,15.6-2.3,31.3-3,46.9c0,1,0.6,2.4-1.3,3.3
			c-0.7-7-0.8-13.9-1.3-20.6c-1.4-17.6-1.9-35.3-3.3-52.9c-1.5-19.6-2.9-39.2-4-58.8c-0.9-16.2-2.3-32.3-3-48.5
			c-0.6-13.5-2.8-26.9-3-40.5c-0.1-3.9-0.9-7.8-0.8-11.8c0.1-9.3,5.7-15,14.9-15c13.4,0.1,19,7.3,16.5,20.5
			c-1,5.5-0.9,11.1-1.3,16.7c-0.6,9.5-1.2,19.1-1.8,28.6c-0.2-0.2-0.4-0.3-0.7-0.5c0,0-0.2,0.2-0.2,0.3
			C694.7,528.3,694.9,533.9,695.1,539.5z"/>
		<path id="XMLID_106_" class="st1" d="M482.2,395.1c-19.4,0-38.6-2.2-57.9-3.3c-16.3-0.9-32.6-2.4-48.8-3.2
			c1.9-1.4,4.1-1.7,6.3-1.9c0.9-0.1,2.5,0.4,1.9-1.6c17.2-0.3,34.2-2,51.4-2.6c6.8-0.2,13.7-1.6,20.6-1.6c5.7-0.1,11.5,1,17.1-0.9
			c4.2-2.1,8.6-0.6,12.9-1.1c5.1,0,10.2,0,15.4-0.1c1,0,3,0.7,2.6-1.7c17.5-0.9,35-1.6,52.4-2.9c6.6-0.5,13.1-1.3,19.7-1.3
			c5.1,0,10.2,0,15.4-0.1c1,0,3,0.8,2.7-1.7c10.6-2.5,20.6,8.3,19.4,18.2c-0.7,5.8-8.6,14.1-14.4,13.9c-14.7-0.7-29.3-1.8-43.9-3.1
			c-4.3-0.4-8.6-0.7-12.8-0.8c-15.6-0.1-31-2.8-46.5-2.5c0.6-0.8,1.2-1.4,1.7-1.3C492.6,395.2,487.4,394.5,482.2,395.1z"/>
		<path id="XMLID_105_" class="st1" d="M693.9,218.5c2.2,3.8,0.6,8,1.2,12c0,4.9-0.1,9.9,0.1,14.9c0,0.5-1,2.3,1.1,1.8
			c0.2,1.3,0.6,2.6,0.7,3.9c0.5,14.8,1.5,29.6,3,44.3c1.3,12-8.3,20.2-19.1,18.5c-6.3-1-13-7.2-12.7-14c0.6-13.8,1.8-27.6,2.8-41.4
			c0.4-5.3,0.5-10.5,0.8-15.8c0.4-7.8,1.7-15.5,1.4-23.3c1.2,0.1,1.3-0.6,1.4-1.5c0.3-5.9,1-11.9,0.4-17.8c1-19,1.9-38,3.2-57
			c1.1-15.5,2.2-31,3.1-46.5c0.6-10.5,1.7-21,2.1-31.5c0.6,0,1.1-0.1,1.7-0.1c0,4.3-0.2,8.6,0,12.8c0.6,11.2,1.3,22.4,2,33.6
			c0.1,5.8,0.2,11.6,0.3,17.4c0.2-0.1,0.4-0.2,0.5-0.3c0.1-0.1,0.1-0.3,0.1-0.5c0.2,0.6,0.7,1.2,0.7,1.8c0.8,13.8,1.5,27.6,2.3,41.4
			c0.1,5.3-1.1,10.6,1,15.8c1.6,4.2,0.5,8.5,0.9,12.8C692.9,206,692.5,212.3,693.9,218.5z"/>
		<path id="XMLID_104_" class="st1" d="M790.1,372.9c14.9,1,29.7,2.1,44.6,3c7.6,0.5,15.2,0.7,22.8,1.1c1.9,0.1,4-0.6,5.7,1
			c-0.1,0.2-0.3,0.4-0.4,0.5c0.2,0,0.3,0.1,0.5,0.1c5.7,0.1,11.5,0.2,17.2,0.2c3.6,0.5,7.5-1,10.9,1.1c6,1.5,12.2,0.9,18.3,0.9
			c3.9,0,7.8-0.3,11.6,1.2c6.3,1.5,12.6,0.8,19,0.8c4.4,0.5,8.9-1,13.1,1.1c5.6,1.8,11.3,0.8,17,0.9c3.7,0.5,7.6-1,11.2,1.2
			c1.8,1.3,4.7,0.2,5.9,2.8c-19,1-38,1.8-57,3.2c-15.8,1.2-31.6,2.2-47.4,3.2c-19.8,1.2-39.5,2.8-59.3,4
			c-18.3,1.1-36.6,2.7-54.9,3.7c-7.6,0.4-13.4-5.5-13.8-13.3c-0.3-5.3,0.4-10.1,4-14.3c3.9-4.6,8.2-5.6,14.4-3.3
			C778.8,373.9,784.5,372.8,790.1,372.9z"/>
		<path id="XMLID_103_" class="st1" d="M949.2,497c-5.2,0.1-9.9-1.3-14.4-3.4c-3.1-1.4-6.3-1.1-9.6-2.4c-11-4.5-22.6-7.9-34-11.3
			c-8-2.4-16-4.9-23.9-7.4c-8.6-2.8-17.3-5.3-25.9-8.2c-9.4-3.2-18.9-6.7-28.5-9.2c-11.9-3.1-23.1-7.9-34.9-11.2
			c-2.2-0.6-4.5-1.1-6.6-2c-9.3-4.1-11.9-19.7-4.5-26.7c7.6-7.2,12.3-8.3,19.6-4.1c2.5,1.4,5.1,2.7,7.6,4
			c31.4,16.2,62.8,32.6,94.1,49c18.2,9.5,36.4,19.1,54.7,28.4C945.4,493.8,946.7,496.2,949.2,497z"/>
		<path id="XMLID_102_" class="st1" d="M795.8,658.7c-12.5-24.1-25-48.1-37.4-72.2c-7.3-14-14.4-28.1-21.7-42.1
			c-9.7-18.5-19.3-37.1-29.3-55.5c-4.7-8.6,5.9-23,13.2-22c4.8,0.7,9.9-1.5,14.4,2.1c2,1.6,3.3,3.6,4.1,6c3.1,9.8,6.1,19.6,9.2,29.4
			c3.6,11.6,7.3,23.3,11,34.9c4.3,13.4,8.6,26.8,12.9,40.1c3,9.3,6,18.7,9,28c4.5,14.1,8.6,28.3,13.5,42.2
			C795.4,652.5,797.1,655.4,795.8,658.7z"/>
		<path id="XMLID_101_" class="st1" d="M950.4,275c-4.4,5.6-10.5,7.1-15.6,9.9c-25.2,13.5-50.6,26.7-76,39.8
			c-24.3,12.5-48.7,24.8-72.8,37.8c-4.5,2.4-10.5,0.2-15.4-5.1c-8.4-9-6.5-17.6-1.2-24.2c3.1-3.9,8.2-4.2,12.5-5.7
			c10.1-3.7,20.5-6.4,30.8-9.6c11.5-3.6,23.1-7,34.5-10.8c9.2-3.1,18.6-5.8,27.8-9.2c9.2-3.4,18.9-5.7,28.3-8.7
			c11.5-3.6,23-7.5,34.5-11.1C941.6,276.7,945.3,274.6,950.4,275z"/>
		<path id="XMLID_100_" class="st1" d="M415.7,497.8c2-4.1,6.1-4.7,9.2-6.4c18.7-10.2,37.9-19.5,56.6-29.7
			c10.6-5.8,21.7-10.9,32.5-16.6c19.5-10.2,39.1-20.1,58.6-30.2c1.9-1,3.8-2.2,5.7-3.2c9.4-4.8,13.8-3.9,19.2,5.2
			c3,5,5.7,10.3,3.7,17c-1.4,4.6-4.1,7.3-8,8.4c-14.2,3.9-27.9,9-42.1,13c-13.4,3.8-26.3,9.1-39.6,13c-11.4,3.3-22.7,6.9-34,10.6
			c-16,5.3-32.2,9.8-48.1,15.5C425.2,496,420.8,497.7,415.7,497.8z"/>
		<path id="XMLID_99_" class="st1" d="M573.9,119.2c10.5,20.3,20.8,40.3,31.1,60.2c15,28.9,30.1,57.7,45.1,86.6
			c3.4,6.5,6.8,13,10.2,19.5c2.9,5.7-0.3,14.7-6.2,17.6c-4.1,2.1-8.2,3.9-12.9,4.1c-7.2,0.3-10.4-3.7-12-8.9
			c-5.6-18.3-11.7-36.4-17.7-54.5c-5.9-17.8-11-35.8-16.7-53.6c-5.6-17.6-11.6-35.2-17.3-52.8c-1.4-4.3-2.3-8.7-4.3-12.8
			C572.5,123.3,572.5,121.2,573.9,119.2z"/>
		<path id="XMLID_98_" class="st1" d="M794.2,119.2c-0.3,8.7-3.6,16.3-5.9,24.1c-3,9.9-6.2,19.7-9.4,29.5
			c-4.3,13.2-8.5,26.5-12.8,39.7c-5,15.3-10,30.6-15,46c-3.9,12-7.8,24.1-11.8,36.2c-0.5,1.4-1,2.8-1.3,4.2c-1.2,5-5,8.4-10.1,8.3
			c-8.1-0.2-15.1-2.6-20-9.9c-3.9-5.8-1.1-10.7,1.4-15.5c14.9-28.9,30-57.7,45-86.6c9.9-19.1,19.7-38.3,29.7-57.5
			C787.3,131.5,790.8,125.4,794.2,119.2z"/>
		<path id="XMLID_97_" class="st1" d="M414.8,277.8c5.7-2.2,9.6,0.6,13.4,1.9c11.7,3.9,23.6,7.5,35.3,11.3
			c15.1,4.9,30.1,10,45.1,14.9c11.9,3.8,23.8,7.3,35.7,11.1c12.9,4.1,25.8,8.2,38.6,12.7c4.3,1.5,8.7,3,12.9,4.8
			c5.8,2.5,5.9,7.2,5.7,11.1c-0.3,5.4-2.4,10.8-6.7,14.9c-3.5,3.3-8.2,4.3-13,1.9c-14.4-7.4-28.8-14.7-43.2-22
			c-29.4-15-58.9-30.1-88.4-45C439,289.6,427.3,284,414.8,277.8z"/>
		<path id="XMLID_96_" class="st1" d="M573.7,650.4c2.7-9,5.1-17.3,7.7-25.5c3.1-9.7,6.4-19.3,9.6-28.9c3.9-11.7,7.7-23.5,11.5-35.3
			c3.5-11,7-22,10.5-33c4.4-13.8,8.9-27.6,13.4-41.3c1-3.1,2-6.3,2.8-9.4c2.3-9.2,10.7-12,18.2-8.7c1.7,0.7,3.4,1.2,5,2
			c6.2,3.1,11.1,9.2,6.4,18.1c-6.1,11.7-12.9,23.1-18.5,35.1c-12.4,26.4-26.6,52-39.3,78.3c-7.2,15-15.4,29.5-22.4,44.6
			C577.9,647.7,576.8,649.6,573.7,650.4z"/>
		<path id="XMLID_95_" class="st2" d="M383.7,385.2c0.7,2-1,1.5-1.9,1.6c-2.3,0.1-4.4,0.5-6.3,1.9c-4.7,0.5-9.3,1.1-13.3-1.1
			C369,385.9,376.4,386,383.7,385.2z"/>
		<path id="XMLID_94_" class="st2" d="M469.7,170.8c-1,0-2.2-0.4-2.8,0.9c-3.7-3.5-8-6.6-9.6-11.8l-0.1,0
			C461.3,163.5,465.5,167.2,469.7,170.8z"/>
		<path id="XMLID_93_" class="st2" d="M987.4,388.9c-1.2-2.6-4.1-1.5-5.9-2.8c5.7,0.1,11.5-1.1,17.3,1.2
			C995,390,991.1,388.9,987.4,388.9z"/>
		<path id="XMLID_92_" class="st2" d="M674.9,200c0.6,6-0.1,11.9-0.4,17.8c0,0.9-0.2,1.7-1.4,1.5C672.3,212.8,673.7,206.4,674.9,200
			z"/>
		<path id="XMLID_91_" class="st2" d="M674.2,445.1c6.4,0,12.8,0,19.2,0C687,447.1,680.6,448.2,674.2,445.1z"/>
		<path id="XMLID_90_" class="st2" d="M903.3,167c-0.1-0.8-0.2-1.6-0.3-2.3c2.2-2.7,4.7-5.2,8.1-6.5l-0.1-0.1
			C908.8,161.3,906.9,164.9,903.3,167z"/>
		<path id="XMLID_89_" class="st2" d="M482.2,395.1c5.2-0.6,10.4,0.1,14.9,0.5c-0.5-0.1-1.1,0.5-1.7,1.3
			C490.9,397.8,486.7,395.5,482.2,395.1z"/>
		<path id="XMLID_88_" class="st2" d="M903,605.2c0.1-0.8,0.2-1.5,0.3-2.3c2.4,2.2,4.9,4.2,6.4,8.4
			C906.3,609.6,904.3,607.8,903,605.2z"/>
		<path id="XMLID_87_" class="st2" d="M593.8,371.1c0.3,2.5-1.6,1.6-2.7,1.7c-5.1,0.1-10.3,0.1-15.4,0.1
			C581.8,372.3,587.8,371.7,593.8,371.1z"/>
		<path id="XMLID_86_" class="st2" d="M503.7,377.1c0.4,2.5-1.6,1.7-2.6,1.7c-5.1,0.1-10.2,0.1-15.4,0.1
			C491.6,377.5,497.8,378.8,503.7,377.1z"/>
		<path id="XMLID_85_" class="st2" d="M688.1,128c0,0.2,0,0.4-0.1,0.5c-0.1,0.1-0.4,0.2-0.5,0.3c-0.1-5.8-0.2-11.6-0.3-17.4
			C688.8,116.8,687.7,122.5,688.1,128z"/>
		<path id="XMLID_84_" class="st2" d="M696.3,247.1c-2.1,0.5-1.1-1.3-1.1-1.8c-0.1-5-0.1-9.9-0.1-14.9
			C696.7,236,695.5,241.6,696.3,247.1z"/>
		<path id="XMLID_83_" class="st2" d="M695.1,539.5c-0.2-5.6-0.4-11.2,0.3-16.8c0-0.1,0.2-0.3,0.2-0.3c0.2,0.1,0.5,0.3,0.7,0.5
			C695.5,528.4,696.7,534,695.1,539.5z"/>
		<path id="XMLID_82_" class="st2" d="M692.1,186.9c-2.1-5.1-0.9-10.5-1-15.8C692.8,176.3,691.7,181.7,692.1,186.9z"/>
		<path id="XMLID_81_" class="st2" d="M693.9,218.5c-1.4-6.2-0.9-12.5-0.8-18.8C694.5,205.9,694.1,212.2,693.9,218.5z"/>
		<path id="XMLID_80_" class="st2" d="M880.4,379c-5.7-0.1-11.5-0.2-17.2-0.2c-0.2,0-0.3-0.1-0.5-0.1c0.1-0.2,0.3-0.4,0.4-0.5
			C869,378,874.7,377.7,880.4,379z"/>
		<path id="XMLID_79_" class="st2" d="M940.2,382.9c-6.3,0-12.7,0.7-19-0.8C927.5,381.9,933.9,381.7,940.2,382.9z"/>
		<path id="XMLID_78_" class="st2" d="M691.1,598.6c0.1-4.9-0.1-9.8,0.4-14.6c0.2-2.1,0.8,0.5,1.4,0.3
			C690.9,589,693.1,594.1,691.1,598.6z"/>
		<path id="XMLID_77_" class="st2" d="M909.6,380.9c-6.1,0.1-12.2,0.7-18.3-0.9C897.5,380,903.6,379.5,909.6,380.9z"/>
		<path id="XMLID_76_" class="st2" d="M693,569.5c-0.1-6-0.6-12,0.8-17.9C694,557.5,694.6,563.5,693,569.5z"/>
		<path id="XMLID_75_" class="st2" d="M472.8,380c-5.6,1.9-11.4,0.8-17.1,0.9C461.3,379.6,467,380,472.8,380z"/>
		<path id="XMLID_74_" class="st2" d="M970.3,384.9c-5.7-0.1-11.4,1-17-0.9C959,384,964.7,383.6,970.3,384.9z"/>
		<path id="XMLID_73_" class="st2" d="M790.1,372.9c-5.6-0.1-11.2,1-16.7-0.8C778.9,371.9,784.5,371.9,790.1,372.9z"/>
		<polygon id="XMLID_72_" class="st2" points="457.3,159.9 456.9,159.9 457.2,159.8 		"/>
		<path id="XMLID_71_" class="st2" d="M911.1,158.2c0-0.1,0-0.3,0-0.4C911.1,157.9,911.1,158,911.1,158.2
			C911.1,158.1,911.1,158.2,911.1,158.2z"/>
	</g>
</g>
</svg>
