<?xml version="1.0" encoding="utf-8"?>
<svg viewBox="0 0 1366 768" xmlns="http://www.w3.org/2000/svg">
  <rect x="-2.388" y="-1.759" width="1368.514" height="769.861" style="fill: rgb(61, 82, 163);"/>
  <g id="layer1" transform="matrix(1.061793, 0, 0, 1.061793, 259.950684, -107.396896)" style="">
    <path transform="matrix(0.94654996,0,0,0.96586736,150.89757,-758.4216)" d="m 108.96875,55.65625 c -20.351336,0 -36.625,16.004144 -36.625,35.78125 0,19.77711 16.273663,35.78125 36.625,35.78125 20.35134,0 36.625,-16.00414 36.625,-35.78125 0,-19.777107 -16.27366,-35.78125 -36.625,-35.78125 z" id="path3158" style="fill:#fee05b;fill-opacity:1;stroke:none;display:inline"/>
    <path transform="matrix(0.94654996,0,0,0.96586736,150.89757,-758.4216)" d="m 108.96875,63.375 c -16.263104,0 -28.90625,12.54423 -28.90625,28.0625 0,15.51827 12.643145,28.0625 28.90625,28.0625 16.26311,0 28.90625,-12.54422 28.90625,-28.0625 0,-15.518271 -12.64314,-28.0625 -28.90625,-28.0625 z" id="path3158-0" style="fill:#fee676;fill-opacity:1;stroke:none;display:inline"/>
    <path transform="matrix(0.94654996,0,0,0.96586736,150.89757,-758.4216)" d="m 108.96875,71.5 c -11.967788,0 -20.78125,8.893791 -20.78125,19.9375 0,11.04371 8.81346,19.9375 20.78125,19.9375 11.96779,0 20.78125,-8.89379 20.78125,-19.9375 C 129.75,80.39379 120.93654,71.5 108.96875,71.5 z" id="path3158-0-6" style="fill:#feea8a;fill-opacity:1;stroke:none;display:inline"/>
    <g id="g5360">
      <path id="path7034" d="m 385.28181,168.6878 -21.40625,215 0.0312,0 c -1.02511,8.43545 2.99715,17.02779 10.8125,21.375 10.25153,5.70231 23.10974,1.9268 28.75,-8.4375 l 0.0625,-0.125 c 2.35867,-4.3909 2.73986,-9.23996 2.25,-13.8125 l -20.5,-214 z" style="fill:#feda36;fill-opacity:1;fill-rule:nonzero;stroke:#aa8800"/>
      <path style="fill:#feda36;fill-opacity:1;fill-rule:nonzero;stroke:#aa8800" d="m 385.28181,741.92098 -21.40625,-215 0.0312,0 c -1.02511,-8.43545 2.99715,-17.02779 10.8125,-21.375 10.25153,-5.70231 23.10974,-1.9268 28.75,8.4375 l 0.0625,0.125 c 2.35867,4.3909 2.73986,9.23996 2.25,13.8125 l -20.5,214 z" id="path7550"/>
      <path style="fill:#feda36;fill-opacity:1;fill-rule:nonzero;stroke:#aa8800" d="m 671.47562,455.72717 -215,-21.40625 0,0.0312 c -8.43545,-1.02511 -17.02779,2.99715 -21.375,10.8125 -5.70231,10.25153 -1.9268,23.10974 8.4375,28.75 l 0.125,0.0625 c 4.3909,2.35867 9.23996,2.73986 13.8125,2.25 l 214,-20.5 z" id="path7558"/>
      <path id="path7560" d="m 98.24244,455.72717 215,-21.40625 0,0.0312 c 8.43545,-1.02511 17.02779,2.99715 21.375,10.8125 5.70231,10.25153 1.9268,23.10974 -8.4375,28.75 l -0.125,0.0625 c -4.3909,2.35867 -9.23996,2.73986 -13.8125,2.25 l -214,-20.5 z" style="fill:#feda36;fill-opacity:1;fill-rule:nonzero;stroke:#aa8800"/>
      <path style="fill:#feda36;fill-opacity:1;fill-rule:nonzero;stroke:#aa8800" d="m 182.48944,252.33691 136.89146,167.16446 0.0221,-0.0221 c 5.23991,6.68962 14.15978,9.92116 22.76,7.46882 11.28107,-3.21679 17.70351,-14.9786 14.36311,-26.29554 l -0.0442,-0.13258 c -1.437,-4.77267 -4.59626,-8.47102 -8.17593,-11.3579 L 182.48944,252.33691 z" id="path7574"/>
      <path id="path7576" d="m 587.82651,657.67397 -167.16446,-136.89145 0.0221,-0.0221 c -6.68962,-5.2399 -9.92116,-14.15977 -7.46882,-22.76 3.21679,-11.28106 14.9786,-17.7035 26.29554,-14.3631 l 0.13258,0.0442 c 4.77267,1.437 8.47102,4.59626 11.3579,8.17592 l 136.82516,165.81654 z" style="fill:#feda36;fill-opacity:1;fill-rule:nonzero;stroke:#aa8800"/>
      <path id="path7580" d="m 587.82651,252.9348 -167.16446,136.89145 0.0221,0.0221 c -6.68963,5.23991 -9.92116,14.15978 -7.46882,22.76 3.21678,11.28107 14.9786,17.70351 26.29553,14.36311 l 0.13259,-0.0442 c 4.77267,-1.437 8.47101,-4.59626 11.3579,-8.17592 L 587.82651,252.9348 z" style="fill:#feda36;fill-opacity:1;fill-rule:nonzero;stroke:#aa8800"/>
      <path style="fill:#feda36;fill-opacity:1;fill-rule:nonzero;stroke:#aa8800" d="m 182.48944,658.27187 136.89146,-167.16446 0.0221,0.0221 c 5.23991,-6.68962 14.15978,-9.92115 22.76,-7.46881 11.28107,3.21678 17.70351,14.9786 14.36311,26.29553 l -0.0442,0.13258 c -1.43699,4.77268 -4.59625,8.47102 -8.17592,11.35791 L 182.48944,658.27187 z" id="path7582"/>
      <path style="fill:#feda36;fill-opacity:1;fill-rule:nonzero;stroke:#aa8800" d="m 494.71816,190.5777 -78.86163,147.45096 0.0223,0.009 c -3.2266,5.73044 -2.88946,13.06501 1.41548,18.48445 5.64687,7.10877 15.95966,8.20904 23.05738,2.46317 l 0.0816,-0.0709 c 2.98493,-2.44339 4.69089,-5.799 5.69208,-9.21429 L 494.71816,190.5777 z" id="path7608"/>
      <path id="path7610" d="m 275.78134,719.77961 48.24008,-160.1057 0.0224,0.009 c 1.76019,-6.33645 7.17687,-11.29318 14.05175,-12.09241 9.01791,-1.04837 17.09874,5.45276 18.06938,14.53298 l 0.008,0.10788 c 0.38915,3.83778 -0.77151,7.41873 -2.47347,10.54443 l -77.91785,147.00358 z" style="fill:#feda36;fill-opacity:1;fill-rule:nonzero;stroke:#aa8800"/>
      <path id="path7614" d="m 649.22078,344.19986 -159.7897,49.27672 0.009,0.0223 c -6.3249,1.80123 -11.24642,7.24992 -12.00108,14.12984 -0.9899,9.02451 5.56346,17.06303 14.64979,17.97481 l 0.10792,0.007 c 3.84022,0.36428 7.41358,-0.81957 10.52818,-2.54175 L 649.2204,344.19982 z" style="fill:#feda36;fill-opacity:1;fill-rule:nonzero;stroke:#aa8800"/>
      <path style="fill:#feda36;fill-opacity:1;fill-rule:nonzero;stroke:#aa8800" d="m 121.27872,566.15748 146.93675,-79.81563 0.009,0.0223 c 5.7094,-3.26367 13.04601,-2.97407 18.49323,1.29565 7.14522,5.60067 8.31231,15.90612 2.61256,23.04093 l -0.0704,0.0821 c -2.424,3.0007 -5.76847,4.72837 -9.17721,5.75168 l -158.80431,49.62296 z" id="path7616"/>
      <path style="fill:#feda36;fill-opacity:1;fill-rule:nonzero;stroke:#aa8800" d="m 649.08799,566.47279 -146.90252,-79.8786 -0.009,0.0223 c -5.70801,-3.26612 -13.04474,-2.97967 -18.49379,1.28772 -7.14762,5.59761 -8.31912,15.90256 -2.62243,23.03982 l 0.0704,0.0821 c 2.42271,3.00174 5.76645,4.73084 9.17475,5.75562 l 158.78302,49.69102 z" id="path7620"/>
      <path id="path7622" d="m 121.4115,343.88455 159.76856,49.34521 -0.009,0.0223 c 6.32413,1.80393 11.24332,7.25474 11.99503,14.13498 0.98602,9.02493 -5.57078,17.06064 -14.6575,17.96853 l -0.10793,0.007 c -3.84037,0.36262 -7.41322,-0.82276 -10.52709,-2.54627 L 121.4115,343.88455 z" style="fill:#feda36;fill-opacity:1;fill-rule:nonzero;stroke:#aa8800"/>
      <path id="path7626" d="m 495.17497,719.59018 -48.6391,-159.98494 -0.0223,0.009 c -1.77599,-6.33203 -7.20501,-11.27525 -14.08186,-12.05734 -9.02049,-1.02587 -17.08509,5.49538 -18.03309,14.57799 l -0.007,0.1079 c -0.37958,3.83873 0.79001,7.41678 2.49975,10.53823 l 78.28412,146.80887 z" style="fill:#feda36;fill-opacity:1;fill-rule:nonzero;stroke:#aa8800"/>
      <path style="fill:#feda36;fill-opacity:1;fill-rule:nonzero;stroke:#aa8800" d="m 275.32452,190.76716 79.22901,147.25388 -0.0223,0.009 c 3.24088,5.72237 2.92202,13.05776 -1.36939,18.48791 -5.62913,7.12283 -15.93915,8.24881 -23.05117,2.52066 l -0.0818,-0.0707 c -2.99101,-2.43594 -4.70533,-5.78729 -5.71504,-9.20008 L 275.32452,190.76716 z" id="path7628"/>
      <g transform="matrix(0.91755487,0,0,0.91755487,31.742193,37.522547)" id="g3132">
        <path style="fill:#feda36;stroke:#aa8800;stroke-width:0.16612825" id="path7634" d="m -30,517.36218 c 0,2.76143 -2.238576,5 -5,5 -2.761424,0 -5,-2.23857 -5,-5 0,-2.76142 2.238576,-5 5,-5 2.761424,0 5,2.23858 5,5 z" transform="matrix(6.5603117,0,0,6.5603117,614.6208,-2938.9357)"/>
        <g id="g5092" transform="matrix(1.2058454,-0.17262915,0.17194647,1.2010767,316.98593,-194.00221)" style="fill:#feda36;stroke:#aa8800;stroke-width:1.05656207">
          <g id="g5094" transform="matrix(0.74588098,0.54376358,-0.54376358,0.74588098,291.22885,146.55713)" style="fill:#feda36;stroke:#aa8800;stroke-width:0.97119661;stroke-linejoin:round">
            <path id="path5096" d="m -23.40625,512.45089 c -3.712711,0 -6.71875,3.09332 -6.71875,6.875 0,0.5072 0.05353,0.99298 0.15625,1.46875 l 0.125,0.5625 5.922878,19.40154 6.670872,-18.74529 0.25,-0.6875 c 0.221788,-0.60173 0.249092,-1.31611 0.3125,-2 0,-3.78168 -3.006039,-6.875 -6.71875,-6.875 z" style="font-size:medium;font-style:normal;font-variant:normal;font-weight:normal;font-stretch:normal;text-indent:0;text-align:start;text-decoration:none;line-height:normal;letter-spacing:normal;word-spacing:normal;text-transform:none;direction:ltr;block-progression:tb;writing-mode:lr-tb;text-anchor:start;color:#000000;fill:#feda36;fill-opacity:1;fill-rule:nonzero;stroke:#aa8800;stroke-width:0.97119661;stroke-linejoin:round;marker:none;visibility:visible;display:inline;overflow:visible;enable-background:accumulate;font-family:Bitstream Vera Sans;-inkscape-font-specification:Bitstream Vera Sans"/>
            <path style="font-size:medium;font-style:normal;font-variant:normal;font-weight:normal;font-stretch:normal;text-indent:0;text-align:start;text-decoration:none;line-height:normal;letter-spacing:normal;word-spacing:normal;text-transform:none;direction:ltr;block-progression:tb;writing-mode:lr-tb;text-anchor:start;color:#000000;fill:#feda36;fill-opacity:1;fill-rule:nonzero;stroke:#aa8800;stroke-width:0.97119661;stroke-linejoin:round;marker:none;visibility:visible;display:inline;overflow:visible;enable-background:accumulate;font-family:Bitstream Vera Sans;-inkscape-font-specification:Bitstream Vera Sans" d="m -23.40625,569.55357 c -3.712711,0 -6.71875,-3.09332 -6.71875,-6.875 0,-0.5072 0.05353,-0.99298 0.15625,-1.46875 l 0.125,-0.5625 5.9375,-19.75 6.65625,19.09375 0.25,0.6875 c 0.221788,0.60173 0.249092,1.31611 0.3125,2 0,3.78168 -3.006039,6.875 -6.71875,6.875 z" id="path5098"/>
          </g>
          <g id="g5100">
            <g id="g5102" transform="matrix(-0.29511797,0.87459857,-0.87459857,-0.29511797,445.84543,717.48348)" style="fill:#feda36;stroke:#aa8800;stroke-width:0.97119661;stroke-linejoin:round">
              <path id="path5104" d="m -23.40625,512.45089 c -3.712711,0 -6.71875,3.09332 -6.71875,6.875 0,0.5072 0.05353,0.99298 0.15625,1.46875 l 0.125,0.5625 6.089025,20.05659 6.504725,-19.40034 0.25,-0.6875 c 0.221788,-0.60173 0.249092,-1.31611 0.3125,-2 0,-3.78168 -3.006039,-6.875 -6.71875,-6.875 z" style="font-size:medium;font-style:normal;font-variant:normal;font-weight:normal;font-stretch:normal;text-indent:0;text-align:start;text-decoration:none;line-height:normal;letter-spacing:normal;word-spacing:normal;text-transform:none;direction:ltr;block-progression:tb;writing-mode:lr-tb;text-anchor:start;color:#000000;fill:#feda36;fill-opacity:1;fill-rule:nonzero;stroke:#aa8800;stroke-width:0.97119661;stroke-linejoin:round;marker:none;visibility:visible;display:inline;overflow:visible;enable-background:accumulate;font-family:Bitstream Vera Sans;-inkscape-font-specification:Bitstream Vera Sans"/>
              <path style="font-size:medium;font-style:normal;font-variant:normal;font-weight:normal;font-stretch:normal;text-indent:0;text-align:start;text-decoration:none;line-height:normal;letter-spacing:normal;word-spacing:normal;text-transform:none;direction:ltr;block-progression:tb;writing-mode:lr-tb;text-anchor:start;color:#000000;fill:#feda36;fill-opacity:1;fill-rule:nonzero;stroke:#aa8800;stroke-width:0.97119661;stroke-linejoin:round;marker:none;visibility:visible;display:inline;overflow:visible;enable-background:accumulate;font-family:Bitstream Vera Sans;-inkscape-font-specification:Bitstream Vera Sans" d="m -23.40625,569.55357 c -3.712711,0 -6.71875,-3.09332 -6.71875,-6.875 0,-0.5072 0.05353,-0.99298 0.15625,-1.46875 l 0.125,-0.5625 6.103399,-19.24452 6.490351,18.58827 0.25,0.6875 c 0.221788,0.60173 0.249092,1.31611 0.3125,2 0,3.78168 -3.006039,6.875 -6.71875,6.875 z" id="path5106"/>
            </g>
            <g style="stroke-width:0.89646091" id="g5108">
              <g style="fill:#feda36;stroke:#aa8800;stroke-width:0.97119661;stroke-linejoin:round" transform="matrix(0.92304782,0,0,0.92304782,1.19835,37.982004)" id="g5110">
                <path style="font-size:medium;font-style:normal;font-variant:normal;font-weight:normal;font-stretch:normal;text-indent:0;text-align:start;text-decoration:none;line-height:normal;letter-spacing:normal;word-spacing:normal;text-transform:none;direction:ltr;block-progression:tb;writing-mode:lr-tb;text-anchor:start;color:#000000;fill:#feda36;fill-opacity:1;fill-rule:nonzero;stroke:#aa8800;stroke-width:0.97119661;stroke-linejoin:round;marker:none;visibility:visible;display:inline;overflow:visible;enable-background:accumulate;font-family:Bitstream Vera Sans;-inkscape-font-specification:Bitstream Vera Sans" d="m -23.40625,512.45089 c -3.712711,0 -6.71875,3.09332 -6.71875,6.875 0,0.5072 0.05353,0.99298 0.15625,1.46875 l 0.125,0.5625 6.130958,19.16962 6.462792,-18.51337 0.25,-0.6875 c 0.221788,-0.60173 0.249092,-1.31611 0.3125,-2 0,-3.78168 -3.006039,-6.875 -6.71875,-6.875 z" id="path5112"/>
                <path id="path5114" d="m -23.40625,569.55357 c -3.712711,0 -6.71875,-3.09332 -6.71875,-6.875 0,-0.5072 0.05353,-0.99298 0.15625,-1.46875 l 0.125,-0.5625 6.179323,-20.08855 6.414427,19.4323 0.25,0.6875 c 0.221788,0.60173 0.249092,1.31611 0.3125,2 0,3.78168 -3.006039,6.875 -6.71875,6.875 z" style="font-size:medium;font-style:normal;font-variant:normal;font-weight:normal;font-stretch:normal;text-indent:0;text-align:start;text-decoration:none;line-height:normal;letter-spacing:normal;word-spacing:normal;text-transform:none;direction:ltr;block-progression:tb;writing-mode:lr-tb;text-anchor:start;color:#000000;fill:#feda36;fill-opacity:1;fill-rule:nonzero;stroke:#aa8800;stroke-width:0.97119661;stroke-linejoin:round;marker:none;visibility:visible;display:inline;overflow:visible;enable-background:accumulate;font-family:Bitstream Vera Sans;-inkscape-font-specification:Bitstream Vera Sans"/>
              </g>
              <g id="g5116" transform="matrix(0.28405896,0.87825269,-0.87825269,0.28405896,461.37868,404.233)" style="fill:#feda36;stroke:#aa8800;stroke-width:0.97119661;stroke-linejoin:round">
                <path id="path5118" d="m -23.40625,512.45089 c -3.712711,0 -6.71875,3.09332 -6.71875,6.875 0,0.5072 0.05353,0.99298 0.15625,1.46875 l 0.125,0.5625 5.9375,19.75 6.65625,-19.09375 0.25,-0.6875 c 0.221788,-0.60173 0.249092,-1.31611 0.3125,-2 0,-3.78168 -3.006039,-6.875 -6.71875,-6.875 z" style="font-size:medium;font-style:normal;font-variant:normal;font-weight:normal;font-stretch:normal;text-indent:0;text-align:start;text-decoration:none;line-height:normal;letter-spacing:normal;word-spacing:normal;text-transform:none;direction:ltr;block-progression:tb;writing-mode:lr-tb;text-anchor:start;color:#000000;fill:#feda36;fill-opacity:1;fill-rule:nonzero;stroke:#aa8800;stroke-width:0.97119661;stroke-linejoin:round;marker:none;visibility:visible;display:inline;overflow:visible;enable-background:accumulate;font-family:Bitstream Vera Sans;-inkscape-font-specification:Bitstream Vera Sans"/>
                <path style="font-size:medium;font-style:normal;font-variant:normal;font-weight:normal;font-stretch:normal;text-indent:0;text-align:start;text-decoration:none;line-height:normal;letter-spacing:normal;word-spacing:normal;text-transform:none;direction:ltr;block-progression:tb;writing-mode:lr-tb;text-anchor:start;color:#000000;fill:#feda36;fill-opacity:1;fill-rule:nonzero;stroke:#aa8800;stroke-width:0.97119661;stroke-linejoin:round;marker:none;visibility:visible;display:inline;overflow:visible;enable-background:accumulate;font-family:Bitstream Vera Sans;-inkscape-font-specification:Bitstream Vera Sans" d="m -23.40625,569.55357 c -3.712711,0 -6.71875,-3.09332 -6.71875,-6.875 0,-0.5072 0.05353,-0.99298 0.15625,-1.46875 l 0.125,-0.5625 5.938866,-19.59706 6.654884,18.94081 0.25,0.6875 c 0.221788,0.60173 0.249092,1.31611 0.3125,2 0,3.78168 -3.006039,6.875 -6.71875,6.875 z" id="path5120"/>
              </g>
              <g id="g5122" transform="matrix(-0.75610065,0.52946111,-0.52946111,-0.75610065,247.79971,958.6192)" style="fill:#feda36;stroke:#aa8800;stroke-width:0.97119662;stroke-linejoin:round">
                <path id="path5124" d="m -24.152236,511.40097 c -3.711809,0.0818 -6.648953,3.24062 -6.565618,7.02138 0.01118,0.50708 0.0754,0.99156 0.188579,1.46495 l 6.754761,21.17294 6.222546,-20.9276 c 0.208474,-0.60647 0.220029,-1.32128 0.268351,-2.0064 -0.08334,-3.78076 -3.15681,-6.80709 -6.868619,-6.72527 z" style="font-size:medium;font-style:normal;font-variant:normal;font-weight:normal;font-stretch:normal;text-indent:0;text-align:start;text-decoration:none;line-height:normal;letter-spacing:normal;word-spacing:normal;text-transform:none;direction:ltr;block-progression:tb;writing-mode:lr-tb;text-anchor:start;color:#000000;fill:#feda36;fill-opacity:1;fill-rule:nonzero;stroke:#aa8800;stroke-width:0.97119662;stroke-linejoin:round;marker:none;visibility:visible;display:inline;overflow:visible;enable-background:accumulate;font-family:Bitstream Vera Sans;-inkscape-font-specification:Bitstream Vera Sans"/>
                <path style="font-size:medium;font-style:normal;font-variant:normal;font-weight:normal;font-stretch:normal;text-indent:0;text-align:start;text-decoration:none;line-height:normal;letter-spacing:normal;word-spacing:normal;text-transform:none;direction:ltr;block-progression:tb;writing-mode:lr-tb;text-anchor:start;color:#000000;fill:#feda36;fill-opacity:1;fill-rule:nonzero;stroke:#aa8800;stroke-width:0.97119662;stroke-linejoin:round;marker:none;visibility:visible;display:inline;overflow:visible;enable-background:accumulate;font-family:Bitstream Vera Sans;-inkscape-font-specification:Bitstream Vera Sans" d="m -23.40625,569.55357 c -3.712711,0 -6.71875,-3.09332 -6.71875,-6.875 0,-0.5072 0.05353,-0.99298 0.15625,-1.46875 l 0.125,-0.5625 5.9375,-19.75 6.65625,19.09375 0.25,0.6875 c 0.221788,0.60173 0.249092,1.31611 0.3125,2 0,3.78168 -3.006039,6.875 -6.71875,6.875 z" id="path5126"/>
              </g>
              <g style="stroke-width:0.89646091" id="g5128">
                <path id="path5130" d="m -20.403448,513.06572 c -2.494456,0 -4.514122,2.07831 -4.514122,4.61909 0,0.34079 0.03597,0.66716 0.104981,0.98682 l 0.08398,0.37793 4.119201,12.87947 4.342151,-12.43856 0.167966,-0.46191 c 0.149012,-0.40428 0.167358,-0.88424 0.209959,-1.34375 0,-2.54078 -2.019664,-4.61909 -4.514121,-4.61909 z" style="font-size:medium;font-style:normal;font-variant:normal;font-weight:normal;font-stretch:normal;text-indent:0;text-align:start;text-decoration:none;line-height:normal;letter-spacing:normal;word-spacing:normal;text-transform:none;direction:ltr;block-progression:tb;writing-mode:lr-tb;text-anchor:start;color:#000000;fill:#fee46e;fill-opacity:1;fill-rule:nonzero;stroke:none;stroke-width:0.89646091;marker:none;visibility:visible;display:inline;overflow:visible;enable-background:accumulate;font-family:Bitstream Vera Sans;-inkscape-font-specification:Bitstream Vera Sans"/>
                <path style="font-size:medium;font-style:normal;font-variant:normal;font-weight:normal;font-stretch:normal;text-indent:0;text-align:start;text-decoration:none;line-height:normal;letter-spacing:normal;word-spacing:normal;text-transform:none;direction:ltr;block-progression:tb;writing-mode:lr-tb;text-anchor:start;color:#000000;fill:#fee46e;fill-opacity:1;fill-rule:nonzero;stroke:none;stroke-width:0.89646091;marker:none;visibility:visible;display:inline;overflow:visible;enable-background:accumulate;font-family:Bitstream Vera Sans;-inkscape-font-specification:Bitstream Vera Sans" d="m -20.403448,561.49169 c -2.494456,0 -4.514122,-2.07832 -4.514122,-4.6191 0,-0.34078 0.03597,-0.66716 0.104981,-0.98681 l 0.08398,-0.37792 4.151695,-13.49688 4.309657,13.05596 0.167966,0.46192 c 0.149012,0.40427 0.167358,0.88424 0.209959,1.34373 0,2.54078 -2.019664,4.6191 -4.514121,4.6191 z" id="path5132"/>
                <path style="font-size:medium;font-style:normal;font-variant:normal;font-weight:normal;font-stretch:normal;text-indent:0;text-align:start;text-decoration:none;line-height:normal;letter-spacing:normal;word-spacing:normal;text-transform:none;direction:ltr;block-progression:tb;writing-mode:lr-tb;text-anchor:start;color:#000000;fill:#fee46e;fill-opacity:1;fill-rule:nonzero;stroke:none;stroke-width:0.89646091;marker:none;visibility:visible;display:inline;overflow:visible;enable-background:accumulate;font-family:Bitstream Vera Sans;-inkscape-font-specification:Bitstream Vera Sans" d="m -5.9262079,517.48578 c -2.0156781,-1.46947 -4.8720161,-0.97985 -6.3687871,1.07328 -0.200749,0.27537 -0.363955,0.5603 -0.496494,0.85923 l -0.15477,0.35488 -4.463434,12.87759 11.0409992,-7.53676 0.4078375,-0.27431 c 0.3585735,-0.23889 0.6561453,-0.61593 0.9612508,-0.96212 1.4967712,-2.05313 1.0890758,-4.92231 -0.9266024,-6.39179 z" id="path5134"/>
                <path id="path5136" d="m -34.772188,557.07861 c -2.015679,-1.46946 -2.423373,-4.33865 -0.926601,-6.39176 0.200747,-0.27538 0.422078,-0.51792 0.666154,-0.73556 l 0.290498,-0.25591 11.040503,-8.3725 -3.943455,13.00075 -0.13638,0.47221 c -0.117751,0.41446 -0.385676,0.81312 -0.621931,1.20951 -1.496771,2.05312 -4.353109,2.54276 -6.368788,1.07326 z" style="font-size:medium;font-style:normal;font-variant:normal;font-weight:normal;font-stretch:normal;text-indent:0;text-align:start;text-decoration:none;line-height:normal;letter-spacing:normal;word-spacing:normal;text-transform:none;direction:ltr;block-progression:tb;writing-mode:lr-tb;text-anchor:start;color:#000000;fill:#fee46e;fill-opacity:1;fill-rule:nonzero;stroke:none;stroke-width:0.89646091;marker:none;visibility:visible;display:inline;overflow:visible;enable-background:accumulate;font-family:Bitstream Vera Sans;-inkscape-font-specification:Bitstream Vera Sans"/>
                <path style="font-size:medium;font-style:normal;font-variant:normal;font-weight:normal;font-stretch:normal;text-indent:0;text-align:start;text-decoration:none;line-height:normal;letter-spacing:normal;word-spacing:normal;text-transform:none;direction:ltr;block-progression:tb;writing-mode:lr-tb;text-anchor:start;color:#000000;fill:#fee46e;fill-opacity:1;fill-rule:nonzero;stroke:none;stroke-width:0.89646091;marker:none;visibility:visible;display:inline;overflow:visible;enable-background:accumulate;font-family:Bitstream Vera Sans;-inkscape-font-specification:Bitstream Vera Sans" d="m 2.643628,529.8638 c -0.7676446,-2.37339 -3.36662401,-3.65547 -5.7841145,-2.87356 -0.3242345,0.10486 -0.6237082,0.23952 -0.9066122,0.40357 l -0.3337406,0.1962 -11.3978137,7.87916 13.5821956,0.30726 0.4911842,0.0177 c 0.4305213,0.0175 0.89284368,-0.11289 1.34314007,-0.21375 2.41749073,-0.78191 3.77340563,-3.34315 3.00576113,-5.71655 z" id="path5138"/>
                <path id="path5140" d="m -43.529648,544.78171 c -0.767645,-2.37341 0.588271,-4.93462 3.005762,-5.71654 0.324233,-0.10488 0.645842,-0.17108 0.971224,-0.2038 l 0.38543,-0.0363 13.755617,-0.25542 -10.732202,8.17045 -0.387802,0.30198 c -0.338807,0.26619 -0.78984,0.43134 -1.213915,0.61329 -2.417491,0.78191 -5.01647,-0.50018 -5.784114,-2.87358 z" style="font-size:medium;font-style:normal;font-variant:normal;font-weight:normal;font-stretch:normal;text-indent:0;text-align:start;text-decoration:none;line-height:normal;letter-spacing:normal;word-spacing:normal;text-transform:none;direction:ltr;block-progression:tb;writing-mode:lr-tb;text-anchor:start;color:#000000;fill:#fee46e;fill-opacity:1;fill-rule:nonzero;stroke:none;stroke-width:0.89646091;marker:none;visibility:visible;display:inline;overflow:visible;enable-background:accumulate;font-family:Bitstream Vera Sans;-inkscape-font-specification:Bitstream Vera Sans"/>
                <path id="path5142" d="m 2.5482465,545.05708 c 0.7975306,-2.36352 -0.5259592,-4.94164 -2.93339151,-5.754 -0.32288546,-0.10896 -0.64363379,-0.17923 -0.96857619,-0.21603 l -0.384941,-0.0412 -14.0760918,-0.43209 10.9530465,8.30834 0.3839623,0.30685 c 0.3354214,0.27044 0.7843332,0.44128 1.2060796,0.62855 2.40743219,0.81236 5.0223815,-0.43683 5.8199121,-2.80036 z" style="font-size:medium;font-style:normal;font-variant:normal;font-weight:normal;font-stretch:normal;text-indent:0;text-align:start;text-decoration:none;line-height:normal;letter-spacing:normal;word-spacing:normal;text-transform:none;direction:ltr;block-progression:tb;writing-mode:lr-tb;text-anchor:start;color:#000000;fill:#fee46e;fill-opacity:1;fill-rule:nonzero;stroke:none;stroke-width:0.89646091;marker:none;visibility:visible;display:inline;overflow:visible;enable-background:accumulate;font-family:Bitstream Vera Sans;-inkscape-font-specification:Bitstream Vera Sans"/>
                <path style="font-size:medium;font-style:normal;font-variant:normal;font-weight:normal;font-stretch:normal;text-indent:0;text-align:start;text-decoration:none;line-height:normal;letter-spacing:normal;word-spacing:normal;text-transform:none;direction:ltr;block-progression:tb;writing-mode:lr-tb;text-anchor:start;color:#000000;fill:#fee46e;fill-opacity:1;fill-rule:nonzero;stroke:none;stroke-width:0.89646091;marker:none;visibility:visible;display:inline;overflow:visible;enable-background:accumulate;font-family:Bitstream Vera Sans;-inkscape-font-specification:Bitstream Vera Sans" d="m -43.451596,529.54186 c 0.797531,-2.36352 3.41248,-3.6127 5.819913,-2.80036 0.322886,0.10896 0.620635,0.24738 0.901448,0.41497 l 0.331237,0.20041 10.940062,8.01938 -13.227564,0.13882 -0.491367,0.0116 c -0.430706,0.012 -0.891349,-0.12415 -1.340338,-0.23068 -2.40743,-0.81235 -3.730922,-3.39049 -2.933391,-5.75401 z" id="path5144"/>
                <path style="font-size:medium;font-style:normal;font-variant:normal;font-weight:normal;font-stretch:normal;text-indent:0;text-align:start;text-decoration:none;line-height:normal;letter-spacing:normal;word-spacing:normal;text-transform:none;direction:ltr;block-progression:tb;writing-mode:lr-tb;text-anchor:start;color:#000000;fill:#fee46e;fill-opacity:1;fill-rule:nonzero;stroke:none;stroke-width:0.89646091;marker:none;visibility:visible;display:inline;overflow:visible;enable-background:accumulate;font-family:Bitstream Vera Sans;-inkscape-font-specification:Bitstream Vera Sans" d="m -5.7744785,557.53827 c 2.0112752,-1.47549 2.4103754,-4.34589 0.9074644,-6.39451 -0.2015739,-0.27477 -0.4236287,-0.51665 -0.6683542,-0.73358 l -11.8772217,-9.04937 4.640592,13.91562 c 0.11899,0.41411 0.388107,0.81197 0.625548,1.20764 1.502913,2.04862 4.3607041,2.52971 6.3719715,1.0542 z" id="path5146"/>
                <path id="path5148" d="m -34.866693,517.08516 c 2.043298,-1.43083 4.889793,-0.8869 6.347196,1.19436 0.195466,0.27914 0.353218,0.56713 0.480041,0.86854 l 0.147984,0.35774 4.343638,13.15768 -11.021718,-7.94307 -0.402539,-0.28201 c -0.35396,-0.24568 -0.644298,-0.62832 -0.942754,-0.98026 -1.457403,-2.08126 -0.995145,-4.94216 1.048152,-6.37298 z" style="font-size:medium;font-style:normal;font-variant:normal;font-weight:normal;font-stretch:normal;text-indent:0;text-align:start;text-decoration:none;line-height:normal;letter-spacing:normal;word-spacing:normal;text-transform:none;direction:ltr;block-progression:tb;writing-mode:lr-tb;text-anchor:start;color:#000000;fill:#fee46e;fill-opacity:1;fill-rule:nonzero;stroke:none;stroke-width:0.89646091;marker:none;visibility:visible;display:inline;overflow:visible;enable-background:accumulate;font-family:Bitstream Vera Sans;-inkscape-font-specification:Bitstream Vera Sans"/>
              </g>
              <path id="path5150" d="m -20.399749,514.78973 c -1.738462,0 -3.146029,1.44843 -3.146029,3.2192 0,0.23749 0.02507,0.46496 0.07316,0.68773 l 0.05852,0.26338 2.870796,8.9761 3.026176,-8.66881 0.11706,-0.32193 c 0.103851,-0.28174 0.116636,-0.61624 0.146326,-0.93647 0,-1.77077 -1.407564,-3.2192 -3.146027,-3.2192 z" style="font-size:medium;font-style:normal;font-variant:normal;font-weight:normal;font-stretch:normal;text-indent:0;text-align:start;text-decoration:none;line-height:normal;letter-spacing:normal;word-spacing:normal;text-transform:none;direction:ltr;block-progression:tb;writing-mode:lr-tb;text-anchor:start;color:#000000;fill:#feeb95;fill-opacity:1;fill-rule:nonzero;stroke:none;stroke-width:0.89646091;marker:none;visibility:visible;display:inline;overflow:visible;enable-background:accumulate;font-family:Bitstream Vera Sans;-inkscape-font-specification:Bitstream Vera Sans"/>
              <path style="font-size:medium;font-style:normal;font-variant:normal;font-weight:normal;font-stretch:normal;text-indent:0;text-align:start;text-decoration:none;line-height:normal;letter-spacing:normal;word-spacing:normal;text-transform:none;direction:ltr;block-progression:tb;writing-mode:lr-tb;text-anchor:start;color:#000000;fill:#feeb95;fill-opacity:1;fill-rule:nonzero;stroke:none;stroke-width:0.89646091;marker:none;visibility:visible;display:inline;overflow:visible;enable-background:accumulate;font-family:Bitstream Vera Sans;-inkscape-font-specification:Bitstream Vera Sans" d="m -20.399782,559.66012 c -1.738462,0 -3.146029,-1.44843 -3.146029,-3.2192 0,-0.23749 0.02507,-0.46496 0.07316,-0.68772 l 0.05852,-0.26339 2.893441,-9.40638 3.003531,9.0991 0.11706,0.32192 c 0.103851,0.28175 0.116636,0.61625 0.146326,0.93647 0,1.77077 -1.407564,3.2192 -3.146027,3.2192 z" id="path5152"/>
              <path style="font-size:medium;font-style:normal;font-variant:normal;font-weight:normal;font-stretch:normal;text-indent:0;text-align:start;text-decoration:none;line-height:normal;letter-spacing:normal;word-spacing:normal;text-transform:none;direction:ltr;block-progression:tb;writing-mode:lr-tb;text-anchor:start;color:#000000;fill:#feeb95;fill-opacity:1;fill-rule:nonzero;stroke:none;stroke-width:0.89646091;marker:none;visibility:visible;display:inline;overflow:visible;enable-background:accumulate;font-family:Bitstream Vera Sans;-inkscape-font-specification:Bitstream Vera Sans" d="m -7.0011347,518.87134 c -1.4047868,-1.02412 -3.3954543,-0.68289 -4.4386003,0.748 -0.139907,0.19191 -0.253652,0.39049 -0.346021,0.59883 l -0.107864,0.24732 -3.110702,8.97478 7.6948056,-5.25258 0.2842342,-0.19118 c 0.2499006,-0.16649 0.4572873,-0.42927 0.6699246,-0.67053 1.043145,-1.4309 0.7590097,-3.43052 -0.6457771,-4.45464 z" id="path5154"/>
              <path id="path5156" d="m -33.757662,555.59048 c -1.404788,-1.02411 -1.688923,-3.02374 -0.645777,-4.45461 0.139906,-0.19192 0.294159,-0.36096 0.464264,-0.51263 l 0.202456,-0.17835 7.694458,-5.83505 -2.748311,9.06061 -0.09505,0.32911 c -0.08207,0.28884 -0.26879,0.56668 -0.433444,0.84293 -1.043145,1.43088 -3.033812,1.77213 -4.438599,0.74799 z" style="font-size:medium;font-style:normal;font-variant:normal;font-weight:normal;font-stretch:normal;text-indent:0;text-align:start;text-decoration:none;line-height:normal;letter-spacing:normal;word-spacing:normal;text-transform:none;direction:ltr;block-progression:tb;writing-mode:lr-tb;text-anchor:start;color:#000000;fill:#feeb95;fill-opacity:1;fill-rule:nonzero;stroke:none;stroke-width:0.89646091;marker:none;visibility:visible;display:inline;overflow:visible;enable-background:accumulate;font-family:Bitstream Vera Sans;-inkscape-font-specification:Bitstream Vera Sans"/>
              <path style="font-size:medium;font-style:normal;font-variant:normal;font-weight:normal;font-stretch:normal;text-indent:0;text-align:start;text-decoration:none;line-height:normal;letter-spacing:normal;word-spacing:normal;text-transform:none;direction:ltr;block-progression:tb;writing-mode:lr-tb;text-anchor:start;color:#000000;fill:#feeb95;fill-opacity:1;fill-rule:nonzero;stroke:none;stroke-width:0.89646091;marker:none;visibility:visible;display:inline;overflow:visible;enable-background:accumulate;font-family:Bitstream Vera Sans;-inkscape-font-specification:Bitstream Vera Sans" d="m 0.75581571,530.46468 c -0.53499474,-1.6541 -2.34630171,-2.54761 -4.03112371,-2.00266 -0.2259687,0.0731 -0.4346811,0.16691 -0.6318454,0.28126 l -0.2325938,0.13672 -7.9434808,5.49123 9.4658424,0.21412 0.3423211,0.0123 c 0.3000433,0.0122 0.6222495,-0.0787 0.9360747,-0.14896 1.68482204,-0.54494 2.6298001,-2.32995 2.09480551,-3.98404 z" id="path5158"/>
              <path id="path5160" d="m -41.695133,544.68319 c -0.534994,-1.65411 0.409984,-3.43909 2.094806,-3.98403 0.225968,-0.0731 0.450107,-0.11924 0.676876,-0.14203 l 0.268618,-0.0254 9.586704,-0.17802 -7.479595,5.69423 -0.270271,0.21047 c -0.236125,0.18552 -0.550464,0.30061 -0.846015,0.42741 -1.684822,0.54494 -3.496129,-0.34859 -4.031123,-2.00269 z" style="font-size:medium;font-style:normal;font-variant:normal;font-weight:normal;font-stretch:normal;text-indent:0;text-align:start;text-decoration:none;line-height:normal;letter-spacing:normal;word-spacing:normal;text-transform:none;direction:ltr;block-progression:tb;writing-mode:lr-tb;text-anchor:start;color:#000000;fill:#feeb95;fill-opacity:1;fill-rule:nonzero;stroke:none;stroke-width:0.89646091;marker:none;visibility:visible;display:inline;overflow:visible;enable-background:accumulate;font-family:Bitstream Vera Sans;-inkscape-font-specification:Bitstream Vera Sans"/>
              <path id="path5162" d="m 0.66865347,544.92347 c 0.55582323,-1.64721 -0.36655676,-3.44397 -2.04436887,-4.01013 -0.2250285,-0.076 -0.4485677,-0.12492 -0.6750299,-0.15057 l -0.268277,-0.0288 -9.8100527,-0.30114 7.6335083,5.79034 0.2675949,0.21385 c 0.2337653,0.18848 0.5466255,0.30755 0.8405532,0.43806 1.677812,0.56615 3.50024899,-0.30445 4.05607207,-1.95166 z" style="font-size:medium;font-style:normal;font-variant:normal;font-weight:normal;font-stretch:normal;text-indent:0;text-align:start;text-decoration:none;line-height:normal;letter-spacing:normal;word-spacing:normal;text-transform:none;direction:ltr;block-progression:tb;writing-mode:lr-tb;text-anchor:start;color:#000000;fill:#feeb95;fill-opacity:1;fill-rule:nonzero;stroke:none;stroke-width:0.89646091;marker:none;visibility:visible;display:inline;overflow:visible;enable-background:accumulate;font-family:Bitstream Vera Sans;-inkscape-font-specification:Bitstream Vera Sans"/>
              <path style="font-size:medium;font-style:normal;font-variant:normal;font-weight:normal;font-stretch:normal;text-indent:0;text-align:start;text-decoration:none;line-height:normal;letter-spacing:normal;word-spacing:normal;text-transform:none;direction:ltr;block-progression:tb;writing-mode:lr-tb;text-anchor:start;color:#000000;fill:#feeb95;fill-opacity:1;fill-rule:nonzero;stroke:none;stroke-width:0.89646091;marker:none;visibility:visible;display:inline;overflow:visible;enable-background:accumulate;font-family:Bitstream Vera Sans;-inkscape-font-specification:Bitstream Vera Sans" d="m -6.8701917,556.00315 c 1.4017182,-1.02831 1.6798633,-3.02879 0.6324394,-4.45653 -0.1404831,-0.19148 -0.2952398,-0.36007 -0.4657963,-0.51126 l -8.2775944,-6.30676 3.234169,9.6982 c 0.08292,0.28859 0.270483,0.56589 0.435963,0.84164 1.047425,1.42775 3.0391063,1.76304 4.4408193,0.73471 z" id="path5164"/>
              <path id="path5166" d="m -33.825441,518.53026 c 1.424036,-0.9972 3.407845,-0.61812 4.423552,0.83238 0.136227,0.19454 0.246169,0.39525 0.334555,0.60531 l 0.103135,0.24933 3.027212,9.16998 -7.681367,-5.53576 -0.280542,-0.19655 c -0.246685,-0.17123 -0.44903,-0.43789 -0.657034,-0.68318 -1.015708,-1.45049 -0.693546,-3.44433 0.730489,-4.44151 z" style="font-size:medium;font-style:normal;font-variant:normal;font-weight:normal;font-stretch:normal;text-indent:0;text-align:start;text-decoration:none;line-height:normal;letter-spacing:normal;word-spacing:normal;text-transform:none;direction:ltr;block-progression:tb;writing-mode:lr-tb;text-anchor:start;color:#000000;fill:#feeb95;fill-opacity:1;fill-rule:nonzero;stroke:none;stroke-width:0.89646091;marker:none;visibility:visible;display:inline;overflow:visible;enable-background:accumulate;font-family:Bitstream Vera Sans;-inkscape-font-specification:Bitstream Vera Sans"/>
            </g>
          </g>
        </g>
        <path id="path7630" d="m 385.0099,408.74646 c -25.59059,0 -46.49124,20.90065 -46.49124,46.49124 0,25.59059 20.90065,46.20776 46.49124,46.20776 25.5906,0 46.49125,-20.61717 46.49125,-46.20776 0,-25.59059 -20.90065,-46.49124 -46.49125,-46.49124 z m 0,1.98438 c 24.50971,0 44.22338,19.99713 44.22338,44.50686 0,24.50973 -19.71367,44.22338 -44.22338,44.22338 -24.50971,0 -44.22337,-19.71365 -44.22337,-44.22338 0,-24.50973 19.71366,-44.50686 44.22337,-44.50686 z" style="font-size:medium;font-style:normal;font-variant:normal;font-weight:normal;font-stretch:normal;text-indent:0;text-align:start;text-decoration:none;line-height:normal;letter-spacing:normal;word-spacing:normal;text-transform:none;direction:ltr;block-progression:tb;writing-mode:lr-tb;text-anchor:start;baseline-shift:baseline;color:#000000;fill:#feda36;fill-opacity:1;stroke:#aa8800;stroke-width:1.08985308;marker:none;visibility:visible;display:inline;overflow:visible;enable-background:accumulate;font-family:Sans;-inkscape-font-specification:Sans"/>
        <path id="path7632" d="m 385.0099,414.93213 c -22.11741,0 -40.04527,18.17203 -40.04527,40.28945 0,22.11741 17.92786,40.04527 40.04527,40.04527 22.1174,0 40.04527,-17.92786 40.04527,-40.04527 0,-22.11742 -17.92787,-40.28945 -40.04527,-40.28945 z m 0,2.19761 c 21.03652,0 38.09184,17.0553 38.09184,38.09184 0,21.03654 -17.05532,37.84766 -38.09184,37.84766 -21.03653,0 -38.09184,-16.81112 -38.09184,-37.84766 0,-21.03654 17.05531,-38.09184 38.09184,-38.09184 z" style="font-size:medium;font-style:normal;font-variant:normal;font-weight:normal;font-stretch:normal;text-indent:0;text-align:start;text-decoration:none;line-height:normal;letter-spacing:normal;word-spacing:normal;text-transform:none;direction:ltr;block-progression:tb;writing-mode:lr-tb;text-anchor:start;baseline-shift:baseline;color:#000000;fill:#feda36;fill-opacity:1;stroke:#aa8800;stroke-width:1.08985308;marker:none;visibility:visible;display:inline;overflow:visible;enable-background:accumulate;font-family:Sans;-inkscape-font-specification:Sans"/>
        <path style="font-size:medium;font-style:normal;font-variant:normal;font-weight:normal;font-stretch:normal;text-indent:0;text-align:start;text-decoration:none;line-height:normal;letter-spacing:normal;word-spacing:normal;text-transform:none;direction:ltr;block-progression:tb;writing-mode:lr-tb;text-anchor:start;color:#000000;fill:#feeb95;fill-opacity:1;fill-rule:nonzero;stroke:none;stroke-width:1.14464498;marker:none;visibility:visible;display:inline;overflow:visible;enable-background:accumulate;font-family:Bitstream Vera Sans;-inkscape-font-specification:Bitstream Vera Sans" d="m 363.38634,447.8824 c 0.55992,-1.6528 2.39579,-2.52633 4.08596,-1.95827 0.22669,0.0763 0.43573,0.17299 0.63288,0.29018 l 0.23255,0.14014 7.68063,5.60788 -9.28661,0.097 -0.34497,0.008 c -0.30238,0.009 -0.62579,-0.0869 -0.94101,-0.1613 -1.69017,-0.56807 -2.61935,-2.37093 -2.05943,-4.02372 z" id="path4843"/>
        <g transform="matrix(1.0073681,0,0,1.0033843,405.33159,-84.054225)" id="g5053" style="fill:#feda36;stroke:#aa8800;stroke-width:1.05656207">
          <g style="fill:#feda36;stroke:#aa8800;stroke-width:1.14464498;stroke-linejoin:round" transform="matrix(0.74588098,0.54376358,-0.54376358,0.74588098,291.22885,146.55713)" id="g7876">
            <path style="font-size:medium;font-style:normal;font-variant:normal;font-weight:normal;font-stretch:normal;text-indent:0;text-align:start;text-decoration:none;line-height:normal;letter-spacing:normal;word-spacing:normal;text-transform:none;direction:ltr;block-progression:tb;writing-mode:lr-tb;text-anchor:start;color:#000000;fill:#feda36;fill-opacity:1;fill-rule:nonzero;stroke:#aa8800;stroke-width:1.14464498;stroke-linejoin:round;marker:none;visibility:visible;display:inline;overflow:visible;enable-background:accumulate;font-family:Bitstream Vera Sans;-inkscape-font-specification:Bitstream Vera Sans" d="m -23.40625,512.45089 c -3.712711,0 -6.71875,3.09332 -6.71875,6.875 0,0.5072 0.05353,0.99298 0.15625,1.46875 l 0.125,0.5625 5.922878,19.40154 6.670872,-18.74529 0.25,-0.6875 c 0.221788,-0.60173 0.249092,-1.31611 0.3125,-2 0,-3.78168 -3.006039,-6.875 -6.71875,-6.875 z" id="path7878"/>
            <path id="path7880" d="m -23.40625,569.55357 c -3.712711,0 -6.71875,-3.09332 -6.71875,-6.875 0,-0.5072 0.05353,-0.99298 0.15625,-1.46875 l 0.125,-0.5625 5.9375,-19.75 6.65625,19.09375 0.25,0.6875 c 0.221788,0.60173 0.249092,1.31611 0.3125,2 0,3.78168 -3.006039,6.875 -6.71875,6.875 z" style="font-size:medium;font-style:normal;font-variant:normal;font-weight:normal;font-stretch:normal;text-indent:0;text-align:start;text-decoration:none;line-height:normal;letter-spacing:normal;word-spacing:normal;text-transform:none;direction:ltr;block-progression:tb;writing-mode:lr-tb;text-anchor:start;color:#000000;fill:#feda36;fill-opacity:1;fill-rule:nonzero;stroke:#aa8800;stroke-width:1.14464498;stroke-linejoin:round;marker:none;visibility:visible;display:inline;overflow:visible;enable-background:accumulate;font-family:Bitstream Vera Sans;-inkscape-font-specification:Bitstream Vera Sans"/>
          </g>
          <g id="g4950">
            <g style="fill:#feda36;stroke:#aa8800;stroke-width:1.14464498;stroke-linejoin:round" transform="matrix(-0.29511797,0.87459857,-0.87459857,-0.29511797,445.84543,717.48348)" id="g7888">
              <path style="font-size:medium;font-style:normal;font-variant:normal;font-weight:normal;font-stretch:normal;text-indent:0;text-align:start;text-decoration:none;line-height:normal;letter-spacing:normal;word-spacing:normal;text-transform:none;direction:ltr;block-progression:tb;writing-mode:lr-tb;text-anchor:start;color:#000000;fill:#feda36;fill-opacity:1;fill-rule:nonzero;stroke:#aa8800;stroke-width:1.14464498;stroke-linejoin:round;marker:none;visibility:visible;display:inline;overflow:visible;enable-background:accumulate;font-family:Bitstream Vera Sans;-inkscape-font-specification:Bitstream Vera Sans" d="m -23.40625,512.45089 c -3.712711,0 -6.71875,3.09332 -6.71875,6.875 0,0.5072 0.05353,0.99298 0.15625,1.46875 l 0.125,0.5625 6.089025,20.05659 6.504725,-19.40034 0.25,-0.6875 c 0.221788,-0.60173 0.249092,-1.31611 0.3125,-2 0,-3.78168 -3.006039,-6.875 -6.71875,-6.875 z" id="path7890"/>
              <path id="path7892" d="m -23.40625,569.55357 c -3.712711,0 -6.71875,-3.09332 -6.71875,-6.875 0,-0.5072 0.05353,-0.99298 0.15625,-1.46875 l 0.125,-0.5625 6.103399,-19.24452 6.490351,18.58827 0.25,0.6875 c 0.221788,0.60173 0.249092,1.31611 0.3125,2 0,3.78168 -3.006039,6.875 -6.71875,6.875 z" style="font-size:medium;font-style:normal;font-variant:normal;font-weight:normal;font-stretch:normal;text-indent:0;text-align:start;text-decoration:none;line-height:normal;letter-spacing:normal;word-spacing:normal;text-transform:none;direction:ltr;block-progression:tb;writing-mode:lr-tb;text-anchor:start;color:#000000;fill:#feda36;fill-opacity:1;fill-rule:nonzero;stroke:#aa8800;stroke-width:1.14464498;stroke-linejoin:round;marker:none;visibility:visible;display:inline;overflow:visible;enable-background:accumulate;font-family:Bitstream Vera Sans;-inkscape-font-specification:Bitstream Vera Sans"/>
            </g>
            <g id="g4859">
              <g id="g7872" transform="matrix(0.92304782,0,0,0.92304782,1.19835,37.982004)" style="fill:#feda36;stroke:#aa8800;stroke-width:1.14464498;stroke-linejoin:round">
                <path id="path7846" d="m -23.40625,512.45089 c -3.712711,0 -6.71875,3.09332 -6.71875,6.875 0,0.5072 0.05353,0.99298 0.15625,1.46875 l 0.125,0.5625 6.130958,19.16962 6.462792,-18.51337 0.25,-0.6875 c 0.221788,-0.60173 0.249092,-1.31611 0.3125,-2 0,-3.78168 -3.006039,-6.875 -6.71875,-6.875 z" style="font-size:medium;font-style:normal;font-variant:normal;font-weight:normal;font-stretch:normal;text-indent:0;text-align:start;text-decoration:none;line-height:normal;letter-spacing:normal;word-spacing:normal;text-transform:none;direction:ltr;block-progression:tb;writing-mode:lr-tb;text-anchor:start;color:#000000;fill:#feda36;fill-opacity:1;fill-rule:nonzero;stroke:#aa8800;stroke-width:1.14464498;stroke-linejoin:round;marker:none;visibility:visible;display:inline;overflow:visible;enable-background:accumulate;font-family:Bitstream Vera Sans;-inkscape-font-specification:Bitstream Vera Sans"/>
                <path style="font-size:medium;font-style:normal;font-variant:normal;font-weight:normal;font-stretch:normal;text-indent:0;text-align:start;text-decoration:none;line-height:normal;letter-spacing:normal;word-spacing:normal;text-transform:none;direction:ltr;block-progression:tb;writing-mode:lr-tb;text-anchor:start;color:#000000;fill:#feda36;fill-opacity:1;fill-rule:nonzero;stroke:#aa8800;stroke-width:1.14464498;stroke-linejoin:round;marker:none;visibility:visible;display:inline;overflow:visible;enable-background:accumulate;font-family:Bitstream Vera Sans;-inkscape-font-specification:Bitstream Vera Sans" d="m -23.40625,569.55357 c -3.712711,0 -6.71875,-3.09332 -6.71875,-6.875 0,-0.5072 0.05353,-0.99298 0.15625,-1.46875 l 0.125,-0.5625 6.179323,-20.08855 6.414427,19.4323 0.25,0.6875 c 0.221788,0.60173 0.249092,1.31611 0.3125,2 0,3.78168 -3.006039,6.875 -6.71875,6.875 z" id="path7870"/>
              </g>
              <g style="fill:#feda36;stroke:#aa8800;stroke-width:1.14464498;stroke-linejoin:round" transform="matrix(0.28405896,0.87825269,-0.87825269,0.28405896,461.37868,404.233)" id="g7882">
                <path style="font-size:medium;font-style:normal;font-variant:normal;font-weight:normal;font-stretch:normal;text-indent:0;text-align:start;text-decoration:none;line-height:normal;letter-spacing:normal;word-spacing:normal;text-transform:none;direction:ltr;block-progression:tb;writing-mode:lr-tb;text-anchor:start;color:#000000;fill:#feda36;fill-opacity:1;fill-rule:nonzero;stroke:#aa8800;stroke-width:1.14464498;stroke-linejoin:round;marker:none;visibility:visible;display:inline;overflow:visible;enable-background:accumulate;font-family:Bitstream Vera Sans;-inkscape-font-specification:Bitstream Vera Sans" d="m -23.40625,512.45089 c -3.712711,0 -6.71875,3.09332 -6.71875,6.875 0,0.5072 0.05353,0.99298 0.15625,1.46875 l 0.125,0.5625 5.9375,19.75 6.65625,-19.09375 0.25,-0.6875 c 0.221788,-0.60173 0.249092,-1.31611 0.3125,-2 0,-3.78168 -3.006039,-6.875 -6.71875,-6.875 z" id="path7884"/>
                <path id="path7886" d="m -23.40625,569.55357 c -3.712711,0 -6.71875,-3.09332 -6.71875,-6.875 0,-0.5072 0.05353,-0.99298 0.15625,-1.46875 l 0.125,-0.5625 5.938866,-19.59706 6.654884,18.94081 0.25,0.6875 c 0.221788,0.60173 0.249092,1.31611 0.3125,2 0,3.78168 -3.006039,6.875 -6.71875,6.875 z" style="font-size:medium;font-style:normal;font-variant:normal;font-weight:normal;font-stretch:normal;text-indent:0;text-align:start;text-decoration:none;line-height:normal;letter-spacing:normal;word-spacing:normal;text-transform:none;direction:ltr;block-progression:tb;writing-mode:lr-tb;text-anchor:start;color:#000000;fill:#feda36;fill-opacity:1;fill-rule:nonzero;stroke:#aa8800;stroke-width:1.14464498;stroke-linejoin:round;marker:none;visibility:visible;display:inline;overflow:visible;enable-background:accumulate;font-family:Bitstream Vera Sans;-inkscape-font-specification:Bitstream Vera Sans"/>
              </g>
              <g style="fill:#feda36;stroke:#aa8800;stroke-width:1.14464498;stroke-linejoin:round" transform="matrix(-0.75610065,0.52946111,-0.52946111,-0.75610065,247.79971,958.6192)" id="g7920">
                <path style="font-size:medium;font-style:normal;font-variant:normal;font-weight:normal;font-stretch:normal;text-indent:0;text-align:start;text-decoration:none;line-height:normal;letter-spacing:normal;word-spacing:normal;text-transform:none;direction:ltr;block-progression:tb;writing-mode:lr-tb;text-anchor:start;color:#000000;fill:#feda36;fill-opacity:1;fill-rule:nonzero;stroke:#aa8800;stroke-width:1.14464498;stroke-linejoin:round;marker:none;visibility:visible;display:inline;overflow:visible;enable-background:accumulate;font-family:Bitstream Vera Sans;-inkscape-font-specification:Bitstream Vera Sans" d="m -24.152236,511.40097 c -3.711809,0.0818 -6.648953,3.24062 -6.565618,7.02138 0.01118,0.50708 0.0754,0.99156 0.188579,1.46495 l 6.754761,21.17294 6.222546,-20.9276 c 0.208474,-0.60647 0.220029,-1.32128 0.268351,-2.0064 -0.08334,-3.78076 -3.15681,-6.80709 -6.868619,-6.72527 z" id="path7922"/>
                <path id="path7924" d="m -23.40625,569.55357 c -3.712711,0 -6.71875,-3.09332 -6.71875,-6.875 0,-0.5072 0.05353,-0.99298 0.15625,-1.46875 l 0.125,-0.5625 5.9375,-19.75 6.65625,19.09375 0.25,0.6875 c 0.221788,0.60173 0.249092,1.31611 0.3125,2 0,3.78168 -3.006039,6.875 -6.71875,6.875 z" style="font-size:medium;font-style:normal;font-variant:normal;font-weight:normal;font-stretch:normal;text-indent:0;text-align:start;text-decoration:none;line-height:normal;letter-spacing:normal;word-spacing:normal;text-transform:none;direction:ltr;block-progression:tb;writing-mode:lr-tb;text-anchor:start;color:#000000;fill:#feda36;fill-opacity:1;fill-rule:nonzero;stroke:#aa8800;stroke-width:1.14464498;stroke-linejoin:round;marker:none;visibility:visible;display:inline;overflow:visible;enable-background:accumulate;font-family:Bitstream Vera Sans;-inkscape-font-specification:Bitstream Vera Sans"/>
              </g>
              <g id="g4815">
                <path style="font-size:medium;font-style:normal;font-variant:normal;font-weight:normal;font-stretch:normal;text-indent:0;text-align:start;text-decoration:none;line-height:normal;letter-spacing:normal;word-spacing:normal;text-transform:none;direction:ltr;block-progression:tb;writing-mode:lr-tb;text-anchor:start;color:#000000;fill:#fee46e;fill-opacity:1;fill-rule:nonzero;stroke:none;stroke-width:1.14464498;marker:none;visibility:visible;display:inline;overflow:visible;enable-background:accumulate;font-family:Bitstream Vera Sans;-inkscape-font-specification:Bitstream Vera Sans" d="m -20.403448,513.06572 c -2.494456,0 -4.514122,2.07831 -4.514122,4.61909 0,0.34079 0.03597,0.66716 0.104981,0.98682 l 0.08398,0.37793 4.119201,12.87947 4.342151,-12.43856 0.167966,-0.46191 c 0.149012,-0.40428 0.167358,-0.88424 0.209959,-1.34375 0,-2.54078 -2.019664,-4.61909 -4.514121,-4.61909 z" id="path4777"/>
                <path id="path4779" d="m -20.403448,561.49169 c -2.494456,0 -4.514122,-2.07832 -4.514122,-4.6191 0,-0.34078 0.03597,-0.66716 0.104981,-0.98681 l 0.08398,-0.37792 4.151695,-13.49688 4.309657,13.05596 0.167966,0.46192 c 0.149012,0.40427 0.167358,0.88424 0.209959,1.34373 0,2.54078 -2.019664,4.6191 -4.514121,4.6191 z" style="font-size:medium;font-style:normal;font-variant:normal;font-weight:normal;font-stretch:normal;text-indent:0;text-align:start;text-decoration:none;line-height:normal;letter-spacing:normal;word-spacing:normal;text-transform:none;direction:ltr;block-progression:tb;writing-mode:lr-tb;text-anchor:start;color:#000000;fill:#fee46e;fill-opacity:1;fill-rule:nonzero;stroke:none;stroke-width:1.14464498;marker:none;visibility:visible;display:inline;overflow:visible;enable-background:accumulate;font-family:Bitstream Vera Sans;-inkscape-font-specification:Bitstream Vera Sans"/>
                <path id="path4783" d="m -5.9262079,517.48578 c -2.0156781,-1.46947 -4.8720161,-0.97985 -6.3687871,1.07328 -0.200749,0.27537 -0.363955,0.5603 -0.496494,0.85923 l -0.15477,0.35488 -4.463434,12.87759 11.0409992,-7.53676 0.4078375,-0.27431 c 0.3585735,-0.23889 0.6561453,-0.61593 0.9612508,-0.96212 1.4967712,-2.05313 1.0890758,-4.92231 -0.9266024,-6.39179 z" style="font-size:medium;font-style:normal;font-variant:normal;font-weight:normal;font-stretch:normal;text-indent:0;text-align:start;text-decoration:none;line-height:normal;letter-spacing:normal;word-spacing:normal;text-transform:none;direction:ltr;block-progression:tb;writing-mode:lr-tb;text-anchor:start;color:#000000;fill:#fee46e;fill-opacity:1;fill-rule:nonzero;stroke:none;stroke-width:1.14464498;marker:none;visibility:visible;display:inline;overflow:visible;enable-background:accumulate;font-family:Bitstream Vera Sans;-inkscape-font-specification:Bitstream Vera Sans"/>
                <path style="font-size:medium;font-style:normal;font-variant:normal;font-weight:normal;font-stretch:normal;text-indent:0;text-align:start;text-decoration:none;line-height:normal;letter-spacing:normal;word-spacing:normal;text-transform:none;direction:ltr;block-progression:tb;writing-mode:lr-tb;text-anchor:start;color:#000000;fill:#fee46e;fill-opacity:1;fill-rule:nonzero;stroke:none;stroke-width:1.14464498;marker:none;visibility:visible;display:inline;overflow:visible;enable-background:accumulate;font-family:Bitstream Vera Sans;-inkscape-font-specification:Bitstream Vera Sans" d="m -34.772188,557.07861 c -2.015679,-1.46946 -2.423373,-4.33865 -0.926601,-6.39176 0.200747,-0.27538 0.422078,-0.51792 0.666154,-0.73556 l 0.290498,-0.25591 11.040503,-8.3725 -3.943455,13.00075 -0.13638,0.47221 c -0.117751,0.41446 -0.385676,0.81312 -0.621931,1.20951 -1.496771,2.05312 -4.353109,2.54276 -6.368788,1.07326 z" id="path4785"/>
                <path id="path4789" d="m 2.643628,529.8638 c -0.7676446,-2.37339 -3.36662401,-3.65547 -5.7841145,-2.87356 -0.3242345,0.10486 -0.6237082,0.23952 -0.9066122,0.40357 l -0.3337406,0.1962 -11.3978137,7.87916 13.5821956,0.30726 0.4911842,0.0177 c 0.4305213,0.0175 0.89284368,-0.11289 1.34314007,-0.21375 2.41749073,-0.78191 3.77340563,-3.34315 3.00576113,-5.71655 z" style="font-size:medium;font-style:normal;font-variant:normal;font-weight:normal;font-stretch:normal;text-indent:0;text-align:start;text-decoration:none;line-height:normal;letter-spacing:normal;word-spacing:normal;text-transform:none;direction:ltr;block-progression:tb;writing-mode:lr-tb;text-anchor:start;color:#000000;fill:#fee46e;fill-opacity:1;fill-rule:nonzero;stroke:none;stroke-width:1.14464498;marker:none;visibility:visible;display:inline;overflow:visible;enable-background:accumulate;font-family:Bitstream Vera Sans;-inkscape-font-specification:Bitstream Vera Sans"/>
                <path style="font-size:medium;font-style:normal;font-variant:normal;font-weight:normal;font-stretch:normal;text-indent:0;text-align:start;text-decoration:none;line-height:normal;letter-spacing:normal;word-spacing:normal;text-transform:none;direction:ltr;block-progression:tb;writing-mode:lr-tb;text-anchor:start;color:#000000;fill:#fee46e;fill-opacity:1;fill-rule:nonzero;stroke:none;stroke-width:1.14464498;marker:none;visibility:visible;display:inline;overflow:visible;enable-background:accumulate;font-family:Bitstream Vera Sans;-inkscape-font-specification:Bitstream Vera Sans" d="m -43.529648,544.78171 c -0.767645,-2.37341 0.588271,-4.93462 3.005762,-5.71654 0.324233,-0.10488 0.645842,-0.17108 0.971224,-0.2038 l 0.38543,-0.0363 13.755617,-0.25542 -10.732202,8.17045 -0.387802,0.30198 c -0.338807,0.26619 -0.78984,0.43134 -1.213915,0.61329 -2.417491,0.78191 -5.01647,-0.50018 -5.784114,-2.87358 z" id="path4791"/>
                <path style="font-size:medium;font-style:normal;font-variant:normal;font-weight:normal;font-stretch:normal;text-indent:0;text-align:start;text-decoration:none;line-height:normal;letter-spacing:normal;word-spacing:normal;text-transform:none;direction:ltr;block-progression:tb;writing-mode:lr-tb;text-anchor:start;color:#000000;fill:#fee46e;fill-opacity:1;fill-rule:nonzero;stroke:none;stroke-width:1.14464498;marker:none;visibility:visible;display:inline;overflow:visible;enable-background:accumulate;font-family:Bitstream Vera Sans;-inkscape-font-specification:Bitstream Vera Sans" d="m 2.5482465,545.05708 c 0.7975306,-2.36352 -0.5259592,-4.94164 -2.93339151,-5.754 -0.32288546,-0.10896 -0.64363379,-0.17923 -0.96857619,-0.21603 l -0.384941,-0.0412 -14.0760918,-0.43209 10.9530465,8.30834 0.3839623,0.30685 c 0.3354214,0.27044 0.7843332,0.44128 1.2060796,0.62855 2.40743219,0.81236 5.0223815,-0.43683 5.8199121,-2.80036 z" id="path4795"/>
                <path id="path4797" d="m -43.451596,529.54186 c 0.797531,-2.36352 3.41248,-3.6127 5.819913,-2.80036 0.322886,0.10896 0.620635,0.24738 0.901448,0.41497 l 0.331237,0.20041 10.940062,8.01938 -13.227564,0.13882 -0.491367,0.0116 c -0.430706,0.012 -0.891349,-0.12415 -1.340338,-0.23068 -2.40743,-0.81235 -3.730922,-3.39049 -2.933391,-5.75401 z" style="font-size:medium;font-style:normal;font-variant:normal;font-weight:normal;font-stretch:normal;text-indent:0;text-align:start;text-decoration:none;line-height:normal;letter-spacing:normal;word-spacing:normal;text-transform:none;direction:ltr;block-progression:tb;writing-mode:lr-tb;text-anchor:start;color:#000000;fill:#fee46e;fill-opacity:1;fill-rule:nonzero;stroke:none;stroke-width:1.14464498;marker:none;visibility:visible;display:inline;overflow:visible;enable-background:accumulate;font-family:Bitstream Vera Sans;-inkscape-font-specification:Bitstream Vera Sans"/>
                <path id="path4801" d="m -5.7744785,557.53827 c 2.0112752,-1.47549 2.4103754,-4.34589 0.9074644,-6.39451 -0.2015739,-0.27477 -0.4236287,-0.51665 -0.6683542,-0.73358 l -11.8772217,-9.04937 4.640592,13.91562 c 0.11899,0.41411 0.388107,0.81197 0.625548,1.20764 1.502913,2.04862 4.3607041,2.52971 6.3719715,1.0542 z" style="font-size:medium;font-style:normal;font-variant:normal;font-weight:normal;font-stretch:normal;text-indent:0;text-align:start;text-decoration:none;line-height:normal;letter-spacing:normal;word-spacing:normal;text-transform:none;direction:ltr;block-progression:tb;writing-mode:lr-tb;text-anchor:start;color:#000000;fill:#fee46e;fill-opacity:1;fill-rule:nonzero;stroke:none;stroke-width:1.14464498;marker:none;visibility:visible;display:inline;overflow:visible;enable-background:accumulate;font-family:Bitstream Vera Sans;-inkscape-font-specification:Bitstream Vera Sans"/>
                <path style="font-size:medium;font-style:normal;font-variant:normal;font-weight:normal;font-stretch:normal;text-indent:0;text-align:start;text-decoration:none;line-height:normal;letter-spacing:normal;word-spacing:normal;text-transform:none;direction:ltr;block-progression:tb;writing-mode:lr-tb;text-anchor:start;color:#000000;fill:#fee46e;fill-opacity:1;fill-rule:nonzero;stroke:none;stroke-width:1.14464498;marker:none;visibility:visible;display:inline;overflow:visible;enable-background:accumulate;font-family:Bitstream Vera Sans;-inkscape-font-specification:Bitstream Vera Sans" d="m -34.866693,517.08516 c 2.043298,-1.43083 4.889793,-0.8869 6.347196,1.19436 0.195466,0.27914 0.353218,0.56713 0.480041,0.86854 l 0.147984,0.35774 4.343638,13.15768 -11.021718,-7.94307 -0.402539,-0.28201 c -0.35396,-0.24568 -0.644298,-0.62832 -0.942754,-0.98026 -1.457403,-2.08126 -0.995145,-4.94216 1.048152,-6.37298 z" id="path4803"/>
              </g>
              <path style="font-size:medium;font-style:normal;font-variant:normal;font-weight:normal;font-stretch:normal;text-indent:0;text-align:start;text-decoration:none;line-height:normal;letter-spacing:normal;word-spacing:normal;text-transform:none;direction:ltr;block-progression:tb;writing-mode:lr-tb;text-anchor:start;color:#000000;fill:#feeb95;fill-opacity:1;fill-rule:nonzero;stroke:none;stroke-width:1.14464498;marker:none;visibility:visible;display:inline;overflow:visible;enable-background:accumulate;font-family:Bitstream Vera Sans;-inkscape-font-specification:Bitstream Vera Sans" d="m -20.399749,514.78973 c -1.738462,0 -3.146029,1.44843 -3.146029,3.2192 0,0.23749 0.02507,0.46496 0.07316,0.68773 l 0.05852,0.26338 2.870796,8.9761 3.026176,-8.66881 0.11706,-0.32193 c 0.103851,-0.28174 0.116636,-0.61624 0.146326,-0.93647 0,-1.77077 -1.407564,-3.2192 -3.146027,-3.2192 z" id="path4829"/>
              <path id="path4831" d="m -20.399782,559.66012 c -1.738462,0 -3.146029,-1.44843 -3.146029,-3.2192 0,-0.23749 0.02507,-0.46496 0.07316,-0.68772 l 0.05852,-0.26339 2.893441,-9.40638 3.003531,9.0991 0.11706,0.32192 c 0.103851,0.28175 0.116636,0.61625 0.146326,0.93647 0,1.77077 -1.407564,3.2192 -3.146027,3.2192 z" style="font-size:medium;font-style:normal;font-variant:normal;font-weight:normal;font-stretch:normal;text-indent:0;text-align:start;text-decoration:none;line-height:normal;letter-spacing:normal;word-spacing:normal;text-transform:none;direction:ltr;block-progression:tb;writing-mode:lr-tb;text-anchor:start;color:#000000;fill:#feeb95;fill-opacity:1;fill-rule:nonzero;stroke:none;stroke-width:1.14464498;marker:none;visibility:visible;display:inline;overflow:visible;enable-background:accumulate;font-family:Bitstream Vera Sans;-inkscape-font-specification:Bitstream Vera Sans"/>
              <path id="path4833" d="m -7.0011347,518.87134 c -1.4047868,-1.02412 -3.3954543,-0.68289 -4.4386003,0.748 -0.139907,0.19191 -0.253652,0.39049 -0.346021,0.59883 l -0.107864,0.24732 -3.110702,8.97478 7.6948056,-5.25258 0.2842342,-0.19118 c 0.2499006,-0.16649 0.4572873,-0.42927 0.6699246,-0.67053 1.043145,-1.4309 0.7590097,-3.43052 -0.6457771,-4.45464 z" style="font-size:medium;font-style:normal;font-variant:normal;font-weight:normal;font-stretch:normal;text-indent:0;text-align:start;text-decoration:none;line-height:normal;letter-spacing:normal;word-spacing:normal;text-transform:none;direction:ltr;block-progression:tb;writing-mode:lr-tb;text-anchor:start;color:#000000;fill:#feeb95;fill-opacity:1;fill-rule:nonzero;stroke:none;stroke-width:1.14464498;marker:none;visibility:visible;display:inline;overflow:visible;enable-background:accumulate;font-family:Bitstream Vera Sans;-inkscape-font-specification:Bitstream Vera Sans"/>
              <path style="font-size:medium;font-style:normal;font-variant:normal;font-weight:normal;font-stretch:normal;text-indent:0;text-align:start;text-decoration:none;line-height:normal;letter-spacing:normal;word-spacing:normal;text-transform:none;direction:ltr;block-progression:tb;writing-mode:lr-tb;text-anchor:start;color:#000000;fill:#feeb95;fill-opacity:1;fill-rule:nonzero;stroke:none;stroke-width:1.14464498;marker:none;visibility:visible;display:inline;overflow:visible;enable-background:accumulate;font-family:Bitstream Vera Sans;-inkscape-font-specification:Bitstream Vera Sans" d="m -33.757662,555.59048 c -1.404788,-1.02411 -1.688923,-3.02374 -0.645777,-4.45461 0.139906,-0.19192 0.294159,-0.36096 0.464264,-0.51263 l 0.202456,-0.17835 7.694458,-5.83505 -2.748311,9.06061 -0.09505,0.32911 c -0.08207,0.28884 -0.26879,0.56668 -0.433444,0.84293 -1.043145,1.43088 -3.033812,1.77213 -4.438599,0.74799 z" id="path4835"/>
              <path id="path4837" d="m 0.75581571,530.46468 c -0.53499474,-1.6541 -2.34630171,-2.54761 -4.03112371,-2.00266 -0.2259687,0.0731 -0.4346811,0.16691 -0.6318454,0.28126 l -0.2325938,0.13672 -7.9434808,5.49123 9.4658424,0.21412 0.3423211,0.0123 c 0.3000433,0.0122 0.6222495,-0.0787 0.9360747,-0.14896 1.68482204,-0.54494 2.6298001,-2.32995 2.09480551,-3.98404 z" style="font-size:medium;font-style:normal;font-variant:normal;font-weight:normal;font-stretch:normal;text-indent:0;text-align:start;text-decoration:none;line-height:normal;letter-spacing:normal;word-spacing:normal;text-transform:none;direction:ltr;block-progression:tb;writing-mode:lr-tb;text-anchor:start;color:#000000;fill:#feeb95;fill-opacity:1;fill-rule:nonzero;stroke:none;stroke-width:1.14464498;marker:none;visibility:visible;display:inline;overflow:visible;enable-background:accumulate;font-family:Bitstream Vera Sans;-inkscape-font-specification:Bitstream Vera Sans"/>
              <path style="font-size:medium;font-style:normal;font-variant:normal;font-weight:normal;font-stretch:normal;text-indent:0;text-align:start;text-decoration:none;line-height:normal;letter-spacing:normal;word-spacing:normal;text-transform:none;direction:ltr;block-progression:tb;writing-mode:lr-tb;text-anchor:start;color:#000000;fill:#feeb95;fill-opacity:1;fill-rule:nonzero;stroke:none;stroke-width:1.14464498;marker:none;visibility:visible;display:inline;overflow:visible;enable-background:accumulate;font-family:Bitstream Vera Sans;-inkscape-font-specification:Bitstream Vera Sans" d="m -41.695133,544.68319 c -0.534994,-1.65411 0.409984,-3.43909 2.094806,-3.98403 0.225968,-0.0731 0.450107,-0.11924 0.676876,-0.14203 l 0.268618,-0.0254 9.586704,-0.17802 -7.479595,5.69423 -0.270271,0.21047 c -0.236125,0.18552 -0.550464,0.30061 -0.846015,0.42741 -1.684822,0.54494 -3.496129,-0.34859 -4.031123,-2.00269 z" id="path4839"/>
              <path style="font-size:medium;font-style:normal;font-variant:normal;font-weight:normal;font-stretch:normal;text-indent:0;text-align:start;text-decoration:none;line-height:normal;letter-spacing:normal;word-spacing:normal;text-transform:none;direction:ltr;block-progression:tb;writing-mode:lr-tb;text-anchor:start;color:#000000;fill:#feeb95;fill-opacity:1;fill-rule:nonzero;stroke:none;stroke-width:1.14464498;marker:none;visibility:visible;display:inline;overflow:visible;enable-background:accumulate;font-family:Bitstream Vera Sans;-inkscape-font-specification:Bitstream Vera Sans" d="m 0.66865347,544.92347 c 0.55582323,-1.64721 -0.36655676,-3.44397 -2.04436887,-4.01013 -0.2250285,-0.076 -0.4485677,-0.12492 -0.6750299,-0.15057 l -0.268277,-0.0288 -9.8100527,-0.30114 7.6335083,5.79034 0.2675949,0.21385 c 0.2337653,0.18848 0.5466255,0.30755 0.8405532,0.43806 1.677812,0.56615 3.50024899,-0.30445 4.05607207,-1.95166 z" id="path4841"/>
              <path id="path4845" d="m -6.8701917,556.00315 c 1.4017182,-1.02831 1.6798633,-3.02879 0.6324394,-4.45653 -0.1404831,-0.19148 -0.2952398,-0.36007 -0.4657963,-0.51126 l -8.2775944,-6.30676 3.234169,9.6982 c 0.08292,0.28859 0.270483,0.56589 0.435963,0.84164 1.047425,1.42775 3.0391063,1.76304 4.4408193,0.73471 z" style="font-size:medium;font-style:normal;font-variant:normal;font-weight:normal;font-stretch:normal;text-indent:0;text-align:start;text-decoration:none;line-height:normal;letter-spacing:normal;word-spacing:normal;text-transform:none;direction:ltr;block-progression:tb;writing-mode:lr-tb;text-anchor:start;color:#000000;fill:#feeb95;fill-opacity:1;fill-rule:nonzero;stroke:none;stroke-width:1.14464498;marker:none;visibility:visible;display:inline;overflow:visible;enable-background:accumulate;font-family:Bitstream Vera Sans;-inkscape-font-specification:Bitstream Vera Sans"/>
              <path style="font-size:medium;font-style:normal;font-variant:normal;font-weight:normal;font-stretch:normal;text-indent:0;text-align:start;text-decoration:none;line-height:normal;letter-spacing:normal;word-spacing:normal;text-transform:none;direction:ltr;block-progression:tb;writing-mode:lr-tb;text-anchor:start;color:#000000;fill:#feeb95;fill-opacity:1;fill-rule:nonzero;stroke:none;stroke-width:1.14464498;marker:none;visibility:visible;display:inline;overflow:visible;enable-background:accumulate;font-family:Bitstream Vera Sans;-inkscape-font-specification:Bitstream Vera Sans" d="m -33.825441,518.53026 c 1.424036,-0.9972 3.407845,-0.61812 4.423552,0.83238 0.136227,0.19454 0.246169,0.39525 0.334555,0.60531 l 0.103135,0.24933 3.027212,9.16998 -7.681367,-5.53576 -0.280542,-0.19655 c -0.246685,-0.17123 -0.44903,-0.43789 -0.657034,-0.68318 -1.015708,-1.45049 -0.693546,-3.44433 0.730489,-4.44151 z" id="path4847"/>
            </g>
          </g>
        </g>
      </g>
      <g id="g3884">
        <path id="path3852" d="m 385.18152,219.28667 -16.32904,164.00556 0.0238,0 c -0.78197,6.4347 2.28628,12.98909 8.24795,16.30521 7.82005,4.34981 17.6285,1.46978 21.93097,-6.43627 l 0.0477,-0.0953 c 1.79923,-3.34945 2.09,-7.0484 1.71633,-10.53641 L 385.18152,219.28667 z" style="fill:#fee46e;fill-opacity:1;fill-rule:nonzero;stroke:none"/>
        <path style="fill:#fee46e;fill-opacity:1;fill-rule:nonzero;stroke:none" d="m 385.18152,691.32211 -16.32904,-164.00556 0.0238,0 c -0.78197,-6.4347 2.28628,-12.98909 8.24795,-16.30521 7.82005,-4.34981 17.6285,-1.46978 21.93097,6.43627 l 0.0477,0.0953 c 1.79923,3.34945 2.09,7.0484 1.71633,10.53641 l -15.63774,163.24273 z" id="path3854"/>
        <path style="fill:#fee46e;fill-opacity:1;fill-rule:nonzero;stroke:none" d="m 620.87675,455.62688 -164.00556,-16.32904 0,0.0238 c -6.4347,-0.78197 -12.98909,2.28628 -16.30521,8.24795 -4.34981,7.82005 -1.46978,17.6285 6.43627,21.93097 l 0.0953,0.0477 c 3.34945,1.79923 7.0484,2.09 10.53641,1.71633 l 163.24273,-15.63774 z" id="path3856"/>
        <path id="path3858" d="m 148.84131,455.62688 164.00556,-16.32904 0,0.0238 c 6.4347,-0.78197 12.98909,2.28628 16.30521,8.24795 4.34981,7.82005 1.46978,17.6285 -6.43627,21.93097 l -0.0953,0.0477 c -3.34945,1.79923 -7.0484,2.09 -10.53641,1.71633 L 148.84133,455.62687 z" style="fill:#fee46e;fill-opacity:1;fill-rule:nonzero;stroke:none"/>
        <path style="fill:#fee46e;fill-opacity:1;fill-rule:nonzero;stroke:none" d="m 218.53523,288.48877 104.42306,127.5158 0.0169,-0.0169 c 3.9971,5.10296 10.80133,7.56803 17.36171,5.69734 8.60538,-2.45381 13.50452,-11.42592 10.9564,-20.05866 l -0.0337,-0.1012 c -1.09616,-3.64067 -3.5061,-6.46183 -6.23673,-8.664 L 218.53531,288.48868 z" id="path3860"/>
        <path id="path3862" d="m 551.67465,621.62819 -127.5158,-104.42306 0.0169,-0.0169 c -5.10296,-3.99708 -7.56803,-10.80132 -5.69734,-17.36171 2.45381,-8.60537 11.42592,-13.50451 20.05866,-10.9564 l 0.1012,0.0337 c 3.64067,1.09616 6.46183,3.5061 8.664,6.23672 l 104.37249,126.48761 z" style="fill:#fee46e;fill-opacity:1;fill-rule:nonzero;stroke:none"/>
        <path id="path3864" d="m 551.67465,288.98057 -127.5158,104.42307 0.0169,0.0169 c -5.10297,3.99709 -7.56803,10.80133 -5.69734,17.36171 2.45381,8.60538 11.42592,13.50452 20.05866,10.95641 l 0.1012,-0.0337 c 3.64067,-1.09616 6.46183,-3.5061 8.664,-6.23672 L 551.67475,288.98066 z" style="fill:#fee46e;fill-opacity:1;fill-rule:nonzero;stroke:none"/>
        <path style="fill:#fee46e;fill-opacity:1;fill-rule:nonzero;stroke:none" d="m 218.53523,622.12001 104.42306,-127.5158 0.0169,0.0169 c 3.9971,-5.10296 10.80133,-7.56802 17.36171,-5.69734 8.60538,2.45382 13.50452,11.42593 10.9564,20.05867 l -0.0337,0.1012 c -1.09615,3.64069 -3.50609,6.46185 -6.23672,8.66401 L 218.53531,622.12011 z" id="path3866"/>
        <path style="fill:#fee46e;fill-opacity:1;fill-rule:nonzero;stroke:none" d="m 473.41684,239.80574 -54.53054,101.95809 0.0154,0.008 c -2.23109,3.96244 -1.99798,9.03408 0.97876,12.78146 3.90465,4.91553 11.03564,5.67633 15.94352,1.70321 l 0.0564,-0.049 c 2.06399,-1.68954 3.24361,-4.00984 3.9359,-6.37143 l 33.60061,-110.02888 z" id="path3868"/>
        <path id="path3870" d="m 296.9302,670.56566 33.35664,-110.70847 0.0155,0.008 c 1.21712,-4.38146 4.96261,-7.80891 9.71639,-8.36154 6.23562,-0.72493 11.82329,3.77042 12.49445,10.04912 l 0.005,0.0745 c 0.2691,2.65372 -0.53347,5.12985 -1.71032,7.29118 l -53.87806,101.64849 z" style="fill:#fee46e;fill-opacity:1;fill-rule:nonzero;stroke:none"/>
        <path id="path3872" d="m 600.05609,365.70091 -110.48995,34.07343 0.008,0.0154 c -4.3735,1.2455 -7.77658,5.01312 -8.29841,9.77038 -0.68449,6.24018 3.84697,11.79861 10.1299,12.42906 l 0.0746,0.005 c 2.65541,0.25189 5.12627,-0.56671 7.27994,-1.75754 l 101.29742,-54.53563 z" style="fill:#fee46e;fill-opacity:1;fill-rule:nonzero;stroke:none"/>
        <path style="fill:#fee46e;fill-opacity:1;fill-rule:nonzero;stroke:none" d="m 170.31961,544.64174 101.60252,-55.1902 0.008,0.0154 c 3.9479,-2.25674 9.02094,-2.05649 12.78755,0.89589 4.94072,3.87271 5.74773,10.99864 1.8065,15.93215 l -0.0486,0.0568 c -1.67613,2.07489 -3.98874,3.26952 -6.34579,3.97712 l -109.80939,34.31286 z" id="path3874"/>
        <path style="fill:#fee46e;fill-opacity:1;fill-rule:nonzero;stroke:none" d="m 599.96207,544.91098 -101.57886,-55.23375 -0.008,0.0155 c -3.94692,-2.25844 -9.02005,-2.06036 -12.78793,0.89042 -4.94237,3.87057 -5.75243,10.99614 -1.81332,15.93136 l 0.0486,0.0568 c 1.67522,2.07562 3.98732,3.27125 6.34408,3.97986 l 109.79387,34.3599 z" id="path3876"/>
        <path id="path3878" d="m 170.45236,365.43171 110.47537,34.12079 -0.008,0.0154 c 4.37293,1.24738 7.77441,5.01647 8.2942,9.77395 0.68181,6.24047 -3.85202,11.79693 -10.13523,12.42471 l -0.0747,0.004 c -2.65551,0.25074 -5.12604,-0.56893 -7.27917,-1.76067 L 170.45155,365.43106 z" style="fill:#fee46e;fill-opacity:1;fill-rule:nonzero;stroke:none"/>
        <path id="path3880" d="m 473.82849,670.41489 -33.63255,-110.62498 -0.0154,0.008 c -1.22805,-4.3784 -4.98204,-7.7965 -9.7372,-8.3373 -6.23741,-0.70935 -11.81385,3.7999 -12.46936,10.08027 l -0.005,0.0746 c -0.26246,2.65437 0.54628,5.12847 1.7285,7.28688 l 54.13122,101.51411 z" style="fill:#fee46e;fill-opacity:1;fill-rule:nonzero;stroke:none"/>
        <path style="fill:#fee46e;fill-opacity:1;fill-rule:nonzero;stroke:none" d="m 296.61457,239.95646 54.78458,101.82181 -0.0154,0.008 c 2.24097,3.95686 2.02049,9.02907 -0.9469,12.78387 -3.89239,4.92521 -11.02147,5.7038 -15.9392,1.74294 l -0.0564,-0.0489 c -2.0682,-1.68438 -3.2536,-4.00174 -3.95179,-6.36157 L 296.61457,239.95646 z" id="path3882"/>
      </g>
      <path id="path3904" d="m 385.04321,289.74619 -9.32647,93.6731 0.0136,0 c -0.44662,3.67523 1.30582,7.41883 4.71088,9.31286 4.46649,2.48442 10.06866,0.83946 12.52606,-3.67614 l 0.0271,-0.0545 c 1.02765,-1.91308 1.19372,-4.02576 0.98029,-6.01796 l -8.93152,-93.2374 z" style="fill:#feeb95;fill-opacity:1;fill-rule:nonzero;stroke:none"/>
      <path style="fill:#feeb95;fill-opacity:1;fill-rule:nonzero;stroke:none" d="m 385.04321,620.86259 -9.32647,-93.67309 0.0136,0 c -0.44662,-3.67524 1.30582,-7.41884 4.71088,-9.31286 4.46649,-2.48443 10.06866,-0.83948 12.52606,3.67613 l 0.0271,0.0545 c 1.02765,1.91307 1.19372,4.02576 0.98029,6.01796 l -8.93162,93.23741 z" id="path3906"/>
      <path style="fill:#feeb95;fill-opacity:1;fill-rule:nonzero;stroke:none" d="m 550.41723,455.48858 -93.67311,-9.32647 0,0.0136 c -3.67522,-0.44662 -7.41882,1.30582 -9.31285,4.71089 -2.48442,4.46648 -0.83947,10.06865 3.67614,12.52604 l 0.0545,0.0272 c 1.91308,1.02764 4.02575,1.19371 6.01796,0.98029 l 93.23738,-8.93159 z" id="path3908"/>
      <path id="path3910" d="m 219.30082,455.48858 93.6731,-9.32647 0,0.0136 c 3.67524,-0.44662 7.41884,1.30582 9.31286,4.71089 2.48442,4.46648 0.83947,10.06865 -3.67613,12.52604 l -0.0545,0.0272 c -1.91306,1.02764 -4.02576,1.19371 -6.01796,0.98029 l -93.23742,-8.93165 z" style="fill:#feeb95;fill-opacity:1;fill-rule:nonzero;stroke:none"/>
      <path style="fill:#feeb95;fill-opacity:1;fill-rule:nonzero;stroke:none" d="m 268.71277,338.81396 59.64207,72.83169 0.01,-0.01 c 2.28296,2.91459 6.16926,4.32254 9.91628,3.25408 4.91504,-1.4015 7.71321,-6.52601 6.25784,-11.45666 l -0.0192,-0.0578 c -0.62608,-2.0794 -2.00254,-3.69073 -3.56215,-4.94852 l -72.24442,-59.6132 z" id="path3912"/>
      <path id="path3914" d="m 501.34946,571.45066 -72.83168,-59.64209 0.01,-0.01 c -2.91461,-2.28296 -4.32255,-6.16926 -3.25409,-9.91628 1.40151,-4.91503 6.52601,-7.7132 11.45666,-6.25784 l 0.0578,0.0192 c 2.0794,0.62608 3.69072,2.00254 4.9485,3.56215 l 59.61317,72.24448 z" style="fill:#feeb95;fill-opacity:1;fill-rule:nonzero;stroke:none"/>
      <path id="path3916" d="m 501.34945,339.15813 -72.83168,59.64207 0.01,0.01 c -2.9146,2.28296 -4.32254,6.16926 -3.25408,9.91627 1.4015,4.91504 6.52601,7.71322 11.45665,6.25785 l 0.0578,-0.0192 c 2.0794,-0.62608 3.69073,-2.00254 4.94851,-3.56217 l 59.61321,-72.2444 z" style="fill:#feeb95;fill-opacity:1;fill-rule:nonzero;stroke:none"/>
      <path style="fill:#feeb95;fill-opacity:1;fill-rule:nonzero;stroke:none" d="m 268.71277,571.79482 59.64207,-72.83169 0.01,0.01 c 2.28296,-2.9146 6.16926,-4.32254 9.91628,-3.25408 4.91504,1.40151 7.71321,6.52602 6.25784,11.45667 l -0.0192,0.0578 c -0.62607,2.07941 -2.00254,3.69074 -3.56215,4.94852 l -72.24441,59.61316 z" id="path3918"/>
      <path style="fill:#feeb95;fill-opacity:1;fill-rule:nonzero;stroke:none" d="m 449.7832,294.29543 -27.12596,50.71858 0.008,0.005 c -1.10986,1.97111 -0.99389,4.49397 0.48687,6.35809 1.94234,2.44519 5.48962,2.82365 7.93103,0.84725 l 0.0281,-0.0243 c 1.0267,-0.84046 1.6135,-1.99469 1.95788,-3.16944 l 16.71448,-54.73337 z" id="path3920"/>
      <path id="path3922" d="m 320.36401,616.10376 16.59312,-55.07142 0.008,0.005 c 0.60545,-2.17955 2.46861,-3.8845 4.83336,-4.15942 3.10189,-0.36061 5.88144,1.87558 6.2153,4.9989 l 0.005,0.0371 c 0.13386,1.32008 -0.26537,2.55182 -0.8508,3.62696 L 320.3663,616.1053 z" style="fill:#feeb95;fill-opacity:1;fill-rule:nonzero;stroke:none"/>
      <path id="path3924" d="m 545.62798,389.54545 -54.96272,16.94967 0.005,0.008 c -2.17557,0.61957 -3.86841,2.49375 -4.12798,4.86025 -0.34051,3.10413 1.91365,5.86914 5.03907,6.18276 l 0.0372,0.005 c 1.32092,0.12531 2.55005,-0.2819 3.62136,-0.87429 l 50.38995,-27.12848 z" style="fill:#feeb95;fill-opacity:1;fill-rule:nonzero;stroke:none"/>
      <path style="fill:#feeb95;fill-opacity:1;fill-rule:nonzero;stroke:none" d="m 224.58134,520.79147 50.5417,-27.45411 0.005,0.008 c 1.96387,-1.12262 4.48744,-1.023 6.36111,0.44564 2.45774,1.92647 2.8592,5.47123 0.89864,7.92537 l -0.0241,0.0284 c -0.83378,1.03214 -1.98418,1.62642 -3.15668,1.97841 l -54.62419,17.06878 z" id="path3926"/>
      <path style="fill:#feeb95;fill-opacity:1;fill-rule:nonzero;stroke:none" d="m 545.57674,521.01036 -50.52994,-27.47578 -0.005,0.008 c -1.96339,-1.12346 -4.48697,-1.02492 -6.3613,0.44293 -2.45855,1.92539 -2.86152,5.46998 -0.90202,7.92498 l 0.0242,0.0284 c 0.83335,1.03249 1.98349,1.62725 3.15582,1.97975 l 54.61648,17.09218 z" id="path3928"/>
      <path id="path3930" d="m 224.7145,389.3265 54.95547,16.97322 -0.004,0.008 c 2.17531,0.6205 3.86738,2.49542 4.12593,4.86201 0.33916,3.10429 -1.91616,5.86832 -5.04173,6.18062 l -0.0372,0.005 c -1.32097,0.12473 -2.54992,-0.28301 -3.62099,-0.87582 l -50.37806,-27.15024 z" style="fill:#feeb95;fill-opacity:1;fill-rule:nonzero;stroke:none"/>
      <path id="path3932" d="m 450.14629,615.99585 -16.73037,-55.0299 -0.008,0.005 c -0.6109,-2.178 -2.4783,-3.87832 -4.84374,-4.14733 -3.10275,-0.35286 -5.87673,1.89024 -6.20282,5.01438 l -0.005,0.0371 c -0.13055,1.32039 0.27175,2.55113 0.85984,3.62483 l 26.92732,50.49772 z" style="fill:#feeb95;fill-opacity:1;fill-rule:nonzero;stroke:none"/>
      <path style="fill:#feeb95;fill-opacity:1;fill-rule:nonzero;stroke:none" d="m 320.20695,294.40298 27.25232,50.65079 -0.008,0.005 c 1.11476,1.96832 1.00508,4.49147 -0.47104,6.35927 -1.93626,2.45003 -5.48257,2.83732 -7.92889,0.86701 l -0.0281,-0.0243 c -1.02879,-0.83788 -1.61847,-1.99065 -1.96579,-3.16453 l -16.85105,-54.693 z" id="path3934"/>
    </g>
  </g>
</svg>