<?xml version="1.0" encoding="UTF-8"?>
<svg xmlns="http://www.w3.org/2000/svg" xmlns:xlink="http://www.w3.org/1999/xlink" width="600" height="390">
	<rect width="600" height="390" fill="#0b216a"/>
	<g id="france">
		<path id="fleur" d="M 64.219,21.454 C 53.328,31.766 46.119,46.437 56.073,68.115 C 58.983,75.253 60.485,84.384 60.406,93.046 L 58.153,93.046 C 56.255,76.894 51.654,56.492 34.409,56.492 C 27.032,56.492 21.67,62.841 21.67,68.62 C 21.67,77.895 27.39,84.871 38.915,88.666 C 37.169,83.696 35.784,75.948 40.908,75.948 C 48.82,75.948 52.422,85.213 52.52,93.046 L 51.74,93.046 C 50.204,93.046 48.967,94.248 48.967,95.741 C 48.967,97.234 50.204,98.436 51.74,98.436 L 57.287,98.436 C 54.642,105.227 49.988,107.831 46.194,109.638 C 51.999,112.309 58.624,109.419 59.886,108.038 C 59.733,109.968 59.681,115.211 60.406,118.734 C 60.897,121.576 62.121,123.205 64.219,125.472 C 66.318,123.205 67.541,121.576 68.032,118.734 C 68.757,115.211 68.532,109.968 68.379,108.038 C 69.641,109.419 76.44,112.309 82.244,109.638 C 78.45,107.831 73.797,105.225 71.152,98.436 L 76.698,98.436 C 78.234,98.436 79.471,97.234 79.471,95.741 C 79.471,94.248 78.234,93.046 76.698,93.046 L 75.832,93.046 C 75.93,85.213 79.532,75.948 87.444,75.948 C 92.568,75.948 91.183,83.696 89.437,88.666 C 100.962,84.871 106.682,77.895 106.682,68.62 C 106.682,62.841 101.32,56.492 93.943,56.492 C 76.698,56.492 72.097,76.894 70.199,93.046 L 67.859,93.046 C 67.78,84.384 69.282,75.253 72.192,68.115 C 82.146,46.437 75.111,31.766 64.219,21.454 z" fill="#ffd700"/>
		<use xlink:href="#fleur" x="172"/>
		<use xlink:href="#fleur" x="86" y="48"/>
	</g>
	<use xlink:href="#france" x="300" y="195"/>
	<g id="england">
		<rect x="300" width="300" height="195" fill="#a30000"/>
		<use xlink:href="#leopard" y="-60"/>
		<svg id="leopard" width="600" height="390" viewBox="0,0 700,455">
			<g fill="#0139ab" stroke="#000">
				<path d="M 663.966,134.223 c 0,2.76 1.099,5.521 1.648,6.441 .548,.92 .823,2.07 .823,2.07 0,0 1.921,-1.61 1.921,-3.45 0,-1.84 -.549,-4.371 -.549,-4.371"/>
				<path d="M 654.084,134.223 c 0,.23 -1.648,1.38 -1.373,3.45 .274,2.07 1.098,3.68 1.098,3.45 0,-.23 0,-2.07 1.922,-3.22 1.921,-1.15 4.941,-1.84 4.941,-1.84"/>
				<path d="M 652.162,129.393 c -6.314,3.91 -4.117,5.981 -4.117,5.981 0,0 .274,-.92 2.47,-.92 2.196,0 6.314,1.15 6.314,1.15"/>
				<path d="M 552.238,137.674 c -.549,3.68 1.372,5.981 1.372,5.981 0,0 2.196,-1.15 1.922,-4.14 -.275,-2.99 -1.647,-4.601 -1.647,-4.601"/>
				<path d="M 542.355,135.374 c -.275,0 -2.471,1.15 -4.118,2.3 -1.647,1.15 -1.373,2.99 -1.373,2.99 0,0 4.942,-1.84 6.589,-1.61 1.647,.23 2.47,1.15 2.47,1.15"/>
				<path d="M 544.002,129.623 c -4.667,-1.15 -7.962,1.38 -7.686,1.38 .274,0 4.667,0 5.49,1.38 .823,1.38 3.02,2.99 3.02,2.99"/>
				<path d="M 554.159,126.863 c -.549,0 -.549,-1.84 -3.02,-2.07 -2.47,-.23 -4.393,1.15 -4.393,1.15 0,0 5.216,2.76 5.491,2.76 .274,0 1.921,-1.38 1.921,-1.84 z"/>
				<path d="M 390.03,96.875 c .388,-1.952 -.485,-5.124 -.485,-5.124 0,0 1.747,-.163 3.494,1.301 1.747,1.464 .971,3.822 .971,3.822"/>
				<path d="M 379.839,96.143 c .388,-3.985 -2.621,-5.042 -2.718,-5.042 -.097,0 2.815,-.732 4.756,0 1.941,.732 2.718,4.392 2.718,4.392"/>
				<path d="M 371.492,97.363 c -2.329,-3.578 -4.465,-2.765 -4.465,-2.765 0,0 1.747,-1.383 4.173,-.976 2.426,.407 4.562,2.277 4.562,2.196"/>
				<path d="M 373.821,105.332 c -2.135,.976 -2.718,1.383 -4.465,1.139 -1.747,-.244 -3.106,-.325 -3.106,-.325 0,0 1.068,-2.846 2.426,-3.172 1.359,-.325 3.785,-.244 3.785,-.244"/>
				<path d="M 380.115,123.182 c 0,-1.84 -1.373,-2.76 -1.373,-2.76 0,0 1.922,-1.15 3.843,.46 1.922,1.61 2.745,4.14 2.745,4.14"/>
				<path d="M 372.172,125.745 c -.097,0 -.971,-1.383 -2.232,-1.871 -1.262,-.488 -2.426,-.569 -2.038,-.569 .388,0 0,-.976 2.718,-.976 2.718,0 4.465,.732 4.465,.732"/>
				<path d="M 371.104,129.893 c -5.921,-.325 -6.503,2.684 -6.309,2.765 .194,.081 2.426,.976 3.785,1.057 1.359,.081 2.524,0 2.524,0"/>
				<path d="M 373.821,136.887 c -3.009,3.497 -2.426,5.367 -2.135,5.367 .291,0 1.359,-.488 2.912,-1.464 1.553,-.976 2.621,-2.846 2.621,-2.846"/>
			</g>
			<g fill="#ffd128" stroke="#000">
				<path d="M 376.272,129.393 c .275,0 1.373,-7.361 5.216,-6.901 3.843,.46 2.471,.46 3.843,.92 1.373,.46 4.118,5.521 4.118,5.521"/>
				<path d="M 653.538,133.717 c -.583,-.325 -5.047,-2.277 -2.718,-3.904 2.329,-1.626 16.112,-.325 16.112,-.325"/>
				<path d="M 562.887,133.229 c -1.553,-.488 -3.3,-.651 -5.241,-3.253 -1.941,-2.602 -.776,-2.602 -1.553,-3.253 -.776,-.651 -2.33,-.325 -5.047,.163 -2.718,.488 -1.941,5.693 -1.941,5.693"/>
				<path d="M 585.987,112.084 c -1.553,.488 -14.947,5.855 -14.559,8.783 .389,2.928 8.542,4.554 8.348,6.343 -.195,1.789 -7.765,3.09 -14.753,3.253 -6.988,.163 -8.93,1.139 -13.006,.488 -4.076,-.651 -10.093,-3.904 -11.258,-.163 -1.165,3.741 .388,3.904 .388,3.904 0,0 -.97,1.952 0,3.578 .971,1.626 1.942,2.602 4.464,2.602 2.524,0 3.3,-1.301 3.3,-1.301 0,0 .388,1.626 4.852,1.789 4.465,.163 5.824,-1.627 6.018,-1.627 .194,0 3.882,.651 5.629,.325 1.747,-.325 4.076,-1.139 4.076,-1.139 0,0 -1.941,2.277 -1.747,2.277 .194,0 3.882,-.163 7.764,-.651 3.882,-.488 6.794,-2.602 6.6,-2.602 -.194,0 -3.3,2.928 1.553,2.765 4.853,-.163 7.183,-3.253 10.676,-2.928 3.494,.325 5.435,-.325 5.435,-.325 0,0 .971,-1.301 2.136,-1.952 1.165,-.651 2.524,-.813 2.524,-.813 0,0 3.106,-.325 3.106,-.488 0,-.163 0,-4.066 0,-4.066 0,0 -5.047,-.325 -5.047,-3.253 0,-2.928 13.588,-6.018 13.588,-6.018 l -30.087,-8.783 z"/>
				<path d="M 389.933,110.132 c .776,-13.337 5.047,-7.807 5.047,-10.735 0,-2.928 -1.747,-4.88 -3.106,-4.88 -3.106,0 -10.87,5.53 -10.87,5.53"/>
				<path d="M 444.09,119.241 c -1.941,-.487 -32.029,-3.903 -42.122,-7.156 -10.094,-3.253 -14.364,-8.458 -15.141,-11.06 -.776,-2.602 1.165,-6.831 -4.659,-6.831 -5.823,0 -2.718,4.229 -2.718,4.229 0,0 -4.659,-6.831 -8.153,-2.928 -3.494,3.904 4.271,6.831 4.271,6.831 0,0 -7.512,-2.621 -5.629,1.626 3.164,7.138 8.347,4.554 9.123,6.181 .776,1.627 -3.882,3.253 -3.106,3.578 .776,.325 3.882,1.464 5.823,1.789 1.941,.325 4.659,.813 4.659,.813 l -2.912,1.951 c 0,0 5.435,3.253 8.153,4.066 2.718,.813 6.212,0 6.017,0 -.194,0 -5.047,1.789 -5.047,1.789 0,0 2.718,1.301 5.629,1.626 2.912,.325 5.435,.488 5.435,.488 l -3.106,1.139 41.928,6.994 1.553,-15.127 z"/>
				<path d="M 446.808,116.639 c -.971,.163 -18.829,11.06 -37.658,11.548 -18.829,.488 -29.505,-.325 -29.505,-.325 0,0 -2.718,-7.482 -7.376,-4.066 -4.659,3.416 -.971,4.717 -.971,4.717 0,0 .776,-.163 1.941,.651 1.165,.813 1.941,1.789 1.941,1.789 0,0 -6.212,-4.229 -6.212,.813 0,5.042 4.076,3.253 3.882,3.253 -.194,0 -.971,4.392 0,4.554 .971,.163 4.853,.976 6.988,.651 2.135,-.325 1.941,-1.301 2.524,-1.464 .582,-.163 3.882,-1.301 4.465,-.813 .582,.488 -3.688,3.578 -2.912,3.578 .776,0 7.182,0 9.123,-1.301 1.941,-1.301 2.912,-3.253 3.106,-3.09 .194,.163 -3.3,3.904 -2.912,3.904 .388,0 7.376,.651 9.123,.163 1.747,-.488 3.494,-2.114 3.494,-2.114 0,0 -1.165,1.952 -.776,2.114 .388,.163 3.882,.325 7.182,-.651 3.3,-.976 4.659,-1.789 4.659,-1.789 l -.971,2.277 c 0,0 5.047,-.163 7.959,-1.952 2.912,-1.789 4.271,-1.952 4.271,-1.952 0,0 -2.912,2.765 -2.524,2.765 .388,0 5.629,-.163 7.959,-.813 2.329,-.651 4.659,-1.139 4.659,-1.139 0,0 -2.718,2.277 -2.524,2.277 .194,0 3.882,.163 8.541,-.813 4.659,-.976 7.959,-2.115 7.959,-2.115 0,0 -5.435,3.253 -4.27,3.253 1.165,0 8.153,.163 11.646,-.976 3.494,-1.139 4.271,-2.277 4.271,-2.277 0,0 11.258,.325 13.588,-1.139 2.329,-1.464 1.747,-2.114 1.553,-1.952 -.194,.163 6.794,.976 10.481,1.464 3.688,.488 11.453,.651 16.694,-.163 5.24,-.813 62.31,-19.518 72.792,-19.193 10.482,.325 12.423,2.44 15.529,2.277 3.106,-.163 4.853,-.976 4.853,-.813 0,.163 15.335,9.922 36.105,9.271 20.771,-.651 16.694,-1.627 19.994,-1.789 3.3,-.163 7.182,1.626 6.794,3.253 -.388,1.627 -2.136,2.602 -4.27,2.765 -2.136,.163 -4.464,1.301 -4.464,2.928 0,1.626 2.329,3.904 4.852,3.904 2.524,0 3.3,-.813 4.076,-.976 .777,-.163 1.553,1.789 4.853,.976 3.3,-.813 4.27,-1.626 5.046,-1.789 .777,-.163 5.824,-.325 5.824,-.488 0,-.163 .388,-5.367 .388,-5.367 0,0 5.435,-.325 5.435,-1.301 0,-.976 -1.941,-3.09 -3.106,-4.066 -1.165,-.976 -2.524,-1.789 -2.524,-1.789 0,0 3.688,1.139 4.464,.976 .777,-.163 2.524,-.813 2.524,-.813 0,0 -2.524,-2.44 -4.464,-3.253 -1.942,-.813 -6.6,-1.627 -6.6,-1.627 0,0 2.718,-.325 4.852,-1.301 2.136,-.976 4.076,-2.277 4.076,-2.44 0,-.163 -5.823,-2.928 -10.287,-2.602 -4.464,.325 -10.676,3.416 -18.247,3.416 -7.57,0 -15.723,-3.253 -15.723,-3.253 0,0 11.064,0 16.112,-.163 5.046,-.163 15.917,-2.114 15.917,-8.133 0,-6.018 -8.347,-9.271 -28.535,-9.596 -20.187,-.325 -61.056,-.009 -73.812,.797 -20.678,1.307 -40.688,.357 -50.2,.357 -9.512,0 -12.035,-1.139 -12.229,-3.741 -.102,-1.364 4.222,-1.834 8.36,-2.043 1.344,-.068 10.257,-1.287 21.156,-1.271 19.582,.028 45.571,1.328 45.571,1.179 0,-.488 .388,-1.139 .582,-1.139 .194,0 1.553,1.952 3.494,2.114 1.941,.163 5.823,-.325 5.823,-.325 0,0 1.553,1.464 4.27,1.301 2.718,-.163 3.882,-1.301 3.882,-1.301 0,0 1.553,1.139 4.464,.976 2.913,-.163 5.047,-2.277 5.63,-2.277 .582,0 2.718,.325 4.658,-.325 1.941,-.651 10.87,-5.53 10.87,-5.53 0,0 -7.765,1.139 -12.423,1.139 -4.659,0 -7.571,-1.464 -13.394,-.976 -5.823,.488 -12.035,1.952 -15.335,1.789 -2.141,-.105 -28.109,-1.488 -48.109,-1.591 -10.836,-.056 -19.921,1.124 -22.513,1.124 -7.376,0 -13.976,4.066 -14.752,8.783 -.777,4.717 6.356,4.666 14.558,7.157 10.951,3.326 109.842,-1.48 124.595,-1.154 14.753,.325 24.264,.976 24.264,4.554 0,3.578 -9.9,3.741 -17.082,3.578 -7.182,-.163 -23.875,-1.789 -36.105,-1.626 -12.229,.163 -90.845,9.596 -105.015,9.434 -14.171,-.163 -22.906,-.813 -22.906,-.976 0,-.163 -33.97,2.44 -33.97,2.114 z m 141.111,-28.794 c 0,0 .97,1.627 2.329,2.277 1.359,.651 3.3,1.464 3.3,1.464 m 2.524,-3.253 c 0,0 1.359,.163 1.941,.813 .583,.651 1.942,1.464 1.942,1.464 m 5.435,-3.09 c 1.164,0 2.523,1.952 2.523,1.952"/>
				<path d="M 434.057,119.275 c .274,-.23 1.098,-2.415 1.784,-4.025 .686,-1.61 1.922,-3.68 1.922,-3.68 0,0 -2.745,1.035 -2.608,.805 .137,-.23 -.549,-3.45 .961,-5.751 1.51,-2.3 3.02,-3.565 3.02,-4.485 0,-.92 -1.51,-.46 -1.51,-2.3 0,-1.84 -.686,-4.486 1.098,-5.061 1.784,-.575 7.274,3.45 7.274,3.22 0,-.23 -1.235,-5.521 1.099,-5.866 2.333,-.345 5.627,1.84 5.627,1.84 0,0 1.099,-4.6 1.922,-4.6 .823,0 3.02,3.565 3.02,3.565 0,0 2.196,-3.795 3.02,-3.795 .823,0 3.294,4.025 3.294,4.025 0,0 1.235,-3.45 2.883,-3.45 1.647,0 2.882,4.14 2.882,4.14 0,0 1.099,-2.185 2.608,-1.955 1.51,.23 2.745,5.751 2.745,5.751 0,0 3.981,-3.565 6.589,-3.105 2.608,.46 0,5.176 .137,7.246 .137,2.07 2.608,3.105 2.746,4.601 .137,1.495 .137,10.811 0,10.811 -.138,0 -27.589,5.981 -30.746,5.636 -3.157,-.345 -19.628,-3.335 -19.765,-3.565 z"/>
				<path d="M 448.652,108.996 c -1.942,2.685 -9.414,10.249 -10.967,11.55 -1.553,1.301 -5.435,3.253 -5.435,3.253 0,0 1.553,1.952 4.27,1.626 2.718,-.325 6.6,-2.602 6.6,-2.602 0,0 -4.367,2.845 -5.726,4.39 -1.359,1.545 -2.232,4.148 -2.232,4.148 0,0 5.435,-.081 8.735,-2.358 3.3,-2.277 5.435,-4.148 5.338,-4.148 -.097,0 -3.203,2.684 -3.009,4.636 .195,1.952 -.485,3.578 -.388,3.578 .097,0 3.979,-1.383 5.726,-2.521 1.748,-1.139 4.465,-3.741 4.465,-3.741 0,0 -.971,3.334 -.389,4.88 .583,1.545 2.136,3.741 2.039,3.741 -.097,0 2.718,-1.057 4.173,-3.416 1.456,-2.358 1.941,-4.229 1.941,-4.229 0,0 .486,3.253 2.039,4.392 1.553,1.139 8.541,.895 8.541,.895 0,0 -2.427,-.488 -3.203,-2.765 -.777,-2.277 -.486,-4.961 -.486,-4.961 0,0 1.748,3.009 3.397,3.334 1.65,.325 3.009,-.651 4.173,0 1.165,.651 2.718,2.846 2.815,2.765 .097,-.081 3.3,-1.22 1.553,-3.985 -1.747,-2.765 -5.241,-2.928 -7.085,-4.717 -1.845,-1.789 -2.912,-4.554 -2.912,-4.636 0,-.081 1.553,3.985 3.882,4.879 2.329,.895 3.687,1.87 6.988,1.952 3.3,.081 4.949,1.464 4.949,2.602 0,1.139 -.291,1.87 -.291,1.87 0,0 3.785,-.488 3.785,-3.741 0,-3.253 -2.33,-4.554 -4.853,-5.042 -2.524,-.488 -7.182,-1.383 -8.25,-2.358 -1.068,-.976 -1.359,-1.952 -1.359,-1.952 0,0 .388,1.789 2.524,2.358 2.136,.569 4.95,1.708 6.891,1.301 1.942,-.407 6.988,-4.473 6.988,-4.473 0,0 -4.658,-.488 -9.512,-1.626 -4.852,-1.139 -5.977,-5.12 -5.977,-5.12 l -29.74,.241 z"/>
			</g>
			<g fill="none" stroke="#000">
				<path d="M 455.47,122.15 c 0,0 2.058,-1.84 5.353,-1.955 3.294,-.115 7,2.415 7,2.415"/>
				<path d="M 458.489,114.329 c 0,.345 -1.236,2.185 -.961,4.83 .274,2.645 3.98,4.6 3.98,4.6 0,0 3.98,-1.38 4.117,-4.715 .137,-3.335 -.549,-5.175 -.549,-5.175 l -6.588,.46 z" fill="#0139ab"/>
				<path d="M 461.783,114.444 c 0,0 .138,5.981 0,5.981" stroke-linecap="round"/>
				<path d="M 442.156,107.314 c .137,0 2.333,.805 2.333,2.99 0,2.185 .961,5.061 3.981,5.061 3.02,0 4.254,-1.265 4.392,-1.15 .138,.115 2.059,3.565 5.079,3.105 3.02,-.46 3.98,-3.105 3.98,-3.105 0,0 1.647,3.45 3.98,3.105 2.333,-.345 3.706,-3.45 3.706,-3.45 0,0 1.922,1.955 3.98,1.61 2.059,-.345 3.706,-1.725 4.53,-3.22 .823,-1.495 1.099,-4.255 .962,-4.255" fill="#ffd128"/>
				<path d="M 457.528,101.333 c 0,0 2.608,6.671 -3.568,6.556 -6.177,-.115 -3.02,-3.105 -4.942,-3.22 -1.921,-.115 -2.882,0 -2.882,0"/>
				<path d="M 463.019,100.758 c 0,0 -1.51,7.706 3.568,7.131 5.079,-.575 6.314,-3.565 6.314,-3.565"/>
				<path d="M 440.508,96.618 c 0,0 .686,3.22 2.059,5.176 1.373,1.955 2.471,1.61 3.706,1.955 0,-1.38 0,-1.955 -1.51,-3.795 -1.51,-1.84 -4.255,-3.105 -4.255,-3.335 z" fill="#000" stroke="none"/>
				<path d="M 476.196,103.288 c 0,-.115 -.549,-2.415 .961,-4.485 1.51,-2.07 3.157,-2.53 3.157,-2.53 0,0 .274,1.84 -.823,3.68 -1.098,1.84 -2.883,3.68 -3.294,3.335 z" fill="#000" stroke="none"/>
				<path d="M 450.254,103.748 c .686,0 3.431,-2.53 6.725,0"/>
				<path d="M 464.94,103.173 c 3.432,-2.07 7.137,.46 7.137,.46"/>
				<path d="M 456.567,105.243 c 0,.698 -1.261,1.265 -2.813,1.265 -1.554,0 -2.814,-.567 -2.814,-1.265 0,-.698 1.261,-1.265 2.814,-1.265 1.553,0 2.813,.567 2.813,1.265 z"/>
				<path d="M 470.98,105.013 c 0,.698 -1.23,1.265 -2.745,1.265 -1.516,0 -2.746,-.567 -2.746,-1.265 0,-.698 1.23,-1.265 2.746,-1.265 1.515,0 2.745,.567 2.745,1.265 z"/>
				<path d="M 453.685,103.633 c 0,.115 .138,2.99 .138,2.99"/>
				<path d="M 467.96,103.518 l .137,2.875"/>
				<ellipse cx="461.509" cy="111.971" rx="3.569" ry="2.243" fill="#000" stroke="none"/>
				<path d="M 669.844,130.789 c 0,0 -.583,1.789 .194,2.765 .776,.976 2.524,2.928 2.524,2.928"/>
				<path d="M 664.603,132.253 c 0,0 -2.912,1.789 -2.718,2.928 .194,1.139 .97,2.277 .97,2.277"/>
				<path d="M 674.502,128.512 c 3.688,.651 3.688,2.277 3.688,2.277"/>
				<path d="M 545.029,133.392 c -.777,.163 -3.882,1.464 -3.882,1.464"/>
				<path d="M 550.658,135.831 c -.971,.325 -1.941,-.163 -2.33,1.464 -.388,1.627 .583,2.44 .583,2.44"/>
				<path d="M 559.005,136.482 c .194,0 1.359,.813 1.359,1.626 0,.813 -.776,1.789 -.776,1.789"/>
				<path d="M 374.404,132.904 c -.194,0 -1.553,.976 -1.553,2.115"/>
				<path d="M 599.842,118.084 c -1.925,-1.22 -3.683,-2.951 -3.683,-2.951"/>
			</g>
		</svg>
		<use xlink:href="#leopard" y="60"/>
	</g>
	<use xlink:href="#england" x="-300" y="195"/>
</svg>