<?xml version="1.0" encoding="utf-8"?>
<!-- Generator: Adobe Illustrator 19.0.0, SVG Export Plug-In . SVG Version: 6.00 Build 0)  -->
<svg version="1.1" id="Layer_1" xmlns="http://www.w3.org/2000/svg" xmlns:xlink="http://www.w3.org/1999/xlink" x="0px" y="0px"
	 viewBox="0 0 2376 1584" style="enable-background:new 0 0 2376 1584;" xml:space="preserve">
<style type="text/css">
	.st0{fill:#8F1B1C;}
	.st1{fill:#DFB326;}
	.st2{fill:#911F1D;}
</style>
<g id="XMLID_4_">
	<path id="XMLID_173_" class="st0" d="M1188.9,1585c-394.3,0-788.7,0-1183,0.1c-4.5,0-5-1.3-5-5.2C1,1055.2,1,530.6,0.9,5.9
		c0-4.5,1.3-5,5.2-5c788.7,0.1,1577.3,0.1,2366,0c4.5,0,5,1.3,5,5.2c-0.1,524.7-0.1,1049.3,0,1574c0,4.5-1.3,5-5.2,5
		C1977.6,1585,1583.2,1585,1188.9,1585z M1565.5,550.5c-0.2-0.2-0.4-0.5-0.6-0.7c-0.2-1.4,0.7-2.1,1.8-2.7
		c21.3-13.1,41.9-27.3,61.9-42.3c31.3-23.5,60.9-48.7,85.6-79.3c11.4-14.1,20.9-29.2,26.8-46.4c3.3-9.5,4.3-19.4,3.3-29.4
		c-0.2-2-0.3-4.9-2.8-5.3c-2.1-0.3-2.3,2.5-3.1,4c-7,12.5-15.6,24-24.9,34.9c-22.4,26.2-48,49.1-74.6,70.9
		c-21.8,17.8-44.1,34.9-67.4,50.8c-16.4,11.2-32.7,22.6-49.2,33.8c-19,12.9-37.5,26.3-52.6,43.7c-13.2,15.2-21.8,32.4-22.8,52.9
		c-0.4,9.4-1.1,18.9-1.4,28.3c-0.1,2.4-0.9,3.1-3.2,3.1c-27.2-0.1-54.3-0.2-81.5-0.3c-1.3,0-3,0.7-4.1-1.3c4.1-4.5,8.3-9,12.5-13.5
		c6.6-7.1,13.1-14.2,19.7-21.3c1.2-1.3,2-2.7,1.4-4.5c-0.7-1.8-2.4-1.5-3.9-1.6c-1.7-0.1-3.3-0.2-5-0.2c-6.9-0.3-13.9,0-20.7-1.1
		c0.1-0.6,0.1-1,0.2-1.2c19.6-23.3,39.3-46.6,58.9-70c1.5-1.7,2.7-1.4,4.3-0.6c4.9,2.4,9.9,4.8,14.9,7.1c2.9,1.4,5.6,1.6,8.1-1.1
		c21.9-22.9,43.8-45.7,65.8-68.5c1.3-1.4,2.7-2.7,1.9-4.8c-0.7-2-2.7-1.7-4.3-1.8c-7.6-0.7-15.3-1.4-22.9-2.1
		c-1.1-0.1-2.6,0.4-3.1-0.9c-0.6-1.3,0.8-2,1.5-2.9c19.9-23.3,39.9-46.6,59.8-69.9c1.7-2,3-2.4,5.4-1.1c5.3,3.1,10.8,5.9,16.3,8.7
		c4.5,2.3,7,1.4,7.9-2.8c4.9-20.9,9.8-41.8,14.6-62.7c0.4-1.8,1.4-4.2-0.6-5.6c-1.9-1.3-4.1-0.4-6.1,0.8
		c-25.2,15.2-50.5,30.4-75.7,45.7c-1.6,1-3.2,2.1-2.6,4.3c0.7,2.2,2.7,1.4,4.3,1.6c6.5,1,13.1,0.6,20.1,2.3c-1.2,1.6-2.1,2.8-3,3.9
		c-17.2,20.2-34.3,40.4-51.5,60.5c-6.2,7.2-12.3,14.5-18.5,21.7c-1.4,1.6-3.3,3.2-2.3,5.6c1,2.4,3.4,1.5,5.3,1.6
		c5.5,0.4,11,0.5,16.5,0.9c2.5,0.2,5.2-0.3,8.1,1c-13.9,15.5-27.6,30.5-41.1,45.7c-1.4,1.6-2.6,1.4-4.3,0.5
		c-4.8-2.7-9.6-5.3-14.5-7.9c-5.8-3.2-7.1-2.9-11.5,2.1c-27,30.9-54,61.7-80.9,92.6c-1.9,2.1-5.5,4-3.9,7.4c1.4,3,5.1,1.7,7.8,1.9
		c8.4,0.6,16.8,1,25.8,1.6c-0.7,1.2-0.9,1.8-1.3,2.2c-8.5,8.5-17,16.9-25.5,25.4c-2,2-4.5,2.6-7.3,2.6c-8.2-0.1-16.3,0-24.5,0
		c-27.3,0-54.7-0.1-82,0.1c-4,0-5.6-0.5-5.5-5.4c0.3-15.6-0.4-31.2-0.4-46.9c-0.1-45.1,0.2-90.3,1.3-135.4
		c0.7-26.8,1.9-53.6,3.7-80.3c0.8-12.1,3.4-24.1,3.6-36.2c0.4-24.8,0.1-49.7,0.1-74.5c0-2.7,0-5.3-1.1-7.9
		c-7.6-16.9-18.1-31.7-31.2-44.8c-2.5-2.4-4.2-2.3-6.6,0c-13,12.9-23.4,27.7-31.1,44.3c-1.1,2.4-1.4,5.1-1.4,7.8
		c0.1,25.2,0,50.3,0,75.5c0,1.2-0.1,2.4,0.1,3.5c4.8,27.3,5.3,55,6.4,82.6c1.2,29.8,1.9,59.6,2.1,89.4c0.4,41.1,0.7,82.3-0.2,123.4
		c-0.1,4.6-2.1,4.7-5.4,4.7c-29.7,0-59.3-0.1-89,0c-3.6,0-6.4-1.2-8.9-3.7c-7.8-7.8-15.6-15.5-23.4-23.3c-0.8-0.8-2-1.3-1.5-3.3
		c9.3-0.5,18.7-1,28.1-1.7c1.7-0.1,3.9,0.4,4.7-1.9c0.7-2-0.5-3.5-1.8-4.9c-28-31.9-56-63.9-84-95.9c-3-3.4-5.9-3.8-9.6-1.7
		c-4.8,2.7-9.8,5.1-14.4,8c-2.9,1.8-4.5,1.2-6.6-1.2c-12.4-14-25-27.7-37.4-41.6c-0.8-0.9-2.3-1.6-1.5-3.5
		c7.9-0.4,15.9-0.7,23.8-1.2c1.8-0.1,4.3,0.8,5.2-1.8c0.9-2.3-1-3.7-2.3-5.1c-21.5-25.3-43-50.5-64.5-75.8c-2.9-3.4-5.7-6.8-9.2-11
		c7.3-0.7,13.7-1.2,20.1-2c1.8-0.2,4.4,0.9,4.9-2c0.5-2.6-1.8-3.3-3.5-4.3c-24.7-14.9-49.3-29.8-74-44.7c-2.2-1.3-4.5-2.9-6.9-1.3
		c-2.7,1.8-1,4.6-0.5,6.9c4.5,20,9.2,39.9,13.8,59.9c1.4,5.9,3.4,6.9,8.7,4.2c5.1-2.6,10.1-5.1,15-8c2.9-1.8,4.6-1.7,7,1.1
		c17.2,20.4,34.7,40.5,52,60.8c3.1,3.7,6.8,7,9.4,11.9c-9,0.8-17.4,1.6-25.8,2.4c-1.9,0.2-4.2-0.5-5.1,2c-0.8,2.4,1,3.6,2.4,5.1
		c21.6,22.5,43.2,44.9,64.7,67.5c2.8,2.9,5.5,3.2,8.9,1.6c4.3-2.1,8.8-3.9,13-6.3c3.1-1.7,5-1.5,7.4,1.5
		c15.8,19,31.8,37.7,47.7,56.6c3.5,4.1,6.9,8.3,10.8,13c-9,1.2-17.2,0.8-25.3,1.3c-1.8,0.1-4.3-0.7-5.2,1.8c-0.9,2.3,1,3.7,2.3,5.1
		c9.4,10.2,18.8,20.3,28.1,30.5c1.1,1.2,3.2,2.2,2.6,3.9c-0.7,1.8-2.9,1-4.5,1c-24.7,0-49.3-0.1-74,0.1c-4.6,0-5.6-1.8-5.8-5.7
		c-0.3-9.3-0.4-18.5-1.3-27.8c-2.1-24-14.5-42.6-31.1-59c-17.8-17.5-38.6-31.3-59.2-45.2c-20.5-13.8-40.9-27.6-60.7-42.3
		c-29.7-22-58.5-45.2-85.1-71c-21.4-20.7-41.9-42.3-56.2-68.8c-0.5-0.9-0.9-1.9-2.1-1.7c-1.2,0.1-1.6,1.2-1.9,2.1
		c-0.4,1.3-0.9,2.5-1,3.9c-1.1,12.8,1.3,25.1,6.5,36.9c11.4,26,29.7,47.1,49.6,66.9c20.3,20.1,42.4,38.1,65.4,55
		c17.9,13.1,36.2,25.6,55,37.5c1.2,0.8,3.5,1.3,2.6,3c-0.9,1.9-2.6,0.1-3.8-0.5c-13.2-6.2-26.3-12.6-39.4-19.3
		c-15.2-7.8-30.1-16.2-44.5-25.3c-21.8-13.9-42.9-28.8-62.1-46.2c-17.6-15.9-33.6-33.1-46.6-53c-1.2-1.8-1.7-5.4-4.4-4.4
		c-1.5,0.5-0.5,4.1-0.3,6.3c2.2,22.3,12.1,41.2,25.4,58.5c15,19.5,33.3,35.5,52.9,50.1c11.4,8.5,23.4,16.4,35.7,23.5
		c10.9,6.3,21.9,12.4,33.2,17.9c12.5,6.2,25.1,12.1,38.1,17.3c5.2,2.1,10.6,3.5,15.2,6.9c-0.8,1.1-1.7,0.9-2.4,0.7
		c-9.9-2.3-19.9-4.1-29.6-7.1c-33.9-10.5-66.5-24.1-97.2-42.1c-13.5-7.9-26.4-16.5-38.5-26.2c-6.2-5-12.3-10.1-17.6-16
		c-0.8-0.9-1.7-2-2.9-1.3c-1.4,0.8-0.3,2,0.1,3.1c1.2,2.9,2.2,5.9,3.6,8.8c14.1,29.9,38.4,49.4,66.4,65.1
		c16.1,9.1,33.1,16.2,50.3,23c22.2,8.7,45.2,15,67.6,22.9c1.9,0.7,4.3,0.6,6.4,4c-62.6-7.5-120-25.7-171.9-61.3
		c-0.3,3.3,1.4,4.8,2.6,6.5c11.5,15.6,26,27.9,42.3,38c18.9,11.7,38.9,20.8,60.2,27.4c21,6.5,42.1,12.5,64,15.5
		c3.9,0.5,7.7,1.7,11.5,2.6c-0.1,0.4-0.2,0.9-0.3,1.3c-21.2,1.1-42.3,0.4-63.2-3.7c-21-4.1-40.8-11.6-60.6-19.9
		c0.9,2.1,2.2,3.6,3.6,4.9c10.5,9.7,22.6,16.8,35.5,22.6c16.9,7.6,34.7,12.9,52.7,16.7c15.2,3.3,30.7,5.9,46.3,6.7
		c1.9,0.1,4.6-0.3,6.5,2.6c-32.7,2.5-64-3-95.1-10.3c9,9.1,19.9,14.7,31.2,19.3c28.6,11.6,58.8,15.1,89.3,15.9c1.3,0,3-0.7,3.8,1.8
		c-15.1,3.2-30.3,1.7-46.6,1.9c1.4,1.2,1.8,1.7,2.4,2c11.5,6.6,24.3,8.7,37.2,10.4c8.9,1.2,17.8,2.1,26.4,5.1c3.6,1.2,4.9,3.3,4.8,7
		c-0.2,10.7-0.3,21.3,0,32c0.1,4.3-1.2,5.4-5.4,4.8c-14.6-2.1-29.2-1.8-43.8-0.1c-4,0.5-8,0.5-12,0c-10-1.3-20-1.2-29.9-0.2
		c-19.7,1.9-39.6,1.2-59.3,2.3c-30.4,1.8-60.9,0.8-91.3,3.8c-18.4,1.8-36.9,1.5-55.4,2.4c-25.9,1.3-51.9,2.8-77.6,6.8
		c-1.8,0.3-4,0-5,2.5c4.7,2.1,9.6,2.2,14.3,2.6c24.9,2.1,49.9,2.8,74.8,4.2c32.6,1.8,65.1,4.3,97.7,6c31.8,1.8,63.5,4.8,95,8.6
		c22.8,2.7,45.8,4,68.5,7.4c8.4,1.2,17-0.1,25.2,3.1c3,1.2,4.1,2.5,4.1,5.7c-0.1,16-0.2,32,0,48c0,3.9-1.6,5.7-5,6.9
		c-8.4,3-17.2,3.8-25.9,5c-9.1,1.3-18.2,2.3-26.8,5.4c-4.2,1.5-8,3.9-12,5.9c14.4,1.3,28.5-0.5,42.3,3.1c-5.4,2.6-11.3,1.9-16.9,2.3
		c-16.7,1.4-33.4,3.1-49.7,7.6c-12.2,3.4-24.2,7.3-35.4,13.3c-7,3.8-14.1,7.7-19.6,13.9c10.2-2.3,20.4-4.6,30.6-6.5
		c10.3-1.9,20.7-3.4,31.1-4.1c10-0.6,20.2-2.1,30.1,1c-1.1,1-2.2,1.6-3.3,1.6c-14,0.9-27.7,3.1-41.4,5.9
		c-30,6.2-59.1,14.6-84.2,33.1c-4.9,3.6-9.9,7.1-13.9,13.8c39.3-19.4,79.3-28.6,123.1-25.3c-2.4,2.5-4.1,2.6-5.7,2.9
		c-10.3,2-20.7,3.3-30.9,5.9c-35.4,9-70,19.9-100.7,40.7c-14.7,10-27.8,21.5-38.4,35.7c-1.2,1.6-3,3.2-2.2,6
		c1.8-1.2,3.5-2.1,5.1-3.3c14.1-10.1,29.3-18.3,45-25.5c11.6-5.3,23.7-9.6,35.8-13.8c19.9-6.9,40.3-11.9,60.9-15.6
		c5.2-0.9,10.7-2.8,16.2-1.6c0.4,0.7,0.9,1.4,1.3,2.2c-4.3,1.7-8.6,3.5-13,5c-20,6.8-40.3,12.8-59.9,20.7
		c-26.1,10.6-51.4,22.5-73.5,40.2c-18.2,14.6-32.5,32.3-40.4,54.5c-0.3,0.8-1.1,1.5-0.3,2.2c0.9,0.9,1.9,0.3,2.7-0.4
		c1.1-1,2.2-2.1,3.2-3.1c17.5-17.5,37.9-31.1,59.3-43.2c13.1-7.4,26.7-14,40.7-19.9c18.7-7.9,37.6-15.4,57.2-20.7
		c8.4-2.3,17-3.8,25.6-5.7c0.2,0.4,0.3,0.8,0.5,1.2c-2.4,1.2-4.8,2.7-7.4,3.7c-12.7,4.5-24.9,10.2-37.1,15.9
		c-14.6,6.8-28.9,14.3-42.7,22.5c-21.2,12.7-41.6,26.7-59.9,43.4c-20.1,18.3-37.9,38.3-47.9,64.1c-3.9,10-6.2,20.4-6.1,31.3
		c2.5,0,3.1-1.7,3.9-3.1c8.8-14.2,19.3-27.1,31-38.9c32.1-32.7,69.8-57.9,109.5-80.3c17.5-9.8,35.7-18.4,53.9-26.9
		c1-0.5,2.3-1.5,3,0c0.6,1.3-0.8,1.9-1.8,2.6c-24.5,15.2-48.1,31.7-71,49.3c-23.1,17.9-45.2,37-64.8,58.7
		c-16.2,18-30.7,37.2-38.4,60.6c-3.1,9.4-4.1,19.1-3.1,28.9c0.2,1.8,0.3,4.5,2.5,5c2.5,0.6,2.5-2.3,3.3-3.7
		c5.1-9.4,11.1-18.2,17.8-26.5c25.1-31.1,54.7-57.8,85.7-82.9c15.7-12.7,31.9-24.9,48.2-36.8c19.2-14,39-27,58.5-40.4
		c17.8-12.2,35.5-24.4,50.9-39.7c15.2-15,26.8-32.2,29.7-54c1.9-14.3,1.7-28.7,2.3-43.1c0.2-4.6,1.8-5.8,6.2-5.8
		c24.2,0.2,48.3,0.1,72.5,0.1c1.4,0,3-0.6,4.2,0.7c-0.5,1.9-2.1,3-3.3,4.3c-8.9,9.7-17.8,19.4-26.8,29c-1.4,1.5-3,3-2.1,5.2
		c0.9,2.2,3.1,1.5,4.9,1.5c8.2,0.4,16.5,0.7,25,1.1c-0.3,1-0.4,1.6-0.6,1.9c-19.6,23.2-39.1,46.3-58.7,69.5
		c-1.4,1.6-2.6,1.6-4.3,0.7c-4.8-2.4-9.6-4.6-14.4-6.9c-3.5-1.8-6.3-1.6-9.3,1.6c-12.3,13.1-24.9,26-37.4,39
		c-9.2,9.6-18.5,19.2-27.7,28.8c-1.3,1.4-2.6,2.8-1.9,4.8c0.7,2.1,2.7,1.6,4.2,1.7c3.6,0.4,7.3,0.5,10.9,1.1
		c5.1,0.8,10.4,0.3,15.4,1.8c-0.2,0.8-0.1,1-0.2,1.1c-20.6,24.1-41.2,48.1-61.7,72.2c-1.7,2-3.1,1.8-5.1,0.7
		c-5.2-2.9-10.5-5.7-15.9-8.4c-5.5-2.8-7.5-1.8-8.8,4c-1.5,6.5-3,13-4.5,19.5c-3.2,14-6.4,27.9-9.6,41.9c-0.4,1.9-1.4,4.2,0.6,5.5
		c1.9,1.3,4.2,0.6,6.1-0.7c0.7-0.5,1.4-0.9,2.1-1.3c24.1-14.5,48.2-29,72.3-43.6c0.9-0.5,1.7-1.1,2.5-1.6c1.4-0.8,1.8-1.9,1.5-3.4
		c-0.3-1.4-1.5-1.6-2.7-1.7c-1.3-0.1-2.7-0.1-4-0.2c-5.8-0.5-11.6-1.1-18-1.7c1-1.4,1.3-2,1.8-2.5c21.2-24.9,42.3-49.7,63.5-74.6
		c3.1-3.7,6.2-7.4,9.4-11c1.1-1.2,1.6-2.6,1-4.1c-0.7-1.7-2.3-1.1-3.5-1.2c-5.5-0.3-11-0.5-16.5-0.9c-3.2-0.2-6.5,0.1-9.9-1.5
		c13.8-15.3,27.4-30.3,40.8-45.3c1.6-1.8,2.9-1.6,4.7-0.6c4.6,2.6,9.3,5.1,14,7.7c6.1,3.3,7.3,3.1,11.9-2.1
		c22.3-25.4,44.6-50.9,66.9-76.3c5.5-6.3,11-12.5,16.5-18.8c1.1-1.3,2-2.7,1.5-4.5c-0.6-2-2.4-1.5-3.8-1.6
		c-3.8-0.3-7.6-0.5-11.5-0.8c-6-0.4-12.1-0.8-18.7-1.3c8.8-8.9,17-17.1,25.1-25.5c2.1-2.2,4.3-3.1,7.4-3.1
		c30.3,0.1,60.6,0.2,90.9-0.1c5.1,0,6.1,2,6.1,6.2c0,9.5,0.3,19,0.3,28.5c0.1,56.8,0,113.6-2,170.4c-0.8,22.6-1.7,45.2-3.8,67.8
		c-0.8,9.4-2.9,18.8-3.1,28.3c-0.4,25.3-0.1,50.7-0.2,76c0,2.5,0.3,5,1.3,7.3c7.6,16.9,18.1,31.7,31.3,44.8c2.5,2.5,4.3,2.1,6.6-0.2
		c12.7-12.7,22.9-27.2,30.6-43.5c1.2-2.6,1.6-5.4,1.6-8.3c0-25.3,0-50.7,0-76c0-1.5,0-3-0.3-4.5c-4-23.4-4.7-47-5.8-70.6
		c-1.7-37.4-2.4-74.9-2.6-112.4c-0.2-35.8-0.3-71.6,0.1-107.4c0.1-4.9,1.3-6.5,6.6-6.5c35.6,0.3,71.3,0.2,106.9,0.1
		c3.7,0,6.2,1.1,8.7,3.7c7.1,7.3,14.4,14.3,21.6,21.5c0.8,0.8,2.3,1.4,1.9,3.4c-9.6,0.7-19.1,1.3-28.7,2c-1.6,0.1-3.6-0.5-4.3,1.6
		c-0.7,2,0.6,3.5,1.8,4.9c28,32,56,63.9,84,95.9c3.2,3.6,6.3,3.7,10.1,1.6c4.8-2.7,9.8-5.1,14.4-8c2.6-1.6,3.9-1.1,5.8,1
		c8.9,10.1,18,20.1,27.1,30.1c4.3,4.8,8.6,9.5,13.7,15.2c-9.7,0.6-18.1,1-26.5,1.6c-1.4,0.1-3.2-0.5-3.9,1.4
		c-0.7,1.8,0.2,3.2,1.4,4.5c2.2,2.5,4.3,5.1,6.5,7.6c21.5,25.2,43,50.5,64.5,75.8c0.9,1.1,2.8,2.2,2.2,3.6c-0.7,1.7-2.9,1.1-4.5,1.3
		c-5.3,0.5-10.6,0.8-15.9,1.3c-1.3,0.1-2.8,0-3.2,1.7c-0.4,1.7,0.2,2.9,1.8,3.7c0.9,0.4,1.7,1.1,2.5,1.6
		c24.2,14.6,48.5,29.2,72.7,43.9c2.3,1.4,4.9,3.3,7.3,1.5c2.3-1.7,0.8-4.7,0.3-7c-4.5-20-9.2-39.9-13.8-59.9
		c-1.4-5.8-3.3-6.7-8.9-3.8c-5.2,2.6-10.4,5.3-15.5,8.2c-2.4,1.4-4,1.4-5.9-0.9c-19.8-23.2-39.7-46.3-59.5-69.5
		c-0.8-0.9-2.5-1.8-1.5-3.2c0.5-0.7,2.1-0.9,3.2-1c7.5-0.7,14.9-1.4,22.4-2.1c1.7-0.2,3.9,0.4,4.6-2c0.7-2.1-0.9-3.4-2.2-4.7
		c-21.8-22.7-43.7-45.4-65.4-68.1c-2.5-2.6-5-2.9-8-1.4c-4.5,2.2-9.2,4-13.5,6.5c-3.3,1.9-5.1,1.3-7.4-1.5
		c-17.1-20.5-34.4-40.8-51.6-61.1c-2.2-2.6-4.3-5.2-6.5-7.9c0.2-0.6,0.3-1.2,0.5-1.8c7.9,0,15.9,0.1,23.8-0.1c2,0,4.7,1,5.7-1.7
		c0.9-2.5-1.1-4-2.5-5.5c-8.9-9.7-17.9-19.3-26.8-29c-1.1-1.2-2.9-2.2-2.7-4.6c27.8,0,55.5,0,83.1-0.1c3,0,3.7,1.3,3.7,3.9
		c0.3,8.4,1.1,16.9,0.9,25.3c-0.6,29.3,10.1,53.7,30.8,74.1c18.7,18.3,40.3,32.8,62,47.2c17.5,11.7,34.9,23.4,51.9,35.8
		c24.9,18.2,49.3,37.1,72.2,57.8c28.9,26.1,57.2,52.8,76.5,87.4c0.5,0.8,0.6,2.1,1.9,2c1.4-0.1,1.8-1.3,2.2-2.4
		c1.3-3.5,1.1-7.2,1.1-10.8c-0.2-17-6.8-31.9-15.3-46.2c-14.5-24.2-33.9-44.3-54.6-63.1c-33.2-30.2-69.6-56.2-107.6-80
		c-1-0.6-2.6-1.1-1.9-2.4c0.9-1.8,2.3-0.5,3.4,0.1c5.6,3.3,11.7,5.6,17.5,8.3c15.2,7.1,30,14.9,44.5,23.2
		c23.5,13.6,46.3,28.4,67.5,45.5c24.6,19.8,47,41.6,64.1,68.4c0.9,1.5,1.6,3.4,4,3.4c0-2.1,0.2-4.2,0-6.3
		c-2.1-22.3-12-41.2-25.3-58.7c-12.6-16.5-27.6-30.5-43.8-43.3c-15.5-12.2-31.9-23.1-49.1-32.8c-9.5-5.4-19.2-10.6-28.9-15.6
		c-12.4-6.3-25.1-12.2-38-17.4c-5-2-10.3-3.4-14.8-6.8c1.5-1.4,2.8-0.6,4-0.4c5.7,1.2,11.4,2.5,17,3.8c25.4,6.1,49.3,16.1,73,26.7
		c11.9,5.3,23.5,11.5,34.8,18.3c9.9,6,19.7,12.1,29.1,19c9.6,7.1,18.8,14.7,27.1,23.3c0.8,0.8,1.7,1.9,2.9,0.9
		c1.1-0.9,0-1.8-0.3-2.7c-3.1-8.6-7.2-16.8-12.4-24.4c-16.5-24.4-39.8-40.5-65.3-54c-14.3-7.5-29.3-13.4-44.2-19.4
		c-16.6-6.6-33.8-11.2-50.6-17.2c-5.3-1.9-11-3-16.7-6.5c7.3-2.8,13.2-0.2,18.8,0.8c53.2,9.5,103.5,26.6,148.3,58.5
		c-0.8-3.8-0.8-3.9-2.8-6.7c-11.3-15.7-26-27.9-42.2-38.2c-14.8-9.4-30.5-17-47-22.8c-25-8.8-50.3-16.4-76.7-20
		c-3.7-0.5-7.3-1.7-10.9-2.5c0.1-0.5,0.3-0.9,0.4-1.4c43-3.2,83.9,5.4,122.9,23.9c-4.1-5.2-9.1-8.8-13.8-12.8
		c-9.8-8.2-20.9-13.7-32.4-18.1c-29.3-11.2-59.7-18.3-91.2-20.3c-2.3-0.1-5,0-7.8-2.8c33.1-2.7,64.2,3.1,95.3,10.3
		c-8.9-8.9-19.6-14.5-30.7-19.1c-26.5-10.9-54.4-14.9-82.8-16c-3.7-0.1-7.6,0.4-11.2-1.5c15-4.1,30.3-2,45.5-3.2
		c-5.2-2.6-9.9-5.8-15.4-7.3c-10.9-3.2-22.2-4.3-33.4-5.7c-13.7-1.8-25.5-6.9-35.9-15.9c-2-1.8-3.2-3.7-3.2-6.4c0-12.5,0-25,0-37.4
		c0-1.7,0-3.3,2.2-3.9c3.2-0.9,6.1-2.7,9.5-2.8c20.2-0.4,40-4.6,60.2-5.5c5.5-0.2,10.9-1,16.4-1.7c16.7-1.9,33.3-4.4,50.1-5.8
		c27.7-2.4,55.5-4,83.2-6.1c26.6-2.1,53.2-3.2,79.8-4.6c23.3-1.2,46.6-1.7,69.8-4.3c2.9-0.3,6.2,0,8.6-2.4c-1.1-2-2.8-1.7-4.2-1.9
		c-9.1-1.3-18.1-2.7-27.3-3.5c-30.2-2.8-60.5-4.1-90.8-4.9c-13.3-0.3-26.5-3.1-39.8-3c-28.1,0.2-56.2-1.7-84.3-2.6
		c-11-0.4-22,0.9-32.9-0.7c-7.1-1-14.3-1.1-21.4-1.5c-8.7-0.6-17.3,2-25.9,1.1c-16.5-1.7-32.9-2.3-49.4-0.1c-2.7,0.4-4,0.1-3.9-3.1
		c0.2-7.7,0.1-15.3,0-23c0-2.4,0.7-4.5,2.6-6.2c8.4-7.4,17.8-13,28.8-15c11.1-2.1,22.3-3.6,33.5-5.3c8.4-1.2,15.7-5,22.9-9.3
		c-7.7-0.4-15.3-0.4-22.9-0.5c-7.6-0.1-15.2,0.1-22.5-3c44.5-2.3,88.1-7,124.8-36c-31.1,7-62.3,12.9-94.4,9.7
		c2.3-2.2,5.2-2.2,7.9-2.3c16.1-1.1,32.1-3.5,47.7-7.3c18.6-4.5,37.1-9.6,54.3-18.3c11.4-5.8,22.3-12.5,31.5-21.6
		c0.8-0.8,2.9-1.3,2.1-2.9c-1-1.8-2.6-0.2-4,0c-0.5,0.1-1,0.3-1.4,0.6c-9.3,5.8-19.8,8.7-30,12.2c-26.6,9-54.1,11.5-82,10.6
		c-2-0.1-4.9,1.1-6.9-1.7c1-0.3,1.6-0.6,2.2-0.7c12.6-1.6,25-4,37.3-7c38.1-9.4,75-21.6,107.3-45c12.6-9.1,23.7-19.7,32.7-32.5
		c0.8-1.1,2.8-2.3,0.9-4.6c-25,17.8-52.4,30.9-81.4,41c-35.8,12.5-80.8,20.8-89.9,18.5c7.8-3,14.9-4.9,21.9-7.4
		c19.4-6.9,39.3-12.6,58.5-20.4c24.1-9.8,47.5-20.6,68.4-36.2c20.6-15.3,36.8-33.9,45.7-58.4c0.3-0.9,1.3-1.8,0.3-2.6
		c-1.3-1-2.1,0.2-3,0.9c-0.9,0.7-1.7,1.6-2.5,2.5c-17.4,17.6-37.9,31.1-59.2,43.2c-13,7.4-26.4,13.9-40.2,19.7
		c-21.8,9.2-43.7,17.9-66.9,23.2c-5.2,1.2-10.5,2.1-16,3.2c0.3-1.9,1.4-2.1,2.2-2.5c8.6-4.7,18.1-7.4,27.1-11.4
		c16.5-7.4,32.7-15.5,48.5-24.3c14.7-8.3,29-17.4,42.5-27.5c22.6-16.8,43.5-35.3,59.6-58.8c11.1-16.2,18.6-33.7,19.8-53.5
		c0.1-1.1,1.3-2.9-0.5-3.5c-1.4-0.4-2.3,1.1-3,2.2c-14.5,23.4-33.4,42.9-54.1,60.7c-18,15.5-37.4,29.2-57.5,41.8
		c-14.3,9-29,17.3-44.1,25C1593.3,537.4,1579.5,544.2,1565.5,550.5z"/>
	<path id="XMLID_153_" class="st1" d="M828.6,984.8c-5.6-1.1-11,0.7-16.2,1.6c-20.6,3.7-41,8.7-60.9,15.6
		c-12.1,4.2-24.2,8.5-35.8,13.8c-15.7,7.2-30.9,15.4-45,25.5c-1.6,1.1-3.3,2.1-5.1,3.3c-0.7-2.8,1-4.4,2.2-6
		c10.7-14.2,23.7-25.8,38.4-35.7c30.7-20.8,65.4-31.7,100.7-40.7c10.1-2.6,20.6-3.9,30.9-5.9c1.6-0.3,3.3-0.4,5.7-2.9
		c-43.8-3.3-83.8,5.9-123.1,25.3c4-6.7,9-10.2,13.9-13.8c25.1-18.5,54.3-26.9,84.2-33.1c13.7-2.8,27.5-5,41.4-5.9
		c1.1-0.1,2.2-0.6,3.3-1.6c-9.9-3.1-20.1-1.6-30.1-1c-10.4,0.6-20.8,2.2-31.1,4.1c-10.3,1.9-20.4,4.2-30.6,6.5
		c5.5-6.3,12.6-10.1,19.6-13.9c11.2-6.1,23.2-10,35.4-13.3c16.3-4.5,33-6.2,49.7-7.6c5.6-0.5,11.5,0.2,16.9-2.3
		c-13.8-3.7-27.9-1.8-42.3-3.1c4-2,7.9-4.4,12-5.9c8.6-3.1,17.8-4.1,26.8-5.4c8.7-1.3,17.5-2.1,25.9-5c3.4-1.2,5-3,5-6.9
		c-0.2-16-0.1-32,0-48c0-3.2-1.1-4.5-4.1-5.7c-8.2-3.2-16.8-1.9-25.2-3.1c-22.7-3.4-45.7-4.7-68.5-7.4c-31.6-3.8-63.2-6.9-95-8.6
		c-32.6-1.8-65.1-4.3-97.7-6c-24.9-1.4-49.9-2.1-74.8-4.2c-4.8-0.4-9.6-0.5-14.3-2.6c1-2.6,3.2-2.3,5-2.5c25.7-4,51.7-5.5,77.6-6.8
		c18.5-0.9,37-0.6,55.4-2.4c30.4-3.1,60.9-2.1,91.3-3.8c19.8-1.1,39.6-0.5,59.3-2.3c10-0.9,20-1.1,29.9,0.2c4,0.5,8,0.5,12,0
		c14.6-1.7,29.2-2,43.8,0.1c4.2,0.6,5.5-0.5,5.4-4.8c-0.3-10.7-0.2-21.3,0-32c0.1-3.7-1.2-5.8-4.8-7c-8.6-3-17.5-3.9-26.4-5.1
		c-12.9-1.7-25.7-3.8-37.2-10.4c-0.5-0.3-0.9-0.8-2.4-2c16.3-0.2,31.5,1.4,46.6-1.9c-0.8-2.5-2.5-1.8-3.8-1.8
		c-30.6-0.8-60.8-4.4-89.3-15.9c-11.3-4.6-22.3-10.2-31.2-19.3c31.1,7.3,62.3,12.8,95.1,10.3c-1.9-2.9-4.6-2.5-6.5-2.6
		c-15.7-0.8-31.1-3.4-46.3-6.7c-18-3.9-35.8-9.1-52.7-16.7c-12.9-5.8-25-13-35.5-22.6c-1.4-1.3-2.7-2.8-3.6-4.9
		c19.7,8.3,39.6,15.8,60.6,19.9c20.9,4.1,42,4.8,63.2,3.7c0.1-0.4,0.2-0.9,0.3-1.3c-3.8-0.9-7.6-2.1-11.5-2.6
		c-21.9-2.9-43-9-64-15.5c-21.2-6.6-41.3-15.7-60.2-27.4c-16.3-10.1-30.8-22.5-42.3-38c-1.2-1.6-3-3.1-2.6-6.5
		c51.8,35.6,109.3,53.8,171.9,61.3c-2.1-3.4-4.5-3.3-6.4-4c-22.5-7.9-45.4-14.2-67.6-22.9c-17.2-6.7-34.2-13.9-50.3-23
		c-28-15.8-52.3-35.2-66.4-65.1c-1.3-2.9-2.4-5.8-3.6-8.8c-0.4-1-1.5-2.2-0.1-3.1c1.2-0.7,2.2,0.5,2.9,1.3
		c5.4,5.9,11.4,11.1,17.6,16c12.2,9.7,25.1,18.3,38.5,26.2c30.7,18,63.3,31.6,97.2,42.1c9.7,3,19.7,4.8,29.6,7.1
		c0.7,0.2,1.6,0.4,2.4-0.7c-4.6-3.4-10.1-4.8-15.2-6.9c-12.9-5.2-25.5-11.1-38.1-17.3c-11.3-5.6-22.4-11.6-33.2-17.9
		c-12.3-7.2-24.3-15-35.7-23.5c-19.6-14.6-37.9-30.7-52.9-50.1c-13.4-17.4-23.3-36.3-25.4-58.5c-0.2-2.2-1.2-5.8,0.3-6.3
		c2.6-0.9,3.2,2.6,4.4,4.4c13,19.9,29,37.1,46.6,53c19.2,17.4,40.3,32.4,62.1,46.2c14.4,9.1,29.3,17.5,44.5,25.3
		c13,6.7,26.1,13,39.4,19.3c1.2,0.6,2.9,2.4,3.8,0.5c0.8-1.7-1.4-2.2-2.6-3c-18.8-11.8-37.1-24.3-55-37.5
		c-23-16.9-45.1-34.9-65.4-55c-19.9-19.7-38.2-40.8-49.6-66.9c-5.1-11.7-7.6-24-6.5-36.9c0.1-1.3,0.6-2.6,1-3.9c0.3-1,0.7-2,1.9-2.1
		c1.2-0.1,1.6,0.8,2.1,1.7c14.3,26.6,34.8,48.1,56.2,68.8c26.6,25.8,55.3,49,85.1,71c19.8,14.7,40.2,28.5,60.7,42.3
		c20.6,13.9,41.4,27.7,59.2,45.2c16.6,16.4,29.1,35,31.1,59c0.8,9.2,1,18.5,1.3,27.8c0.1,3.9,1.2,5.8,5.8,5.7
		c24.7-0.2,49.3-0.1,74-0.1c1.6,0,3.8,0.8,4.5-1c0.6-1.6-1.5-2.7-2.6-3.9c-9.4-10.2-18.8-20.3-28.1-30.5c-1.3-1.4-3.2-2.8-2.3-5.1
		c0.9-2.5,3.4-1.7,5.2-1.8c8.1-0.5,16.3-0.1,25.3-1.3c-3.9-4.7-7.3-8.9-10.8-13c-15.9-18.8-31.9-37.6-47.7-56.6
		c-2.4-2.9-4.3-3.2-7.4-1.5c-4.2,2.3-8.7,4.2-13,6.3c-3.4,1.7-6.1,1.3-8.9-1.6c-21.5-22.6-43.1-45-64.7-67.5
		c-1.4-1.4-3.2-2.7-2.4-5.1c0.9-2.6,3.3-1.8,5.1-2c8.4-0.8,16.8-1.6,25.8-2.4c-2.6-4.9-6.3-8.2-9.4-11.9
		c-17.3-20.3-34.8-40.4-52-60.8c-2.4-2.8-4.1-2.9-7-1.1c-4.8,2.9-9.9,5.4-15,8c-5.3,2.7-7.4,1.7-8.7-4.2
		c-4.6-19.9-9.3-39.9-13.8-59.9c-0.5-2.3-2.2-5.1,0.5-6.9c2.4-1.6,4.7,0,6.9,1.3c24.7,14.9,49.3,29.8,74,44.7c1.6,1,4,1.6,3.5,4.3
		c-0.6,3-3.2,1.8-4.9,2c-6.4,0.7-12.8,1.3-20.1,2c3.5,4.2,6.3,7.6,9.2,11c21.5,25.3,43,50.5,64.5,75.8c1.3,1.5,3.1,2.8,2.3,5.1
		c-0.9,2.5-3.4,1.7-5.2,1.8c-8,0.5-15.9,0.8-23.8,1.2c-0.8,1.9,0.7,2.6,1.5,3.5c12.5,13.9,25.1,27.7,37.4,41.6
		c2.1,2.4,3.8,3,6.6,1.2c4.7-2.9,9.6-5.3,14.4-8c3.7-2.1,6.7-1.7,9.6,1.7c27.9,32,55.9,63.9,84,95.9c1.2,1.4,2.5,2.9,1.8,4.9
		c-0.8,2.3-3,1.7-4.7,1.9c-9.4,0.6-18.8,1.1-28.1,1.7c-0.5,2,0.8,2.6,1.5,3.3c7.8,7.8,15.6,15.5,23.4,23.3c2.5,2.5,5.3,3.7,8.9,3.7
		c29.7-0.1,59.3-0.1,89,0c3.3,0,5.3-0.1,5.4-4.7c1-41.1,0.6-82.3,0.2-123.4c-0.3-29.8-0.9-59.6-2.1-89.4
		c-1.1-27.6-1.7-55.3-6.4-82.6c-0.2-1.1-0.1-2.3-0.1-3.5c0-25.2,0-50.3,0-75.5c0-2.7,0.3-5.4,1.4-7.8c7.7-16.7,18-31.4,31.1-44.3
		c2.4-2.3,4.1-2.5,6.6,0c13.1,13.1,23.6,27.9,31.2,44.8c1.1,2.5,1.1,5.2,1.1,7.9c0,24.8,0.3,49.7-0.1,74.5
		c-0.2,12.1-2.8,24.1-3.6,36.2c-1.8,26.8-3,53.5-3.7,80.3c-1.2,45.1-1.4,90.3-1.3,135.4c0,15.6,0.8,31.3,0.4,46.9
		c-0.1,4.9,1.5,5.4,5.5,5.4c27.3-0.1,54.7-0.1,82-0.1c8.2,0,16.3-0.1,24.5,0c2.8,0,5.3-0.6,7.3-2.6c8.5-8.4,17-16.9,25.5-25.4
		c0.4-0.4,0.6-1,1.3-2.2c-9-0.5-17.4-0.9-25.8-1.6c-2.7-0.2-6.3,1.1-7.8-1.9c-1.6-3.4,2-5.2,3.9-7.4c27-30.9,54-61.7,80.9-92.6
		c4.4-5,5.6-5.2,11.5-2.1c4.8,2.6,9.7,5.2,14.5,7.9c1.7,1,2.9,1.1,4.3-0.5c13.6-15.1,27.2-30.2,41.1-45.7c-2.9-1.3-5.6-0.8-8.1-1
		c-5.5-0.4-11-0.6-16.5-0.9c-1.9-0.1-4.3,0.7-5.3-1.6c-1-2.4,1-4,2.3-5.6c6.2-7.2,12.3-14.5,18.5-21.7
		c17.2-20.2,34.3-40.3,51.5-60.5c0.9-1.1,1.8-2.3,3-3.9c-7-1.7-13.6-1.3-20.1-2.3c-1.5-0.2-3.6,0.6-4.3-1.6
		c-0.7-2.2,0.9-3.3,2.6-4.3c25.2-15.2,50.5-30.4,75.7-45.7c2-1.2,4.1-2.1,6.1-0.8c2,1.3,1,3.7,0.6,5.6c-4.8,20.9-9.6,41.8-14.6,62.7
		c-1,4.2-3.4,5-7.9,2.8c-5.5-2.8-11-5.6-16.3-8.7c-2.4-1.4-3.7-1-5.4,1.1c-19.9,23.3-39.9,46.6-59.8,69.9c-0.7,0.8-2.1,1.6-1.5,2.9
		c0.6,1.3,2,0.8,3.1,0.9c7.6,0.7,15.3,1.4,22.9,2.1c1.6,0.1,3.5-0.1,4.3,1.8c0.8,2.1-0.6,3.4-1.9,4.8
		c-21.9,22.8-43.9,45.6-65.8,68.5c-2.6,2.7-5.2,2.5-8.1,1.1c-5-2.3-9.9-4.7-14.9-7.1c-1.6-0.8-2.8-1.1-4.3,0.6
		c-19.6,23.3-39.3,46.6-58.9,70c-0.2,0.2-0.1,0.6-0.2,1.2c6.9,1.2,13.8,0.8,20.7,1.1c1.7,0.1,3.3,0.1,5,0.2c1.4,0.1,3.2-0.2,3.9,1.6
		c0.6,1.8-0.2,3.2-1.4,4.5c-6.6,7.1-13.1,14.2-19.7,21.3c-4.2,4.5-8.3,9-12.5,13.5c1.1,2,2.7,1.3,4.1,1.3
		c27.2,0.1,54.3,0.1,81.5,0.3c2.4,0,3.1-0.7,3.2-3.1c0.4-9.4,1-18.9,1.4-28.3c1-20.5,9.6-37.8,22.8-52.9
		c15.1-17.4,33.6-30.9,52.6-43.7c16.5-11.2,32.7-22.6,49.2-33.8c23.2-15.9,45.6-32.9,67.4-50.8c26.6-21.8,52.1-44.8,74.6-70.9
		c9.3-10.9,17.9-22.3,24.9-34.9c0.8-1.5,1-4.3,3.1-4c2.5,0.4,2.6,3.3,2.8,5.3c1,10-0.1,19.8-3.3,29.4c-5.9,17.2-15.4,32.3-26.8,46.4
		c-24.7,30.6-54.3,55.8-85.6,79.3c-20,15-40.6,29.2-61.9,42.3c-1.1,0.6-2,1.3-1.8,2.7c-0.2,0.2-0.3,0.4-0.5,0.6
		c0.4,0,0.7,0.1,1.1,0.1c14-6.4,27.9-13.1,41.6-20.2c15.1-7.7,29.8-16.1,44.1-25c20.1-12.6,39.5-26.2,57.5-41.8
		c20.7-17.9,39.6-37.3,54.1-60.7c0.7-1.1,1.6-2.7,3-2.2c1.8,0.6,0.6,2.4,0.5,3.5c-1.2,19.8-8.7,37.3-19.8,53.5
		c-16.1,23.4-37,42-59.6,58.8c-13.6,10.1-27.8,19.2-42.5,27.5c-15.8,8.8-31.9,16.9-48.5,24.3c-9,4-18.4,6.7-27.1,11.4
		c-0.8,0.4-2,0.6-2.2,2.5c5.5-1.1,10.8-2,16-3.2c23.1-5.3,45.1-14,66.9-23.2c13.8-5.8,27.3-12.3,40.2-19.7
		c21.3-12.1,41.8-25.7,59.2-43.2c0.8-0.8,1.6-1.7,2.5-2.5c0.8-0.7,1.7-2,3-0.9c1,0.9,0,1.7-0.3,2.6c-8.9,24.4-25.1,43.1-45.7,58.4
		c-21,15.6-44.4,26.4-68.4,36.2c-19.2,7.8-39,13.5-58.5,20.4c-6.9,2.5-14.1,4.4-21.9,7.4c9.2,2.4,54.2-6,89.9-18.5
		c29-10.1,56.4-23.2,81.4-41c1.9,2.3-0.1,3.4-0.9,4.6c-9,12.8-20.1,23.3-32.7,32.5c-32.2,23.4-69.2,35.6-107.3,45
		c-12.2,3-24.7,5.4-37.3,7c-0.6,0.1-1.2,0.4-2.2,0.7c2,2.9,4.9,1.7,6.9,1.7c27.9,0.9,55.5-1.6,82-10.6c10.2-3.5,20.7-6.3,30-12.2
		c0.4-0.3,0.9-0.5,1.4-0.6c1.4-0.2,3-1.8,4,0c0.8,1.6-1.3,2.1-2.1,2.9c-9.2,9.1-20,15.8-31.5,21.6c-17.2,8.8-35.7,13.8-54.3,18.3
		c-15.6,3.8-31.6,6.3-47.7,7.3c-2.7,0.2-5.6,0.1-7.9,2.3c32.1,3.2,63.2-2.6,94.4-9.7c-36.7,29-80.3,33.7-124.8,36
		c7.3,3,14.9,2.9,22.5,3c7.6,0.1,15.2,0,22.9,0.5c-7.1,4.4-14.5,8.1-22.9,9.3c-11.2,1.6-22.4,3.2-33.5,5.3
		c-11.1,2.1-20.5,7.6-28.8,15c-1.9,1.7-2.6,3.8-2.6,6.2c0,7.7,0.1,15.3,0,23c-0.1,3.1,1.2,3.4,3.9,3.1c16.4-2.2,32.9-1.6,49.4,0.1
		c8.6,0.9,17.2-1.7,25.9-1.1c7.1,0.5,14.3,0.5,21.4,1.5c10.9,1.6,21.9,0.4,32.9,0.7c28.1,0.9,56.2,2.8,84.3,2.6
		c13.3-0.1,26.5,2.6,39.8,3c30.3,0.8,60.6,2,90.8,4.9c9.1,0.9,18.2,2.3,27.3,3.5c1.4,0.2,3.1,0,4.2,1.9c-2.4,2.3-5.7,2-8.6,2.4
		c-23.2,2.7-46.5,3.1-69.8,4.3c-26.6,1.4-53.2,2.6-79.8,4.6c-27.7,2.1-55.5,3.8-83.2,6.1c-16.7,1.4-33.4,3.9-50.1,5.8
		c-5.5,0.6-10.9,1.4-16.4,1.7c-20.1,0.9-40,5.1-60.2,5.5c-3.4,0.1-6.4,1.8-9.5,2.8c-2.1,0.6-2.2,2.2-2.2,3.9c0,12.5,0,25,0,37.4
		c0,2.7,1.2,4.6,3.2,6.4c10.3,9,22.1,14.1,35.9,15.9c11.2,1.5,22.5,2.6,33.4,5.7c5.5,1.6,10.2,4.7,15.4,7.3
		c-15.2,1.2-30.5-0.8-45.5,3.2c3.5,1.9,7.5,1.4,11.2,1.5c28.4,1,56.4,5.1,82.8,16c11.1,4.6,21.9,10.2,30.7,19.1
		c-31.1-7.2-62.3-13-95.3-10.3c2.8,2.8,5.5,2.7,7.8,2.8c31.5,2,61.9,9.1,91.2,20.3c11.5,4.4,22.6,9.9,32.4,18.1
		c4.7,4,9.7,7.6,13.8,12.8c-39.1-18.5-79.9-27.1-122.9-23.9c-0.1,0.5-0.3,0.9-0.4,1.4c3.6,0.9,7.2,2,10.9,2.5
		c26.4,3.6,51.7,11.2,76.7,20c16.5,5.8,32.2,13.5,47,22.8c16.2,10.3,30.8,22.5,42.2,38.2c2.1,2.9,2.1,2.9,2.8,6.7
		c-44.8-31.9-95.1-49-148.3-58.5c-5.6-1-11.5-3.6-18.8-0.8c5.7,3.5,11.4,4.6,16.7,6.5c16.8,6,34,10.6,50.6,17.2
		c15,6,30,11.9,44.2,19.4c25.5,13.5,48.8,29.6,65.3,54c5.2,7.6,9.3,15.8,12.4,24.4c0.3,0.9,1.4,1.8,0.3,2.7c-1.3,1-2.1-0.1-2.9-0.9
		c-8.3-8.7-17.5-16.2-27.1-23.3c-9.3-6.9-19.1-13-29.1-19c-11.2-6.8-22.8-13-34.8-18.3c-23.7-10.6-47.7-20.6-73-26.7
		c-5.7-1.4-11.3-2.6-17-3.8c-1.2-0.3-2.5-1-4,0.4c4.5,3.3,9.8,4.8,14.8,6.8c13,5.2,25.6,11.1,38,17.4c9.8,5,19.4,10.2,28.9,15.6
		c17.2,9.7,33.6,20.7,49.1,32.8c16.2,12.7,31.2,26.8,43.8,43.3c13.3,17.5,23.2,36.4,25.3,58.7c0.2,2.1,0,4.1,0,6.3
		c-2.4,0-3.1-1.9-4-3.4c-17.1-26.8-39.4-48.6-64.1-68.4c-21.3-17.1-44-31.9-67.5-45.5c-14.5-8.4-29.3-16.1-44.5-23.2
		c-5.8-2.7-12-5-17.5-8.3c-1.1-0.6-2.5-1.9-3.4-0.1c-0.7,1.3,0.9,1.8,1.9,2.4c38,23.8,74.4,49.8,107.6,80
		c20.7,18.8,40.1,38.9,54.6,63.1c8.5,14.3,15.1,29.2,15.3,46.2c0,3.6,0.3,7.3-1.1,10.8c-0.4,1.1-0.8,2.3-2.2,2.4
		c-1.3,0.1-1.5-1.2-1.9-2c-19.3-34.5-47.6-61.3-76.5-87.4c-22.9-20.7-47.3-39.6-72.2-57.8c-17-12.4-34.4-24.2-51.9-35.8
		c-21.6-14.4-43.3-28.9-62-47.2c-20.8-20.3-31.5-44.8-30.8-74.1c0.2-8.4-0.7-16.9-0.9-25.3c-0.1-2.5-0.7-3.9-3.7-3.9
		c-27.6,0.1-55.3,0.1-83.1,0.1c-0.2,2.4,1.6,3.3,2.7,4.6c8.9,9.7,17.9,19.3,26.8,29c1.5,1.6,3.5,3.1,2.5,5.5c-1,2.8-3.7,1.7-5.7,1.7
		c-7.9,0.2-15.9,0.1-23.8,0.1c-0.2,0.6-0.3,1.2-0.5,1.8c2.1,2.6,4.3,5.3,6.5,7.9c17.2,20.4,34.5,40.7,51.6,61.1
		c2.3,2.8,4.2,3.4,7.4,1.5c4.3-2.5,9-4.3,13.5-6.5c3-1.5,5.5-1.2,8,1.4c21.8,22.8,43.6,45.4,65.4,68.1c1.3,1.3,2.8,2.5,2.2,4.7
		c-0.7,2.4-2.9,1.8-4.6,2c-7.5,0.7-14.9,1.3-22.4,2.1c-1.1,0.1-2.7,0.2-3.2,1c-0.9,1.4,0.8,2.3,1.5,3.2
		c19.8,23.2,39.7,46.3,59.5,69.5c2,2.3,3.5,2.2,5.9,0.9c5.1-2.9,10.3-5.5,15.5-8.2c5.6-2.8,7.5-2,8.9,3.8
		c4.6,19.9,9.3,39.9,13.8,59.9c0.5,2.3,2,5.3-0.3,7c-2.4,1.8-5-0.1-7.3-1.5c-24.2-14.6-48.5-29.3-72.7-43.9
		c-0.9-0.5-1.7-1.1-2.5-1.6c-1.6-0.8-2.2-2-1.8-3.7c0.4-1.7,1.9-1.6,3.2-1.7c5.3-0.4,10.6-0.8,15.9-1.3c1.6-0.1,3.8,0.5,4.5-1.3
		c0.6-1.5-1.3-2.5-2.2-3.6c-21.5-25.3-43-50.5-64.5-75.8c-2.2-2.5-4.3-5.1-6.5-7.6c-1.1-1.3-2-2.8-1.4-4.5c0.7-1.9,2.5-1.3,3.9-1.4
		c8.4-0.6,16.8-1,26.5-1.6c-5.1-5.7-9.4-10.5-13.7-15.2c-9-10-18.2-20-27.1-30.1c-1.9-2.1-3.3-2.6-5.8-1c-4.7,2.9-9.6,5.3-14.4,8
		c-3.8,2.1-6.9,2.1-10.1-1.6c-27.9-32-56-64-84-95.9c-1.2-1.4-2.5-2.8-1.8-4.9c0.8-2.1,2.8-1.5,4.3-1.6c9.6-0.7,19.2-1.3,28.7-2
		c0.4-2-1.1-2.6-1.9-3.4c-7.2-7.2-14.5-14.2-21.6-21.5c-2.5-2.6-5.1-3.7-8.7-3.7c-35.6,0.1-71.3,0.2-106.9-0.1
		c-5.3,0-6.5,1.6-6.6,6.5c-0.5,35.8-0.3,71.6-0.1,107.4c0.2,37.5,0.9,75,2.6,112.4c1.1,23.6,1.8,47.2,5.8,70.6
		c0.3,1.5,0.3,3,0.3,4.5c0,25.3,0,50.7,0,76c0,2.9-0.3,5.7-1.6,8.3c-7.7,16.2-17.9,30.8-30.6,43.5c-2.3,2.3-4,2.7-6.6,0.2
		c-13.2-13-23.7-27.9-31.3-44.8c-1-2.3-1.3-4.8-1.3-7.3c0-25.3-0.3-50.7,0.2-76c0.2-9.4,2.2-18.8,3.1-28.3c2-22.6,3-45.2,3.8-67.8
		c2-56.8,2.1-113.6,2-170.4c0-9.5-0.3-19-0.3-28.5c0-4.3-1-6.3-6.1-6.2c-30.3,0.3-60.6,0.2-90.9,0.1c-3.1,0-5.3,0.8-7.4,3.1
		c-8.1,8.4-16.3,16.6-25.1,25.5c6.7,0.5,12.7,0.9,18.7,1.3c3.8,0.3,7.6,0.5,11.5,0.8c1.4,0.1,3.2-0.4,3.8,1.6
		c0.6,1.8-0.3,3.2-1.5,4.5c-5.5,6.3-11,12.5-16.5,18.8c-22.3,25.4-44.6,50.9-66.9,76.3c-4.6,5.2-5.8,5.4-11.9,2.1
		c-4.7-2.5-9.4-5.1-14-7.7c-1.8-1-3.1-1.3-4.7,0.6c-13.4,15-27,30-40.8,45.3c3.4,1.5,6.7,1.2,9.9,1.5c5.5,0.4,11,0.6,16.5,0.9
		c1.2,0.1,2.8-0.5,3.5,1.2c0.6,1.5,0.1,2.9-1,4.1c-3.2,3.7-6.3,7.4-9.4,11c-21.2,24.9-42.3,49.7-63.5,74.6c-0.4,0.5-0.8,1.1-1.8,2.5
		c6.4,0.6,12.2,1.2,18,1.7c1.3,0.1,2.7,0.1,4,0.2c1.2,0.1,2.4,0.2,2.7,1.7c0.3,1.4-0.1,2.6-1.5,3.4c-0.9,0.5-1.7,1.1-2.5,1.6
		c-24.1,14.5-48.2,29.1-72.3,43.6c-0.7,0.4-1.4,0.9-2.1,1.3c-1.9,1.3-4.2,2-6.1,0.7c-2-1.3-1-3.6-0.6-5.5c3.2-14,6.4-27.9,9.6-41.9
		c1.5-6.5,3-13,4.5-19.5c1.3-5.8,3.4-6.8,8.8-4c5.3,2.7,10.6,5.5,15.9,8.4c2,1.1,3.4,1.3,5.1-0.7c20.5-24.1,41.1-48.2,61.7-72.2
		c0.1-0.1,0.1-0.3,0.2-1.1c-5-1.5-10.3-0.9-15.4-1.8c-3.6-0.6-7.3-0.7-10.9-1.1c-1.6-0.2-3.6,0.4-4.2-1.7c-0.6-2,0.6-3.4,1.9-4.8
		c9.3-9.6,18.5-19.2,27.7-28.8c12.5-13,25.1-25.8,37.4-39c3-3.2,5.7-3.3,9.3-1.6c4.8,2.4,9.6,4.6,14.4,6.9c1.7,0.9,2.9,0.9,4.3-0.7
		c19.5-23.2,39.1-46.3,58.7-69.5c0.3-0.3,0.3-0.9,0.6-1.9c-8.5-0.4-16.8-0.7-25-1.1c-1.7-0.1-4,0.6-4.9-1.5
		c-0.9-2.2,0.7-3.7,2.1-5.2c9-9.6,17.9-19.3,26.8-29c1.2-1.3,2.8-2.3,3.3-4.3c-1.2-1.4-2.8-0.7-4.2-0.7c-24.2,0-48.3,0.1-72.5-0.1
		c-4.4,0-6.1,1.2-6.2,5.8c-0.5,14.4-0.3,28.8-2.3,43.1c-3,21.8-14.6,38.9-29.7,54c-15.4,15.2-33.1,27.5-50.9,39.7
		c-19.5,13.4-39.3,26.4-58.5,40.4c-16.3,11.9-32.5,24.1-48.2,36.8c-31,25.1-60.6,51.8-85.7,82.9c-6.7,8.3-12.7,17.1-17.8,26.5
		c-0.8,1.4-0.8,4.3-3.3,3.7c-2.2-0.5-2.3-3.2-2.5-5c-1-9.8,0-19.5,3.1-28.9c7.7-23.4,22.2-42.6,38.4-60.6
		c19.6-21.7,41.7-40.8,64.8-58.7c22.8-17.7,46.5-34.1,71-49.3c1-0.6,2.4-1.3,1.8-2.6c-0.7-1.4-2-0.4-3,0
		c-18.2,8.4-36.4,17-53.9,26.9c-39.7,22.3-77.4,47.6-109.5,80.3c-11.6,11.9-22.2,24.7-31,38.9c-0.8,1.4-1.4,3.1-3.9,3.1
		c-0.1-10.9,2.2-21.3,6.1-31.3c10-25.8,27.8-45.8,47.9-64.1c18.3-16.7,38.7-30.7,59.9-43.4c13.8-8.3,28-15.7,42.7-22.5
		c12.2-5.7,24.4-11.4,37.1-15.9c2.6-0.9,4.9-2.4,7.4-3.7c-0.2-0.4-0.3-0.8-0.5-1.2c-8.5,1.9-17.2,3.4-25.6,5.7
		c-19.6,5.3-38.5,12.8-57.2,20.7c-14,5.9-27.6,12.5-40.7,19.9c-21.4,12.1-41.8,25.6-59.3,43.2c-1.1,1.1-2.1,2.2-3.2,3.1
		c-0.7,0.6-1.8,1.3-2.7,0.4c-0.7-0.7,0.1-1.5,0.3-2.2c8-22.3,22.2-40,40.4-54.5c22.1-17.7,47.4-29.6,73.5-40.2
		c19.7-8,39.9-14,59.9-20.7c4.4-1.5,8.7-3.3,13-5c1.5,0,3-0.1,3.4-2.1c-0.4-0.2-0.9-0.6-1.3-0.6
		C830.8,984.4,829.7,984.6,828.6,984.8z M1611.9,775.9c-16.3,4.6-27.3,17.8-41.6,25.6c6.7-1.9,12.8-5.1,18.5-9.1
		c5.7-3.9,10.7-8.8,16.7-12.5c2.1-1.3,5.1-1.6,6.3-4.2c0.6,0.6,1.1,0.4,1.6,0c0.1,0,0-0.4,0-0.4
		C1612.8,775.1,1612.3,775.3,1611.9,775.9z M1544,773.2c-1.5-0.6-2.9,0.2-4.3,0.5c-13,3.6-23.6,11-33,20.4
		c-4.3,4.3-8.7,8.7-14.3,11.3c0,0.1,0,0.2,0.1,0.3c0-0.1,0-0.2,0-0.3c5.7,0.6,9.4-3.6,13.6-6.2c13-8.1,23.6-19.9,37.8-26.2l0.3-0.3
		L1544,773.2z M1248.6,857.9c9.2-3.5,16.7-7.8,23-14c21.1-20.6,26.7-46.1,21.2-74c-5.1-25.7-20-44.4-45.7-52
		c-25.4-7.4-48.4-1.5-66.8,17.7c-16.7,17.4-21.9,39.1-20.2,62.7c2.5,33,27.7,59.1,60.3,62.6c2.3,0.2,4.1,1.2,5.9,2.5
		c10.7,7.7,21.6,14.9,33.2,21.3c10.7,5.9,22.4,7.2,34.2,7.8c2.3,0.1,3.2-1.1,3.9-3c0.8-2.3-1-2.5-2.3-3.1c-4-2.1-8-4.1-11.9-6.3
		C1271.6,873.6,1260.2,866.5,1248.6,857.9z M1347.1,718.4c-11.8,0-21.6,0-31.4,0c-2.2,0-3.9,0.1-3.9,3.1c0,2.6,1.1,3.3,3.5,3.6
		c12.3,1.6,13.8,3.1,13.8,15.5c0.1,32,0.1,63.9,0,95.9c0,11.7-2.2,13.8-13.7,15.3c-0.5,0.1-1,0.1-1.5,0.1c-2.4-0.1-3,1.1-3.1,3.4
		c0,2.7,1.4,2.9,3.5,2.9c15.7,0,31.3,0,47,0c1.2,0,2.9,0.5,3.2-1.4c0.2-1.4,0.8-3.3-0.6-4.2c-1.2-0.7-2.8-0.6-4.3-0.9
		c-9.3-1.5-12.2-3.5-12.5-10.7c-0.5-13.6-0.3-27.3-0.4-41c0-1.7,0.4-2.6,2.5-3c9.9-1.6,17.1,1.7,22.2,10.5
		c6.7,11.7,13.5,23.3,20.9,34.6c8.5,13,20.7,18.2,35.7,17.8c1.8,0,3.7,0.2,4-2.5c0.2-2.1-0.1-3.4-2.3-4.2c-4.9-1.7-8.5-5.1-11.9-8.9
		c-13.5-15.4-23.3-33.2-33.5-50.8c-1.3-2.2-0.4-3.2,1.5-4.2c4.6-2.4,8.9-5.3,12.5-9.1c10.6-11.2,13.1-24.5,8.6-38.9
		c-4.1-13.1-14.2-19.6-27.3-21.9C1368.2,717.6,1356.7,718.7,1347.1,718.4z M1179.9,509.5c0,48.8,0,97.6,0,146.4
		c0,10.9,0,10.8,11.3,10.7c3.7,0,4.9-1,4.8-4.8c-0.2-18.3-0.1-36.6-0.1-54.9c0-75.3-0.2-150.5,0-225.8c0-17.1-0.7-33.9-5.3-50.5
		c-0.5-1.7-0.7-4-2.9-4.2c-1.7-0.1-2.3,1.8-2.6,3.2c-2.6,11.7-5.4,23.3-5.4,35.4C1180,413.2,1179.9,461.4,1179.9,509.5z
		 M1179.9,1077.5C1179.9,1077.5,1179.9,1077.5,1179.9,1077.5c0,46.3,0.2,92.6-0.1,138.9c-0.1,13.6,2.1,26.8,5.3,39.9
		c0.4,1.6,0.8,3.6,2.8,3.6c1.8,0,2.2-1.9,2.6-3.3c2.6-10.5,5.3-21.1,5.3-31.9c0.1-97.6,0.1-195.1,0.1-292.7c0-9.9-0.1-9.6-10-10
		c-4.8-0.2-6.1,1.3-6.1,6.1C1179.9,977.9,1179.9,1027.7,1179.9,1077.5z M1079.7,718.4c-11.4,0-21.1,0.1-30.8-0.1
		c-3.6-0.1-4.3,1.5-3.9,4.5c0.3,2.5,2.3,2,3.8,2.1c10.1,1,12.3,3.2,12.9,13.4c0.1,0.8,0.1,1.7,0.1,2.5c0,30.3,0.1,60.6,0,90.9
		c0,3.7-0.1,7.3-0.7,10.9c-0.9,4.8-3.6,7.3-8.1,8.2c-2,0.4-3.9,0.8-5.9,0.9c-2.3,0.1-3.2,0.9-3.2,3.3c0,2.5,1.1,3.1,3.3,3.1
		c16.3,0,32.6-0.1,49,0c4.2,0,3.7-2.5,3.1-5c-0.5-2-2.5-1.3-3.8-1.4c-14.1-1.5-16-3.5-16.3-17.7c-0.2-10.5,0.1-21-0.2-31.5
		c-0.1-3.7,0.8-4.7,4.5-3.6c4.3,1.3,8.5,2.9,13.1,3c28.7,0.8,48.4-19.6,46.7-48.1c-1.1-18.5-11.7-30.5-30-34
		C1101.6,717.7,1089.7,718.7,1079.7,718.4z M993.1,714.9c-3,0.3-6,0.5-8.9,1c-15.7,2.8-27.2,11-31.7,26.7
		c-4.5,15.7,0,29.2,12.2,40.1c7.5,6.7,16.6,11.1,25.1,16.2c5.6,3.3,11.1,6.8,15.3,11.9c7.2,8.9,7.7,18.9,3.8,29.2
		c-3.5,9.2-11.1,13-20.4,13.5c-10.9,0.6-19.2-4.3-25.5-13c-4.1-5.6-6.8-11.8-8.7-18.4c-0.7-2.3-1.2-3.6-4-2.8
		c-2.2,0.7-3.4,1.3-2.9,4.1c1.6,8.8,3,17.7,4.3,26.6c0.4,2.8,1.8,4.4,4.3,5.5c12,5.5,24.6,7.5,37.5,5c16.4-3.1,28.5-12.1,33.4-28.6
		c5.1-17.3-0.8-32.5-16-43.7c-7.5-5.5-16-9.5-24.1-14.2c-6.1-3.6-11.8-7.5-15.7-13.6c-7.6-12-4.1-29,7.3-35.2
		c12.5-6.8,27.3-1.3,33.6,12.6c1.4,3.2,2.5,6.5,3.6,9.8c0.6,1.8,0.8,3.6,3.5,3c2.3-0.5,3.5-1.3,3.1-4c-1.1-7.9-2-15.9-2.8-23.8
		c-0.2-2.1-1.1-3.3-3.2-3.8C1008.7,716.9,1001.1,715.1,993.1,714.9z M1498,772.1c-0.8,0-1.6-0.1-2.3,0.1
		c-11.1,3.2-21.6,7.5-31.2,14.1c-4.5,3.1-7.2,6.5-6,12.2c0.3,1.4-0.8,3.4,0.8,4.1c1.4,0.7,2.6-1,3.8-1.8
		C1475.1,791.9,1484.3,779.4,1498,772.1z M920.2,803.2c0-3.2,0.1-5.4,0-7.7c-0.1-2.4,0.7-4.8-2-6.7c-5.9-4.3-11.9-8.6-18.8-11.3
		c-6.1-2.5-12.2-5.2-19-5.6C895.8,779.2,905.2,793.9,920.2,803.2z M1696.1,775.4c-16.1-2.8-31.8-0.6-47.3,4
		c-10.1,3-40.6,16.3-44.7,20c5.8-1.8,11-3.1,15.9-4.9c11.4-4.2,22.6-8.8,34-12.9C1667.7,776.8,1681.8,775.1,1696.1,775.4z
		 M774.4,798.4c-26.3-17.3-78.5-30.3-91.8-22.9c4.6-0.1,8.8-0.3,13.2,0c16.9,1.1,32.6,6.5,48,12.8
		C753.7,792.3,763.7,796.3,774.4,798.4z M834.7,772.8c19,7.3,30.9,25.6,51.1,32.9C869.5,792.3,856.6,775.7,834.7,772.8z
		 M803.8,776.6c12.1,9.1,23,20.3,38,25.2c-6.4-4.2-12.1-9.2-18-14C817.9,782.9,811.3,779,803.8,776.6z M1536.6,802.4
		c8.9-2.5,32.8-18.7,39-26C1560,781.3,1549.9,794.1,1536.6,802.4z M808.9,801.2c-14.6-8.1-26.3-21.1-42.9-25.9
		C781.2,782.5,791.8,797.2,808.9,801.2z M1563.5,984.6c-0.6,0.5-0.9,0.7-1.1,0.9c0.3,0.2,0.6,0.6,0.9,0.7c0.1,0.1,0.7-0.3,0.6-0.5
		C1563.9,985.3,1563.6,985,1563.5,984.6z M1564.6,582.6l0.2-0.3l-0.3,0L1564.6,582.6z"/>
	<path id="XMLID_150_" class="st2" d="M1248.6,857.9c11.6,8.6,23,15.8,34.8,22.3c3.9,2.2,8,4.2,11.9,6.3c1.2,0.7,3,0.8,2.3,3.1
		c-0.7,1.9-1.6,3.1-3.9,3c-11.9-0.6-23.5-2-34.2-7.8c-11.6-6.3-22.5-13.5-33.2-21.3c-1.8-1.3-3.5-2.2-5.9-2.5
		c-32.6-3.5-57.8-29.6-60.3-62.6c-1.8-23.6,3.4-45.3,20.2-62.7c18.5-19.2,41.4-25.2,66.8-17.7c25.7,7.5,40.6,26.2,45.7,52
		c5.5,27.9-0.1,53.3-21.2,74C1265.3,850,1257.8,854.4,1248.6,857.9z M1273.5,793.2c-0.3-18.4-3-35.4-13.2-50.3
		c-8.1-11.9-19.2-18.8-33.7-19.7c-16.4-1-31.1,8.6-38.7,25.6c-8.8,19.5-8.9,39.7-4.3,60.2c3.2,13.8,9.4,26,20.6,35.1
		c8.2,6.7,17,11.1,27.8,5.3c1.6-0.9,3.8-2,5.5,0c3.2,3.7,6.5,2.1,9.8,0.2c4.3-2.4,8-5.4,11.2-9.1
		C1270.3,826.5,1273.3,809.9,1273.5,793.2z"/>
	<path id="XMLID_147_" class="st2" d="M1347.1,718.4c9.5,0.3,21.1-0.8,32.5,1.2c13.1,2.3,23.2,8.7,27.3,21.9
		c4.5,14.4,2,27.6-8.6,38.9c-3.6,3.8-7.8,6.7-12.5,9.1c-2,1-2.8,2-1.5,4.2c10.2,17.6,20,35.4,33.5,50.8c3.3,3.8,7,7.2,11.9,8.9
		c2.2,0.8,2.5,2.1,2.3,4.2c-0.3,2.8-2.1,2.5-4,2.5c-15,0.4-27.2-4.8-35.7-17.8c-7.4-11.3-14.1-23-20.9-34.6
		c-5.1-8.8-12.3-12.1-22.2-10.5c-2,0.3-2.5,1.3-2.5,3c0.1,13.7-0.1,27.3,0.4,41c0.3,7.2,3.2,9.2,12.5,10.7c1.5,0.2,3.2,0.1,4.3,0.9
		c1.4,0.9,0.8,2.8,0.6,4.2c-0.3,1.9-2,1.4-3.2,1.4c-15.7,0-31.3,0-47,0c-2.1,0-3.5-0.2-3.5-2.9c0-2.3,0.7-3.5,3.1-3.4
		c0.5,0,1,0,1.5-0.1c11.5-1.5,13.6-3.7,13.7-15.3c0.1-32,0.1-63.9,0-95.9c0-12.4-1.5-13.9-13.8-15.5c-2.4-0.3-3.5-1-3.5-3.6
		c0-3,1.7-3.1,3.9-3.1C1325.5,718.4,1335.4,718.4,1347.1,718.4z M1346.9,760c0,0-0.1,0-0.1,0c0,7.2,0,14.3,0,21.5
		c0,8.7,0,8.7,8.7,8.6c7.9-0.1,15.6-0.5,22.3-5.7c8.7-6.7,11.5-15.9,11.9-26.3c0.8-21.7-14.4-35.2-35.7-32c-4.7,0.7-7.1,3-7.1,7.9
		C1347,742.7,1346.9,751.3,1346.9,760z"/>
	<path id="XMLID_146_" class="st2" d="M1179.9,509.5c0-48.1,0.1-96.3,0-144.4c0-12.1,2.8-23.7,5.4-35.4c0.3-1.5,0.9-3.3,2.6-3.2
		c2.2,0.1,2.4,2.5,2.9,4.2c4.5,16.5,5.3,33.4,5.3,50.5c-0.2,75.3,0,150.5,0,225.8c0,18.3-0.1,36.6,0.1,54.9c0,3.8-1.1,4.8-4.8,4.8
		c-11.3,0-11.3,0.2-11.3-10.7C1179.9,607.1,1179.9,558.3,1179.9,509.5z"/>
	<path id="XMLID_145_" class="st2" d="M1179.9,1077.5c0-49.8,0.1-99.6-0.1-149.4c0-4.8,1.3-6.3,6.1-6.1c9.9,0.4,10,0.1,10,10
		c0,97.6,0,195.1-0.1,292.7c0,10.9-2.7,21.4-5.3,31.9c-0.3,1.4-0.8,3.3-2.6,3.3c-2,0-2.4-2-2.8-3.6c-3.1-13.1-5.4-26.3-5.3-39.9
		C1180.1,1170.1,1179.9,1123.8,1179.9,1077.5C1179.9,1077.5,1179.9,1077.5,1179.9,1077.5z"/>
	<path id="XMLID_142_" class="st2" d="M1079.7,718.4c10,0.3,21.9-0.7,33.6,1.6c18.2,3.6,28.9,15.5,30,34c1.7,28.6-18,48.9-46.7,48.1
		c-4.6-0.1-8.8-1.7-13.1-3c-3.6-1.1-4.5-0.1-4.5,3.6c0.2,10.5,0,21,0.2,31.5c0.2,14.2,2.2,16.3,16.3,17.7c1.4,0.1,3.4-0.6,3.8,1.4
		c0.6,2.5,1,5-3.1,5c-16.3-0.1-32.6-0.1-49,0c-2.2,0-3.4-0.6-3.3-3.1c0-2.4,1-3.2,3.2-3.3c2-0.1,4-0.5,5.9-0.9
		c4.5-0.9,7.3-3.5,8.1-8.2c0.6-3.7,0.7-7.3,0.7-10.9c0-30.3,0-60.6,0-90.9c0-0.8,0-1.7-0.1-2.5c-0.6-10.1-2.8-12.3-12.9-13.4
		c-1.6-0.2-3.5,0.4-3.8-2.1c-0.4-3,0.3-4.6,3.9-4.5C1058.6,718.5,1068.3,718.4,1079.7,718.4z M1079.2,761.2
		C1079.2,761.2,1079.1,761.2,1079.2,761.2c-0.1,8.5,0,17-0.1,25.5c0,2.3,0.1,4.2,2.9,5c18.1,4.7,36.3-0.6,40.7-22.8
		c0.5-2.8,0.8-5.6,0.9-8.4c1.4-22.4-13-36.7-34.7-34.5c-7.7,0.8-9.5,2.4-9.7,10.4C1079,744.5,1079.2,752.9,1079.2,761.2z"/>
	<path id="XMLID_141_" class="st2" d="M993.1,714.9c7.9,0.2,15.5,2,23.1,4.2c2,0.6,2.9,1.7,3.2,3.8c0.8,7.9,1.8,15.9,2.8,23.8
		c0.4,2.7-0.9,3.5-3.1,4c-2.7,0.6-2.9-1.2-3.5-3c-1.1-3.3-2.1-6.7-3.6-9.8c-6.3-13.9-21.1-19.4-33.6-12.6
		c-11.3,6.2-14.8,23.2-7.3,35.2c3.9,6.1,9.6,10.1,15.7,13.6c8,4.7,16.5,8.7,24.1,14.2c15.3,11.2,21.2,26.5,16,43.7
		c-4.9,16.5-17,25.4-33.4,28.6c-12.9,2.5-25.5,0.5-37.5-5c-2.5-1.1-3.9-2.7-4.3-5.5c-1.3-8.9-2.7-17.8-4.3-26.6
		c-0.5-2.8,0.8-3.4,2.9-4.1c2.8-0.9,3.3,0.5,4,2.8c1.9,6.6,4.6,12.8,8.7,18.4c6.3,8.7,14.7,13.5,25.5,13c9.3-0.5,16.9-4.3,20.4-13.5
		c3.9-10.3,3.5-20.3-3.8-29.2c-4.2-5.1-9.7-8.6-15.3-11.9c-8.6-5.1-17.6-9.5-25.1-16.2c-12.2-10.9-16.7-24.4-12.2-40.1
		c4.5-15.7,16-24,31.7-26.7C987.2,715.4,990.2,715.2,993.1,714.9z"/>
	<path id="XMLID_140_" class="st2" d="M1498,772.1c-13.6,7.3-22.8,19.8-35,28.7c-1.2,0.8-2.3,2.5-3.8,1.8c-1.6-0.7-0.5-2.7-0.8-4.1
		c-1.2-5.7,1.5-9,6-12.2c9.6-6.6,20.1-10.9,31.2-14.1C1496.4,772,1497.2,772.1,1498,772.1z"/>
	<path id="XMLID_139_" class="st2" d="M920.2,803.2c-15-9.3-24.4-24-39.8-31.3c6.8,0.4,12.9,3.1,19,5.6c6.8,2.7,12.8,7,18.8,11.3
		c2.7,1.9,1.8,4.4,2,6.7C920.3,797.8,920.2,800.1,920.2,803.2z"/>
	<path id="XMLID_138_" class="st2" d="M1696.1,775.4c-14.4-0.3-28.5,1.4-42,6.2c-11.4,4.1-22.6,8.7-34,12.9
		c-4.9,1.8-10.1,3.1-15.9,4.9c4.1-3.7,34.6-17,44.7-20C1664.4,774.8,1680,772.6,1696.1,775.4z"/>
	<path id="XMLID_137_" class="st2" d="M774.4,798.4c-10.7-2.1-20.7-6-30.7-10.1c-15.4-6.4-31.1-11.7-48-12.8c-4.3-0.3-8.6,0-13.2,0
		C695.8,768,748.1,781,774.4,798.4z"/>
	<path id="XMLID_136_" class="st2" d="M834.7,772.8c21.9,2.9,34.8,19.5,51.1,32.9C865.6,798.4,853.8,780,834.7,772.8z"/>
	<path id="XMLID_135_" class="st2" d="M1492.4,805.5c5.6-2.7,10-7,14.3-11.3c9.4-9.4,20-16.9,33-20.4c1.4-0.4,2.8-1.2,4.3-0.5
		l-0.1-0.1c-14.3,6.4-24.8,18.1-37.8,26.2C1501.9,801.9,1498.2,806,1492.4,805.5L1492.4,805.5z"/>
	<path id="XMLID_134_" class="st2" d="M803.8,776.6c7.5,2.5,14,6.3,20,11.2c5.9,4.8,11.6,9.8,18,14
		C826.8,796.9,816,785.7,803.8,776.6z"/>
	<path id="XMLID_133_" class="st2" d="M1536.6,802.4c13.2-8.3,23.4-21.1,39-26C1569.5,783.7,1545.5,799.9,1536.6,802.4z"/>
	<path id="XMLID_132_" class="st2" d="M1611.9,775.8c-1.2,2.7-4.1,3-6.3,4.2c-6,3.6-11,8.5-16.7,12.5c-5.7,3.9-11.8,7.1-18.5,9.1
		c14.3-7.8,25.3-21,41.6-25.6L1611.9,775.8z"/>
	<path id="XMLID_131_" class="st2" d="M808.9,801.2c-17.1-4.1-27.7-18.7-42.9-25.9C782.7,780.1,794.3,793.1,808.9,801.2z"/>
	<path id="XMLID_130_" class="st0" d="M828.6,984.8c1.1-0.2,2.3-0.5,3.4-0.6c0.4,0,0.8,0.4,1.3,0.6c-0.4,2-1.9,2.1-3.4,2.1
		C829.4,986.3,829,985.6,828.6,984.8z"/>
	<path id="XMLID_129_" class="st2" d="M1611.9,775.9c0.3-0.6,0.8-0.9,1.5-0.6c0.1,0,0.1,0.4,0,0.4c-0.5,0.4-1.1,0.7-1.6,0
		C1611.9,775.8,1611.9,775.9,1611.9,775.9z"/>
	<polygon id="XMLID_128_" class="st2" points="1544,773.2 1544.2,772.8 1543.9,773.1 	"/>
	<path id="XMLID_127_" class="st0" d="M1563.5,984.6c0.2,0.3,0.4,0.7,0.5,1.1c0,0.1-0.5,0.5-0.6,0.5c-0.3-0.1-0.6-0.4-0.9-0.7
		C1562.6,985.3,1562.8,985.1,1563.5,984.6z"/>
	<path id="XMLID_126_" class="st0" d="M1565.5,550.5c-0.4,0-0.7-0.1-1.1-0.1c0.2-0.2,0.3-0.4,0.5-0.6
		C1565,550.1,1565.2,550.3,1565.5,550.5z"/>
	<polygon id="XMLID_125_" class="st0" points="1564.6,582.6 1564.5,582.3 1564.7,582.4 	"/>
	<path id="XMLID_124_" class="st2" d="M1492.5,805.5c0,0.1,0,0.2,0,0.3C1492.4,805.7,1492.4,805.6,1492.5,805.5
		C1492.4,805.5,1492.5,805.5,1492.5,805.5z"/>
	<path id="XMLID_123_" class="st1" d="M1273.5,793.2c-0.2,16.6-3.2,33.3-15,47.2c-3.2,3.7-6.9,6.7-11.2,9.1
		c-3.3,1.8-6.5,3.5-9.8-0.2c-1.7-2-3.9-0.9-5.5,0c-10.8,5.8-19.6,1.4-27.8-5.3c-11.2-9.1-17.4-21.3-20.6-35.1
		c-4.7-20.4-4.5-40.7,4.3-60.2c7.6-16.9,22.4-26.6,38.7-25.6c14.5,0.9,25.6,7.9,33.7,19.7C1270.5,757.8,1273.2,774.8,1273.5,793.2z"
		/>
	<path id="XMLID_122_" class="st1" d="M1346.9,760c0-8.7,0.1-17.3,0-26c-0.1-4.9,2.4-7.2,7.1-7.9c21.4-3.2,36.5,10.3,35.7,32
		c-0.4,10.4-3.2,19.6-11.9,26.3c-6.6,5.1-14.4,5.6-22.3,5.7c-8.7,0.1-8.7,0.1-8.7-8.6c0-7.2,0-14.3,0-21.5
		C1346.8,760,1346.9,760,1346.9,760z"/>
	<path id="XMLID_121_" class="st1" d="M1079.2,761.2c0-8.3-0.2-16.7,0-25c0.2-7.9,1.9-9.6,9.7-10.4c21.8-2.2,36.2,12.1,34.7,34.5
		c-0.2,2.8-0.4,5.7-0.9,8.4c-4.4,22.2-22.6,27.5-40.7,22.8c-2.8-0.7-2.9-2.7-2.9-5C1079.2,778.2,1079.1,769.7,1079.2,761.2
		C1079.1,761.2,1079.2,761.2,1079.2,761.2z"/>
</g>
</svg>
