<?xml version="1.0" encoding="utf-8"?>
<svg xmlns="http://www.w3.org/2000/svg" width="750" height="500" version="1.0">
<path fill="#fff" d="M0,0h750v500H0V0z"/>
<path fill="#D9171A" d="M488.5,279.8l26.7-8l43.9,26.6l-27.8,7.2l41.2,24.8l27.5-7.4l43.4,26.3l-28.1,6.8l41.3,24.9l28.3-6.9l43.5,26.4l-26.7,7.7L750,437.2V500h-34.4l-59.2-35.9l8.1,28.5l-46.7-27.8l-7.7-28.5l-40.6-24.3l6.3,27.6l-42.8-25.5l-7.5-28.5l-41.1-24.6l6.9,28.1l-44.4-26.6l-7.2-28.3l-64.8-38.8l-64.9,38.8l-7.2,28.3l-44.4,26.6l6.9-28.1l-41.1,24.6l-7.5,28.5l-42.8,25.5l6.3-27.6l-40.6,24.3l-7.7,28.5l-46.7,27.8l8.1-28.5L34.4,500H0v-62.8l48.2-29l-26.7-7.7l43.5-26.4l28.3,6.9l41.3-24.9l-28.1-6.8l43.5-26.3l27.5,7.4l41.2-24.8l-27.8-7.2l43.9-26.6l26.7,8l43.6-26.2l-34.9-20.9l-26.7,8l-44-26.5l27.7-7.3l-41.3-24.7l-27.5,7.4l-43.5-26.3l28.1-6.9l-41.3-24.8L73.5,138.7l-43.6-26.3l26.7-7.7L0,67.6V0h23.6l79,47.5l-8-28.5l46.6,27.9l7.7,28.5l40.5,24.4l-6.2-27.6l42.7,25.5l7.4,28.5l41.1,24.7l-6.9-28.1l44.3,26.7l7.2,28.3l56,33.7l56-33.7l7.2-28.3l44.3-26.7l-6.9,28.1l41.1-24.7l7.4-28.5l42.7-25.5l-6.2,27.6l40.5-24.4l7.7-28.5l46.6-27.9l-8,28.5L726.4,0H750v67.6	l-56.6,37l26.7,7.7l-43.6,26.3l-28.3-6.9l-41.3,24.8l28.1,6.9l-43.5,26.3l-27.5-7.4l-41.3,24.7l27.7,7.3l-44,26.5l-26.7-8l-34.9,20.9L488.5,279.8z"/>
</svg>
