<?xml version="1.0" encoding="UTF-8" standalone="no"?>
<!-- Created with Inkscape (http://www.inkscape.org/) -->
<svg
   xmlns:svg="http://www.w3.org/2000/svg"
   xmlns="http://www.w3.org/2000/svg"
   version="1.0"
   width="660"
   height="383"
   id="svg2">
  <defs
     id="defs5" />
  <rect
     width="660"
     height="383"
     x="0"
     y="0"
     id="rect2394"
     style="opacity:1;fill:#000000;fill-opacity:1;fill-rule:evenodd;stroke:none;stroke-width:3;stroke-linecap:butt;stroke-linejoin:miter;stroke-miterlimit:4;stroke-dasharray:none;stroke-dashoffset:0;stroke-opacity:1" />
  <path
     d="M 226,294.07096 C 226,291.37843 226.44745,291.01184 231.54134,289.531 C 238.55075,287.49331 243.70861,282.88604 248.06818,274.76834 C 249.91969,271.32075 266.79531,229.35 285.56955,181.5 C 319.41342,95.24196 319.72924,94.497583 322.60227,94.216619 L 325.5,93.933238 L 359.92969,170.71662 C 408.90212,279.93247 410.14904,282.45686 417.31002,286.88258 C 419.14598,288.01727 422.9773,289.44517 425.82406,290.05569 C 430.62208,291.08468 431,291.37872 431,294.08286 L 431,297 L 390.5,297 L 350,297 L 350,294.08532 C 350,291.18624 350.04032,291.16686 357.53073,290.46495 C 371.08502,289.19481 374.76477,284.5187 371.06907,273.26083 C 367.71481,263.04304 314.77715,145.81939 313.91884,146.70898 C 312.4745,148.20599 268.97677,264.97604 267.51411,271.28294 C 264.75222,283.19195 268.425,288.33626 281.02442,290.20629 C 287.80363,291.21247 288,291.32266 288,294.12081 L 288,297 L 257,297 L 226,297 L 226,294.07096 z"
     id="path2392"
     style="fill:#851517;fill-opacity:1" />
</svg>
