<?xml version="1.0" encoding="utf-8"?>
<!-- Generator: Adobe Illustrator 19.0.0, SVG Export Plug-In . SVG Version: 6.00 Build 0)  -->
<svg version="1.1" id="Layer_1" xmlns="http://www.w3.org/2000/svg" xmlns:xlink="http://www.w3.org/1999/xlink" x="0px" y="0px"
	 viewBox="0 0 250 167" style="enable-background:new 0 0 250 167;" xml:space="preserve">
<style type="text/css">
	.st0{fill:#0F8140;}
	.st1{fill:#F2EA20;}
	.st2{fill:#D42E27;}
</style>
<g id="XMLID_4_">
	<g id="XMLID_11_">
		<path id="XMLID_14_" class="st0" d="M-1.8,114.3c0-19.4,0-38.8,0-58.2c49.5,0,98.9-0.1,148.4-0.1c34,0,68,0,102-0.1
			c3.5,0,5.1,0.5,5,4.6c-0.3,17.8-0.2,35.7-0.2,53.5c-82.8,0-165.7,0-248.5,0C2.6,114.1,0.4,114.3-1.8,114.3z"/>
		<path id="XMLID_13_" class="st1" d="M253.3,114.1c0-17.8-0.1-35.7,0.2-53.5c0.1-4.1-1.5-4.6-5-4.6c-34,0.1-68,0-102,0.1
			c-49.5,0-98.9,0.1-148.4,0.1c0-18,0-36-0.1-54.1c0-2.4,0.4-3.2,3.1-3.2c83.5,0.1,167,0.1,250.5,0c2.2,0,3,0.2,3,2.8
			c-0.1,55.9-0.1,111.9-0.1,167.8c0,0.6,1,2.2-1,2C253.5,152.4,253.4,133.2,253.3,114.1z"/>
		<path id="XMLID_12_" class="st2" d="M253.3,114.1c0.1,19.1,0.1,38.3,0.2,57.4c-83.7,0-167.5,0-251.2,0.1c-3.5,0-4.2-0.7-4.2-4.2
			c0.2-17.7,0.1-35.4,0.1-53.1c2.2-0.1,4.4-0.2,6.6-0.2C87.6,114.1,170.5,114.1,253.3,114.1z"/>
	</g>
</g>
</svg>
