<?xml version="1.0" encoding="iso-8859-1"?>
<!-- Generator: Adobe Illustrator 18.1.1, SVG Export Plug-In . SVG Version: 6.00 Build 0)  -->
<svg xmlns="http://www.w3.org/2000/svg" xmlns:xlink="http://www.w3.org/1999/xlink" version="1.1" id="Capa_1" x="0px" y="0px" viewBox="0 0 19.937 19.937" style="enable-background:new 0 0 19.937 19.937;" xml:space="preserve" width="512px" height="512px">
<g>
	<path d="M19.926,16.202c-0.118-0.194-0.676-0.194-1.592-0.315c-0.911-0.119-4.01-0.359-5.559-0.238   c-0.347,0.027-0.906,0.105-1.578,0.223c-0.143-0.096-0.417-0.266-0.726-0.4c-0.458-0.196-1.607-0.914-1.885-1.231   c-0.278-0.315-0.34-0.573-0.08-0.694c0.258-0.119,0.951-0.834,1.112-1.232c0.157-0.396,0.277-0.754,0.277-0.754   s0.794-0.08,1.39-0.277c0.595-0.199,0.812-0.316,0.812-0.316s0.258,0.594,0.258,0.674s0.199,0.158,0.438,0.14   c0.237-0.021,1.11-0.078,1.11-0.198c0-0.115-0.495-0.199-0.772-0.339s-0.419-0.297-0.438-0.416c-0.02-0.118-0.02-0.26-0.02-0.26   l0.796-0.475c0,0,0.198,0.275,0.355,0.357c0.158,0.08,1.331-0.059,1.331-0.059s0.237-0.043,0.278-0.1   c0.04-0.062,0.396,0.912,0.416,1.131c0.021,0.219,0,0.496,0,0.496s-0.002,0.198-0.22,0.237c-0.218,0.041-0.338,0.239-0.338,0.239   s-0.119,0.634,0.101,0.595c0.22-0.037,0.478-0.155,0.733-0.455c0.259-0.297,0.24-0.438,0.318-0.655   c0.08-0.22-0.139-0.556-0.22-0.873c-0.078-0.316-0.215-0.896-0.296-1.134c-0.08-0.238-0.12-0.217-0.438-0.217   c-0.317,0-0.774,0-0.831-0.021c-0.06-0.02-0.239-0.139,0-0.197c0.236-0.061,0.793-0.08,1.189-0.238   c0.397-0.162,0.835-0.301,0.936-0.162c0.097,0.141,0.932,0.936,1.01,1.096c0.081,0.158-0.018,0.414,0.181,0.514   c0,0-0.377,0.198-0.337,0.418c0.039,0.219,0.019,0.813,0.256,0.694c0.241-0.119,0.655-0.576,0.598-0.772   c-0.061-0.199-0.061-0.875-0.061-0.875s-1.329-1.391-1.37-1.51c-0.042-0.117-0.275-0.156-0.518-0.156   c-0.236,0-1.63-0.102-1.666-0.24c-0.04-0.139,0.06-0.615-0.357-1.252c-0.418-0.633-0.854-1.289-1.052-1.725   c-0.199-0.438-0.221-0.775-0.221-0.775s0.318-0.119,0.594,0c0.281,0.119,0.857,0.297,0.996,0.395   c0.14,0.102,0.535-0.098,0.597-0.256c0.058-0.16-0.021-0.477-0.021-0.557c0-0.078-0.316-0.219-0.517-0.359   c-0.197-0.139-0.555-0.355-0.773-0.633c-0.221-0.279-0.676-0.576-0.794-0.637c-0.121-0.059-0.3-0.178-0.3-0.178   s0.04-0.379-0.038-0.459c-0.081-0.078-0.499,0.459-0.499,0.459s-0.336-0.121-0.615,0c-0.275,0.119-0.594,0.119-0.952,0.139   c-0.357,0.018-0.476-0.1-0.993-0.02C9.42,2.423,9.144,2.54,8.984,2.54c-0.161,0-0.338,0.039-0.378-0.059   c-0.039-0.102,0-0.199,0-0.199s0.261-0.035,0.339-0.115c0.052-0.051-0.001-0.25-0.091-0.465c0.051-0.039,0.101-0.07,0.114-0.113   c0.018-0.047-0.175-0.18-0.287-0.25c-0.018-0.041,0.028-0.01-0.168-0.25c0,0,0.112-0.217-0.065-0.275   c-0.18-0.059-0.654,0.059-0.873,0.297c-0.22,0.24-0.278,0.457-0.22,0.717c0.059,0.258,0.199,0.258,0.119,0.477   C7.395,2.524,7.514,2.621,7.633,2.66c0.119,0.041-0.197,0.258-0.221,0.537C7.395,3.474,7.253,5.419,7.055,6.054   C6.859,6.691,6.839,6.771,6.403,7.128C5.964,7.486,5.806,7.864,5.704,8.22C5.608,8.577,5.648,8.716,5.648,8.716   S5.269,9.114,5.151,9.292C5.032,9.474,5.032,9.55,5.032,9.55S4.336,9.372,3.778,9.79c-0.554,0.414-1.19,1.309-1.528,2.938   c-0.336,1.629-1.053,2.264-1.311,2.643c-0.257,0.377-0.338,0.443-0.494,0.562c-0.161,0.121-0.438,0.447-0.438,0.447   s-0.061,0.221,0.18,0.162c0.236-0.062,0.415-0.119,0.415-0.119s-0.517,0.401-0.396,0.537c0.118,0.131,0.357-0.062,0.357-0.062   s-0.111,0.271,0,0.354c0.191,0.148,0.562,0.066,0.661,0.066c0.101,0,1.76-1.436,2.076-3.064c0.32-1.627,0.379-2.721,0.679-3.217   c0.296-0.498,0.594-0.457,0.594-0.457s-0.02,0.713,0.459,1.33c0.477,0.617,1.41,0.994,1.41,0.994s-0.081,0.477-0.537,0.674   c-0.457,0.199-0.734,0.398-0.596,0.656c0.139,0.26,0.892,1.15,1.19,1.826c0.145,0.328,0.266,0.557,0.352,0.705   c-1.147,0.279-2.106,0.551-2.495,0.744c-0.96,0.481-1.978,0.988-2.771,1.629h17.886C19.704,17.941,19.997,16.327,19.926,16.202z    M10.832,5.564c-0.064,0.166-0.423,0.359-0.423,0.359s-0.329-0.029-0.39-0.492c0.273,0.037,0.618,0.049,0.821,0.053   C10.841,5.517,10.837,5.544,10.832,5.564z M10.345,3.157c0.226-0.031,0.487-0.066,0.487-0.066S10.62,3.53,10.62,4.134   c0,0.268,0.053,0.551,0.109,0.793c-0.216-0.059-0.503-0.17-0.697-0.248c-0.031-0.68-0.268-1.418-0.268-1.418   S10.115,3.189,10.345,3.157z M7.591,1.419C7.52,1.607,7.568,2.073,7.52,1.999c-0.053-0.074-0.137-0.27-0.053-0.59   C7.556,1.089,8.1,0.889,8.1,0.889S7.666,1.234,7.591,1.419z M6.086,7.755c0,0,0.74-0.406,1.062-1.123S7.482,3.753,7.53,3.333   c0.049-0.422,0.279-0.498,0.248-0.48c-0.076,0.035-0.163,0.406-0.172,0.59C7.593,3.632,7.617,5.767,7.332,6.519   C7.049,7.273,6.086,7.755,6.086,7.755z M7.68,16.577c-0.16-0.133-0.388-0.344-0.625-0.651c-0.454-0.596-0.892-1.31-0.73-1.527   c0.157-0.219,0.772-0.438,0.772-0.438s-0.08,0.155,0.14,0.297c0.219,0.141,1.39,0.637,1.847,0.994   c0.342,0.268,0.751,0.655,0.935,0.838C9.262,16.234,8.45,16.402,7.68,16.577z" fill="#D80027"/>
</g>
<g>
</g>
<g>
</g>
<g>
</g>
<g>
</g>
<g>
</g>
<g>
</g>
<g>
</g>
<g>
</g>
<g>
</g>
<g>
</g>
<g>
</g>
<g>
</g>
<g>
</g>
<g>
</g>
<g>
</g>
</svg>
