<?xml version="1.0" encoding="utf-8"?>
<svg viewBox="213.758 0 414.248 718.729" xmlns="http://www.w3.org/2000/svg">
  <polygon style="fill: rgb(131, 131, 131);" points="317.203 665.674 311.728 677.013 290.223 685.615 267.935 702.429 276.146 702.82 296.088 699.301 322.677 692.263 328.542 689.525 329.715 695 337.535 695.391 343.009 694.218 344.183 684.051 343.009 677.013 341.836 665.674 341.836 665.674"/>
  <polygon style="fill: rgb(131, 131, 131);" points="428.837 699.887 423.362 688.548 401.857 679.946 379.569 663.132 387.78 662.741 407.722 666.26 434.311 673.298 440.176 676.036 441.349 670.561 449.169 670.17 454.643 671.343 455.817 681.51 454.643 688.548 453.47 699.887 453.47 699.887" transform="matrix(-1, 0, 0, -1, 835.385986, 1362.628052)"/>
  <polygon style="" points="278.3330078125 562.9240112304688 276.7690124511719 585.301025390625 279.25299072265625 607.655029296875 294.1549987792969 644.2899780273438 304.0899963378906 657.9500122070312 310.72100830078125 666.614990234375 347.9490051269531 667.8560180664062 407.7850036621094 667.2639770507812 418.34100341796875 657.9500122070312 423.92999267578125 648.635986328125 427.6549987792969 634.35498046875 430.760009765625 622.5570068359375 433.2690124511719 605.469970703125 434.0140075683594 590.3939819335938 430.5119934082031 561.1599731445312"/>
  <polygon style="fill: rgb(167, 15, 15);" points="274.01300048828125 356.22698974609375 273.56298828125 339.7829895019531 276.0409851074219 333.2510070800781 284.1499938964844 329.6470031738281 299.4679870605469 323.3389892578125 416.1510009765625 320.1860046386719 424.4849853515625 329.6470031738281 430.11700439453125 336.8550109863281 433.4960021972656 344.9639892578125 435.52398681640625 355.10101318359375 434.3970031738281 360.5069885253906 278.0679931640625 361.8590087890625" class="uniform"/>
  <rect x="273.759" y="352.727" width="163.084" height="215.95" style="fill: rgb(167, 15, 15);" class="uniform"/>
  <circle style="fill: rgb(255, 179, 175);" cx="355.33" cy="255.076" r="90.008"/>
  <ellipse style="" cx="354.151" cy="37.755" rx="90.114" ry="48.518"/>
  <rect x="264.037" y="36.905" width="180.531" height="205.135" style=""/>
  <polyline style="fill: none; stroke-width: 5px; stroke: rgb(0, 0, 0);" points="275.148 334.986 385.961 407.549 386.076 568.483"/>
  <circle style="fill: rgb(183, 145, 57);" cx="365.297" cy="435.474" r="10.339"/>
  <circle style="fill: rgb(183, 145, 57);" cx="365.624" cy="466.275" r="10.339"/>
  <circle style="fill: rgb(183, 145, 57);" cx="365.136" cy="496.266" r="10.339"/>
  <circle style="fill: rgb(183, 145, 57);" cx="365.462" cy="527.066" r="10.339"/>
  <polygon style="fill: rgb(167, 15, 15);" points="274.3789978027344 336.9179992675781 219.28900146484375 393.0090026855469 249.0850067138672 461.8070068359375 274.906005859375 477.614990234375 299.14599609375 467.6029968261719 301.2539978027344 448.63299560546875 285.44500732421875 424.9200134277344 278.5950012207031 392.24798583984375" class="uniform"/>
  <polygon style="fill: rgb(189, 113, 32);" points="273.32501220703125 413.85400390625 523.6300048828125 231.52699279785156 533.6420288085938 244.17300415039062 447.22100830078125 306.35400390625 406.6449890136719 335.3370056152344 389.2560119628906 352.72698974609375 369.75799560546875 371.1700134277344 357.11199951171875 386.4519958496094 341.8299865722656 408.5840148925781 329.7099914550781 429.6619873046875 319.1709899902344 442.3089904785156 311.7929992675781 450.7409973144531 301.781005859375 453.375 284.9179992675781 451.7950134277344 273.85198974609375 442.83599853515625 265.85198974609375 431.9339904785156 265.3940124511719 422.614013671875"/>
  <polygon style="fill: rgb(216, 216, 216); stroke: rgb(0, 0, 0);" points="496.184 249.822" transform="matrix(0.300151, -0.953892, 0.953892, 0.300151, 108.950775, 648.143515)"/>
  <polygon style="fill: rgb(216, 216, 216);" points="527.7969970703125 186.9149932861328 519.8469848632812 181.1739959716797 503.08099365234375 202.9340057373047 512.7379760742188 210.60400390625 515.9130249023438 207.72000122070312 603.5980224609375 276.0409851074219 615.6599731445312 282.35699462890625 607.5180053710938 271.93701171875 518.301025390625 203.69900512695312 530.447021484375 188.6820068359375" transform="matrix(0.300151, -0.953892, 0.953892, 0.300151, 168.704336, 689.90037)"/>
  <polygon style="fill: rgb(167, 15, 15);" points="425.0429992675781 407.14898681640625 441.89300537109375 410.0150146484375 458.7539978027344 410.37701416015625 472.1440124511719 403.3320007324219 479.9389953613281 383.5050048828125 480.9639892578125 360.2409973144531 477.77398681640625 335.0299987792969 473.489990234375 315.16900634765625 468.8169860839844 300.7590026855469 458.4110107421875 280.50799560546875 453.7380065917969 277.1059875488281 439.99798583984375 277.7070007324219 432.6669921875 283.6239929199219 431.25299072265625 289.0360107421875 438.0509948730469 329.5780029296875 438.44000244140625 335.4200134277344 437.2720031738281 346.7130126953125 431.82000732421875 366.9639892578125 427.5360107421875 378.25799560546875" class="uniform"/>
</svg>