<?xml version="1.0" encoding="utf-8"?>
<svg viewBox="0 0 500 500" xmlns="http://www.w3.org/2000/svg">
  <style>
    @keyframes shirt {
        0% { fill: #9d1212 }
        33% { fill: #9d1212 }
        34% { fill: #60a069 }
        66% { fill: #60a069 }
        67% { fill: #a95796 }
        99% { fill: #a95796 }
        100% { fill: #9d1212 }
    }
    @keyframes pants {
        0% { fill: #0a46a0 }
        50% { fill: #0a46a0 }
        51% { fill: #959ba5 }
        100% { fill: #959ba5 }
    }
    @keyframes hat1 {
        0% { visibility: visible }
        33% { visibility: visible }
        34% { visibility: hidden }
        66% { visibility: hidden }
        67% { visibility: hidden }
        99% { visibility: hidden }
        100% { visibility: hidden }
    }
    @keyframes hat2 {
        0% { visibility: hidden }
        33% { visibility: hidden }
        34% { visibility: visible }
        66% { visibility: visible }
        67% { visibility: hidden }
        99% { visibility: hidden }
        100% { visibility: hidden }
    }
    @keyframes hat3 {
        0% { visibility: hidden }
        33% { visibility: hidden }
        34% { visibility: hidden }
        66% { visibility: hidden }
        67% { visibility: visible }
        99% { visibility: visible }
        100% { visibility: visible }
    }
    #shirt {
      animation: shirt 1s linear infinite;
    }
    #pants {
      //animation: pants 1s linear infinite;
    }
    #hat1 {
      animation: hat1 1s linear infinite;
    }
    #hat2 {
      animation: hat2 1s linear infinite;
    }
    #hat3 {
      animation: hat3 1s linear infinite;
    }
  </style>
  <g id="body">
    <polygon style="fill: rgb(240, 200, 200);" points="232.31 127.466 226.308 144.92 270.801 143.803 258.441 124.115"/>
    <g id="shirt">
      <polygon points="199.044 146.849 219.738 135.034 238.491 137.351 254.316 137.815 266.037 135.497 272.986 135.101 284.204 149.402 287.722 214.293 285.378 237.931 283.032 263.423 279.769 279.079 266.037 287.989 242.008 289.38 215.048 289.38 205.085 280.574 193.949 251.836 195.708 161.454"/>
      <polygon points="199.203 146.654 151.753 187.873 120.104 220.782 168.749 226.807 189.009 233.405 194.713 217.259 151.166 211.048 210.359 159.136"/>
      <polygon points="272.177 137.208 325.231 165.624 380.907 100.271 398.139 110.654 335.78 178.603 326.403 180.457 311.75 178.14 281.274 161.917"/>
    </g>
    <polygon style="fill: rgb(240, 200, 200);" points="382.821 101.739 403.92 94.786 434.982 109.155 396.301 111.009"/>
    <polygon style="fill: rgb(240, 200, 200);" points="188.313 232.815 195.933 251.82 202.965 218.91 194.174 217.056"/>
    <polygon points="205.672 281.5 206.258 348.244 108.243 430.496 121.863 440.018 235.561 351.489 245.525 298.187 260.176 298.187 314.681 361.222 334.608 459.485 356.878 458.558 335.78 349.172 281.274 272.23" id="pants"/>
    <polygon style="" points="109.556 429.821 88.456 443.262 94.317 456.24 102.522 461.339 114.83 465.974 132.412 474.78 145.891 476.634 153.511 471.073 152.925 458.558 145.306 450.679 131.827 440.481 127.723 437.236"/>
    <polygon style="" points="334.608 459.021 331.091 476.634 348.088 485.905 371.531 493.32 394.387 495.638 405.522 490.076 402.592 484.978 399.076 478.952 387.354 471.535 382.079 468.292 367.428 460.875 356.878 458.094"/>
    <polygon style="fill: rgb(240, 200, 200);" points="237.905 134.57 217.979 127.155 203.913 112.322 192.191 89.148 195.122 77.096 203.913 65.972 218.565 59.946 236.146 59.946 254.316 66.899 268.968 81.268 274.242 100.735 274.828 116.957 273.656 123.446 264.864 129.935 250.213 132.716 239.663 134.107"/>
  </g>
  <polygon style="stroke: rgb(0, 0, 0);" points="197.846 85.423"/>
  <g id="hat1" style="visibility: hidden;">
    <line style="stroke-width: 9px; stroke: rgb(0, 0, 0);" x1="177.574" y1="93.533" x2="273.867" y2="64.138"/>
    <polygon style="stroke: rgb(0, 0, 0);" points="189.23 86.944 162.37 31.702 169.465 22.58 239.404 4.335 249.033 10.416 258.663 66.165"/>
  </g>
  <g id="hat2" style="visibility: hidden;">
    <polygon style="fill: rgb(210, 182, 59);" points="248.527 86.944 240.924 81.876 233.829 80.862 225.72 82.89 224.2 87.451 226.227 92.519 230.282 97.587 238.897 100.121 246.499 102.148 252.074 109.244 254.608 121.407 254.608 126.982 241.938 126.982 225.72 127.489 210.516 124.448 199.873 116.846 194.805 101.135 192.271 87.451 191.764 76.301 197.339 66.672 203.421 59.577 213.557 56.536 232.816 55.522 251.567 58.056 262.717 67.685 270.826 79.849 270.826 85.424 272.346 96.573 274.88 108.23 275.387 117.352 274.374 122.421 270.826 123.434 267.278 122.927 267.278 115.832 267.785 107.216 267.785 101.135 266.772 95.053 267.278 89.985 268.292 84.41 265.758 82.383 263.224 82.89 261.703 85.93 261.197 87.451 259.169 89.985 257.142 90.999"/>
    <polygon style="fill: rgb(164, 27, 27);" points="236.182 63.208 229.08 60.218 218.987 59.47 210.39 59.47 204.409 60.965 199.55 64.329 195.438 69.189 192.821 76.665 192.447 81.151 193.569 89.374 195.064 97.224 189.457 95.729 179.738 89.001 171.888 84.515 160.3 83.393 147.965 84.141 141.61 86.01 140.862 75.544 145.348 59.096 150.955 50.125 165.16 36.668 173.01 31.808 180.859 30.687 190.205 35.173 190.205 28.818 187.588 23.585 184.971 18.725 186.84 17.23 200.671 12.744 208.521 11.249 217.118 9.006 230.575 8.633"/>
    <polygon style="fill: rgb(255, 16, 16);" points="242.107 57.549 242.107 41.753 244.43 22.24 248.611 10.625 234.209 8.767 226.775 8.767 224.917 18.988 227.24 29.209 231.421 49.186 235.603 59.407 236.067 63.124 239.784 63.124 242.571 62.659"/>
  </g>
  <g id="hat3" style="visibility: hidden;">
    <polygon style="fill: rgb(25, 25, 25);" points="202.369 98.4 205.109 106.197 207.005 110.833 210.377 115.68 214.17 120.315 219.016 125.373 225.97 128.534 229.974 130.852 232.503 131.905 240.299 132.327 234.188 130.641 228.077 127.48 221.545 123.055 214.802 114.626 212.484 106.197 208.691 96.714"/>
    <polygon style="fill: rgb(12, 73, 3);" points="182.544 99.184 193.042 100.799 204.347 99.587 224.132 95.55 242.705 87.878 257.644 79.803 267.738 73.746 274.602 67.286 275.814 62.441 269.757 61.634 263.297 61.634 256.837 60.018 255.625 57.596 249.973 53.962 247.146 51.539 237.86 47.906 229.784 47.098 222.92 47.098 205.559 49.924 200.713 51.539 195.464 53.962 189.004 58.807 184.967 66.882 184.563 75.362 185.37 80.207 186.582 84.244 187.793 88.282 189.408 90.301"/>
  </g>
</svg>