<?xml version="1.0" encoding="utf-8"?>
<svg viewBox="0 0 500 500" xmlns="http://www.w3.org/2000/svg">
  <style>
    @keyframes firstGuy {
      0% { transform: translate(0,25px) }
      20% { transform: translate(0,0) }
      40% { transform: translate(0,0) }
      60% { transform: translate(0,0) }
      80% { transform: translate(0,0) }
      100% { transform: translate(0,0) }
    }
    @keyframes secondGuy {
      0% { transform: translate(0,0) }
      20% { transform: translate(0,0) }
      40% { transform: translate(0,25px) }
      60% { transform: translate(0,0) }
      80% { transform: translate(0,0) }
      100% { transform: translate(0,0) }
    }
    @keyframes thirdGuy {
      0% { transform: translate(0,0) }
      20% { transform: translate(0,0) }
      40% { transform: translate(0,0) }
      60% { transform: translate(0,0) }
      80% { transform: translate(0,25px) }
      100% { transform: translate(0,0) }
    }
    #firstGuy {
      animation: firstGuy 1s linear infinite;
    }
    #secondGuy {
      animation: secondGuy 1s linear infinite;
    }
    #thirdGuy {
      animation: thirdGuy 1s linear infinite;
    }
  </style>
  <g id="firstGuy">
    <polygon style="fill: rgb(196, 55, 74);" points="350.598 220.575 357.226 226.759 381.522 234.711 404.052 226.759 409.353 202.903 406.702 180.375 399.634 153.426 393.891 142.824 378.43 141.499 363.851 150.776 346.18 171.539 342.647 192.302 345.74 216.156" transform="matrix(0.954349, -0.298693, 0.298693, 0.954349, -39.020971, 120.895745)"/>
    <polygon style="fill: rgb(255, 176, 176);" points="325.262 223.985 319.96 226.193 318.193 231.495 319.96 235.913 321.727 236.796 324.82 237.68 327.029 237.68 331.447 234.587 332.33 232.821 332.33 229.286 330.562 226.636" transform="matrix(0.954349, -0.298693, 0.298693, 0.954349, -54.099633, 107.691046)"/>
    <polygon style="fill: rgb(196, 55, 74);" points="361.865 164.605 339.336 172.558 325.199 185.368 313.713 213.199 312.831 219.383 322.548 223.36 331.825 201.272 344.195 188.019 368.049 178.741 372.025 176.532" transform="matrix(0.954349, -0.298693, 0.298693, 0.954349, -42.309128, 111.136331)"/>
    <polygon style="fill: rgb(255, 176, 176);" points="441.032 122.961 440.148 118.543 442.8 115.893 447.217 113.684 453.401 113.684 460.027 122.078 459.586 124.286 453.844 129.146 452.077 129.588" transform="matrix(0.954349, -0.298693, 0.298693, 0.954349, -15.784987, 139.990811)"/>
    <polygon style="fill: rgb(196, 55, 74);" points="387.828 138.222 418.751 162.961 424.936 160.31 431.12 154.567 444.373 137.78 449.675 129.828 462.043 137.339 450.116 157.218 438.63 170.912 421.401 181.956 391.803 166.938" transform="matrix(0.954349, -0.298693, 0.298693, 0.954349, -27.165227, 134.041893)"/>
    <polygon style="fill: rgb(255, 176, 176);" points="353.808 149.193 352.484 146.983 347.183 139.033 344.091 122.245 345.417 114.293 353.808 104.132 372.805 98.832 383.407 105.458 387.825 118.269 384.291 139.916 380.757 146.983 367.946 154.053 361.761 153.61" transform="matrix(0.954349, -0.298693, 0.298693, 0.954349, -21.061233, 115.08133)"/>
    <polygon style="fill: rgb(113, 113, 113);" points="354.215 286.645 353.33 301.224 356.864 314.477 363.933 321.546 382.487 322.428 387.787 311.385 388.229 302.548 385.579 296.365 384.696 295.48" transform="matrix(0.954349, -0.298693, 0.298693, 0.954349, -74.036577, 124.651605)"/>
    <polygon style="fill: rgb(34, 16, 12);" points="375.255 217.691 374.813 229.617 373.488 238.894 369.513 250.381 356.7 265.401 346.099 273.794 342.564 276.003 348.749 289.255 354.05 291.022 369.513 288.371 377.022 287.046 384.533 277.328 390.274 266.725 392.925 254.797 395.576 245.079 405.736 250.381 415.014 254.355 426.058 264.516 432.684 275.56 434.451 286.163 435.776 299.417 435.776 301.625 451.68 298.09 453.889 295.44 456.539 284.395 455.215 275.56 451.68 255.239 449.471 248.172 419.431 220.341" transform="matrix(0.954349, -0.298693, 0.298693, 0.954349, -59.318214, 131.196865)"/>
    <polygon style="fill: rgb(113, 113, 113);" points="447.146 281.044 455.54 293.413 465.701 299.156 486.022 297.389 492.207 288.554 489.997 280.16 480.278 276.626 462.166 274.859 462.166 274.859" transform="matrix(0.954349, -0.298693, 0.298693, 0.954349, -64.286063, 153.391245)"/>
  </g>
  <g id="secondGuy">
    <polygon style="fill: rgb(189, 97, 199);" points="222.485 240.072 231.314 248.31 263.68 258.903 293.692 248.31 300.755 216.531 297.224 186.519 287.807 150.621 280.158 136.497 259.561 134.731 240.14 147.091 216.6 174.749 211.893 202.409 216.013 234.187" transform="matrix(0.986717, -0.16245, 0.16245, 0.986717, -28.568109, 44.254189)"/>
    <polygon style="fill: rgb(223, 135, 135);" points="181.446 234.616 174.384 237.558 172.029 244.621 174.384 250.506 176.737 251.682 180.857 252.859 183.799 252.859 189.684 248.74 190.862 246.386 190.862 241.677 188.507 238.147" transform="matrix(0.986717, -0.16245, 0.16245, 0.986717, -37.184968, 32.713434)"/>
    <polygon style="fill: rgb(189, 97, 199);" points="236.84 159.188 206.828 169.782 187.996 186.848 172.695 223.923 171.519 232.162 184.464 237.459 196.823 208.033 213.302 190.378 245.079 178.02 250.375 175.078" transform="matrix(0.986717, -0.16245, 0.16245, 0.986717, -29.415591, 36.902707)"/>
    <polygon style="fill: rgb(223, 135, 135);" points="354.358 124.692 353.182 118.807 356.713 115.276 362.597 112.334 370.836 112.334 379.664 123.515 379.076 126.456 371.425 132.931 369.071 133.52" transform="matrix(0.986717, -0.16245, 0.16245, 0.986717, -15.102211, 61.158271)"/>
    <polygon style="fill: rgb(189, 97, 199);" points="277.437 139.893 318.631 172.849 326.87 169.318 335.109 161.667 352.764 139.304 359.825 128.712 376.303 138.716 360.413 165.198 345.113 183.441 322.162 198.154 282.733 178.146" transform="matrix(0.986717, -0.16245, 0.16245, 0.986717, -22.207801, 55.270939)"/>
    <polygon style="fill: rgb(223, 135, 135);" points="238.368 143.918 236.603 140.975 229.543 130.383 225.423 108.02 227.189 97.426 238.368 83.891 263.674 76.83 277.798 85.657 283.683 102.723 278.974 131.56 274.267 140.975 257.201 150.391 248.962 149.802" transform="matrix(0.986717, -0.16245, 0.16245, 0.986717, -15.07474, 42.861241)"/>
    <polygon style="fill: rgb(32, 32, 32);" points="205.705 325.594 204.527 345.015 209.235 362.67 218.651 372.086 243.368 373.263 250.429 358.551 251.017 346.781 247.487 338.542 246.311 337.364" transform="matrix(0.986717, -0.16245, 0.16245, 0.986717, -53.739103, 41.643088)"/>
    <polygon style="fill: rgb(177, 176, 122);" points="241.71 239.678 241.12 255.565 239.356 267.925 234.059 283.226 216.992 303.235 202.869 314.416 198.161 317.358 206.399 335.012 213.462 337.365 234.059 333.835 244.064 332.07 254.068 319.124 261.718 304.999 265.249 289.109 268.78 276.163 282.316 283.226 294.674 288.522 309.386 302.057 318.213 316.77 320.567 330.893 322.333 348.549 322.333 351.491 343.518 346.782 346.461 343.252 349.992 328.538 348.227 316.77 343.518 289.698 340.576 280.283 300.558 243.208" transform="matrix(0.986717, -0.16245, 0.16245, 0.986717, -44.377074, 48.450032)"/>
    <polygon style="fill: rgb(32, 32, 32);" points="331.473 336.766 342.655 353.243 356.191 360.894 383.261 358.54 391.5 346.77 388.557 335.589 375.611 330.881 351.482 328.527 351.482 328.527" transform="matrix(0.986717, -0.16245, 0.16245, 0.986717, -51.196507, 63.302334)"/>
  </g>
  <g id="thirdGuy">
    <polygon style="fill: rgb(55, 123, 196);" points="80.323 250.34 91.028 260.331 130.283 273.179 166.681 260.331 175.247 221.79 170.964 185.392 159.544 141.855 150.266 124.727 125.287 122.585 101.734 137.575 73.186 171.118 67.477 204.663 72.472 243.202"/>
    <polygon style="fill: rgb(255, 176, 176);" points="22.513 228.215 13.949 231.782 11.094 240.347 13.949 247.484 16.803 248.913 21.8 250.34 25.368 250.34 32.505 245.344 33.933 242.489 33.933 236.778 31.077 232.497"/>
    <polygon style="fill: rgb(55, 123, 196);" points="98.166 143.284 61.767 156.131 38.928 176.827 20.373 221.79 18.945 231.782 34.646 238.206 49.635 202.521 69.618 181.109 108.156 166.122 114.581 162.553"/>
    <polygon style="fill: rgb(255, 176, 176);" points="253.039 133.292 251.612 126.154 255.895 121.873 263.031 118.304 273.022 118.304 283.728 131.863 283.016 135.433 273.737 143.284 270.883 143.997"/>
    <polygon style="fill: rgb(55, 123, 196);" points="152.408 143.284 202.367 183.252 212.359 178.969 222.35 169.691 243.762 142.571 252.327 129.723 272.31 141.855 253.039 173.972 234.483 196.097 206.649 213.939 158.83 189.674"/>
    <polygon style="fill: rgb(255, 176, 176);" points="116.007 134.719 113.867 131.151 105.303 118.304 100.307 91.182 102.448 78.335 116.007 61.92 146.697 53.356 163.826 64.063 170.964 84.76 165.253 119.732 159.544 131.151 138.847 142.571 128.854 141.855"/>
    <polygon style="fill: rgb(32, 32, 32);" points="30.364 345.976 28.937 369.528 34.646 390.939 46.065 402.359 76.041 403.787 84.606 385.943 85.319 371.67 81.037 361.678 79.61 360.249"/>
    <polygon style="fill: rgb(86, 25, 10);" points="83.892 251.767 83.178 271.037 81.037 286.024 74.614 304.58 53.916 328.847 36.788 342.408 31.077 345.976 41.069 367.386 49.635 370.241 74.614 365.96 86.746 363.818 98.88 348.118 108.156 330.987 112.44 311.718 116.723 296.016 133.138 304.58 148.125 311.004 165.968 327.42 176.673 345.262 179.528 362.391 181.669 383.803 181.669 387.372 207.363 381.661 210.931 377.379 215.214 359.537 213.072 345.262 207.363 312.431 203.794 301.012 155.262 256.049"/>
    <polygon style="fill: rgb(32, 32, 32);" points="181.669 385.943 195.229 405.926 211.645 415.205 244.475 412.351 254.466 398.076 250.899 384.516 235.197 378.805 205.934 375.951 205.934 375.951"/>
  </g>
</svg>