<?xml version="1.0" encoding="utf-8"?>
<svg viewBox="0 0 500 500" xmlns="http://www.w3.org/2000/svg">
  <style>
    @keyframes leftSword {
        0% { transform: rotate(0deg) translate(0px, 0px); }
        50% { transform: rotate(60deg) translate(10px, -130px); }
        100% { transform: rotate(0deg) translate(0px, 0px); }
    }
    @keyframes rightSword {
        0% { transform: rotate(0deg) translate(270px,0); }
        50% { transform: rotate(-55deg) translate(260px,-130px); }
        100% { transform: rotate(0deg) translate(270px,0); }
    }
    #leftSword {
      animation: leftSword 0.6s linear infinite;
      transform-origin: 20% 50%;
    }
    #rightSword {
      animation: rightSword 0.6s linear infinite;
      transform-origin: 80% 50%;
    }
  </style>
  <g transform="matrix(-1, 0, 0, 1, 173.955414, 175.824677)">
    <circle style="fill: rgb(255, 200, 188);" cx="-223.011" cy="21.696" r="52.407"/>
    <polygon style="fill: rgb(25, 99, 196);" points="-257.758 54.218 -275.717 66.789 -287.39 115.279 -292.778 170.953 -274.819 241.891 -246.982 254.463 -202.982 254.463 -177.839 235.606 -161.676 192.504 -160.778 156.585 -167.962 112.585 -174.247 93.728 -187.717 70.381 -198.492 57.81"/>
    <polygon style="fill: rgb(5, 92, 12);" points="-291.262 1.495 -281.243 8.383 -268.72 12.766 -254.944 15.271 -231.777 15.271 -178.553 14.644 -167.282 10.887 -154.759 5.878 -159.768 1.495 -165.403 -2.262 -169.16 -10.401 -171.665 -17.29 -177.301 -26.682 -182.31 -35.448 -189.197 -44.214 -194.207 -48.598 -206.73 -53.607 -221.131 -53.607 -238.038 -52.981 -249.935 -47.971 -262.458 -37.953 -270.599 -27.934 -274.982 -21.672 -280.618 -10.401 -280.618 -9.149"/>
  </g>
  <g transform="matrix(1, 0, 0, 1, 333.304962, 175.830444)">
    <circle style="fill: rgb(255, 200, 188);" cx="-223.011" cy="21.696" r="52.407"/>
    <polygon style="fill: rgb(196, 25, 25);" points="-257.758 54.218 -275.717 66.789 -287.39 115.279 -292.778 170.953 -274.819 241.891 -246.982 254.463 -202.982 254.463 -177.839 235.606 -161.676 192.504 -160.778 156.585 -167.962 112.585 -174.247 93.728 -187.717 70.381 -198.492 57.81"/>
    <polygon style="fill: rgb(5, 92, 12);" points="-291.262 1.495 -281.243 8.383 -268.72 12.766 -254.944 15.271 -231.777 15.271 -178.553 14.644 -167.282 10.887 -154.759 5.878 -159.768 1.495 -165.403 -2.262 -169.16 -10.401 -171.665 -17.29 -177.301 -26.682 -182.31 -35.448 -189.197 -44.214 -194.207 -48.598 -206.73 -53.607 -221.131 -53.607 -238.038 -52.981 -249.935 -47.971 -262.458 -37.953 -270.599 -27.934 -274.982 -21.672 -280.618 -10.401 -280.618 -9.149"/>
  </g>
  <g id="leftSword">
    <ellipse style="fill: rgb(56, 23, 2);" cx="110.532" cy="399.563" rx="14.468" ry="46.297"/>
    <polygon style="fill: rgb(232, 232, 232);" points="96.11 368.121 79.914 121.01 112.77 20.136 143.311 128.77 125.263 368.121"/>
    <ellipse style="fill: rgb(235, 235, 235);" cx="110.895" cy="441.83" rx="17.675" ry="6.431"/>
    <rect x="73.302" y="364.84" width="75.232" height="20.062" style="fill: rgb(144, 58, 0);"/>
  </g>
  <g transform="matrix(1, 0, 0, 1, 267.876404, -3.775244)" id="rightSword">
    <ellipse style="fill: rgb(56, 23, 2);" cx="111.111" cy="400.42" rx="14.468" ry="46.297"/>
    <ellipse style="fill: rgb(201, 127, 63);" cx="111.474" cy="442.687" rx="17.675" ry="6.431"/>
    <polygon style="fill: rgb(207, 207, 207);" points="96.11 368.121 79.914 121.01 112.77 20.136 143.311 128.77 125.263 368.121"/>
    <rect x="73.881" y="365.697" width="75.232" height="20.062" style="fill: rgb(201, 127, 63);"/>
  </g>
</svg>