<?xml version="1.0" encoding="utf-8"?>
<svg viewBox="494.414 234.493 32.321 30.328" xmlns="http://www.w3.org/2000/svg" xmlns:bx="https://boxy-svg.com" class="menuItemCogwheel">
	<style>
		@keyframes rotateWheel {
		    25% { transform: rotate(90deg); }
		    50% { transform: rotate(180deg); }
		    75% { transform: rotate(270deg); }
		    100% { transform: rotate(360deg); }
		}
		.menuItemCogwheel {
			animation: rotateWheel 3s linear infinite;
		    transform-origin: 50% 50%;
		}
	</style>
	<path style="fill: rgb(151, 151, 151);" transform="matrix(-0.139764, 0.057058, -0.057058, -0.139764, 552.337646, 279.465576)" d="M 172.138 193.205 L 193.862 193.205 L 203.108 219.021 A 72.811 72.811 0 0 1 218.265 225.299 L 243.057 213.582 L 258.418 228.943 L 246.701 253.735 A 72.811 72.811 0 0 1 252.979 268.892 L 278.795 278.138 L 278.795 299.862 L 252.979 309.108 A 72.811 72.811 0 0 1 246.701 324.265 L 258.418 349.057 L 243.057 364.418 L 218.265 352.701 A 72.811 72.811 0 0 1 203.108 358.979 L 193.862 384.795 L 172.138 384.795 L 162.892 358.979 A 72.811 72.811 0 0 1 147.735 352.701 L 122.943 364.418 L 107.582 349.057 L 119.299 324.265 A 72.811 72.811 0 0 1 113.021 309.108 L 87.205 299.862 L 87.205 278.138 L 113.021 268.892 A 72.811 72.811 0 0 1 119.299 253.735 L 107.582 228.943 L 122.943 213.582 L 147.735 225.299 A 72.811 72.811 0 0 1 162.892 219.021 Z M 183 249.233 A 39.767 39.767 0 0 0 183 328.767 A 39.767 39.767 0 0 0 183 249.233" bx:shape="cog 183 289 39.767 72.811 95.795 0.425 8 1@baec50a7" bx:origin="0.494 0.494"/>
</svg>