<?xml version="1.0" encoding="utf-8"?>
<svg viewBox="60.615 56.463 378.77 359.672" xmlns="http://www.w3.org/2000/svg" xmlns:bx="https://boxy-svg.com">
  <defs>
    <linearGradient id="gradient-0" gradientUnits="userSpaceOnUse" x1="250.21" y1="75.638" x2="250.21" y2="398.361">
      <stop offset="0" style="stop-color: rgb(194, 165, 81);"/>
      <stop offset="1" style="stop-color: rgb(138, 107, 15);"/>
    </linearGradient>
    <linearGradient id="gradient-1" gradientUnits="userSpaceOnUse" x1="250.21" y1="59.595" x2="250.21" y2="410.747">
      <stop offset="0" style="stop-color: rgb(255, 233, 168);"/>
      <stop offset="1" style="stop-color: rgb(211, 158, 0);"/>
    </linearGradient>
  </defs>
  <path d="M 250.21 59.595 L 434.821 193.723 L 364.306 410.747 L 136.114 410.747 L 65.599 193.723 Z" style="fill: url(#gradient-1);" bx:shape="n-gon 250.21 253.707 194.112 194.112 5 0 1@9a83e6c5"/>
  <path d="M 250.21 75.638 L 419.876 198.907 L 355.069 398.361 L 145.351 398.361 L 80.544 198.907 Z" style="fill: url(#gradient-0);" bx:shape="n-gon 250.21 254.035 178.397 178.397 5 0 1@bbe5a829"/>
  <g>
    <polygon style="fill: rgb(248, 222, 144);" points="108.222 239.229 122.686 278.617 250.697 202.871 249.94 158.181"/>
    <polygon style="fill: rgb(248, 222, 144);" points="249.561 198.02 262.365 157.802 390.376 233.548 390.134 278.239" transform="matrix(-1, 0, 0, -1, 639.937012, 436.041016)"/>
  </g>
  <g transform="matrix(0.873457, 0, 0, 0.873457, 32.043602, 86.188431)" style="">
    <polygon style="fill: rgb(248, 222, 144);" points="108.222 239.229 122.686 278.617 250.697 202.871 249.94 158.181"/>
    <polygon style="fill: rgb(248, 222, 144);" points="249.56100463867188 198.02000427246094 262.364990234375 157.802001953125 390.3760070800781 233.54800415039062 390.7969970703125 277.6499938964844" transform="matrix(-1, 0, 0, -1, 639.937012, 436.041016)"/>
  </g>
  <g transform="matrix(0.742947, 0, 0, 0.742947, 64.019936, 163.417557)" style="">
    <polygon style="fill: rgb(248, 222, 144);" points="108.22200012207031 239.22900390625 122.68599700927734 278.61700439453125 250.69700622558594 202.87100219726562 250.30999755859375 157.81100463867188"/>
    <polygon style="fill: rgb(248, 222, 144);" points="249.561 198.02 262.365 157.802 390.376 233.548 389.619 278.239" transform="matrix(-1, 0, 0, -1, 639.937012, 436.041016)"/>
  </g>
</svg>