<?xml version="1.0" encoding="utf-8"?>
<svg viewBox="-8.157 59.324 509.64 235.266" xmlns="http://www.w3.org/2000/svg">
  <defs>
    <linearGradient id="gradient-2" gradientUnits="userSpaceOnUse" x1="248.349" y1="48.795" x2="248.349" y2="396.941" gradientTransform="matrix(-1, 0, 0, -0.754845, 496.697998, 362.318203)">
      <stop offset="0" style="stop-color: rgba(179, 198, 235, 1)"/>
      <stop offset="1" style="stop-color: rgba(98, 137, 214, 1)"/>
    </linearGradient>
    <radialGradient id="gradient-3" gradientUnits="userSpaceOnUse" cx="101.866" cy="89.683" r="55.204" gradientTransform="matrix(2.167903, 0, 0, 2.391464, -117.976661, -128.959023)">
      <stop offset="0" style="stop-color: rgb(254, 255, 183);"/>
      <stop offset="1" style="stop-color: rgba(218, 220, 82, 0);"/>
    </radialGradient>
    <linearGradient id="gradient-7" gradientUnits="userSpaceOnUse" x1="233.745" y1="236.891" x2="233.745" y2="382.105" gradientTransform="matrix(1, 0, 0, 1, 0.983553, -8.244498)">
      <stop offset="0" style="stop-color: rgb(106, 179, 99);"/>
      <stop offset="1" style="stop-color: rgb(42, 126, 33);"/>
    </linearGradient>
    <linearGradient id="gradient-0" gradientUnits="userSpaceOnUse" x1="451.683" y1="153.06" x2="451.683" y2="263.683" gradientTransform="matrix(0.999589, -0.02867, 0.029039, 1.012445, -4.259059, 11.045061)">
      <stop offset="0" style="stop-color: rgba(31, 104, 23, 1)"/>
      <stop offset="1" style="stop-color: rgb(20, 70, 14);"/>
    </linearGradient>
    <linearGradient id="gradient-1" gradientUnits="userSpaceOnUse" x1="44.132" y1="152.846" x2="44.132" y2="289.537" gradientTransform="matrix(0.996636, 0.081955, -0.080576, 0.979856, 12.464109, -0.537943)">
      <stop offset="0" style="stop-color: rgba(31, 104, 23, 1)"/>
      <stop offset="1" style="stop-color: rgb(23, 78, 17);"/>
    </linearGradient>
  </defs>
  <rect x="-19.211" y="48.795" width="535.12" height="348.146" style="fill: url(#gradient-2);"/>
  <path d="M 318.3681836996014 263.68296527086414 C 327.4159978564464 259.1590512426753 331.28967361966943 249.38471908052585 338.10150146484375 242.57289123535156 C 344.2589051766479 236.41548752354743 351.9459650328987 232.43827236636315 360.1294250488281 228.34654235839844 C 368.1226703731302 224.3499196962474 382.6541626929315 232.4057688200804 391.7945251464844 231.1000213623047 C 403.29999777630087 229.45640583685568 401.3718136291455 224.7052990170858 408.77435302734375 221.00390625 C 410.68662956235744 220.04773619069707 410.103315854312 213.2142907719343 413.8224182128906 212.28453063964844 C 420.6859840631573 210.56866770348137 430.3879067773661 217.18445921229753 436.3092346191406 212.74343872070312 C 450.66841015574283 201.9739973885473 454.0299033831616 177.51352526306817 464.761962890625 164.09849548339844 C 467.84628047838265 160.24311131776335 477.8977465675368 149.90992217652658 484.036376953125 154.0023651123047 C 486.9256552431017 155.92856131318234 483.0935969246996 162.23789929286372 484.9541931152344 164.09849548339844 C 487.68941303730406 166.8337154054681 497.4824845930828 167.05830864408776 500.098388671875 170.98220825195312 C 503.2964760506276 175.77939248861696 502.76326772675975 181.35607962702295 507.8999328613281 185.20855712890625 C 519.0071763931592 193.53894361377758 536.2934760076434 193.40977505205208 545.9898681640625 203.10623168945312 C 554.5255794182721 211.64199970611986 561.6124805095122 218.4165140909872 571.6890869140625 225.13414001464844 C 575.4019608505528 227.6093481557335 579.1098461539203 234.3124237060547 584.99755859375 234.3124237060547" style="fill: url(#gradient-0);"/>
  <path d="M 149.432 289.537 C 141.782 277.296 131.049 259.838 127.515 245.701 C 124.038 231.794 120.107 211.135 109.409 200.437 C 102.971 193.998 91.634 195.817 86.538 200.913 C 84.625 202.827 76.458 199.336 75.58 197.578 C 66.703 179.826 54.451 141.437 25.074 156.125 C 15.333 160.996 16.115 170.707 12.209 178.519 C 11.432 180.073 4.271 178.996 2.203 178.996 C -1.32 178.996 -10.778 184.11 -12.091 188.049 C -14.207 194.398 -9.466 205.436 -14.473 210.443 C -26.554 222.524 -40.249 231.654 -51.161 244.749 C -53.313 247.331 -61.167 254.236 -61.167 257.613" style="fill: url(#gradient-1);"/>
  <g id="hellenic_clouds">
    <path d="M 271.462 130.301 C 287.171 130.301 302.892 128.134 318.413 128.134 C 324.865 128.134 329.343 133.352 335.027 136.08 C 344.691 140.719 357.083 136.167 365.364 141.136 C 369.688 143.731 388.497 156.743 379.45 163.528 C 375.662 166.369 369.109 162.231 365.726 161 C 356.791 157.751 347.561 159.194 338.277 159.194 C 332.841 159.194 328.283 161.656 323.108 162.806 C 316.814 164.205 309.114 161.777 302.883 161.361 C 281.309 159.923 265.257 164.317 248.709 150.527 C 246.22 148.453 238.52 145.68 237.152 142.942 C 234.918 138.476 245.458 134.906 245.458 132.83" style="fill-opacity: 0.39; fill: rgba(255, 255, 255, 0.64);"/>
    <path d="M 230.29 71.793 C 239.214 71.793 246.776 69.329 254.849 65.292 C 258.912 63.26 265.949 59.026 271.101 60.958 C 293.033 69.183 315.611 72.734 339.361 76.127 C 344.254 76.826 355.791 85.7 349.834 91.657 C 346.778 94.714 339.722 93.553 336.471 95.991 C 333.297 98.372 327.599 103.544 323.831 104.298 C 314.556 106.153 309.275 94.853 304.328 92.379 C 292.952 86.691 277.116 103.534 265.322 99.603 C 260.252 97.913 255.604 95.466 250.876 93.102 C 249.118 92.223 250.456 88.197 247.264 86.601 C 243.041 84.489 228.924 82.628 225.956 82.628" style="fill-opacity: 0.39; fill: rgba(255, 255, 255, 0.79);"/>
    <path d="M 428.207 80.461 C 442.274 80.461 455.123 80.232 470.102 78.655 C 478.013 77.822 489.139 75.731 496.828 78.294 C 503.305 80.453 519.188 81.874 523.554 86.24 C 525.17 87.856 532.004 89.455 529.332 93.463 C 525.282 99.538 514.136 98.158 508.024 98.158 C 489.281 98.158 472.817 93.463 454.21 93.463 C 446 93.463 429.29 91.402 429.29 85.878" style="fill-opacity: 0.39; fill: rgba(255, 255, 255, 0.7);"/>
  </g>
  <circle style="fill: url(#gradient-3);" cx="102.858" cy="85.514" r="132.018"/>
  <circle style="fill: rgb(236, 237, 167);" cx="101.866" cy="89.683" r="28.21"/>
  <path d="M -67.138 263.823 C -53.177 263.823 -47.435 258.283 -36.156 255.463 C -25.82 252.879 -17.11 236.686 -5.666 233.825 C 5.961 230.918 17.635 233.333 29.742 233.333 C 34.674 233.333 38.334 227.345 43.02 228.907 C 51.101 231.601 55.958 237.725 66.133 238.742 C 87.461 240.875 109.253 234.782 130.064 238.251 C 138.859 239.716 146.749 242.905 154.161 246.611 C 160.807 249.934 171.263 245.326 177.766 248.578 C 185.965 252.677 194.861 254.768 204.322 257.922 C 215.067 261.503 229.375 255.781 240.222 259.397 C 252.382 263.45 278.384 261.266 289.892 257.43 C 300.289 253.964 316.392 260.408 326.283 255.463 C 350.062 243.573 375.843 239.726 403.984 239.726 C 416.981 239.726 435.867 244.835 448.244 240.709 C 469.855 233.506 490.411 226.98 516.601 229.89 C 522.927 230.593 532.781 228.003 538.731 230.382 C 571.804 243.611 564.724 302.679 560.369 333.163 C 558.544 345.939 552.884 353.98 547.091 362.67 C 545.668 364.803 546.757 369.01 543.648 370.047 C 528.25 375.18 501.644 370.047 486.11 370.047 C 451.814 370.047 417.619 370.538 383.329 370.538 C 294.069 370.538 200.064 378.917 111.377 369.063 C 81.612 365.756 49.904 372.899 20.89 367.096 C 13.924 365.703 5.4 366.98 -1.732 366.604 C -23.196 365.475 -44.571 358.714 -64.188 350.867 C -71.587 347.908 -81.698 348.339 -86.809 341.524 C -103.348 319.472 -88.777 295.934 -88.777 273.167" style="fill: url(#gradient-7);"/>
  <g transform="matrix(1, 0, 0, 1, 0, -2.834955)">
    <g>
      <path d="M 18.004 254.189 C 17.533 251.365 18.392 249.49 18.392 246.814 C 18.392 246.47 18.606 242.974 18.78 243.321 C 20.362 246.486 20.461 250.952 21.885 253.801" style="fill: rgba(50, 202, 55, 0.45);"/>
      <path d="M 32.697 247.325 C 32.697 246.224 35.423 235.061 35.423 235.061 C 35.423 235.061 34.741 241.724 34.741 242.556" style="fill: rgba(50, 202, 55, 0.45);"/>
      <path d="M 41.555 244.941 C 45.594 237.872 47.006 235.521 47.006 243.578" style="fill: rgba(50, 202, 55, 0.45);"/>
      <path d="M 56.885 243.578 C 60.468 232.829 60.973 236.582 60.973 245.963" style="fill: rgba(50, 202, 55, 0.45);"/>
      <path d="M 68.468 246.303 C 69.939 241.892 70.853 235.414 70.853 243.919" style="fill: rgba(50, 202, 55, 0.45);"/>
      <path d="M 37.807 270.151 C 40.887 258.601 38.787 263.592 41.896 269.81" style="fill: rgba(50, 202, 55, 0.45);"/>
      <path d="M 87.546 284.8 C 88.121 282.644 89.003 280.544 89.25 278.327 C 89.417 276.821 88.834 273.419 90.272 273.898 C 92.425 274.616 92.997 280.088 92.997 282.074" style="fill: rgba(50, 202, 55, 0.45);"/>
      <path d="M 77.326 270.491 C 77.326 262.661 79.029 260.751 79.029 269.129" style="fill: rgba(50, 202, 55, 0.45);"/>
      <path d="M 65.743 268.447 C 65.743 267.198 65.588 265.939 65.743 264.7 C 67.086 253.954 68.27 266.205 70.172 268.107" style="fill: rgba(50, 202, 55, 0.45);"/>
      <path d="M 57.567 283.437 C 56.926 276.389 58.929 273.592 58.929 280.712" style="fill: rgba(50, 202, 55, 0.45);"/>
    </g>
    <path d="M 4.537 297.194 C 4.142 294.82 4.863 293.244 4.863 290.996 C 4.863 290.706 5.043 287.768 5.189 288.06 C 6.519 290.72 6.602 294.473 7.799 296.867" style="fill: rgba(50, 202, 55, 0.45);"/>
    <path d="M 16.886 291.425 C 16.886 290.5 19.176 281.118 19.176 281.118 C 19.176 281.118 18.604 286.717 18.604 287.417" style="fill: rgba(50, 202, 55, 0.45);"/>
    <path d="M 24.33 289.421 C 27.724 283.481 28.911 281.505 28.911 288.276" style="fill: rgba(50, 202, 55, 0.45);"/>
    <path d="M 37.214 288.276 C 40.225 279.243 40.649 282.396 40.649 290.28" style="fill: rgba(50, 202, 55, 0.45);"/>
    <path d="M 46.948 290.566 C 48.184 286.859 48.952 281.415 48.952 288.562" style="fill: rgba(50, 202, 55, 0.45);"/>
    <path d="M 21.18 310.608 C 23.769 300.901 22.003 305.096 24.616 310.322" style="fill: rgba(50, 202, 55, 0.45);"/>
    <path d="M 62.981 322.919 C 63.464 321.107 64.206 319.343 64.413 317.479 C 64.554 316.214 64.064 313.355 65.272 313.757 C 67.081 314.36 67.562 318.959 67.562 320.629" style="fill: rgba(50, 202, 55, 0.45);"/>
    <path d="M 54.392 310.894 C 54.392 304.314 55.824 302.708 55.824 309.749" style="fill: rgba(50, 202, 55, 0.45);"/>
    <path d="M 44.658 309.176 C 44.658 308.126 44.527 307.069 44.658 306.027 C 45.787 296.996 46.782 307.292 48.38 308.89" style="fill: rgba(50, 202, 55, 0.45);"/>
    <path d="M 37.786 321.774 C 37.248 315.85 38.932 313.5 38.932 319.483" style="fill: rgba(50, 202, 55, 0.45);"/>
  </g>
  <g transform="matrix(1, 0, 0, 1, 70.630493, 6.01911)">
    <g>
      <path d="M 18.004 254.189 C 17.533 251.365 18.392 249.49 18.392 246.814 C 18.392 246.47 18.606 242.974 18.78 243.321 C 20.362 246.486 20.461 250.952 21.885 253.801" style="fill: rgba(50, 202, 55, 0.45);"/>
      <path d="M 32.697 247.325 C 32.697 246.224 35.423 235.061 35.423 235.061 C 35.423 235.061 34.741 241.724 34.741 242.556" style="fill: rgba(50, 202, 55, 0.45);"/>
      <path d="M 41.555 244.941 C 45.594 237.872 47.006 235.521 47.006 243.578" style="fill: rgba(50, 202, 55, 0.45);"/>
      <path d="M 56.885 243.578 C 60.468 232.829 60.973 236.582 60.973 245.963" style="fill: rgba(50, 202, 55, 0.45);"/>
      <path d="M 68.468 246.303 C 69.939 241.892 70.853 235.414 70.853 243.919" style="fill: rgba(50, 202, 55, 0.45);"/>
      <path d="M 37.807 270.151 C 40.887 258.601 38.787 263.592 41.896 269.81" style="fill: rgba(50, 202, 55, 0.45);"/>
      <path d="M 87.546 284.8 C 88.121 282.644 89.003 280.544 89.25 278.327 C 89.417 276.821 88.834 273.419 90.272 273.898 C 92.425 274.616 92.997 280.088 92.997 282.074" style="fill: rgba(50, 202, 55, 0.45);"/>
      <path d="M 77.326 270.491 C 77.326 262.661 79.029 260.751 79.029 269.129" style="fill: rgba(50, 202, 55, 0.45);"/>
      <path d="M 65.743 268.447 C 65.743 267.198 65.588 265.939 65.743 264.7 C 67.086 253.954 68.27 266.205 70.172 268.107" style="fill: rgba(50, 202, 55, 0.45);"/>
      <path d="M 57.567 283.437 C 56.926 276.389 58.929 273.592 58.929 280.712" style="fill: rgba(50, 202, 55, 0.45);"/>
    </g>
    <path d="M 4.537 297.194 C 4.142 294.82 4.863 293.244 4.863 290.996 C 4.863 290.706 5.043 287.768 5.189 288.06 C 6.519 290.72 6.602 294.473 7.799 296.867" style="fill: rgba(50, 202, 55, 0.45);"/>
    <path d="M 16.886 291.425 C 16.886 290.5 19.176 281.118 19.176 281.118 C 19.176 281.118 18.604 286.717 18.604 287.417" style="fill: rgba(50, 202, 55, 0.45);"/>
    <path d="M 24.33 289.421 C 27.724 283.481 28.911 281.505 28.911 288.276" style="fill: rgba(50, 202, 55, 0.45);"/>
    <path d="M 37.214 288.276 C 40.225 279.243 40.649 282.396 40.649 290.28" style="fill: rgba(50, 202, 55, 0.45);"/>
    <path d="M 46.948 290.566 C 48.184 286.859 48.952 281.415 48.952 288.562" style="fill: rgba(50, 202, 55, 0.45);"/>
    <path d="M 21.18 310.608 C 23.769 300.901 22.003 305.096 24.616 310.322" style="fill: rgba(50, 202, 55, 0.45);"/>
    <path d="M 62.981 322.919 C 63.464 321.107 64.206 319.343 64.413 317.479 C 64.554 316.214 64.064 313.355 65.272 313.757 C 67.081 314.36 67.562 318.959 67.562 320.629" style="fill: rgba(50, 202, 55, 0.45);"/>
    <path d="M 54.392 310.894 C 54.392 304.314 55.824 302.708 55.824 309.749" style="fill: rgba(50, 202, 55, 0.45);"/>
    <path d="M 44.658 309.176 C 44.658 308.126 44.527 307.069 44.658 306.027 C 45.787 296.996 46.782 307.292 48.38 308.89" style="fill: rgba(50, 202, 55, 0.45);"/>
    <path d="M 37.786 321.774 C 37.248 315.85 38.932 313.5 38.932 319.483" style="fill: rgba(50, 202, 55, 0.45);"/>
  </g>
  <g transform="matrix(1, 0, 0, 1, 144.339325, 16.791939)">
    <g>
      <path d="M 18.004 254.189 C 17.533 251.365 18.392 249.49 18.392 246.814 C 18.392 246.47 18.606 242.974 18.78 243.321 C 20.362 246.486 20.461 250.952 21.885 253.801" style="fill: rgba(50, 202, 55, 0.45);"/>
      <path d="M 32.697 247.325 C 32.697 246.224 35.423 235.061 35.423 235.061 C 35.423 235.061 34.741 241.724 34.741 242.556" style="fill: rgba(50, 202, 55, 0.45);"/>
      <path d="M 41.555 244.941 C 45.594 237.872 47.006 235.521 47.006 243.578" style="fill: rgba(50, 202, 55, 0.45);"/>
      <path d="M 56.885 243.578 C 60.468 232.829 60.973 236.582 60.973 245.963" style="fill: rgba(50, 202, 55, 0.45);"/>
      <path d="M 68.468 246.303 C 69.939 241.892 70.853 235.414 70.853 243.919" style="fill: rgba(50, 202, 55, 0.45);"/>
      <path d="M 37.807 270.151 C 40.887 258.601 38.787 263.592 41.896 269.81" style="fill: rgba(50, 202, 55, 0.45);"/>
      <path d="M 87.546 284.8 C 88.121 282.644 89.003 280.544 89.25 278.327 C 89.417 276.821 88.834 273.419 90.272 273.898 C 92.425 274.616 92.997 280.088 92.997 282.074" style="fill: rgba(50, 202, 55, 0.45);"/>
      <path d="M 77.326 270.491 C 77.326 262.661 79.029 260.751 79.029 269.129" style="fill: rgba(50, 202, 55, 0.45);"/>
      <path d="M 65.743 268.447 C 65.743 267.198 65.588 265.939 65.743 264.7 C 67.086 253.954 68.27 266.205 70.172 268.107" style="fill: rgba(50, 202, 55, 0.45);"/>
      <path d="M 57.567 283.437 C 56.926 276.389 58.929 273.592 58.929 280.712" style="fill: rgba(50, 202, 55, 0.45);"/>
    </g>
    <path d="M 4.537 297.194 C 4.142 294.82 4.863 293.244 4.863 290.996 C 4.863 290.706 5.043 287.768 5.189 288.06 C 6.519 290.72 6.602 294.473 7.799 296.867" style="fill: rgba(50, 202, 55, 0.45);"/>
    <path d="M 16.886 291.425 C 16.886 290.5 19.176 281.118 19.176 281.118 C 19.176 281.118 18.604 286.717 18.604 287.417" style="fill: rgba(50, 202, 55, 0.45);"/>
    <path d="M 24.33 289.421 C 27.724 283.481 28.911 281.505 28.911 288.276" style="fill: rgba(50, 202, 55, 0.45);"/>
    <path d="M 37.214 288.276 C 40.225 279.243 40.649 282.396 40.649 290.28" style="fill: rgba(50, 202, 55, 0.45);"/>
    <path d="M 46.948 290.566 C 48.184 286.859 48.952 281.415 48.952 288.562" style="fill: rgba(50, 202, 55, 0.45);"/>
    <path d="M 21.18 310.608 C 23.769 300.901 22.003 305.096 24.616 310.322" style="fill: rgba(50, 202, 55, 0.45);"/>
    <path d="M 62.981 322.919 C 63.464 321.107 64.206 319.343 64.413 317.479 C 64.554 316.214 64.064 313.355 65.272 313.757 C 67.081 314.36 67.562 318.959 67.562 320.629" style="fill: rgba(50, 202, 55, 0.45);"/>
    <path d="M 54.392 310.894 C 54.392 304.314 55.824 302.708 55.824 309.749" style="fill: rgba(50, 202, 55, 0.45);"/>
    <path d="M 44.658 309.176 C 44.658 308.126 44.527 307.069 44.658 306.027 C 45.787 296.996 46.782 307.292 48.38 308.89" style="fill: rgba(50, 202, 55, 0.45);"/>
    <path d="M 37.786 321.774 C 37.248 315.85 38.932 313.5 38.932 319.483" style="fill: rgba(50, 202, 55, 0.45);"/>
  </g>
  <g transform="matrix(1, 0, 0, 1, 223.718063, 20.193884)">
    <g>
      <path d="M 18.004 254.189 C 17.533 251.365 18.392 249.49 18.392 246.814 C 18.392 246.47 18.606 242.974 18.78 243.321 C 20.362 246.486 20.461 250.952 21.885 253.801" style="fill: rgba(50, 202, 55, 0.45);"/>
      <path d="M 32.697 247.325 C 32.697 246.224 35.423 235.061 35.423 235.061 C 35.423 235.061 34.741 241.724 34.741 242.556" style="fill: rgba(50, 202, 55, 0.45);"/>
      <path d="M 41.555 244.941 C 45.594 237.872 47.006 235.521 47.006 243.578" style="fill: rgba(50, 202, 55, 0.45);"/>
      <path d="M 56.885 243.578 C 60.468 232.829 60.973 236.582 60.973 245.963" style="fill: rgba(50, 202, 55, 0.45);"/>
      <path d="M 68.468 246.303 C 69.939 241.892 70.853 235.414 70.853 243.919" style="fill: rgba(50, 202, 55, 0.45);"/>
      <path d="M 37.807 270.151 C 40.887 258.601 38.787 263.592 41.896 269.81" style="fill: rgba(50, 202, 55, 0.45);"/>
      <path d="M 87.546 284.8 C 88.121 282.644 89.003 280.544 89.25 278.327 C 89.417 276.821 88.834 273.419 90.272 273.898 C 92.425 274.616 92.997 280.088 92.997 282.074" style="fill: rgba(50, 202, 55, 0.45);"/>
      <path d="M 77.326 270.491 C 77.326 262.661 79.029 260.751 79.029 269.129" style="fill: rgba(50, 202, 55, 0.45);"/>
      <path d="M 65.743 268.447 C 65.743 267.198 65.588 265.939 65.743 264.7 C 67.086 253.954 68.27 266.205 70.172 268.107" style="fill: rgba(50, 202, 55, 0.45);"/>
      <path d="M 57.567 283.437 C 56.926 276.389 58.929 273.592 58.929 280.712" style="fill: rgba(50, 202, 55, 0.45);"/>
    </g>
    <path d="M 4.537 297.194 C 4.142 294.82 4.863 293.244 4.863 290.996 C 4.863 290.706 5.043 287.768 5.189 288.06 C 6.519 290.72 6.602 294.473 7.799 296.867" style="fill: rgba(50, 202, 55, 0.45);"/>
    <path d="M 16.886 291.425 C 16.886 290.5 19.176 281.118 19.176 281.118 C 19.176 281.118 18.604 286.717 18.604 287.417" style="fill: rgba(50, 202, 55, 0.45);"/>
    <path d="M 24.33 289.421 C 27.724 283.481 28.911 281.505 28.911 288.276" style="fill: rgba(50, 202, 55, 0.45);"/>
    <path d="M 37.214 288.276 C 40.225 279.243 40.649 282.396 40.649 290.28" style="fill: rgba(50, 202, 55, 0.45);"/>
    <path d="M 46.948 290.566 C 48.184 286.859 48.952 281.415 48.952 288.562" style="fill: rgba(50, 202, 55, 0.45);"/>
    <path d="M 21.18 310.608 C 23.769 300.901 22.003 305.096 24.616 310.322" style="fill: rgba(50, 202, 55, 0.45);"/>
    <path d="M 62.981 322.919 C 63.464 321.107 64.206 319.343 64.413 317.479 C 64.554 316.214 64.064 313.355 65.272 313.757 C 67.081 314.36 67.562 318.959 67.562 320.629" style="fill: rgba(50, 202, 55, 0.45);"/>
    <path d="M 54.392 310.894 C 54.392 304.314 55.824 302.708 55.824 309.749" style="fill: rgba(50, 202, 55, 0.45);"/>
    <path d="M 44.658 309.176 C 44.658 308.126 44.527 307.069 44.658 306.027 C 45.787 296.996 46.782 307.292 48.38 308.89" style="fill: rgba(50, 202, 55, 0.45);"/>
    <path d="M 37.786 321.774 C 37.248 315.85 38.932 313.5 38.932 319.483" style="fill: rgba(50, 202, 55, 0.45);"/>
  </g>
  <g transform="matrix(1, 0, 0, 1, 301.96283, 21.327868)">
    <g>
      <path d="M 18.004 254.189 C 17.533 251.365 18.392 249.49 18.392 246.814 C 18.392 246.47 18.606 242.974 18.78 243.321 C 20.362 246.486 20.461 250.952 21.885 253.801" style="fill: rgba(50, 202, 55, 0.45);"/>
      <path d="M 32.697 247.325 C 32.697 246.224 35.423 235.061 35.423 235.061 C 35.423 235.061 34.741 241.724 34.741 242.556" style="fill: rgba(50, 202, 55, 0.45);"/>
      <path d="M 41.555 244.941 C 45.594 237.872 47.006 235.521 47.006 243.578" style="fill: rgba(50, 202, 55, 0.45);"/>
      <path d="M 56.885 243.578 C 60.468 232.829 60.973 236.582 60.973 245.963" style="fill: rgba(50, 202, 55, 0.45);"/>
      <path d="M 68.468 246.303 C 69.939 241.892 70.853 235.414 70.853 243.919" style="fill: rgba(50, 202, 55, 0.45);"/>
      <path d="M 37.807 270.151 C 40.887 258.601 38.787 263.592 41.896 269.81" style="fill: rgba(50, 202, 55, 0.45);"/>
      <path d="M 87.546 284.8 C 88.121 282.644 89.003 280.544 89.25 278.327 C 89.417 276.821 88.834 273.419 90.272 273.898 C 92.425 274.616 92.997 280.088 92.997 282.074" style="fill: rgba(50, 202, 55, 0.45);"/>
      <path d="M 77.326 270.491 C 77.326 262.661 79.029 260.751 79.029 269.129" style="fill: rgba(50, 202, 55, 0.45);"/>
      <path d="M 65.743 268.447 C 65.743 267.198 65.588 265.939 65.743 264.7 C 67.086 253.954 68.27 266.205 70.172 268.107" style="fill: rgba(50, 202, 55, 0.45);"/>
      <path d="M 57.567 283.437 C 56.926 276.389 58.929 273.592 58.929 280.712" style="fill: rgba(50, 202, 55, 0.45);"/>
    </g>
    <path d="M 4.537 297.194 C 4.142 294.82 4.863 293.244 4.863 290.996 C 4.863 290.706 5.043 287.768 5.189 288.06 C 6.519 290.72 6.602 294.473 7.799 296.867" style="fill: rgba(50, 202, 55, 0.45);"/>
    <path d="M 16.886 291.425 C 16.886 290.5 19.176 281.118 19.176 281.118 C 19.176 281.118 18.604 286.717 18.604 287.417" style="fill: rgba(50, 202, 55, 0.45);"/>
    <path d="M 24.33 289.421 C 27.724 283.481 28.911 281.505 28.911 288.276" style="fill: rgba(50, 202, 55, 0.45);"/>
    <path d="M 37.214 288.276 C 40.225 279.243 40.649 282.396 40.649 290.28" style="fill: rgba(50, 202, 55, 0.45);"/>
    <path d="M 46.948 290.566 C 48.184 286.859 48.952 281.415 48.952 288.562" style="fill: rgba(50, 202, 55, 0.45);"/>
    <path d="M 21.18 310.608 C 23.769 300.901 22.003 305.096 24.616 310.322" style="fill: rgba(50, 202, 55, 0.45);"/>
    <path d="M 62.981 322.919 C 63.464 321.107 64.206 319.343 64.413 317.479 C 64.554 316.214 64.064 313.355 65.272 313.757 C 67.081 314.36 67.562 318.959 67.562 320.629" style="fill: rgba(50, 202, 55, 0.45);"/>
    <path d="M 54.392 310.894 C 54.392 304.314 55.824 302.708 55.824 309.749" style="fill: rgba(50, 202, 55, 0.45);"/>
    <path d="M 44.658 309.176 C 44.658 308.126 44.527 307.069 44.658 306.027 C 45.787 296.996 46.782 307.292 48.38 308.89" style="fill: rgba(50, 202, 55, 0.45);"/>
    <path d="M 37.786 321.774 C 37.248 315.85 38.932 313.5 38.932 319.483" style="fill: rgba(50, 202, 55, 0.45);"/>
  </g>
  <g transform="matrix(1, 0, 0, 1, 349.023071, 6.01911)">
    <g>
      <path d="M 18.004 254.189 C 17.533 251.365 18.392 249.49 18.392 246.814 C 18.392 246.47 18.606 242.974 18.78 243.321 C 20.362 246.486 20.461 250.952 21.885 253.801" style="fill: rgba(50, 202, 55, 0.45);"/>
      <path d="M 32.697 247.325 C 32.697 246.224 35.423 235.061 35.423 235.061 C 35.423 235.061 34.741 241.724 34.741 242.556" style="fill: rgba(50, 202, 55, 0.45);"/>
      <path d="M 41.555 244.941 C 45.594 237.872 47.006 235.521 47.006 243.578" style="fill: rgba(50, 202, 55, 0.45);"/>
      <path d="M 56.885 243.578 C 60.468 232.829 60.973 236.582 60.973 245.963" style="fill: rgba(50, 202, 55, 0.45);"/>
      <path d="M 68.468 246.303 C 69.939 241.892 70.853 235.414 70.853 243.919" style="fill: rgba(50, 202, 55, 0.45);"/>
      <path d="M 37.807 270.151 C 40.887 258.601 38.787 263.592 41.896 269.81" style="fill: rgba(50, 202, 55, 0.45);"/>
      <path d="M 87.546 284.8 C 88.121 282.644 89.003 280.544 89.25 278.327 C 89.417 276.821 88.834 273.419 90.272 273.898 C 92.425 274.616 92.997 280.088 92.997 282.074" style="fill: rgba(50, 202, 55, 0.45);"/>
      <path d="M 77.326 270.491 C 77.326 262.661 79.029 260.751 79.029 269.129" style="fill: rgba(50, 202, 55, 0.45);"/>
      <path d="M 65.743 268.447 C 65.743 267.198 65.588 265.939 65.743 264.7 C 67.086 253.954 68.27 266.205 70.172 268.107" style="fill: rgba(50, 202, 55, 0.45);"/>
      <path d="M 57.567 283.437 C 56.926 276.389 58.929 273.592 58.929 280.712" style="fill: rgba(50, 202, 55, 0.45);"/>
    </g>
    <path d="M 4.537 297.194 C 4.142 294.82 4.863 293.244 4.863 290.996 C 4.863 290.706 5.043 287.768 5.189 288.06 C 6.519 290.72 6.602 294.473 7.799 296.867" style="fill: rgba(50, 202, 55, 0.45);"/>
    <path d="M 16.886 291.425 C 16.886 290.5 19.176 281.118 19.176 281.118 C 19.176 281.118 18.604 286.717 18.604 287.417" style="fill: rgba(50, 202, 55, 0.45);"/>
    <path d="M 24.33 289.421 C 27.724 283.481 28.911 281.505 28.911 288.276" style="fill: rgba(50, 202, 55, 0.45);"/>
    <path d="M 37.214 288.276 C 40.225 279.243 40.649 282.396 40.649 290.28" style="fill: rgba(50, 202, 55, 0.45);"/>
    <path d="M 46.948 290.566 C 48.184 286.859 48.952 281.415 48.952 288.562" style="fill: rgba(50, 202, 55, 0.45);"/>
    <path d="M 21.18 310.608 C 23.769 300.901 22.003 305.096 24.616 310.322" style="fill: rgba(50, 202, 55, 0.45);"/>
    <path d="M 62.981 322.919 C 63.464 321.107 64.206 319.343 64.413 317.479 C 64.554 316.214 64.064 313.355 65.272 313.757 C 67.081 314.36 67.562 318.959 67.562 320.629" style="fill: rgba(50, 202, 55, 0.45);"/>
    <path d="M 54.392 310.894 C 54.392 304.314 55.824 302.708 55.824 309.749" style="fill: rgba(50, 202, 55, 0.45);"/>
    <path d="M 44.658 309.176 C 44.658 308.126 44.527 307.069 44.658 306.027 C 45.787 296.996 46.782 307.292 48.38 308.89" style="fill: rgba(50, 202, 55, 0.45);"/>
    <path d="M 37.786 321.774 C 37.248 315.85 38.932 313.5 38.932 319.483" style="fill: rgba(50, 202, 55, 0.45);"/>
  </g>
  <g transform="matrix(1, 0, 0, 1, 426.13385, 1.483182)">
    <g>
      <path d="M 18.004 254.189 C 17.533 251.365 18.392 249.49 18.392 246.814 C 18.392 246.47 18.606 242.974 18.78 243.321 C 20.362 246.486 20.461 250.952 21.885 253.801" style="fill: rgba(50, 202, 55, 0.45);"/>
      <path d="M 32.697 247.325 C 32.697 246.224 35.423 235.061 35.423 235.061 C 35.423 235.061 34.741 241.724 34.741 242.556" style="fill: rgba(50, 202, 55, 0.45);"/>
      <path d="M 41.555 244.941 C 45.594 237.872 47.006 235.521 47.006 243.578" style="fill: rgba(50, 202, 55, 0.45);"/>
      <path d="M 56.885 243.578 C 60.468 232.829 60.973 236.582 60.973 245.963" style="fill: rgba(50, 202, 55, 0.45);"/>
      <path d="M 68.468 246.303 C 69.939 241.892 70.853 235.414 70.853 243.919" style="fill: rgba(50, 202, 55, 0.45);"/>
      <path d="M 37.807 270.151 C 40.887 258.601 38.787 263.592 41.896 269.81" style="fill: rgba(50, 202, 55, 0.45);"/>
      <path d="M 87.546 284.8 C 88.121 282.644 89.003 280.544 89.25 278.327 C 89.417 276.821 88.834 273.419 90.272 273.898 C 92.425 274.616 92.997 280.088 92.997 282.074" style="fill: rgba(50, 202, 55, 0.45);"/>
      <path d="M 77.326 270.491 C 77.326 262.661 79.029 260.751 79.029 269.129" style="fill: rgba(50, 202, 55, 0.45);"/>
      <path d="M 65.743 268.447 C 65.743 267.198 65.588 265.939 65.743 264.7 C 67.086 253.954 68.27 266.205 70.172 268.107" style="fill: rgba(50, 202, 55, 0.45);"/>
      <path d="M 57.567 283.437 C 56.926 276.389 58.929 273.592 58.929 280.712" style="fill: rgba(50, 202, 55, 0.45);"/>
    </g>
    <path d="M 4.537 297.194 C 4.142 294.82 4.863 293.244 4.863 290.996 C 4.863 290.706 5.043 287.768 5.189 288.06 C 6.519 290.72 6.602 294.473 7.799 296.867" style="fill: rgba(50, 202, 55, 0.45);"/>
    <path d="M 16.886 291.425 C 16.886 290.5 19.176 281.118 19.176 281.118 C 19.176 281.118 18.604 286.717 18.604 287.417" style="fill: rgba(50, 202, 55, 0.45);"/>
    <path d="M 24.33 289.421 C 27.724 283.481 28.911 281.505 28.911 288.276" style="fill: rgba(50, 202, 55, 0.45);"/>
    <path d="M 37.214 288.276 C 40.225 279.243 40.649 282.396 40.649 290.28" style="fill: rgba(50, 202, 55, 0.45);"/>
    <path d="M 46.948 290.566 C 48.184 286.859 48.952 281.415 48.952 288.562" style="fill: rgba(50, 202, 55, 0.45);"/>
    <path d="M 21.18 310.608 C 23.769 300.901 22.003 305.096 24.616 310.322" style="fill: rgba(50, 202, 55, 0.45);"/>
    <path d="M 62.981 322.919 C 63.464 321.107 64.206 319.343 64.413 317.479 C 64.554 316.214 64.064 313.355 65.272 313.757 C 67.081 314.36 67.562 318.959 67.562 320.629" style="fill: rgba(50, 202, 55, 0.45);"/>
    <path d="M 54.392 310.894 C 54.392 304.314 55.824 302.708 55.824 309.749" style="fill: rgba(50, 202, 55, 0.45);"/>
    <path d="M 44.658 309.176 C 44.658 308.126 44.527 307.069 44.658 306.027 C 45.787 296.996 46.782 307.292 48.38 308.89" style="fill: rgba(50, 202, 55, 0.45);"/>
    <path d="M 37.786 321.774 C 37.248 315.85 38.932 313.5 38.932 319.483" style="fill: rgba(50, 202, 55, 0.45);"/>
  </g>
  <polygon style="fill: rgb(179, 67, 20);" points="358.594 224.098 358.704 230.469 362.51 229.113 359.401 223.743"/>
  <polygon style="fill: rgb(72, 167, 67);" points="357.53 226.911 363.412 224.104 360.224 222.83 362.022 222.38 358.434 220.004 360.358 219.645 355.731 217.16 354.625 222.406 356.442 221.07 355.345 225.352 357.083 223.773 356.087 227.612" transform="matrix(0.996124, 0.087956, -0.087956, 0.996124, 20.951618, -30.715954)"/>
  <polygon style="fill: rgb(179, 67, 20);" points="376.004 225.648 376.114 232.019 379.92 230.663 376.811 225.293" transform="matrix(0.815627, 0.578579, -0.578579, 0.815627, 201.981649, -176.522675)"/>
  <polygon style="fill: rgb(72, 167, 67);" points="377.954 228.444 383.835 225.637 380.648 224.363 382.446 223.913 378.858 221.537 380.782 221.178 376.155 218.693 375.049 223.939 376.866 222.603 375.769 226.885 377.507 225.306 376.511 229.145" transform="matrix(0.761576, 0.648075, -0.648075, 0.761576, 235.584362, -192.519388)"/>
  <polygon style="fill: rgb(179, 67, 20);" points="414.118 208.855 414.197 213.395 416.909 212.429 414.693 208.602" transform="matrix(0.994627, 0.103523, -0.103523, 0.994627, 24.075728, -41.881523)"/>
  <polygon style="fill: rgb(72, 167, 67);" points="413.714 210.765 417.906 208.764 415.634 207.856 416.915 207.535 414.359 205.842 415.729 205.586 412.433 203.815 411.644 207.553 412.939 206.602 412.157 209.653 413.396 208.528 412.686 211.264" transform="matrix(0.981667, 0.190605, -0.190605, 0.981667, 47.162201, -75.253313)"/>
  <polygon style="fill: rgb(179, 67, 20);" points="420.961 209.989 421.04 214.529 423.752 213.563 421.536 209.736" transform="matrix(0.955543, 0.294851, -0.294851, 0.955543, 81.323933, -115.101361)"/>
  <polygon style="fill: rgb(72, 167, 67);" points="421.244 211.822 425.436 209.821 423.164 208.913 424.445 208.592 421.889 206.899 423.259 206.643 419.963 204.872 419.174 208.61 420.469 207.659 419.687 210.71 420.926 209.585 420.216 212.321" transform="matrix(0.925906, 0.377753, -0.377753, 0.925906, 110.088179, -144.071435)"/>
  <polygon style="fill: rgb(179, 67, 20);" points="428.071 211.791 428.133 215.403 430.291 214.634 428.528 211.589" transform="matrix(0.846671, 0.532117, -0.532117, 0.846671, 179.410865, -195.639371)"/>
  <polygon style="fill: rgb(72, 167, 67);" points="429.025 213.335 432.36 211.743 430.552 211.021 431.571 210.765 429.538 209.418 430.628 209.215 428.005 207.806 427.378 210.78 428.408 210.023 427.786 212.45 428.772 211.555 428.207 213.732" transform="matrix(0.796587, 0.604524, -0.604524, 0.796587, 214.855762, -216.992887)"/>
  <polygon style="fill: rgb(179, 67, 20);" points="489.436 164.877 489.495 168.218 491.49 167.507 489.859 164.691" transform="matrix(0.947245, 0.320511, -0.320511, 0.947245, 79.224963, -148.41743)"/>
  <polygon style="fill: rgb(72, 167, 67);" points="489.713 166.226 492.798 164.753 491.126 164.085 492.069 163.849 490.188 162.603 491.196 162.415 488.771 161.112 488.19 163.862 489.143 163.162 488.568 165.407 489.479 164.58 488.957 166.593" transform="matrix(0.915383, 0.402584, -0.402584, 0.915383, 107.468508, -183.600344)"/>
  <polygon style="fill: rgb(179, 67, 20);" points="494.163 166.803 494.221 170.144 496.217 169.433 494.586 166.617" transform="matrix(0.866894, 0.498493, -0.498493, 0.866894, 149.849348, -224.436205)"/>
  <polygon style="fill: rgb(72, 167, 67);" points="494.946 168.207 498.031 166.735 496.359 166.067 497.302 165.831 495.421 164.585 496.429 164.396 494.004 163.093 493.423 165.844 494.376 165.144 493.801 167.389 494.712 166.561 494.19 168.575" transform="matrix(0.819689, 0.572809, -0.572809, 0.819689, 184.376265, -254.055147)"/>
  <polygon style="fill: rgb(179, 67, 20);" points="499.05 169.213 499.096 171.87 500.683 171.305 499.386 169.064" transform="matrix(0.708336, 0.705876, -0.705876, 0.708336, 266.121718, -303.124487)"/>
  <polygon style="fill: rgb(72, 167, 67);" points="500.182 170.51 502.636 169.338 501.305 168.807 502.055 168.619 500.559 167.628 501.361 167.478 499.431 166.441 498.97 168.63 499.728 168.073 499.27 169.859 499.995 169.2 499.58 170.802" transform="matrix(0.643505, 0.765442, -0.765442, 0.643505, 307.603677, -323.222859)"/>
  <polygon style="fill: rgb(179, 67, 20);" points="95.88 194.13 95.949 198.024 98.274 197.195 96.373 193.913" transform="matrix(0.947245, 0.320511, -0.320511, 0.947245, 67.931369, -20.775887)"/>
  <polygon style="fill: rgb(72, 167, 67);" points="96.203 195.702 99.799 193.986 97.85 193.207 98.949 192.932 96.757 191.48 97.932 191.261 95.105 189.742 94.428 192.947 95.539 192.131 94.869 194.748 95.931 193.784 95.322 196.13" transform="matrix(0.915383, 0.402584, -0.402584, 0.915383, 85.8904, -22.770686)"/>
  <polygon style="fill: rgb(179, 67, 20);" points="101.39 196.375 101.457 200.269 103.783 199.44 101.883 196.158" transform="matrix(0.866894, 0.498493, -0.498493, 0.866894, 112.462921, -24.755192)"/>
  <polygon style="fill: rgb(72, 167, 67);" points="102.302 198.011 105.898 196.296 103.949 195.517 105.048 195.242 102.856 193.79 104.031 193.57 101.204 192.051 100.527 195.257 101.638 194.441 100.968 197.058 102.029 196.093 101.421 198.44" transform="matrix(0.819689, 0.572809, -0.572809, 0.819689, 130.448722, -23.916116)"/>
  <polygon style="fill: rgb(179, 67, 20);" points="107.085 199.184 107.139 202.28 108.988 201.622 107.477 199.01" transform="matrix(0.708336, 0.705876, -0.705876, 0.708336, 173.140818, -17.73936)"/>
  <polygon style="fill: rgb(72, 167, 67);" points="108.405 200.695 111.265 199.329 109.713 198.71 110.587 198.491 108.844 197.336 109.779 197.161 107.529 195.953 106.992 198.504 107.875 197.855 107.342 199.936 108.187 199.168 107.703 201.035" transform="matrix(0.643505, 0.765442, -0.765442, 0.643505, 190.839372, -12.769414)"/>
  <polygon style="fill: rgb(179, 67, 20);" points="89.38 206.399 89.462 211.03 92.226 210.044 89.966 206.141" transform="matrix(0.990601, 0.136785, -0.136785, 0.990601, 29.38484, -10.459941)"/>
  <polygon style="fill: rgb(72, 167, 67);" points="89.085 208.324 93.361 206.284 91.043 205.358 92.35 205.03 89.744 203.304 91.141 203.043 87.779 201.237 86.974 205.048 88.295 204.078 87.499 207.19 88.761 206.044 88.037 208.833" transform="matrix(0.974731, 0.223383, -0.223383, 0.974731, 48.079789, -14.960804)"/>
  <polygon style="fill: rgb(179, 67, 20);" points="96.317 207.791 96.397 212.421 99.163 211.435 96.903 207.533" transform="matrix(0.94513, 0.326696, -0.326696, 0.94513, 73.96166, -20.409716)"/>
  <polygon style="fill: rgb(72, 167, 67);" points="96.725 209.659 101.001 207.619 98.683 206.693 99.99 206.366 97.384 204.639 98.781 204.378 95.419 202.571 94.614 206.384 95.935 205.413 95.139 208.525 96.4 207.378 95.677 210.169" transform="matrix(0.912732, 0.408559, -0.408559, 0.912732, 92.849779, -21.950618)"/>
  <polygon style="fill: rgb(179, 67, 20);" points="103.516 209.861 103.58 213.542 105.779 212.76 103.982 209.654" transform="matrix(0.82837, 0.560182, -0.560182, 0.82837, 136.494055, -22.304991)"/>
  <polygon style="fill: rgb(72, 167, 67);" points="104.583 211.459 107.983 209.835 106.138 209.099 107.177 208.838 105.105 207.465 106.216 207.257 103.541 205.82 102.902 208.854 103.952 208.082 103.319 210.556 104.323 209.643 103.748 211.863" transform="matrix(0.775889, 0.63087, -0.63087, 0.775889, 155.382657, -19.71675)"/>
  <polygon style="fill: rgb(179, 67, 20);" points="33.729 151.369 33.802 155.453 36.239 154.584 34.246 151.142" transform="matrix(0.990601, 0.136785, -0.136785, 0.990601, 21.297617, -3.344406)"/>
  <polygon style="fill: rgb(72, 167, 67);" points="33.469 153.067 37.24 151.268 35.196 150.451 36.348 150.162 34.05 148.64 35.282 148.41 32.317 146.817 31.607 150.178 32.772 149.322 32.07 152.067 33.183 151.056 32.545 153.516" transform="matrix(0.974731, 0.223383, -0.223383, 0.974731, 34.414494, -3.89503)"/>
  <polygon style="fill: rgb(179, 67, 20);" points="39.846 152.597 39.916 156.68 42.356 155.811 40.363 152.369" transform="matrix(0.94513, 0.326696, -0.326696, 0.94513, 52.737746, -4.948694)"/>
  <polygon style="fill: rgb(72, 167, 67);" points="40.207 154.244 43.978 152.445 41.933 151.629 43.086 151.34 40.788 149.817 42.02 149.587 39.055 147.993 38.345 151.356 39.51 150.5 38.808 153.244 39.92 152.233 39.282 154.694" transform="matrix(0.912732, 0.408559, -0.408559, 0.912732, 65.424823, -3.609446)"/>
  <polygon style="fill: rgb(179, 67, 20);" points="46.195 154.422 46.251 157.669 48.19 156.979 46.606 154.24" transform="matrix(0.82837, 0.560182, -0.560182, 0.82837, 95.462552, 0.330145)"/>
  <polygon style="fill: rgb(72, 167, 67);" points="47.136 155.832 50.134 154.399 48.507 153.75 49.423 153.52 47.596 152.309 48.576 152.126 46.217 150.859 45.653 153.534 46.579 152.854 46.021 155.035 46.906 154.23 46.399 156.188" transform="matrix(0.775889, 0.63087, -0.63087, 0.775889, 107.586815, 4.191787)"/>
</svg>