<?xml version="1.0" encoding="utf-8"?>
<svg viewBox="-8.157 59.324 509.64 235.266" xmlns="http://www.w3.org/2000/svg">
  <defs>
    <linearGradient id="gradient-0" gradientUnits="userSpaceOnUse" x1="245.372" y1="241.724" x2="245.372" y2="328.264" gradientTransform="matrix(1.543984, 0, 0, 1, -137.845355, 22.627491)">
      <stop offset="0" style="stop-color: rgb(255, 255, 255);"/>
      <stop offset="1" style="stop-color: rgb(226, 226, 226);"/>
    </linearGradient>
    <linearGradient id="gradient-2" gradientUnits="userSpaceOnUse" x1="248.349" y1="48.795" x2="248.349" y2="396.941" gradientTransform="matrix(-1, 0, 0, -0.754845, 496.697998, 362.318203)">
      <stop offset="0" style="stop-color: rgba(179, 198, 235, 1)"/>
      <stop offset="1" style="stop-color: rgba(98, 137, 214, 1)"/>
    </linearGradient>
    <radialGradient id="gradient-3" gradientUnits="userSpaceOnUse" cx="101.866" cy="89.683" r="55.204" gradientTransform="matrix(2.167903, 0, 0, 2.391464, -117.976661, -128.959023)">
      <stop offset="0" style="stop-color: rgb(254, 255, 183);"/>
      <stop offset="1" style="stop-color: rgba(218, 220, 82, 0);"/>
    </radialGradient>
  </defs>
  <rect x="-19.211" y="48.795" width="535.12" height="348.146" style="fill: url(#gradient-2);"/>
  <path d="M 271.4621551660151 130.3014246889483 C 287.1708014595326 130.30142211914062 302.892147609204 128.1344451904297 318.4132995605469 128.1344451904297 C 324.8649405376418 128.1344451904297 329.343286922424 133.35196723364822 335.0267639160156 136.0800323486328 C 344.6905019299599 140.71862006279397 357.08278354935953 136.16733764988552 365.3644104003906 141.1363067626953 C 369.68810110977626 143.73051753489463 388.4968038411735 156.74312940647815 379.4497375488281 163.52838134765625 C 375.6616378027201 166.36943615206317 369.1088747135701 162.23052801496718 365.7255859375 161.000244140625 C 356.790728024039 157.75121269872784 347.56091034963737 159.19442749023438 338.2772216796875 159.19442749023438 C 332.8409851473101 159.19442749023438 328.2829207681849 161.6561570789684 323.1083984375 162.80604553222656 C 316.81356725239533 164.20489033999516 309.11427456270934 161.77679916101056 302.88330078125 161.3614044189453 C 281.30881948302834 159.92311781906696 265.25721760871335 164.31679713595318 248.7089080810547 150.52651977539062 C 246.22047447331528 148.4528221818862 238.5204182870337 145.67950844906738 237.15171813964844 142.94210815429688 C 234.91845043131707 138.47557273763414 245.4584503173828 134.9059836870969 245.4584503173828 132.82955932617188" style="fill: rgb(255, 255, 255); fill-opacity: 0.39;"/>
  <path d="M 230.2896265347219 71.79309452868951 C 239.2137952397797 71.7930908203125 246.7756613457969 69.32869049671672 254.8486785888672 65.29216766357422 C 258.9123094699294 63.260345069493845 265.9491241608908 59.0262774833154 271.1009826660156 60.95821762084961 C 293.0333236195124 69.18281652161443 315.61117418654806 72.73431416846934 339.3607177734375 76.12704467773438 C 344.254125466445 76.82609026206735 355.7906426136402 85.70042734875899 349.83441162109375 91.65703582763672 C 346.7776781745566 94.7139629998866 339.72194264368954 93.55306167822957 336.4714050292969 95.99098205566406 C 333.2971698051796 98.37167523742619 327.59880449852994 103.54411112982868 323.8307189941406 104.29772186279297 C 314.5562251806236 106.1526049519733 309.27453592145145 94.85270564534008 304.32794189453125 92.37935638427734 C 292.951534871611 86.6910327113505 277.11593547339066 103.53379954691863 265.3223876953125 99.60260772705078 C 260.25215554234444 97.91252637582001 255.60445065329742 95.46591744842048 250.87588500976562 93.1016845703125 C 249.11837514185356 92.22294819937922 250.45612044442106 88.19668815189803 247.26426696777344 86.60076141357422 C 243.04113799377376 84.48919692657438 228.92393045284854 82.62796783447266 225.95567321777344 82.62796783447266" style="fill: rgb(255, 255, 255); fill-opacity: 0.39;"/>
  <path d="M 428.2066939904121 80.46099529317229 C 442.2741868790519 80.46099853515625 455.1230118081388 80.23186924003808 470.1015625 78.65518188476562 C 478.0134850496751 77.82234908961769 489.13891451466577 75.73117064306996 496.82757568359375 78.29402160644531 C 503.3054251717198 80.45327436014145 519.1880614719214 81.87420443528892 523.5535888671875 86.23959350585938 C 525.1704936797112 87.85644708565768 532.0039056366796 89.45544901739953 529.3322143554688 93.46284484863281 C 525.2818367066104 99.5381974236498 514.1356325251836 98.157958984375 508.02362060546875 98.157958984375 C 489.2811261290085 98.157958984375 472.8171806921215 93.46284484863281 454.21038818359375 93.46284484863281 C 445.9997790195246 93.46284484863281 429.2901916503906 91.40161120923759 429.2901916503906 85.87843322753906" style="fill: rgb(255, 255, 255); fill-opacity: 0.39;"/>
  <path d="M -16.035 202.026 C -12.076 194.109 -1.407 175.49 5.005 169.078 C 12.535 161.548 13.102 147.483 21.281 139.305 C 28.534 132.051 27.793 113.738 33.984 107.547 C 35.552 105.979 37.772 112.774 37.954 113.501 C 40.007 121.716 41.132 128.992 43.114 136.923 C 45.471 146.349 54.685 151.728 58.199 158.756 C 63.961 170.279 64.216 181.049 74.078 190.911 C 75.273 192.106 77.633 179.082 77.651 179.002 C 78.791 173.874 87.068 154.643 91.545 152.405 C 92.767 151.794 94.96 155.801 95.515 156.771 C 98.702 162.348 96.716 169.892 99.485 175.429 C 100.803 178.066 98.234 184.499 100.279 186.544 C 104.258 190.524 110.883 195.108 114.173 200.042 C 116.502 203.535 117.624 211.692 121.318 213.539 C 126.174 215.967 135.285 201.483 136.8 198.454 C 136.853 198.348 139.579 192.102 139.579 192.102 C 139.579 192.102 141.576 198.556 141.961 199.248 C 146.001 206.52 153.134 209.244 157.84 215.126 C 161.35 219.514 160.568 226.985 163.794 230.211 C 170.362 236.779 176.705 241.534 182.452 247.281 C 187.754 252.583 188.276 263.839 193.567 270.306 C 195.532 272.707 215.295 287.878 211.034 292.139 C 203.147 300.026 192.804 297.13 182.849 294.918 C 166.643 291.317 150.15 288.629 134.021 284.597 C 123.375 281.935 112.916 285.381 102.263 283.803 C 94.518 282.656 90.636 277.734 84.003 274.673 C 81.88 273.693 76.329 276.207 74.078 276.657 C 63.704 278.732 53.223 279.812 42.717 281.024 C 33.443 282.094 24.807 281.135 15.723 283.406 C 11.626 284.43 5.616 288.506 1.035 286.979 C -12.395 282.502 -23.217 276.266 -33.899 267.527 C -35.4 266.299 -41.331 263.778 -42.235 261.969 C -46.769 252.9 -40.644 228.419 -36.677 219.493 C -34.699 215.043 -33.416 209.88 -30.723 207.187" style="fill: rgb(130, 92, 86);"/>
  <circle style="fill: url(#gradient-3);" cx="102.858" cy="85.514" r="132.018"/>
  <polygon style="fill: url(#gradient-0);" points="-32.05 264.351 522.642 264.351 544.095 350.891 -62.083 333.424"/>
  <circle style="fill: rgb(236, 237, 167);" cx="101.866" cy="89.683" r="28.21"/>
  <g style="" transform="matrix(0.462949, 0, 0, 0.462949, 311.02887, 87.396851)">
    <polygon style="fill: rgb(216, 216, 216); stroke: rgb(0, 0, 0);" points="421.567 159.462 548.764 244.508 532.724 250.103 419.702 182.215"/>
    <polygon style="fill: rgb(216, 216, 216); stroke: rgb(0, 0, 0);" points="169.412 229.588 169.412 363.905 426.043 365.737 421.94 159.835"/>
    <polygon style="fill: rgb(216, 216, 216); stroke: rgb(0, 0, 0);" points="1.634 386.482 3.877 373.029 435.344 372.388 435.985 387.443"/>
    <polygon style="fill: rgb(216, 216, 216); stroke: rgb(0, 0, 0);" points="29.822 373.029 29.822 361.177 428.938 357.334 429.258 373.029"/>
    <polygon style="fill: rgb(216, 216, 216); stroke: rgb(0, 0, 0);" points="435.344 386.803 435.985 371.748 566.995 375.912 567.315 384.881"/>
    <polygon style="fill: rgb(216, 216, 216); stroke: rgb(0, 0, 0);" points="428.618 357.013 555.463 365.982 555.784 376.232 429.258 373.029"/>
    <polygon style="fill: rgb(216, 216, 216); stroke: rgb(0, 0, 0);" points="38.59 361.15 44.742 355.145 66.274 354.998 85.609 355.145 90.442 360.418"/>
    <polygon style="fill: rgb(216, 216, 216); stroke: rgb(0, 0, 0);" points="96.741 360.564 102.6 354.412 126.622 354.559 145.371 354.119 150.204 359.832"/>
    <polygon style="fill: rgb(216, 216, 216); stroke: rgb(0, 0, 0);" points="158.26 359.685 164.705 353.24 190.924 352.801 209.087 353.094 213.189 358.953"/>
    <polygon style="fill: rgb(216, 216, 216); stroke: rgb(0, 0, 0);" points="225.639 359.099 233.109 352.362 261.525 352.215 277.345 352.362 282.471 358.367"/>
    <polygon style="fill: rgb(216, 216, 216); stroke: rgb(0, 0, 0);" points="298.877 358.66 306.493 350.897 337.985 350.897 352.194 350.75 356.881 357.781"/>
    <polygon style="fill: rgb(216, 216, 216); stroke: rgb(0, 0, 0);" points="38.112 201.985 169.039 232.199 411.123 217.651 421.194 158.343"/>
    <polygon style="fill: rgb(216, 216, 216); stroke: rgb(0, 0, 0);" points="60.928 209.981 52.667 208.399 49.59 202.598 73.057 199.697 90.548 204.356 88.526 209.893 80.44 211.914"/>
    <polygon style="fill: rgb(216, 216, 216); stroke: rgb(0, 0, 0);" points="53.729 355.026 54.113 335.799 54.69 318.111 55.075 303.883 56.805 276.004 58.151 249.855 60.843 219.284 61.42 208.901 66.034 207.94 73.148 207.94 77.57 208.132 81.223 209.863 80.07 211.785 79.877 239.665 78.532 282.348 78.147 308.689 77.763 333.877 76.224 353.104 77.955 355.219"/>
    <polygon style="fill: rgb(216, 216, 216); stroke: rgb(0, 0, 0);" points="120.343 203.389 109.796 202.51 105.578 196.006 130.89 193.809 148.205 198.115 144.162 204.092 138.098 206.113"/>
    <polygon style="fill: rgb(216, 216, 216); stroke: rgb(0, 0, 0);" points="111.95 354.084 112.347 334.186 112.945 315.881 113.343 301.157 115.133 272.306 116.526 245.246 119.312 213.609 119.909 202.863 124.684 201.869 132.046 201.869 136.622 202.068 140.403 203.859 139.209 205.848 139.01 234.7 137.618 278.871 137.219 306.131 136.822 332.197 135.229 352.095 137.021 354.283"/>
    <polygon style="fill: rgb(216, 216, 216); stroke: rgb(0, 0, 0);" points="181.253 195.918 171.497 195.303 167.454 189.678 194.964 186.338 209.817 191.435 203.665 195.83 194.964 197.676"/>
    <polygon style="fill: rgb(216, 216, 216); stroke: rgb(0, 0, 0);" points="172.785 353.234 173.203 332.316 173.831 313.072 174.249 297.594 176.133 267.264 177.599 238.817 180.529 205.558 181.157 194.261 186.179 193.216 193.923 193.216 198.737 193.426 202.715 195.308 201.459 197.399 201.249 227.73 199.786 274.166 199.365 302.823 198.947 330.225 197.272 351.143 199.158 353.443" transform="matrix(0.999774, -0.021276, 0.021276, 0.999774, -5.772858, 4.056439)"/>
    <polygon style="fill: rgb(216, 216, 216); stroke: rgb(0, 0, 0);" points="247.887 190.258 236.852 188.419 234.706 182.084 262.908 179.12 276.805 184.536 273.228 188.725 265.36 192.404"/>
    <polygon style="fill: rgb(216, 216, 216); stroke: rgb(0, 0, 0);" points="240.17 352.263 240.62 330.793 241.294 311.04 241.743 295.153 243.767 264.022 245.342 234.823 248.49 200.686 249.165 189.09 254.56 188.018 262.88 188.018 268.052 188.233 272.326 190.165 270.977 192.311 270.751 223.443 269.179 271.106 268.727 300.52 268.278 328.646 266.478 350.117 268.505 352.478" transform="matrix(0.999363, -0.035698, 0.035698, 0.999363, -9.483982, 9.319786)"/>
    <polygon style="fill: rgb(216, 216, 216); stroke: rgb(0, 0, 0);" points="319.517 183.412 309.707 181.164 305.109 177.077 305.518 173.398 337.194 170.537 349.558 177.587 346.493 181.062 335.559 184.332"/>
    <polygon style="fill: rgb(216, 216, 216); stroke: rgb(0, 0, 0);" points="310.024 351.182 310.511 328.879 311.241 308.36 311.728 291.856 313.92 259.518 315.626 229.186 319.037 193.724 319.769 181.678 325.613 180.565 334.626 180.565 340.229 180.788 344.86 182.794 343.397 185.025 343.153 217.364 341.45 266.876 340.96 297.432 340.474 326.649 338.523 348.953 340.72 351.405" transform="matrix(0.999363, -0.035698, 0.035698, 0.999363, -9.286424, 11.858551)"/>
    <g transform="matrix(0.554318, 0, 0, 0.74502, 202.983261, 126.686584)" style="">
      <polygon style="fill: rgb(216, 216, 216); stroke: rgb(0, 0, 0);" points="496.082 314.488 503.196 306.268 537.343 306.742 548.568 307.216 552.994 314.172"/>
      <polygon style="fill: rgb(216, 216, 216); stroke: rgb(0, 0, 0);" points="509.52 131.106 501.931 129.209 501.931 126.047 498.295 125.415 498.295 121.463 531.494 118.459 542.876 126.521 542.876 128.577 540.189 128.893 539.556 131.738 526.751 135.216"/>
      <polygon style="fill: rgb(216, 216, 216); stroke: rgb(0, 0, 0);" points="512.049 306.268 510.152 272.121 509.045 242.084 509.204 219.003 509.204 180.271 509.678 148.97 509.836 133.635 508.887 133.635 507.306 131.264 512.84 128.26 520.27 128.26 529.439 128.26 534.34 130.315 534.498 132.371 533.075 133.477 531.336 133.477 532.443 140.749 533.865 163.514 535.604 186.121 537.185 224.536 538.45 260.896 538.924 288.404 539.082 303.58 540.821 304.845 541.612 307.058"/>
    </g>
    <g transform="matrix(0.587089, 0, 0, 0.792591, 169.195084, 112.285667)" style="">
      <polygon style="fill: rgb(216, 216, 216); stroke: rgb(0, 0, 0);" points="496.082 314.488 503.196 306.268 537.343 306.742 548.568 307.216 552.994 314.172"/>
      <polygon style="fill: rgb(216, 216, 216); stroke: rgb(0, 0, 0);" points="509.52 131.106 501.931 129.209 501.931 126.047 498.295 125.415 498.295 121.463 531.494 118.459 542.876 126.521 542.876 128.577 540.189 128.893 539.556 131.738 526.751 135.216"/>
      <polygon style="fill: rgb(216, 216, 216); stroke: rgb(0, 0, 0);" points="512.049 306.268 510.152 272.121 509.045 242.084 509.204 219.003 509.204 180.271 509.678 148.97 509.836 133.635 508.887 133.635 507.306 131.264 512.84 128.26 520.27 128.26 529.439 128.26 534.34 130.315 534.498 132.371 533.075 133.477 531.336 133.477 532.443 140.749 533.865 163.514 535.604 186.121 537.185 224.536 538.45 260.896 538.924 288.404 539.082 303.58 540.821 304.845 541.612 307.058"/>
    </g>
    <g transform="matrix(0.691955, 0, 0, 0.85919, 94.792183, 90.408463)" style="">
      <polygon style="fill: rgb(216, 216, 216); stroke: rgb(0, 0, 0);" points="496.082 314.488 503.196 306.268 537.343 306.742 548.568 307.216 552.994 314.172"/>
      <polygon style="fill: rgb(216, 216, 216); stroke: rgb(0, 0, 0);" points="509.52 131.106 501.931 129.209 501.931 126.047 498.295 125.415 498.295 121.463 531.494 118.459 542.876 126.521 542.876 128.577 540.189 128.893 539.556 131.738 526.751 135.216"/>
      <polygon style="fill: rgb(216, 216, 216); stroke: rgb(0, 0, 0);" points="512.049 306.268 510.152 272.121 509.045 242.084 509.204 219.003 509.204 180.271 509.678 148.97 509.836 133.635 508.887 133.635 507.306 131.264 512.84 128.26 520.27 128.26 529.439 128.26 534.34 130.315 534.498 132.371 533.075 133.477 531.336 133.477 532.443 140.749 533.865 163.514 535.604 186.121 537.185 224.536 538.45 260.896 538.924 288.404 539.082 303.58 540.821 304.845 541.612 307.058"/>
    </g>
    <g transform="matrix(0.783713, 0, 0, 0.929595, 24.840542, 67.147926)" style="">
      <polygon style="fill: rgb(216, 216, 216); stroke: rgb(0, 0, 0);" points="496.082 314.488 503.196 306.268 537.343 306.742 548.568 307.216 552.994 314.172"/>
      <polygon style="fill: rgb(216, 216, 216); stroke: rgb(0, 0, 0);" points="509.52 131.106 501.931 129.209 501.931 126.047 498.295 125.415 498.295 121.463 531.494 118.459 542.876 126.521 542.876 128.577 540.189 128.893 539.556 131.738 526.751 135.216"/>
      <polygon style="fill: rgb(216, 216, 216); stroke: rgb(0, 0, 0);" points="512.049 306.268 510.152 272.121 509.045 242.084 509.204 219.003 509.204 180.271 509.678 148.97 509.836 133.635 508.887 133.635 507.306 131.264 512.84 128.26 520.27 128.26 529.439 128.26 534.34 130.315 534.498 132.371 533.075 133.477 531.336 133.477 532.443 140.749 533.865 163.514 535.604 186.121 537.185 224.536 538.45 260.896 538.924 288.404 539.082 303.58 540.821 304.845 541.612 307.058"/>
    </g>
    <polygon style="fill: rgb(216, 216, 216); stroke: rgb(0, 0, 0);" points="51.167 190.795 52.286 176.993 419.329 132.605 420.821 146.406"/>
    <g transform="matrix(1, 0, 0, 1, -115.475273, 43.332886)">
      <polygon style="fill: rgb(216, 216, 216); stroke: rgb(0, 0, 0);" points="496.082 314.488 503.196 306.268 537.343 306.742 548.568 307.216 552.994 314.172"/>
      <polygon style="fill: rgb(216, 216, 216); stroke: rgb(0, 0, 0);" points="509.52 131.106 501.931 129.209 501.931 126.047 498.295 125.415 498.295 121.463 531.494 118.459 542.876 126.521 542.876 128.577 540.189 128.893 539.556 131.738 526.751 135.216"/>
      <polygon style="fill: rgb(216, 216, 216); stroke: rgb(0, 0, 0);" points="512.049 306.268 510.152 272.121 509.045 242.084 509.204 219.003 509.204 180.271 509.678 148.97 509.836 133.635 508.887 133.635 507.306 131.264 512.84 128.26 520.27 128.26 529.439 128.26 534.34 130.315 534.498 132.371 533.075 133.477 531.336 133.477 532.443 140.749 533.865 163.514 535.604 186.121 537.185 224.536 538.45 260.896 538.924 288.404 539.082 303.58 540.821 304.845 541.612 307.058"/>
    </g>
    <polygon style="fill: rgb(216, 216, 216); stroke: rgb(0, 0, 0);" points="37.366 201.612 37.366 190.049 421.567 144.168 422.313 159.462"/>
    <polygon style="fill: rgb(216, 216, 216); stroke: rgb(0, 0, 0);" points="419.329 132.605 543.168 226.231 543.168 232.199 420.448 145.66"/>
    <polygon style="fill: rgb(216, 216, 216); stroke: rgb(0, 0, 0);" points="426.046 127.109 550.644 226.406 543.245 226.406 418.885 132.838"/>
    <polygon style="fill: rgb(216, 216, 216); stroke: rgb(0, 0, 0);" points="420.821 144.541 549.137 236.675 549.137 244.135 421.567 158.716"/>
    <polygon style="fill: rgb(216, 216, 216); stroke: rgb(0, 0, 0);" points="213.846 73.642 431.536 113.742 425.33 128.303 424.136 129.258 216.233 86.77"/>
    <polygon style="fill: rgb(216, 216, 216); stroke: rgb(0, 0, 0);" points="64.223 163.192 202.237 89.709 217.157 87.471 383.147 118.43 383.147 119.923 360.02 124.026"/>
    <polygon style="fill: rgb(216, 216, 216); stroke: rgb(0, 0, 0);" points="38.112 178.112 61.612 163.565 384.266 119.923 423.059 128.875 420.075 133.351"/>
    <polygon style="fill: rgb(216, 216, 216); stroke: rgb(0, 0, 0);" points="86.603 160.208 212.308 94.185 222.752 93.439 375.687 121.415"/>
    <polygon style="fill: rgb(216, 216, 216); stroke: rgb(0, 0, 0);" points="39.977 178.112 31.025 166.922 201.864 76.28 201.864 90.082"/>
    <polygon style="fill: rgb(216, 216, 216); stroke: rgb(0, 0, 0);" points="201.673 76.029 208.117 61.468 213.607 69.106 216.233 87.486 201.673 90.589"/>
    <polygon style="fill: rgb(216, 216, 216); stroke: rgb(0, 0, 0);" points="431.058 113.742 554.463 218.768 550.883 226.168 425.807 127.348"/>
  </g>
  <path d="M 9.204197700389997 160.92684808487326 C 9.204197883605957 147.98853109980334 18.368090449430092 142.0746139314621 23.10196876525879 132.6068572998047 C 25.679195236872456 127.45240435657736 25.736940416507704 121.83029149761101 28.084190368652344 117.13575744628906 C 29.693670707583575 113.9167733542275 31.006187930071388 103.65009713886381 35.95085144042969 106.12242889404297 C 40.23360957338773 108.26380796052199 38.12263757135519 114.06306070555522 40.67085266113281 116.61131286621094 C 44.09864967266084 120.03915974458329 44.7463019734837 130.26887958173305 46.96417999267578 134.7046356201172 C 47.87471492638315 136.52570548753192 47.0818868906851 140.32901060894682 48.537513732910156 141.78463745117188 C 52.317307658302006 145.56443137656373 56.64702313535033 150.6711191146466 59.81306457519531 155.42018127441406 C 60.45579209290197 156.38427255097406 63.23708867455448 160.12504816626583 61.64862060546875 161.71351623535156 C 58.396552128275324 164.965584712545 51.67203560775285 159.06700212370885 50.635292053222656 156.99351501464844 C 49.96532475655253 155.6535804213082 47.41505774604543 152.77718968860515 46.17751693725586 154.63351440429688 C 41.07257246595031 162.29098681006525 53.54654333923541 174.53558709289348 46.96417999267578 181.11795043945312 C 46.1413769792989 181.94075345283002 42.928440257499446 173.04646333970592 42.506404876708984 172.202392578125 C 39.50411164621705 166.19780611714114 39.3642651478086 157.5224797169004 34.115299224853516 152.2735137939453 C 33.15766171234082 151.31587628143262 30.88555151369267 156.98053913873156 30.706411361694336 157.51795959472656 C 29.024032057946126 162.5650975059712 29.076172469857656 171.73485696434645 25.46196937561035 175.34906005859375 C 24.85584049599007 175.95518893821404 21.57232136420252 168.40012678181654 21.266414642333984 167.48240661621094 C 21.216308062472358 167.33208687662605 21.300653745057108 164.3357391357422 21.266414642333984 164.3357391357422 C 19.638630928345147 164.3357391357422 17.267701532237297 167.79349283860427 16.546417236328125 169.0557403564453 C 16.33089415647895 169.43290574618138 14.457343609538292 171.9488740279343 14.448639869689941 171.94017028808594 C 12.106873897381982 169.59840431577797 17.053034210056403 160.90902080521022 14.710862159729004 158.5668487548828 C 13.493418152425253 157.34940474757906 9.990863800048828 158.9429012486365 9.990863800048828 160.6646270751953" style="fill: rgb(216, 216, 216);"/>
  <path d="M 80.00416724131698 169.05573347660933 C 82.46694660034011 165.36156893005622 82.69109363145209 160.50286437107678 84.19972229003906 156.73129272460938 C 85.59528574524916 153.24238408658414 91.11415273171953 149.03020304220624 93.37749481201172 146.76686096191406 C 94.09744255410966 146.04691321981613 95.15435402838092 149.33037178961138 95.47527313232422 149.6512908935547 C 99.49170125356211 153.6677190147926 98.21056833124759 158.5307863206983 100.45748901367188 163.02462768554688 C 104.4457777245328 171.00120510726873 103.65415541119664 176.87240251116663 98.09749603271484 182.42906188964844 C 96.41448544757021 184.11207247479308 97.13763234867304 190.20670511470587 95.21305084228516 192.13128662109375 C 91.83941478991065 195.50492267346826 91.80462868409167 182.6917517920018 91.27971649169922 182.16683959960938 C 88.66512163063791 179.55224473854807 84.64378411535425 185.92887142779432 83.41305541992188 185.31350708007812 C 80.28550831927285 183.74973352975363 83.16239503178153 174.3001708984375 78.43083190917969 174.3001708984375" style="fill: rgb(216, 216, 216);"/>
  <path d="M 131.39970068584176 204.71794035648367 C 134.6699249736572 201.44772029001467 135.96405535040793 197.42499580441748 137.6930389404297 193.96682739257812 C 137.99106135995342 193.37074786749488 139.79080200195312 190.03350830078125 139.79080200195312 190.03350830078125 C 139.79080200195312 190.03350830078125 141.47946051745063 198.0154865184272 142.1508026123047 198.68682861328125 C 146.2984527105433 202.83447871151986 150.57164134246088 209.467667953789 154.47525024414062 213.37127685546875 C 156.24812658550425 215.14415319683238 150.18614969662656 226.05147542544375 149.23080444335938 227.00682067871094 C 148.80240648779548 227.43521863427483 146.86699896323844 232.24746160972282 146.60858154296875 231.98904418945312 C 145.06493172523372 230.4453943717181 146.32023885676946 225.40736654231634 144.7730255126953 223.8601531982422 C 143.6032746025192 222.69040228806608 144.04142321133557 219.71966112637463 142.6752471923828 218.35348510742188 C 139.90507350260697 215.58331141764603 133.50643944878175 209.17572021484375 129.8263702392578 209.17572021484375" style="fill: rgb(216, 216, 216);"/>
</svg>