<?xml version="1.0" encoding="utf-8"?>
<svg viewBox="-221.431 -65.172 182.934 380.504" character="caesar" xmlns="http://www.w3.org/2000/svg" xmlns:bx="https://boxy-svg.com">
  <defs>
    <pattern id="pattern-0" x="0" y="0" width="25" height="25" patternUnits="userSpaceOnUse" viewBox="0 0 100 100">
      <rect x="0" y="0" width="50" height="100" style="fill: black;"/>
    </pattern>
    <linearGradient id="gradient-10" gradientUnits="userSpaceOnUse" x1="222.21" y1="285.992" x2="222.21" y2="394.679" gradientTransform="matrix(0.999173, 0.04066, -0.073858, 1.814992, -346.271652, -438.291236)">
      <stop offset="0" style="stop-color: rgb(251, 177, 180);"/>
      <stop offset="1" style="stop-color: rgb(255, 222, 223);"/>
    </linearGradient>
    <linearGradient id="gradient-14" gradientUnits="userSpaceOnUse" x1="258.504" y1="280.615" x2="258.504" y2="392.227" gradientTransform="matrix(0.999985, 0.005444, -0.009259, 1.700734, -371.839617, -383.859681)">
      <stop offset="0" style="stop-color: rgb(255, 191, 193);"/>
      <stop offset="1" style="stop-color: rgb(255, 222, 223);"/>
    </linearGradient>
    <linearGradient id="gradient-4" gradientUnits="userSpaceOnUse" x1="235.997" y1="276.307" x2="235.997" y2="284.505" gradientTransform="matrix(1, 0, 0, 1, -375.058273, -106.591987)">
      <stop offset="0" style="stop-color: rgb(227, 168, 78);"/>
      <stop offset="1" style="stop-color: rgb(163, 98, 0);"/>
    </linearGradient>
    <linearGradient id="gradient-12" gradientUnits="userSpaceOnUse" x1="86.912" y1="82.072" x2="86.912" y2="182.851" gradientTransform="matrix(1, 0, 0, 1.003536, -227.532685, -11.954522)">
      <stop offset="0" style="stop-color: rgb(248, 248, 248);"/>
      <stop offset="1" style="stop-color: rgb(246, 246, 246);"/>
    </linearGradient>
    <linearGradient id="gradient-0" gradientUnits="userSpaceOnUse" x1="73.278" y1="180.424" x2="73.278" y2="217.406" gradientTransform="matrix(0.999845, 0.017586, -0.011834, 0.67282, 2.584149, 69.842248)">
      <stop offset="0" style="stop-color: rgba(243, 243, 243, 1)"/>
      <stop offset="1" style="stop-color: rgba(192, 192, 192, 1)"/>
    </linearGradient>
    <linearGradient id="gradient-1" gradientUnits="userSpaceOnUse" x1="73.278" y1="180.424" x2="73.278" y2="217.406" gradientTransform="matrix(0.999845, 0.017586, -0.011834, 0.67282, 2.584124, 69.842255)">
      <stop offset="0" style="stop-color: rgba(243, 243, 243, 1)"/>
      <stop offset="1" style="stop-color: rgba(192, 192, 192, 1)"/>
    </linearGradient>
    <linearGradient id="gradient-2" gradientUnits="userSpaceOnUse" x1="73.278" y1="180.424" x2="73.278" y2="217.406" gradientTransform="matrix(0.999845, 0.017586, -0.011834, 0.67282, 2.584121, 69.842269)">
      <stop offset="0" style="stop-color: rgba(243, 243, 243, 1)"/>
      <stop offset="1" style="stop-color: rgba(192, 192, 192, 1)"/>
    </linearGradient>
    <linearGradient id="gradient-3" gradientUnits="userSpaceOnUse" x1="73.278" y1="180.424" x2="73.278" y2="217.406" gradientTransform="matrix(0.999845, 0.017586, -0.011834, 0.67282, 2.584111, 69.842228)">
      <stop offset="0" style="stop-color: rgba(243, 243, 243, 1)"/>
      <stop offset="1" style="stop-color: rgba(192, 192, 192, 1)"/>
    </linearGradient>
    <linearGradient id="gradient-5" gradientUnits="userSpaceOnUse" x1="73.278" y1="180.424" x2="73.278" y2="217.406" gradientTransform="matrix(0.999845, 0.017586, -0.011834, 0.67282, 2.584155, 69.842262)">
      <stop offset="0" style="stop-color: rgba(243, 243, 243, 1)"/>
      <stop offset="1" style="stop-color: rgba(192, 192, 192, 1)"/>
    </linearGradient>
    <linearGradient id="gradient-6" gradientUnits="userSpaceOnUse" x1="73.278" y1="180.424" x2="73.278" y2="217.406" gradientTransform="matrix(0.999847, 0.017586, -0.011834, 0.672821, 2.584143, 69.842361)">
      <stop offset="0" style="stop-color: rgba(243, 243, 243, 1)"/>
      <stop offset="1" style="stop-color: rgba(192, 192, 192, 1)"/>
    </linearGradient>
    <linearGradient id="gradient-7" gradientUnits="userSpaceOnUse" x1="73.278" y1="180.424" x2="73.278" y2="217.406" gradientTransform="matrix(0.999846, 0.017586, -0.011834, 0.672821, 2.584138, 69.842335)">
      <stop offset="0" style="stop-color: rgba(243, 243, 243, 1)"/>
      <stop offset="1" style="stop-color: rgba(192, 192, 192, 1)"/>
    </linearGradient>
    <linearGradient id="gradient-8" gradientUnits="userSpaceOnUse" x1="40.173" y1="-12.444" x2="40.173" y2="8.132" gradientTransform="matrix(0.682991, -0.730427, 0.762381, 0.712869, -212.440746, 17.722081)">
      <stop offset="0" style="stop-color: rgba(245, 245, 245, 1)"/>
      <stop offset="1" style="stop-color: rgb(251, 251, 251);"/>
    </linearGradient>
    <linearGradient id="gradient-9" gradientUnits="userSpaceOnUse" x1="40.173" y1="-12.444" x2="40.173" y2="8.132" gradientTransform="matrix(0.682991, 0.730427, 0.762381, -0.712869, -126.716341, -45.140539)">
      <stop offset="0" style="stop-color: rgba(245, 245, 245, 1)"/>
      <stop offset="1" style="stop-color: rgb(251, 251, 251);"/>
    </linearGradient>
  </defs>
  <g transform="matrix(0.58108, 0.683015, 0.683015, -0.58108, -24.418707, 138.351822)" style="">
    <polygon style="fill: rgb(165, 165, 165);" points="-196.603 65.548 -185.715 54.367 -174.533 46.127 -154.818 33.18 -131.278 21.41 -120.979 17.879 -98.321 8.463 -83.587 3.671 -77.662 7.685 -75.119 12.594 -74.401 16.454 -76.669 17.186 -81.843 16.113 -85.668 15.525 -94.496 18.467 -99.498 20.527 -115.682 26.707 -124.804 31.12 -131.572 34.357 -134.515 37.888 -143.637 46.127 -151.581 51.718 -160.115 57.309 -170.414 59.369 -195.425 65.549"/>
    <polygon style="fill: rgb(229, 229, 229);" points="-196.532 65.577 -181.106 58.267 -163.25 54.431 -147.94 44.821 -132.408 31.316 -116.77 24.448 -93.045 15.7 -84.05 13.043 -77.724 14.388 -77.184 8.218 -74.33 16.483 -76.598 17.215 -81.772 16.142 -85.597 15.554 -94.425 18.496 -99.427 20.556 -115.611 26.736 -124.733 31.149 -131.501 34.386 -134.444 37.917 -143.566 46.156 -151.51 51.747 -160.044 57.338 -170.343 59.398 -195.354 65.578"/>
    <polygon style="fill: rgb(75, 75, 75);" points="-83.941 3.836 -69.426 -2.55 -57.621 -7.389 -52.395 -6.808 -48.331 -3.905 -47.557 -0.034 -46.202 5.191 -48.138 8.868 -50.847 10.223 -53.75 7.32 -54.718 4.997 -53.944 2.675 -53.75 0.159 -54.137 -1.389 -56.266 -1.196 -61.878 2.094 -66.717 4.61 -71.748 4.804 -73.877 8.094 -73.684 11.964 -72.716 13.706 -69.039 12.932 -71.168 16.222 -74.264 16.803 -76.2 11.577 -78.135 7.9 -83.167 4.03"/>
    <polygon style="fill: rgb(216, 216, 216);" points="-74.473 -0.384 -71.776 4.862 -66.572 4.694 -61.84 2.091 -56.513 -1 -59.115 -6.886 -67.516 -3.394"/>
  </g>
  <path d="M -205.622 257.342 C -205.622 249.962 -193.179 241.821 -185.552 245.635 C -180.136 248.343 -179.542 253.03 -174.263 255.67 C -170.089 257.756 -167.218 247.147 -160.465 249.398 C -159.369 249.763 -159.033 251.607 -157.956 252.325 C -155.17 254.182 -148.864 256.924 -145.413 256.924 C -144.637 256.924 -141.643 257.336 -141.231 256.924 C -138.043 253.735 -131.934 248.064 -124.925 249.816 C -123.388 250.2 -119.712 252.938 -118.653 253.997 C -117.377 255.273 -111.339 255.041 -109.454 255.67 C -108.413 256.017 -103.234 256.976 -102.346 256.088 C -100.236 253.978 -99.685 250.994 -96.492 249.398 C -91.546 246.925 -87.933 254.944 -84.367 253.161 C -82.241 252.098 -82.694 245.255 -82.694 243.126 C -82.694 233.629 -87.712 224.15 -87.712 214.694 C -87.712 209.109 -85.993 203.73 -83.53 198.805 C -82.124 195.993 -83.53 189.031 -83.53 185.843 C -83.53 177.545 -83.329 170.357 -86.875 163.264 C -88.511 159.992 -93.457 158.572 -94.82 154.484 C -95.634 152.042 -98.172 146.114 -100.255 144.031 C -100.858 143.428 -99.859 141.061 -100.255 140.268 C -101.318 138.142 -102.175 136.352 -102.764 133.996 C -104.411 127.407 -109.668 119.566 -114.472 114.762 C -116.015 113.219 -116.58 110.572 -119.071 109.327 C -123.069 107.328 -127.09 106.887 -131.615 105.982 C -137.711 104.762 -144.869 102.193 -151.266 103.473 C -158.975 105.015 -169.114 113.376 -173.845 118.107 C -174.37 118.632 -174.962 122.624 -175.099 122.707 C -178.176 124.553 -176.637 121.594 -178.026 122.288 C -180.202 123.376 -179.879 128.921 -180.953 131.069 C -184.345 137.852 -183.156 144.9 -185.134 152.811 C -186.661 158.917 -190.757 168.238 -193.497 173.718 C -194.73 176.184 -193.519 180.034 -194.751 182.498 C -197.458 187.912 -197.05 194.726 -199.351 200.477 C -204.23 212.677 -208.967 223.216 -208.967 236.436 C -208.967 240.559 -210.334 245.522 -207.295 248.561 C -205.354 250.503 -208.36 257.113 -206.04 259.433" style="stroke: rgb(0, 0, 0); stroke-width: 0px; fill: rgb(108, 44, 114);"/>
  <path d="M -166.737 86.33 C -166.737 94.055 -170.582 101.374 -172.173 109.327 C -175.567 126.298 -183.781 141.165 -193.497 155.738 C -196.137 159.698 -196.899 165.052 -198.932 169.118 C -206.212 183.678 -210.319 199.194 -214.403 215.53 C -217.646 228.5 -218.9 248.134 -215.657 261.105 C -214.916 264.071 -212.163 266.99 -211.058 270.304 C -209.299 275.582 -204.826 281.135 -201.023 284.938 C -199.291 286.67 -198.221 287.353 -196.424 288.701 C -195.71 289.237 -194.352 291.59 -194.751 290.792 C -196.161 287.973 -195.428 283.326 -196.424 280.339 C -198.748 273.365 -202.277 265.831 -202.277 257.76 C -202.277 255.995 -202.613 250.988 -201.441 249.816 C -199.342 247.717 -194.956 243.741 -193.915 240.617 C -191.791 234.245 -193.079 224.977 -193.079 218.039 C -193.079 212.004 -193.098 202.607 -190.57 197.551 C -188.934 194.279 -190.635 189.032 -189.734 185.425 C -186.262 171.537 -179.58 158.192 -176.354 145.285 C -173.773 134.961 -169.733 122.183 -164.228 113.926 C -161.944 110.5 -161.853 103.739 -160.047 100.128 C -157.57 95.175 -157.708 82.233 -166.737 86.748" style="stroke: rgb(213, 41, 41); stroke-width: 0px; fill: rgb(214, 91, 226);"/>
  <g transform="matrix(0.975179, -0.22142, 0.22142, 0.975179, -412.725189, -62.170986)">
    <path d="M 194.062 200.77 C 191.395 204.77 190.622 208.656 189.192 212.944 C 187.677 217.489 183.299 222.798 180.671 226.741 C 176.44 233.087 173.361 239.732 168.497 244.595 C 168.042 245.05 169.582 249.215 169.714 249.871 C 170.472 253.631 172.797 254.286 176.207 252.711 C 182.533 249.788 180.5 251.835 182.7 247.436 C 188.289 236.257 195.246 221.937 200.96 210.509 C 204.076 204.277 198.605 197.038 193.25 202.393" style="fill: rgb(255, 222, 223); stroke: rgb(255, 222, 223);"/>
    <polygon style="fill: rgb(234, 180, 79); stroke: rgb(234, 180, 79);" points="170.717 239.799 183.595 248.674 172.148 264.733 162.49 258.394 170.359 239.799"/>
    <circle style="fill: rgb(255, 222, 223);" cx="164.535" cy="266.425" r="9.509"/>
  </g>
  <path d="M -109.872 88.42 C -106.311 99.105 -101.613 112.046 -96.492 122.288 C -94.244 126.786 -92.883 133.227 -91.893 138.177 C -89.588 149.701 -83.679 161.221 -79.349 172.045 C -78.079 175.22 -79.132 180.767 -78.513 184.171 C -75.896 198.563 -73.496 212.594 -73.496 227.237 C -73.496 243.871 -72.604 259.686 -77.677 274.903 C -78.419 277.131 -82.708 284.109 -84.367 284.938 C -84.756 285.133 -86.461 288.279 -86.875 287.865 C -87.825 286.916 -87.294 282.59 -87.294 281.175 C -87.294 277.281 -87.272 269.644 -85.203 266.541 C -84.269 265.14 -83.526 260.275 -84.785 258.596 C -88.742 253.32 -91.068 250.63 -93.984 244.798 C -96.107 240.551 -94.402 231.235 -94.402 226.401 C -94.402 210.847 -92.212 193.646 -94.402 178.317 C -95.796 168.556 -97.371 158.173 -102.346 149.466 C -105.484 143.975 -109.608 139.123 -112.381 133.578 C -113.943 130.454 -114.802 124.885 -116.98 122.707 C -117.669 122.018 -117.817 116.68 -117.817 115.598 C -117.817 110.023 -117.817 104.448 -117.817 98.874 C -117.817 97.394 -118.503 93.556 -117.817 92.184 C -116.814 90.179 -111.545 90.234 -111.545 88.002" style="stroke: rgb(0, 0, 0); stroke-width: 0px; fill: rgb(214, 91, 226);"/>
  <g transform="matrix(0.996931, 0.078277, -0.078277, 0.996931, -360.978607, -127.72287)">
    <path d="M 268.396 196.598 C 270.319 195.636 274.403 206.583 275.294 208.366 C 278.608 214.994 283.643 222.05 286.251 229.873 C 287.842 234.646 300.022 208.672 302.042 212.711 C 302.588 213.802 311.702 214.618 311.55 215.792 C 310.833 221.327 304.419 230.513 302.012 232.921 C 301.596 233.336 293.972 246.35 291.038 246.403 C 281.692 246.572 282.928 248.389 279.056 240.826 C 273.632 230.23 272.682 225.46 267.178 214.453 C 265.192 210.48 267.719 204.848 264.338 201.467" style="stroke: rgb(255, 222, 223); fill: rgb(255, 222, 223);"/>
    <polygon style="stroke: rgb(234, 180, 79); fill: rgb(234, 180, 79);" points="294.554 114.618 307.158 108.519 313.664 125.596 305.205 132.11 293.334 115.024" transform="matrix(-0.54208 -0.840327 0.840327 -0.54208 373.287 530.881)" bx:origin="1.867 2.829"/>
    <circle style="fill: rgb(255, 222, 223);" cx="314.545" cy="199.16" r="9.509"/>
  </g>
  <path d="M -180.472 300.525 C -182.465 300.525 -183.65 303.945 -183.16 305.901 C -182.384 309.007 -179.576 310.126 -176.631 310.126 C -174.638 310.126 -168.245 310.717 -166.67 309.638 C -164.126 307.894 -162.64 305.735 -160.237 304.533 C -155.138 301.984 -153.499 300.465 -148.98 297.452 C -147.562 296.507 -144.349 290.041 -146.571 287.819 C -148.025 286.365 -146.905 286.085 -148.211 284.779 C -149.137 283.853 -153.781 284.01 -155.508 284.01 C -163.862 284.01 -170.899 293.079 -175.095 299.373 C -175.656 300.214 -180.088 301.556 -180.088 301.677" style="stroke: rgb(154, 58, 10); fill: rgb(154, 58, 10);"/>
  <polygon style="stroke: rgb(255, 222, 223); fill: url(#gradient-10); stroke-width: 0px;" points="-150.132 287.083 -164.342 285.163 -167.414 178.396 -139.378 179.932"/>
  <polygon style="stroke: rgb(255, 222, 223); stroke-width: 0px; fill: url(#gradient-14);" points="-114.92 284.621 -130.33 283.551 -130.99 173.009 -102.953 174.545" transform="matrix(0.989053, -0.147562, 0.147562, 0.989053, -35.044897, -14.755663)"/>
  <rect x="68.403" y="180.424" width="9.75" height="36.982" style="fill: url(#gradient-0); stroke: rgb(188, 188, 188);" transform="matrix(0.957861, 0.287233, -0.287233, 0.957861, -182.894516, -25.33354)"/>
  <rect x="68.403" y="180.424" width="9.75" height="36.982" style="fill: url(#gradient-1); stroke: rgb(188, 188, 188);" transform="matrix(0.993178, 0.11661, -0.11661, 0.993178, -210.541534, -17.146446)"/>
  <rect x="68.403" y="180.424" width="9.75" height="36.982" style="fill: url(#gradient-2); stroke: rgb(188, 188, 188);" transform="matrix(0.999782, -0.020884, 0.020884, 0.999782, -228.187668, -7.111335)"/>
  <rect x="68.403" y="180.424" width="9.75" height="36.982" style="stroke: rgb(188, 188, 188); fill: url(#gradient-3);" transform="matrix(0.999975, 0.00712, -0.00712, 0.999975, -212.443863, -8.437699)"/>
  <rect x="68.403" y="180.424" width="9.75" height="36.982" style="stroke: rgb(188, 188, 188); fill: url(#gradient-5);" transform="matrix(0.991517, -0.129978, 0.129978, 0.991517, -228.143494, 3.290996)"/>
  <rect x="68.403" y="180.424" width="9.75" height="36.982" style="stroke: rgb(188, 188, 188); fill: url(#gradient-6);" transform="matrix(0.95291, -0.303252, 0.303252, 0.95291, -249.848511, 21.884808)"/>
  <rect x="68.403" y="180.424" width="9.75" height="36.982" style="stroke: rgb(188, 188, 188); fill: url(#gradient-7);" transform="matrix(0.890036, -0.455889, 0.455889, 0.890036, -265.160858, 41.246609)"/>
  <path d="M -169.37 160.536 C -169.37 161.246 -169.867 168.809 -169.37 169.057 C -166.409 170.538 -163.675 171.702 -160.849 173.116 C -158.901 174.09 -157.116 174.17 -153.139 174.332 C -150.589 174.436 -147.332 174.645 -144.617 175.55 C -141.263 176.668 -136.694 174.739 -133.255 174.739 C -127.495 174.739 -118.467 172.861 -114.588 170.274 C -110.471 167.53 -112.154 168.581 -112.154 162.97 C -112.154 162.324 -111.742 159.324 -112.154 158.912 C -112.629 158.437 -115.381 159.035 -115.806 159.318 C -118.892 161.375 -122.148 162.831 -125.951 163.782 C -131.432 165.152 -138.127 163.243 -142.588 166.217 C -147.319 169.371 -155.275 160.229 -159.226 158.912 C -161.891 158.024 -168.559 159.133 -168.559 161.753" style="fill: rgb(163, 82, 60); stroke: rgb(163, 82, 60);"/>
  <path d="M -164.907 78.971 C -166.681 84.295 -167.016 94.472 -170.588 98.043 C -171.661 99.116 -170.588 107.596 -170.588 109 C -170.588 119.956 -170.588 130.913 -170.588 141.869 C -170.588 148.004 -170.971 154.156 -169.776 160.13 C -169.418 161.922 -161.381 167.315 -159.631 167.84 C -146.443 171.797 -143.759 172.017 -131.226 171.086 C -125.066 170.628 -124.362 170.292 -118.647 167.434 C -115.582 165.902 -115.307 163.211 -112.281 160.185 C -110.394 158.299 -110.155 147.504 -110.363 144.902 C -111.198 134.466 -111.132 134.832 -111.175 122.153 C -111.19 117.871 -109.453 112.093 -110.53 107.783 C -113.508 95.872 -106.886 84.546 -117.023 76.942 C -119.295 75.239 -123.268 71.526 -125.951 70.856 C -128.365 70.252 -135.833 72.836 -138.124 72.072 C -145.511 69.61 -164.095 70.793 -164.095 81.812" style="stroke: rgb(229, 229, 229); paint-order: stroke markers; stroke-width: 0px; fill: url(#gradient-12);"/>
  <g transform="matrix(1, 0, 0, 1, -375.543549, -107.658272)"/>
  <g transform="matrix(1, 0, 0, 1, -375.169525, -107.720612)"/>
  <ellipse style="fill: rgb(252, 214, 224);" cx="191.571" cy="151.704" rx="3.239" ry="7.88" transform="matrix(0.970296, -0.241922, 0.241922, 0.970296, -400.75116, -56.561188)" bx:origin="1.344 0.598"/>
  <ellipse style="fill: rgb(252, 214, 224);" cx="191.571" cy="151.704" rx="3.239" ry="7.88" transform="matrix(0.956305, 0.292372, -0.292372, 0.956305, -244.770782, -158.416214)" bx:origin="1.344 0.598"/>
  <g transform="matrix(1, 0, 0, 1, -375.605896, -107.595932)"/>
  <g transform="matrix(1, 0, 0, 1, -374.841156, -107.994926)">
    <g/>
  </g>
  <path d="M -52.801 58.932" style="fill: rgb(216, 216, 216); stroke: rgb(186, 218, 85);"/>
  <polygon style="fill: rgb(216, 216, 216); stroke: rgb(0, 0, 0);" points="-306.626 189.034"/>
  <path d="M -164.342 282.474 C -168.094 289.978 -173.972 292.488 -179.32 297.836 C -181.459 299.976 -182.067 304.306 -180.088 306.285 C -178.864 307.509 -169.691 308.576 -167.414 307.438 C -165.463 306.462 -163.68 304.471 -162.038 302.829 C -160.273 301.065 -156.834 299.686 -154.741 298.989 C -151.349 297.858 -148.973 294.373 -146.675 292.076 C -144.553 289.953 -148.694 282.474 -149.748 282.474" style="stroke: rgb(255, 222, 223); fill: rgb(255, 222, 223);"/>
  <path d="M -122.981 292.443 C -124.376 295.235 -121.923 296.902 -120.58 298.245 C -119.544 299.28 -116.616 300.221 -115.379 301.045 C -113.779 302.112 -110.098 301.926 -108.978 303.045 C -108.678 303.345 -105.551 303.459 -105.178 303.645 C -102.644 304.913 -101.499 304.646 -98.576 304.646 C -96.407 304.646 -92.719 306.511 -91.775 303.846 C -89.91 298.58 -95.432 293.426 -98.687 290.171 C -99.354 289.504 -99.446 288.508 -100.376 288.043 C -107.795 284.334 -117.136 290.622 -122.381 293.244" style="stroke: rgb(154, 58, 10); fill: rgb(154, 58, 10);"/>
  <path d="M -121.328 283.626 C -123.029 284.477 -123.256 293.219 -121.712 294.764 C -116.39 300.085 -109.518 299.725 -102.509 302.061 C -99.718 302.991 -93.808 303.729 -91.756 301.677 C -90.495 300.416 -93.253 295.031 -93.82 293.899 C -95.013 291.511 -96.511 291.181 -98.475 289.217 C -100.505 287.186 -102.851 285.589 -104.429 284.01 C -106.432 282.007 -116.29 281.492 -119.023 282.858 C -119.52 283.107 -119.914 285.023 -120.176 285.547" style="fill: rgb(255, 222, 223); stroke: rgb(255, 222, 223);"/>
  <path d="M -182.576 301.939 C -178.659 298.023 -169.586 300.698 -166.923 304.249 C -166.395 304.952 -165.239 305.998 -165.239 307.641" style="fill: none; stroke: rgb(214, 0, 0);"/>
  <path d="M -179.579 296.707 C -177.991 296.31 -177.425 295.219 -175.73 294.654 C -170.167 292.8 -159.594 296.691 -159.594 302.509" style="fill: none; stroke: rgb(214, 0, 0);"/>
  <path d="M -172.694 291.475 C -169.009 290.948 -164.336 288.102 -160.377 289.422 C -157.698 290.315 -153.97 293.505 -151.895 295.58 C -151.201 296.275 -151.476 297.796 -150.612 298.66" style="fill: none; stroke: rgb(214, 0, 0);"/>
  <path d="M -102.048 303.309 C -102.048 299.68 -99.4 297.759 -97.299 295.658 C -96.657 295.016 -93.548 294.38 -92.765 294.858" style="fill: none; stroke: rgb(214, 0, 0);"/>
  <path d="M -112.6 301.198 C -108.152 296.75 -104.521 289.434 -97.571 289.434" style="fill: none; stroke: rgb(214, 0, 0);"/>
  <path d="M -118.43 298.396 C -116.227 294.724 -113.422 289.63 -109.976 287.906 C -108.719 287.278 -106.911 287.157 -105.592 286.497 C -104.8 286.101 -102.699 286.027 -101.991 286.027" style="fill: none; stroke: rgb(214, 0, 0);"/>
  <line style="fill: none; stroke: rgb(214, 0, 0);" x1="-164.928" y1="283.679" x2="-149.115" y2="276.164"/>
  <line style="fill: none; stroke: rgb(214, 0, 0);" x1="-148.959" y1="282.74" x2="-164.615" y2="277.26"/>
  <line style="fill: none; stroke: rgb(214, 0, 0);" x1="-165.084" y1="276.79" x2="-148.019" y2="268.806"/>
  <line style="fill: none; stroke: rgb(214, 0, 0);" x1="-149.272" y1="276.164" x2="-165.554" y2="269.276"/>
  <line style="fill: none; stroke: rgb(214, 0, 0);" x1="-165.554" y1="269.276" x2="-146.924" y2="260.978"/>
  <line style="fill: none; stroke: rgb(214, 0, 0);" x1="-147.863" y1="268.806" x2="-165.711" y2="260.665"/>
  <line style="fill: none; stroke: rgb(214, 0, 0);" x1="-165.711" y1="260.665" x2="-146.454" y2="253.15"/>
  <line style="fill: none; stroke: rgb(214, 0, 0);" x1="-146.297" y1="260.978" x2="-166.18" y2="252.054"/>
  <line style="fill: none; stroke: rgb(214, 0, 0);" x1="-165.867" y1="251.898" x2="-146.61" y2="252.994"/>
  <path d="M -165.397 284.305 C -164.103 283.335 -162.728 283.56 -161.327 283.209 C -154.655 281.541 -149.127 284.763 -145.045 288.845" style="fill: none; stroke: rgb(214, 0, 0);"/>
  <path d="M -122.216 285.621 C -122.433 285.09 -119.038 283.896 -117.358 283.192 C -116.051 282.644 -114.411 282.673 -113.021 281.978 C -112.139 281.537 -109.635 282.065 -108.856 282.325 C -107.181 282.883 -106.319 281.978 -104.692 283.019" style="fill: none; stroke: rgb(214, 0, 0);"/>
  <line style="stroke: rgb(214, 0, 0);" x1="-122.39" y1="284.407" x2="-106.601" y2="274.864"/>
  <line style="stroke: rgb(214, 0, 0);" x1="-105.907" y1="282.151" x2="-123.605" y2="276.946"/>
  <line style="stroke: rgb(214, 0, 0);" x1="-123.605" y1="276.946" x2="-107.121" y2="268.791"/>
  <line style="stroke: rgb(214, 0, 0);" x1="-106.774" y1="274.864" x2="-124.993" y2="269.832"/>
  <line style="stroke: rgb(214, 0, 0);" x1="-124.819" y1="269.659" x2="-107.468" y2="262.371"/>
  <line style="stroke: rgb(214, 0, 0);" x1="-106.948" y1="268.618" x2="-126.554" y2="262.198"/>
  <line style="stroke: rgb(214, 0, 0);" x1="-126.554" y1="262.198" x2="-107.815" y2="254.216"/>
  <line style="stroke: rgb(214, 0, 0);" x1="-107.121" y1="262.545" x2="-127.248" y2="254.737"/>
  <line style="stroke: rgb(214, 0, 0);" x1="-127.248" y1="254.91" x2="-107.642" y2="254.043"/>
  <path d="M -121.398 241.777 C -121.398 241.317 -119.525 241.524 -119.116 241.524 C -117.865 241.524 -114.297 241.067 -114.297 239.495" style="stroke: rgb(0, 0, 0); fill: none;"/>
  <path d="M -161.72 241.27 C -160.43 242.56 -156.135 243.04 -154.619 241.524" style="stroke: rgb(0, 0, 0); fill: none;"/>
  <ellipse style="stroke-width: 0px; fill: url(#gradient-4);" cx="-139.061" cy="173.814" rx="7.068" ry="4.099"/>
  <polygon style="fill: rgb(246, 246, 246); stroke: rgb(146, 22, 22); stroke-width: 2px;" points="-177.327 78.076 -163.784 75.582 -153.448 109.439 -162.002 109.795 -167.348 95.183 -172.693 93.757 -176.257 91.263 -178.396 87.699 -178.396 84.848 -179.108 81.284 -177.327 78.433 -176.895 78.076"/>
  <polygon style="fill: rgb(246, 246, 246); stroke: rgb(146, 22, 22); stroke-width: 2px;" points="-128.071 106.194 -115.316 109.082 -104.98 75.225 -113.534 74.869 -118.88 89.481 -124.225 90.907 -127.789 93.401 -129.928 96.965 -129.928 99.816 -130.64 103.38 -128.071 106.231 -126.851 106.851" transform="matrix(-1, 0, 0, -1, -235.620003, 183.951004)"/>
  <circle style="fill: rgb(255, 222, 223);" cx="239.277" cy="160.271" r="67.158" transform="matrix(0.516823, 0, 0, 0.634466, -265.087891, -59.154171)"/>
  <circle style="fill: rgb(224, 171, 47);" cx="-159.176" cy="105.69" r="2.012" bx:origin="-0.744 0.589"/>
  <circle style="fill: rgb(224, 171, 47);" cx="-125.244" cy="105.359" r="2.012" bx:origin="-0.744 0.589"/>
  <polygon style="fill: rgb(216, 216, 216); stroke: rgb(0, 0, 0);" points="73.461 188.634"/>
  <polygon style="fill: rgb(239, 206, 108); stroke: rgb(239, 206, 108);" points="-178.096 36.682 -172.28 47.951 -171.553 53.04 -166.464 53.404 -166.464 44.316 -166.463 32.32 -163.192 25.413 -156.824 23.019 -152.262 22.708 -141.017 25.413 -131.64 21.582 -125.762 21.941 -121.023 26.867 -118.479 29.775 -116.661 31.229 -115.207 37.409 -114.48 43.952 -114.48 49.405 -114.117 52.677 -108.664 53.041 -107.573 47.588 -108.3 39.59 -106.119 33.047 -107.573 24.322 -110.844 11.6 -117.025 2.875 -128.294 -2.579 -142.471 -5.123 -156.648 -3.306 -166.464 3.601 -174.461 15.599 -178.459 27.957 -177.369 38.5"/>
  <polygon style="stroke: rgb(220, 186, 85); fill: rgb(220, 186, 85);" points="-142.973 13.611 -148.063 7.431 -137.884 7.067"/>
  <path d="M -156.896 17.511 C -156.144 17.135 -154.962 18.647 -153.947 18.986 C -151.137 19.922 -147.759 17.858 -146.081 17.019 C -144.9 16.428 -142.886 16.796 -142.886 15.053" style="fill: none; stroke: rgb(220, 186, 85);"/>
  <path d="M -142.149 15.298 C -138.802 18.53 -131.052 19.886 -127.401 16.361" style="stroke: rgb(220, 186, 85); fill: none;"/>
  <ellipse style="fill: rgb(220, 186, 85);" cx="73.809" cy="15.31" rx="4.947" ry="1.538" transform="matrix(0.911378, -0.411571, 0.411571, 0.911378, -228.362411, 20.56028)"/>
  <ellipse style="fill: rgb(220, 186, 85);" cx="-73.809" cy="-15.31" rx="4.947" ry="1.538" transform="matrix(0.911378, 0.411571, 0.411571, -0.911378, -57.958729, 20.092134)"/>
  <path d="M -127.784 17.039 C -124.355 17.039 -123.221 21.067 -121.232 23.056 C -120.866 23.422 -121.188 24.614 -120.965 25.061 C -120.764 25.464 -120.296 26.151 -120.296 26.532" style="fill: none; stroke: rgb(220, 186, 85);"/>
  <path d="M -156.933 17.172 C -159.152 17.912 -160.165 19.201 -161.613 20.649 C -162.657 21.692 -163.849 22.445 -164.555 23.858 C -164.837 24.422 -165.1 26.141 -165.491 26.532" style="fill: none; stroke: rgb(220, 186, 85);"/>
  <path d="M -159.47 19.715 C -159.47 21.032 -158.648 22.576 -157.698 23.051 C -157.527 23.136 -156.981 23.793 -156.864 23.676 C -156.628 23.441 -156.976 22.449 -156.864 22.113 C -156.592 21.298 -155.717 19.961 -155.717 19.194" style="fill: none; stroke: rgb(220, 186, 85);"/>
  <path d="M -129.763 18.986 C -129.592 19.5 -129.835 21.832 -129.763 21.904 C -129.351 22.317 -128.452 21.509 -128.2 21.383 C -127.268 20.917 -126.011 19.94 -126.011 18.673" style="fill: none; stroke: rgb(220, 186, 85);"/>
  <path d="M -150.923 19.611 C -151.265 19.954 -149.816 21.704 -149.359 22.009 C -149.136 22.157 -148.857 21.27 -148.838 21.175 C -148.67 20.334 -148.213 19.821 -148.213 18.882" style="fill: none; stroke: rgb(220, 186, 85);"/>
  <path d="M -147.066 18.465 C -146.52 19.283 -146.406 20.793 -145.815 21.383 C -145.531 21.668 -145.383 20.579 -145.294 20.445 C -144.938 19.91 -144.877 18.395 -144.877 17.631" style="fill: none; stroke: rgb(220, 186, 85);"/>
  <path d="M -143.209 17.318 C -143.209 18.446 -142.852 19.366 -142.271 20.237 C -142.21 20.328 -141.805 21.126 -141.646 20.966 C -141.516 20.837 -141.729 20.299 -141.646 20.132 C -141.264 19.369 -141.125 18.127 -141.125 17.214" style="fill: none; stroke: rgb(220, 186, 85);"/>
  <path d="M -139.665 18.256 C -139.665 19.143 -139.773 20.546 -139.144 21.175 C -138.493 21.826 -137.789 19.045 -137.789 18.673" style="fill: none; stroke: rgb(220, 186, 85);"/>
  <path d="M -137.164 18.986 C -136.845 19.623 -136.519 21.298 -136.121 21.696 C -135.692 22.125 -135.079 19.911 -135.079 19.507" style="fill: none; stroke: rgb(220, 186, 85);"/>
  <path d="M -153.945 20.132 C -153.945 20.545 -153.607 23.025 -153.007 22.425 C -152.737 22.155 -152.59 20.805 -152.59 20.341" style="fill: none; stroke: rgb(220, 186, 85);"/>
  <path style="fill: rgb(198, 164, 63);" transform="matrix(0.042888, 0.082872, -0.082872, 0.042888, -129.533386, -23.52231)" d="M 151 397 A 21.095 21.095 0 0 1 153 354.905 L 153 376 Z" bx:shape="pie 153 376 0 21.095 185.44 360 1@643ca63b"/>
  <path style="fill: rgb(198, 164, 63);" transform="matrix(-0.042888, 0.082872, 0.082872, 0.042888, -157.004654, -24.163977)" d="M 151 397 A 21.095 21.095 0 0 1 153 354.905 L 153 376 Z" bx:shape="pie 153 376 0 21.095 185.44 360 1@643ca63b"/>
  <polygon style="fill: url(#gradient-8);" points="-180.23 -3.176 -197.547 -3.991 -199.787 -6.639 -186.138 -5.824 -180.23 -5.213 -191.027 -7.25 -196.935 -9.695 -198.769 -11.732 -195.713 -12.954 -191.842 -11.325 -184.712 -8.88 -179.008 -6.028 -187.768 -10.917 -192.657 -13.973 -194.694 -17.844 -190.416 -17.436 -184.916 -12.14 -179.211 -7.861 -180.637 -12.343 -183.082 -20.085 -181.452 -23.548 -180.026 -19.881 -178.6 -12.14 -178.6 -7.047 -178.193 -16.214 -177.174 -23.752 -174.933 -21.511 -175.137 -14.992 -176.767 -8.676 -175.544 -6.232 -179.823 -3.379"/>
  <polygon style="stroke: rgb(220, 186, 85); fill: rgb(239, 206, 108);" points="-169.9 1.858 -175.805 -3.161 -179.643 -3.456 -174.771 -8.18 -174.476 -5.375 -168.277 0.972"/>
  <path d="M -156.656 -2.137 C -158.694 -2.646 -160.257 -3.675 -161.828 -4.723 C -162.933 -5.46 -164.295 -3.805 -164.989 -3.573 C -167.561 -2.716 -171.74 2.17 -173.034 4.76 C -173.837 6.366 -172.459 9.069 -173.322 10.794 C -174.01 12.171 -173.388 14.155 -173.896 15.679 C -174.184 16.541 -175.401 17.622 -174.758 18.265 C -173.932 19.091 -172.898 15.994 -172.747 15.391 C -172.381 13.929 -170.285 9.85 -168.724 9.07 C -167.483 8.449 -166.816 7.162 -165.851 6.196 C -163.898 4.244 -160.609 3.185 -159.242 0.449 C -158.79 -0.455 -156.656 -1.427 -156.656 -2.424" style="fill: rgb(239, 206, 108); stroke: rgb(220, 186, 85);"/>
  <polygon style="fill: url(#gradient-9);" points="-94.505 -24.242 -111.822 -23.427 -114.062 -20.779 -100.413 -21.594 -94.505 -22.205 -105.302 -20.168 -111.21 -17.723 -113.044 -15.686 -109.988 -14.464 -106.117 -16.093 -98.987 -18.538 -93.283 -21.39 -102.043 -16.501 -106.932 -13.445 -108.969 -9.574 -104.691 -9.982 -99.191 -15.278 -93.486 -19.557 -94.912 -15.075 -97.357 -7.333 -95.727 -3.87 -94.301 -7.537 -92.875 -15.278 -92.875 -20.371 -92.468 -11.204 -91.449 -3.666 -89.208 -5.907 -89.412 -12.426 -91.042 -18.742 -89.819 -21.186 -94.098 -24.039" transform="matrix(-1, 0, 0, -1, -203.269997, -27.908001)"/>
  <polygon style="stroke: rgb(220, 186, 85); fill: rgb(239, 206, 108);" points="-109.748 -7.886 -115.653 -2.867 -119.491 -2.572 -114.619 2.152 -114.324 -0.653 -108.125 -7" transform="matrix(-1, 0, 0, -1, -227.615997, -5.734)"/>
  <path d="M -129.933 -0.7 C -129.933 -0.7 -127.459 2.481 -127.059 2.748 C -124.415 4.511 -121.611 5.61 -119.301 7.92 C -118.895 8.326 -115.402 12.642 -114.704 11.943 C -113.512 10.752 -114.728 5.861 -115.278 4.76 C -116.775 1.766 -118.604 -4.873 -122.462 -6.159 C -127.463 -7.826 -129.933 -3.848 -129.933 0.737" style="fill: rgb(239, 206, 108); stroke: rgb(220, 186, 85);"/>
  <path d="M -162.115 -3.861 C -162.115 -12.17 -155.182 -11.869 -150.909 -7.596 C -149.365 -6.052 -153.015 -3.002 -153.208 -2.424 C -153.593 -1.269 -154.599 -0.579 -155.506 -0.125 C -157.372 0.808 -159.223 -3.286 -159.816 -3.286" style="fill: rgb(239, 206, 108); stroke: rgb(220, 186, 85);"/>
  <rect x="-145.036" y="-19.908" width="3.651" height="13.386" style="fill: rgb(239, 206, 108); stroke: rgb(220, 186, 85);"/>
  <path d="M -152.633 -8.458 C -153.53 -12.046 -149.228 -13.549 -146.024 -12.481 C -143.373 -11.597 -142.192 -10.563 -140.852 -7.884 C -139.045 -4.27 -142.785 -3.651 -144.3 -2.137 C -147.888 1.452 -152.92 -1.941 -152.92 -7.021" style="fill: rgb(239, 206, 108); stroke: rgb(220, 186, 85);"/>
  <path d="M -142.863 -9.32 C -140.491 -10.111 -139.915 -11.656 -138.266 -12.481 C -136.161 -13.533 -132.241 -6.438 -133.956 -4.723 C -134.406 -4.272 -134.801 -3.303 -135.392 -2.711 C -135.823 -2.28 -137.547 -3.142 -137.978 -2.711 C -138.904 -1.786 -139.33 -2.052 -140.277 -2.999 C -141.117 -3.838 -142.134 -3.551 -142.863 -5.01" style="fill: rgb(239, 206, 108); stroke: rgb(220, 186, 85);"/>
  <path d="M -135.392 -8.746 C -133.785 -8.746 -132.781 -8.354 -131.369 -7.884 C -129.989 -7.423 -130.121 -7.591 -129.358 -6.447 C -128.923 -5.794 -128.235 -5.089 -127.921 -4.148 C -126.256 0.848 -136.254 0.376 -136.254 -4.723" style="fill: rgb(239, 206, 108); stroke: rgb(220, 186, 85);"/>
  <polygon style="fill: rgb(221, 3, 3); stroke: rgb(221, 3, 3);" points="-141.386 -19.908 -139.925 -29.157 -134.571 -37.432 -130.19 -51.548 -131.407 -56.66 -136.275 -58.12 -138.708 -56.66 -139.439 -53.739 -141.142 -55.443 -141.629 -57.876 -142.359 -59.093 -144.306 -58.85 -148.687 -59.337 -151.121 -57.633 -151.851 -53.982 -149.174 -49.601 -147.957 -40.596 -147.47 -33.538 -146.497 -25.993 -144.793 -19.665"/>
</svg>