<?xml version="1.0" encoding="utf-8"?>
<svg viewBox="-221.431 -65.172 155.107 380.504" character="caesar" xmlns="http://www.w3.org/2000/svg" xmlns:bx="https://boxy-svg.com">
  <defs>
    <pattern id="pattern-0" x="0" y="0" width="25" height="25" patternUnits="userSpaceOnUse" viewBox="0 0 100 100">
      <rect x="0" y="0" width="50" height="100" style="fill: black;"/>
    </pattern>
    <linearGradient id="gradient-10" gradientUnits="userSpaceOnUse" x1="222.21" y1="285.992" x2="222.21" y2="394.679" gradientTransform="matrix(0.999173, 0.04066, -0.073858, 1.814992, -346.271652, -438.291236)">
      <stop offset="0" style="stop-color: rgb(251, 177, 180);"/>
      <stop offset="1" style="stop-color: rgb(255, 222, 223);"/>
    </linearGradient>
    <linearGradient id="gradient-14" gradientUnits="userSpaceOnUse" x1="258.504" y1="280.615" x2="258.504" y2="392.227" gradientTransform="matrix(0.999985, 0.005444, -0.009259, 1.700734, -371.839617, -383.859681)">
      <stop offset="0" style="stop-color: rgb(255, 191, 193);"/>
      <stop offset="1" style="stop-color: rgb(255, 222, 223);"/>
    </linearGradient>
    <linearGradient id="gradient-4" gradientUnits="userSpaceOnUse" x1="235.997" y1="276.307" x2="235.997" y2="284.505" gradientTransform="matrix(1, 0, 0, 1, -375.058273, -106.591987)">
      <stop offset="0" style="stop-color: rgb(227, 168, 78);"/>
      <stop offset="1" style="stop-color: rgb(163, 98, 0);"/>
    </linearGradient>
    <linearGradient id="gradient-12" gradientUnits="userSpaceOnUse" x1="86.912" y1="82.072" x2="86.912" y2="182.851" gradientTransform="matrix(1, 0, 0, 1.003536, -227.532685, -11.954522)">
      <stop offset="0" style="stop-color: rgb(248, 248, 248);"/>
      <stop offset="1" style="stop-color: rgb(246, 246, 246);"/>
    </linearGradient>
    <linearGradient id="gradient-0" gradientUnits="userSpaceOnUse" x1="73.278" y1="180.424" x2="73.278" y2="217.406" gradientTransform="matrix(0.999845, 0.017586, -0.011834, 0.67282, 2.584149, 69.842248)">
      <stop offset="0" style="stop-color: rgba(243, 243, 243, 1)"/>
      <stop offset="1" style="stop-color: rgba(192, 192, 192, 1)"/>
    </linearGradient>
    <linearGradient id="gradient-1" gradientUnits="userSpaceOnUse" x1="73.278" y1="180.424" x2="73.278" y2="217.406" gradientTransform="matrix(0.999845, 0.017586, -0.011834, 0.67282, 2.584124, 69.842255)">
      <stop offset="0" style="stop-color: rgba(243, 243, 243, 1)"/>
      <stop offset="1" style="stop-color: rgba(192, 192, 192, 1)"/>
    </linearGradient>
    <linearGradient id="gradient-2" gradientUnits="userSpaceOnUse" x1="73.278" y1="180.424" x2="73.278" y2="217.406" gradientTransform="matrix(0.999845, 0.017586, -0.011834, 0.67282, 2.584121, 69.842269)">
      <stop offset="0" style="stop-color: rgba(243, 243, 243, 1)"/>
      <stop offset="1" style="stop-color: rgba(192, 192, 192, 1)"/>
    </linearGradient>
    <linearGradient id="gradient-3" gradientUnits="userSpaceOnUse" x1="73.278" y1="180.424" x2="73.278" y2="217.406" gradientTransform="matrix(0.999845, 0.017586, -0.011834, 0.67282, 2.584111, 69.842228)">
      <stop offset="0" style="stop-color: rgba(243, 243, 243, 1)"/>
      <stop offset="1" style="stop-color: rgba(192, 192, 192, 1)"/>
    </linearGradient>
    <linearGradient id="gradient-5" gradientUnits="userSpaceOnUse" x1="73.278" y1="180.424" x2="73.278" y2="217.406" gradientTransform="matrix(0.999845, 0.017586, -0.011834, 0.67282, 2.584155, 69.842262)">
      <stop offset="0" style="stop-color: rgba(243, 243, 243, 1)"/>
      <stop offset="1" style="stop-color: rgba(192, 192, 192, 1)"/>
    </linearGradient>
    <linearGradient id="gradient-6" gradientUnits="userSpaceOnUse" x1="73.278" y1="180.424" x2="73.278" y2="217.406" gradientTransform="matrix(0.999847, 0.017586, -0.011834, 0.672821, 2.584143, 69.842361)">
      <stop offset="0" style="stop-color: rgba(243, 243, 243, 1)"/>
      <stop offset="1" style="stop-color: rgba(192, 192, 192, 1)"/>
    </linearGradient>
    <linearGradient id="gradient-7" gradientUnits="userSpaceOnUse" x1="73.278" y1="180.424" x2="73.278" y2="217.406" gradientTransform="matrix(0.999846, 0.017586, -0.011834, 0.672821, 2.584138, 69.842335)">
      <stop offset="0" style="stop-color: rgba(243, 243, 243, 1)"/>
      <stop offset="1" style="stop-color: rgba(192, 192, 192, 1)"/>
    </linearGradient>
    <linearGradient id="gradient-8" gradientUnits="userSpaceOnUse" x1="40.173" y1="-12.444" x2="40.173" y2="8.132" gradientTransform="matrix(0.682991, -0.730427, 0.762381, 0.712869, -212.440746, 17.722081)">
      <stop offset="0" style="stop-color: rgba(245, 245, 245, 1)"/>
      <stop offset="1" style="stop-color: rgb(251, 251, 251);"/>
    </linearGradient>
    <linearGradient id="gradient-9" gradientUnits="userSpaceOnUse" x1="40.173" y1="-12.444" x2="40.173" y2="8.132" gradientTransform="matrix(0.682991, 0.730427, 0.762381, -0.712869, -126.716341, -45.140539)">
      <stop offset="0" style="stop-color: rgba(245, 245, 245, 1)"/>
      <stop offset="1" style="stop-color: rgb(251, 251, 251);"/>
    </linearGradient>
    <linearGradient id="gradient-11" gradientUnits="userSpaceOnUse" x1="-159.176" y1="103.678" x2="-159.176" y2="107.702" gradientTransform="matrix(0.99967, 0.025673, -0.044236, 1.722526, 4.533865, -70.823573)">
      <stop offset="0" style="stop-color: rgba(224, 171, 47, 1)"/>
      <stop offset="1" style="stop-color: rgba(147, 109, 22, 1)"/>
    </linearGradient>
    <linearGradient id="gradient-13" gradientUnits="userSpaceOnUse" x1="-125.244" y1="103.347" x2="-125.244" y2="107.371" gradientTransform="matrix(1, 0, 0, 2.002689, 0, -103.624889)">
      <stop offset="0" style="stop-color: rgba(224, 171, 47, 1)"/>
      <stop offset="1" style="stop-color: rgba(147, 109, 22, 1)"/>
    </linearGradient>
    <linearGradient id="gradient-15" gradientUnits="userSpaceOnUse" x1="-141.021" y1="-59.337" x2="-141.021" y2="-19.665" gradientTransform="matrix(1, 0, 0, 1.431816, 0, 25.622651)">
      <stop offset="0" style="stop-color: rgba(221, 3, 3, 1)"/>
      <stop offset="1" style="stop-color: rgba(120, 2, 2, 1)"/>
    </linearGradient>
    <linearGradient id="gradient-16" gradientUnits="userSpaceOnUse" x1="173.043" y1="239.799" x2="173.043" y2="264.733" gradientTransform="matrix(0.937309, 0.348497, -0.344929, 0.927705, 95.321047, -42.11866)">
      <stop offset="0" style="stop-color: rgba(234, 180, 79, 1)"/>
      <stop offset="1" style="stop-color: rgba(189, 130, 22, 1)"/>
    </linearGradient>
    <linearGradient id="gradient-18" gradientUnits="userSpaceOnUse" x1="-95.779" y1="88.002" x2="-95.779" y2="287.902" gradientTransform="matrix(0.999871, 0.01606, -0.016711, 1.040385, 4.798831, -10.088778)">
      <stop offset="0" style="stop-color: rgb(217, 136, 224);"/>
      <stop offset="1" style="stop-color: rgba(170, 32, 183, 1)"/>
    </linearGradient>
    <linearGradient id="gradient-19" gradientUnits="userSpaceOnUse" x1="-188.112" y1="85.807" x2="-188.112" y2="290.956" gradientTransform="matrix(0.999892, -0.014726, 0.014927, 1.013569, -1.022825, -8.66683)">
      <stop offset="0" style="stop-color: rgb(217, 136, 224);"/>
      <stop offset="1" style="stop-color: rgba(170, 32, 183, 1)"/>
    </linearGradient>
    <linearGradient id="gradient-20" gradientUnits="userSpaceOnUse" x1="-145.964" y1="103.125" x2="-145.964" y2="259.433" gradientTransform="matrix(0.999983, -0.00574, 0.003742, 0.651957, 8.386143, 90.040749)">
      <stop offset="0" style="stop-color: rgba(108, 44, 114, 1)"/>
      <stop offset="1" style="stop-color: rgb(76, 40, 79);"/>
    </linearGradient>
    <linearGradient id="gradient-17" gradientUnits="userSpaceOnUse" x1="173.043" y1="239.799" x2="173.043" y2="264.733" gradientTransform="matrix(0.937309, 0.348497, -0.344929, 0.927705, 95.321047, -42.11866)">
      <stop offset="0" style="stop-color: rgba(234, 180, 79, 1)"/>
      <stop offset="1" style="stop-color: rgba(189, 130, 22, 1)"/>
    </linearGradient>
  </defs>
  <path d="M -205.622 257.342 C -205.622 249.962 -193.179 241.821 -185.552 245.635 C -180.136 248.343 -179.542 253.03 -174.263 255.67 C -170.089 257.756 -167.218 247.147 -160.465 249.398 C -159.369 249.763 -159.033 251.607 -157.956 252.325 C -155.17 254.182 -148.864 256.924 -145.413 256.924 C -144.637 256.924 -141.643 257.336 -141.231 256.924 C -138.043 253.735 -131.934 248.064 -124.925 249.816 C -123.388 250.2 -119.712 252.938 -118.653 253.997 C -117.377 255.273 -111.339 255.041 -109.454 255.67 C -108.413 256.017 -103.234 256.976 -102.346 256.088 C -100.236 253.978 -99.685 250.994 -96.492 249.398 C -91.546 246.925 -87.933 254.944 -84.367 253.161 C -82.241 252.098 -82.694 245.255 -82.694 243.126 C -82.694 233.629 -87.712 224.15 -87.712 214.694 C -87.712 209.109 -85.993 203.73 -83.53 198.805 C -82.124 195.993 -83.53 189.031 -83.53 185.843 C -83.53 177.545 -83.329 170.357 -86.875 163.264 C -88.511 159.992 -93.457 158.572 -94.82 154.484 C -95.634 152.042 -98.172 146.114 -100.255 144.031 C -100.858 143.428 -99.859 141.061 -100.255 140.268 C -101.318 138.142 -102.175 136.352 -102.764 133.996 C -104.411 127.407 -109.668 119.566 -114.472 114.762 C -116.015 113.219 -116.58 110.572 -119.071 109.327 C -123.069 107.328 -127.09 106.887 -131.615 105.982 C -137.711 104.762 -144.869 102.193 -151.266 103.473 C -158.975 105.015 -169.114 113.376 -173.845 118.107 C -174.37 118.632 -174.962 122.624 -175.099 122.707 C -178.176 124.553 -176.637 121.594 -178.026 122.288 C -180.202 123.376 -179.879 128.921 -180.953 131.069 C -184.345 137.852 -183.156 144.9 -185.134 152.811 C -186.661 158.917 -190.757 168.238 -193.497 173.718 C -194.73 176.184 -193.519 180.034 -194.751 182.498 C -197.458 187.912 -197.05 194.726 -199.351 200.477 C -204.23 212.677 -208.967 223.216 -208.967 236.436 C -208.967 240.559 -210.334 245.522 -207.295 248.561 C -205.354 250.503 -208.36 257.113 -206.04 259.433" style="stroke-width: 0px; fill: url(#gradient-20);"/>
  <path d="M -166.737 86.33 C -166.737 94.055 -170.582 101.374 -172.173 109.327 C -175.567 126.298 -183.781 141.165 -193.497 155.738 C -196.137 159.698 -196.899 165.052 -198.932 169.118 C -206.212 183.678 -210.319 199.194 -214.403 215.53 C -217.646 228.5 -218.9 248.134 -215.657 261.105 C -214.916 264.071 -212.163 266.99 -211.058 270.304 C -209.299 275.582 -204.826 281.135 -201.023 284.938 C -199.291 286.67 -198.221 287.353 -196.424 288.701 C -195.71 289.237 -194.352 291.59 -194.751 290.792 C -196.161 287.973 -195.428 283.326 -196.424 280.339 C -198.748 273.365 -202.277 265.831 -202.277 257.76 C -202.277 255.995 -202.613 250.988 -201.441 249.816 C -199.342 247.717 -194.956 243.741 -193.915 240.617 C -191.791 234.245 -193.079 224.977 -193.079 218.039 C -193.079 212.004 -193.098 202.607 -190.57 197.551 C -188.934 194.279 -190.635 189.032 -189.734 185.425 C -186.262 171.537 -179.58 158.192 -176.354 145.285 C -173.773 134.961 -169.733 122.183 -164.228 113.926 C -161.944 110.5 -161.853 103.739 -160.047 100.128 C -157.57 95.175 -157.708 82.233 -166.737 86.748" style="stroke: rgb(213, 41, 41); stroke-width: 0px; fill: url(#gradient-19);"/>
  <path d="M -109.872 88.42 C -106.311 99.105 -101.613 112.046 -96.492 122.288 C -94.244 126.786 -92.883 133.227 -91.893 138.177 C -89.588 149.701 -83.679 161.221 -79.349 172.045 C -78.079 175.22 -79.132 180.767 -78.513 184.171 C -75.896 198.563 -73.496 212.594 -73.496 227.237 C -73.496 243.871 -72.604 259.686 -77.677 274.903 C -78.419 277.131 -82.708 284.109 -84.367 284.938 C -84.756 285.133 -86.461 288.279 -86.875 287.865 C -87.825 286.916 -87.294 282.59 -87.294 281.175 C -87.294 277.281 -87.272 269.644 -85.203 266.541 C -84.269 265.14 -83.526 260.275 -84.785 258.596 C -88.742 253.32 -91.068 250.63 -93.984 244.798 C -96.107 240.551 -94.402 231.235 -94.402 226.401 C -94.402 210.847 -92.212 193.646 -94.402 178.317 C -95.796 168.556 -97.371 158.173 -102.346 149.466 C -105.484 143.975 -109.608 139.123 -112.381 133.578 C -113.943 130.454 -114.802 124.885 -116.98 122.707 C -117.669 122.018 -117.817 116.68 -117.817 115.598 C -117.817 110.023 -117.817 104.448 -117.817 98.874 C -117.817 97.394 -118.503 93.556 -117.817 92.184 C -116.814 90.179 -111.545 90.234 -111.545 88.002" style="stroke: rgb(0, 0, 0); stroke-width: 0px; fill: url(#gradient-18);"/>
  <path d="M -180.472 300.525 C -182.465 300.525 -183.65 303.945 -183.16 305.901 C -182.384 309.007 -179.576 310.126 -176.631 310.126 C -174.638 310.126 -168.245 310.717 -166.67 309.638 C -164.126 307.894 -162.64 305.735 -160.237 304.533 C -155.138 301.984 -153.499 300.465 -148.98 297.452 C -147.562 296.507 -144.349 290.041 -146.571 287.819 C -148.025 286.365 -146.905 286.085 -148.211 284.779 C -149.137 283.853 -153.781 284.01 -155.508 284.01 C -163.862 284.01 -170.899 293.079 -175.095 299.373 C -175.656 300.214 -180.088 301.556 -180.088 301.677" style="stroke: rgb(154, 58, 10); fill: rgb(154, 58, 10);"/>
  <polygon style="stroke: rgb(255, 222, 223); fill: url(#gradient-10); stroke-width: 0px;" points="-150.132 287.083 -164.342 285.163 -167.414 178.396 -139.378 179.932"/>
  <polygon style="stroke: rgb(255, 222, 223); stroke-width: 0px; fill: url(#gradient-14);" points="-114.92 284.621 -130.33 283.551 -130.99 173.009 -102.953 174.545" transform="matrix(0.989053, -0.147562, 0.147562, 0.989053, -35.044897, -14.755663)"/>
  <rect x="68.403" y="180.424" width="9.75" height="36.982" style="fill: url(#gradient-0); stroke: rgb(188, 188, 188);" transform="matrix(0.957861, 0.287233, -0.287233, 0.957861, -182.894516, -25.33354)"/>
  <rect x="68.403" y="180.424" width="9.75" height="36.982" style="fill: url(#gradient-1); stroke: rgb(188, 188, 188);" transform="matrix(0.993178, 0.11661, -0.11661, 0.993178, -210.541534, -17.146446)"/>
  <rect x="68.403" y="180.424" width="9.75" height="36.982" style="fill: url(#gradient-2); stroke: rgb(188, 188, 188);" transform="matrix(0.999782, -0.020884, 0.020884, 0.999782, -228.187668, -7.111335)"/>
  <rect x="68.403" y="180.424" width="9.75" height="36.982" style="stroke: rgb(188, 188, 188); fill: url(#gradient-3);" transform="matrix(0.999975, 0.00712, -0.00712, 0.999975, -212.443863, -8.437699)"/>
  <rect x="68.403" y="180.424" width="9.75" height="36.982" style="stroke: rgb(188, 188, 188); fill: url(#gradient-5);" transform="matrix(0.991517, -0.129978, 0.129978, 0.991517, -228.143494, 3.290996)"/>
  <rect x="68.403" y="180.424" width="9.75" height="36.982" style="stroke: rgb(188, 188, 188); fill: url(#gradient-6);" transform="matrix(0.95291, -0.303252, 0.303252, 0.95291, -249.848511, 21.884808)"/>
  <rect x="68.403" y="180.424" width="9.75" height="36.982" style="stroke: rgb(188, 188, 188); fill: url(#gradient-7);" transform="matrix(0.890036, -0.455889, 0.455889, 0.890036, -265.160858, 41.246609)"/>
  <path d="M -169.37 160.536 C -169.37 161.246 -169.867 168.809 -169.37 169.057 C -166.409 170.538 -163.675 171.702 -160.849 173.116 C -158.901 174.09 -157.116 174.17 -153.139 174.332 C -150.589 174.436 -147.332 174.645 -144.617 175.55 C -141.263 176.668 -136.694 174.739 -133.255 174.739 C -127.495 174.739 -118.467 172.861 -114.588 170.274 C -110.471 167.53 -112.154 168.581 -112.154 162.97 C -112.154 162.324 -111.742 159.324 -112.154 158.912 C -112.629 158.437 -115.381 159.035 -115.806 159.318 C -118.892 161.375 -122.148 162.831 -125.951 163.782 C -131.432 165.152 -138.127 163.243 -142.588 166.217 C -147.319 169.371 -155.275 160.229 -159.226 158.912 C -161.891 158.024 -168.559 159.133 -168.559 161.753" style="fill: rgb(163, 82, 60); stroke: rgb(163, 82, 60);"/>
  <path d="M -164.907 78.971 C -166.681 84.295 -167.016 94.472 -170.588 98.043 C -171.661 99.116 -170.588 107.596 -170.588 109 C -170.588 119.956 -170.588 130.913 -170.588 141.869 C -170.588 148.004 -170.971 154.156 -169.776 160.13 C -169.418 161.922 -161.381 167.315 -159.631 167.84 C -146.443 171.797 -143.759 172.017 -131.226 171.086 C -125.066 170.628 -124.362 170.292 -118.647 167.434 C -115.582 165.902 -114.364 163.923 -112.281 160.185 C -110.931 157.762 -111.15 148.072 -111.08 144.902 C -110.847 134.315 -111.132 134.832 -111.175 122.153 C -111.19 117.871 -109.453 112.093 -110.53 107.783 C -113.508 95.872 -106.886 84.546 -117.023 76.942 C -119.295 75.239 -123.268 71.526 -125.951 70.856 C -128.365 70.252 -135.833 72.836 -138.124 72.072 C -145.511 69.61 -164.095 70.793 -164.095 81.812" style="stroke: rgb(229, 229, 229); paint-order: stroke markers; stroke-width: 0px; fill: url(#gradient-12);"/>
  <g transform="matrix(1, 0, 0, 1, -375.543549, -107.658272)"/>
  <g transform="matrix(1, 0, 0, 1, -375.169525, -107.720612)"/>
  <ellipse style="fill: rgb(252, 214, 224);" cx="191.571" cy="151.704" rx="3.239" ry="7.88" transform="matrix(0.970296, -0.241922, 0.241922, 0.970296, -400.75116, -56.561188)" bx:origin="1.344 0.598"/>
  <ellipse style="fill: rgb(252, 214, 224);" cx="191.571" cy="151.704" rx="3.239" ry="7.88" transform="matrix(0.956305, 0.292372, -0.292372, 0.956305, -244.770782, -158.416214)" bx:origin="1.344 0.598"/>
  <g transform="matrix(1, 0, 0, 1, -375.605896, -107.595932)"/>
  <g transform="matrix(1, 0, 0, 1, -374.841156, -107.994926)">
    <g/>
  </g>
  <path d="M -52.801 58.932" style="fill: rgb(216, 216, 216); stroke: rgb(186, 218, 85);"/>
  <polygon style="fill: rgb(216, 216, 216); stroke: rgb(0, 0, 0);" points="-306.626 189.034"/>
  <path d="M -164.342 282.474 C -168.094 289.978 -173.972 292.488 -179.32 297.836 C -181.459 299.976 -182.067 304.306 -180.088 306.285 C -178.864 307.509 -169.691 308.576 -167.414 307.438 C -165.463 306.462 -163.68 304.471 -162.038 302.829 C -160.273 301.065 -156.834 299.686 -154.741 298.989 C -151.349 297.858 -148.973 294.373 -146.675 292.076 C -144.553 289.953 -148.694 282.474 -149.748 282.474" style="stroke: rgb(255, 222, 223); fill: rgb(255, 222, 223);"/>
  <path d="M -122.981 292.443 C -124.376 295.235 -121.923 296.902 -120.58 298.245 C -119.544 299.28 -116.616 300.221 -115.379 301.045 C -113.779 302.112 -110.098 301.926 -108.978 303.045 C -108.678 303.345 -105.551 303.459 -105.178 303.645 C -102.644 304.913 -101.499 304.646 -98.576 304.646 C -96.407 304.646 -92.719 306.511 -91.775 303.846 C -89.91 298.58 -95.432 293.426 -98.687 290.171 C -99.354 289.504 -99.446 288.508 -100.376 288.043 C -107.795 284.334 -117.136 290.622 -122.381 293.244" style="stroke: rgb(154, 58, 10); fill: rgb(154, 58, 10);"/>
  <path d="M -121.328 283.626 C -123.029 284.477 -123.256 293.219 -121.712 294.764 C -116.39 300.085 -109.518 299.725 -102.509 302.061 C -99.718 302.991 -93.808 303.729 -91.756 301.677 C -90.495 300.416 -93.253 295.031 -93.82 293.899 C -95.013 291.511 -96.511 291.181 -98.475 289.217 C -100.505 287.186 -102.851 285.589 -104.429 284.01 C -106.432 282.007 -116.29 281.492 -119.023 282.858 C -119.52 283.107 -119.914 285.023 -120.176 285.547" style="fill: rgb(255, 222, 223); stroke: rgb(255, 222, 223);"/>
  <path d="M -182.576 301.939 C -178.659 298.023 -169.586 300.698 -166.923 304.249 C -166.395 304.952 -165.239 305.998 -165.239 307.641" style="fill: none; stroke: rgb(214, 0, 0);"/>
  <path d="M -179.579 296.707 C -177.991 296.31 -177.425 295.219 -175.73 294.654 C -170.167 292.8 -159.594 296.691 -159.594 302.509" style="fill: none; stroke: rgb(214, 0, 0);"/>
  <path d="M -172.694 291.475 C -169.009 290.948 -164.336 288.102 -160.377 289.422 C -157.698 290.315 -153.97 293.505 -151.895 295.58 C -151.201 296.275 -151.476 297.796 -150.612 298.66" style="fill: none; stroke: rgb(214, 0, 0);"/>
  <path d="M -102.048 303.309 C -102.048 299.68 -99.4 297.759 -97.299 295.658 C -96.657 295.016 -93.548 294.38 -92.765 294.858" style="fill: none; stroke: rgb(214, 0, 0);"/>
  <path d="M -112.6 301.198 C -108.152 296.75 -104.521 289.434 -97.571 289.434" style="fill: none; stroke: rgb(214, 0, 0);"/>
  <path d="M -118.43 298.396 C -116.227 294.724 -113.422 289.63 -109.976 287.906 C -108.719 287.278 -106.911 287.157 -105.592 286.497 C -104.8 286.101 -102.699 286.027 -101.991 286.027" style="fill: none; stroke: rgb(214, 0, 0);"/>
  <line style="fill: none; stroke: rgb(214, 0, 0);" x1="-164.928" y1="283.679" x2="-149.115" y2="276.164"/>
  <line style="fill: none; stroke: rgb(214, 0, 0);" x1="-148.959" y1="282.74" x2="-164.615" y2="277.26"/>
  <line style="fill: none; stroke: rgb(214, 0, 0);" x1="-165.084" y1="276.79" x2="-148.019" y2="268.806"/>
  <line style="fill: none; stroke: rgb(214, 0, 0);" x1="-149.272" y1="276.164" x2="-165.554" y2="269.276"/>
  <line style="fill: none; stroke: rgb(214, 0, 0);" x1="-165.554" y1="269.276" x2="-146.924" y2="260.978"/>
  <line style="fill: none; stroke: rgb(214, 0, 0);" x1="-147.863" y1="268.806" x2="-165.711" y2="260.665"/>
  <line style="fill: none; stroke: rgb(214, 0, 0);" x1="-165.711" y1="260.665" x2="-146.454" y2="253.15"/>
  <line style="fill: none; stroke: rgb(214, 0, 0);" x1="-146.297" y1="260.978" x2="-166.18" y2="252.054"/>
  <line style="fill: none; stroke: rgb(214, 0, 0);" x1="-165.867" y1="251.898" x2="-146.61" y2="252.994"/>
  <path d="M -165.397 284.305 C -164.103 283.335 -162.728 283.56 -161.327 283.209 C -154.655 281.541 -149.127 284.763 -145.045 288.845" style="fill: none; stroke: rgb(214, 0, 0);"/>
  <path d="M -122.216 285.621 C -122.433 285.09 -119.038 283.896 -117.358 283.192 C -116.051 282.644 -114.411 282.673 -113.021 281.978 C -112.139 281.537 -109.635 282.065 -108.856 282.325 C -107.181 282.883 -106.319 281.978 -104.692 283.019" style="fill: none; stroke: rgb(214, 0, 0);"/>
  <line style="stroke: rgb(214, 0, 0);" x1="-122.39" y1="284.407" x2="-106.601" y2="274.864"/>
  <line style="stroke: rgb(214, 0, 0);" x1="-105.907" y1="282.151" x2="-123.605" y2="276.946"/>
  <line style="stroke: rgb(214, 0, 0);" x1="-123.605" y1="276.946" x2="-107.121" y2="268.791"/>
  <line style="stroke: rgb(214, 0, 0);" x1="-106.774" y1="274.864" x2="-124.993" y2="269.832"/>
  <line style="stroke: rgb(214, 0, 0);" x1="-124.819" y1="269.659" x2="-107.468" y2="262.371"/>
  <line style="stroke: rgb(214, 0, 0);" x1="-106.948" y1="268.618" x2="-126.554" y2="262.198"/>
  <line style="stroke: rgb(214, 0, 0);" x1="-126.554" y1="262.198" x2="-107.815" y2="254.216"/>
  <line style="stroke: rgb(214, 0, 0);" x1="-107.121" y1="262.545" x2="-127.248" y2="254.737"/>
  <line style="stroke: rgb(214, 0, 0);" x1="-127.248" y1="254.91" x2="-107.642" y2="254.043"/>
  <path d="M -121.398 241.777 C -121.398 241.317 -119.525 241.524 -119.116 241.524 C -117.865 241.524 -114.297 241.067 -114.297 239.495" style="stroke: rgb(0, 0, 0); fill: none;"/>
  <path d="M -161.72 241.27 C -160.43 242.56 -156.135 243.04 -154.619 241.524" style="stroke: rgb(0, 0, 0); fill: none;"/>
  <ellipse style="stroke-width: 0px; fill: url(#gradient-4);" cx="-139.061" cy="173.814" rx="7.068" ry="4.099"/>
  <g transform="matrix(-0.965685, -0.259723, -0.259723, 0.965685, 133.071259, -57.389542)">
    <path d="M 194.062 200.77 C 191.395 204.77 190.622 208.656 189.192 212.944 C 187.677 217.489 183.299 222.798 180.671 226.741 C 176.44 233.087 173.361 239.732 168.497 244.595 C 168.042 245.05 169.582 249.215 169.714 249.871 C 170.472 253.631 172.797 254.286 176.207 252.711 C 182.533 249.788 180.5 251.835 182.7 247.436 C 188.289 236.257 195.246 221.937 200.96 210.509 C 204.076 204.277 198.605 197.038 193.25 202.393" style="fill: rgb(255, 222, 223); stroke: rgb(255, 222, 223);"/>
    <polygon style="fill: url(#gradient-17);" points="170.717 239.799 183.595 248.674 172.148 264.733 162.49 258.394 170.359 239.799"/>
    <circle style="fill: rgb(255, 222, 223);" cx="164.535" cy="266.425" r="9.509"/>
  </g>
  <g transform="matrix(-0.881388, -0.165289, -0.165289, 0.881388, -252.205093, 151.389282)" style="">
    <polygon style="fill: rgb(165, 165, 165);" points="-196.603 65.548 -185.715 54.367 -174.533 46.127 -154.818 33.18 -131.278 21.41 -120.979 17.879 -98.321 8.463 -83.587 3.671 -77.662 7.685 -75.119 12.594 -74.401 16.454 -76.669 17.186 -81.843 16.113 -85.668 15.525 -94.496 18.467 -99.498 20.527 -115.682 26.707 -124.804 31.12 -131.572 34.357 -134.515 37.888 -143.637 46.127 -151.581 51.718 -160.115 57.309 -170.414 59.369 -195.425 65.549"/>
    <polygon style="fill: rgb(229, 229, 229);" points="-196.532 65.577 -181.106 58.267 -163.25 54.431 -147.94 44.821 -132.408 31.316 -116.77 24.448 -93.045 15.7 -84.05 13.043 -77.724 14.388 -77.184 8.218 -74.33 16.483 -76.598 17.215 -81.772 16.142 -85.597 15.554 -94.425 18.496 -99.427 20.556 -115.611 26.736 -124.733 31.149 -131.501 34.386 -134.444 37.917 -143.566 46.156 -151.51 51.747 -160.044 57.338 -170.343 59.398 -195.354 65.578"/>
    <polygon style="fill: rgb(75, 75, 75);" points="-83.941 3.836 -69.426 -2.55 -57.621 -7.389 -52.395 -6.808 -48.331 -3.905 -47.557 -0.034 -46.202 5.191 -48.138 8.868 -50.847 10.223 -53.75 7.32 -54.718 4.997 -53.944 2.675 -53.75 0.159 -54.137 -1.389 -56.266 -1.196 -61.878 2.094 -66.717 4.61 -71.748 4.804 -73.877 8.094 -73.684 11.964 -72.716 13.706 -69.039 12.932 -71.168 16.222 -74.264 16.803 -76.2 11.577 -78.135 7.9 -83.167 4.03"/>
    <polygon style="fill: rgb(216, 216, 216);" points="-74.473 -0.384 -71.776 4.862 -66.572 4.694 -61.84 2.091 -56.513 -1 -59.115 -6.886 -67.516 -3.394"/>
  </g>
  <g transform="matrix(0.975179, -0.22142, 0.22142, 0.975179, -412.725189, -62.170986)">
    <path d="M 194.062 200.77 C 191.395 204.77 190.622 208.656 189.192 212.944 C 187.677 217.489 183.299 222.798 180.671 226.741 C 176.44 233.087 173.361 239.732 168.497 244.595 C 168.042 245.05 169.582 249.215 169.714 249.871 C 170.472 253.631 172.797 254.286 176.207 252.711 C 182.533 249.788 180.5 251.835 182.7 247.436 C 188.289 236.257 195.246 221.937 200.96 210.509 C 204.076 204.277 198.605 197.038 193.25 202.393" style="fill: rgb(255, 222, 223); stroke: rgb(255, 222, 223);"/>
    <polygon style="fill: url(#gradient-16);" points="170.717 239.799 183.595 248.674 172.148 264.733 162.49 258.394 170.359 239.799"/>
    <circle style="fill: rgb(255, 222, 223);" cx="164.535" cy="266.425" r="9.509"/>
  </g>
  <polygon style="fill: rgb(246, 246, 246); stroke: rgb(146, 22, 22); stroke-width: 2px; stroke-linecap: round;" points="-177.327 78.076 -163.784 75.582 -153.448 109.439 -162.002 109.795 -167.348 95.183 -172.693 93.757 -176.257 91.263 -178.396 87.699 -178.396 84.848 -179.108 81.284 -177.327 78.433 -176.895 78.076"/>
  <polygon style="fill: rgb(246, 246, 246); stroke: rgb(146, 22, 22); stroke-width: 2px; stroke-linecap: round;" points="-128.071 106.194 -115.316 109.082 -104.98 75.225 -113.534 74.869 -118.88 89.481 -124.225 90.907 -127.789 93.401 -129.928 96.965 -129.928 99.816 -130.64 103.38 -128.071 106.231 -126.851 106.851" transform="matrix(-1, 0, 0, -1, -235.620003, 183.951004)"/>
  <circle style="fill: rgb(255, 222, 223);" cx="239.277" cy="160.271" r="67.158" transform="matrix(0.516823, 0, 0, 0.634466, -265.087891, -59.154171)"/>
  <path d="M -172.87425195156823 47.45070155239818 C -172.87425231933594 49.344973288618874 -174.23861069097984 50.988000070474946 -175.2759552001953 52.0253791809082 C -175.4437383812691 52.1931679584857 -176.4196319580078 53.62651443481445 -176.4196319580078 53.62651443481445 C -176.4196319580078 53.62651443481445 -175.4378895103944 53.55972108368067 -175.39031982421875 53.512149810791016 C -174.56660134452596 52.68840385549851 -172.95748991790512 52.909213886257916 -172.18804931640625 52.139747619628906 C -172.0260346997615 51.977727598894226 -170.19363535961338 50.24568043628504 -170.1294403076172 50.30987548828125 C -169.1507061205861 51.28860967531233 -169.25122352024022 53.66536060726248 -167.9564666748047 54.31271743774414 C -167.77514495449986 54.40337527405358 -166.84430207732544 55.487888333000676 -166.58407592773438 55.22765350341797 C -166.34043438522787 54.98400383410883 -166.58407592773438 53.20881390393897 -166.58407592773438 52.82594680786133 C -166.58407592773438 50.87215069315901 -166.6984405517578 48.55208334388196 -166.6984405517578 46.4213981628418 C -166.6984405517578 46.07501281278304 -166.91886912895404 44.4688569219228 -166.6984405517578 44.24842834472656 C -166.1814136068111 43.73140139977986 -165.454658988023 45.29199314286657 -165.32603454589844 45.16336441040039 C -164.9374799103334 44.77479681437385 -165.5547637939453 43.30063819809381 -165.5547637939453 42.87602233886719 C -165.5547637939453 40.90155064641965 -166.58407592773438 39.16772683062146 -166.58407592773438 36.9289436340332 C -166.58407592773438 36.707906897266774 -166.9931166487799 35.16502436605278 -166.6984405517578 34.870338439941406 C -166.57709547855103 34.74898931920049 -166.28853807439 35.508968578589005 -166.240966796875 35.556541442871094 C -166.09801629628916 35.69949671165243 -164.59062937137153 37.33720976145502 -164.5254669189453 37.27204513549805 C -164.30240416511097 37.04897494127833 -164.8148811658354 34.291482155442615 -164.98294067382812 33.95540237426758 C -165.172522894911 33.57628219155847 -164.82601114342648 32.282459773321555 -165.09730529785156 32.011165618896484 C -165.30698011347394 31.801490803274103 -165.00199601484763 31.07717389440226 -165.211669921875 30.867496490478516 C -166.14305828744952 29.93609259140892 -164.90233159870107 26.440955971737786 -164.5254669189453 26.064085006713867 C -164.30284161440778 25.841455989279336 -164.40676232231263 26.98334585833453 -164.18235778808594 27.207754135131836 C -163.94081950504 27.449296446501382 -162.80996704101562 30.29566192626953 -162.80996704101562 30.29566192626953 C -162.80996704101562 30.29566192626953 -162.80996704101562 29.56132892070698 -162.80996704101562 29.495092391967773 C -162.80996704101562 29.382220070512545 -162.52815217369013 27.840883985127263 -162.3524932861328 27.66522216796875 C -161.86805470066298 27.180775503136257 -161.9371221884391 26.10618645873341 -161.43756103515625 25.606616973876953 C -160.71324252409556 24.882286382787715 -159.87454001685396 24.272341098326105 -159.1502227783203 23.548011779785156 C -158.87294048886648 23.27072486587686 -158.92147827148438 24.539701753512883 -158.92147827148438 24.691680908203125 C -158.92147827148438 25.264496428250215 -158.90906669835366 28.122690200805664 -158.57838439941406 28.122690200805664 C -158.35149889818373 28.122690200805664 -157.80003448872824 27.00123725184867 -157.6634521484375 26.864652633666992 C -156.7982224583777 25.999408513492266 -156.3004935837114 25.04424145270989 -155.490478515625 24.23421287536621 C -155.12917626005208 23.872904594071883 -155.31945331048652 22.919529041183054 -154.91864013671875 22.518709182739258 C -154.88107951025702 22.481147929849477 -154.34679522642938 24.46295437695103 -154.23243713378906 24.577314376831055 C -153.7434768271113 25.066282838283772 -153.86662566731684 26.201156159672095 -153.43186950683594 26.63591957092285 C -152.85881799963204 27.2089806353567 -152.5852713551906 27.939973171397398 -152.05946350097656 28.465789794921875 C -151.92731463794865 28.597940861900135 -152.0213225276161 26.826511024199558 -151.94509887695312 26.750286102294922 C -151.106412857517 25.91158609543353 -151.52581312920645 23.814819685616463 -150.68707275390625 22.976177215576172 C -150.53179920792334 22.82092179450692 -150.29628998485614 24.0531542459035 -150.22959899902344 24.11984634399414 C -149.4671571504752 24.882300908383737 -149.6196361473373 26.55966479646752 -148.85719299316406 27.322120666503906 C -148.59102931384524 27.5882887848434 -148.99202787223737 28.674054168566254 -148.74282836914062 28.92325782775879 C -148.63892717921607 29.02716075052508 -147.88323815615945 28.178033161783684 -147.82789611816406 28.122690200805664 C -146.8090159096393 27.103792999615656 -146.54740625167156 25.469813027803585 -145.54055786132812 24.462947845458984 C -145.46433535223431 24.386724065142552 -145.25277946004016 22.920847470559384 -144.85435485839844 23.319278717041016 C -144.41594694804124 23.757693939071178 -144.8352858531102 25.053831069669823 -144.39688110351562 25.492250442504883 C -144.0269097350918 25.86223415153471 -144.1662857118757 26.752133234138963 -143.82504272460938 27.093387603759766 C -143.17696222037753 27.741489725086492 -142.8720390045406 28.732669982453537 -142.22390747070312 29.380725860595703 C -142.05611712094304 29.54849662436912 -141.17591962008478 31.0775363585316 -140.8515167236328 30.753128051757812 C -139.92652823564418 29.82812413700987 -139.87246739574653 28.05859875795493 -139.02163696289062 27.207754135131836 C -138.7509427312204 26.937055388881355 -138.94923687908522 25.99168180808678 -138.6785430908203 25.720983505249023 C -138.57371430463388 25.616152970750605 -138.44979858398438 23.433645248413086 -138.44979858398438 23.433645248413086 C -138.44979858398438 23.433645248413086 -138.26384350964102 24.19143798828421 -138.2210693359375 24.23421287536621 C -137.70642471496797 24.74886607946819 -137.5920542778027 25.66379651403451 -137.07740783691406 26.178451538085938 C -137.0107219108149 26.24513857635865 -136.96302795410156 27.66522216796875 -136.96302795410156 27.66522216796875 C -136.96302795410156 27.66522216796875 -136.4770000733618 26.921879442798932 -136.39120483398438 26.750286102294922 C -136.09012374999716 26.148113891589187 -135.62436730051556 24.839801546838576 -135.13316345214844 24.348581314086914 C -134.80819449348462 24.023601515898118 -135.24277193622052 22.742686026210176 -134.90443420410156 22.404342651367188 C -134.69256776553007 22.19247267933273 -133.84606769434123 23.148653952578687 -133.76075744628906 23.319278717041016 C -133.4188791332479 24.003052448442496 -132.76865902047402 24.768835018307588 -132.27398681640625 25.26351547241211 C -132.1405574125937 25.396947101531605 -132.29305073919127 25.81628547794805 -132.1596221923828 25.949718475341797 C -132.024363041326 26.084982138044737 -131.91542582419058 26.74256372861121 -131.47341918945312 26.52155303955078 C -130.2278721993744 25.89875877154627 -128.85267614029036 25.387530546370026 -127.92804718017578 24.462947845458984 C -127.79709170716411 24.331998924151996 -126.27445116621513 22.799902288273657 -126.21253967285156 22.8618106842041 C -126.13468758331138 22.939658878802838 -126.42163629173076 23.64273772503901 -126.44127655029297 23.662378311157227 C -127.03786253833772 24.258974248934937 -127.35620880126953 25.675325169294986 -127.35620880126953 26.750286102294922 C -127.35620880126953 27.245876312255863 -127.35620880126953 27.741466522216793 -127.35620880126953 28.237056732177734 C -127.35620880126953 28.465790430704754 -127.58494249979655 28.92325782775879 -127.35620880126953 28.92325782775879 C -127.17520041824697 28.92325782775879 -126.73754394240781 28.3045838682983 -126.67001342773438 28.237056732177734 C -126.05052590408556 27.61760020150089 -125.14316429742073 26.938910246336352 -124.49703979492188 26.292818069458008 C -124.37250399675166 26.16828850181602 -123.23899841308594 25.720983505249023 -123.23899841308594 25.720983505249023 C -123.23899841308594 25.720983505249023 -123.23899841308594 26.769512246129974 -123.23899841308594 26.864652633666992 C -123.23899841308594 27.647329410349105 -123.25667333374149 29.398387724334874 -123.69647216796875 29.838193893432617 C -124.04070682221635 30.182434288751836 -124.48742158699372 30.629137429874042 -124.84014129638672 30.981863021850586 C -124.88291567032677 31.024638109172454 -125.44466153591345 31.4066404742959 -125.41197204589844 31.4393310546875 C -125.18745915540114 31.663851433940312 -124.03815332824622 30.752421684080943 -123.81083679199219 30.638761520385742 C -122.10790950340319 29.78728367556349 -121.2179394670064 29.303921462531314 -120.03672790527344 28.122690200805664 C -119.67933500513607 27.765291340146277 -118.83394034147044 30.126037826493274 -118.66432189941406 30.29566192626953 C -117.53586691815171 31.424154547791435 -117.29192352294922 33.299499958248255 -117.29192352294922 35.44217300415039 C -117.29192352294922 35.75208188487867 -117.09470661080921 37.18919284738147 -117.29192352294922 37.386409759521484 C -117.58057133573129 37.675057572303565 -117.7493896484375 39.08191946515194 -117.7493896484375 39.559383392333984 C -117.7493896484375 39.64493210126423 -117.7493896484375 40.58868408203125 -117.7493896484375 40.58868408203125 C -117.7493896484375 40.58868408203125 -116.08373470533836 38.251506367302895 -115.69078063964844 38.644447326660156 C -115.57487747533497 38.760346625215355 -115.69078063964844 39.606000926006374 -115.69078063964844 39.788116455078125 C -115.69078063964844 40.5024685775338 -116.24994460338573 43.11746711675786 -115.69078063964844 43.67659378051758 C -115.49356893042544 43.873792334400086 -115.69078063964844 45.310935388110266 -115.69078063964844 45.62083053588867 C -115.69078063964844 47.45070139567058 -115.69078063964844 49.28057225545247 -115.69078063964844 51.110443115234375 C -115.69078063964844 51.40211794180732 -115.87639277283527 52.75469692219662 -115.69078063964844 52.94031524658203 C -115.6049114418171 53.026187308629446 -115.3856461599388 52.406437542588286 -115.34768676757812 52.36848068237305 C -114.73548619570626 51.75632094837536 -114.49267603583533 50.598512813650366 -113.86091613769531 49.966773986816406 C -112.9984482583341 49.104334873644206 -112.23455063741109 47.76860741379278 -111.34484100341797 46.878868103027344 C -110.92549741872938 46.459510530894306 -111.42108557834001 45.1252545341293 -111.00173950195312 44.705894470214844 C -110.88261450439617 44.58676549917565 -110.23185808715905 42.616603063964 -110.65863800048828 42.189823150634766 C -111.23997927893328 41.60848187218978 -110.78869496167947 39.429281703595215 -111.4592056274414 38.75881576538086 C -112.41904785458489 37.79903756613593 -112.59473873133192 35.11537052651202 -113.17471313476562 33.95540237426758 C -113.99112371293837 32.32255398608158 -115.3262237654546 30.20277592149574 -116.60572052001953 28.92325782775879 C -116.98694289582177 28.54202909401166 -116.91070161212087 27.703348935269386 -117.29192352294922 27.322120666503906 C -118.75634995022195 25.857669815841792 -119.4984623724401 23.85757230081933 -121.1803970336914 22.175609588623047 C -122.01791480177442 21.338077852598595 -123.20005918660961 20.613431377132596 -124.0395736694336 19.773902893066406 C -125.47211783101807 18.34133483981814 -128.24850932287742 18.46994967736749 -130.2153778076172 17.48656463623047 C -131.02893133488783 17.079808223643962 -132.24971204644555 17.441524680122626 -133.07455444335938 17.029096603393555 C -134.27266674165202 16.430030463317454 -135.98157526004957 17.176737262705082 -137.1917724609375 16.57162857055664 C -138.5717020908207 15.881652248530058 -140.65361538075254 16.784953145820033 -141.99517822265625 16.114160537719727 C -142.26052152782262 15.981486672467224 -143.0515504966111 16.315833008994865 -143.2532196044922 16.114160537719727 C -143.70929162116187 15.658080914778935 -145.4934336211743 15.885427474975586 -146.34112548828125 15.885427474975586 C -149.31466674804688 15.885427474975586 -152.2882080078125 15.885427474975586 -155.26174926757812 15.885427474975586 C -155.80870666602192 15.885427474975586 -158.34468909293776 15.5373617396071 -158.6927490234375 15.885427474975586 C -159.29504699756384 16.48773549409817 -161.11981009462633 16.139496685193524 -161.66629028320312 16.68599510192871 C -163.25099310240077 18.270750779792778 -165.25198596134322 19.356728683387406 -167.15589904785156 21.26067352294922 C -169.29691849432035 23.401728676880435 -169.89924448921406 26.634428180066262 -171.73057556152344 28.465789794921875 C -172.32582282654437 29.061046987348824 -172.18541876615134 30.52175104319211 -172.7598876953125 31.096229553222656 C -173.31290617633437 31.649257257367942 -172.82023568297944 33.10081048156342 -173.33172607421875 33.612300872802734 C -173.6748194191604 33.95539421774439 -173.4460906982422 35.63279794697365 -173.4460906982422 36.242740631103516 C -173.4460906982422 38.75881322224935 -173.4460906982422 41.27488581339518 -173.4460906982422 43.790958404541016 C -173.4460906982422 44.96422376159575 -173.57154018492972 46.1815569789991 -172.98861694335938 46.76449966430664 C -172.8844720025258 46.86864807895411 -172.7963050514402 47.565067291259766 -172.64552307128906 47.565067291259766" style="fill: rgb(146, 84, 56);"/>
  <circle style="fill: url(#gradient-11);" cx="-159.176" cy="105.69" r="2.012" bx:origin="-0.744 0.589"/>
  <circle style="fill: url(#gradient-13);" cx="-125.244" cy="105.359" r="2.012" bx:origin="-0.744 0.589"/>
  <polygon style="fill: rgb(216, 216, 216); stroke: rgb(0, 0, 0);" points="73.461 188.634"/>
  <polygon style="fill: rgb(239, 206, 108); stroke: rgb(239, 206, 108);" points="-178.096 36.682 -172.28 47.951 -171.553 53.04 -166.464 53.404 -166.464 44.316 -166.463 32.32 -163.192 25.413 -156.824 23.019 -152.262 22.708 -141.017 25.413 -131.64 21.582 -125.762 21.941 -121.023 26.867 -118.479 29.775 -116.661 31.229 -115.207 37.409 -114.48 43.952 -114.48 49.405 -114.117 52.677 -108.664 53.041 -107.573 47.588 -108.3 39.59 -106.119 33.047 -107.573 24.322 -110.844 11.6 -117.025 2.875 -128.294 -2.579 -142.471 -5.123 -156.648 -3.306 -166.464 3.601 -174.461 15.599 -178.459 27.957 -177.369 38.5"/>
  <polygon style="stroke: rgb(220, 186, 85); fill: rgb(220, 186, 85);" points="-142.973 13.611 -148.063 7.431 -137.884 7.067"/>
  <path d="M -156.896 17.511 C -156.144 17.135 -154.962 18.647 -153.947 18.986 C -151.137 19.922 -147.759 17.858 -146.081 17.019 C -144.9 16.428 -142.886 16.796 -142.886 15.053" style="fill: none; stroke: rgb(220, 186, 85); stroke-linecap: round;"/>
  <path d="M -142.149 15.298 C -138.802 18.53 -131.114 20.446 -127.463 16.921" style="stroke: rgb(220, 186, 85); fill: none; stroke-linecap: round;"/>
  <ellipse style="fill: rgb(220, 186, 85);" cx="73.809" cy="15.31" rx="4.947" ry="1.538" transform="matrix(0.911378, -0.411571, 0.411571, 0.911378, -228.362411, 20.56028)"/>
  <ellipse style="fill: rgb(220, 186, 85);" cx="-73.809" cy="-15.31" rx="4.947" ry="1.538" transform="matrix(0.911378, 0.411571, 0.411571, -0.911378, -57.958729, 20.092134)"/>
  <path d="M -127.784 17.039 C -124.355 17.039 -123.221 21.067 -121.232 23.056 C -120.866 23.422 -121.188 24.614 -120.965 25.061 C -120.764 25.464 -120.296 26.151 -120.296 26.532" style="fill: none; stroke: rgb(220, 186, 85); stroke-linecap: round;"/>
  <path d="M -156.933 17.172 C -159.152 17.912 -160.165 19.201 -161.613 20.649 C -162.657 21.692 -163.849 22.445 -164.555 23.858 C -164.837 24.422 -165.1 26.141 -165.491 26.532" style="fill: none; stroke: rgb(220, 186, 85); stroke-linecap: round;"/>
  <path d="M -159.771 18.822 C -159.771 20.139 -158.949 21.683 -157.999 22.158 C -157.828 22.243 -157.282 22.9 -157.165 22.783 C -156.929 22.548 -157.277 21.556 -157.165 21.22 C -156.893 20.405 -156.018 19.068 -156.018 18.301" style="fill: none; stroke: rgb(220, 186, 85); stroke-linecap: round;"/>
  <path d="M -129.514 18.239 C -129.343 18.753 -129.586 21.085 -129.514 21.157 C -129.102 21.57 -128.203 20.762 -127.951 20.636 C -127.019 20.17 -125.762 19.193 -125.762 17.926" style="fill: none; stroke: rgb(220, 186, 85);"/>
  <path d="M -150.923 19.611 C -151.265 19.954 -149.816 21.704 -149.359 22.009 C -149.136 22.157 -148.857 21.27 -148.838 21.175 C -148.67 20.334 -148.213 19.821 -148.213 18.882" style="fill: none; stroke: rgb(220, 186, 85); stroke-linecap: round;"/>
  <path d="M -147.066 18.465 C -146.52 19.283 -146.406 20.793 -145.815 21.383 C -145.531 21.668 -145.383 20.579 -145.294 20.445 C -144.938 19.91 -144.877 18.395 -144.877 17.631" style="fill: none; stroke: rgb(220, 186, 85); stroke-linecap: round;"/>
  <path d="M -143.209 17.318 C -143.209 18.446 -142.852 19.366 -142.271 20.237 C -142.21 20.328 -141.805 21.126 -141.646 20.966 C -141.516 20.837 -141.729 20.299 -141.646 20.132 C -141.264 19.369 -141.125 18.127 -141.125 17.214" style="fill: none; stroke: rgb(220, 186, 85); stroke-linecap: round;"/>
  <path d="M -139.665 18.256 C -139.665 19.143 -139.773 20.546 -139.144 21.175 C -138.493 21.826 -137.789 19.045 -137.789 18.673" style="fill: none; stroke: rgb(220, 186, 85); stroke-linecap: round;"/>
  <path d="M -137.164 18.986 C -136.845 19.623 -136.519 21.298 -136.121 21.696 C -135.692 22.125 -135.079 19.911 -135.079 19.507" style="fill: none; stroke: rgb(220, 186, 85); stroke-linecap: round;"/>
  <path d="M -153.945 20.132 C -153.945 20.545 -153.607 23.025 -153.007 22.425 C -152.737 22.155 -152.59 20.805 -152.59 20.341" style="fill: none; stroke: rgb(220, 186, 85); stroke-linecap: round;"/>
  <path style="fill: rgb(198, 164, 63);" transform="matrix(0.042888, 0.082872, -0.082872, 0.042888, -129.533386, -23.52231)" d="M 151 397 A 21.095 21.095 0 0 1 153 354.905 L 153 376 Z" bx:shape="pie 153 376 0 21.095 185.44 360 1@643ca63b"/>
  <path style="fill: rgb(198, 164, 63);" transform="matrix(-0.042888, 0.082872, 0.082872, 0.042888, -157.004654, -24.163977)" d="M 151 397 A 21.095 21.095 0 0 1 153 354.905 L 153 376 Z" bx:shape="pie 153 376 0 21.095 185.44 360 1@643ca63b"/>
  <polygon style="fill: url(#gradient-8);" points="-180.23 -3.176 -197.547 -3.991 -199.787 -6.639 -186.138 -5.824 -180.23 -5.213 -191.027 -7.25 -196.935 -9.695 -198.769 -11.732 -195.713 -12.954 -191.842 -11.325 -184.712 -8.88 -179.008 -6.028 -187.768 -10.917 -192.657 -13.973 -194.694 -17.844 -190.416 -17.436 -184.916 -12.14 -179.211 -7.861 -180.637 -12.343 -183.082 -20.085 -181.452 -23.548 -180.026 -19.881 -178.6 -12.14 -178.6 -7.047 -178.193 -16.214 -177.174 -23.752 -174.933 -21.511 -175.137 -14.992 -176.767 -8.676 -175.544 -6.232 -179.823 -3.379"/>
  <polygon style="stroke: rgb(220, 186, 85); fill: rgb(239, 206, 108);" points="-169.9 1.858 -175.805 -3.161 -179.643 -3.456 -174.771 -8.18 -174.476 -5.375 -168.277 0.972"/>
  <path d="M -156.656 -2.137 C -158.694 -2.646 -160.257 -3.675 -161.828 -4.723 C -162.933 -5.46 -164.295 -3.805 -164.989 -3.573 C -167.561 -2.716 -171.74 2.17 -173.034 4.76 C -173.837 6.366 -172.459 9.069 -173.322 10.794 C -174.01 12.171 -173.388 14.155 -173.896 15.679 C -174.184 16.541 -175.401 17.622 -174.758 18.265 C -173.932 19.091 -172.898 15.994 -172.747 15.391 C -172.381 13.929 -170.285 9.85 -168.724 9.07 C -167.483 8.449 -166.816 7.162 -165.851 6.196 C -163.898 4.244 -160.609 3.185 -159.242 0.449 C -158.79 -0.455 -156.656 -1.427 -156.656 -2.424" style="fill: rgb(239, 206, 108); stroke: rgb(220, 186, 85);"/>
  <polygon style="fill: url(#gradient-9);" points="-94.505 -24.242 -111.822 -23.427 -114.062 -20.779 -100.413 -21.594 -94.505 -22.205 -105.302 -20.168 -111.21 -17.723 -113.044 -15.686 -109.988 -14.464 -106.117 -16.093 -98.987 -18.538 -93.283 -21.39 -102.043 -16.501 -106.932 -13.445 -108.969 -9.574 -104.691 -9.982 -99.191 -15.278 -93.486 -19.557 -94.912 -15.075 -97.357 -7.333 -95.727 -3.87 -94.301 -7.537 -92.875 -15.278 -92.875 -20.371 -92.468 -11.204 -91.449 -3.666 -89.208 -5.907 -89.412 -12.426 -91.042 -18.742 -89.819 -21.186 -94.098 -24.039" transform="matrix(-1, 0, 0, -1, -203.269997, -27.908001)"/>
  <polygon style="stroke: rgb(220, 186, 85); fill: rgb(239, 206, 108);" points="-109.748 -7.886 -115.653 -2.867 -119.491 -2.572 -114.619 2.152 -114.324 -0.653 -108.125 -7" transform="matrix(-1, 0, 0, -1, -227.615997, -5.734)"/>
  <path d="M -129.933 -0.7 C -129.933 -0.7 -127.459 2.481 -127.059 2.748 C -124.415 4.511 -121.611 5.61 -119.301 7.92 C -118.895 8.326 -115.402 12.642 -114.704 11.943 C -113.512 10.752 -114.728 5.861 -115.278 4.76 C -116.775 1.766 -118.604 -4.873 -122.462 -6.159 C -127.463 -7.826 -129.933 -3.848 -129.933 0.737" style="fill: rgb(239, 206, 108); stroke: rgb(220, 186, 85);"/>
  <path d="M -162.115 -3.861 C -162.115 -12.17 -155.182 -11.869 -150.909 -7.596 C -149.365 -6.052 -153.015 -3.002 -153.208 -2.424 C -153.593 -1.269 -154.599 -0.579 -155.506 -0.125 C -157.372 0.808 -159.223 -3.286 -159.816 -3.286" style="fill: rgb(239, 206, 108); stroke: rgb(220, 186, 85);"/>
  <polygon style="fill: url(#gradient-15);" points="-141.386 -19.908 -139.925 -29.157 -134.571 -37.432 -130.19 -51.548 -131.407 -56.66 -136.275 -58.12 -138.708 -56.66 -139.439 -53.739 -141.142 -55.443 -141.629 -57.876 -142.359 -59.093 -144.306 -58.85 -148.687 -59.337 -151.121 -57.633 -151.851 -53.982 -149.174 -49.601 -147.957 -40.596 -147.47 -33.538 -146.497 -25.993 -144.793 -19.665"/>
  <rect x="-145.036" y="-19.908" width="3.651" height="13.386" style="fill: rgb(239, 206, 108); stroke: rgb(220, 186, 85);"/>
  <path d="M -152.633 -8.458 C -153.53 -12.046 -149.228 -13.549 -146.024 -12.481 C -143.373 -11.597 -142.192 -10.563 -140.852 -7.884 C -139.045 -4.27 -142.785 -3.651 -144.3 -2.137 C -147.888 1.452 -152.92 -1.941 -152.92 -7.021" style="fill: rgb(239, 206, 108); stroke: rgb(220, 186, 85);"/>
  <path d="M -142.863 -9.32 C -140.491 -10.111 -139.915 -11.656 -138.266 -12.481 C -136.161 -13.533 -132.241 -6.438 -133.956 -4.723 C -134.406 -4.272 -134.801 -3.303 -135.392 -2.711 C -135.823 -2.28 -137.547 -3.142 -137.978 -2.711 C -138.904 -1.786 -139.33 -2.052 -140.277 -2.999 C -141.117 -3.838 -142.134 -3.551 -142.863 -5.01" style="fill: rgb(239, 206, 108); stroke: rgb(220, 186, 85);"/>
  <path d="M -135.392 -8.746 C -133.785 -8.746 -132.781 -8.354 -131.369 -7.884 C -129.989 -7.423 -130.121 -7.591 -129.358 -6.447 C -128.923 -5.794 -128.235 -5.089 -127.921 -4.148 C -126.256 0.848 -136.254 0.376 -136.254 -4.723" style="fill: rgb(239, 206, 108); stroke: rgb(220, 186, 85);"/>
  <ellipse style="fill: rgb(255, 222, 223);" cx="-149.059" cy="81.628" rx="8.661" ry="7.046"/>
  <ellipse style="fill: rgb(255, 222, 223);" cx="-134.232" cy="81.627" rx="8.661" ry="7.046"/>
  <polygon style="fill: rgb(255, 255, 255);" points="-158.308 42.58 -144.509 45.222 -144.215 50.213 -155.959 49.92 -160.069 45.809"/>
  <polygon style="fill: rgb(255, 255, 255);" points="-136.287 50.213 -122.488 47.571 -122.194 42.58 -133.938 42.873 -138.048 46.984" transform="matrix(-1, 0, 0, -1, -260.242004, 92.793003)"/>
  <polygon style="fill: rgb(146, 84, 56);" points="-159.61 40.358 -145.36 43.833 -145.36 42.704 -158.046 38.968"/>
  <polygon style="fill: rgb(146, 84, 56);" points="-137.539 41.921 -123.289 38.446 -123.289 39.575 -135.975 43.311" transform="matrix(-1, 0, 0, -1, -260.828003, 81.757)"/>
  <path d="M -146.9805690765391 57.55923201009279 C -147.51809448782876 58.09677192759895 -146.98857228606593 58.93698106693894 -146.61105346679688 59.314453125 C -146.44167051990829 59.4838150913419 -145.94900863612716 59.32985908429011 -145.77963256835938 59.49921417236328 C -145.64105016187864 59.63777941339316 -145.08678100293903 59.3606391171239 -144.94821166992188 59.49921417236328 C -144.60265732681952 59.84478278513624 -145.3282054436758 60.78210926325153 -144.94821166992188 61.16205596923828 C -144.39856007935967 61.71163947743997 -143.67973024376425 62.61528699866737 -143.10060119628906 63.19441604614258 C -142.71475969581184 63.58025754661982 -141.6919017778512 63.309785267619546 -141.3453826904297 63.65631866455078 C -141.10844826619328 63.89326287299699 -139.9064706834128 63.78787717791053 -139.6825408935547 63.56393814086914 C -139.08206309443565 62.96343554501244 -138.5692085589268 62.3582479745592 -137.9273223876953 61.71633529663086 C -137.6859421634684 61.47494510460481 -138.30596640889405 60.90319333805346 -138.11207580566406 60.51539611816406 C -137.90337488338483 60.0979770369916 -136.92192921738516 60.249039507912485 -136.63400268554688 59.96111297607422 C -136.40156226997541 59.72867256050275 -136.40860047007138 59.08902161597516 -136.17210388183594 58.85255432128906 C -136.0745435448341 58.755006068556895 -135.8297705563295 58.42865625729848 -135.98733520507812 58.1135139465332 C -136.20468477050716 57.67879686476948 -137.1347913780953 57.05840115827738 -137.46542358398438 56.72780990600586 C -137.86421433343173 56.32906855260509 -137.85193376488397 55.41744319431032 -138.20445251464844 55.06496810913086 C -138.83353389832803 54.43596464634933 -139.77491760253906 51.8882684952332 -139.77491760253906 50.81548309326172" style="stroke: rgb(0, 0, 0); fill: none; stroke-linecap: round;"/>
  <path d="M -152.7879882120261 71.67822552190226 C -152.2740453379286 71.67822265625 -150.6969166264494 70.88445316667209 -150.35549926757812 70.5430679321289 C -150.0581731995356 70.24576983981729 -149.3555001926457 70.35386241538738 -149.0581817626953 70.05657196044922 C -148.73382632643535 69.7322470431426 -147.84194675511682 69.97549167699182 -147.51760864257812 69.65115356445312 C -147.40247784114283 69.53602276301783 -146.5633620161569 69.65115356445312 -146.3824462890625 69.65115356445312 C -145.2472890218099 69.65115356445312 -144.1121317545573 69.65115356445312 -142.9769744873047 69.65115356445312 C -140.3282674153646 69.65115356445312 -137.67956034342447 69.65115356445312 -135.03085327148438 69.65115356445312 C -134.60429099739773 69.65115356445312 -132.62656696761593 69.37970439468877 -132.35511779785156 69.65115356445312 C -131.7420119366976 70.2642594256071 -130.4307909256968 70.19707772664692 -129.841552734375 70.78631591796875 C -129.7658617835127 70.86200686883105 -129.43983327471724 71.35389709472656 -129.3550567626953 71.35389709472656" style="stroke: rgb(0, 0, 0); fill: none; stroke-linecap: round;"/>
  <path d="M -157.00429386793223 72.00255672620273 C -156.62369913167603 73.52516091649002 -156.19612502144633 74.51612091064453 -154.3285675048828 74.51612091064453" style="stroke: rgb(0, 0, 0); fill: none; stroke-miterlimit: 1; stroke-linecap: round;"/>
  <path d="M -128.666 74.232 C -128.286 72.709 -127.858 71.718 -125.991 71.718" style="stroke: rgb(0, 0, 0); fill: none; stroke-miterlimit: 1; stroke-linecap: round;" transform="matrix(-1, 0, 0, -1, -254.656998, 145.950005)"/>
  <g>
    <circle style="fill: rgb(49, 104, 52);" cx="-150.399" cy="46.44" r="1.929"/>
    <circle style="" cx="-150.359" cy="46.426" r="1.174"/>
  </g>
  <g transform="matrix(1, 0, 0, 1, 16.966425, 0.153811)">
    <circle style="fill: rgb(49, 104, 52);" cx="-150.399" cy="46.44" r="1.929"/>
    <circle style="" cx="-150.359" cy="46.426" r="1.174"/>
  </g>
</svg>