<?xml version="1.0" encoding="utf-8"?>
<svg viewBox="0 0 182.007 330.889" character="caesar" xmlns="http://www.w3.org/2000/svg" xmlns:bx="https://boxy-svg.com">
  <defs>
    <pattern id="pattern-0" x="0" y="0" width="25" height="25" patternUnits="userSpaceOnUse" viewBox="0 0 100 100">
      <rect x="0" y="0" width="50" height="100" style="fill: black;"/>
    </pattern>
    <linearGradient id="caesar-gradient-9" gradientUnits="userSpaceOnUse" x1="235.519" y1="178.36" x2="235.519" y2="279.139" spreadMethod="pad" gradientTransform="matrix(1, 0, 0, 1, -148.073196, -96.288033)">
      <stop offset="0" style="stop-color: rgb(242, 240, 240);"/>
      <stop offset="1" style="stop-color: rgb(188, 188, 188);"/>
    </linearGradient>
    <linearGradient id="caesar-gradient-10" gradientUnits="userSpaceOnUse" x1="222.21" y1="285.992" x2="222.21" y2="394.679" gradientTransform="matrix(1, 0, 0, 1, -148.073196, -96.288033)">
      <stop offset="0" style="stop-color: rgb(251, 177, 180);"/>
      <stop offset="1" style="stop-color: rgb(255, 222, 223);"/>
    </linearGradient>
    <linearGradient id="caesar-gradient-14" gradientUnits="userSpaceOnUse" x1="258.504" y1="280.615" x2="258.504" y2="392.227" gradientTransform="matrix(1, 0, 0, 1, -147.942453, -96.297732)">
      <stop offset="0" style="stop-color: rgb(255, 191, 193);"/>
      <stop offset="1" style="stop-color: rgb(255, 222, 223);"/>
    </linearGradient>
    <linearGradient id="caesar-gradient-4" gradientUnits="userSpaceOnUse" x1="235.997" y1="276.307" x2="235.997" y2="284.505" gradientTransform="matrix(1, 0, 0, 1, -147.52559, -95.284088)">
      <stop offset="0" style="stop-color: rgb(227, 168, 78);"/>
      <stop offset="1" style="stop-color: rgb(163, 98, 0);"/>
    </linearGradient>
    <linearGradient id="gradient-0" gradientUnits="userSpaceOnUse" x1="253.936" y1="56.565" x2="253.936" y2="65.445" gradientTransform="matrix(0.65139, 0.528492, -0.176433, 0.217462, -90.525165, -81.135115)">
      <stop offset="0" style="stop-color: rgb(255, 203, 205);"/>
      <stop offset="1" style="stop-color: rgb(255, 222, 223);"/>
    </linearGradient>
    <linearGradient id="gradient-1" gradientUnits="userSpaceOnUse" x1="305.05" y1="56.193" x2="305.05" y2="64.625" gradientTransform="matrix(0.591001, -0.595257, 0.165245, 0.164064, -83.673076, 237.338465)">
      <stop offset="0" style="stop-color: rgb(255, 182, 184);"/>
      <stop offset="1" style="stop-color: rgb(255, 222, 223);"/>
    </linearGradient>
    <linearGradient id="gradient-2" gradientUnits="userSpaceOnUse" x1="268.701" y1="32.437" x2="268.701" y2="39.783" gradientTransform="matrix(0.807844, 0.225834, -0.125336, 0.448346, -137.043911, -31.234426)">
      <stop offset="0" style="stop-color: rgb(255, 203, 205);"/>
      <stop offset="1" style="stop-color: rgb(255, 222, 223);"/>
    </linearGradient>
    <linearGradient id="gradient-3" gradientUnits="userSpaceOnUse" x1="262.484" y1="44.314" x2="262.484" y2="50.368" gradientTransform="matrix(0.780723, 0.306731, -0.193241, 0.491859, -126.018962, -47.422926)">
      <stop offset="0" style="stop-color: rgb(255, 192, 194);"/>
      <stop offset="1" style="stop-color: rgb(255, 222, 223);"/>
    </linearGradient>
    <linearGradient id="gradient-4" gradientUnits="userSpaceOnUse" x1="304.259" y1="47.625" x2="304.259" y2="52.718" gradientTransform="matrix(0.727633, -0.417329, 0.30123, 0.525208, -130.074108, 158.825586)">
      <stop offset="0" style="stop-color: rgb(255, 199, 201);"/>
      <stop offset="1" style="stop-color: rgb(255, 222, 223);"/>
    </linearGradient>
    <linearGradient id="gradient-6" gradientUnits="userSpaceOnUse" x1="279.535" y1="63.711" x2="279.535" y2="72.323" gradientTransform="matrix(0.838801, -0.005114, 0.004346, 0.712772, -149.48579, 25.310045)">
      <stop offset="0" style="stop-color: rgb(255, 198, 200);"/>
      <stop offset="1" style="stop-color: rgb(255, 222, 223);"/>
    </linearGradient>
    <linearGradient id="gradient-5" gradientUnits="userSpaceOnUse" x1="280.263" y1="75.054" x2="280.263" y2="78.634" gradientTransform="matrix(-0.838236, -0.03118, 0.035519, -0.954866, 318.27866, 162.704386)">
      <stop offset="0" style="stop-color: rgba(255, 166, 169, 1)"/>
      <stop offset="1" style="stop-color: rgb(255, 120, 124);"/>
    </linearGradient>
    <linearGradient id="gradient-7" gradientUnits="userSpaceOnUse" x1="280.747" y1="71.146" x2="280.747" y2="75.977" gradientTransform="matrix(0.838816, 0, 0, 0.838816, -149.325527, 15.400688)">
      <stop offset="0" style="stop-color: rgb(255, 233, 233);"/>
      <stop offset="1" style="stop-color: rgb(255, 149, 152);"/>
    </linearGradient>
  </defs>
  <path d="M 21.911 268.65 C 21.911 261.27 34.354 253.129 41.981 256.943 C 47.397 259.651 47.991 264.338 53.27 266.978 C 57.444 269.064 60.315 258.455 67.068 260.706 C 68.164 261.071 68.5 262.915 69.577 263.633 C 72.363 265.49 78.669 268.232 82.12 268.232 C 82.896 268.232 85.89 268.644 86.302 268.232 C 89.49 265.043 95.599 259.372 102.608 261.124 C 104.145 261.508 107.821 264.246 108.88 265.305 C 110.156 266.581 116.194 266.349 118.079 266.978 C 119.12 267.325 124.299 268.284 125.187 267.396 C 127.297 265.286 127.848 262.302 131.041 260.706 C 135.987 258.233 139.6 266.252 143.166 264.469 C 145.292 263.406 144.839 256.563 144.839 254.434 C 144.839 244.937 139.821 235.458 139.821 226.002 C 139.821 220.417 141.54 215.038 144.003 210.113 C 145.409 207.301 144.003 200.339 144.003 197.151 C 144.003 188.853 144.204 181.665 140.658 174.572 C 139.022 171.3 134.076 169.88 132.713 165.792 C 131.899 163.35 129.361 157.422 127.278 155.339 C 126.675 154.736 127.674 152.369 127.278 151.576 C 126.215 149.45 125.358 147.66 124.769 145.304 C 123.122 138.715 117.865 130.874 113.061 126.07 C 111.518 124.527 110.953 121.88 108.462 120.635 C 104.464 118.636 100.443 118.195 95.918 117.29 C 89.822 116.07 82.664 113.501 76.267 114.781 C 68.558 116.323 58.419 124.684 53.688 129.415 C 53.163 129.94 52.571 133.932 52.434 134.015 C 49.357 135.861 50.896 132.902 49.507 133.596 C 47.331 134.684 47.654 140.229 46.58 142.377 C 43.188 149.16 44.377 156.208 42.399 164.119 C 40.872 170.225 36.776 179.546 34.036 185.026 C 32.803 187.492 34.014 191.342 32.782 193.806 C 30.075 199.22 30.483 206.034 28.182 211.785 C 23.303 223.985 18.566 234.524 18.566 247.744 C 18.566 251.867 17.199 256.83 20.238 259.869 C 22.179 261.811 19.173 268.421 21.493 270.741" style="stroke: rgb(0, 0, 0); stroke-width: 0px; fill: rgb(83, 3, 3);"/>
  <path d="M 60.796 97.638 C 60.796 105.363 56.951 112.682 55.36 120.635 C 51.966 137.606 43.752 152.473 34.036 167.046 C 31.396 171.006 30.634 176.36 28.601 180.426 C 21.321 194.986 17.214 210.502 13.13 226.838 C 9.887 239.808 8.633 259.442 11.876 272.413 C 12.617 275.379 15.37 278.298 16.475 281.612 C 18.234 286.89 22.707 292.443 26.51 296.246 C 28.242 297.978 29.312 298.661 31.109 300.009 C 31.823 300.545 33.181 302.898 32.782 302.1 C 31.372 299.281 32.105 294.634 31.109 291.647 C 28.785 284.673 25.256 277.139 25.256 269.068 C 25.256 267.303 24.92 262.296 26.092 261.124 C 28.191 259.025 32.577 255.049 33.618 251.925 C 35.742 245.553 34.454 236.285 34.454 229.347 C 34.454 223.312 34.435 213.915 36.963 208.859 C 38.599 205.587 36.898 200.34 37.799 196.733 C 41.271 182.845 47.953 169.5 51.179 156.593 C 53.76 146.269 57.8 133.491 63.305 125.234 C 65.589 121.808 65.68 115.047 67.486 111.436 C 69.963 106.483 69.825 93.541 60.796 98.056" style="stroke: rgb(213, 41, 41); fill: rgb(213, 41, 41); stroke-width: 0px;"/>
  <g transform="matrix(0.975179, -0.22142, 0.22142, 0.975179, -185.192505, -50.863087)">
    <path d="M 194.062 200.77 C 191.395 204.77 190.622 208.656 189.192 212.944 C 187.677 217.489 183.299 222.798 180.671 226.741 C 176.44 233.087 173.361 239.732 168.497 244.595 C 168.042 245.05 169.582 249.215 169.714 249.871 C 170.472 253.631 172.797 254.286 176.207 252.711 C 182.533 249.788 180.5 251.835 182.7 247.436 C 188.289 236.257 195.246 221.937 200.96 210.509 C 204.076 204.277 198.605 197.038 193.25 202.393" style="fill: rgb(255, 222, 223); stroke: rgb(255, 222, 223);"/>
    <polygon style="fill: rgb(234, 180, 79); stroke: rgb(234, 180, 79);" points="170.717 239.799 183.595 248.674 172.148 264.733 162.49 258.394 170.359 239.799"/>
    <circle style="fill: rgb(255, 222, 223);" cx="164.535" cy="266.425" r="9.509"/>
  </g>
  <path d="M 50.858 91.902 C 49.702 91.324 42.983 100.336 43.96 103.265 C 45.051 106.54 50.875 108.557 53.293 110.975 C 54.056 111.738 56.8 114.699 57.757 114.221 C 58.199 114 57.757 107.978 57.757 107.322 C 57.757 101.399 56.808 91.902 50.452 91.902" style="fill: rgb(163, 33, 33); stroke: rgb(163, 33, 33);"/>
  <path d="M 117.661 99.728 C 121.222 110.413 125.92 123.354 131.041 133.596 C 133.289 138.094 134.65 144.535 135.64 149.485 C 137.945 161.009 143.854 172.529 148.184 183.353 C 149.454 186.528 148.401 192.075 149.02 195.479 C 151.637 209.871 154.037 223.902 154.037 238.545 C 154.037 255.179 154.929 270.994 149.856 286.211 C 149.114 288.439 144.825 295.417 143.166 296.246 C 142.777 296.441 141.072 299.587 140.658 299.173 C 139.708 298.224 140.239 293.898 140.239 292.483 C 140.239 288.589 140.261 280.952 142.33 277.849 C 143.264 276.448 144.007 271.583 142.748 269.904 C 138.791 264.628 136.465 261.938 133.549 256.106 C 131.426 251.859 133.131 242.543 133.131 237.709 C 133.131 222.155 135.321 204.954 133.131 189.625 C 131.737 179.864 130.162 169.481 125.187 160.774 C 122.049 155.283 117.925 150.431 115.152 144.886 C 113.59 141.762 112.731 136.193 110.553 134.015 C 109.864 133.326 109.716 127.988 109.716 126.906 C 109.716 121.331 109.716 115.756 109.716 110.182 C 109.716 108.702 109.03 104.864 109.716 103.492 C 110.719 101.487 115.988 101.542 115.988 99.31" style="stroke: rgb(0, 0, 0); fill: rgb(213, 41, 41); stroke-width: 0px;"/>
  <g transform="matrix(0.996931, 0.078277, -0.078277, 0.996931, -133.445908, -116.41497)">
    <path d="M 268.396 196.598 C 270.319 195.636 274.403 206.583 275.294 208.366 C 278.608 214.994 283.643 222.05 286.251 229.873 C 287.842 234.646 300.022 208.672 302.042 212.711 C 302.588 213.802 311.702 214.618 311.55 215.792 C 310.833 221.327 304.419 230.513 302.012 232.921 C 301.596 233.336 293.972 246.35 291.038 246.403 C 281.692 246.572 282.928 248.389 279.056 240.826 C 273.632 230.23 272.682 225.46 267.178 214.453 C 265.192 210.48 267.719 204.848 264.338 201.467" style="stroke: rgb(255, 222, 223); fill: rgb(255, 222, 223);"/>
    <polygon style="stroke: rgb(234, 180, 79); fill: rgb(234, 180, 79);" points="294.554 114.618 307.158 108.519 313.664 125.596 305.205 132.11 293.334 115.024" transform="matrix(-0.54208 -0.840327 0.840327 -0.54208 373.287 530.881)" bx:origin="1.867 2.829"/>
    <circle style="fill: rgb(255, 222, 223);" cx="314.545" cy="199.16" r="9.509"/>
    <polygon style="stroke: rgb(227, 227, 227); fill: rgb(227, 227, 227);" points="306.797 187.273 290.186 131.987 290.331 114.698 300.521 129.673 316.385 185.018"/>
    <polygon style="fill: rgb(251, 251, 251); stroke: rgb(251, 251, 251);" points="313.208 185.021 299.144 130.286 289.619 113.28 300.291 128.944 316.155 184.289" transform=""/>
    <polygon style="stroke: rgb(251, 251, 251); fill: rgb(251, 251, 251);" points="306.628 186.571 290.017 131.285 290.162 113.996 290.402 130.991 308.189 186.345" transform=""/>
  </g>
  <ellipse style="fill: rgb(130, 98, 87);" cx="316.557" cy="214.177" rx="5.242" ry="2.621" transform="matrix(0.981705, -0.190408, 0.190408, 0.981705, -183.679016, -33.271259)" bx:origin="0.446 0.174"/>
  <path d="M 110.915 113.004 C 112.378 109.347 111.764 103.006 113.756 100.018 C 115.239 97.794 114.883 94.112 116.191 91.497 C 117.786 88.305 124.165 97.036 124.712 97.583 C 125.309 98.18 120.995 101.772 120.654 102.453 C 119.175 105.412 114.998 112.192 111.321 112.192" style="stroke: rgb(163, 33, 33); fill: rgb(163, 33, 33);"/>
  <path d="M 47.061 311.833 C 45.068 311.833 43.883 315.253 44.373 317.209 C 45.149 320.315 47.957 321.434 50.902 321.434 C 52.895 321.434 59.288 322.025 60.863 320.946 C 63.407 319.202 64.893 317.043 67.296 315.841 C 72.395 313.292 74.034 311.773 78.553 308.76 C 79.971 307.815 83.184 301.349 80.962 299.127 C 79.508 297.673 80.628 297.393 79.322 296.087 C 78.396 295.161 73.752 295.318 72.025 295.318 C 63.671 295.318 56.634 304.387 52.438 310.681 C 51.877 311.522 47.445 312.864 47.445 312.985" style="stroke: rgb(154, 58, 10); fill: rgb(154, 58, 10);"/>
  <polygon style="stroke: rgb(255, 222, 223); fill: url(#caesar-gradient-10); stroke-width: 0px;" points="77.401 298.391 63.191 296.471 60.119 189.704 88.155 191.24"/>
  <path d="M 58.686 179.462 C 56.655 180.477 56.773 185.579 55.82 187.486 C 54.025 191.077 51.522 194.219 50.089 197.802 C 48.855 200.886 48.383 204.364 46.936 207.259 C 46.557 208.018 50.732 210.233 51.521 209.838 C 53.612 208.792 53.429 204.046 54.674 202.387 C 58.17 197.726 60.433 191.957 61.838 186.34 C 62.068 185.418 64.194 180.958 63.557 180.322 C 61.682 178.446 59.839 180.895 58.399 180.895" style="fill: rgb(164, 23, 23); stroke: rgb(103, 13, 13);"/>
  <path d="M 52.098 209.695 C 53.231 209.695 58.469 212.633 58.686 212.417 C 59.377 211.725 59.615 208.267 60.119 207.259 C 63.271 200.955 65.446 193.452 68.429 187.486 C 68.759 186.826 69.688 182.154 69.002 181.468 C 68.451 180.917 66.289 181.831 65.563 181.468 C 65.298 181.336 63.432 180.161 63.271 180.322 C 61.64 181.953 62.75 187.147 60.978 188.919 C 60.056 189.84 60.234 192.529 59.259 193.504 C 57.109 195.654 57.138 198.605 55.82 201.241 C 54.597 203.687 52.526 205.502 52.526 209.123" style="fill: rgb(164, 23, 23); stroke: rgb(103, 13, 13);"/>
  <path d="M 59.259 211.557 C 60.397 211.936 61.597 211.764 62.697 212.13 C 63.155 212.283 65.227 213.375 65.277 213.277 C 66.302 211.226 65.407 209.158 66.136 206.972 C 68.121 201.017 69.452 194.733 71.294 189.205 C 71.743 187.86 71.694 180.782 68.715 183.76 C 68.347 184.128 68.89 185.814 68.715 186.34 C 67.884 188.833 67.116 191.831 65.85 194.363 C 64.795 196.473 64.942 199.044 63.844 201.241 C 62.526 203.877 58.686 208.525 58.686 211.271" style="fill: rgb(164, 23, 23); stroke: rgb(103, 13, 13);"/>
  <path d="M 77.599 186.34 C 77.923 186.015 82.473 184.91 82.757 185.193 C 83.396 185.832 82.757 190.624 82.757 191.498 C 82.757 196.599 83.044 201.366 83.044 206.399 C 83.044 207.802 83.685 211.134 83.044 212.417 C 82.683 213.137 75.001 212.971 74.447 212.417 C 73.885 211.856 73.777 210.887 73.587 210.124 C 71.5 201.776 77.599 194.313 77.599 186.34" style="fill: rgb(164, 23, 23); stroke: rgb(103, 13, 13);"/>
  <polygon style="stroke: rgb(255, 222, 223); stroke-width: 0px; fill: url(#caesar-gradient-14);" points="112.613 295.929 97.203 294.859 96.543 184.317 124.58 185.853" transform="matrix(0.989053, -0.147562, 0.147562, 0.989053, -34.222681, 18.943342)"/>
  <path d="M 82.757 212.99 C 83.52 212.228 87.866 213.376 88.202 212.703 C 91.206 206.695 88.202 197.415 88.202 191.211 C 88.202 188.924 87.593 184.638 84.19 186.34 C 82.647 187.111 83.33 191.149 83.33 192.931 C 83.33 198.203 83.044 203.369 83.044 208.692 C 83.044 210.436 82.987 211.506 84.046 212.565" style="fill: rgb(164, 23, 23); stroke: rgb(103, 13, 13);"/>
  <path d="M 70.148 182.614 C 72.077 183.096 76.918 184.977 77.599 186.34 C 77.707 186.556 76.453 189.408 76.453 190.351 C 76.453 196.192 75.661 202.183 73.874 207.545 C 73.563 208.476 74.335 212.481 73.299 212.998 C 72.452 213.422 66.361 213.326 65.418 212.855 C 64.014 212.153 65.563 212.859 65.563 212.13 C 65.563 208.103 65.255 202.144 66.996 198.662 C 69.344 193.966 70.721 189.355 70.721 183.187" style="fill: rgb(164, 23, 23); stroke: rgb(103, 13, 13);"/>
  <path d="M 95.366 211.844 C 98.486 211.844 98.199 212.004 99.664 211.271 C 100.041 211.083 99.378 206.87 99.378 206.686 C 99.378 203.305 98.467 199.319 97.658 196.083 C 97.289 194.603 98.329 192.265 97.658 190.925 C 96.938 189.483 96.664 184.831 93.647 186.34 C 92.755 186.786 93.073 190.261 93.073 191.211 C 93.073 196.401 92.787 201.292 92.787 206.399 C 92.787 208.119 93.046 210.937 93.787 212.42 C 94.047 212.94 95.506 212.286 95.506 211.705" style="fill: rgb(164, 23, 23); stroke: rgb(103, 13, 13);"/>
  <path d="M 100.237 211.271 C 101.113 211.021 105.746 210.633 106.255 210.124 C 107.079 209.301 104.536 205.556 104.536 204.393 C 104.536 202.862 103.595 199.072 102.816 197.516 C 100.768 193.419 103.209 187.878 99.951 184.62 C 98.619 183.288 96.796 185.769 96.512 186.053 C 94.612 187.953 96.117 194.039 97.085 196.942 C 97.416 197.935 96.891 199.421 97.372 200.381 C 99.058 203.754 99.091 208.344 99.091 212.417" style="fill: rgb(164, 23, 23); stroke: rgb(103, 13, 13);"/>
  <path d="M 105.396 184.907 C 106.581 184.907 108.521 182.888 109.121 183.187 C 110.079 183.666 111.11 188.278 111.413 189.492 C 112.706 194.661 114.897 199.944 116.572 204.966 C 117.023 206.322 118.87 208.967 118.004 210.697 C 117.72 211.266 111.308 210.306 110.84 209.838 C 109.574 208.572 110.359 203.626 109.121 202.387 C 107.62 200.886 107.115 196.765 107.115 194.65 C 107.115 193.871 107.551 191.292 107.115 190.638 C 105.998 188.963 105.507 186.562 104.536 184.62" style="fill: rgb(164, 23, 23); stroke: rgb(103, 13, 13);"/>
  <path d="M 109.407 183.187 C 109.958 182.637 111.031 180.13 111.986 180.608 C 112.763 180.996 113.086 185.72 113.992 186.626 C 118.234 190.868 119.802 196.525 122.303 201.527 C 123.168 203.258 122.749 205.221 123.449 206.972 C 123.719 207.648 124.823 208.464 124.309 208.978 C 123.483 209.804 118.529 210.649 117.431 209.551 C 116.782 208.902 116.992 207.24 116.572 206.399 C 113.614 200.485 111.866 194.003 109.694 187.486 C 109.188 185.968 110.057 183.264 108.834 182.041" style="fill: rgb(164, 23, 23); stroke: rgb(103, 13, 13);"/>
  <path d="M 115.712 180.035 C 118.843 181.079 118.708 183.604 120.584 185.48 C 125.736 190.632 126.714 195.562 128.894 202.101 C 129.307 203.341 131.76 205.698 131.76 206.972 C 131.76 207.034 124.714 208.78 124.454 208.259 C 123.053 205.457 123.39 200.866 121.73 198.375 C 120.643 196.744 118.95 194.449 117.431 192.931 C 116.48 191.979 117.441 189.788 116.572 188.919 C 115.873 188.22 114.161 186.675 113.706 185.766 C 113.283 184.92 111.27 180.035 113.133 180.035" style="fill: rgb(164, 23, 23); stroke: rgb(103, 13, 13);"/>
  <path d="M 88.205 212.989 C 89.089 211.221 93.672 213.251 94.793 212.13 C 95.229 211.694 94.277 207.087 93.933 206.399 C 93.396 205.324 93.933 202.486 93.933 201.241 C 93.933 196.95 94.63 192.031 92.787 188.346 C 92.515 187.802 93.2 186.18 92.787 185.766 C 92.181 185.16 88.873 185.856 88.488 186.626 C 87.975 187.653 88.488 190.352 88.488 191.498 C 88.488 194.094 86.949 198.055 87.915 200.954 C 88.811 203.641 90.327 210.012 87.633 212.706" style="fill: rgb(164, 23, 23); stroke: rgb(103, 13, 13);"/>
  <path d="M 107.115 210.124 C 108.257 209.554 109.795 210.36 110.84 209.838 C 111.508 209.504 110.328 208.271 110.267 208.118 C 109.393 205.932 108.775 203.069 107.975 200.668 C 106.625 196.619 107.661 187.745 104.822 184.907 C 104.686 184.771 101.796 184.781 101.67 184.907 C 100.394 186.182 102.243 192.575 102.243 194.077 C 102.243 196.489 102.246 198.674 102.816 200.954 C 103.69 204.45 106.255 207.2 106.255 210.984" style="fill: rgb(164, 23, 23); stroke: rgb(103, 13, 13);"/>
  <path d="M 58.163 171.844 C 58.163 172.554 57.666 180.117 58.163 180.365 C 61.124 181.846 63.858 183.01 66.684 184.424 C 68.632 185.398 70.417 185.478 74.394 185.64 C 76.944 185.744 80.201 185.953 82.916 186.858 C 86.27 187.976 90.839 186.047 94.278 186.047 C 100.038 186.047 109.066 184.169 112.945 181.582 C 117.062 178.838 115.379 179.889 115.379 174.278 C 115.379 173.632 115.791 170.632 115.379 170.22 C 114.904 169.745 112.152 170.343 111.727 170.626 C 108.641 172.683 105.385 174.139 101.582 175.09 C 96.101 176.46 89.406 174.551 84.945 177.525 C 80.214 180.679 72.258 171.537 68.307 170.22 C 65.642 169.332 58.974 170.441 58.974 173.061" style="fill: rgb(163, 82, 60); stroke: rgb(163, 82, 60);"/>
  <path d="M 62.626 90.279 C 60.852 95.603 60.517 105.78 56.945 109.351 C 55.872 110.424 56.945 118.904 56.945 120.308 C 56.945 131.264 56.945 142.221 56.945 153.177 C 56.945 159.312 56.562 165.464 57.757 171.438 C 58.115 173.23 66.152 178.623 67.902 179.148 C 81.09 183.105 83.774 183.325 96.307 182.394 C 102.467 181.936 103.171 181.6 108.886 178.742 C 111.951 177.21 112.226 174.519 115.252 171.493 C 117.139 169.607 117.378 158.812 117.17 156.21 C 116.335 145.774 116.401 146.14 116.358 133.461 C 116.343 129.179 118.08 123.401 117.003 119.091 C 114.025 107.18 120.647 95.854 110.51 88.25 C 108.238 86.547 104.265 82.834 101.582 82.164 C 99.168 81.56 91.7 84.144 89.409 83.38 C 82.022 80.918 63.438 82.101 63.438 93.12" style="stroke: rgb(229, 229, 229); fill: url(#caesar-gradient-9); paint-order: stroke markers; stroke-width: 0px;"/>
  <path d="M 107.909 86.627 C 110.925 86.627 112.091 85.802 114.568 86.627 C 126.863 90.725 117.937 103.141 112.133 108.946 C 107.055 114.024 98.545 105.282 101.582 99.207 C 103.751 94.869 105.83 91.455 108.109 86.636" style="fill: rgb(202, 51, 51); stroke: rgb(202, 51, 51);"/>
  <path d="M 174.732 70.24" style="fill: rgb(216, 216, 216); stroke: rgb(186, 218, 85);"/>
  <path d="M 60.192 108.54 C 58.298 102.858 53.405 102.678 50.858 97.583 C 50.406 96.678 49.072 94.256 48.423 93.931 C 47.145 93.292 47.557 90.746 47.252 89.216 C 47.071 88.315 48.315 86.528 49.235 86.221 C 52.454 85.148 56.288 85.914 59.209 84.94 C 60.27 84.586 61.625 85.608 62.752 86.735 C 63.994 87.977 63.767 88.555 64.718 89.982 C 69.756 97.538 76.188 115.726 60.191 107.728" style="fill: rgb(202, 51, 51); stroke: rgb(202, 51, 51);"/>
  <polygon style="fill: rgb(216, 216, 216); stroke: rgb(0, 0, 0);" points="-79.093 200.342"/>
  <path d="M 63.191 293.782 C 59.439 301.286 53.561 303.796 48.213 309.144 C 46.074 311.284 45.466 315.614 47.445 317.593 C 48.669 318.817 57.842 319.884 60.119 318.746 C 62.07 317.77 63.853 315.779 65.495 314.137 C 67.26 312.373 70.699 310.994 72.792 310.297 C 76.184 309.166 78.56 305.681 80.858 303.384 C 82.98 301.261 78.839 293.782 77.785 293.782" style="stroke: rgb(255, 222, 223); fill: rgb(255, 222, 223);"/>
  <path d="M 104.552 303.751 C 103.157 306.543 105.61 308.21 106.953 309.553 C 107.989 310.588 110.917 311.529 112.154 312.353 C 113.754 313.42 117.435 313.234 118.555 314.353 C 118.855 314.653 121.982 314.767 122.355 314.953 C 124.889 316.221 126.034 315.954 128.957 315.954 C 131.126 315.954 134.814 317.819 135.758 315.154 C 137.623 309.888 132.101 304.734 128.846 301.479 C 128.179 300.812 128.087 299.816 127.157 299.351 C 119.738 295.642 110.397 301.93 105.152 304.552" style="stroke: rgb(154, 58, 10); fill: rgb(154, 58, 10);"/>
  <path d="M 106.205 294.934 C 104.504 295.785 104.277 304.527 105.821 306.072 C 111.143 311.393 118.015 311.033 125.024 313.369 C 127.815 314.299 133.725 315.037 135.777 312.985 C 137.038 311.724 134.28 306.339 133.713 305.207 C 132.52 302.819 131.022 302.489 129.058 300.525 C 127.028 298.494 124.682 296.897 123.104 295.318 C 121.101 293.315 111.243 292.8 108.51 294.166 C 108.013 294.415 107.619 296.331 107.357 296.855" style="fill: rgb(255, 222, 223); stroke: rgb(255, 222, 223);"/>
  <path d="M 44.957 313.247 C 48.874 309.331 57.947 312.006 60.61 315.557 C 61.138 316.26 62.294 317.306 62.294 318.949" style="stroke: rgb(154, 58, 10); fill: none;"/>
  <path d="M 47.954 308.015 C 49.542 307.618 50.108 306.527 51.803 305.962 C 57.366 304.108 67.939 307.999 67.939 313.817" style="stroke: rgb(154, 58, 10); fill: none;"/>
  <path d="M 54.839 302.783 C 58.524 302.256 63.197 299.41 67.156 300.73 C 69.835 301.623 73.563 304.813 75.638 306.888 C 76.332 307.583 76.057 309.104 76.921 309.968" style="fill: none; stroke: rgb(154, 58, 10);"/>
  <path d="M 125.485 314.617 C 125.485 310.988 128.133 309.067 130.234 306.966 C 130.876 306.324 133.985 305.688 134.768 306.166" style="stroke: rgb(154, 58, 10); fill: none;"/>
  <path d="M 114.933 312.506 C 119.381 308.058 123.012 300.742 129.962 300.742" style="stroke: rgb(154, 58, 10); fill: none;"/>
  <path d="M 109.103 309.704 C 111.306 306.032 114.111 300.938 117.557 299.214 C 118.814 298.586 120.622 298.465 121.941 297.805 C 122.733 297.409 124.834 297.335 125.542 297.335" style="stroke: rgb(154, 58, 10); fill: none;"/>
  <line style="stroke: rgb(154, 58, 10); fill: none;" x1="62.605" y1="294.987" x2="78.418" y2="287.472"/>
  <line style="stroke: rgb(154, 58, 10); fill: none;" x1="78.574" y1="294.048" x2="62.918" y2="288.568"/>
  <line style="stroke: rgb(154, 58, 10); fill: none;" x1="62.449" y1="288.098" x2="79.514" y2="280.114"/>
  <line style="stroke: rgb(154, 58, 10); fill: none;" x1="78.261" y1="287.472" x2="61.979" y2="280.584"/>
  <line style="stroke: rgb(154, 58, 10); fill: none;" x1="61.979" y1="280.584" x2="80.609" y2="272.286"/>
  <line style="stroke: rgb(154, 58, 10); fill: none;" x1="79.67" y1="280.114" x2="61.822" y2="271.973"/>
  <line style="stroke: rgb(154, 58, 10); fill: none;" x1="61.822" y1="271.973" x2="81.079" y2="264.458"/>
  <line style="stroke: rgb(154, 58, 10); fill: none;" x1="81.236" y1="272.286" x2="61.353" y2="263.362"/>
  <line style="stroke: rgb(154, 58, 10); fill: none;" x1="61.666" y1="263.206" x2="80.923" y2="264.302"/>
  <path d="M 62.136 295.613 C 63.43 294.643 64.805 294.868 66.206 294.517 C 72.878 292.849 78.406 296.071 82.488 300.153" style="stroke: rgb(154, 58, 10); fill: none;"/>
  <path d="M 105.317 296.929 C 105.1 296.398 108.495 295.204 110.175 294.5 C 111.482 293.952 113.122 293.981 114.512 293.286 C 115.394 292.845 117.898 293.373 118.677 293.633 C 120.352 294.191 121.214 293.286 122.841 294.327" style="stroke: rgb(154, 58, 10); fill: none;"/>
  <line style="stroke: rgb(154, 58, 10);" x1="105.143" y1="295.715" x2="120.932" y2="286.172"/>
  <line style="stroke: rgb(154, 58, 10);" x1="121.626" y1="293.459" x2="103.928" y2="288.254"/>
  <line style="stroke: rgb(154, 58, 10);" x1="103.928" y1="288.254" x2="120.412" y2="280.099"/>
  <line style="stroke: rgb(154, 58, 10);" x1="120.759" y1="286.172" x2="102.54" y2="281.14"/>
  <line style="stroke: rgb(154, 58, 10);" x1="102.714" y1="280.967" x2="120.065" y2="273.679"/>
  <line style="stroke: rgb(154, 58, 10);" x1="120.585" y1="279.926" x2="100.979" y2="273.506"/>
  <line style="stroke: rgb(154, 58, 10);" x1="100.979" y1="273.506" x2="119.718" y2="265.524"/>
  <line style="stroke: rgb(154, 58, 10);" x1="120.412" y1="273.853" x2="100.285" y2="266.045"/>
  <line style="stroke: rgb(154, 58, 10);" x1="100.285" y1="266.218" x2="119.891" y2="265.351"/>
  <path d="M 106.135 253.085 C 106.135 252.625 108.008 252.832 108.417 252.832 C 109.668 252.832 113.236 252.375 113.236 250.803" style="stroke: rgb(0, 0, 0); fill: none;"/>
  <path d="M 65.813 252.578 C 67.103 253.868 71.398 254.348 72.914 252.832" style="stroke: rgb(0, 0, 0); fill: none;"/>
  <path style="fill: rgb(130, 98, 87);" transform="matrix(-0.041414, -0.246173, 0.246173, -0.041414, 78.904312, 311.200439)" d="M 804 511 A 36.014 36.014 0 0 1 805 438.986 L 805 475 Z" bx:shape="pie 805 475 0 36.014 181.591 360 1@99920fa8"/>
  <ellipse style="stroke-width: 0px; fill: url(#caesar-gradient-4);" cx="88.472" cy="185.122" rx="7.068" ry="4.099"/>
  <polygon style="fill: rgb(216, 216, 216); stroke: rgb(0, 0, 0);" points="546.826 -107.795"/>
  <polygon style="fill: rgb(255, 222, 223);" points="60.425 37.605 58.426 40.715 56.205 48.711 56.342 62.513 58.795 62.831 62.369 75.552 63.535 82.471 69.088 88.912 77.306 94.021 88.855 94.909 102.625 89.578 106.397 81.345 109.484 62.5 112.973 61.603 114.397 46.045 107.29 32.053 97.961 25.389 81.081 23.613 66.644 27.833"/>
  <polygon style="fill: url(#gradient-6); fill-opacity: 0.89;" points="76.356 76.067 81.858 75.244 85.601 75.019 89.157 74.719 92.564 74.569 93.949 74.458 92.488 72.773 91.665 70.677 91.59 69.367 87.173 68.955 84.291 68.843 81.821 69.442 80.248 70.49"/>
  <polyline style="fill: url(#gradient-0);" points="68.717 70.297 67.478 67.269 65.138 65.066 60.87 63.414 60.301 63.258 59.832 63.058 58.643 62.848"/>
  <polyline style="fill: url(#gradient-1);" points="104.438 69.842 104.327 67.594 105.806 64.979 107.67 63.217 108.619 62.759 109.369 62.536"/>
  <polygon style="fill: url(#gradient-2);" points="68.47 44.664 83.661 48.771 80.793 45.939 77.854 43.531 72.861 42.61 71.02 42.645"/>
  <polygon style="fill: rgb(239, 239, 239);" points="84.914 50.084 83.812 48.295 83.399 47.744 80.921 45.128 77.755 42.788 72.386 41.412 69.771 41.412 66.742 42.513 66.466 42.513 68.118 45.404 70.183 43.752 72.661 43.201 75.415 43.477 78.856 44.853 81.61 47.331 82.297 48.02"/>
  <polygon style="fill: rgb(239, 239, 239);" points="88.127 49.647 92.67 48.683 99.416 48.271 104.922 48.271 106.161 48.271 110.154 48.959 109.19 46.757 104.234 46.619 99.416 47.032 93.909 47.858 91.019 48.546"/>
  <polygon style="fill: rgb(255, 255, 255);" points="84.386 51.993 83.114 51.056 80.569 50.251 77.599 49.849 73.357 49.983 71.13 50.921 72.508 51.993 74.418 52.395 77.599 52.529 81.311 52.664 83.75 52.664"/>
  <polygon style="fill: rgb(255, 255, 255);" points="89.501 51.025 96.492 50.53 100.849 50.53 104.091 51.167 104.699 52.088 103.584 53.08 100.545 53.575 95.681 53.504 90.92 52.796 89.298 51.592"/>
  <path d="M 72.86 38.285 C 79.62 38.285 84.004 41.767 87.312 45.074 C 88.103 45.864 90.711 45.731 92.203 45.731 C 96.628 45.731 100.223 45.147 104.319 45.147" style="fill: none; stroke-linecap: round; stroke: rgb(223, 147, 149);"/>
  <path d="M 76.218 36.096 C 83.535 36.096 86.406 39.13 89.94 42.665 C 90.423 43.148 92.189 43.103 93.079 43.103 C 95.755 43.103 98.431 43.103 101.108 43.103" style="fill: none; stroke-linecap: round; stroke: rgb(223, 147, 149);"/>
  <path d="M 81.911 35.293 C 87.246 35.293 88.943 37.653 91.472 40.184 C 92.832 41.543 97.375 40.986 99.793 40.986" style="fill: none; stroke-linecap: round; stroke: rgb(223, 147, 149);"/>
  <path d="M 87.751 51.789 C 87.751 56.895 90.624 56.78 93.444 59.599 C 94.282 60.438 94.808 61.548 95.561 62.3 C 95.822 62.561 96.067 63.845 96.131 65.091 C 96.187 66.174 96.107 67.228 95.78 67.555 C 95.188 68.146 93.881 69.161 93.881 69.161 C 93.509 69.534 91.453 69.307 90.816 69.307 C 88.282 69.307 85.077 68.016 82.933 69.088 C 82.269 69.42 79.54 71.024 78.846 70.329 C 78.628 70.111 75.856 67.552 76.947 66.46 C 77.082 66.326 77.385 65.877 77.385 65.658" style="fill: none; stroke-linecap: round; stroke: rgb(223, 147, 149);"/>
  <path d="M 91.393 69.519 C 92.002 70.735 92.232 72.748 93.083 73.599 C 93.258 73.774 97.547 76.147 97.547 76.306" style="fill: none; stroke-linecap: round; stroke: rgb(223, 147, 149);"/>
  <path d="M 80.522 70.267 C 80.236 71.414 76.182 76.733 75.11 76.733" style="stroke-linecap: round; fill: none; stroke: rgb(223, 147, 149);"/>
  <polygon style="fill: url(#gradient-3);" points="67.221 52.572 67.008 53.609 67.062 55.125 67.46 55.922 68.019 56.561 68.657 57.145 70.359 57.571 71.395 57.65 72.618 57.332 73.47 56.933 74.161 56.588 74.693 55.896 72.699 55.737 71.476 55.577 70.545 55.204 69.8 55.019 68.79 54.433 68.099 53.849 67.913 53.689"/>
  <path d="M 74.977 55.828 C 73.919 55.828 69.549 55.094 68.774 54.319 C 68.582 54.127 67.554 52.392 67.349 52.392" style="fill: none; stroke-linecap: round; stroke: rgb(223, 147, 149);"/>
  <polygon style="fill: url(#gradient-4);" points="103.315 58.401 104.467 59.419 105.858 59.622 107.248 59.215 108.062 58.605 108.468 57.045 107.859 55.756 107.044 55.349 106.803 56.093 106.385 56.588 106.045 57.059 105.34 57.686 104.556 58.13 104.086 58.286"/>
  <path d="M 103.309 58.175 C 104.74 58.175 106.829 56.666 106.829 55.073" style="fill: none; stroke-linecap: round; stroke: rgb(223, 147, 149);"/>
  <polygon style="fill: url(#gradient-5);" points="78.378 78.825 81.044 80.345 84.816 81.36 88.085 81.248 89.678 80.458 92.025 79.443 93.149 78.357"/>
  <polygon style="fill: url(#gradient-7);" points="72.894 78.724 75.9 78.32 79.251 77.982 81.264 77.511 82.605 76.7 84.121 75.482 85.372 76.12 86.461 76.12 87.215 75.89 87.886 75.079 88.724 76.353 89.228 76.816 91.993 77.163 94.844 77.279 97.301 77.844 99.444 78.335 91.575 79.016 86.629 79.016 84.282 79.132 81.18 79.132 78.498 79.132 76.905 79.132"/>
  <path d="M 85.732 92.412 C 86.213 90.488 85.912 87.969 85.912 85.867" style="fill: rgb(216, 216, 216); stroke-linecap: round; stroke: rgb(223, 147, 149);"/>
  <path d="M 85.629 48.328 C 85.628 48.475 85.607 50.893 85.686 50.972 C 85.743 51.029 86.59 51.448 86.778 51.259 C 87.069 50.967 87.185 50.449 87.468 50.167 C 87.616 50.018 87.537 48.501 87.41 48.501" style="fill: none; stroke: rgb(255, 194, 196); stroke-linecap: round;"/>
  <circle style="fill: rgb(3, 45, 113);" cx="78.18" cy="50.988" r="0.999"/>
  <circle style="fill: rgb(3, 45, 113);" cx="97.213" cy="51.706" r="0.999"/>
  <polygon style="fill: rgb(255, 222, 223);" points="56.798 53.957 55.474 52.633 53.447 50.996 51.655 50.295 50.097 50.217 49.395 55.75 50.408 58.321 53.37 61.282 56.409 62.53 58.201 62.607"/>
  <polygon style="fill: rgb(255, 222, 223);" points="119.103 57.814 117.778 59.138 115.752 60.775 113.96 61.476 112.402 61.554 111.7 56.021 112.713 53.45 115.675 50.489 118.714 49.241 120.505 49.164" transform="matrix(-1, 0, 0, -1, 232.204994, 110.718002)"/>
  <path d="M 57.119 56.182 C 56.115 55.681 55.572 54.437 54.83 53.694 C 54.059 52.924 52.915 52.526 52.143 51.754 C 51.91 51.521 51.213 52.237 51.148 52.302 C 50.644 52.806 50.229 55.811 50.949 56.531 C 51.347 56.929 51.197 57.874 51.596 58.273 C 52.967 59.643 54.445 60.959 57.119 60.959" style="fill: none; stroke: rgb(223, 147, 149);"/>
  <path d="M 54.382 56.282 C 53.4 55.301 52.838 53.944 51.098 53.944" style="fill: none; stroke: rgb(223, 147, 149);"/>
  <path d="M 112.548 54.193 C 113.09 53.922 114.251 54.181 114.638 53.794 C 115.488 52.945 116.235 52.397 117.076 51.555 C 117.222 51.41 118.439 49.784 118.767 50.113 C 119.041 50.386 118.743 51.232 119.017 51.505 C 119.345 51.835 119.613 53.446 119.315 54.043 C 118.462 55.749 118.006 56.746 116.827 57.924 C 116.117 58.634 115.03 58.975 114.29 59.715 C 114.115 59.89 113.418 59.541 113.245 59.715 C 112.913 60.047 112.2 60.013 111.851 60.362 C 111.769 60.444 111.205 60.324 111.205 60.462" style="fill: none; stroke: rgb(223, 147, 149);"/>
  <path d="M 116.13 55.884 C 116.987 55.37 119.315 53.776 119.315 52.799" style="fill: none; stroke: rgb(223, 147, 149);"/>
  <ellipse style="fill: rgb(216, 216, 216);" cx="56.969" cy="50.431" rx="2.918" ry="2.918"/>
  <circle style="fill: rgb(216, 216, 216);" cx="56.904" cy="45.567" r="3.193"/>
  <circle style="fill: rgb(216, 216, 216);" cx="59.498" cy="47.578" r="3.148"/>
  <circle style="fill: rgb(224, 224, 224);" cx="55.736" cy="39.536" r="3.396"/>
  <circle style="fill: rgb(224, 224, 224);" cx="57.876" cy="40.055" r="3.017"/>
  <circle style="fill: rgb(224, 224, 224);" cx="59.563" cy="41.677" r="3.076"/>
  <circle style="fill: rgb(224, 224, 224);" cx="61.832" cy="36.359" r="3.853"/>
  <circle style="fill: rgb(224, 224, 224);" cx="57.747" cy="34.803" r="2.843"/>
  <circle style="fill: rgb(235, 235, 235);" cx="60.794" cy="31.495" r="2.666"/>
  <circle style="fill: rgb(235, 235, 235);" cx="63.323" cy="30.911" r="3.061"/>
  <circle style="fill: rgb(224, 224, 224);" cx="60.794" cy="43.103" r="3.114"/>
  <circle style="fill: rgb(224, 224, 224);" cx="62.61" cy="39.796" r="1.658"/>
  <circle style="fill: rgb(216, 216, 216);" cx="59.174" cy="51.339" r="2.391"/>
  <circle style="fill: rgb(216, 216, 216);" cx="58.006" cy="53.09" r="2.015"/>
  <circle style="fill: rgb(235, 235, 235);" cx="64.167" cy="33.311" r="2.64"/>
  <circle style="fill: rgb(235, 235, 235);" cx="65.593" cy="28.577" r="2.583"/>
  <circle style="fill: rgb(216, 216, 216);" cx="114.489" cy="49.199" r="2.343"/>
  <circle style="fill: rgb(216, 216, 216);" cx="112.025" cy="50.95" r="2.428"/>
  <circle style="fill: rgb(216, 216, 216);" cx="112.22" cy="46.086" r="2.117"/>
  <circle style="fill: rgb(216, 216, 216);" cx="114.23" cy="45.308" r="2.662"/>
  <circle style="fill: rgb(224, 224, 224);" cx="111.312" cy="42.844" r="1.976"/>
  <circle style="fill: rgb(224, 224, 224);" cx="112.284" cy="40.574" r="2.035"/>
  <circle style="fill: rgb(224, 224, 224);" cx="114.1" cy="41.806" r="2.401"/>
  <circle style="fill: rgb(224, 224, 224);" cx="108.978" cy="37.85" r="2.61"/>
  <circle style="fill: rgb(224, 224, 224);" cx="111.571" cy="37.332" r="2.412"/>
  <circle style="fill: rgb(216, 216, 216);" cx="114.1" cy="38.11" r="1.514"/>
  <circle style="fill: rgb(235, 235, 235);" cx="108.135" cy="34.608" r="2.141"/>
  <circle style="fill: rgb(235, 235, 235);" cx="110.274" cy="34.154" r="2.168"/>
  <circle style="fill: rgb(235, 235, 235);" cx="107.485" cy="31.495" r="2.117"/>
  <circle style="fill: rgb(235, 235, 235);" cx="112.35" cy="34.608" r="2.168"/>
  <circle style="fill: rgb(235, 235, 235);" cx="105.022" cy="30.458" r="1.835"/>
  <circle style="fill: rgb(235, 235, 235);" cx="102.363" cy="28.382" r="1.885"/>
  <circle style="fill: rgb(235, 235, 235);" cx="104.633" cy="28.318" r="2.27"/>
  <circle style="fill: rgb(235, 235, 235);" cx="107.291" cy="28.707" r="2.076"/>
  <circle style="fill: rgb(235, 235, 235);" cx="110.014" cy="30.976" r="2.309"/>
  <circle style="fill: rgb(235, 235, 235);" cx="112.22" cy="31.495" r="1.388"/>
  <circle style="fill: rgb(224, 224, 224);" cx="114.23" cy="39.018" r="2.617"/>
  <circle style="fill: rgb(235, 235, 235);" cx="113.646" cy="35.775" r="2.068"/>
  <circle style="fill: rgb(235, 235, 235);" cx="68.901" cy="26.761" r="2.206"/>
  <circle style="fill: rgb(235, 235, 235);" cx="100.028" cy="26.048" r="1.926"/>
  <polygon style="fill: rgb(168, 199, 67);" points="50.111 51.603 49.505 49.613 48.466 47.795 48.207 46.237 48.813 44.68 49.851 42.516 51.495 39.833 52.102 41.132 53.313 43.208 53.832 45.285 53.919 47.622 52.794 50.046 51.15 52.036 50.89 52.295" transform="matrix(0.805386, -0.592751, 0.592751, 0.805386, -17.366895, 39.232346)"/>
  <polygon style="fill: rgb(168, 199, 67);" points="54.399 47.369 53.793 45.378 52.754 43.561 52.495 42.003 53.101 40.445 54.139 38.282 55.783 35.599 56.39 36.897 57.601 38.974 58.12 41.051 58.207 43.388 57.082 45.811 55.438 47.802 55.178 48.061" transform="matrix(0.996689, -0.081308, 0.081308, 0.996689, -3.217849, 4.638979)"/>
  <polygon style="fill: rgb(168, 199, 67);" points="57.113 40.913 56.506 38.922 55.468 37.104 55.209 35.547 55.814 33.989 56.853 31.826 58.497 29.142 59.103 30.441 60.315 32.518 60.834 34.595 60.92 36.932 59.795 39.355 58.151 41.345 57.891 41.605" transform="matrix(0.929569, -0.368647, 0.368647, 0.929569, -8.950822, 23.896687)"/>
  <polygon style="fill: rgb(168, 199, 67);" points="60.108 35.868 59.502 33.877 58.463 32.06 58.204 30.502 58.81 28.944 59.848 26.781 61.492 24.098 62.099 25.396 63.31 27.473 63.829 29.55 63.916 31.887 62.791 34.31 61.147 36.301 60.887 36.56" transform="matrix(0.994094, 0.108518, -0.108518, 0.994094, 3.651836, -6.447004)"/>
  <polygon style="fill: rgb(168, 199, 67);" points="65.379 32.374 64.773 30.384 63.734 28.566 63.475 27.008 64.081 25.451 65.119 23.287 66.763 20.604 67.37 21.902 68.581 23.979 69.1 26.056 69.187 28.393 68.062 30.817 66.418 32.807 66.158 33.066" transform="matrix(0.951282, 0.308322, -0.308322, 0.951282, 11.505331, -19.143959)"/>
  <polygon style="fill: rgb(168, 199, 67);" points="71.129 29.069 70.522 27.079 69.484 25.261 69.224 23.703 69.83 22.146 70.869 19.982 72.513 17.299 73.119 18.598 74.33 20.674 74.85 22.751 74.936 25.088 73.811 27.512 72.167 29.502 71.907 29.761" transform="matrix(0.922566, 0.38584, -0.38584, 0.922566, 14.660273, -25.989312)"/>
  <polygon style="fill: rgb(168, 199, 67);" points="77.272 27.643 76.666 25.653 75.627 23.835 75.368 22.277 75.974 20.72 77.012 18.556 78.656 15.873 79.263 17.172 80.474 19.248 80.993 21.325 81.079 23.662 79.955 26.086 78.31 28.076 78.05 28.335" transform="matrix(0.766602, 0.642122, -0.642122, 0.766602, 32.450668, -45.070032)"/>
  <polygon style="fill: rgb(168, 199, 67);" points="115.464 41.955 114.858 43.946 113.819 45.763 113.56 47.321 114.166 48.879 115.204 51.042 116.848 53.725 117.455 52.427 118.666 50.35 119.185 48.273 119.272 45.936 118.147 43.513 116.503 41.522 116.243 41.263" transform="matrix(-0.805386, -0.592751, 0.592751, -0.805386, 182.023688, 154.750684)"/>
  <polygon style="fill: rgb(168, 199, 67);" points="111.176 37.721 110.57 39.711 109.531 41.529 109.272 43.087 109.878 44.644 110.916 46.808 112.56 49.491 113.167 48.193 114.378 46.116 114.897 44.039 114.984 41.702 113.859 39.279 112.215 37.288 111.955 37.029" transform="matrix(-0.996689, -0.081308, 0.081308, -0.996689, 220.367366, 95.493674)"/>
  <polygon style="fill: rgb(168, 199, 67);" points="108.463 31.265 107.857 33.255 106.819 35.073 106.559 36.63 107.165 38.188 108.203 40.351 109.848 43.035 110.454 41.736 111.665 39.659 112.184 37.583 112.271 35.246 111.146 32.822 109.502 30.832 109.242 30.573" transform="matrix(-0.929569, -0.368647, 0.368647, -0.929569, 197.556151, 111.351398)"/>
  <polygon style="fill: rgb(168, 199, 67);" points="105.468 26.22 104.862 28.21 103.823 30.028 103.564 31.586 104.17 33.143 105.208 35.307 106.852 37.99 107.459 36.692 108.67 34.615 109.189 32.538 109.275 30.201 108.151 27.778 106.507 25.787 106.246 25.528" transform="matrix(-0.994094, 0.108518, -0.108518, -0.994094, 215.656967, 51.78201)"/>
  <polygon style="fill: rgb(168, 199, 67);" points="101.61 22.827 101.004 24.817 99.965 26.635 99.706 28.193 100.312 29.75 101.35 31.914 102.994 34.597 103.601 33.299 104.812 31.222 105.331 29.145 105.418 26.808 104.293 24.385 102.649 22.394 102.389 22.135" transform="matrix(-0.979205, 0.202873, -0.202873, -0.979205, 208.745925, 35.335069)"/>
  <polygon style="fill: rgb(168, 199, 67);" points="96.466 19.522 95.859 21.512 94.821 23.33 94.562 24.888 95.167 26.446 96.206 28.609 97.85 31.292 98.456 29.994 99.668 27.917 100.187 25.84 100.273 23.503 99.148 21.08 97.504 19.089 97.244 18.83" transform="matrix(-0.910985, 0.41244, -0.41244, -0.910985, 196.499518, 7.712325)"/>
  <polygon style="fill: rgb(168, 199, 67);" points="90.828 17.895 90.222 19.885 89.183 21.703 88.924 23.261 89.53 24.818 90.568 26.982 92.212 29.665 92.819 28.366 94.03 26.29 94.549 24.213 94.636 21.876 93.511 19.452 91.867 17.462 91.607 17.203" transform="matrix(-0.819031, 0.573749, -0.573749, -0.819031, 180.395917, -10.031518)"/>
</svg>