<?xml version="1.0" encoding="utf-8"?>
<svg viewBox="0 0 500 500" xmlns="http://www.w3.org/2000/svg" xmlns:bx="https://boxy-svg.com">
  <defs>
    <pattern id="pattern-0" x="0" y="0" width="25" height="25" patternUnits="userSpaceOnUse" viewBox="0 0 100 100">
      <rect x="0" y="0" width="50" height="100" style="fill: black;"/>
    </pattern>
    <linearGradient id="gradient-3" gradientUnits="userSpaceOnUse" x1="239.277" y1="93.113" x2="239.277" y2="227.429" gradientTransform="matrix(1, 0, 0, 0.834278, 0.000005, 37.690059)">
      <stop offset="0" style="stop-color: rgb(255, 222, 223);"/>
      <stop offset="1" style="stop-color: rgb(255, 202, 213);"/>
    </linearGradient>
    <linearGradient id="gradient-0" gradientUnits="userSpaceOnUse" x1="205.05" y1="112.688" x2="205.05" y2="128.36">
      <stop offset="0" style="stop-color: rgba(187, 218, 85, 1)"/>
      <stop offset="1" style="stop-color: rgba(135, 165, 36, 1)"/>
    </linearGradient>
    <linearGradient id="gradient-1" gradientUnits="userSpaceOnUse" x1="219.684" y1="103.527" x2="219.684" y2="119.199">
      <stop offset="0" style="stop-color: rgba(187, 218, 85, 1)"/>
      <stop offset="1" style="stop-color: rgba(135, 165, 36, 1)"/>
    </linearGradient>
    <linearGradient id="gradient-2" gradientUnits="userSpaceOnUse" x1="223.274" y1="101.865" x2="223.274" y2="117.537">
      <stop offset="0" style="stop-color: rgba(187, 218, 85, 1)"/>
      <stop offset="1" style="stop-color: rgba(135, 165, 36, 1)"/>
    </linearGradient>
    <linearGradient id="gradient-5" gradientUnits="userSpaceOnUse" x1="245.803" y1="103.211" x2="245.803" y2="118.883">
      <stop offset="0" style="stop-color: rgba(187, 218, 85, 1)"/>
      <stop offset="1" style="stop-color: rgba(135, 165, 36, 1)"/>
    </linearGradient>
    <linearGradient id="gradient-6" gradientUnits="userSpaceOnUse" x1="251.292" y1="113.614" x2="251.292" y2="129.286">
      <stop offset="0" style="stop-color: rgba(187, 218, 85, 1)"/>
      <stop offset="1" style="stop-color: rgba(135, 165, 36, 1)"/>
    </linearGradient>
    <linearGradient id="gradient-7" gradientUnits="userSpaceOnUse" x1="261.943" y1="112.289" x2="261.943" y2="127.961">
      <stop offset="0" style="stop-color: rgba(187, 218, 85, 1)"/>
      <stop offset="1" style="stop-color: rgba(135, 165, 36, 1)"/>
    </linearGradient>
  </defs>
  <circle style="fill: url(#gradient-3);" cx="239.277" cy="160.271" r="67.158" transform="matrix(0.516823, 0, 0, 0.634466, 110.251991, 49.272995)"/>
  <ellipse style="fill: rgb(255, 255, 255);" cx="222.912" cy="145.316" rx="11.287" ry="3.668"/>
  <ellipse style="fill: rgb(255, 255, 255);" cx="249.999" cy="145.021" rx="11.287" ry="3.668"/>
  <circle style="" cx="343.102" cy="148.354" r="6.598" transform="matrix(0.444056, 0, 0, 0.473315, 70.855858, 75.046837)"/>
  <circle style="" cx="343.102" cy="148.354" r="6.598" transform="matrix(0.444056, 0, 0, 0.473315, 97.565155, 74.801147)"/>
  <path d="M 238.686 151.526 C 238.686 151.058 246.954 162.192 244.665 164.481 C 242.684 166.462 238.138 165.976 235.198 165.976" style="stroke: rgb(0, 0, 0); fill: none;"/>
  <path d="M 228.222 176.938 C 229.581 176.938 229.528 175.34 230.713 174.945 C 233.14 174.136 244.167 173.034 244.167 176.44" style="stroke: rgb(0, 0, 0); fill: none;"/>
  <ellipse style="fill: rgb(252, 214, 224);" cx="191.571" cy="151.704" rx="3.239" ry="7.88" transform="matrix(0.970296, -0.241922, 0.241922, 0.970296, -25.145285, 51.034748)" bx:origin="1.344 0.598"/>
  <ellipse style="fill: rgb(252, 214, 224);" cx="191.571" cy="151.704" rx="3.239" ry="7.88" transform="matrix(0.956305, 0.292372, -0.292372, 0.956305, 130.835114, -50.820293)" bx:origin="1.344 0.598"/>
  <ellipse style="fill: rgb(237, 237, 237);" cx="213.499" cy="140.02" rx="2.087" ry="1.284"/>
  <ellipse style="fill: rgb(239, 239, 239);" cx="216.71" cy="139.539" rx="1.766" ry="1.605"/>
  <ellipse style="fill: rgb(239, 239, 239);" cx="219.137" cy="139.378" rx="1.766" ry="1.605"/>
  <ellipse style="fill: rgb(239, 239, 239);" cx="221.172" cy="139.652" rx="1.766" ry="1.605"/>
  <ellipse style="fill: rgb(239, 239, 239);" cx="224.365" cy="139.743" rx="1.766" ry="1.605"/>
  <ellipse style="fill: rgb(239, 239, 239);" cx="227.101" cy="139.926" rx="1.766" ry="1.605"/>
  <ellipse style="fill: rgb(239, 239, 239);" cx="229.656" cy="140.382" rx="1.766" ry="1.605"/>
  <ellipse style="fill: rgb(239, 239, 239);" cx="240.602" cy="139.743" rx="1.766" ry="1.605"/>
  <ellipse style="fill: rgb(239, 239, 239);" cx="243.521" cy="139.196" rx="1.766" ry="1.605"/>
  <ellipse style="fill: rgb(239, 239, 239);" cx="245.984" cy="139.105" rx="1.766" ry="1.605"/>
  <ellipse style="fill: rgb(239, 239, 239);" cx="249.359" cy="139.105" rx="1.766" ry="1.605"/>
  <ellipse style="fill: rgb(239, 239, 239);" cx="251.913" cy="139.105" rx="1.766" ry="1.605"/>
  <ellipse style="fill: rgb(239, 239, 239);" cx="254.102" cy="139.287" rx="1.766" ry="1.605"/>
  <ellipse style="fill: rgb(239, 239, 239);" cx="256.748" cy="139.652" rx="1.766" ry="1.605"/>
  <ellipse style="fill: rgb(216, 216, 216);" cx="200.759" cy="140.106" rx="6.733" ry="6.017"/>
  <ellipse style="fill: rgb(216, 216, 216);" cx="205.916" cy="132.228" rx="4.154" ry="4.441"/>
  <ellipse style="fill: rgb(216, 216, 216);" cx="199.756" cy="134.09" rx="4.871" ry="3.725"/>
  <ellipse style="fill: rgb(229, 229, 229);" cx="207.062" cy="127.357" rx="3.295" ry="3.295"/>
  <ellipse style="fill: rgb(216, 216, 216);" cx="267.371" cy="138.817" rx="5.157" ry="6.16"/>
  <ellipse style="fill: rgb(216, 216, 216);" cx="265.222" cy="131.225" rx="5.014" ry="4.871"/>
  <ellipse style="fill: rgb(229, 229, 229);" cx="260.495" cy="126.641" rx="3.438" ry="3.725"/>
  <ellipse style="fill: rgb(229, 229, 229);" cx="264.363" cy="125.065" rx="3.008" ry="2.722"/>
  <ellipse style="fill: rgb(229, 229, 229);" cx="203.194" cy="129.363" rx="4.298" ry="4.154"/>
  <ellipse style="fill: rgb(229, 229, 229);" cx="209.497" cy="123.06" rx="3.438" ry="2.722"/>
  <ellipse style="fill: rgb(229, 229, 229);" cx="257.63" cy="121.484" rx="3.725" ry="3.152"/>
  <ellipse style="fill: rgb(229, 229, 229);" cx="260.781" cy="123.203" rx="2.865" ry="1.719"/>
  <ellipse style="fill: rgb(196, 196, 196);" cx="202.478" cy="146.41" rx="1.862" ry="2.579"/>
  <ellipse style="fill: rgb(202, 202, 202);" cx="266.225" cy="144.547" rx="2.292" ry="2.435"/>
  <ellipse style="fill: rgb(229, 229, 229);" cx="211.789" cy="119.765" rx="1.719" ry="2.292"/>
  <ellipse style="fill: rgb(229, 229, 229);" cx="255.624" cy="118.332" rx="2.006" ry="1.433"/>
  <path d="M 204.683 116.257 C 203.258 116.257 203.474 118.278 202.992 118.977 C 202.108 120.257 199.878 124.39 201.02 126.595 C 201.439 127.403 203.52 127.671 204.401 127.955 C 205.06 128.167 206.788 128.57 207.501 128.227 C 210.882 126.595 209.075 119.137 207.218 117.345 C 207.061 117.193 205.174 112.244 204.683 112.72 C 203.622 113.744 203.556 116.702 203.556 118.161" style="fill: url(#gradient-0);" transform="matrix(0.99863, -0.052336, 0.052336, 0.99863, -6.02669, 10.896568)"/>
  <path d="M 322.80512294027284 166.5283410154135" style="fill: rgb(216, 216, 216); stroke: rgb(186, 218, 85);"/>
  <path d="M 219.317 107.096 C 217.892 107.096 218.108 109.117 217.626 109.816 C 216.742 111.096 214.512 115.229 215.654 117.434 C 216.073 118.242 218.154 118.51 219.035 118.794 C 219.694 119.006 221.422 119.409 222.135 119.066 C 225.516 117.434 223.709 109.976 221.852 108.184 C 221.695 108.032 219.808 103.083 219.317 103.559 C 218.256 104.583 218.19 107.541 218.19 109" style="fill: url(#gradient-1);" transform="matrix(0.927184, 0.374607, -0.374607, 0.927184, 52.225314, -69.458432)" bx:origin="-1.214 -0.25"/>
  <path d="M 222.907 105.434 C 221.482 105.434 221.698 107.455 221.216 108.154 C 220.332 109.434 218.102 113.567 219.244 115.772 C 219.663 116.58 221.744 116.848 222.625 117.132 C 223.284 117.344 225.012 117.747 225.725 117.404 C 229.106 115.772 227.299 108.314 225.442 106.522 C 225.285 106.37 223.398 101.421 222.907 101.897 C 221.846 102.921 221.78 105.879 221.78 107.338" style="fill: url(#gradient-2);" transform="matrix(0.927184, 0.374607, -0.374607, 0.927184, 57.352697, -75.65179)"/>
  <path d="M 261.577 115.858 C 260.152 115.858 260.368 117.879 259.886 118.578 C 259.002 119.858 256.771 123.991 257.913 126.196 C 258.332 127.004 260.414 127.272 261.295 127.556 C 261.954 127.768 263.682 128.171 264.395 127.828 C 267.776 126.196 265.969 118.738 264.112 116.946 C 263.955 116.794 262.068 111.845 261.577 112.321 C 260.516 113.345 260.45 116.303 260.45 117.762" style="fill: url(#gradient-7);" transform="matrix(0.99863, 0.052336, -0.052336, 0.99863, 6.645845, -13.544423)"/>
  <path d="M 250.925 117.183 C 249.5 117.183 249.716 119.204 249.234 119.903 C 248.35 121.183 246.12 125.316 247.262 127.521 C 247.681 128.329 249.762 128.597 250.643 128.881 C 251.302 129.093 253.03 129.496 253.743 129.153 C 257.124 127.521 255.317 120.063 253.46 118.271 C 253.303 118.119 251.416 113.17 250.925 113.646 C 249.864 114.67 249.798 117.628 249.798 119.087" style="fill: url(#gradient-6);" transform="matrix(0.927184, -0.374607, 0.374607, 0.927184, -23.879937, 96.539752)" bx:origin="-1.214 -0.25"/>
  <path d="M 245.436 106.78 C 244.011 106.78 244.227 108.801 243.745 109.5 C 242.861 110.78 240.631 114.913 241.773 117.118 C 242.192 117.926 244.273 118.194 245.154 118.478 C 245.813 118.69 247.541 119.093 248.254 118.75 C 251.635 117.118 249.828 109.66 247.971 107.868 C 247.814 107.716 245.927 102.767 245.436 103.243 C 244.375 104.267 244.309 107.225 244.309 108.684" style="fill: url(#gradient-5);" transform="matrix(0.927184, -0.374606, 0.374606, 0.927184, -23.700537, 100.165089)"/>
  <path d="M 218.903 134.248 C 220.256 134.248 225.032 132.307 226.3 133.575 C 226.488 133.763 230.218 134.92 230.672 134.92 C 231.562 134.92 234.876 135.424 235.379 134.92 C 238.197 132.102 244.025 133.239 248.157 133.239" style="stroke-opacity: 0.39; fill: none; stroke: rgb(0, 0, 0);"/>
  <path d="M 221.424 129.939 C 222.358 129.939 225.651 129.223 226.526 129.691 C 226.655 129.76 229.228 130.187 229.541 130.187 C 230.155 130.187 232.44 130.373 232.787 130.187 C 234.731 129.147 238.75 129.567 241.6 129.567" style="stroke-opacity: 0.39; fill: none; stroke: rgb(0, 0, 0);"/>
  <path d="M 235.715 185.695 C 235.715 183.938 236.49 181.996 238.405 181.996" style="stroke: rgb(0, 0, 0); fill: rgb(216, 216, 216);"/>
  <circle style="fill: rgb(255, 255, 255);" cx="250.508" cy="143.716" r="1.078"/>
  <circle style="fill: rgb(255, 255, 255);" cx="223.831" cy="143.716" r="1.078"/>
</svg>