<?xml version="1.0" encoding="utf-8"?>
<svg viewBox="0 0 182.007 330.889" xmlns="http://www.w3.org/2000/svg" character="caesar" xmlns:bx="https://boxy-svg.com">
  <defs>
    <pattern id="pattern-0" x="0" y="0" width="25" height="25" patternUnits="userSpaceOnUse" viewBox="0 0 100 100">
      <rect x="0" y="0" width="50" height="100" style="fill: black;"/>
    </pattern>
    <linearGradient id="caesar-gradient-0" gradientUnits="userSpaceOnUse" x1="205.05" y1="112.688" x2="205.05" y2="128.36" gradientTransform="matrix(1, 0, 0, 1, -148.073083, -96.288072)">
      <stop offset="0" style="stop-color: rgba(187, 218, 85, 1)"/>
      <stop offset="1" style="stop-color: rgba(135, 165, 36, 1)"/>
    </linearGradient>
    <linearGradient id="caesar-gradient-1" gradientUnits="userSpaceOnUse" x1="219.684" y1="103.527" x2="219.684" y2="119.199" gradientTransform="matrix(1, 0, 0, 1, -148.073149, -96.287936)">
      <stop offset="0" style="stop-color: rgba(187, 218, 85, 1)"/>
      <stop offset="1" style="stop-color: rgba(135, 165, 36, 1)"/>
    </linearGradient>
    <linearGradient id="caesar-gradient-2" gradientUnits="userSpaceOnUse" x1="223.274" y1="101.865" x2="223.274" y2="117.537" gradientTransform="matrix(1, 0, 0, 1, -148.073147, -96.287925)">
      <stop offset="0" style="stop-color: rgba(187, 218, 85, 1)"/>
      <stop offset="1" style="stop-color: rgba(135, 165, 36, 1)"/>
    </linearGradient>
    <linearGradient id="caesar-gradient-5" gradientUnits="userSpaceOnUse" x1="245.803" y1="103.211" x2="245.803" y2="118.883" gradientTransform="matrix(1, 0, 0, 1, -148.073167, -96.28811)">
      <stop offset="0" style="stop-color: rgba(187, 218, 85, 1)"/>
      <stop offset="1" style="stop-color: rgba(135, 165, 36, 1)"/>
    </linearGradient>
    <linearGradient id="caesar-gradient-6" gradientUnits="userSpaceOnUse" x1="251.292" y1="113.614" x2="251.292" y2="129.286" gradientTransform="matrix(1, 0, 0, 1, -148.073122, -96.288089)">
      <stop offset="0" style="stop-color: rgba(187, 218, 85, 1)"/>
      <stop offset="1" style="stop-color: rgba(135, 165, 36, 1)"/>
    </linearGradient>
    <linearGradient id="caesar-gradient-7" gradientUnits="userSpaceOnUse" x1="261.943" y1="112.289" x2="261.943" y2="127.961" gradientTransform="matrix(1, 0, 0, 1, -148.073131, -96.287983)">
      <stop offset="0" style="stop-color: rgba(187, 218, 85, 1)"/>
      <stop offset="1" style="stop-color: rgba(135, 165, 36, 1)"/>
    </linearGradient>
    <linearGradient id="caesar-gradient-9" gradientUnits="userSpaceOnUse" x1="235.519" y1="178.36" x2="235.519" y2="279.139" spreadMethod="pad" gradientTransform="matrix(1, 0, 0, 1, -148.073196, -96.288033)">
      <stop offset="0" style="stop-color: rgb(242, 240, 240);"/>
      <stop offset="1" style="stop-color: rgb(188, 188, 188);"/>
    </linearGradient>
    <linearGradient id="caesar-gradient-10" gradientUnits="userSpaceOnUse" x1="222.21" y1="285.992" x2="222.21" y2="394.679" gradientTransform="matrix(1, 0, 0, 1, -148.073196, -96.288033)">
      <stop offset="0" style="stop-color: rgb(251, 177, 180);"/>
      <stop offset="1" style="stop-color: rgb(255, 222, 223);"/>
    </linearGradient>
    <linearGradient id="caesar-gradient-14" gradientUnits="userSpaceOnUse" x1="258.504" y1="280.615" x2="258.504" y2="392.227" gradientTransform="matrix(1, 0, 0, 1, -147.942453, -96.297732)">
      <stop offset="0" style="stop-color: rgb(255, 191, 193);"/>
      <stop offset="1" style="stop-color: rgb(255, 222, 223);"/>
    </linearGradient>
    <linearGradient id="caesar-gradient-4" gradientUnits="userSpaceOnUse" x1="235.997" y1="276.307" x2="235.997" y2="284.505" gradientTransform="matrix(1, 0, 0, 1, -147.52559, -95.284088)">
      <stop offset="0" style="stop-color: rgb(227, 168, 78);"/>
      <stop offset="1" style="stop-color: rgb(163, 98, 0);"/>
    </linearGradient>
    <radialGradient id="caesar-gradient-8" gradientUnits="userSpaceOnUse" cx="218.897" cy="162.75" r="5.975">
      <stop offset="0" style="stop-color: rgb(233, 108, 108);"/>
      <stop offset="1" style="stop-color: rgba(255, 255, 255, 0);"/>
    </radialGradient>
    <radialGradient id="caesar-gradient-3" gradientUnits="userSpaceOnUse" cx="218.897" cy="162.75" r="5.975">
      <stop offset="0" style="stop-color: rgb(233, 108, 108);"/>
      <stop offset="1" style="stop-color: rgba(255, 255, 255, 0);"/>
    </radialGradient>
    <linearGradient id="caesar-gradient-11" gradientUnits="userSpaceOnUse" x1="222.912" y1="141.648" x2="222.912" y2="148.984" gradientTransform="matrix(1, 0, 0, 1, -148.073196, -96.288033)">
      <stop offset="0" style="stop-color: rgb(255, 255, 255);"/>
      <stop offset="1" style="stop-color: rgb(235, 235, 235);"/>
    </linearGradient>
    <linearGradient id="caesar-gradient-13" gradientUnits="userSpaceOnUse" x1="249.999" y1="141.353" x2="249.999" y2="148.689" gradientTransform="matrix(1, 0, 0, 1, -148.073196, -96.288033)">
      <stop offset="0" style="stop-color: rgb(255, 255, 255);"/>
      <stop offset="1" style="stop-color: rgb(235, 235, 235);"/>
    </linearGradient>
  </defs>
  <path d="M 21.911 268.65 C 21.911 261.27 34.354 253.129 41.981 256.943 C 47.397 259.651 47.991 264.338 53.27 266.978 C 57.444 269.064 60.315 258.455 67.068 260.706 C 68.164 261.071 68.5 262.915 69.577 263.633 C 72.363 265.49 78.669 268.232 82.12 268.232 C 82.896 268.232 85.89 268.644 86.302 268.232 C 89.49 265.043 95.599 259.372 102.608 261.124 C 104.145 261.508 107.821 264.246 108.88 265.305 C 110.156 266.581 116.194 266.349 118.079 266.978 C 119.12 267.325 124.299 268.284 125.187 267.396 C 127.297 265.286 127.848 262.302 131.041 260.706 C 135.987 258.233 139.6 266.252 143.166 264.469 C 145.292 263.406 144.839 256.563 144.839 254.434 C 144.839 244.937 139.821 235.458 139.821 226.002 C 139.821 220.417 141.54 215.038 144.003 210.113 C 145.409 207.301 144.003 200.339 144.003 197.151 C 144.003 188.853 144.204 181.665 140.658 174.572 C 139.022 171.3 134.076 169.88 132.713 165.792 C 131.899 163.35 129.361 157.422 127.278 155.339 C 126.675 154.736 127.674 152.369 127.278 151.576 C 126.215 149.45 125.358 147.66 124.769 145.304 C 123.122 138.715 117.865 130.874 113.061 126.07 C 111.518 124.527 110.953 121.88 108.462 120.635 C 104.464 118.636 100.443 118.195 95.918 117.29 C 89.822 116.07 82.664 113.501 76.267 114.781 C 68.558 116.323 58.419 124.684 53.688 129.415 C 53.163 129.94 52.571 133.932 52.434 134.015 C 49.357 135.861 50.896 132.902 49.507 133.596 C 47.331 134.684 47.654 140.229 46.58 142.377 C 43.188 149.16 44.377 156.208 42.399 164.119 C 40.872 170.225 36.776 179.546 34.036 185.026 C 32.803 187.492 34.014 191.342 32.782 193.806 C 30.075 199.22 30.483 206.034 28.182 211.785 C 23.303 223.985 18.566 234.524 18.566 247.744 C 18.566 251.867 17.199 256.83 20.238 259.869 C 22.179 261.811 19.173 268.421 21.493 270.741" style="stroke: rgb(0, 0, 0); stroke-width: 0px; fill: rgb(83, 3, 3);"/>
  <path d="M 60.796 97.638 C 60.796 105.363 56.951 112.682 55.36 120.635 C 51.966 137.606 43.752 152.473 34.036 167.046 C 31.396 171.006 30.634 176.36 28.601 180.426 C 21.321 194.986 17.214 210.502 13.13 226.838 C 9.887 239.808 8.633 259.442 11.876 272.413 C 12.617 275.379 15.37 278.298 16.475 281.612 C 18.234 286.89 22.707 292.443 26.51 296.246 C 28.242 297.978 29.312 298.661 31.109 300.009 C 31.823 300.545 33.181 302.898 32.782 302.1 C 31.372 299.281 32.105 294.634 31.109 291.647 C 28.785 284.673 25.256 277.139 25.256 269.068 C 25.256 267.303 24.92 262.296 26.092 261.124 C 28.191 259.025 32.577 255.049 33.618 251.925 C 35.742 245.553 34.454 236.285 34.454 229.347 C 34.454 223.312 34.435 213.915 36.963 208.859 C 38.599 205.587 36.898 200.34 37.799 196.733 C 41.271 182.845 47.953 169.5 51.179 156.593 C 53.76 146.269 57.8 133.491 63.305 125.234 C 65.589 121.808 65.68 115.047 67.486 111.436 C 69.963 106.483 69.825 93.541 60.796 98.056" style="stroke: rgb(213, 41, 41); fill: rgb(213, 41, 41); stroke-width: 0px;"/>
  <g transform="matrix(0.975179, -0.22142, 0.22142, 0.975179, -185.192505, -50.863087)">
    <path d="M 194.062 200.77 C 191.395 204.77 190.622 208.656 189.192 212.944 C 187.677 217.489 183.299 222.798 180.671 226.741 C 176.44 233.087 173.361 239.732 168.497 244.595 C 168.042 245.05 169.582 249.215 169.714 249.871 C 170.472 253.631 172.797 254.286 176.207 252.711 C 182.533 249.788 180.5 251.835 182.7 247.436 C 188.289 236.257 195.246 221.937 200.96 210.509 C 204.076 204.277 198.605 197.038 193.25 202.393" style="fill: rgb(255, 222, 223); stroke: rgb(255, 222, 223);"/>
    <polygon style="fill: rgb(234, 180, 79); stroke: rgb(234, 180, 79);" points="170.717 239.799 183.595 248.674 172.148 264.733 162.49 258.394 170.359 239.799"/>
    <circle style="fill: rgb(255, 222, 223);" cx="164.535" cy="266.425" r="9.509"/>
  </g>
  <path d="M 50.858 91.902 C 49.702 91.324 42.983 100.336 43.96 103.265 C 45.051 106.54 50.875 108.557 53.293 110.975 C 54.056 111.738 56.8 114.699 57.757 114.221 C 58.199 114 57.757 107.978 57.757 107.322 C 57.757 101.399 56.808 91.902 50.452 91.902" style="fill: rgb(163, 33, 33); stroke: rgb(163, 33, 33);"/>
  <path d="M 117.661 99.728 C 121.222 110.413 125.92 123.354 131.041 133.596 C 133.289 138.094 134.65 144.535 135.64 149.485 C 137.945 161.009 143.854 172.529 148.184 183.353 C 149.454 186.528 148.401 192.075 149.02 195.479 C 151.637 209.871 154.037 223.902 154.037 238.545 C 154.037 255.179 154.929 270.994 149.856 286.211 C 149.114 288.439 144.825 295.417 143.166 296.246 C 142.777 296.441 141.072 299.587 140.658 299.173 C 139.708 298.224 140.239 293.898 140.239 292.483 C 140.239 288.589 140.261 280.952 142.33 277.849 C 143.264 276.448 144.007 271.583 142.748 269.904 C 138.791 264.628 136.465 261.938 133.549 256.106 C 131.426 251.859 133.131 242.543 133.131 237.709 C 133.131 222.155 135.321 204.954 133.131 189.625 C 131.737 179.864 130.162 169.481 125.187 160.774 C 122.049 155.283 117.925 150.431 115.152 144.886 C 113.59 141.762 112.731 136.193 110.553 134.015 C 109.864 133.326 109.716 127.988 109.716 126.906 C 109.716 121.331 109.716 115.756 109.716 110.182 C 109.716 108.702 109.03 104.864 109.716 103.492 C 110.719 101.487 115.988 101.542 115.988 99.31" style="stroke: rgb(0, 0, 0); fill: rgb(213, 41, 41); stroke-width: 0px;"/>
  <g transform="matrix(0.996931, 0.078277, -0.078277, 0.996931, -133.445908, -116.41497)">
    <path d="M 268.396 196.598 C 270.319 195.636 274.403 206.583 275.294 208.366 C 278.608 214.994 283.643 222.05 286.251 229.873 C 287.842 234.646 300.022 208.672 302.042 212.711 C 302.588 213.802 311.702 214.618 311.55 215.792 C 310.833 221.327 304.419 230.513 302.012 232.921 C 301.596 233.336 293.972 246.35 291.038 246.403 C 281.692 246.572 282.928 248.389 279.056 240.826 C 273.632 230.23 272.682 225.46 267.178 214.453 C 265.192 210.48 267.719 204.848 264.338 201.467" style="stroke: rgb(255, 222, 223); fill: rgb(255, 222, 223);"/>
    <polygon style="stroke: rgb(234, 180, 79); fill: rgb(234, 180, 79);" points="294.554 114.618 307.158 108.519 313.664 125.596 305.205 132.11 293.334 115.024" transform="matrix(-0.54208 -0.840327 0.840327 -0.54208 373.287 530.881)" bx:origin="1.867 2.829"/>
    <circle style="fill: rgb(255, 222, 223);" cx="314.545" cy="199.16" r="9.509"/>
    <polygon style="stroke: rgb(227, 227, 227); fill: rgb(227, 227, 227);" points="306.797 187.273 290.186 131.987 290.331 114.698 300.521 129.673 316.385 185.018"/>
    <polygon style="fill: rgb(251, 251, 251); stroke: rgb(251, 251, 251);" points="313.208 185.021 299.144 130.286 289.619 113.28 300.291 128.944 316.155 184.289" transform=""/>
    <polygon style="stroke: rgb(251, 251, 251); fill: rgb(251, 251, 251);" points="306.628 186.571 290.017 131.285 290.162 113.996 290.402 130.991 308.189 186.345" transform=""/>
  </g>
  <ellipse style="fill: rgb(130, 98, 87);" cx="316.557" cy="214.177" rx="5.242" ry="2.621" transform="matrix(0.981705, -0.190408, 0.190408, 0.981705, -183.679016, -33.271259)" bx:origin="0.446 0.174"/>
  <path d="M 110.915 113.004 C 112.378 109.347 111.764 103.006 113.756 100.018 C 115.239 97.794 114.883 94.112 116.191 91.497 C 117.786 88.305 124.165 97.036 124.712 97.583 C 125.309 98.18 120.995 101.772 120.654 102.453 C 119.175 105.412 114.998 112.192 111.321 112.192" style="stroke: rgb(163, 33, 33); fill: rgb(163, 33, 33);"/>
  <path d="M 47.061 311.833 C 45.068 311.833 43.883 315.253 44.373 317.209 C 45.149 320.315 47.957 321.434 50.902 321.434 C 52.895 321.434 59.288 322.025 60.863 320.946 C 63.407 319.202 64.893 317.043 67.296 315.841 C 72.395 313.292 74.034 311.773 78.553 308.76 C 79.971 307.815 83.184 301.349 80.962 299.127 C 79.508 297.673 80.628 297.393 79.322 296.087 C 78.396 295.161 73.752 295.318 72.025 295.318 C 63.671 295.318 56.634 304.387 52.438 310.681 C 51.877 311.522 47.445 312.864 47.445 312.985" style="stroke: rgb(154, 58, 10); fill: rgb(154, 58, 10);"/>
  <polygon style="stroke: rgb(255, 222, 223); fill: url(#caesar-gradient-10); stroke-width: 0px;" points="77.401 298.391 63.191 296.471 60.119 189.704 88.155 191.24"/>
  <path d="M 58.686 179.462 C 56.655 180.477 56.773 185.579 55.82 187.486 C 54.025 191.077 51.522 194.219 50.089 197.802 C 48.855 200.886 48.383 204.364 46.936 207.259 C 46.557 208.018 50.732 210.233 51.521 209.838 C 53.612 208.792 53.429 204.046 54.674 202.387 C 58.17 197.726 60.433 191.957 61.838 186.34 C 62.068 185.418 64.194 180.958 63.557 180.322 C 61.682 178.446 59.839 180.895 58.399 180.895" style="fill: rgb(164, 23, 23); stroke: rgb(103, 13, 13);"/>
  <path d="M 52.098 209.695 C 53.231 209.695 58.469 212.633 58.686 212.417 C 59.377 211.725 59.615 208.267 60.119 207.259 C 63.271 200.955 65.446 193.452 68.429 187.486 C 68.759 186.826 69.688 182.154 69.002 181.468 C 68.451 180.917 66.289 181.831 65.563 181.468 C 65.298 181.336 63.432 180.161 63.271 180.322 C 61.64 181.953 62.75 187.147 60.978 188.919 C 60.056 189.84 60.234 192.529 59.259 193.504 C 57.109 195.654 57.138 198.605 55.82 201.241 C 54.597 203.687 52.526 205.502 52.526 209.123" style="fill: rgb(164, 23, 23); stroke: rgb(103, 13, 13);"/>
  <path d="M 59.259 211.557 C 60.397 211.936 61.597 211.764 62.697 212.13 C 63.155 212.283 65.227 213.375 65.277 213.277 C 66.302 211.226 65.407 209.158 66.136 206.972 C 68.121 201.017 69.452 194.733 71.294 189.205 C 71.743 187.86 71.694 180.782 68.715 183.76 C 68.347 184.128 68.89 185.814 68.715 186.34 C 67.884 188.833 67.116 191.831 65.85 194.363 C 64.795 196.473 64.942 199.044 63.844 201.241 C 62.526 203.877 58.686 208.525 58.686 211.271" style="fill: rgb(164, 23, 23); stroke: rgb(103, 13, 13);"/>
  <path d="M 77.599 186.34 C 77.923 186.015 82.473 184.91 82.757 185.193 C 83.396 185.832 82.757 190.624 82.757 191.498 C 82.757 196.599 83.044 201.366 83.044 206.399 C 83.044 207.802 83.685 211.134 83.044 212.417 C 82.683 213.137 75.001 212.971 74.447 212.417 C 73.885 211.856 73.777 210.887 73.587 210.124 C 71.5 201.776 77.599 194.313 77.599 186.34" style="fill: rgb(164, 23, 23); stroke: rgb(103, 13, 13);"/>
  <polygon style="stroke: rgb(255, 222, 223); stroke-width: 0px; fill: url(#caesar-gradient-14);" points="112.613 295.929 97.203 294.859 96.543 184.317 124.58 185.853" transform="matrix(0.989053, -0.147562, 0.147562, 0.989053, -34.222681, 18.943342)"/>
  <path d="M 82.757 212.99 C 83.52 212.228 87.866 213.376 88.202 212.703 C 91.206 206.695 88.202 197.415 88.202 191.211 C 88.202 188.924 87.593 184.638 84.19 186.34 C 82.647 187.111 83.33 191.149 83.33 192.931 C 83.33 198.203 83.044 203.369 83.044 208.692 C 83.044 210.436 82.987 211.506 84.046 212.565" style="fill: rgb(164, 23, 23); stroke: rgb(103, 13, 13);"/>
  <path d="M 70.148 182.614 C 72.077 183.096 76.918 184.977 77.599 186.34 C 77.707 186.556 76.453 189.408 76.453 190.351 C 76.453 196.192 75.661 202.183 73.874 207.545 C 73.563 208.476 74.335 212.481 73.299 212.998 C 72.452 213.422 66.361 213.326 65.418 212.855 C 64.014 212.153 65.563 212.859 65.563 212.13 C 65.563 208.103 65.255 202.144 66.996 198.662 C 69.344 193.966 70.721 189.355 70.721 183.187" style="fill: rgb(164, 23, 23); stroke: rgb(103, 13, 13);"/>
  <path d="M 95.366 211.844 C 98.486 211.844 98.199 212.004 99.664 211.271 C 100.041 211.083 99.378 206.87 99.378 206.686 C 99.378 203.305 98.467 199.319 97.658 196.083 C 97.289 194.603 98.329 192.265 97.658 190.925 C 96.938 189.483 96.664 184.831 93.647 186.34 C 92.755 186.786 93.073 190.261 93.073 191.211 C 93.073 196.401 92.787 201.292 92.787 206.399 C 92.787 208.119 93.046 210.937 93.787 212.42 C 94.047 212.94 95.506 212.286 95.506 211.705" style="fill: rgb(164, 23, 23); stroke: rgb(103, 13, 13);"/>
  <path d="M 100.237 211.271 C 101.113 211.021 105.746 210.633 106.255 210.124 C 107.079 209.301 104.536 205.556 104.536 204.393 C 104.536 202.862 103.595 199.072 102.816 197.516 C 100.768 193.419 103.209 187.878 99.951 184.62 C 98.619 183.288 96.796 185.769 96.512 186.053 C 94.612 187.953 96.117 194.039 97.085 196.942 C 97.416 197.935 96.891 199.421 97.372 200.381 C 99.058 203.754 99.091 208.344 99.091 212.417" style="fill: rgb(164, 23, 23); stroke: rgb(103, 13, 13);"/>
  <path d="M 105.396 184.907 C 106.581 184.907 108.521 182.888 109.121 183.187 C 110.079 183.666 111.11 188.278 111.413 189.492 C 112.706 194.661 114.897 199.944 116.572 204.966 C 117.023 206.322 118.87 208.967 118.004 210.697 C 117.72 211.266 111.308 210.306 110.84 209.838 C 109.574 208.572 110.359 203.626 109.121 202.387 C 107.62 200.886 107.115 196.765 107.115 194.65 C 107.115 193.871 107.551 191.292 107.115 190.638 C 105.998 188.963 105.507 186.562 104.536 184.62" style="fill: rgb(164, 23, 23); stroke: rgb(103, 13, 13);"/>
  <path d="M 109.407 183.187 C 109.958 182.637 111.031 180.13 111.986 180.608 C 112.763 180.996 113.086 185.72 113.992 186.626 C 118.234 190.868 119.802 196.525 122.303 201.527 C 123.168 203.258 122.749 205.221 123.449 206.972 C 123.719 207.648 124.823 208.464 124.309 208.978 C 123.483 209.804 118.529 210.649 117.431 209.551 C 116.782 208.902 116.992 207.24 116.572 206.399 C 113.614 200.485 111.866 194.003 109.694 187.486 C 109.188 185.968 110.057 183.264 108.834 182.041" style="fill: rgb(164, 23, 23); stroke: rgb(103, 13, 13);"/>
  <path d="M 115.712 180.035 C 118.843 181.079 118.708 183.604 120.584 185.48 C 125.736 190.632 126.714 195.562 128.894 202.101 C 129.307 203.341 131.76 205.698 131.76 206.972 C 131.76 207.034 124.714 208.78 124.454 208.259 C 123.053 205.457 123.39 200.866 121.73 198.375 C 120.643 196.744 118.95 194.449 117.431 192.931 C 116.48 191.979 117.441 189.788 116.572 188.919 C 115.873 188.22 114.161 186.675 113.706 185.766 C 113.283 184.92 111.27 180.035 113.133 180.035" style="fill: rgb(164, 23, 23); stroke: rgb(103, 13, 13);"/>
  <path d="M 88.205 212.989 C 89.089 211.221 93.672 213.251 94.793 212.13 C 95.229 211.694 94.277 207.087 93.933 206.399 C 93.396 205.324 93.933 202.486 93.933 201.241 C 93.933 196.95 94.63 192.031 92.787 188.346 C 92.515 187.802 93.2 186.18 92.787 185.766 C 92.181 185.16 88.873 185.856 88.488 186.626 C 87.975 187.653 88.488 190.352 88.488 191.498 C 88.488 194.094 86.949 198.055 87.915 200.954 C 88.811 203.641 90.327 210.012 87.633 212.706" style="fill: rgb(164, 23, 23); stroke: rgb(103, 13, 13);"/>
  <path d="M 107.115 210.124 C 108.257 209.554 109.795 210.36 110.84 209.838 C 111.508 209.504 110.328 208.271 110.267 208.118 C 109.393 205.932 108.775 203.069 107.975 200.668 C 106.625 196.619 107.661 187.745 104.822 184.907 C 104.686 184.771 101.796 184.781 101.67 184.907 C 100.394 186.182 102.243 192.575 102.243 194.077 C 102.243 196.489 102.246 198.674 102.816 200.954 C 103.69 204.45 106.255 207.2 106.255 210.984" style="fill: rgb(164, 23, 23); stroke: rgb(103, 13, 13);"/>
  <path d="M 58.163 171.844 C 58.163 172.554 57.666 180.117 58.163 180.365 C 61.124 181.846 63.858 183.01 66.684 184.424 C 68.632 185.398 70.417 185.478 74.394 185.64 C 76.944 185.744 80.201 185.953 82.916 186.858 C 86.27 187.976 90.839 186.047 94.278 186.047 C 100.038 186.047 109.066 184.169 112.945 181.582 C 117.062 178.838 115.379 179.889 115.379 174.278 C 115.379 173.632 115.791 170.632 115.379 170.22 C 114.904 169.745 112.152 170.343 111.727 170.626 C 108.641 172.683 105.385 174.139 101.582 175.09 C 96.101 176.46 89.406 174.551 84.945 177.525 C 80.214 180.679 72.258 171.537 68.307 170.22 C 65.642 169.332 58.974 170.441 58.974 173.061" style="fill: rgb(163, 82, 60); stroke: rgb(163, 82, 60);"/>
  <path d="M 62.626 90.279 C 60.852 95.603 60.517 105.78 56.945 109.351 C 55.872 110.424 56.945 118.904 56.945 120.308 C 56.945 131.264 56.945 142.221 56.945 153.177 C 56.945 159.312 56.562 165.464 57.757 171.438 C 58.115 173.23 66.152 178.623 67.902 179.148 C 81.09 183.105 83.774 183.325 96.307 182.394 C 102.467 181.936 103.171 181.6 108.886 178.742 C 111.951 177.21 112.226 174.519 115.252 171.493 C 117.139 169.607 117.378 158.812 117.17 156.21 C 116.335 145.774 116.401 146.14 116.358 133.461 C 116.343 129.179 118.08 123.401 117.003 119.091 C 114.025 107.18 120.647 95.854 110.51 88.25 C 108.238 86.547 104.265 82.834 101.582 82.164 C 99.168 81.56 91.7 84.144 89.409 83.38 C 82.022 80.918 63.438 82.101 63.438 93.12" style="stroke: rgb(229, 229, 229); fill: url(#caesar-gradient-9); paint-order: stroke markers; stroke-width: 0px;"/>
  <circle style="fill: rgb(255, 222, 223);" cx="239.277" cy="160.271" r="67.158" transform="matrix(0.516823, 0, 0, 0.634466, -37.555214, -47.846272)"/>
  <path d="M 107.909 86.627 C 110.925 86.627 112.091 85.802 114.568 86.627 C 126.863 90.725 117.937 103.141 112.133 108.946 C 107.055 114.024 98.545 105.282 101.582 99.207 C 103.751 94.869 105.83 91.455 108.109 86.636" style="fill: rgb(202, 51, 51); stroke: rgb(202, 51, 51);"/>
  <ellipse style="fill: url(#caesar-gradient-11);" cx="74.839" cy="49.028" rx="11.287" ry="3.668"/>
  <ellipse style="fill: url(#caesar-gradient-13);" cx="101.926" cy="48.733" rx="11.287" ry="3.668"/>
  <g transform="matrix(1, 0, 0, 1, -148.010864, -96.350372)">
    <circle id="leftEyeOuter" style="" cx="343.102" cy="148.354" r="6.598" transform="matrix(0.444056, 0, 0, 0.473315, 70.855858, 75.046837)"/>
    <circle id="leftEyeInner" style="fill: rgb(255, 255, 255);" cx="223.831" cy="143.716" r="1.078"/>
  </g>
  <g transform="matrix(1, 0, 0, 1, -147.636841, -96.412712)">
    <circle id="rightEyeOuter" style="" cx="343.102" cy="148.354" r="6.598" transform="matrix(0.444056, 0, 0, 0.473315, 97.565155, 74.801147)"/>
    <circle id="rightEyeInner" style="fill: rgb(255, 255, 255);" cx="250.508" cy="143.716" r="1.078"/>
  </g>
  <path d="M 90.613 55.238 C 90.613 54.77 98.881 65.904 96.592 68.193 C 94.611 70.174 90.065 69.688 87.125 69.688" style="fill: none; stroke-linecap: round; stroke: rgb(0, 0, 0);"/>
  <path d="M 80.149 80.65 C 81.508 80.65 81.455 79.052 82.64 78.657 C 85.067 77.848 96.094 76.746 96.094 80.152" id="mouth" style="stroke: rgb(0, 0, 0); fill: none;"/>
  <ellipse style="fill: rgb(252, 214, 224);" cx="191.571" cy="151.704" rx="3.239" ry="7.88" transform="matrix(0.970296, -0.241922, 0.241922, 0.970296, -173.218475, -45.253288)" bx:origin="1.344 0.598"/>
  <ellipse style="fill: rgb(252, 214, 224);" cx="191.571" cy="151.704" rx="3.239" ry="7.88" transform="matrix(0.956305, 0.292372, -0.292372, 0.956305, -17.238085, -147.108322)" bx:origin="1.344 0.598"/>
  <g transform="matrix(1, 0, 0, 1, -148.073196, -96.288033)">
    <ellipse style="fill: rgb(237, 237, 237);" cx="213.499" cy="140.02" rx="2.087" ry="1.284"/>
    <ellipse style="fill: rgb(239, 239, 239);" cx="216.71" cy="139.539" rx="1.766" ry="1.605"/>
    <ellipse style="fill: rgb(239, 239, 239);" cx="219.137" cy="139.378" rx="1.766" ry="1.605"/>
    <ellipse style="fill: rgb(239, 239, 239);" cx="221.172" cy="139.652" rx="1.766" ry="1.605"/>
    <ellipse style="fill: rgb(239, 239, 239);" cx="224.365" cy="139.743" rx="1.766" ry="1.605"/>
    <ellipse style="fill: rgb(239, 239, 239);" cx="227.101" cy="139.926" rx="1.766" ry="1.605"/>
    <ellipse style="fill: rgb(239, 239, 239);" cx="229.656" cy="140.382" rx="1.766" ry="1.605"/>
  </g>
  <g transform="matrix(1, 0, 0, 1, -147.308472, -96.687027)">
    <g>
      <ellipse style="fill: rgb(239, 239, 239);" cx="240.602" cy="139.743" rx="1.766" ry="1.605"/>
      <ellipse style="fill: rgb(239, 239, 239);" cx="243.521" cy="139.196" rx="1.766" ry="1.605"/>
      <ellipse style="fill: rgb(239, 239, 239);" cx="245.984" cy="139.105" rx="1.766" ry="1.605"/>
      <ellipse style="fill: rgb(239, 239, 239);" cx="249.359" cy="139.105" rx="1.766" ry="1.605"/>
      <ellipse style="fill: rgb(239, 239, 239);" cx="256.748" cy="139.652" rx="1.766" ry="1.605"/>
    </g>
    <ellipse style="fill: rgb(239, 239, 239);" cx="251.913" cy="139.105" rx="1.766" ry="1.605"/>
    <ellipse style="fill: rgb(239, 239, 239);" cx="254.102" cy="139.287" rx="1.766" ry="1.605"/>
  </g>
  <ellipse style="fill: rgb(216, 216, 216);" cx="52.686" cy="43.818" rx="6.733" ry="6.017"/>
  <ellipse style="fill: rgb(216, 216, 216);" cx="57.843" cy="35.94" rx="4.154" ry="4.441"/>
  <ellipse style="fill: rgb(216, 216, 216);" cx="51.683" cy="37.802" rx="4.871" ry="3.725"/>
  <ellipse style="fill: rgb(229, 229, 229);" cx="58.989" cy="31.069" rx="3.295" ry="3.295"/>
  <ellipse style="fill: rgb(216, 216, 216);" cx="119.298" cy="42.529" rx="5.157" ry="6.16"/>
  <ellipse style="fill: rgb(216, 216, 216);" cx="117.149" cy="34.937" rx="5.014" ry="4.871"/>
  <ellipse style="fill: rgb(229, 229, 229);" cx="112.422" cy="30.353" rx="3.438" ry="3.725"/>
  <ellipse style="fill: rgb(229, 229, 229);" cx="116.29" cy="28.777" rx="3.008" ry="2.722"/>
  <ellipse style="fill: rgb(229, 229, 229);" cx="55.121" cy="33.075" rx="4.298" ry="4.154"/>
  <ellipse style="fill: rgb(229, 229, 229);" cx="61.424" cy="26.772" rx="3.438" ry="2.722"/>
  <ellipse style="fill: rgb(229, 229, 229);" cx="109.557" cy="25.196" rx="3.725" ry="3.152"/>
  <ellipse style="fill: rgb(229, 229, 229);" cx="112.708" cy="26.915" rx="2.865" ry="1.719"/>
  <ellipse style="fill: rgb(196, 196, 196);" cx="54.405" cy="50.122" rx="1.862" ry="2.579"/>
  <ellipse style="fill: rgb(202, 202, 202);" cx="118.152" cy="48.259" rx="2.292" ry="2.435"/>
  <ellipse style="fill: rgb(229, 229, 229);" cx="63.716" cy="23.477" rx="1.719" ry="2.292"/>
  <ellipse style="fill: rgb(229, 229, 229);" cx="107.551" cy="22.044" rx="2.006" ry="1.433"/>
  <path d="M 56.61 19.969 C 55.185 19.969 55.401 21.99 54.919 22.689 C 54.035 23.969 51.805 28.102 52.947 30.307 C 53.366 31.115 55.447 31.383 56.328 31.667 C 56.987 31.879 58.715 32.282 59.428 31.939 C 62.809 30.307 61.002 22.849 59.145 21.057 C 58.988 20.905 57.101 15.956 56.61 16.432 C 55.549 17.456 55.483 20.414 55.483 21.873" style="fill: url(#caesar-gradient-0);" transform="matrix(0.99863, -0.052336, 0.052336, 0.99863, -1.19033, 3.015138)"/>
  <path d="M 174.732 70.24" style="fill: rgb(216, 216, 216); stroke: rgb(186, 218, 85);"/>
  <path d="M 71.244 10.808 C 69.819 10.808 70.035 12.829 69.553 13.528 C 68.669 14.808 66.439 18.941 67.581 21.146 C 68 21.954 70.081 22.222 70.962 22.506 C 71.621 22.718 73.349 23.121 74.062 22.778 C 77.443 21.146 75.636 13.688 73.779 11.896 C 73.622 11.744 71.735 6.795 71.244 7.271 C 70.183 8.295 70.117 11.253 70.117 12.712" style="fill: url(#caesar-gradient-1);" transform="matrix(0.927184, 0.374607, -0.374607, 0.927184, 5.373039, -21.000595)" bx:origin="-1.214 -0.25"/>
  <path d="M 74.834 9.146 C 73.409 9.146 73.625 11.167 73.143 11.866 C 72.259 13.146 70.029 17.279 71.171 19.484 C 71.59 20.292 73.671 20.56 74.552 20.844 C 75.211 21.056 76.939 21.459 77.652 21.116 C 81.033 19.484 79.226 12.026 77.369 10.234 C 77.212 10.082 75.325 5.133 74.834 5.609 C 73.773 6.633 73.707 9.591 73.707 11.05" style="fill: url(#caesar-gradient-2);" transform="matrix(0.927184, 0.374607, -0.374607, 0.927184, 10.500421, -27.193951)"/>
  <path d="M 113.504 19.57 C 112.079 19.57 112.295 21.591 111.813 22.29 C 110.929 23.57 108.698 27.703 109.84 29.908 C 110.259 30.716 112.341 30.984 113.222 31.268 C 113.881 31.48 115.609 31.883 116.322 31.54 C 119.703 29.908 117.896 22.45 116.039 20.658 C 115.882 20.506 113.995 15.557 113.504 16.033 C 112.443 17.057 112.377 20.015 112.377 21.474" style="fill: url(#caesar-gradient-7);" transform="matrix(0.99863, 0.052336, -0.052336, 0.99863, 1.403588, -5.926835)"/>
  <path d="M 102.852 20.895 C 101.427 20.895 101.643 22.916 101.161 23.615 C 100.277 24.895 98.047 29.028 99.189 31.233 C 99.608 32.041 101.689 32.309 102.57 32.593 C 103.229 32.805 104.957 33.208 105.67 32.865 C 109.051 31.233 107.244 23.775 105.387 21.983 C 105.23 21.831 103.343 16.882 102.852 17.358 C 101.791 18.382 101.725 21.34 101.725 22.799" style="fill: url(#caesar-gradient-6);" transform="matrix(0.927184, -0.374607, 0.374607, 0.927184, 1.408091, 34.059261)" bx:origin="-1.214 -0.25"/>
  <path d="M 97.363 10.492 C 95.938 10.492 96.154 12.513 95.672 13.212 C 94.788 14.492 92.558 18.625 93.7 20.83 C 94.119 21.638 96.2 21.906 97.081 22.19 C 97.74 22.402 99.468 22.805 100.181 22.462 C 103.562 20.83 101.755 13.372 99.898 11.58 C 99.741 11.428 97.854 6.479 97.363 6.955 C 96.302 7.979 96.236 10.937 96.236 12.396" style="fill: url(#caesar-gradient-5);" transform="matrix(0.927184, -0.374606, 0.374606, 0.927184, 1.587456, 37.684756)"/>
  <path d="M 70.83 37.96 C 72.183 37.96 76.959 36.019 78.227 37.287 C 78.415 37.475 82.145 38.632 82.599 38.632 C 83.489 38.632 86.803 39.136 87.306 38.632 C 90.124 35.814 95.952 36.951 100.084 36.951" style="stroke-opacity: 0.39; fill: none; stroke: rgb(0, 0, 0);"/>
  <path d="M 73.351 33.651 C 74.285 33.651 77.578 32.935 78.453 33.403 C 78.582 33.472 81.155 33.899 81.468 33.899 C 82.082 33.899 84.367 34.085 84.714 33.899 C 86.658 32.859 90.677 33.279 93.527 33.279" style="stroke-opacity: 0.39; fill: none; stroke: rgb(0, 0, 0);"/>
  <path d="M 87.642 89.407 C 87.642 87.65 88.417 85.708 90.332 85.708" style="stroke: rgb(0, 0, 0); fill: rgb(216, 216, 216);"/>
  <path d="M 60.192 108.54 C 58.298 102.858 53.405 102.678 50.858 97.583 C 50.406 96.678 49.072 94.256 48.423 93.931 C 47.145 93.292 47.557 90.746 47.252 89.216 C 47.071 88.315 48.315 86.528 49.235 86.221 C 52.454 85.148 56.288 85.914 59.209 84.94 C 60.27 84.586 61.625 85.608 62.752 86.735 C 63.994 87.977 63.767 88.555 64.718 89.982 C 69.756 97.538 76.188 115.726 60.191 107.728" style="fill: rgb(202, 51, 51); stroke: rgb(202, 51, 51);"/>
  <polygon style="fill: rgb(216, 216, 216); stroke: rgb(0, 0, 0);" points="-79.093 200.342"/>
  <path d="M 63.191 293.782 C 59.439 301.286 53.561 303.796 48.213 309.144 C 46.074 311.284 45.466 315.614 47.445 317.593 C 48.669 318.817 57.842 319.884 60.119 318.746 C 62.07 317.77 63.853 315.779 65.495 314.137 C 67.26 312.373 70.699 310.994 72.792 310.297 C 76.184 309.166 78.56 305.681 80.858 303.384 C 82.98 301.261 78.839 293.782 77.785 293.782" style="stroke: rgb(255, 222, 223); fill: rgb(255, 222, 223);"/>
  <path d="M 104.552 303.751 C 103.157 306.543 105.61 308.21 106.953 309.553 C 107.989 310.588 110.917 311.529 112.154 312.353 C 113.754 313.42 117.435 313.234 118.555 314.353 C 118.855 314.653 121.982 314.767 122.355 314.953 C 124.889 316.221 126.034 315.954 128.957 315.954 C 131.126 315.954 134.814 317.819 135.758 315.154 C 137.623 309.888 132.101 304.734 128.846 301.479 C 128.179 300.812 128.087 299.816 127.157 299.351 C 119.738 295.642 110.397 301.93 105.152 304.552" style="stroke: rgb(154, 58, 10); fill: rgb(154, 58, 10);"/>
  <path d="M 106.205 294.934 C 104.504 295.785 104.277 304.527 105.821 306.072 C 111.143 311.393 118.015 311.033 125.024 313.369 C 127.815 314.299 133.725 315.037 135.777 312.985 C 137.038 311.724 134.28 306.339 133.713 305.207 C 132.52 302.819 131.022 302.489 129.058 300.525 C 127.028 298.494 124.682 296.897 123.104 295.318 C 121.101 293.315 111.243 292.8 108.51 294.166 C 108.013 294.415 107.619 296.331 107.357 296.855" style="fill: rgb(255, 222, 223); stroke: rgb(255, 222, 223);"/>
  <path d="M 44.957 313.247 C 48.874 309.331 57.947 312.006 60.61 315.557 C 61.138 316.26 62.294 317.306 62.294 318.949" style="stroke: rgb(154, 58, 10); fill: none;"/>
  <path d="M 47.954 308.015 C 49.542 307.618 50.108 306.527 51.803 305.962 C 57.366 304.108 67.939 307.999 67.939 313.817" style="stroke: rgb(154, 58, 10); fill: none;"/>
  <path d="M 54.839 302.783 C 58.524 302.256 63.197 299.41 67.156 300.73 C 69.835 301.623 73.563 304.813 75.638 306.888 C 76.332 307.583 76.057 309.104 76.921 309.968" style="fill: none; stroke: rgb(154, 58, 10);"/>
  <path d="M 125.485 314.617 C 125.485 310.988 128.133 309.067 130.234 306.966 C 130.876 306.324 133.985 305.688 134.768 306.166" style="stroke: rgb(154, 58, 10); fill: none;"/>
  <path d="M 114.933 312.506 C 119.381 308.058 123.012 300.742 129.962 300.742" style="stroke: rgb(154, 58, 10); fill: none;"/>
  <path d="M 109.103 309.704 C 111.306 306.032 114.111 300.938 117.557 299.214 C 118.814 298.586 120.622 298.465 121.941 297.805 C 122.733 297.409 124.834 297.335 125.542 297.335" style="stroke: rgb(154, 58, 10); fill: none;"/>
  <line style="stroke: rgb(154, 58, 10); fill: none;" x1="62.605" y1="294.987" x2="78.418" y2="287.472"/>
  <line style="stroke: rgb(154, 58, 10); fill: none;" x1="78.574" y1="294.048" x2="62.918" y2="288.568"/>
  <line style="stroke: rgb(154, 58, 10); fill: none;" x1="62.449" y1="288.098" x2="79.514" y2="280.114"/>
  <line style="stroke: rgb(154, 58, 10); fill: none;" x1="78.261" y1="287.472" x2="61.979" y2="280.584"/>
  <line style="stroke: rgb(154, 58, 10); fill: none;" x1="61.979" y1="280.584" x2="80.609" y2="272.286"/>
  <line style="stroke: rgb(154, 58, 10); fill: none;" x1="79.67" y1="280.114" x2="61.822" y2="271.973"/>
  <line style="stroke: rgb(154, 58, 10); fill: none;" x1="61.822" y1="271.973" x2="81.079" y2="264.458"/>
  <line style="stroke: rgb(154, 58, 10); fill: none;" x1="81.236" y1="272.286" x2="61.353" y2="263.362"/>
  <line style="stroke: rgb(154, 58, 10); fill: none;" x1="61.666" y1="263.206" x2="80.923" y2="264.302"/>
  <path d="M 62.136 295.613 C 63.43 294.643 64.805 294.868 66.206 294.517 C 72.878 292.849 78.406 296.071 82.488 300.153" style="stroke: rgb(154, 58, 10); fill: none;"/>
  <path d="M 105.317 296.929 C 105.1 296.398 108.495 295.204 110.175 294.5 C 111.482 293.952 113.122 293.981 114.512 293.286 C 115.394 292.845 117.898 293.373 118.677 293.633 C 120.352 294.191 121.214 293.286 122.841 294.327" style="stroke: rgb(154, 58, 10); fill: none;"/>
  <line style="stroke: rgb(154, 58, 10);" x1="105.143" y1="295.715" x2="120.932" y2="286.172"/>
  <line style="stroke: rgb(154, 58, 10);" x1="121.626" y1="293.459" x2="103.928" y2="288.254"/>
  <line style="stroke: rgb(154, 58, 10);" x1="103.928" y1="288.254" x2="120.412" y2="280.099"/>
  <line style="stroke: rgb(154, 58, 10);" x1="120.759" y1="286.172" x2="102.54" y2="281.14"/>
  <line style="stroke: rgb(154, 58, 10);" x1="102.714" y1="280.967" x2="120.065" y2="273.679"/>
  <line style="stroke: rgb(154, 58, 10);" x1="120.585" y1="279.926" x2="100.979" y2="273.506"/>
  <line style="stroke: rgb(154, 58, 10);" x1="100.979" y1="273.506" x2="119.718" y2="265.524"/>
  <line style="stroke: rgb(154, 58, 10);" x1="120.412" y1="273.853" x2="100.285" y2="266.045"/>
  <line style="stroke: rgb(154, 58, 10);" x1="100.285" y1="266.218" x2="119.891" y2="265.351"/>
  <path d="M 106.135 253.085 C 106.135 252.625 108.008 252.832 108.417 252.832 C 109.668 252.832 113.236 252.375 113.236 250.803" style="stroke: rgb(0, 0, 0); fill: none;"/>
  <path d="M 65.813 252.578 C 67.103 253.868 71.398 254.348 72.914 252.832" style="stroke: rgb(0, 0, 0); fill: none;"/>
  <path style="fill: rgb(130, 98, 87);" transform="matrix(-0.041414, -0.246173, 0.246173, -0.041414, 78.904312, 311.200439)" d="M 804 511 A 36.014 36.014 0 0 1 805 438.986 L 805 475 Z" bx:shape="pie 805 475 0 36.014 181.591 360 1@99920fa8"/>
  <ellipse style="stroke-width: 0px; fill: url(#caesar-gradient-4);" cx="88.472" cy="185.122" rx="7.068" ry="4.099"/>
  <circle style="stroke-width: 0px; fill: url(#caesar-gradient-8); fill-opacity: 0.36;" cx="218.897" cy="162.75" r="5.975" transform="matrix(2.283096, 0, 0, 2.14872, -431.351593, -283.713074)"/>
  <circle style="stroke-width: 0px; fill-opacity: 0.36; fill: url(#caesar-gradient-3);" cx="218.897" cy="162.75" r="5.975" transform="matrix(2.283096, 0, 0, 2.14872, -391.005768, -284.600037)"/>
</svg>