<?xml version="1.0" encoding="utf-8"?>
<svg viewBox="0 0 500 500" xmlns="http://www.w3.org/2000/svg" xmlns:bx="https://boxy-svg.com">
  <defs>
    <pattern id="pattern-0" x="0" y="0" width="25" height="25" patternUnits="userSpaceOnUse" viewBox="0 0 100 100">
      <rect x="0" y="0" width="50" height="100" style="fill: black;"/>
    </pattern>
    <linearGradient id="gradient-3" gradientUnits="userSpaceOnUse" x1="239.277" y1="93.113" x2="239.277" y2="227.429" gradientTransform="matrix(1, 0, 0, 0.834278, 0.000005, 37.690059)">
      <stop offset="0" style="stop-color: rgb(255, 222, 223);"/>
      <stop offset="1" style="stop-color: rgb(246, 201, 210);"/>
    </linearGradient>
    <linearGradient id="gradient-0" gradientUnits="userSpaceOnUse" x1="205.05" y1="112.688" x2="205.05" y2="128.36">
      <stop offset="0" style="stop-color: rgba(187, 218, 85, 1)"/>
      <stop offset="1" style="stop-color: rgba(135, 165, 36, 1)"/>
    </linearGradient>
    <linearGradient id="gradient-1" gradientUnits="userSpaceOnUse" x1="219.684" y1="103.527" x2="219.684" y2="119.199">
      <stop offset="0" style="stop-color: rgba(187, 218, 85, 1)"/>
      <stop offset="1" style="stop-color: rgba(135, 165, 36, 1)"/>
    </linearGradient>
    <linearGradient id="gradient-2" gradientUnits="userSpaceOnUse" x1="223.274" y1="101.865" x2="223.274" y2="117.537">
      <stop offset="0" style="stop-color: rgba(187, 218, 85, 1)"/>
      <stop offset="1" style="stop-color: rgba(135, 165, 36, 1)"/>
    </linearGradient>
    <linearGradient id="gradient-5" gradientUnits="userSpaceOnUse" x1="245.803" y1="103.211" x2="245.803" y2="118.883">
      <stop offset="0" style="stop-color: rgba(187, 218, 85, 1)"/>
      <stop offset="1" style="stop-color: rgba(135, 165, 36, 1)"/>
    </linearGradient>
    <linearGradient id="gradient-6" gradientUnits="userSpaceOnUse" x1="251.292" y1="113.614" x2="251.292" y2="129.286">
      <stop offset="0" style="stop-color: rgba(187, 218, 85, 1)"/>
      <stop offset="1" style="stop-color: rgba(135, 165, 36, 1)"/>
    </linearGradient>
    <linearGradient id="gradient-7" gradientUnits="userSpaceOnUse" x1="261.943" y1="112.289" x2="261.943" y2="127.961">
      <stop offset="0" style="stop-color: rgba(187, 218, 85, 1)"/>
      <stop offset="1" style="stop-color: rgba(135, 165, 36, 1)"/>
    </linearGradient>
    <linearGradient id="gradient-9" gradientUnits="userSpaceOnUse" x1="235.519" y1="178.36" x2="235.519" y2="279.139" spreadMethod="pad">
      <stop offset="0" style="stop-color: rgb(242, 240, 240);"/>
      <stop offset="1" style="stop-color: rgb(188, 188, 188);"/>
    </linearGradient>
  </defs>
  <path d="M 194.062 200.77 C 191.395 204.77 190.622 208.656 189.192 212.944 C 187.677 217.489 183.299 222.798 180.671 226.741 C 176.44 233.087 173.361 239.732 168.497 244.595 C 168.042 245.05 169.582 249.215 169.714 249.871 C 170.472 253.631 172.797 254.286 176.207 252.711 C 182.533 249.788 180.5 251.835 182.7 247.436 C 188.289 236.257 195.246 221.937 200.96 210.509 C 204.076 204.277 198.605 197.038 193.25 202.393" style="fill: rgb(255, 222, 223); stroke: rgb(255, 222, 223);"/>
  <path d="M 198.93125119968298 188.19038581804446 C 197.77549908614688 187.61251150596408 191.05656629057893 196.6241241750873 192.0327606201172 199.55259704589844 C 193.12457590698207 202.8279197462802 198.9483906491657 204.8450428708454 201.3660125732422 207.26266479492188 C 202.12917225173243 208.02582447341211 204.8736280537065 210.9870522451194 205.82972717285156 210.50900268554688 C 206.2716973103818 210.28801761678176 205.82972717285156 204.26617311281936 205.82972717285156 203.6105194091797 C 205.82972717285156 197.68668480618098 204.88070687900648 188.1903839111328 198.52545166015625 188.1903839111328" style="fill: rgb(163, 33, 33); stroke: rgb(163, 33, 33);"/>
  <path d="M 267.105 195.495 C 269.028 194.533 273.112 205.48 274.003 207.263 C 277.317 213.891 282.352 220.947 284.96 228.77 C 286.551 233.543 288.215 237.31 290.235 241.349 C 290.781 242.44 293.684 247.488 293.887 248.654 C 294.828 254.059 292.236 254.362 289.829 256.77 C 289.413 257.185 286.576 261.667 286.18 261.243 C 277.748 252.215 279.43 249.869 277.249 243.378 C 273.458 232.094 271.391 224.357 265.887 213.35 C 263.901 209.377 266.428 203.745 263.047 200.364" style="stroke: rgb(255, 222, 223); fill: rgb(255, 222, 223);"/>
  <path d="M 258.9886378412518 209.29162977319027 C 260.45129213727944 205.63501428570768 259.8372824180427 199.29410994227183 261.8291931152344 196.30624389648438 C 263.3121240291642 194.08184752558964 262.95618620565295 190.40011232990497 264.2639465332031 187.7845916748047 C 265.85955451391675 184.5933757133774 272.23836485568654 193.32424132053032 272.7856140136719 193.87149047851562 C 273.3820766721064 194.46795313695014 269.0682089771157 198.05991688463578 268.7276611328125 198.7410125732422 C 267.2481602676533 201.70001430356055 263.0710199638095 208.48004150390625 259.3944396972656 208.48004150390625" style="stroke: rgb(163, 33, 33); fill: rgb(163, 33, 33);"/>
  <path d="M 206.7587391651187 275.75000949679037 C 204.72771120973633 276.76548900174987 204.84632611934748 281.8673453198988 203.89309692382812 283.7738037109375 C 202.09770732388364 287.36458291082647 199.59497756855814 290.50731852053576 198.1618194580078 294.0901184082031 C 196.92812768141377 297.17426573713954 196.45668649754217 300.6524519008921 195.00961303710938 303.5467529296875 C 194.63023686718202 304.3055456716902 198.80496533284852 306.52065881306794 199.59463500976562 306.1258239746094 C 201.68558950117057 305.08034672890693 201.50251796753713 300.33420888426 202.74684143066406 298.6751403808594 C 206.24303848260055 294.0136270505765 208.5065142706247 288.2454547893279 209.91094970703125 282.6275634765625 C 210.1414465081427 281.7055517250665 212.26671142123504 277.24609679721164 211.6303253173828 276.6097106933594 C 209.75487053409586 274.7342559100724 207.9123165113971 277.1828308105469 206.47216796875 277.1828308105469" style="fill: rgb(164, 23, 23); stroke: rgb(103, 13, 13);"/>
  <path d="M 200.171 305.983 C 201.304 305.983 206.542 308.921 206.759 308.705 C 207.45 308.013 207.688 304.555 208.192 303.547 C 211.344 297.243 213.519 289.74 216.502 283.774 C 216.832 283.114 217.761 278.442 217.075 277.756 C 216.524 277.205 214.362 278.119 213.636 277.756 C 213.371 277.624 211.505 276.449 211.344 276.61 C 209.713 278.241 210.823 283.435 209.051 285.207 C 208.129 286.128 208.307 288.817 207.332 289.792 C 205.182 291.942 205.211 294.893 203.893 297.529 C 202.67 299.975 200.599 301.79 200.599 305.411" style="fill: rgb(164, 23, 23); stroke: rgb(103, 13, 13);"/>
  <path d="M 207.33186759369914 307.8452014972954 C 208.46975802854539 308.22450631997026 209.6706938539109 308.0516910394091 210.77064514160156 308.4183349609375 C 211.2284927176204 308.57094811082186 213.30031331377342 309.66338094081254 213.34971618652344 309.5645751953125 C 214.37485216256104 307.5143032432373 213.4806616612526 305.44648984219344 214.20941162109375 303.2601623535156 C 216.19436839555598 297.30508063963106 217.52491956452113 291.0208484584272 219.36756896972656 285.4931945800781 C 219.81595047405895 284.1481216897056 219.7671285847209 277.06997459425605 216.78848266601562 280.0484619140625 C 216.42066928653395 280.41625570921 216.9635321829141 282.10239628374603 216.78848266601562 282.6275634765625 C 215.95729658791822 285.1212102290739 215.18904206100441 288.11882082834455 213.9228515625 290.6513366699219 C 212.8678551708546 292.761441806396 213.01523529223152 295.3323477938717 211.91690063476562 297.5289001464844 C 210.59896305395 300.164634960149 206.7587432861328 304.8130728775495 206.7587432861328 307.5586242675781" style="fill: rgb(164, 23, 23); stroke: rgb(103, 13, 13);"/>
  <path d="M 225.67197730827345 282.6275506397557 C 225.9961733951019 282.3033373677888 230.54658792523986 281.19775658746386 230.83013916015625 281.4812927246094 C 231.46902425964396 282.1201438064676 230.83013916015625 286.9123395163855 230.83013916015625 287.78570556640625 C 230.83013916015625 292.88697247992746 231.11669921875 297.6544816474841 231.11669921875 302.6870422363281 C 231.11669921875 304.0896923318335 231.75811838809506 307.42205668084114 231.11669921875 308.70489501953125 C 230.75639037731065 309.42551270240995 223.07412190826088 309.2592267786006 222.519775390625 308.70489501953125 C 221.95852494125913 308.1436595125378 221.85066801929787 307.17473628617586 221.6600799560547 306.4123840332031 C 219.57290975481322 298.0637032282372 225.67198181152344 290.6011061705203 225.67198181152344 282.6275634765625" style="fill: rgb(164, 23, 23); stroke: rgb(103, 13, 13);"/>
  <path d="M 230.83 309.278 C 231.593 308.516 235.939 309.664 236.275 308.991 C 239.279 302.983 236.275 293.703 236.275 287.499 C 236.275 285.212 235.666 280.926 232.263 282.628 C 230.72 283.399 231.403 287.437 231.403 289.219 C 231.403 294.491 231.117 299.657 231.117 304.98 C 231.117 306.724 231.06 307.794 232.119 308.853" style="fill: rgb(164, 23, 23); stroke: rgb(103, 13, 13);"/>
  <path d="M 218.221 278.902 C 220.15 279.384 224.991 281.265 225.672 282.628 C 225.78 282.844 224.526 285.696 224.526 286.639 C 224.526 292.48 223.734 298.471 221.947 303.833 C 221.636 304.764 222.408 308.769 221.372 309.286 C 220.525 309.71 214.434 309.614 213.491 309.143 C 212.087 308.441 213.636 309.147 213.636 308.418 C 213.636 304.391 213.328 298.432 215.069 294.95 C 217.417 290.254 218.794 285.643 218.794 279.475" style="fill: rgb(164, 23, 23); stroke: rgb(103, 13, 13);"/>
  <path d="M 243.439 308.132 C 246.559 308.132 246.272 308.292 247.737 307.559 C 248.114 307.371 247.451 303.158 247.451 302.974 C 247.451 299.593 246.54 295.607 245.731 292.371 C 245.362 290.891 246.402 288.553 245.731 287.213 C 245.011 285.771 244.737 281.119 241.72 282.628 C 240.828 283.074 241.146 286.549 241.146 287.499 C 241.146 292.689 240.86 297.58 240.86 302.687 C 240.86 304.407 241.119 307.225 241.86 308.708 C 242.12 309.228 243.579 308.574 243.579 307.993" style="fill: rgb(164, 23, 23); stroke: rgb(103, 13, 13);"/>
  <path d="M 248.3105502372011 307.55863728300517 C 249.18578178136997 307.30856095587393 253.81953931428666 306.9212443771196 254.32839965820312 306.4123840332031 C 255.15214957070046 305.5886341207058 252.6090087890625 301.84354136999497 252.6090087890625 300.68109130859375 C 252.6090087890625 299.1497162648269 251.66772709005582 295.35974617229914 250.88963317871094 293.8035583496094 C 248.84132165095855 289.7069352941046 251.2823164275643 284.1665022185799 248.02398681640625 280.9081726074219 C 246.69216899970277 279.57635479071837 244.8690656698846 282.0571351243364 244.58522033691406 282.3409729003906 C 242.68494390191114 284.2411987436512 244.19045116951943 290.3266673020744 245.15834045410156 293.2304382324219 C 245.48908746780063 294.2227144968432 244.96467035920926 295.7087291461529 245.4449005126953 296.669189453125 C 247.1311878157718 300.04176405927797 247.16429138183594 304.6316036646991 247.16429138183594 308.70489501953125" style="fill: rgb(164, 23, 23); stroke: rgb(103, 13, 13);"/>
  <path d="M 253.46870609442516 281.19472956830464 C 254.6541411373414 281.1947326660156 256.59445154507284 279.17555218855205 257.19403076171875 279.475341796875 C 258.15237229649375 279.9545125642625 259.1831539726412 284.5663327619563 259.4865417480469 285.7797546386719 C 260.77898054414436 290.94895932203053 262.9705781996393 296.2316246690324 264.64471435546875 301.25421142578125 C 265.09661050666375 302.6099480046219 266.9430477782785 305.25468325183914 266.0775451660156 306.9855041503906 C 265.79345208417345 307.55362981080975 259.38143925612957 306.59384159987957 258.9134216308594 306.1258239746094 C 257.6476478047821 304.8600501485321 258.432599984501 299.9137096036416 257.19403076171875 298.6751403808594 C 255.69304714398697 297.1741567631276 255.18809509277344 293.05270094971803 255.18809509277344 290.93792724609375 C 255.18809509277344 290.1588236614349 255.62385632579273 287.5796730408679 255.18809509277344 286.926025390625 C 254.07117817701806 285.2506351489517 253.5799941906399 282.8500400097565 252.6090087890625 280.9081726074219" style="fill: rgb(164, 23, 23); stroke: rgb(103, 13, 13);"/>
  <path d="M 257.4806050944883 279.47534428256324 C 258.0313497830437 278.9246121594706 259.10413861984324 276.41849387046847 260.0596923828125 276.8962707519531 C 260.8359623632987 277.2844057421962 261.159638364861 282.00811858947037 262.0656433105469 282.91412353515625 C 266.307469015878 287.15594924048736 267.87485322369895 292.8131524923198 270.3760070800781 297.8154602050781 C 271.24124244119855 299.545930927319 270.82187095648027 301.50918416484774 271.5222473144531 303.2601623535156 C 271.7924187286516 303.9356052751361 272.8963858890161 304.75174017886457 272.3819580078125 305.26611328125 C 271.5557067006253 306.0922766051226 266.6025265033701 306.9375128350976 265.50439453125 305.8392639160156 C 264.85548203178223 305.1902823097854 265.06513856693033 303.527913046057 264.64471435546875 302.6870422363281 C 261.68764005411117 296.77273617491744 259.9396258650002 290.29113711648506 257.7671813964844 283.7738037109375 C 257.26126012684864 282.2560399020303 258.13064156548944 279.55227242486444 256.907470703125 278.3291015625" style="fill: rgb(164, 23, 23); stroke: rgb(103, 13, 13);"/>
  <path d="M 263.785 276.323 C 266.916 277.367 266.781 279.892 268.657 281.768 C 273.809 286.92 274.787 291.85 276.967 298.389 C 277.38 299.629 279.833 301.986 279.833 303.26 C 279.833 303.322 272.787 305.068 272.527 304.547 C 271.126 301.745 271.463 297.154 269.803 294.663 C 268.716 293.032 267.023 290.737 265.504 289.219 C 264.553 288.267 265.514 286.076 264.645 285.207 C 263.946 284.508 262.234 282.963 261.779 282.054 C 261.356 281.208 259.343 276.323 261.206 276.323" style="fill: rgb(164, 23, 23); stroke: rgb(103, 13, 13);"/>
  <path d="M 236.278 309.277 C 237.162 307.509 241.745 309.539 242.866 308.418 C 243.302 307.982 242.35 303.375 242.006 302.687 C 241.469 301.612 242.006 298.774 242.006 297.529 C 242.006 293.238 242.703 288.319 240.86 284.634 C 240.588 284.09 241.273 282.468 240.86 282.054 C 240.254 281.448 236.946 282.144 236.561 282.914 C 236.048 283.941 236.561 286.64 236.561 287.786 C 236.561 290.382 235.022 294.343 235.988 297.242 C 236.884 299.929 238.4 306.3 235.706 308.994" style="fill: rgb(164, 23, 23); stroke: rgb(103, 13, 13);"/>
  <path d="M 255.1880913801665 306.4123804258443 C 256.3297226133067 305.84157027293645 257.86856686982367 306.64825135512723 258.9134216308594 306.1258239746094 C 259.5810455651898 305.79201200744416 258.4014765110274 304.5593705988576 258.3403015136719 304.40643310546875 C 257.46593854734334 302.22052568964733 256.84829040429076 299.35733439281296 256.04779052734375 296.95574951171875 C 254.69829503608412 292.9071193217001 255.7339971827346 284.03299461014603 252.8955841064453 281.1947326660156 C 252.75958009731494 281.05873589845964 249.86924093565366 281.0688694159088 249.74337768554688 281.1947326660156 C 248.46764307406048 282.47046727750205 250.31649780273438 288.8625549254238 250.31649780273438 290.3647766113281 C 250.31649780273438 292.7772469877126 250.31948044418124 294.96166843063077 250.88963317871094 297.2423400878906 C 251.76346753528279 300.7377705742798 254.32839965820312 303.48805632385614 254.32839965820312 307.2720642089844" style="fill: rgb(164, 23, 23); stroke: rgb(103, 13, 13);"/>
  <path d="M 206.236 268.132 C 206.236 268.842 205.739 276.405 206.236 276.653 C 209.197 278.134 211.931 279.298 214.757 280.712 C 216.705 281.686 218.49 281.766 222.467 281.928 C 225.017 282.032 228.274 282.241 230.989 283.146 C 234.343 284.264 238.912 282.335 242.351 282.335 C 248.111 282.335 257.139 280.457 261.018 277.87 C 265.135 275.126 263.452 276.177 263.452 270.566 C 263.452 269.92 263.864 266.92 263.452 266.508 C 262.977 266.033 260.225 266.631 259.8 266.914 C 256.714 268.971 253.458 270.427 249.655 271.378 C 244.174 272.748 237.479 270.839 233.018 273.813 C 228.287 276.967 220.331 267.825 216.38 266.508 C 213.715 265.62 207.047 266.729 207.047 269.349" style="fill: rgb(163, 82, 60); stroke: rgb(163, 82, 60);"/>
  <path d="M 210.699 186.567 C 208.925 191.891 208.59 202.068 205.018 205.639 C 203.945 206.712 205.018 215.192 205.018 216.596 C 205.018 227.552 205.018 238.509 205.018 249.465 C 205.018 255.6 204.635 261.752 205.83 267.726 C 206.188 269.518 214.225 274.911 215.975 275.436 C 229.163 279.393 231.847 279.613 244.38 278.682 C 250.54 278.224 251.244 277.888 256.959 275.03 C 260.024 273.498 262.049 271.157 265.075 268.131 C 266.962 266.245 266.501 261.4 266.293 258.798 C 265.458 248.362 266.924 243.828 265.481 230.799 C 265.01 226.543 266.153 219.689 265.076 215.379 C 262.098 203.468 268.72 192.142 258.583 184.538 C 256.311 182.835 252.338 179.122 249.655 178.452 C 247.241 177.848 239.773 180.432 237.482 179.668 C 230.095 177.206 211.511 178.389 211.511 189.408" style="stroke: rgb(229, 229, 229); fill: url(#gradient-9); paint-order: stroke markers; stroke-width: 0px;"/>
  <circle style="fill: url(#gradient-3);" cx="239.277" cy="160.271" r="67.158" transform="matrix(0.516823, 0, 0, 0.634466, 110.251991, 49.272995)"/>
  <path d="M 254.118 182.915 C 257.134 182.915 260.164 182.09 262.641 182.915 C 274.936 187.013 266.01 199.429 260.206 205.234 C 255.128 210.312 246.618 201.57 249.655 195.495 C 251.824 191.157 254.525 187.433 254.525 182.51" style="fill: rgb(202, 51, 51); stroke: rgb(202, 51, 51);"/>
  <ellipse style="fill: rgb(255, 255, 255);" cx="222.912" cy="145.316" rx="11.287" ry="3.668"/>
  <ellipse style="fill: rgb(255, 255, 255);" cx="249.999" cy="145.021" rx="11.287" ry="3.668"/>
  <circle style="" cx="343.102" cy="148.354" r="6.598" transform="matrix(0.444056, 0, 0, 0.473315, 70.855858, 75.046837)"/>
  <circle style="" cx="343.102" cy="148.354" r="6.598" transform="matrix(0.444056, 0, 0, 0.473315, 97.565155, 74.801147)"/>
  <path d="M 238.686 151.526 C 238.686 151.058 246.954 162.192 244.665 164.481 C 242.684 166.462 238.138 165.976 235.198 165.976" style="stroke: rgb(0, 0, 0); fill: none;"/>
  <path d="M 228.222 176.938 C 229.581 176.938 229.528 175.34 230.713 174.945 C 233.14 174.136 244.167 173.034 244.167 176.44" style="stroke: rgb(0, 0, 0); fill: none;"/>
  <ellipse style="fill: rgb(252, 214, 224);" cx="191.571" cy="151.704" rx="3.239" ry="7.88" transform="matrix(0.970296, -0.241922, 0.241922, 0.970296, -25.145285, 51.034748)" bx:origin="1.344 0.598"/>
  <ellipse style="fill: rgb(252, 214, 224);" cx="191.571" cy="151.704" rx="3.239" ry="7.88" transform="matrix(0.956305, 0.292372, -0.292372, 0.956305, 130.835114, -50.820293)" bx:origin="1.344 0.598"/>
  <ellipse style="fill: rgb(237, 237, 237);" cx="213.499" cy="140.02" rx="2.087" ry="1.284"/>
  <ellipse style="fill: rgb(239, 239, 239);" cx="216.71" cy="139.539" rx="1.766" ry="1.605"/>
  <ellipse style="fill: rgb(239, 239, 239);" cx="219.137" cy="139.378" rx="1.766" ry="1.605"/>
  <ellipse style="fill: rgb(239, 239, 239);" cx="221.172" cy="139.652" rx="1.766" ry="1.605"/>
  <ellipse style="fill: rgb(239, 239, 239);" cx="224.365" cy="139.743" rx="1.766" ry="1.605"/>
  <ellipse style="fill: rgb(239, 239, 239);" cx="227.101" cy="139.926" rx="1.766" ry="1.605"/>
  <ellipse style="fill: rgb(239, 239, 239);" cx="229.656" cy="140.382" rx="1.766" ry="1.605"/>
  <ellipse style="fill: rgb(239, 239, 239);" cx="240.602" cy="139.743" rx="1.766" ry="1.605"/>
  <ellipse style="fill: rgb(239, 239, 239);" cx="243.521" cy="139.196" rx="1.766" ry="1.605"/>
  <ellipse style="fill: rgb(239, 239, 239);" cx="245.984" cy="139.105" rx="1.766" ry="1.605"/>
  <ellipse style="fill: rgb(239, 239, 239);" cx="249.359" cy="139.105" rx="1.766" ry="1.605"/>
  <ellipse style="fill: rgb(239, 239, 239);" cx="251.913" cy="139.105" rx="1.766" ry="1.605"/>
  <ellipse style="fill: rgb(239, 239, 239);" cx="254.102" cy="139.287" rx="1.766" ry="1.605"/>
  <ellipse style="fill: rgb(239, 239, 239);" cx="256.748" cy="139.652" rx="1.766" ry="1.605"/>
  <ellipse style="fill: rgb(216, 216, 216);" cx="200.759" cy="140.106" rx="6.733" ry="6.017"/>
  <ellipse style="fill: rgb(216, 216, 216);" cx="205.916" cy="132.228" rx="4.154" ry="4.441"/>
  <ellipse style="fill: rgb(216, 216, 216);" cx="199.756" cy="134.09" rx="4.871" ry="3.725"/>
  <ellipse style="fill: rgb(229, 229, 229);" cx="207.062" cy="127.357" rx="3.295" ry="3.295"/>
  <ellipse style="fill: rgb(216, 216, 216);" cx="267.371" cy="138.817" rx="5.157" ry="6.16"/>
  <ellipse style="fill: rgb(216, 216, 216);" cx="265.222" cy="131.225" rx="5.014" ry="4.871"/>
  <ellipse style="fill: rgb(229, 229, 229);" cx="260.495" cy="126.641" rx="3.438" ry="3.725"/>
  <ellipse style="fill: rgb(229, 229, 229);" cx="264.363" cy="125.065" rx="3.008" ry="2.722"/>
  <ellipse style="fill: rgb(229, 229, 229);" cx="203.194" cy="129.363" rx="4.298" ry="4.154"/>
  <ellipse style="fill: rgb(229, 229, 229);" cx="209.497" cy="123.06" rx="3.438" ry="2.722"/>
  <ellipse style="fill: rgb(229, 229, 229);" cx="257.63" cy="121.484" rx="3.725" ry="3.152"/>
  <ellipse style="fill: rgb(229, 229, 229);" cx="260.781" cy="123.203" rx="2.865" ry="1.719"/>
  <ellipse style="fill: rgb(196, 196, 196);" cx="202.478" cy="146.41" rx="1.862" ry="2.579"/>
  <ellipse style="fill: rgb(202, 202, 202);" cx="266.225" cy="144.547" rx="2.292" ry="2.435"/>
  <ellipse style="fill: rgb(229, 229, 229);" cx="211.789" cy="119.765" rx="1.719" ry="2.292"/>
  <ellipse style="fill: rgb(229, 229, 229);" cx="255.624" cy="118.332" rx="2.006" ry="1.433"/>
  <path d="M 204.683 116.257 C 203.258 116.257 203.474 118.278 202.992 118.977 C 202.108 120.257 199.878 124.39 201.02 126.595 C 201.439 127.403 203.52 127.671 204.401 127.955 C 205.06 128.167 206.788 128.57 207.501 128.227 C 210.882 126.595 209.075 119.137 207.218 117.345 C 207.061 117.193 205.174 112.244 204.683 112.72 C 203.622 113.744 203.556 116.702 203.556 118.161" style="fill: url(#gradient-0);" transform="matrix(0.99863, -0.052336, 0.052336, 0.99863, -6.02669, 10.896568)"/>
  <path d="M 322.80512294027284 166.5283410154135" style="fill: rgb(216, 216, 216); stroke: rgb(186, 218, 85);"/>
  <path d="M 219.317 107.096 C 217.892 107.096 218.108 109.117 217.626 109.816 C 216.742 111.096 214.512 115.229 215.654 117.434 C 216.073 118.242 218.154 118.51 219.035 118.794 C 219.694 119.006 221.422 119.409 222.135 119.066 C 225.516 117.434 223.709 109.976 221.852 108.184 C 221.695 108.032 219.808 103.083 219.317 103.559 C 218.256 104.583 218.19 107.541 218.19 109" style="fill: url(#gradient-1);" transform="matrix(0.927184, 0.374607, -0.374607, 0.927184, 52.225314, -69.458432)" bx:origin="-1.214 -0.25"/>
  <path d="M 222.907 105.434 C 221.482 105.434 221.698 107.455 221.216 108.154 C 220.332 109.434 218.102 113.567 219.244 115.772 C 219.663 116.58 221.744 116.848 222.625 117.132 C 223.284 117.344 225.012 117.747 225.725 117.404 C 229.106 115.772 227.299 108.314 225.442 106.522 C 225.285 106.37 223.398 101.421 222.907 101.897 C 221.846 102.921 221.78 105.879 221.78 107.338" style="fill: url(#gradient-2);" transform="matrix(0.927184, 0.374607, -0.374607, 0.927184, 57.352697, -75.65179)"/>
  <path d="M 261.577 115.858 C 260.152 115.858 260.368 117.879 259.886 118.578 C 259.002 119.858 256.771 123.991 257.913 126.196 C 258.332 127.004 260.414 127.272 261.295 127.556 C 261.954 127.768 263.682 128.171 264.395 127.828 C 267.776 126.196 265.969 118.738 264.112 116.946 C 263.955 116.794 262.068 111.845 261.577 112.321 C 260.516 113.345 260.45 116.303 260.45 117.762" style="fill: url(#gradient-7);" transform="matrix(0.99863, 0.052336, -0.052336, 0.99863, 6.645845, -13.544423)"/>
  <path d="M 250.925 117.183 C 249.5 117.183 249.716 119.204 249.234 119.903 C 248.35 121.183 246.12 125.316 247.262 127.521 C 247.681 128.329 249.762 128.597 250.643 128.881 C 251.302 129.093 253.03 129.496 253.743 129.153 C 257.124 127.521 255.317 120.063 253.46 118.271 C 253.303 118.119 251.416 113.17 250.925 113.646 C 249.864 114.67 249.798 117.628 249.798 119.087" style="fill: url(#gradient-6);" transform="matrix(0.927184, -0.374607, 0.374607, 0.927184, -23.879937, 96.539752)" bx:origin="-1.214 -0.25"/>
  <path d="M 245.436 106.78 C 244.011 106.78 244.227 108.801 243.745 109.5 C 242.861 110.78 240.631 114.913 241.773 117.118 C 242.192 117.926 244.273 118.194 245.154 118.478 C 245.813 118.69 247.541 119.093 248.254 118.75 C 251.635 117.118 249.828 109.66 247.971 107.868 C 247.814 107.716 245.927 102.767 245.436 103.243 C 244.375 104.267 244.309 107.225 244.309 108.684" style="fill: url(#gradient-5);" transform="matrix(0.927184, -0.374606, 0.374606, 0.927184, -23.700537, 100.165089)"/>
  <path d="M 218.903 134.248 C 220.256 134.248 225.032 132.307 226.3 133.575 C 226.488 133.763 230.218 134.92 230.672 134.92 C 231.562 134.92 234.876 135.424 235.379 134.92 C 238.197 132.102 244.025 133.239 248.157 133.239" style="stroke-opacity: 0.39; fill: none; stroke: rgb(0, 0, 0);"/>
  <path d="M 221.424 129.939 C 222.358 129.939 225.651 129.223 226.526 129.691 C 226.655 129.76 229.228 130.187 229.541 130.187 C 230.155 130.187 232.44 130.373 232.787 130.187 C 234.731 129.147 238.75 129.567 241.6 129.567" style="stroke-opacity: 0.39; fill: none; stroke: rgb(0, 0, 0);"/>
  <path d="M 235.715 185.695 C 235.715 183.938 236.49 181.996 238.405 181.996" style="stroke: rgb(0, 0, 0); fill: rgb(216, 216, 216);"/>
  <circle style="fill: rgb(255, 255, 255);" cx="250.508" cy="143.716" r="1.078"/>
  <circle style="fill: rgb(255, 255, 255);" cx="223.831" cy="143.716" r="1.078"/>
  <path d="M 208.265 204.828 C 206.371 199.146 201.478 198.966 198.931 193.871 C 198.479 192.966 197.145 190.544 196.496 190.219 C 195.218 189.58 194.773 185.662 194.468 184.132 C 194.287 183.231 196.388 182.816 197.308 182.509 C 200.527 181.436 204.532 181.86 207.453 180.886 C 208.514 180.532 210.384 181.382 211.511 182.509 C 212.753 183.751 212.183 184.329 213.134 185.756 C 218.172 193.312 224.261 212.014 208.264 204.016" style="fill: rgb(202, 51, 51); stroke: rgb(202, 51, 51);"/>
  <polygon style="fill: rgb(216, 216, 216); stroke: rgb(0, 0, 0);" points="68.98 296.63"/>
  <polygon style="fill: rgb(234, 180, 79); stroke: rgb(234, 180, 79);" points="170.717 239.799 183.595 248.674 172.148 264.733 162.49 258.394 170.359 239.799"/>
  <polygon style="stroke: rgb(234, 180, 79); fill: rgb(234, 180, 79);" points="281.537 254.033 294.141 247.934 300.647 265.011 287.636 267.451 280.317 254.439"/>
  <circle style="fill: rgb(255, 222, 223);" cx="164.535" cy="266.425" r="9.509"/>
  <circle style="fill: rgb(255, 222, 223);" cx="296.144" cy="271.689" r="9.509"/>
</svg>