<?xml version="1.0" encoding="utf-8"?>
<svg viewBox="0 0 663.471 820.812" xmlns="http://www.w3.org/2000/svg" xmlns:bx="https://boxy-svg.com">
  <defs>
    <linearGradient id="gradient-0" gradientUnits="userSpaceOnUse" x1="333.604" y1="259.816" x2="333.604" y2="287.458" gradientTransform="matrix(0.999916, 0.012966, -0.033111, 2.553372, 9.14013, -407.008606)">
      <stop offset="0" style="stop-color: rgb(250, 205, 208);"/>
      <stop offset="1" style="stop-color: rgba(225, 107, 115, 1)"/>
    </linearGradient>
    <linearGradient id="gradient-1" gradientUnits="userSpaceOnUse" x1="338.144" y1="290.419" x2="338.144" y2="301.602" gradientTransform="matrix(1, 0, 0, 1.664614, 0, -193.016632)">
      <stop offset="0" style="stop-color: rgba(233, 164, 164, 1)"/>
      <stop offset="1" style="stop-color: rgba(213, 82, 82, 1)"/>
    </linearGradient>
    <linearGradient id="gradient-2" gradientUnits="userSpaceOnUse" x1="335.808" y1="301.442" x2="335.808" y2="311.985" gradientTransform="matrix(-0.999329, 0.03663, -0.025177, -0.686864, 677.331787, 500.108551)">
      <stop offset="0" style="stop-color: rgba(208, 146, 146, 1)"/>
      <stop offset="1" style="stop-color: rgba(176, 76, 76, 1)"/>
    </linearGradient>
  </defs>
  <g transform="matrix(0.85456, 0, 0, -0.85456, 332.00235, 189.0616)" id="g284" type="head" name="head1" style="visibility: visible;">
    <path id="path286" style="fill:#facdd0;fill-opacity:1;fill-rule:nonzero;stroke:none" d="m 0,0 c -23.829,-2.151 -48.116,-5.228 -69.599,-15.761 -21.484,-10.533 -39.984,-29.887 -43.504,-53.553 -2.764,-18.586 4.077,-37.79 15.828,-52.453 11.751,-14.663 28.023,-25.159 45.201,-32.773 39.641,-17.571 88.482,-19.767 124.579,4.256 6.308,4.198 12.211,9.201 16.426,15.498 5.836,8.72 8.087,19.418 8.415,29.906 0.838,26.813 -10.591,53.549 -29.748,72.327 -19.157,18.779 -45.622,29.595 -72.421,30.809"/>
  </g>
  <g type="hat" name="hat1" transform="matrix(1, 0, 0, 1, 77.740158, 52.472206)" style="visibility: visible;">
    <g transform="matrix(0.85456, 0, 0, -0.85456, 77.863571, 208.751114)" id="g332">
      <path id="path334" style="fill:#2a2a2a;fill-opacity:1;fill-rule:nonzero;stroke:none" d="m 0,0 c 40.589,1.368 80.91,10.343 118.248,26.319 15.119,6.47 29.847,14.108 45.731,18.365 34.076,9.133 70.146,1.987 104.688,-5.185 47.185,-9.798 94.371,-19.596 141.557,-29.394 9.995,-2.075 20.524,-4.129 30.248,-1.026 9.725,3.103 9.881,5.702 7.07,15.515 -2.349,8.202 -17.164,17.057 -25,20.433 -25.554,11.011 -37.726,23.095 -62.716,35.335 -24.989,12.239 -48.812,28.337 -65.09,50.905 -10.297,14.277 -17.248,30.669 -26.566,45.603 -16.016,25.668 -39.759,47.199 -68.412,56.908 -28.654,9.71 -62.264,6.445 -86.429,-11.758 C 64.197,185.011 67.916,103.678 18.878,66.544 -6.728,47.154 -31.006,42.669 -57.458,24.449 -63.771,20.1 -80.246,11.919 -74.09,7.351 -72.534,6.197 -70.559,5.798 -68.653,5.449 -47.018,1.49 -24.937,-0.022 -2.965,0.95"/>
    </g>
    <g transform="matrix(0.85456, 0, 0, -0.85456, 273.333527, 80.050804)" id="g348">
      <path id="path350" style="fill:#ee3540;fill-opacity:1;fill-rule:nonzero;stroke:none" d="m 0,0 c -5.778,-0.245 -12.252,-0.812 -16.011,-5.208 -2.418,-2.827 -3.178,-6.734 -3.171,-10.454 0.009,-4.617 1.17,-9.418 4.245,-12.861 2.485,-2.783 5.983,-4.438 9.483,-5.735 4.511,-1.67 9.282,-2.877 14.088,-2.652 4.806,0.225 9.675,2.013 12.913,5.571 1.993,2.191 3.284,4.937 4.21,7.751 1.181,3.588 1.803,7.528 0.645,11.124 -1.56,4.844 -6.143,8.227 -11.013,9.702 -4.871,1.476 -10.062,1.348 -15.149,1.208"/>
    </g>
    <g transform="matrix(0.85456, 0, 0, -0.85456, 267.751678, 86.420448)" id="g356">
      <path id="path358" style="fill:#fff6f2;fill-opacity:1;fill-rule:nonzero;stroke:none" d="m 0,0 c -2.246,-2.642 -3.757,-5.901 -4.323,-9.322 -0.266,-1.605 -0.32,-3.292 0.233,-4.823 0.562,-1.553 1.707,-2.83 2.973,-3.891 4.467,-3.745 10.5,-5.126 16.328,-5.265 3.537,-0.084 7.483,0.442 9.748,3.159 1.622,1.947 2.024,4.614 2.218,7.14 0.216,2.81 0.17,5.895 -1.596,8.091 -1.335,1.66 -3.424,2.503 -5.458,3.138 -6.291,1.965 -13,2.578 -19.543,1.786"/>
    </g>
    <g transform="matrix(0.85456, 0, 0, -0.85456, 273.333527, 77.914406)" id="g352">
      <path id="path354" style="fill:#d73539;fill-opacity:1;fill-rule:nonzero;stroke:none" d="m 0,0 c -5.765,-0.277 -12.333,-0.765 -16.784,-4.919 -4.57,-4.263 -5.441,-11.087 -4.623,-16.996 1.916,-13.857 17.144,-20.661 30.041,-19.995 12.489,0.646 21.54,11.255 20.853,23.796 -0.815,14.869 -17.76,16.858 -29.247,16.56 -3.211,-0.084 -3.224,-5.084 0,-5 8.627,0.224 23.155,0.057 24.247,-11.56 0.903,-9.606 -6.316,-18.266 -15.853,-18.796 -9.071,-0.503 -21.98,3.623 -24.644,13.283 -1.316,4.773 -1.229,11.635 2.761,15.173 C -9.745,-5.346 -4.413,-5.212 0,-5 3.203,-4.846 3.222,0.155 0,0"/>
    </g>
    <g transform="matrix(0.85456, 0, 0, -0.85456, 266.162933, 84.449821)" id="g360">
      <path id="path362" style="fill:#fffef4;fill-opacity:1;fill-rule:nonzero;stroke:none" d="m 0,0 c -4.918,-6.269 -8.002,-15.551 -1.117,-21.571 6.179,-5.404 17.914,-8.057 25.66,-4.839 7.083,2.943 9.19,14.169 5.338,20.41 -4.802,7.779 -19.769,7.532 -27.534,6.745 -3.17,-0.321 -3.204,-5.324 0,-5 6.301,0.638 12.835,0.375 18.879,-1.696 3.259,-1.117 5.191,-3.082 5.296,-6.678 0.103,-3.556 -0.421,-7.468 -3.948,-9.137 -4.66,-2.205 -12.31,-0.553 -16.693,1.562 -3.116,1.503 -6.122,3.683 -6.117,7.491 0.004,3.278 1.811,6.678 3.772,9.177 C 5.5,-1.032 1.985,2.531 0,0"/>
    </g>
    <g transform="matrix(0.85456, 0, 0, -0.85456, 276.043884, 91.980949)" id="g364">
      <path id="path366" style="fill:#4a5ea8;fill-opacity:1;fill-rule:nonzero;stroke:none" d="m 0,0 c -2.551,-1.742 -3.735,-6.609 -1.313,-8.98 2.527,-2.473 6.96,-0.69 8.561,1.984 1.81,3.021 0.424,7.226 -3.207,7.91 -3.658,0.69 -6.775,-3.496 -4.543,-6.688 0.693,-0.991 1.648,-1.362 2.824,-1.149 2.281,0.411 3.303,3.262 2.188,5.192 C 3.487,0.04 0.891,0.952 -1.062,0.808 -6.033,0.443 -5.838,-6.779 -2.207,-8.854 2.008,-11.263 6.478,-4.897 4.471,-1.182 3.423,0.756 1.123,1.541 -0.943,0.886 -3.087,0.207 -4.485,-2.061 -4.544,-4.25 -4.619,-7.018 -2.386,-9.156 0.407,-8.472 2.901,-7.861 4.654,-5.658 5.502,-3.366 5.97,-2.099 4.978,-0.626 3.756,-0.29 2.359,0.094 1.151,-0.765 0.681,-2.036 0.522,-2.465 0.257,-2.845 -0.085,-3.149 -0.25,-3.309 -0.437,-3.439 -0.647,-3.538 0.07,-4.645 0.439,-4.897 0.46,-4.292 c 0.054,0.173 0.135,0.351 0.103,0.427 -0.23,0 -0.395,0.119 -0.496,0.357 -0.075,0.343 -0.135,0.344 -0.181,0.002 -0.137,-0.274 -0.289,-0.539 -0.457,-0.795 -0.272,-0.369 0.023,-0.448 0.887,-0.236 -0.082,-0.158 -0.161,0.42 -0.218,0.533 -0.037,0.139 -0.041,0.282 -0.013,0.429 0.221,0.311 -0.02,0.116 -0.722,-0.584 0.212,-0.054 0.423,-0.115 0.631,-0.182 0.767,-0.385 0.788,0.059 0.063,1.333 0.299,0.299 0.598,0.598 0.897,0.897 0.013,0.003 0.026,0.006 0.039,0.009 C 1.934,-2.485 2.875,-2.868 3.816,-3.251 3.969,-3.47 2.888,-4.117 3.043,-3.856 2.821,-4.229 3.164,-4.364 2.604,-4.792 2.446,-4.914 2.131,-4.957 2.01,-5.088 1.957,-5.126 1.9,-5.148 1.836,-5.155 1.479,-5.205 1.677,-5.434 2.429,-5.841 c 0.048,0.026 0.057,0.868 0.068,0.936 0.064,0.384 0.524,0.927 0.027,0.588 C 5.165,-2.514 2.667,1.821 0,0"/>
    </g>
    <g transform="matrix(0.85456, 0, 0, -0.85456, 271.269958, 22.823549)" id="g368">
      <path id="path370" style="fill:#fcf064;fill-opacity:1;fill-rule:nonzero;stroke:none" d="m 0,0 c 1.377,-12.402 1.518,-24.977 0.807,-37.427 -0.508,-8.891 -1.451,-17.789 -3.212,-26.524 -1.641,-8.141 -3.647,-16.167 -4.235,-24.478 -0.517,-7.303 -1.139,-15.563 0.105,-22.815 0.871,-5.074 4.228,-9.22 9.737,-8.854 5.644,0.376 9.21,4.939 11.32,9.746 3.284,7.485 5.699,15.475 8.185,23.254 6.019,18.842 10.787,38.054 14.394,57.5 0.584,3.146 -4.234,4.494 -4.821,1.33 -3.491,-18.819 -8.067,-37.419 -13.816,-55.677 -1.341,-4.258 -2.745,-8.497 -4.207,-12.715 -1.568,-4.522 -2.852,-9.708 -5.337,-13.828 -3.094,-5.13 -9.766,-6.6 -10.675,0.974 -0.505,4.202 -0.242,8.638 -0.194,12.862 0.214,18.494 6.043,36.264 7.455,54.688 C 6.574,-28.029 6.543,-13.901 5,0 4.649,3.163 -0.355,3.199 0,0"/>
    </g>
  </g>
  <g style="visibility: visible;" type="eyes" name="eyes1">
    <path style="fill: rgb(255, 255, 255);" transform="matrix(0.004077, -0.266854, 0.315147, 0.004815, 139.229797, 387.382111)" d="M 524 582 A 52 52 0 1 1 524 478 L 524 530 Z" bx:shape="pie 524 530 0 52 180 360 1@adc1718a"/>
    <path style="fill: rgb(255, 255, 255);" transform="matrix(0.004077, -0.266854, 0.315147, 0.004815, 188.06398, 387.376831)" d="M 524 582 A 52 52 0 1 1 524 478 L 524 530 Z" bx:shape="pie 524 530 0 52 180 360 1@adc1718a"/>
    <path style="" transform="matrix(0.001512, -0.098992, 0.116907, 0.001786, 245.930679, 301.187286)" d="M 524 582 A 52 52 0 1 1 524 478 L 524 530 Z" bx:shape="pie 524 530 0 52 180 360 1@adc1718a"/>
    <path style="" transform="matrix(0.001512, -0.098992, 0.116907, 0.001786, 294.752106, 301.196564)" d="M 524 582 A 52 52 0 1 1 524 478 L 524 530 Z" bx:shape="pie 524 530 0 52 180 360 1@adc1718a"/>
  </g>
  <g style="visibility: visible;" type="eyebrows" name="eyebrows1">
    <polygon style="" points="289.768 246.148 289.102 240.822 328.387 248.978"/>
    <polygon style="" points="338.042 243.403 337.376 248.729 376.661 240.573" transform="matrix(-1, 0, 0, -1, 714.037018, 489.302002)"/>
  </g>
  <g type="eyebrows" name="eyebrows2" style="visibility: hidden;">
    <path d="M 288.921 242.837 C 301.948 244.574 316.013 244.51 329.076 244.51 C 336.81 244.51 345.63 245.286 352.978 242.837 C 354.476 242.337 357.074 243.076 358.714 243.076 C 363.809 243.076 368.832 243.793 373.773 243.793" style="stroke: rgb(0, 0, 0); fill: rgb(216, 216, 216); stroke-linecap: round; stroke-width: 8px;"/>
  </g>
  <g type="nose" name="nose1" style="visibility: hidden;">
    <path d="M 338.953 254.446 C 338.953 260.878 341.23 267.42 345.245 271.435 C 346.228 272.418 349.737 274.782 351.222 275.525 C 351.438 275.632 354.054 276.657 354.054 277.412 C 354.054 278.075 352.635 277.572 352.166 278.041 C 350.772 279.436 347.742 279.319 346.503 280.558 C 345.596 281.466 339.524 285.992 338.324 285.592 C 337.086 285.18 336.385 283.339 335.492 282.446 C 334.03 280.983 327.375 280.181 325.739 281.817" style="fill: none; stroke: rgb(0, 0, 0); stroke-linecap: round; stroke-miterlimit: 32;"/>
  </g>
  <g type="nose" name="nose2" style="visibility: visible;">
    <circle style="fill: url(#gradient-0);" cx="333.604" cy="273.637" r="13.821"/>
  </g>
  <g type="mouth" name="mouth1" style="visibility: hidden;">
    <path d="M 311.638 299.575 C 315.854 300.981 317.814 305.56 322.069 306.978 C 329.456 309.441 339.615 307.431 347.349 307.431 C 350.615 307.431 355.669 305.391 357.063 302.604 C 357.48 301.77 360.158 299.979 359.082 298.903 C 357.81 297.631 352.439 299.114 350.67 298.23 C 347.906 296.848 344.405 298.299 341.585 299.239 C 340.06 299.747 335.781 299.534 334.518 298.903 C 331.178 297.232 325.124 299.472 321.396 298.23 C 318.853 297.382 311.974 297.133 311.974 300.585" style="fill: url(#gradient-2);"/>
    <path d="M 313.682 296.844 C 324.457 296.844 323.055 295.381 331.49 291.163 C 332.611 290.603 336.46 294.629 337.28 294.708 C 339.669 294.939 341.115 291.14 341.695 290.85 C 342.832 290.282 345.34 293.103 345.935 293.699 C 347.494 295.257 351.098 295.232 353.025 295.874 C 356.881 297.16 360.05 297.11 364.077 297.11 C 364.937 297.11 365.326 297.922 365.859 298.455 C 366.282 298.878 364.702 299.157 363.962 299.239 C 359.911 299.69 360.482 299.043 356.726 300.921 C 353.662 302.454 345.847 300.921 342.258 300.921 C 334.182 300.921 326.106 300.921 318.031 300.921 C 315.141 300.921 310.286 301.817 307.6 300.921 C 305.62 300.261 309.845 297.493 309.651 297.336" style="fill: url(#gradient-1);"/>
  </g>
  <g transform="matrix(1, 0, 0, 1, -5.285204, 0)" type="mouth" name="mouth2" style="visibility: hidden;">
    <path d="M 305.254 296.773 C 305.254 297.668 306.149 298.702 306.631 299.184 C 308.316 300.869 307.432 303.221 310.247 302.283 C 310.795 302.1 311.036 302.183 311.452 301.767 C 311.921 301.298 314.212 302.101 314.552 301.422 C 315.127 300.272 312.282 294.707 311.624 294.707" style="stroke: rgb(0, 0, 0); fill: rgb(237, 239, 195);"/>
    <path d="M 321.611 294.19 C 321.187 295.888 321.28 297.767 320.75 299.356 C 320.675 299.583 320.062 300.562 320.406 300.906 C 320.723 301.223 322.008 300.751 322.472 300.906 C 322.796 301.014 325.887 301.795 326.088 301.594 C 326.312 301.37 326.088 300.047 326.088 299.7 C 326.088 298.215 326.777 297.205 326.777 295.74" style="stroke: rgb(0, 0, 0); fill: rgb(237, 239, 195);"/>
    <path d="M 334.525 298.151 C 334.15 298.901 332.478 301.978 332.803 302.628 C 333.003 303.028 335.308 302.933 335.73 303.144 C 336.008 303.283 337.147 304.827 337.796 304.177 C 337.997 303.976 337.595 303.173 337.796 302.972 C 338.031 302.737 338.638 298.495 339.002 298.495" style="stroke: rgb(0, 0, 0); fill: rgb(237, 239, 195);"/>
    <path d="M 349.505 295.568 C 350.031 297.146 351.05 297.857 351.916 299.012 C 352.563 299.875 352.681 301.155 353.293 301.767 C 353.763 302.236 355.249 301.536 355.704 301.422 C 356.187 301.301 357.7 301.562 357.942 301.078 C 359.02 298.921 356.909 296.146 356.909 294.19" style="stroke: rgb(0, 0, 0); fill: rgb(237, 239, 195);"/>
    <path d="M 367.24 294.19 C 367.24 294.991 366.519 299.152 366.723 299.356 C 367.053 299.686 368.495 299.2 368.962 299.356 C 369.639 299.582 370.862 300.389 371.545 300.389 C 372.329 300.389 371.624 299.621 371.889 299.356 C 372.54 298.705 372.922 296.443 372.922 295.396" style="stroke: rgb(0, 0, 0); fill: rgb(237, 239, 195);"/>
    <path d="M 296.035 302.025 C 297.794 302.025 299.9 298.26 301.779 297.634 C 303.992 296.896 308.223 296.1 310.563 294.931 C 314.646 292.889 324.199 294.634 328.13 295.944 C 329.921 296.541 332.788 296.547 333.874 297.634 C 334.454 298.214 337.979 298.166 338.941 298.647 C 343.282 300.818 347.004 296.981 349.752 295.606 C 353.967 293.499 363.654 293.252 368.671 294.255 C 374.623 295.445 382.828 297.23 385.564 302.701" style="fill: none; stroke: rgb(0, 0, 0);"/>
    <path d="M 287.252 300.674 C 287.252 304.525 290.26 307.769 294.346 307.769" style="stroke: rgb(0, 0, 0); fill: none;"/>
    <path d="M 391.645 301.688 C 391.645 304.141 387.717 306.417 385.226 306.417" style="stroke: rgb(0, 0, 0); fill: none;"/>
  </g>
  <g type="mouth" name="mouth3" style="visibility: visible;">
    <path d="M 291.21 294.855 C 292.631 294.183 294.14 294.563 295.74 294.436 C 298.823 294.193 301.786 293.878 304.997 293.878 C 313.613 293.878 322.021 292.761 330.602 292.761 C 334.337 292.761 337.961 291.713 341.632 291.225 C 349.194 290.22 357.722 289.271 365.071 289.271 C 367.5 289.271 369.929 289.271 372.359 289.271 C 372.736 289.271 375.083 288.805 375.116 288.852 C 375.48 289.368 375.151 291.011 374.919 291.505 C 373.944 293.577 372.889 295.585 372.162 297.647 C 371.174 300.446 368.772 302.925 365.465 304.488 C 364.977 304.719 363.735 304.436 363.101 304.628 C 359.028 305.865 355.004 305.819 350.693 306.583 C 349.185 306.85 347.241 306.235 345.768 306.583 C 341.753 307.531 336.571 307.696 332.178 307.978 C 328.181 308.236 323.985 307.978 319.966 307.978 C 319.201 307.978 316.449 308.268 315.633 307.978 C 311.785 306.615 308.591 304.104 305.785 302.115 C 304.649 301.31 302.492 300.415 301.058 300.16 C 299.193 299.83 297.368 298.085 295.74 297.508 C 294.667 297.128 292.558 294.855 291.406 294.855" style=""/>
    <polygon style="stroke: rgb(0, 0, 0); fill: rgb(253, 253, 253);" points="301.456 294.45 333.333 293.189 351.612 290.578 371.783 289.678 365.029 304.085 342.968 306.516 316.854 307.597 311.722 305.616 313.883 301.564 304.968 294.9"/>
    <line style="stroke: rgb(0, 0, 0); stroke-linecap: round; paint-order: stroke;" x1="312.802" y1="301.384" x2="328.921" y2="301.024"/>
    <line style="stroke: rgb(0, 0, 0);" x1="362.508" y1="297.872" x2="369.712" y2="296.701"/>
    <polygon style="fill: rgb(239, 231, 147);" points="349.31 305.294 349.695 298.691 353.739 298.409 354.334 304.764"/>
  </g>
</svg>