<?xml version="1.0" encoding="utf-8"?>
<svg viewBox="350.588 -110.766 187.493 403.414" xmlns="http://www.w3.org/2000/svg">
  <defs>
    <linearGradient id="gradient-0" gradientUnits="userSpaceOnUse" x1="366.251" y1="-83.858" x2="366.251" y2="-37.733" gradientTransform="matrix(-0.323837, -0.946113, 1.704639, -0.583474, 590.645836, 281.915823)">
      <stop offset="0" style="stop-color: rgb(116, 116, 116);"/>
      <stop offset="1" style="stop-color: rgb(44, 44, 44);"/>
    </linearGradient>
    <linearGradient id="gradient-1" gradientUnits="userSpaceOnUse" x1="375.682" y1="-255.237" x2="375.682" y2="-0.741" gradientTransform="matrix(-0.008984, -0.999959, 0.008792, -0.000079, 368.177773, 436.243847)">
      <stop offset="0" style="stop-color: rgba(79, 17, 0, 1)"/>
      <stop offset="1" style="stop-color: rgb(124, 31, 5);"/>
    </linearGradient>
    <linearGradient id="gradient-2" gradientUnits="userSpaceOnUse" x1="463.944" y1="-10.438" x2="463.944" y2="1.249" gradientTransform="matrix(0.999988, -0.004836, 0.004036, 0.83453, -0.092312, 2.9138)">
      <stop offset="0" style="stop-color: rgb(204, 124, 75);"/>
      <stop offset="1" style="stop-color: rgb(171, 102, 59);"/>
    </linearGradient>
    <linearGradient id="gradient-3" gradientUnits="userSpaceOnUse" x1="464.338" y1="-54.802" x2="464.338" y2="-19.179" gradientTransform="matrix(0.999999, -0.001699, 0.001699, 1, 0.033247, 0.788706)">
      <stop offset="0" style="stop-color: rgb(255, 186, 107);"/>
      <stop offset="1" style="stop-color: rgb(240, 161, 70);"/>
    </linearGradient>
    <linearGradient id="gradient-4" gradientUnits="userSpaceOnUse" x1="485.153" y1="-102.144" x2="485.153" y2="-44.637" gradientTransform="matrix(0.964645, 0.263554, -0.220794, 0.808137, 2.043139, -138.967716)">
      <stop offset="0" style="stop-color: rgb(172, 35, 35);"/>
      <stop offset="1" style="stop-color: rgb(124, 26, 26);"/>
    </linearGradient>
    <linearGradient id="gradient-5" gradientUnits="userSpaceOnUse" x1="458.301" y1="34.7" x2="458.301" y2="243.411">
      <stop offset="0" style="stop-color: rgb(3, 9, 121);"/>
      <stop offset="1" style="stop-color: rgb(0, 3, 50);"/>
    </linearGradient>
    <linearGradient id="gradient-6" gradientUnits="userSpaceOnUse" x1="508.074" y1="28.865" x2="508.074" y2="66.298" gradientTransform="matrix(0.999525, 0.030841, -0.020718, 0.67146, 0.839737, -6.186443)">
      <stop offset="0" style="stop-color: rgb(33, 40, 186);"/>
      <stop offset="1" style="stop-color: rgb(9, 13, 120);"/>
    </linearGradient>
    <linearGradient id="gradient-7" gradientUnits="userSpaceOnUse" x1="444.195" y1="24.725" x2="444.195" y2="48.324" gradientTransform="matrix(0.996704, 0.081128, -0.065728, 0.807509, 5.19446, -28.175314)">
      <stop offset="0" style="stop-color: rgb(35, 43, 189);"/>
      <stop offset="1" style="stop-color: rgb(8, 12, 128);"/>
    </linearGradient>
    <linearGradient id="gradient-8" gradientUnits="userSpaceOnUse" x1="467.296" y1="119.172" x2="467.296" y2="175.151" gradientTransform="matrix(0.99999, -0.004491, 0.003793, 0.844504, -0.659564, 29.333909)">
      <stop offset="0" style="stop-color: rgb(167, 45, 45);"/>
      <stop offset="1" style="stop-color: rgb(97, 17, 17);"/>
    </linearGradient>
    <linearGradient id="gradient-9" gradientUnits="userSpaceOnUse" x1="430.603" y1="205.807" x2="430.603" y2="266.807" gradientTransform="matrix(0.99236, 0.123381, -0.118469, 0.952855, 27.450596, -34.723763)">
      <stop offset="0" style="stop-color: rgba(254, 145, 21, 1)"/>
      <stop offset="1" style="stop-color: rgba(172, 92, 1, 1)"/>
    </linearGradient>
    <linearGradient id="gradient-10" gradientUnits="userSpaceOnUse" x1="498.873" y1="205.554" x2="498.873" y2="266.554" gradientTransform="matrix(-0.96524, 0.261363, -0.236088, -0.871897, 1030.221387, 306.932489)">
      <stop offset="0" style="stop-color: rgba(254, 145, 21, 1)"/>
      <stop offset="1" style="stop-color: rgba(172, 92, 1, 1)"/>
    </linearGradient>
    <linearGradient id="gradient-11" gradientUnits="userSpaceOnUse" x1="463.404" y1="-16.836" x2="463.404" y2="32.357" gradientTransform="matrix(1, -0.000001, 0, 0.261043, 0.660936, 24.792227)">
      <stop offset="0" style="stop-color: rgb(66, 23, 0);"/>
      <stop offset="1" style="stop-color: rgb(32, 11, 0);"/>
    </linearGradient>
    <linearGradient id="gradient-12" gradientUnits="userSpaceOnUse" x1="437.843" y1="151.966" x2="437.843" y2="154.584">
      <stop offset="0" style="stop-color: rgba(216, 216, 216, 1)"/>
      <stop offset="1" style="stop-color: rgba(165, 165, 165, 1)"/>
    </linearGradient>
    <linearGradient id="gradient-13" gradientUnits="userSpaceOnUse" x1="449.221" y1="152.035" x2="449.221" y2="154.653">
      <stop offset="0" style="stop-color: rgba(216, 216, 216, 1)"/>
      <stop offset="1" style="stop-color: rgba(165, 165, 165, 1)"/>
    </linearGradient>
    <linearGradient id="gradient-14" gradientUnits="userSpaceOnUse" x1="460.191" y1="152.443" x2="460.191" y2="155.061">
      <stop offset="0" style="stop-color: rgba(216, 216, 216, 1)"/>
      <stop offset="1" style="stop-color: rgba(165, 165, 165, 1)"/>
    </linearGradient>
    <linearGradient id="gradient-15" gradientUnits="userSpaceOnUse" x1="471.365" y1="152.035" x2="471.365" y2="154.653">
      <stop offset="0" style="stop-color: rgba(216, 216, 216, 1)"/>
      <stop offset="1" style="stop-color: rgba(165, 165, 165, 1)"/>
    </linearGradient>
    <linearGradient id="gradient-16" gradientUnits="userSpaceOnUse" x1="482.607" y1="151.898" x2="482.607" y2="154.516">
      <stop offset="0" style="stop-color: rgba(216, 216, 216, 1)"/>
      <stop offset="1" style="stop-color: rgba(165, 165, 165, 1)"/>
    </linearGradient>
    <linearGradient id="gradient-17" gradientUnits="userSpaceOnUse" x1="493.781" y1="150.468" x2="493.781" y2="153.086">
      <stop offset="0" style="stop-color: rgba(216, 216, 216, 1)"/>
      <stop offset="1" style="stop-color: rgba(165, 165, 165, 1)"/>
    </linearGradient>
  </defs>
  <polygon style="fill: url(#gradient-5);" points="412.27398681640625 34.70000076293945 414.44500732421875 47.24700164794922 418.7879943847656 61.483001708984375 420.47698974609375 78.8550033569336 420.47698974609375 108.0510025024414 417.34100341796875 121.08000183105469 412.99798583984375 134.10899353027344 400.9330139160156 159.927001953125 396.83099365234375 170.06100463867188 393.2120056152344 179.22999572753906 386.45599365234375 192.74200439453125 384.2850036621094 204.56500244140625 383.802001953125 212.52699279785156 383.5610046386719 223.38499450683594 390.5580139160156 214.45700073242188 397.7969970703125 206.73599243164062 401.17498779296875 204.322998046875 396.83099365234375 218.07699584960938 398.5199890136719 225.55599975585938 399.00299072265625 227.2449951171875 404.5530090332031 215.66400146484375 410.3429870605469 209.38999938964844 417.0989990234375 212.76800537109375 418.3059997558594 221.93699645996094 418.06500244140625 229.89999389648438 420.47698974609375 238.10299682617188 424.09698486328125 223.86700439453125 429.16400146484375 212.52699279785156 440.7449951171875 206.4949951171875 447.260009765625 210.83799743652344 464.1499938964844 241.4810028076172 464.3909912109375 243.41099548339844 467.7690124511719 232.31199645996094 468.4930114746094 223.38499450683594 467.2869873046875 212.04400634765625 465.5979919433594 207.9429931640625 477.4209899902344 215.4219970703125 484.65899658203125 224.35000610351562 489.2439880371094 234.2429962158203 491.4150085449219 242.2050018310547 494.3110046386719 236.41400146484375 497.6889953613281 227.968994140625 498.8949890136719 217.11099243164062 497.20599365234375 210.35499572753906 509.5119934082031 217.593994140625 514.0960083007812 222.4199981689453 518.9219970703125 229.6580047607422 521.333984375 222.4199981689453 521.333984375 216.38800048828125 521.093017578125 207.4600067138672 517.4739990234375 199.73899841308594 515.0609741210938 186.9510040283203 513.1309814453125 178.98800659179688 512.166015625 172.71499633789062 510.9590148925781 164.7530059814453 511.92401123046875 152.68800354003906 512.8900146484375 142.07200622558594 512.166015625 130.24899291992188 516.2680053710938 114.3239974975586 519.1630249023438 105.63800048828125 533.0419921875 66.16400146484375 520.198974609375 50.62200164794922"/>
  <polygon style="fill: rgb(50, 50, 50);" points="395.003 279.783 393.089 281.295 393.693 288.145 401.45 290.664 417.166 287.843 427.139 283.309 435.501 279.078 438.221 274.746 437.818 270.415 433.889 268.702"/>
  <polygon style="fill: rgb(204, 124, 75);" points="435.756 261.895 436.921 265.78 437.051 268.888 437.051 274.456 434.202 278.34 428.116 281.448 418.664 285.074 409.341 288.311 401.83 289.217 394.709 286.886 394.191 279.635 399.37 273.679 406.233 270.571 414.261 266.557 422.419 261.377"/>
  <polygon style="fill: rgb(204, 124, 75);" points="428.275 205.722 422.265 246.157 421.718 256.812 423.084 261.729 426.089 263.915 430.188 264.735 435.925 263.095 438.657 257.085 441.116 250.255 443.028 243.971 444.121 237.687 444.941 230.311 444.941 226.486 444.667 222.388 444.394 218.563 443.301 212.552 443.301 207.908 443.301 204.903 445.487 202.717 447.946 198.892 449.858 192.062 450.951 189.603"/>
  <polygon style="fill: rgb(204, 124, 75);" points="443.7430114746094 143.89599609375 438.5570068359375 152.78599548339844 433.3710021972656 163.8990020751953 431.14898681640625 174.27000427246094 430.77801513671875 184.64199829101562 430.77801513671875 189.82699584960938 436.3340148925781 197.9770050048828 450.0400085449219 193.90199279785156 455.12298583984375 188.47900390625 459.89801025390625 179.5489959716797 463.63299560546875 168.6739959716797 466.7799987792969 156.17300415039062 455.59600830078125 144.26699829101562 450.0400085449219 143.15499877929688"/>
  <polygon style="fill: rgb(204, 124, 75);" points="432.86700439453125 188.3990020751953 426.3330078125 198.7169952392578 425.9630126953125 203.5330047607422 430.0369873046875 210.9409942626953 435.593994140625 212.052001953125 441.5199890136719 207.97799682617188 443.00201416015625 202.79200744628906 443.37200927734375 198.3470001220703 441.8909912109375 193.90199279785156 440.40899658203125 192.4199981689453"/>
  <polygon style="fill: rgb(50, 50, 50);" points="491.211 273.034 490.505 275.653 493.83 279.481 511.359 286.735 520.627 289.152 527.578 289.656 533.018 287.843 534.328 283.309 530.601 278.474 516.094 276.157"/>
  <polygon style="fill: rgb(204, 124, 75);" points="532.289 288.117 533.454 284.232 533.584 281.124 533.584 275.556 530.735 271.672 524.649 268.564 515.197 264.938 505.874 261.701 498.363 260.795 491.242 263.126 490.724 270.377 495.903 276.333 502.766 279.441 510.794 283.455 518.952 288.635" transform="matrix(-1, 0, 0, -1, 1024.307983, 549.430023)"/>
  <polygon style="fill: rgb(204, 124, 75);" points="486.265 250.415 480.254 209.98 479.707 199.325 481.073 194.408 484.078 192.222 488.177 191.402 493.914 193.042 496.646 199.052 499.106 205.882 501.017 212.166 502.111 218.45 502.93 225.826 502.93 229.651 502.655 233.749 502.383 237.574 501.291 243.585 501.291 248.229 501.291 251.234 503.476 253.42 505.935 257.245 507.848 264.075 508.94 266.534" transform="matrix(-0.996621, -0.082141, 0.082141, -0.996621, 968.168888, 497.766463)"/>
  <polygon style="fill: rgb(204, 124, 75);" points="481.60699462890625 198.20700073242188 476.4209899902344 189.31700134277344 471.2349853515625 178.20399475097656 469.01300048828125 167.83299255371094 468.6419982910156 157.46099853515625 468.6419982910156 152.2760009765625 474.197998046875 144.12600708007812 487.90399169921875 148.2010040283203 491.8290100097656 153.75900268554688 496.8269958496094 160.69700622558594 502.489013671875 172.18299865722656 503.46099853515625 181.90899658203125 493.4599914550781 197.83599853515625 487.90399169921875 198.947998046875" transform="matrix(-0.996621, -0.082141, 0.082141, -0.996621, 957.479389, 382.464713)"/>
  <polygon style="fill: rgb(204, 124, 75);" points="496.3059997558594 217.843994140625 489.697998046875 207.77499389648438 489.3280029296875 202.95899963378906 493.40301513671875 195.55099487304688 498.9599914550781 194.44000244140625 504.885009765625 198.51400756835938 506.36700439453125 203.6999969482422 506.73699951171875 208.14500427246094 505.2569885253906 212.58999633789062 503.7749938964844 214.07200622558594" transform="matrix(-0.996621, -0.082141, 0.082141, -0.996621, 977.604221, 448.730652)"/>
  <polygon style="fill: rgb(204, 124, 75);" points="492.804 32.198 512.172 31.245 519.157 34.103 522.649 42.04 523.284 47.755 520.11 55.057 511.219 58.233 496.614 55.375 488.042 44.898 492.17 35.373"/>
  <polygon style="fill: rgb(204, 124, 75);" points="508.010009765625 51.0880012512207 516.5819702148438 51.7239990234375 523.6129760742188 56.00299835205078 533.0670166015625 63.512001037597656 538.2340087890625 70.13600158691406 541.9630126953125 78.4990005493164 543.2520141601562 84.4260025024414 530.2349853515625 86.96600341796875 513.7249755859375 79.98100280761719 508.9630126953125 75.21900177001953 498.4849853515625 65.05899810791016 497.5329895019531 64.10600280761719" transform="matrix(0.887174, 0.461435, -0.461435, 0.887174, 90.565276, -232.339284)"/>
  <polygon style="fill: rgb(204, 124, 75);" points="516.7470092773438 93.3010025024414 516.4290161132812 105.0479965209961 520.5570068359375 114.25599670410156 525.9539794921875 124.41500091552734 529.7639770507812 127.90799713134766 534.0869750976562 119.44300079345703 534.822021484375 114.41200256347656 535.43701171875 109.92400360107422 534.5260009765625 98.06300354003906 529.4459838867188 90.1259994506836 522.7789916992188 86.95099639892578 521.1920166015625 86.63300323486328" transform="matrix(0.977705, 0.209983, -0.209983, 0.977705, 34.261717, -108.149758)"/>
  <polygon style="fill: rgb(204, 124, 75);" points="522.7249755859375 117.5719985961914 516.0579833984375 126.77899932861328 519.1129760742188 134.6199951171875 526.7329711914062 135.7570037841797 529.5349731445312 131.03700256347656 530.010009765625 126.41400146484375 527.4879760742188 118.52400207519531 527.1710205078125 118.20600128173828" transform="matrix(0.973964, 0.226703, -0.226703, 0.973964, 42.623532, -115.353646)"/>
  <polygon style="fill: rgb(204, 124, 75);" points="411.22 56.022 430.588 56.975 437.573 54.117 441.065 46.18 441.7 40.465 438.526 33.163 429.635 29.987 415.03 32.844 406.458 43.322 410.586 52.847" transform="matrix(-1, 0, 0, -1, 848.15802, 86.961998)"/>
  <polygon style="fill: rgb(204, 124, 75);" points="395.96099853515625 88.7979965209961 405.2829895019531 88.37300109863281 413.5379943847656 85.51599884033203 426.5929870605469 78.12100219726562 432.92401123046875 72.4010009765625 435.4630126953125 62.24100112915039 434.197998046875 57.71500015258789 420.83099365234375 56.742000579833984 406.0090026855469 62.90800094604492 398.9519958496094 66.0510025024414 388.4739990234375 76.21099853515625 387.5220031738281 77.16400146484375" transform="matrix(-0.739388, 0.67328, -0.67328, -0.739388, 764.739603, -150.474367)"/>
  <polyline style="fill: none; stroke-linecap: round; stroke: rgb(175, 104, 60);" points="399.847 83.928 404.153 85.22 406.881 84.789 410.039 82.492 413.196 78.617 414.775 75.028 416.211 69.717 416.498 64.837 416.498 59.813 415.493 56.511 414.632 55.076"/>
  <polygon style="fill: rgb(204, 124, 75);" points="375.51300048828125 102.55999755859375 375.19500732421875 90.81300354003906 379.322998046875 81.6050033569336 384.7200012207031 71.44599914550781 388.5299987792969 67.9530029296875 393.00799560546875 72.13099670410156 394.56298828125 80.33499908447266 395.1969909667969 85.41500091552734 393.2919921875 97.7979965209961 388.2120056152344 105.73500061035156 382.42498779296875 111.3479995727539 379.9580078125 109.22799682617188" transform="matrix(0.286822, -0.957984, 0.957984, 0.286822, 189.845043, 432.19236)"/>
  <polygon style="fill: url(#gradient-1);" points="360.343 12.841 366.208 12.562 366.208 267.058 361.117 267.058"/>
  <polygon style="fill: rgb(204, 124, 75);" points="361.809 87.411 356.631 78.549 359.829 70.198 367.82 66.775 372.131 75.451 370.067 80.648 366.572 86.459 366.255 86.777" transform="matrix(0.471369, -0.881936, 0.881936, 0.471369, 124.631979, 362.1145)"/>
  <polygon style="fill: rgb(204, 124, 75);" points="441.2070007324219 132.17100524902344 439.8940124511719 116.83699798583984 438.90899658203125 107.20700073242188 438.25299072265625 96.1510009765625 433.3290100097656 81.88500213623047 430.3739929199219 67.62000274658203 429.7170104980469 52.284000396728516 431.031005859375 46.22100067138672 432.67401123046875 35.595001220703125 439.8269958496094 27.940000534057617 454.5159912109375 21.631000518798828 474.8299865722656 21.882999420166016 496.385009765625 33.16999816894531 497.99700927734375 40.87200164794922 500.29400634765625 48.36000061035156 501.6080017089844 60.84299850463867 500.62298583984375 70.11599731445312 492.7449951171875 92.22699737548828 485.52301025390625 132.88499450683594"/>
  <polygon style="fill: rgb(229, 143, 46);" points="439.864990234375 131.7550048828125 438.96099853515625 116.625 438.5889892578125 106.85900115966797 437.9330139160156 95.8030014038086 433.0090026855469 81.53700256347656 430.0539855957031 67.27200317382812 429.3970031738281 51.93600082397461 430.71099853515625 45.87300109863281 435.3760070800781 31.400999069213867 440.6059875488281 27.316999435424805 451.17401123046875 34.332000732421875 475.3340148925781 34.85900115966797 485.76300048828125 27.601999282836914 494.51800537109375 31.871000289916992 497.22698974609375 40.04499816894531 501.2879943847656 56.099998474121094 500.989990234375 69.21900177001953 492.42498779296875 91.87899780273438 486.8380126953125 132.67300415039062"/>
  <polygon style="fill: rgb(216, 216, 216); stroke: rgb(0, 0, 0);" points="438.786 -12.912"/>
  <polygon style="stroke: rgb(0, 0, 0); fill: rgb(204, 124, 75);" points="450.719 25.398 448.318 20.428 441.515 8.576 439.913 -5.951 439.112 -17.42 441.114 -25.066 443.916 -31.183 449.52 -36.535 461.529 -39.211 479.542 -36.535 486.345 -26.978 487.946 -11.304 485.145 2.458 484.744 12.399 481.943 18.516 478.74 24.633 475.137 28.455 469.934 29.602 453.522 28.838"/>
  <polygon style="fill: url(#gradient-3);" points="440.2690124511719 -20.334999084472656 439.6910095214844 -30.732999801635742 440.07598876953125 -36.31700134277344 441.8089904785156 -42.2859992980957 445.2749938964844 -47.677001953125 448.7409973144531 -51.143001556396484 454.51800537109375 -53.26100158691406 463.9530029296875 -54.801998138427734 473.96600341796875 -54.2239990234375 479.93499755859375 -52.49100112915039 484.9410095214844 -47.099998474121094 488.4070129394531 -37.856998443603516 488.9849853515625 -31.88800048828125 488.6000061035156 -27.267000198364258 488.4070129394531 -19.179000854492188 480.7049865722656 -25.148000717163086 474.35101318359375 -27.8439998626709 468.9590148925781 -30.155000686645508 465.8789978027344 -32.08000183105469 464.14599609375 -34.39099884033203 459.7170104980469 -33.8129997253418"/>
  <polygon style="fill: url(#gradient-4);" points="482.8219909667969 -102.14399719238281 493.01800537109375 -99.40799713134766 498.9159851074219 -94.35199737548828 501.7250061035156 -88.73500061035156 504.25299072265625 -80.58899688720703 505.09600830078125 -74.97200012207031 505.93798828125 -65.7030029296875 504.53399658203125 -49.4119987487793 504.53399658203125 -44.637001037597656 501.1629943847656 -51.37799835205078 498.635009765625 -54.749000549316406 491.8940124511719 -58.11899948120117 491.052001953125 -58.400001525878906 493.29901123046875 -55.029998779296875 494.4219970703125 -52.78300094604492 490.489990234375 -55.87200164794922 488.80499267578125 -57.277000427246094 486.5580139160156 -58.400001525878906 483.7489929199219 -58.680999755859375 480.0979919433594 -58.96200180053711 476.72698974609375 -58.96200180053711 473.07598876953125 -57.277000427246094 471.6709899902344 -56.71500015258789 470.37701416015625 -56.32400131225586 464.85699462890625 -56.108001708984375 464.3680114746094 -73.8479995727539"/>
  <polygon style="fill: rgb(202, 36, 36);" points="460.5570068359375 -55.91299819946289 458.7510070800781 -66.26499938964844 455.3800048828125 -73.8479995727539 452.2909851074219 -83.67900085449219 450.6050109863281 -89.2969970703125 451.72900390625 -97.7229995727539 452.5719909667969 -98.84700012207031 459.0320129394531 -92.1050033569336 459.593994140625 -92.1050033569336 460.99798583984375 -98.84700012207031 464.64898681640625 -108.11499786376953 464.64898681640625 -101.09400177001953 464.92999267578125 -98.00399780273438 471.9519958496094 -103.05999755859375 473.07598876953125 -103.34100341796875 473.07598876953125 -98.56600189208984 482.906005859375 -102.21700286865234 480.37799072265625 -95.47599792480469 479.2550048828125 -90.98200225830078 484.3110046386719 -89.2969970703125 483.7489929199219 -87.33100128173828 481.50201416015625 -84.8030014038086 477.57000732421875 -78.62300109863281 473.35699462890625 -74.41000366210938 470.5480041503906 -67.94999694824219 468.5820007324219 -62.332000732421875 467.4580078125 -59.24300003051758 467.8190002441406 -55.95500183105469"/>
  <polygon style="fill: rgb(182, 122, 53);" points="458.929 -54.098 458.52 -56.142 469.962 -56.346 470.779 -53.894"/>
  <path d="M 462.205 -18.082 C 462.205 -17.578 462.118 -12.374 462.579 -11.913 C 465.34 -9.152 465.009 -16.288 465.009 -17.334" style="stroke: rgb(0, 0, 0); fill: none;"/>
  <polygon style="fill: rgb(66, 23, 0);" points="464.62 -12.596 468.871 -14.723 476.489 -17.203 482.157 -16.671 480.741 -20.215 475.781 -20.568"/>
  <polygon style="fill: rgb(66, 23, 0);" points="446.257 -20.091 450.274 -18.082 457.47 -15.739 462.826 -16.242 461.487 -12.894 456.801 -12.56" transform="matrix(-1, 0, 0, -1, 909.082977, -32.651)"/>
  <polygon style="fill: rgb(255, 255, 255);" points="460.085 -11.761 457.842 -13.443 456.907 -13.817 452.608 -14.752 450.178 -14.939 448.495 -14.565 450.925 -11.761 455.225 -10.078 458.216 -9.704"/>
  <polyline style="stroke-linecap: round; stroke: rgb(0, 0, 0); stroke-opacity: 0.34; fill: url(#gradient-2);" points="461.703 -9.975 459.556 -5.18 457.229 -4.132 454.723 -2.483 457.229 0.364 459.914 0.364 463.493 1.712 467.968 1.263 469.757 -0.086 472.979 0.064 471.905 -2.932 469.399 -3.382 466.894 -6.079"/>
  <polygon style="fill: rgb(40, 40, 40);" points="468.193 -12.997 474.193 -16.064 477.526 -16.73 480.725 -15.93 481.925 -11.931 481.259 -8.198 479.525 -6.198 474.326 -6.331 470.993 -6.731 468.593 -8.198 467.26 -9.798"/>
  <polygon style="fill: rgb(40, 40, 40);" points="478.0669860839844 -6.8429999351501465 485.7919921875 0.06800000369548798 486.5920104980469 -2.865000009536743 479.6730041503906 -8.029000282287598"/>
  <polygon style="fill: rgb(66, 23, 0);" points="453.938 -26.435 456.408 -26.537 457.9 -27.412 458.929 -28.75 458.981 -29.676 461.759 -29.882 462.119 -29.47 463.2 -29.213 464.898 -29.625 466.853 -31.22 467.162 -29.985 467.522 -28.133 470.866 -27.052 473.49 -26.949 475.445 -27.567 475.857 -27.824 470.094 -32.815 465.515 -35.439 461.245 -35.799 457.18 -35.387 445.243 -24.119"/>
  <polygon style="fill: rgb(40, 40, 40);" points="471.393 -13.664 472.859 -14.997 455.794 -30.196 454.594 -29.129"/>
  <polygon style="fill: url(#gradient-11);" points="442.00799560546875 -16.836000442504883 442.5589904785156 -13.979999542236328 443.5119934082031 -12.430999755859375 442.7969970703125 -10.763999938964844 443.1549987792969 -9.692000389099121 443.6310119628906 -8.619999885559082 442.7969970703125 -6.595000267028809 443.5119934082031 -5.283999919891357 443.75 -3.7360000610351562 442.9169921875 -3.0209999084472656 444.7030029296875 -1.3530000448226929 444.34600830078125 0.5530002117156982 445.17999267578125 1.0290000438690186 446.13299560546875 1.3860000371932983 445.4179992675781 2.815999984741211 446.3710021972656 4.7220001220703125 446.9670104980469 5.913000106811523 446.7279968261719 6.985000133514404 448.03900146484375 8.295000076293945 447.79998779296875 9.604999542236328 449.3489990234375 10.557999610900879 448.99200439453125 12.22599983215332 450.65899658203125 13.894000053405762 451.135986328125 15.800000190734863 451.3739929199219 16.990999221801758 452.2080078125 17.110000610351562 454.35198974609375 18.538999557495117 456.614990234375 19.37299919128418 458.52099609375 17.944000244140625 460.78399658203125 18.89699935913086 462.2139892578125 18.538999557495117 463.0469970703125 17.347999572753906 464.59600830078125 17.944000244140625 466.0249938964844 19.135000228881836 467.09698486328125 19.611000061035156 470.4330139160156 18.658000946044922 472.1000061035156 18.658000946044922 473.64898681640625 17.825000762939453 474.0060119628906 16.990999221801758 475.4360046386719 16.75200080871582 476.50799560546875 15.680000305175781 477.5799865722656 14.607999801635742 478.5329895019531 14.25100040435791 479.0090026855469 12.46399974822998 479.6050109863281 11.630000114440918 480.3190002441406 9.843999862670898 480.3190002441406 6.866000175476074 480.7959899902344 5.794000148773193 481.7489929199219 4.244999885559082 481.98699951171875 2.3389999866485596 482.5830078125 0.7909968495368958 483.0589904785156 -0.2809999883174896 483.2969970703125 -1.8300001621246338 484.0119934082031 -2.9019999504089355 484.9649963378906 -5.046000003814697 485.0840148925781 -7.309000015258789 485.2030029296875 -9.45300006866455 485.5610046386719 -10.883000373840332 486.156005859375 -12.670000076293945 486.6549987792969 -15.866000175476074 487.58599853515625 -15.062999725341797 488.53900146484375 -13.145999908447266 488.89599609375 -11.836000442504883 488.89599609375 -10.645000457763672 489.4909973144531 -9.571999549865723 488.89599609375 -7.785999774932861 489.0150146484375 -6.118000030517578 488.7770080566406 -4.330999851226807 487.8240051269531 -2.7829999923706055 487.9429931640625 -1.1150000095367432 487.1090087890625 0.671999990940094 487.1090087890625 1.74399995803833 486.8710021972656 4.125999927520752 486.3940124511719 5.197999954223633 486.2749938964844 6.626999855041504 485.67999267578125 8.532999992370605 485.79901123046875 10.201000213623047 485.4410095214844 12.107000350952148 485.67999267578125 14.25100040435791 484.6080017089844 15.204000473022461 484.3689880371094 16.990999221801758 483.1780090332031 19.492000579833984 482.5830078125 21.993999481201172 482.4639892578125 24.018999099731445 480.7959899902344 25.566999435424805 479.6050109863281 27.472999572753906 479.8429870605469 29.736000061035156 478.41400146484375 29.49799919128418 475.55499267578125 30.927000045776367 473.0530090332031 30.451000213623047 472.1000061035156 31.523000717163086 469.8370056152344 30.451000213623047 469.12200927734375 30.56999969482422 467.9309997558594 31.40399932861328 465.906005859375 31.047000885009766 462.3330078125 32.356998443603516 461.9750061035156 32 461.4989929199219 31.047000885009766 458.99700927734375 32.237998962402344 457.5679931640625 31.047000885009766 454.35198974609375 31.047000885009766 452.56500244140625 31.166000366210938 450.4209899902344 28.902000427246094 448.75299072265625 28.663999557495117 447.56201171875 25.68600082397461 445.8940124511719 24.851999282836914 445.29901123046875 22.94700050354004 443.8689880371094 21.875 443.8689880371094 20.922000885009766 441.9639892578125 19.37299919128418 442.2019958496094 17.466999053955078 439.8190002441406 14.847000122070312 440.177001953125 12.70199966430664 438.86700439453125 10.439000129699707 439.3429870605469 8.175999641418457 439.2239990234375 6.985000133514404 437.79400634765625 4.7220001220703125 438.3900146484375 2.577000141143799 437.3179931640625 -0.6389999985694885 437.5559997558594 -2.5450000762939453 437.91400146484375 -4.927000045776367 438.27099609375 -7.90500020980835 437.43701171875 -10.048999786376953 438.27099609375 -10.645000457763672 438.62799072265625 -11.477999687194824 438.3900146484375 -13.265000343322754"/>
  <polygon style="fill: rgb(229, 143, 46);" points="437.4809875488281 -21.0049991607666 438.00299072265625 -12.390000343322754 444.2690124511719 -18.132999420166016 446.8789978027344 -21.266000747680664 450.53399658203125 -25.44300079345703 455.4949951171875 -28.7810001373291 458.5589904785156 -30.802000045776367 462.80499267578125 -33.604000091552734 467.5039978027344 -29.881000518798828 474.552001953125 -25.44300079345703 480.2959899902344 -22.570999145507812 483.95098876953125 -18.916000366210938 488.92401123046875 -12.706999778747559 489.6940002441406 -19.17799949645996 486.822998046875 -25.18199920654297 481.86199951171875 -27.792999267578125 475.59698486328125 -31.969999313354492 469.4549865722656 -35.29600143432617 463.2590026855469 -38.68899917602539 454.1210021972656 -34.58000183105469 445.8349914550781 -28.066999435424805"/>
  <polygon style="fill: rgb(66, 23, 0);" points="448.29 13.16 450.623 11.411 450.817 11.411 451.108 10.342 452.76 10.342 453.635 9.467 456.259 9.37 456.842 9.273 457.425 8.398 458.008 8.398 459.077 8.301 460.146 7.815 461.798 8.398 463.547 7.815 465.102 8.204 466.074 8.593 468.114 8.01 469.086 8.69 473.07 8.884 474.528 10.536 476.569 10.148 478.123 10.731 478.901 11.994 480.65 12.577 481.33 11.994 481.913 10.731 482.01 9.273 481.816 8.301 481.427 8.01 480.553 6.26 479.095 6.844 478.512 5.289 476.471 5.386 475.208 4.317 474.334 4.511 473.459 4.608 471.807 3.442 469.863 3.831 469.669 3.831 467.045 3.248 465.393 3.928 463.255 2.568 461.603 3.54 460.146 3.054 457.911 3.54 457.231 4.123 453.052 3.734 452.275 4.608 450.914 5.677 449.651 6.358 446.541 6.552 446.25 7.912 444.112 8.69"/>
  <polygon style="fill: rgb(176, 100, 53);" points="454.628 12.261 458.719 10.809 461.088 9.84 462.218 9.462 463.187 10.163 465.071 10.163 467.171 9.409 468.194 10.109 470.078 11.185 472.501 12.477 473.362 12.854 465.448 13.393 462.379 13.393 457.696 12.962" transform="matrix(0.999515, -0.031136, 0.031136, 0.999515, -0.130017, 14.452477)"/>
  <polygon style="fill: rgb(149, 80, 37);" points="456.878 12.771 459.569 14.871 463.553 15.247 466.513 15.14 468.613 14.979 470.066 14.279 470.82 13.04" transform="matrix(0.999515, -0.031136, 0.031136, 0.999515, -0.21129, 14.449195)"/>
  <circle style="" cx="455.748" cy="-12.242" r="1.543"/>
  <path d="M 439.64842746888445 -15.61738929053557 C 441.06535508113035 -15.617389678955078 444.034011422856 -19.09385955411427 442.4436950683594 -20.683794021606445 C 441.7238162099576 -21.4035000135342 440.3015234155188 -20.945850372314453 439.12432861328125 -20.945850372314453" style="fill: none; stroke: rgb(204, 126, 38); stroke-linecap: round;"/>
  <path d="M 444.97688822652015 -20.596442785375437 C 446.59703216896736 -21.40653669696901 447.8353295826222 -23.939783804736514 446.37451171875 -25.400793075561523 C 445.2617402723354 -26.513710325362762 444.22972248342114 -24.177867889404297 443.9286804199219 -24.177867889404297" style="fill: none; stroke: rgb(204, 126, 38); stroke-linecap: round;"/>
  <path d="M 449.1697753800695 -26.01225535871003 C 449.9393369673232 -26.268781009207352 453.3964157526566 -28.511544512275556 452.2270812988281 -29.681032180786133 C 451.62885421952853 -30.27933764413701 449.43182373046875 -30.22971035089486 449.43182373046875 -28.894865036010742" style="fill: none; stroke: rgb(204, 126, 38); stroke-linecap: round;"/>
  <path d="M 455.1970506632967 -30.641901590754117 C 455.626958321122 -30.64190101623535 456.3404608489087 -30.99921537806495 456.59466552734375 -31.25336456298828 C 456.9181506201676 -31.57677903821416 457.6098964930439 -31.97935120402955 457.90496826171875 -32.12688064575195 C 460.6111358033408 -33.479905329935434 454.93499755859375 -35.434375093720845 454.93499755859375 -33.262454986572266" style="fill: none; stroke: rgb(204, 126, 38); stroke-linecap: round;"/>
  <path d="M 460.96227049942706 -33.6992151402172 C 461.33949557412376 -33.82495519922515 463.1786659206933 -35.588274683922926 462.6219482421875 -36.14506530761719 C 462.4806371108304 -36.28639495458375 460.9622802734375 -36.32068650776 460.9622802734375 -36.232418060302734" style="fill: none; stroke: rgb(204, 126, 38); stroke-linecap: round;"/>
  <path d="M 466.3780830727617 -35.18419600709926 C 465.53648423310335 -36.025739387945904 463.1920629013031 -35.400372645519354 464.10693359375 -34.485382080078125 C 464.5475314217182 -34.04472652178658 465.2425231933594 -33.62354078991785 465.2425231933594 -33.00040054321289" style="fill: none; stroke: rgb(204, 126, 38); stroke-linecap: round;"/>
  <path d="M 468.9112857280311 -30.292494327958337 C 467.9482342421314 -31.014808475327946 466.9457676438121 -32.78176423928732 468.03778076171875 -33.87392044067383 C 468.79445784128006 -34.630696665554794 470.2577806143803 -33.00040054321289 470.74566650390625 -33.00040054321289" style="fill: none; stroke: rgb(204, 126, 38); stroke-linecap: round;"/>
  <path d="M 472.4053583559889 -27.846643488387876 C 471.05879850113416 -28.744357707579134 470.7464124394379 -30.380426646821267 471.9685974121094 -31.602771759033203 C 472.3775153738774 -32.011743300198695 474.5891418457031 -30.814692102120052 474.5891418457031 -30.7292537689209" style="fill: none; stroke: rgb(204, 126, 38); stroke-linecap: round;"/>
  <path d="M 476.77294914093613 -24.7893299389248 C 473.9798889359058 -27.582410140786074 476.94293977544277 -30.210198090361274 479.4808654785156 -27.671939849853516" style="fill: none; stroke: rgb(204, 126, 38); stroke-linecap: round;"/>
  <path d="M 482.3634653456686 -22.256127283655395 C 480.90423203780404 -22.256126403808594 480.65102959371353 -24.823825793579203 481.4899597167969 -25.6628475189209 C 481.574772896413 -25.747669959235324 482.76569176572144 -25.872097717867664 482.8875732421875 -25.750200271606445 C 483.2369597911935 -25.400767943440446 483.76111006008534 -25.226114521922856 484.1105041503906 -24.87668228149414 C 484.2271589279917 -24.76001476643043 485.1587219238281 -24.488987123758616 485.1587219238281 -24.352571487426758" style="fill: none; stroke: rgb(204, 126, 38); stroke-linecap: round;"/>
  <path d="M 486.2942970521211 -17.88853649870814 C 485.1484077945833 -18.65238609842349 484.09438726532335 -21.01691626150868 485.4207763671875 -22.34347915649414 C 487.164966861143 -24.087898186939917 488.25038152806655 -20.159683227539062 488.6528015136719 -20.159683227539062" style="fill: none; stroke: rgb(204, 126, 38); stroke-linecap: round;"/>
  <polyline style="fill: none; stroke-linecap: round; stroke: rgb(170, 102, 25);" points="435.895 74.102 441.861 75.594 446.999 76.257 451.971 76.257 457.44 75.759 461.418 74.931 464.236 73.108 465.064 69.13 465.064 65.318 465.727 58.689 465.561 63.826 465.727 68.301 466.059 72.776 467.219 74.268 469.373 74.931 472.191 75.594 477.66 75.925 482.964 75.759 487.936 74.765 493.073 72.113 493.902 71.616"/>
  <polyline style="fill: none; stroke-linecap: round; stroke: rgb(170, 102, 25);" points="442.027 83.88 446.005 82.223 452.634 81.229 456.28 81.394 460.092 82.389 463.075 84.046 463.738 88.852 463.573 91.504 456.612 96.145 452.8 96.642 447.331 96.642 444.347 96.145 443.519 95.813"/>
  <polyline style="fill: none; stroke-linecap: round; stroke: rgb(170, 102, 25);" points="465.976 93.908 469.954 95.565 476.583 96.559 480.229 96.394 484.041 95.399 487.024 93.742 487.687 88.936 487.522 86.284 480.561 81.643 476.749 81.146 471.28 81.146 468.296 81.643 467.468 81.975" transform="matrix(-1, 0, 0, -1, 953.663025, 177.705002)"/>
  <polyline style="fill: none; stroke-linecap: round; stroke: rgb(170, 102, 25);" points="445.549 100.17 448.935 98.76 454.577 97.914 457.681 98.054 460.926 98.901 463.465 100.311 464.029 104.402 463.889 106.66 457.963 110.61 454.719 111.033 450.064 111.033 447.524 110.61 446.819 110.327"/>
  <polyline style="fill: none; stroke-linecap: round; stroke: rgb(170, 102, 25);" points="465.934 108.706 469.32 110.116 474.962 110.962 478.066 110.822 481.311 109.975 483.85 108.564 484.414 104.474 484.273 102.216 478.348 98.266 475.104 97.843 470.449 97.843 467.909 98.266 467.204 98.549" transform="matrix(-1, 0, 0, -1, 950.347992, 208.805)"/>
  <polyline style="fill: none; stroke-linecap: round; stroke: rgb(170, 102, 25);" points="449.775 114.748 452.438 113.639 456.875 112.974 459.316 113.084 461.867 113.75 463.864 114.859 464.308 118.076 464.197 119.852 459.537 122.958 456.986 123.291 453.326 123.291 451.328 122.958 450.774 122.735"/>
  <polyline style="fill: none; stroke-linecap: round; stroke: rgb(170, 102, 25);" points="465.806 121.461 468.468 122.569 472.905 123.235 475.346 123.125 477.898 122.459 479.895 121.349 480.338 118.133 480.227 116.357 475.568 113.251 473.017 112.918 469.356 112.918 467.359 113.251 466.804 113.473" transform="matrix(-1, 0, 0, -1, 946.144012, 236.153)"/>
  <polyline style="fill: none; stroke-linecap: round; stroke: rgb(170, 102, 25);" points="448.325 121.005 447.828 118.685 446.336 116.696 444.845 115.37 442.524 114.21 442.193 114.044"/>
  <polyline style="fill: none; stroke-linecap: round; stroke: rgb(170, 102, 25);" points="446.999 113.05 444.513 109.901 442.359 108.243 440.204 107.249"/>
  <polyline style="fill: none; stroke-linecap: round; stroke: rgb(170, 102, 25);" points="445.508 104.929 443.353 101.78 440.701 99.625 439.375 98.796"/>
  <polyline style="fill: none; stroke-linecap: round; stroke: rgb(170, 102, 25);" points="442.193 94.487 440.37 92.333 438.215 90.51 437.552 90.178"/>
  <polyline style="fill: none; stroke-linecap: round; stroke: rgb(170, 102, 25);" points="487.604 93.327 488.93 91.338 491.25 89.018 492.41 88.355"/>
  <polyline style="fill: none; stroke-linecap: round; stroke: rgb(170, 102, 25);" points="486.444 102.443 487.936 99.957 489.593 98.133 490.422 97.305"/>
  <polyline style="fill: none; stroke-linecap: round; stroke: rgb(170, 102, 25);" points="483.958 111.392 485.118 109.569 487.107 107.415 488.93 105.923 490.09 105.26"/>
  <polyline style="fill: none; stroke-linecap: round; stroke: rgb(170, 102, 25);" points="482.301 121.171 483.626 118.519 485.781 115.867 487.604 114.707"/>
  <polygon style="fill: url(#gradient-8);" points="438.9360046386719 119.1719970703125 431.73199462890625 168.87100219726562 442.6669921875 173.28199768066406 456.4949951171875 174.843994140625 475.0799865722656 175.1510009765625 487.9989929199219 172.17999267578125 502.8599853515625 166.94400024414062 499.50201416015625 157.51100158691406 488.6059875488281 119.45999908447266"/>
  <polygon style="fill: url(#gradient-7);" points="477.7720031738281 45.22100067138672 477.91900634765625 48.32400131225586 454.35400390625 42.560001373291016 442.906005859375 39.64799880981445 434.1289978027344 36.00899887084961 410.4700012207031 33.09700012207031 411.614990234375 30.184999465942383 415.0480041503906 27.636999130249023 418.4830017089844 26.545000076293945 426.8789978027344 24.725000381469727 431.8399963378906 25.089000701904297 436.4179992675781 28.364999771118164 440.2349853515625 30.913000106811523 446.72198486328125 34.18899917602539 455.11700439453125 37.82899856567383 473.6210021972656 44.013999938964844"/>
  <polygon style="fill: url(#gradient-6);" points="482.947 45.41 486.462 43.342 490.598 39.206 492.667 36.31 494.114 32.588 495.355 30.313 496.182 29.693 500.939 28.865 506.316 28.865 514.588 29.693 519.345 32.174 522.447 35.69 526.17 41.481 527.617 47.478 528.651 50.994 530.306 56.991 530.926 59.473 533.201 66.298 526.583 62.368 522.447 59.059 515.622 53.889 509.625 50.58 504.868 49.546 500.112 48.926 494.321 49.133 489.978 49.339 485.842 49.133 483.981 48.719"/>
  <circle style="fill: rgb(252, 187, 114);" cx="481.122" cy="46.715" r="5.611"/>
  <polygon style="fill: rgb(226, 160, 98);" points="405.476 50.504 404.417 45.914 403.887 40.44 405.653 35.143 407.418 31.965 411.126 26.491 415.717 23.666 420.131 22.077 424.722 22.254 426.664 22.43 427.724 24.549 428.606 27.727 430.725 30.199 437.788 34.26 440.436 38.498 442.732 42.735 446.793 46.973 457.563 64.1 458.799 67.631 461.625 75.224 463.92 83.699 464.626 85.818 463.037 87.23 458.446 82.816 456.328 80.168 457.034 84.229 454.738 85.818 450.324 81.051 448.735 80.344 448.205 85.288 443.085 77.872 438.318 70.81 432.667 65.866 421.72 53.506 421.897 58.273 421.544 61.981 420.484 66.572 417.13 70.103 415.011 62.688 413.422 56.861 409.89 51.034 408.478 56.155 406.359 59.686 404.593 61.628 401.768 68.161"/>
  <polygon style="fill: rgb(141, 85, 39);" points="412.968994140625 32.96699905395508 413.3219909667969 34.60499954223633 414.2309875488281 34.60499954223633 415.4129943847656 33.242000579833984 414.6860046386719 32.51499938964844 413.7770080566406 32.51499938964844 413.4129943847656 32.7869987487793"/>
  <polygon style="fill: rgb(0, 1, 0);" points="412.55999755859375 32.680999755859375 413.22198486328125 33.625 413.5450134277344 34.21799850463867 414.4079895019531 34.055999755859375 414.8399963378906 33.625 415.05499267578125 32.599998474121094 415.05499267578125 32.277000427246094 415.7569885253906 32.16899871826172 416.2959899902344 33.24700164794922 416.0260009765625 34.11000061035156 415.64898681640625 34.91899871826172 414.2460021972656 35.72800064086914 413.5989990234375 35.83599853515625 412.30499267578125 35.619998931884766 411.7650146484375 34.75699996948242 411.4960021972656 34.11000061035156 411.65899658203125 33.27299880981445"/>
  <polygon style="fill: rgb(141, 85, 39);" points="420.899 30.539 421.252 32.177 422.161 32.177 423.343 30.814 422.616 30.087 421.707 30.087 421.343 30.359" transform="matrix(0.85385, 0.52052, -0.52052, 0.85385, 77.897967, -215.172369)"/>
  <polygon style="fill: rgb(0, 1, 0);" points="420.302 30.035 420.964 30.979 421.287 31.572 422.15 31.41 422.582 30.979 422.797 29.954 422.797 29.631 423.499 29.523 424.038 30.601 423.768 31.464 423.391 32.273 421.988 33.082 421.341 33.19 420.047 32.974 419.507 32.111 419.238 31.464 419.401 30.627" transform="matrix(0.85385, 0.52052, -0.52052, 0.85385, 77.944235, -214.888154)"/>
  <polygon style="fill: rgb(141, 85, 39);" points="419.954 35.774 420.307 37.412 421.216 37.412 422.398 36.049 421.671 35.322 420.762 35.322 420.398 35.594" transform="matrix(0.984881, 0.173233, -0.173233, 0.984881, 12.667778, -72.411743)"/>
  <polygon style="fill: rgb(0, 1, 0);" points="419.472 35.431 420.134 36.375 420.457 36.968 421.32 36.806 421.752 36.375 421.967 35.35 421.967 35.027 422.669 34.919 423.208 35.997 422.938 36.86 422.561 37.669 421.158 38.478 420.511 38.586 419.217 38.37 418.677 37.507 418.408 36.86 418.571 36.023" transform="matrix(0.984881, 0.173233, -0.173233, 0.984881, 12.728996, -72.342163)"/>
  <polygon style="fill: rgb(141, 85, 39);" points="412.997 38.475 413.35 40.113 414.259 40.113 415.441 38.75 414.714 38.023 413.805 38.023 413.441 38.295" transform="matrix(0.984881, 0.173233, -0.173233, 0.984881, 13.030497, -71.165724)"/>
  <polygon style="fill: rgb(0, 1, 0);" points="412.515 38.132 413.177 39.076 413.5 39.669 414.363 39.507 414.795 39.076 415.01 38.051 415.01 37.728 415.712 37.62 416.251 38.698 415.981 39.561 415.604 40.37 414.201 41.179 413.554 41.287 412.26 41.071 411.72 40.208 411.451 39.561 411.614 38.724" transform="matrix(0.984881, 0.173233, -0.173233, 0.984881, 13.091714, -71.096144)"/>
  <polygon style="fill: rgb(141, 85, 39);" points="420.224 41.644 420.577 43.282 421.486 43.282 422.668 41.919 421.941 41.192 421.032 41.192 420.668 41.464" transform="matrix(0.874415, 0.485179, -0.485179, 0.874415, 73.419836, -199.172369)"/>
  <polygon style="fill: rgb(0, 1, 0);" points="419.636 41.16 420.298 42.104 420.621 42.697 421.484 42.535 421.916 42.104 422.131 41.079 422.131 40.756 422.833 40.648 423.372 41.726 423.102 42.589 422.725 43.398 421.322 44.207 420.675 44.315 419.381 44.099 418.841 43.236 418.572 42.589 418.735 41.752" transform="matrix(0.874415, 0.485179, -0.485179, 0.874415, 73.478934, -198.91169)"/>
  <polygon style="fill: rgb(141, 85, 39);" points="427.269 35.846 427.622 37.484 428.531 37.484 429.713 36.121 428.986 35.394 428.077 35.394 427.713 35.666" transform="matrix(0.861358, 0.507999, -0.507999, 0.861358, 77.91794, -212.62097)"/>
  <polygon style="fill: rgb(0, 1, 0);" points="426.675 35.349 427.337 36.293 427.66 36.886 428.523 36.724 428.955 36.293 429.17 35.268 429.17 34.945 429.872 34.837 430.411 35.915 430.141 36.778 429.764 37.587 428.361 38.396 427.714 38.504 426.42 38.288 425.88 37.425 425.611 36.778 425.774 35.941" transform="matrix(0.861358, 0.507999, -0.507999, 0.861358, 77.968992, -212.34503)"/>
  <polygon style="fill: rgb(141, 85, 39);" points="434.316 36.435 434.669 38.073 435.578 38.073 436.76 36.71 436.033 35.983 435.124 35.983 434.76 36.255" transform="matrix(0.843853, 0.536575, -0.536575, 0.843853, 87.876322, -227.916864)"/>
  <polygon style="fill: rgb(0, 1, 0);" points="433.714 35.922 434.376 36.866 434.699 37.459 435.562 37.297 435.994 36.866 436.209 35.841 436.209 35.518 436.911 35.41 437.45 36.488 437.18 37.351 436.803 38.16 435.4 38.969 434.753 39.077 433.459 38.861 432.919 37.998 432.65 37.351 432.813 36.514" transform="matrix(0.843853, 0.536575, -0.536575, 0.843853, 87.915752, -227.621362)"/>
  <polygon style="fill: rgb(141, 85, 39);" points="427.505 43.92 427.858 45.558 428.767 45.558 429.949 44.195 429.222 43.468 428.313 43.468 427.949 43.74"/>
  <polygon style="fill: rgb(0, 1, 0);" points="427.096 43.634 427.758 44.578 428.081 45.171 428.944 45.009 429.376 44.578 429.591 43.553 429.591 43.23 430.293 43.122 430.832 44.2 430.562 45.063 430.185 45.872 428.782 46.681 428.135 46.789 426.841 46.573 426.301 45.71 426.032 45.063 426.195 44.226"/>
  <polygon style="fill: rgb(141, 85, 39);" points="435.435 41.492 435.788 43.13 436.697 43.13 437.879 41.767 437.152 41.04 436.243 41.04 435.879 41.312" transform="matrix(0.85385, 0.52052, -0.52052, 0.85385, 85.723665, -221.137864)"/>
  <polygon style="fill: rgb(0, 1, 0);" points="434.838 40.988 435.5 41.932 435.823 42.525 436.686 42.363 437.118 41.932 437.333 40.907 437.333 40.584 438.035 40.476 438.574 41.554 438.304 42.417 437.927 43.226 436.524 44.035 435.877 44.143 434.583 43.927 434.043 43.064 433.774 42.417 433.937 41.58" transform="matrix(0.85385, 0.52052, -0.52052, 0.85385, 85.769931, -220.853641)"/>
  <polygon style="fill: rgb(141, 85, 39);" points="427.533 49.428 427.886 51.066 428.795 51.066 429.977 49.703 429.25 48.976 428.341 48.976 427.977 49.248" transform="matrix(0.984881, 0.173233, -0.173233, 0.984881, 15.14769, -73.518235)"/>
  <polygon style="fill: rgb(0, 1, 0);" points="427.051 49.085 427.713 50.029 428.036 50.622 428.899 50.46 429.331 50.029 429.546 49.004 429.546 48.681 430.248 48.573 430.787 49.651 430.517 50.514 430.14 51.323 428.737 52.132 428.09 52.24 426.796 52.024 426.256 51.161 425.987 50.514 426.15 49.677" transform="matrix(0.984881, 0.173233, -0.173233, 0.984881, 15.208907, -73.448658)"/>
  <polygon style="fill: rgb(141, 85, 39);" points="434.76 52.597 435.113 54.235 436.022 54.235 437.204 52.872 436.477 52.145 435.568 52.145 435.204 52.417" transform="matrix(0.874415, 0.485179, -0.485179, 0.874415, 80.559506, -204.849402)"/>
  <polygon style="fill: rgb(0, 1, 0);" points="434.172 52.113 434.834 53.057 435.157 53.65 436.02 53.488 436.452 53.057 436.667 52.032 436.667 51.709 437.369 51.601 437.908 52.679 437.638 53.542 437.261 54.351 435.858 55.16 435.211 55.268 433.917 55.052 433.377 54.189 433.108 53.542 433.271 52.705" transform="matrix(0.874415, 0.485179, -0.485179, 0.874415, 80.618604, -204.588714)"/>
  <polygon style="fill: rgb(141, 85, 39);" points="441.805 46.799 442.158 48.437 443.067 48.437 444.249 47.074 443.522 46.347 442.613 46.347 442.249 46.619" transform="matrix(0.861358, 0.507999, -0.507999, 0.861358, 85.497353, -218.486684)"/>
  <polygon style="fill: rgb(0, 1, 0);" points="441.211 46.302 441.873 47.246 442.196 47.839 443.059 47.677 443.491 47.246 443.706 46.221 443.706 45.898 444.408 45.79 444.947 46.868 444.677 47.731 444.3 48.54 442.897 49.349 442.25 49.457 440.956 49.241 440.416 48.378 440.147 47.731 440.31 46.894" transform="matrix(0.861358, 0.507999, -0.507999, 0.861358, 85.548407, -218.21075)"/>
  <polygon style="fill: rgb(141, 85, 39);" points="437.316 58.097 437.669 59.735 438.578 59.735 439.76 58.372 439.033 57.645 438.124 57.645 437.76 57.917"/>
  <polygon style="fill: rgb(0, 1, 0);" points="436.907 57.811 437.569 58.755 437.892 59.348 438.755 59.186 439.187 58.755 439.402 57.73 439.402 57.407 440.104 57.299 440.643 58.377 440.373 59.24 439.996 60.049 438.593 60.858 437.946 60.966 436.652 60.75 436.112 59.887 435.843 59.24 436.006 58.403"/>
  <polygon style="fill: rgb(141, 85, 39);" points="445.246 55.669 445.599 57.307 446.508 57.307 447.69 55.944 446.963 55.217 446.054 55.217 445.69 55.489" transform="matrix(0.85385, 0.52052, -0.52052, 0.85385, 94.536955, -224.172712)"/>
  <polygon style="fill: rgb(0, 1, 0);" points="444.649 55.165 445.311 56.109 445.634 56.702 446.497 56.54 446.929 56.109 447.144 55.084 447.144 54.761 447.846 54.653 448.385 55.731 448.115 56.594 447.738 57.403 446.335 58.212 445.688 58.32 444.394 58.104 443.854 57.241 443.585 56.594 443.748 55.757" transform="matrix(0.85385, 0.52052, -0.52052, 0.85385, 94.583221, -223.88849)"/>
  <polygon style="fill: rgb(141, 85, 39);" points="437.344 63.605 437.697 65.243 438.606 65.243 439.788 63.88 439.061 63.153 438.152 63.153 437.788 63.425" transform="matrix(0.984881, 0.173233, -0.173233, 0.984881, 17.751947, -75.003481)"/>
  <polygon style="fill: rgb(0, 1, 0);" points="436.862 63.262 437.524 64.206 437.847 64.799 438.71 64.637 439.142 64.206 439.357 63.181 439.357 62.858 440.059 62.75 440.598 63.828 440.328 64.691 439.951 65.5 438.548 66.309 437.901 66.417 436.607 66.201 436.067 65.338 435.798 64.691 435.961 63.854" transform="matrix(0.984881, 0.173233, -0.173233, 0.984881, 17.813165, -74.933904)"/>
  <polygon style="fill: rgb(141, 85, 39);" points="444.571 66.774 444.924 68.412 445.833 68.412 447.015 67.049 446.288 66.322 445.379 66.322 445.015 66.594" transform="matrix(0.874415, 0.485179, -0.485179, 0.874415, 88.670004, -207.829074)"/>
  <polygon style="fill: rgb(0, 1, 0);" points="443.983 66.29 444.645 67.234 444.968 67.827 445.831 67.665 446.263 67.234 446.478 66.209 446.478 65.886 447.18 65.778 447.719 66.856 447.449 67.719 447.072 68.528 445.669 69.337 445.022 69.445 443.728 69.229 443.188 68.366 442.919 67.719 443.082 66.882" transform="matrix(0.874415, 0.485179, -0.485179, 0.874415, 88.7291, -207.568387)"/>
  <polygon style="fill: rgb(141, 85, 39);" points="451.616 60.976 451.969 62.614 452.878 62.614 454.06 61.251 453.333 60.524 452.424 60.524 452.06 60.796" transform="matrix(0.861358, 0.507999, -0.507999, 0.861358, 94.059472, -221.505132)"/>
  <polygon style="fill: rgb(0, 1, 0);" points="451.022 60.479 451.684 61.423 452.007 62.016 452.87 61.854 453.302 61.423 453.517 60.398 453.517 60.075 454.219 59.967 454.758 61.045 454.488 61.908 454.111 62.717 452.708 63.526 452.061 63.634 450.767 63.418 450.227 62.555 449.958 61.908 450.121 61.071" transform="matrix(0.861358, 0.507999, -0.507999, 0.861358, 94.110526, -221.229199)"/>
  <polygon style="fill: rgb(141, 85, 39);" points="445.406 61.473 445.759 63.111 446.668 63.111 447.85 61.748 447.123 61.021 446.214 61.021 445.85 61.293" transform="matrix(0.85385, 0.52052, -0.52052, 0.85385, 97.581437, -223.407741)"/>
  <polygon style="fill: rgb(0, 1, 0);" points="444.809 60.969 445.471 61.913 445.794 62.506 446.657 62.344 447.089 61.913 447.304 60.888 447.304 60.565 448.006 60.457 448.545 61.535 448.275 62.398 447.898 63.207 446.495 64.016 445.848 64.124 444.554 63.908 444.014 63.045 443.745 62.398 443.908 61.561" transform="matrix(0.85385, 0.52052, -0.52052, 0.85385, 97.627703, -223.123518)"/>
  <polygon style="fill: rgb(141, 85, 39);" points="453.556 68.737 453.909 70.375 454.818 70.375 456 69.012 455.273 68.285 454.364 68.285 454 68.557" transform="matrix(0.85385, 0.52052, -0.52052, 0.85385, 102.553618, -226.588337)"/>
  <polygon style="fill: rgb(0, 1, 0);" points="452.959 68.233 453.621 69.177 453.944 69.77 454.807 69.608 455.239 69.177 455.454 68.152 455.454 67.829 456.156 67.721 456.695 68.799 456.425 69.662 456.048 70.471 454.645 71.28 453.998 71.388 452.704 71.172 452.164 70.309 451.895 69.662 452.058 68.825" transform="matrix(0.85385, 0.52052, -0.52052, 0.85385, 102.599883, -226.304114)"/>
  <polygon style="fill: rgb(141, 85, 39);" points="446.735 74.761 447.088 76.399 447.997 76.399 449.179 75.036 448.452 74.309 447.543 74.309 447.179 74.581" transform="matrix(0.85385, 0.52052, -0.52052, 0.85385, 104.692334, -222.157454)"/>
  <polygon style="fill: rgb(0, 1, 0);" points="446.138 74.257 446.8 75.201 447.123 75.794 447.986 75.632 448.418 75.201 448.633 74.176 448.633 73.853 449.335 73.745 449.874 74.823 449.604 75.686 449.227 76.495 447.824 77.304 447.177 77.412 445.883 77.196 445.343 76.333 445.074 75.686 445.237 74.849" transform="matrix(0.85385, 0.52052, -0.52052, 0.85385, 104.738604, -221.873239)"/>
  <polygon style="fill: rgb(141, 85, 39);" points="455.77 76.089 456.123 77.727 457.032 77.727 458.214 76.364 457.487 75.637 456.578 75.637 456.214 75.909" transform="matrix(0.85385, 0.52052, -0.52052, 0.85385, 106.704053, -226.666265)"/>
  <polygon style="fill: rgb(0, 1, 0);" points="455.173 75.585 455.835 76.529 456.158 77.122 457.021 76.96 457.453 76.529 457.668 75.504 457.668 75.181 458.37 75.073 458.909 76.151 458.639 77.014 458.262 77.823 456.859 78.632 456.212 78.74 454.918 78.524 454.378 77.661 454.109 77.014 454.272 76.177" transform="matrix(0.85385, 0.52052, -0.52052, 0.85385, 106.750321, -226.38205)"/>
  <polygon style="fill: rgb(141, 85, 39);" points="435.485 47.921 435.838 49.559 436.747 49.559 437.929 48.196 437.202 47.469 436.293 47.469 435.929 47.741" transform="matrix(0.85385, 0.52052, -0.52052, 0.85385, 89.077392, -220.224283)"/>
  <polygon style="fill: rgb(0, 1, 0);" points="434.888 47.417 435.55 48.361 435.873 48.954 436.736 48.792 437.168 48.361 437.383 47.336 437.383 47.013 438.085 46.905 438.624 47.983 438.354 48.846 437.977 49.655 436.574 50.464 435.927 50.572 434.633 50.356 434.093 49.493 433.824 48.846 433.987 48.009" transform="matrix(0.85385, 0.52052, -0.52052, 0.85385, 89.123659, -219.940069)"/>
  <polygon style="fill: rgb(141, 85, 39);" points="418.273 47.336 418.626 48.974 419.535 48.974 420.717 47.611 419.99 46.884 419.081 46.884 418.717 47.156" transform="matrix(0.999249, -0.038757, 0.038757, 0.999249, -1.542397, 16.294296)"/>
  <polygon style="fill: rgb(0, 1, 0);" points="417.881 47.062 418.543 48.006 418.866 48.599 419.729 48.437 420.161 48.006 420.376 46.981 420.376 46.658 421.078 46.55 421.617 47.628 421.347 48.491 420.97 49.3 419.567 50.109 418.92 50.217 417.626 50.001 417.086 49.138 416.817 48.491 416.98 47.654" transform="matrix(0.999249, -0.038757, 0.038757, 0.999249, -1.560221, 16.283863)"/>
  <polygon style="fill: rgb(141, 85, 39);" points="415.881 53.891 416.234 55.529 417.143 55.529 418.325 54.166 417.598 53.439 416.689 53.439 416.325 53.711" transform="matrix(0.999249, -0.038757, 0.038757, 0.999249, -1.798252, 16.206596)"/>
  <polygon style="fill: rgb(0, 1, 0);" points="415.489 53.617 416.151 54.561 416.474 55.154 417.337 54.992 417.769 54.561 417.984 53.536 417.984 53.213 418.686 53.105 419.225 54.183 418.955 55.046 418.578 55.855 417.175 56.664 416.528 56.772 415.234 56.556 414.694 55.693 414.425 55.046 414.588 54.209" transform="matrix(0.999249, -0.038757, 0.038757, 0.999249, -1.816076, 16.196163)"/>
  <polygon style="fill: rgb(141, 85, 39);" points="417.475 60.978 417.828 62.616 418.737 62.616 419.92 61.253 419.192 60.526 418.283 60.526 417.919 60.798" transform="matrix(0.999249, -0.038757, 0.038757, 0.999249, -2.071725, 16.273719)"/>
  <polygon style="fill: rgb(0, 1, 0);" points="417.084 60.704 417.745 61.648 418.068 62.241 418.931 62.079 419.364 61.648 419.578 60.623 419.578 60.3 420.28 60.192 420.819 61.27 420.549 62.133 420.172 62.942 418.769 63.751 418.123 63.859 416.828 63.643 416.288 62.78 416.019 62.133 416.182 61.296" transform="matrix(0.999249, -0.038757, 0.038757, 0.999249, -2.089549, 16.263266)"/>
  <polygon style="fill: rgb(141, 85, 39);" points="411.718 45.387 412.071 47.025 412.98 47.025 414.162 45.662 413.435 44.935 412.526 44.935 412.162 45.207" transform="matrix(0.999249, -0.038757, 0.038757, 0.999249, -1.471791, 16.03886)"/>
  <polygon style="fill: rgb(0, 1, 0);" points="411.326 45.113 411.988 46.057 412.311 46.65 413.174 46.488 413.606 46.057 413.821 45.032 413.821 44.709 414.523 44.601 415.062 45.679 414.792 46.542 414.415 47.351 413.012 48.16 412.365 48.268 411.071 48.052 410.531 47.189 410.262 46.542 410.425 45.705" transform="matrix(0.999249, -0.038757, 0.038757, 0.999249, -1.489615, 16.028428)"/>
  <polygon style="fill: rgb(141, 85, 39);" points="406.91 40.708 407.263 42.346 408.172 42.346 409.354 40.983 408.627 40.256 407.718 40.256 407.354 40.528" transform="matrix(0.90232, -0.431066, 0.431066, 0.90232, 22.062768, 179.966247)"/>
  <polygon style="fill: rgb(0, 1, 0);" points="406.72 40.507 407.382 41.451 407.705 42.044 408.568 41.882 409 41.451 409.215 40.426 409.215 40.103 409.917 39.995 410.456 41.073 410.186 41.936 409.809 42.745 408.406 43.554 407.759 43.662 406.465 43.446 405.925 42.583 405.656 41.936 405.819 41.099" transform="matrix(0.90232, -0.431066, 0.431066, 0.90232, 21.827957, 179.98501)"/>
  <polygon style="fill: rgb(141, 85, 39);" points="413.819 26.801 414.172 28.439 415.081 28.439 416.263 27.076 415.536 26.349 414.627 26.349 414.263 26.621" transform="matrix(0.90232, -0.431066, 0.431066, 0.90232, 28.732434, 181.585942)"/>
  <polygon style="fill: rgb(0, 1, 0);" points="413.629 26.6 414.291 27.544 414.614 28.137 415.477 27.975 415.909 27.544 416.124 26.519 416.124 26.196 416.826 26.088 417.365 27.166 417.095 28.029 416.718 28.838 415.315 29.647 414.668 29.755 413.374 29.539 412.834 28.676 412.565 28.029 412.728 27.192" transform="matrix(0.90232, -0.431066, 0.431066, 0.90232, 28.497623, 181.604705)"/>
  <polygon style="fill: rgb(141, 85, 39);" points="422.287 24.007 422.64 25.645 423.549 25.645 424.731 24.282 424.004 23.555 423.095 23.555 422.731 23.827" transform="matrix(0.986201, -0.165553, 0.165553, 0.986201, 1.771439, 70.452616)"/>
  <polygon style="fill: rgb(0, 1, 0);" points="421.955 23.765 422.617 24.709 422.94 25.302 423.803 25.14 424.235 24.709 424.45 23.684 424.45 23.361 425.152 23.253 425.691 24.331 425.421 25.194 425.044 26.003 423.641 26.812 422.994 26.92 421.7 26.704 421.16 25.841 420.891 25.194 421.054 24.357" transform="matrix(0.986201, -0.165553, 0.165553, 0.986201, 1.687889, 70.423241)"/>
  <polygon style="fill: rgb(141, 85, 39);" points="406.821 35.216 407.174 36.854 408.083 36.854 409.265 35.491 408.538 34.764 407.629 34.764 407.265 35.036" transform="matrix(0.90232, -0.431066, 0.431066, 0.90232, 24.421452, 179.391322)"/>
  <polygon style="fill: rgb(0, 1, 0);" points="406.631 35.015 407.293 35.959 407.616 36.552 408.479 36.39 408.911 35.959 409.126 34.934 409.126 34.611 409.828 34.503 410.367 35.581 410.097 36.444 409.72 37.253 408.317 38.062 407.67 38.17 406.376 37.954 405.836 37.091 405.567 36.444 405.73 35.607" transform="matrix(0.90232, -0.431066, 0.431066, 0.90232, 24.18664, 179.410079)"/>
  <polygon style="fill: rgb(141, 85, 39);" points="406.201 50.385 406.51 51.815 407.303 51.815 408.335 50.625 407.7 49.991 406.907 49.991 406.589 50.228" transform="matrix(0.689637, -0.724155, 0.724155, 0.689637, 89.53921, 310.723618)"/>
  <polygon style="fill: rgb(0, 1, 0);" points="406.205 50.203 406.782 51.027 407.064 51.544 407.818 51.403 408.195 51.027 408.382 50.132 408.382 49.85 408.995 49.756 409.465 50.697 409.23 51.45 408.901 52.156 407.676 52.862 407.111 52.957 405.982 52.768 405.511 52.015 405.276 51.45 405.418 50.72" transform="matrix(0.689637, -0.724155, 0.724155, 0.689637, 89.24262, 310.9386)"/>
  <polygon style="fill: rgb(141, 85, 39);" points="405.217 55.611 405.466 56.781 406.103 56.781 406.934 55.808 406.423 55.289 405.785 55.289 405.529 55.483" transform="matrix(0.578689, -0.815549, 0.815549, 0.578689, 125.384968, 354.782482)"/>
  <polygon style="fill: rgb(0, 1, 0);" points="405.276 55.444 405.74 56.118 405.967 56.541 406.574 56.426 406.877 56.118 407.027 55.386 407.027 55.155 407.52 55.078 407.898 55.848 407.709 56.464 407.445 57.042 406.459 57.62 406.005 57.698 405.097 57.543 404.718 56.927 404.529 56.464 404.643 55.867" transform="matrix(0.578689, -0.815549, 0.815549, 0.578689, 125.15522, 355.043752)"/>
  <polygon style="fill: rgb(141, 85, 39);" points="429.47 57.295 429.823 58.933 430.732 58.933 431.914 57.57 431.187 56.843 430.278 56.843 429.914 57.115" transform="matrix(0.659039, 0.752108, -0.752108, 0.659039, 190.387039, -304.189542)"/>
  <polygon style="fill: rgb(0, 1, 0);" points="428.827 56.636 429.489 57.58 429.812 58.173 430.675 58.011 431.107 57.58 431.322 56.555 431.322 56.232 432.024 56.124 432.563 57.202 432.293 58.065 431.916 58.874 430.513 59.683 429.866 59.791 428.572 59.575 428.032 58.712 427.763 58.065 427.926 57.228" transform="matrix(0.659039, 0.752108, -0.752108, 0.659039, 190.258941, -303.767974)"/>
  <polygon style="fill: rgb(141, 85, 39);" points="442.089 72.483 442.301 73.467 442.847 73.467 443.558 72.648 443.121 72.211 442.574 72.211 442.356 72.375" transform="matrix(0.659039, 0.752108, -0.752108, 0.659039, 205.768176, -308.216043)"/>
  <polygon style="fill: rgb(0, 1, 0);" points="441.702 72.087 442.1 72.654 442.294 73.01 442.813 72.913 443.073 72.654 443.202 72.038 443.202 71.844 443.624 71.779 443.948 72.427 443.785 72.946 443.559 73.432 442.716 73.918 442.327 73.983 441.549 73.853 441.224 73.334 441.063 72.946 441.161 72.442" transform="matrix(0.659039, 0.752108, -0.752108, 0.659039, 205.691336, -307.962546)"/>
  <polygon style="fill: rgb(141, 85, 39);" points="452.737 79.893 452.949 80.877 453.495 80.877 454.206 80.058 453.769 79.621 453.222 79.621 453.004 79.785" transform="matrix(0.659039, 0.752108, -0.752108, 0.659039, 214.971845, -313.697971)"/>
  <polygon style="fill: rgb(0, 1, 0);" points="452.35 79.497 452.748 80.064 452.942 80.42 453.461 80.323 453.721 80.064 453.85 79.448 453.85 79.254 454.272 79.189 454.596 79.837 454.433 80.356 454.207 80.842 453.364 81.328 452.975 81.393 452.197 81.263 451.872 80.744 451.711 80.356 451.809 79.852" transform="matrix(0.659039, 0.752108, -0.752108, 0.659039, 214.895011, -313.444486)"/>
  <polygon style="fill: rgb(141, 85, 39);" points="460.108 80.915 460.32 81.899 460.866 81.899 461.577 81.08 461.14 80.643 460.593 80.643 460.375 80.807" transform="matrix(0.659039, 0.752108, -0.752108, 0.659039, 218.253721, -318.893303)"/>
  <polygon style="fill: rgb(0, 1, 0);" points="459.721 80.519 460.119 81.086 460.313 81.442 460.832 81.345 461.092 81.086 461.221 80.47 461.221 80.276 461.643 80.211 461.967 80.859 461.804 81.378 461.578 81.864 460.735 82.35 460.346 82.415 459.568 82.285 459.243 81.766 459.082 81.378 459.18 80.874" transform="matrix(0.659039, 0.752108, -0.752108, 0.659039, 218.176886, -318.639817)"/>
  <polygon style="fill: rgb(141, 85, 39);" points="448.83 71.312 449.042 72.296 449.588 72.296 450.299 71.477 449.862 71.04 449.315 71.04 449.097 71.204" transform="matrix(0.890594, 0.4548, -0.4548, 0.890594, 81.779716, -196.620827)"/>
  <polygon style="fill: rgb(0, 1, 0);" points="448.481 71.031 448.879 71.598 449.073 71.954 449.592 71.857 449.852 71.598 449.981 70.982 449.981 70.788 450.403 70.723 450.727 71.371 450.564 71.89 450.338 72.376 449.495 72.862 449.106 72.927 448.328 72.797 448.003 72.278 447.842 71.89 447.94 71.386" transform="matrix(0.890594, 0.4548, -0.4548, 0.890594, 81.820486, -196.476306)"/>
  <polygon style="fill: rgb(141, 85, 39);" points="446.13 51.241 446.342 52.225 446.888 52.225 447.599 51.406 447.162 50.969 446.615 50.969 446.397 51.133" transform="matrix(0.890594, 0.4548, -0.4548, 0.890594, 72.356122, -197.588887)"/>
  <polygon style="fill: rgb(0, 1, 0);" points="445.781 50.96 446.179 51.527 446.373 51.883 446.892 51.786 447.152 51.527 447.281 50.911 447.281 50.717 447.703 50.652 448.027 51.3 447.864 51.819 447.638 52.305 446.795 52.791 446.406 52.856 445.628 52.726 445.303 52.207 445.142 51.819 445.24 51.315" transform="matrix(0.890594, 0.4548, -0.4548, 0.890594, 72.396891, -197.444367)"/>
  <polygon style="fill: rgb(141, 85, 39);" points="428.541 31.682 428.753 32.666 429.299 32.666 430.01 31.847 429.573 31.41 429.026 31.41 428.808 31.574" transform="matrix(0.890594, 0.4548, -0.4548, 0.890594, 61.536342, -191.729289)"/>
  <polygon style="fill: rgb(0, 1, 0);" points="428.192 31.401 428.59 31.968 428.784 32.324 429.303 32.227 429.563 31.968 429.692 31.352 429.692 31.158 430.114 31.093 430.438 31.741 430.275 32.26 430.049 32.746 429.206 33.232 428.817 33.297 428.039 33.167 427.714 32.648 427.553 32.26 427.651 31.756" transform="matrix(0.890594, 0.4548, -0.4548, 0.890594, 61.577112, -191.584769)"/>
  <polygon style="fill: rgb(195, 119, 6);" points="439.02899169921875 118.9229965209961 446.97698974609375 119.13200378417969 443.6579895019531 151.9429931640625 437.8609924316406 158.6479949951172 434.1130065917969 152.68499755859375"/>
  <polygon style="fill: rgb(195, 119, 6);" points="447.13 119.132 455.152 119.236 454.11 151.635 449.839 158.823 443.797 152.156"/>
  <polygon style="fill: rgb(195, 119, 6);" points="455.256 119.132 462.965 119.236 464.841 150.906 460.778 159.553 454.735 152.052"/>
  <polygon style="fill: rgb(195, 119, 6);" points="463.07 119.236 471.404 119.34 475.363 150.072 472.966 159.865 465.153 151.218"/>
  <polygon style="fill: rgb(195, 119, 6);" points="471.562 119.186 479.634 119.394 486.718 150.127 484.218 160.023 475.675 150.335"/>
  <polygon style="fill: rgb(195, 119, 6);" points="479.648 119.345 488.608 119.345 497.15 149.348 496.213 158.828 486.837 150.286"/>
  <polyline style="fill: none; stroke: rgb(50, 50, 50);" points="393.895 281.395 397.32 279.683 401.954 279.884 407.293 281.395 410.718 283.108 413.438 286.634 416.058 286.432 419.483 285.022 416.964 282.403 413.64 279.28 408.704 276.157 403.465 274.243 401.853 273.739 399.536 273.739 407.797 269.81 411.121 270.616 417.267 273.336 419.483 277.063 420.792 280.086 421.699 282.806 422.404 284.115 427.744 282.201 426.132 274.746 424.117 271.825 419.281 268.702 416.058 267.292 413.237 266.687 417.669 264.269 422.505 264.974 426.031 266.889 429.355 269.81 432.277 274.847 433.284 277.366 433.99 279.38"/>
  <polygon style="fill: rgb(69, 10, 10);" points="429.608 256.192 430.618 252.945 439.854 256.77 438.411 259.872"/>
  <polygon style="fill: rgb(69, 10, 10);" points="441.225 222.495 445.049 222.279 445.41 225.309 441.009 225.887"/>
  <polygon style="fill: url(#gradient-9);" points="427.614990234375 209.1750030517578 430.489990234375 208.12899780273438 432.1289978027344 206.49000549316406 432.67498779296875 205.8070068359375 433.1210021972656 207.4980010986328 434.0409851074219 209.0850067138672 435.4070129394531 211.27000427246094 437.72900390625 213.04600524902344 438.68499755859375 213.72799682617188 441.2799987792969 215.2310028076172 441.9630126953125 220.83099365234375 441.9630126953125 225.7480010986328 440.59698486328125 231.48399353027344 438.00201416015625 237.76699829101562 437.0459899902344 240.9080047607422 433.0849914550781 251.01499938964844 428.9859924316406 262.7860107421875 423.25799560546875 263.9209899902344 421.1659851074219 260.46600341796875"/>
  <polyline style="fill: none; stroke: rgb(50, 50, 50);" points="522.045 288.699 522.55 286.049 523.686 283.146 525.957 280.117 528.355 277.593 530.753 276.205 527.977 273.176 522.171 272.797 518.637 274.564 514.977 278.224 513.463 280.622 511.696 283.777 511.065 285.67 505.638 283.777 505.638 280.117 507.279 276.836 509.929 273.68 511.949 271.787 514.851 269.894 518.259 268.758 513.842 266.234 510.308 266.234 508.162 268.127 506.143 269.768 503.745 271.787 500.842 275.069 499.076 278.224 498.318 280.117 498.318 280.622 493.018 277.845 494.532 273.554 497.056 269.894 499.959 266.739 503.114 264.846 508.667 263.332 509.298 263.205"/>
  <polygon style="fill: rgb(69, 10, 10);" points="490.075 220.908 486.756 220.475 485.89 223.866 490.003 224.444"/>
  <polygon style="fill: rgb(69, 10, 10);" points="495.126 247.534 486.756 249.843 487.405 252.801 495.92 250.42"/>
  <polygon style="fill: url(#gradient-10);" points="495.885009765625 263.1860046386719 498.760009765625 264.23199462890625 500.39898681640625 265.8710021972656 500.94500732421875 266.5539855957031 501.3909912109375 264.8630065917969 502.3110046386719 263.2760009765625 503.677001953125 261.09100341796875 505.9989929199219 259.31500244140625 506.9549865722656 258.63299560546875 509.54998779296875 257.1300048828125 510.2330017089844 251.52999877929688 510.2330017089844 246.61300659179688 508.86700439453125 240.8769989013672 506.2720031738281 234.593994140625 505.3160095214844 231.4530029296875 501.3550109863281 221.3459930419922 496.77398681640625 209.7259979248047 490.7019958496094 209.843994140625 488.635009765625 212.41600036621094" transform="matrix(-0.995519, -0.094559, 0.094559, -0.995519, 973.189644, 518.223235)"/>
  <polygon style="fill: url(#gradient-0);" points="405.389 -38.887 404.6 -42.002 403.179 -44.113 401.571 -44.012 400.064 -47.63 399.36 -48.635 397.954 -49.841 396.446 -49.54 396.446 -47.932 397.551 -45.218 398.054 -43.811 397.652 -42.304 395.943 -40.696 383.985 -34.968 381.875 -36.676 380.267 -36.777 372.328 -33.561 362.983 -29.139 351.125 -23.11 335.75 -13.765 328.917 -8.037 324.898 -3.716 333.64 -5.223 345.397 -8.339 359.767 -13.966 374.941 -20.598 384.186 -25.723 386.699 -27.733 386.498 -30.245 389.814 -32.054 396.647 -35.069 400.365 -36.174 402.576 -34.868 404.083 -32.857 405.189 -30.747 406.194 -31.049 406.696 -31.652 406.696 -33.059 405.691 -35.671 404.586 -37.781 404.787 -38.787 405.289 -39.188" transform="matrix(-0.416593, 0.909093, -0.909093, -0.416593, 493.841354, -370.47777)"/>
  <polyline style="stroke: rgb(0, 0, 0); fill: none; stroke-linecap: round; stroke-opacity: 0.29;" points="360.62 -6.921 360.357 -11.737 360.27 -15.064 360.27 -19.529 360.27 -24.432 360.27 -29.161 360.62 -34.589 361.32 -40.456"/>
  <polyline style="stroke: rgb(0, 0, 0); fill: none; stroke-linecap: round; stroke-opacity: 0.29;" points="364.56 -40.587 364.297 -35.771 364.21 -32.444 364.21 -27.979 364.21 -23.076 364.21 -18.347 364.56 -12.919 365.26 -7.052" transform="matrix(-1, 0, 0, -1, 729.470001, -47.639)"/>
  <polygon style="fill: rgb(254, 145, 21);" points="360.007 266.772 367.463 266.772 367.463 268.653 360.266 268.653"/>
  <circle style="fill: rgb(254, 145, 21);" cx="363.849" cy="271.456" r="3.587"/>
  <polyline style="fill: none; stroke-linecap: round; stroke: rgb(175, 104, 60);" points="508.222 56.224 513.102 55.937 518.27 57.085 522.719 61.248 525.016 67.708 526.021 74.023 526.021 78.33 525.59 82.492 525.447 84.646 525.447 86.368"/>
  <polyline style="fill: none; stroke-linecap: round; stroke: rgb(175, 104, 60);" points="526.452 84.933 527.313 83.067 529.179 81.057 530.758 79.765"/>
  <polyline style="fill: none; stroke-linecap: round; stroke: rgb(175, 104, 60);" points="523.581 91.392 526.308 95.124 528.031 99.574 527.887 107.469 526.739 112.349 524.298 118.235 523.724 119.383"/>
  <polyline style="fill: none; stroke-linecap: round; stroke: rgb(175, 104, 60);" points="377.024 81.057 379.751 84.933 383.196 87.229 388.364 87.947 393.531 87.66 396.689 86.512 397.12 86.225"/>
  <circle style="fill: url(#gradient-12);" cx="437.843" cy="153.275" r="1.309"/>
  <circle style="fill: url(#gradient-13);" cx="449.221" cy="153.344" r="1.309"/>
  <circle style="fill: url(#gradient-14);" cx="460.191" cy="153.752" r="1.309"/>
  <circle style="fill: url(#gradient-15);" cx="471.365" cy="153.344" r="1.309"/>
  <circle style="fill: url(#gradient-16);" cx="482.607" cy="153.207" r="1.309"/>
  <circle style="fill: url(#gradient-17);" cx="493.781" cy="151.777" r="1.309"/>
  <circle style="fill: rgb(246, 167, 77);" cx="481.121" cy="46.807" r="4.411"/>
  <polygon style="fill: rgb(242, 157, 60);" points="397.1029968261719 76.07499694824219 398.7950134277344 70.88099670410156 402.4800109863281 71.36399841308594 405.7409973144531 71.96800231933594 408.760986328125 72.75399780273438 412.989013671875 73.47799682617188 416.010009765625 74.14299774169922 418.364990234375 75.04900360107422 420.8420104980469 76.25700378417969 422.2919921875 77.5260009765625 420.0570068359375 82.2969970703125 415.46600341796875 81.69300079345703 410.0299987792969 80.72699737548828 403.989013671875 79.33799743652344 402.6600036621094 78.9749984741211 398.9150085449219 77.04199981689453"/>
  <polygon style="fill: rgb(195, 121, 36);" points="398.485 71.093 398.814 69.943 402.593 70.403 406.438 70.83 408.771 71.356 411.071 71.783 414.455 72.539 417.577 73.524 419.253 74.149 421.323 75.233 422.835 76.285 422.243 77.796 419.976 76.515 417.018 75.43 413.667 74.214 411.038 73.557 407.916 72.9 403.546 72.079 398.683 71.52"/>
  <polygon style="fill: rgb(195, 121, 36);" points="397.1029968261719 76.59100341796875 397.6159973144531 76.03600311279297 400.5190124511719 76.35299682617188 404.2950134277344 76.77999877929688 406.58599853515625 77.30599975585938 408.843994140625 77.73300170898438 412.1679992675781 78.48899841308594 415.2340087890625 79.4739990234375 416.8789978027344 80.0989990234375 418.9119873046875 81.18299865722656 420.3970031738281 82.23500061035156 419.8160095214844 83.74600219726562 417.5889892578125 82.46499633789062 414.68499755859375 81.37999725341797 411.3940124511719 80.16400146484375 408.81201171875 79.50700378417969 405.7460021972656 78.8499984741211 401.4549865722656 78.02899932861328 396.8219909667969 77.3270034790039" transform="matrix(-1, 0, 0, -1, 816.881989, 159.639)"/>
  <polygon style="fill: rgb(212, 5, 5);" points="438.5610046386719 120.6709976196289 438.71600341796875 119.12999725341797 438.7929992675781 117.51200103759766 438.9469909667969 116.27999877929688 442.6440124511719 116.27999877929688 447.0350036621094 116.51100158691406 452.96600341796875 116.51100158691406 458.3590087890625 116.51100158691406 463.5199890136719 116.43399810791016 467.6789855957031 116.43399810791016 474.4580078125 116.35700225830078 479.6189880371094 116.27999877929688 485.7049865722656 116.04900360107422 489.27398681640625 115.73999786376953 489.4670104980469 117.27899932861328 489.25201416015625 120.84700012207031 486.93701171875 121.36399841308594 480.7749938964844 121.59500122070312 476.5379943847656 121.7490005493164 468.6809997558594 121.90299987792969 465.2909851074219 121.9800033569336 456.8179931640625 121.9800033569336 452.427001953125 121.7490005493164 444.4930114746094 121.51799774169922 438.8699951171875 121.20999908447266"/>
</svg>