<?xml version="1.0" encoding="utf-8"?>
<svg viewBox="17.221 17.221 465.66 719.026" height="1500" width="1500" version="1.1" id="svg2" character="napoleon" xmlns="http://www.w3.org/2000/svg">
  <defs id="defs6">
    <clipPath id="clipPath16" clipPathUnits="userSpaceOnUse">
      <path id="path18" d="m 0,1200 1200,0 L 1200,0 0,0 0,1200 Z"/>
    </clipPath>
    <clipPath id="clipPath32" clipPathUnits="userSpaceOnUse">
      <path id="path34" d="m 0,1200 1200,0 L 1200,0 0,0 0,1200 Z"/>
    </clipPath>
    <clipPath id="clipPath56" clipPathUnits="userSpaceOnUse">
      <path id="path58" d="m 0,1200 1200,0 L 1200,0 0,0 0,1200 Z"/>
    </clipPath>
    <clipPath id="clipPath80" clipPathUnits="userSpaceOnUse">
      <path id="path82" d="m 0,1200 1200,0 L 1200,0 0,0 0,1200 Z"/>
    </clipPath>
    <clipPath id="clipPath172" clipPathUnits="userSpaceOnUse">
      <path id="path174" d="m 0,1200 1200,0 L 1200,0 0,0 0,1200 Z"/>
    </clipPath>
    <clipPath id="clipPath204" clipPathUnits="userSpaceOnUse">
      <path id="path206" d="m 0,1200 1200,0 L 1200,0 0,0 0,1200 Z"/>
    </clipPath>
    <clipPath id="clipPath280" clipPathUnits="userSpaceOnUse">
      <path id="path282" d="m 0,1200 1200,0 L 1200,0 0,0 0,1200 Z"/>
    </clipPath>
    <clipPath id="clipPath344" clipPathUnits="userSpaceOnUse">
      <path id="path346" d="m 0,1200 1200,0 L 1200,0 0,0 0,1200 Z"/>
    </clipPath>
    <linearGradient id="napoleon-gradient-1" gradientUnits="userSpaceOnUse" x1="-26.244" y1="-314.307" x2="-26.244" y2="20.725" gradientTransform="matrix(-1.000185, 0.006221, -0.00554, -0.891808, -54.234197, -283.539082)">
      <stop offset="0" style="stop-color: rgba(186, 186, 186, 1)"/>
      <stop offset="1" style="stop-color: rgba(135, 135, 135, 1)"/>
    </linearGradient>
    <linearGradient id="napoleon-gradient-2" gradientUnits="userSpaceOnUse" x1="48.542" y1="-346.118" x2="48.542" y2="13.19" gradientTransform="matrix(-0.983953, -0.178425, 0.149811, -0.826152, 129.595984, -295.79144)">
      <stop offset="0" style="stop-color: rgba(186, 186, 186, 1)"/>
      <stop offset="1" style="stop-color: rgba(135, 135, 135, 1)"/>
    </linearGradient>
    <linearGradient id="napoleon-gradient-3" gradientUnits="userSpaceOnUse" x1="136.437" y1="-23.936" x2="136.437" y2="249.699" gradientTransform="matrix(-0.996307, -0.085869, 0.043357, -0.503069, 312.955271, 164.576622)">
      <stop offset="0" style="stop-color: rgb(149, 149, 149);"/>
      <stop offset="1" style="stop-color: rgb(73, 73, 73);"/>
    </linearGradient>
  </defs>
  <g transform="matrix(0.85456, 0, 0, -0.85456, -198.418488, 868.423035)" id="g10" style="">
    <g id="g12">
      <g clip-path="url(#clipPath16)" id="g14">
        <g transform="translate(430.7489,422.159)" id="g20">
          <path id="path22" style="fill-opacity: 1; fill-rule: nonzero; stroke: none; fill: url(#napoleon-gradient-3);" d="m 0,0 c 62.451,6.294 125.436,7.292 188.055,2.979 33.659,-2.318 68.987,-6.832 96.098,-26.915 8.137,79.308 -0.97,160.341 -26.509,235.864 -3.974,11.75 -8.975,24.185 -19.426,30.865 -8.139,5.202 -18.249,6.007 -27.9,6.409 C 155.484,251.486 100.68,245.488 46.127,239.5 34.339,238.206 22.039,236.732 12.183,230.14 1.641,223.089 -4.595,211.096 -8.271,198.958 c -6.264,-20.688 -6.276,-42.7 -5.619,-64.306 1.355,-44.624 5.33,-89.122 9.303,-133.589 0.258,-2.89 1.378,-6.625 4.279,-6.619 0.65,2.104 1.299,4.207 1.949,6.31"/>
        </g>
        <g transform="translate(430.7489,419.659)" id="g24">
          <path id="path26" style="fill:#4f5050;fill-opacity:1;fill-rule:nonzero;stroke:none" d="m 0,0 c 39.451,3.941 79.092,5.838 118.74,5.584 19.821,-0.127 39.639,-0.782 59.425,-1.968 17.538,-1.05 35.149,-2.308 52.409,-5.744 18.721,-3.726 36.786,-10.163 52.317,-21.466 1.692,-1.232 3.593,0.484 3.762,2.158 5.215,51.691 3.267,103.987 -5.791,155.147 -4.506,25.452 -10.761,50.592 -18.75,75.174 -6.38,19.632 -14.062,39.471 -36.612,43.823 -12.03,2.322 -24.785,1.933 -36.982,1.985 -13.872,0.06 -27.744,-0.34 -41.597,-1.067 -27.752,-1.456 -55.415,-4.208 -83.04,-7.188 -21.485,-2.318 -47.338,-1.965 -62.32,-20.16 -14.522,-17.636 -17.494,-42.958 -18.12,-64.972 -0.862,-30.279 1.588,-60.831 3.838,-91.007 1.124,-15.061 2.396,-30.109 3.716,-45.153 0.66,-7.51 0.84,-15.258 2.057,-22.697 0.584,-3.572 1.996,-7.266 5.976,-7.915 1.367,-0.223 2.641,0.34 3.075,1.746 0.65,2.103 1.299,4.206 1.948,6.31 0.952,3.081 -3.873,4.399 -4.821,1.329 -0.649,-2.103 -1.299,-4.207 -1.948,-6.31 1.025,0.582 2.05,1.164 3.075,1.746 -4.034,0.658 -3.305,13.847 -3.581,16.961 -0.581,6.54 -1.157,13.081 -1.718,19.623 -1.095,12.757 -2.139,25.518 -3.068,38.288 -1.792,24.638 -3.336,49.356 -3.631,74.063 -0.27,22.682 0.668,47.97 12.401,68.095 5.895,10.112 14.583,16.789 25.874,19.889 11.405,3.13 23.559,3.682 35.274,4.951 50.198,5.434 101.092,10.72 151.64,7.823 10.941,-0.627 21.945,-2.641 29.547,-11.238 6.843,-7.738 10.139,-17.959 13.323,-27.59 7.527,-22.767 13.566,-46.024 18.096,-69.57 10.259,-53.333 12.59,-108.058 7.139,-162.086 1.254,0.72 2.508,1.44 3.762,2.159 C 258.001,0.675 223.499,5.423 190.541,7.804 150.179,10.719 109.633,11.34 69.197,9.799 46.087,8.919 23.012,7.299 0,5 -3.172,4.683 -3.204,-0.32 0,0"/>
        </g>
      </g>
    </g>
    <g id="g28">
      <g clip-path="url(#clipPath32)" id="g30">
        <g transform="translate(428.1812,506.0068)" id="g36">
          <path id="path38" style="fill:#e8e9e9;fill-opacity:1;fill-rule:nonzero;stroke:none" d="m 0,0 c -0.756,-23.254 -0.549,-46.538 0.62,-69.775 0.695,-13.805 1.843,-28.021 8.111,-40.341 15.423,-30.311 56.754,-40.432 71.841,-70.911 1.382,-2.791 2.683,-5.902 5.387,-7.445 2.232,-1.274 4.958,-1.193 7.526,-1.077 34.705,1.57 69.41,3.14 104.114,4.71 1.597,0.073 3.261,0.163 4.653,0.949 3.383,1.909 3.488,6.594 4.079,10.433 2.672,17.346 21.648,26.499 32.09,40.606 9.697,13.102 11.699,30.213 12.858,46.472 2.215,31.088 -0.564,58.912 -2.127,90.039 -0.095,1.896 -6.786,9.849 -7.333,11.667 -4.061,13.477 -8.032,10.923 -19.413,10.876 C 169.059,25.982 115.711,25.761 62.363,25.54 50.626,25.492 38.697,25.416 27.452,22.051 16.207,18.686 5.537,11.511 0.749,0.794"/>
        </g>
        <g transform="translate(425.6812,506.0068)" id="g40">
          <path id="path42" style="fill:#e8e9e9;fill-opacity:1;fill-rule:nonzero;stroke:none" d="m 0,0 c -0.531,-16.944 -0.59,-33.898 -0.119,-50.845 0.411,-14.785 0.433,-30.045 3.618,-44.556 5.271,-24.024 22.949,-38.249 41.973,-51.877 9.087,-6.509 18.32,-13.03 25.909,-21.312 3.792,-4.139 6.995,-8.691 9.533,-13.699 2.37,-4.678 4.763,-8.862 10.419,-9.646 7.468,-1.035 15.798,0.39 23.314,0.73 8.185,0.37 16.37,0.741 24.555,1.111 16.698,0.755 33.396,1.511 50.093,2.266 5.302,0.24 13.979,-1.072 18.236,2.904 3.93,3.671 3.106,9.937 4.606,14.666 3.562,11.231 14.123,18.681 22.264,26.503 9.203,8.842 15.331,19.054 18.369,31.5 3.433,14.067 4.02,29.009 4.275,43.422 0.28,15.776 -0.52,31.54 -1.448,47.283 -0.226,3.834 -0.46,7.667 -0.686,11.5 -0.263,4.462 0.049,9.323 -0.759,13.71 -0.656,3.558 -3.414,6.48 -5.444,9.368 -4.152,5.907 -4.454,14.556 -13.074,15.727 -4.456,0.605 -9.21,-0.046 -13.691,-0.064 -8.233,-0.034 -16.466,-0.068 -24.698,-0.103 -33.26,-0.137 -66.52,-0.275 -99.78,-0.413 C 81.08,28.108 64.501,28.744 48.148,27.607 35.191,26.705 22.194,23.729 11.836,15.493 7.256,11.852 3.605,7.339 1.09,2.056 c -1.375,-2.891 2.934,-5.431 4.318,-2.524 13.04,27.401 50.189,23.47 75.262,23.574 30.296,0.125 60.593,0.251 90.889,0.376 15.148,0.063 30.296,0.126 45.444,0.188 5.131,0.021 10.264,0.249 15.392,0.252 4.03,0.002 6.215,-1.135 7.942,-4.863 1.687,-3.643 2.644,-6.578 5.003,-9.882 1.121,-1.571 2.8,-3.332 3.488,-5.154 1.21,-3.202 0.713,-7.713 0.913,-11.165 0.859,-14.855 1.886,-29.707 2.234,-44.586 0.334,-14.283 0.045,-28.606 -1.377,-42.829 -1.293,-12.923 -3.899,-26.4 -11.836,-37.032 -6.487,-8.689 -15.64,-14.895 -22.794,-22.974 -3.022,-3.413 -5.719,-7.128 -7.516,-11.337 -0.953,-2.233 -1.613,-4.503 -2.031,-6.893 -0.54,-3.084 -0.207,-7.806 -3.804,-9.266 -3.287,-1.334 -8.799,-0.564 -12.34,-0.724 -3.274,-0.148 -6.548,-0.296 -9.822,-0.445 -7.857,-0.355 -15.715,-0.711 -23.573,-1.066 -15.388,-0.696 -30.776,-1.392 -46.164,-2.089 -3.601,-0.163 -7.202,-0.326 -10.804,-0.488 -3.712,-0.168 -8.881,-1.241 -11.696,1.83 -1.62,1.767 -2.481,4.356 -3.58,6.438 -1.406,2.663 -3.028,5.198 -4.821,7.617 -5.701,7.692 -12.943,13.97 -20.514,19.755 -18.98,14.503 -42.056,26.955 -49.475,51.339 C 5.162,-84.555 5.369,-67.726 4.909,-51.841 4.408,-34.563 4.459,-17.276 5,0 5.101,3.218 0.101,3.215 0,0"/>
        </g>
        <g transform="translate(577.9296,316.9989)" id="g44">
          <path id="path46" style="fill:#292929;fill-opacity:1;fill-rule:nonzero;stroke:none" d="m 0,0 c -0.065,36.667 0.228,73.334 0.878,109.996 0.057,3.218 -4.943,3.219 -5,0 C -4.772,73.334 -5.065,36.667 -5,0 -4.994,-3.217 0.006,-3.223 0,0"/>
        </g>
        <g transform="translate(553.4019,428.9454)" id="g48">
          <path id="path50" style="fill:#292929;fill-opacity:1;fill-rule:nonzero;stroke:none" d="m 0,0 c 9.048,-2.052 18.415,-3.449 27.713,-3.451 6.665,0 13.563,1.163 18.08,6.488 2.071,2.44 -1.45,5.993 -3.535,3.535 C 37.833,1.356 30.793,1.375 24.467,1.639 16.657,1.965 8.946,3.094 1.329,4.821 -1.804,5.532 -3.142,0.712 0,0"/>
        </g>
      </g>
    </g>
    <g id="g52">
      <g clip-path="url(#clipPath56)" id="g54">
        <g transform="translate(516.0353,314.448)" id="g60">
          <path id="path62" style="fill:#2a2a2a;fill-opacity:1;fill-rule:nonzero;stroke:none" d="m 0,0 c 16.012,1.576 32.024,3.151 48.036,4.727 2.333,0.229 4.903,0.399 6.801,-0.977 2.488,-1.805 2.698,-5.365 2.706,-8.438 0.084,-32.451 3.675,-64.893 10.692,-96.576 -4.616,-3.043 -9.438,-6.166 -14.917,-6.91 -5.478,-0.744 -11.804,1.645 -13.763,6.815 -24.891,-28.588 -66.128,-35.718 -103.995,-37.42 -2.018,5.81 0.429,12.421 4.572,16.966 4.143,4.546 9.741,7.447 15.213,10.255 14.718,7.55 29.435,15.1 44.153,22.65 2.777,1.424 5.688,2.97 7.331,5.623 1.322,2.134 1.65,4.72 1.887,7.219 2.421,25.445 -1.354,51.458 -10.907,75.165"/>
        </g>
        <g transform="translate(516.0353,311.948)" id="g64">
          <path id="path66" style="fill:#292929;fill-opacity:1;fill-rule:nonzero;stroke:none" d="m 0,0 c 13.13,1.292 26.26,2.584 39.39,3.876 3.112,0.306 6.236,0.705 9.357,0.91 1.932,0.127 4.61,-0.507 5.786,-2.312 0.586,-0.898 0.466,-2.874 0.499,-3.992 0.198,-6.712 0.175,-13.422 0.481,-20.134 1.193,-26.166 4.704,-52.195 10.311,-77.777 0.383,0.941 0.766,1.882 1.149,2.823 -6.879,-4.513 -20.218,-11.925 -25.259,-0.991 -0.656,1.423 -2.928,1.632 -3.927,0.506 -25.444,-28.689 -65.857,-34.986 -102.227,-36.688 0.803,-0.612 1.607,-1.223 2.41,-1.835 -4.71,16.74 19.838,25.013 31,30.739 7.653,3.926 15.306,7.852 22.959,11.778 5.45,2.796 12.94,5.213 16.599,10.431 3.468,4.946 3.078,12.437 3.29,18.207 0.279,7.603 0.02,15.221 -0.775,22.787 C 9.458,-26.577 5.81,-11.843 0.22,2.264 -0.952,5.22 -5.789,3.932 -4.602,0.935 c 5.754,-14.52 9.541,-29.76 10.911,-45.333 0.693,-7.878 0.812,-15.813 0.331,-23.708 -0.221,-3.636 0.047,-8.222 -1.969,-11.417 -2.156,-3.418 -7.433,-5.239 -10.85,-6.991 -14.485,-7.431 -29.148,-14.593 -43.469,-22.335 -10.335,-5.587 -20.851,-15.129 -17.203,-28.094 0.286,-1.017 1.318,-1.887 2.411,-1.836 37.656,1.762 79.434,8.466 105.763,38.153 -1.309,0.168 -2.618,0.337 -3.927,0.506 6.364,-13.802 22.936,-6.815 32.101,-0.803 0.974,0.639 1.397,1.69 1.149,2.823 -6.489,29.602 -10.074,59.766 -10.55,90.071 C 60.023,-3.435 60.915,2.675 57.928,6.637 54.657,10.978 48.863,9.808 44.193,9.348 29.462,7.899 14.731,6.449 0,5 -3.173,4.688 -3.205,-0.315 0,0"/>
        </g>
        <g transform="translate(628.99,319.0888)" id="g68">
          <path id="path70" style="fill:#2a2a2a;fill-opacity:1;fill-rule:nonzero;stroke:none" d="m 0,0 c -15.888,-0.492 -31.775,-0.984 -47.663,-1.476 -2.202,-0.068 -4.838,-0.402 -5.793,-2.388 -0.542,-1.128 -0.34,-2.456 -0.125,-3.69 4.991,-28.716 9.983,-57.433 14.974,-86.149 0.725,-4.169 1.545,-8.551 4.267,-11.791 2.722,-3.241 8.02,-4.725 11.236,-1.974 0.785,3.495 1.57,6.989 2.355,10.484 5.474,-4.582 7.339,-12.149 11.697,-17.803 5.832,-7.566 15.478,-10.978 24.701,-13.465 22.921,-6.179 46.741,-9.014 70.472,-8.385 -3.621,18.217 -15.633,34.589 -31.925,43.51 -11.796,6.459 -25.807,9.318 -35.646,18.486 -8.992,8.378 -13.043,20.752 -15.432,32.807 -2.653,13.391 -3.685,27.103 -3.065,40.74"/>
        </g>
        <g transform="translate(628.99,321.5888)" id="g72">
          <path id="path74" style="fill:#292929;fill-opacity:1;fill-rule:nonzero;stroke:none" d="m 0,0 c -9.93,-0.307 -19.86,-0.615 -29.789,-0.922 l -13.902,-0.431 c -2.871,-0.088 -6.563,0.267 -9.209,-1.173 -6.134,-3.34 -2.284,-12.842 -1.39,-17.982 1.644,-9.464 3.289,-18.927 4.934,-28.39 1.645,-9.464 3.29,-18.927 4.935,-28.39 1.509,-8.679 2.114,-18.255 5.052,-26.57 1.827,-5.171 5.857,-9.827 11.705,-10.037 8.146,-0.292 7.94,7.58 9.325,13.746 l -4.178,-1.103 c 6.656,-6.06 8.397,-15.59 15.288,-21.574 6.771,-5.879 15.555,-8.604 24.074,-10.83 22.586,-5.903 45.948,-8.507 69.276,-7.981 1.696,0.038 2.75,1.561 2.411,3.164 -2.698,12.743 -9.014,24.525 -18.207,33.774 -9.525,9.583 -21.262,14.218 -33.424,19.458 -6.413,2.764 -12.766,5.96 -17.729,10.983 -5.336,5.403 -8.654,12.449 -10.908,19.615 -5.133,16.319 -6.386,34.041 -5.711,51.049 0.127,3.218 -4.873,3.212 -5,0 -0.652,-16.446 0.644,-33.34 4.982,-49.268 3.573,-13.123 10.233,-24.791 22.153,-31.898 12.239,-7.298 26.509,-10.149 37.666,-19.41 10.982,-9.115 18.408,-21.708 21.356,-35.632 0.804,1.055 1.608,2.11 2.411,3.165 -22.262,-0.502 -44.483,1.863 -66.082,7.323 -8.677,2.194 -18.209,4.622 -24.826,11.025 -6.105,5.906 -7.855,14.801 -14.194,20.572 -1.32,1.202 -3.747,0.822 -4.179,-1.103 -0.522,-2.323 -0.716,-7.613 -2.357,-9.318 -2.687,-2.793 -7.099,1.59 -8.377,4.028 -2.922,5.571 -3.114,13.241 -4.174,19.34 -2.439,14.032 -4.878,28.064 -7.317,42.096 -1.191,6.853 -2.382,13.705 -3.573,20.558 -0.609,3.502 -1.68,7.222 -1.872,10.769 -0.123,2.264 -0.404,3.808 2.142,4.767 1.416,0.534 3.464,0.18 4.997,0.227 C -29.128,-5.902 -14.564,-5.451 0,-5 3.21,-4.901 3.224,0.1 0,0"/>
        </g>
      </g>
    </g>
    <g id="g76">
      <g clip-path="url(#clipPath80)" id="g78">
        <g transform="translate(534.8477,708.2288)" id="g84">
          <path id="path86" style="fill:#312f55;fill-opacity:1;fill-rule:nonzero;stroke:none" d="m 0,0 c -19.048,1.3 -38.41,2.579 -57.047,-1.568 -18.636,-4.147 -36.784,-14.556 -45.779,-31.397 -6.439,-12.057 -7.651,-26.147 -8.282,-39.801 -1.856,-40.187 0.238,-80.555 6.24,-120.334 0.384,-2.54 0.876,-5.265 2.712,-7.061 1.385,-1.353 3.319,-1.955 5.182,-2.481 21.541,-6.091 44.424,-8.215 66.442,-4.169 9.578,1.76 20.951,-0.325 30.547,1.332 8.36,1.444 25.37,0.535 33.841,1 22.745,1.249 35.786,3.676 58.546,2.75 9.554,-0.389 32.274,0.577 40.75,5 12.361,6.45 10.338,21.727 12.5,35.5 2.399,15.279 -3.665,34.005 -3.574,49.471 0.184,31.135 -0.763,62.277 -2.836,93.343 -0.482,7.223 -6.924,10.872 -11.84,16.186 C 121.475,4.178 117.348,8.916 108.62,8.88 71.848,8.729 35.088,5.65 -1.197,-0.317"/>
        </g>
        <g transform="translate(534.8477,710.7288)" id="g88">
          <path id="path90" style="fill:#2d2e4a;fill-opacity:1;fill-rule:nonzero;stroke:none" d="m 0,0 c -29.073,1.979 -60.861,3.613 -86.065,-13.686 -10.409,-7.144 -18.374,-16.925 -22.557,-28.892 -4.92,-14.076 -5.013,-29.624 -5.414,-44.36 -0.904,-33.307 0.913,-66.674 5.382,-99.692 0.812,-6.002 0.452,-14.696 5.862,-18.683 5.108,-3.766 13.589,-4.521 19.689,-5.689 15.493,-2.966 31.39,-3.784 47.049,-1.693 7.629,1.019 14.831,1.667 22.535,1.558 6.504,-0.091 12.743,0.85 19.195,1.257 12.456,0.785 24.923,0.084 37.39,0.995 13.959,1.021 27.868,2.496 41.885,2.349 11.288,-0.118 22.374,-0.377 33.611,1.114 9.605,1.274 19.712,3.405 24.491,12.841 2.347,4.633 3.098,9.854 3.644,14.96 0.66,6.158 1.596,12.395 1.936,18.572 0.8,14.544 -3.745,28.748 -4.044,43.234 -0.353,17.078 -0.118,34.153 -0.677,51.234 -0.281,8.607 -0.649,17.212 -1.103,25.812 -0.372,7.048 0.55,15.827 -2.101,22.466 -2.061,5.163 -6.749,8.478 -10.537,12.3 -3.889,3.924 -7.386,8.493 -12.486,10.932 C 111.85,9.721 105.038,8.884 98.771,8.769 90.236,8.613 81.704,8.299 73.181,7.828 56.134,6.886 39.121,5.316 22.19,3.121 14.153,2.079 6.137,0.898 -1.861,-0.406 c -3.168,-0.516 -1.824,-5.335 1.329,-4.821 31.22,5.088 62.756,8.084 94.379,8.888 6.565,0.167 15.154,1.704 21.315,-1.049 5.14,-2.297 8.579,-7.351 12.503,-11.158 4.584,-4.448 8.597,-7.643 9.208,-14.352 0.779,-8.561 1.035,-17.21 1.422,-25.796 0.685,-15.221 1.101,-30.455 1.247,-45.691 0.135,-14.21 0.235,-27.85 2.285,-41.934 0.94,-6.463 1.892,-12.968 1.887,-19.514 -0.005,-5.891 -1.101,-11.785 -1.628,-17.652 -1.008,-11.229 -2.669,-22.019 -15.075,-25.314 -9.591,-2.546 -19.905,-2.98 -29.788,-3.007 -12.198,-0.035 -24.213,0.279 -36.402,-0.654 -11.766,-0.901 -23.517,-2.164 -35.329,-2.168 -5.725,-0.002 -11.456,0.101 -17.179,-0.124 -5.575,-0.218 -11.053,-1.297 -16.63,-1.404 -6.317,-0.121 -12.658,0.437 -18.961,-0.2 -7.288,-0.736 -14.401,-2.185 -21.755,-2.445 -15.326,-0.543 -30.705,1.518 -45.478,5.571 -1.818,0.499 -4.505,0.974 -5.877,2.337 -1.515,1.505 -1.734,3.984 -2.069,5.957 -0.613,3.614 -1.065,7.268 -1.544,10.9 -1.06,8.041 -1.955,16.105 -2.694,24.181 -1.39,15.185 -2.216,30.421 -2.477,45.668 -0.28,16.36 -0.235,32.897 1.219,49.205 1.412,15.838 5.893,30.75 17.882,41.785 C -65.847,-0.901 -30.485,-2.925 0,-5 3.212,-5.219 3.198,-0.218 0,0"/>
        </g>
        <g transform="translate(641.4398,709.4659)" id="g92">
          <path id="path94" style="fill:#e9e72e;fill-opacity:1;fill-rule:nonzero;stroke:none" d="m 0,0 c 9.233,-10.831 25.955,-13.312 39.171,-8.031 2.566,1.026 -2.72,-2.457 -1.277,-0.102 0.765,1.251 0.548,3.206 0.666,4.667 0.563,6.965 -0.787,12.556 -7.333,15 -6.546,2.444 -9.613,6.982 -16.578,6.425 C 11.994,17.747 9.323,17.527 6.751,16.837 2.176,15.609 -2.135,12.677 -4.057,8.348 -5.98,4.019 -4.945,-1.712 -1.044,-4.4 0.462,-5.438 2.25,-5.974 4.012,-6.466 c 3.8,-1.062 7.637,-1.995 11.5,-2.797"/>
        </g>
        <g transform="translate(639.672,707.6981)" id="g96">
          <path id="path98" style="fill:#f2eb4a;fill-opacity:1;fill-rule:nonzero;stroke:none" d="m 0,0 c 5.21,-5.8 12.216,-9.52 19.897,-10.818 3.762,-0.636 7.562,-0.778 11.358,-0.366 1.643,0.178 3.291,0.444 4.901,0.813 1.162,0.267 2.307,0.594 3.438,0.97 0.434,0.145 2.92,0.646 1.394,0.884 -0.498,1.225 -0.996,2.449 -1.494,3.673 0.87,1.142 0.233,0.162 -0.008,0.184 0.804,-0.612 1.608,-1.224 2.411,-1.836 0.279,-1.002 0.067,-1.474 0.586,0.518 0.258,0.993 0.229,2.102 0.299,3.11 0.147,2.13 0.255,4.287 0.026,6.415 -0.403,3.734 -1.781,7.243 -4.715,9.693 -1.965,1.641 -4.386,2.338 -6.638,3.471 -2.028,1.021 -3.879,2.361 -5.898,3.396 -4.651,2.384 -9.143,2.372 -14.244,1.585 C 2.551,20.34 -6.422,14.284 -5.652,4.406 -4.782,-6.768 7.906,-8.054 16.615,-9.906 c 3.139,-0.668 4.48,4.151 1.329,4.821 C 11.435,-3.7 -1.509,-2.879 -0.705,6.351 0.053,15.043 11.852,18.126 19,17.122 c 3.266,-0.459 5.858,-2.473 8.666,-4.041 2.957,-1.65 6.782,-2.367 8.741,-5.371 1.798,-2.755 1.575,-6.285 1.421,-9.408 -0.094,-1.913 -1.249,-4.342 -0.752,-6.127 0.317,-1.14 1.298,-1.733 2.41,-1.835 1.652,-0.152 3.376,1.046 4.325,2.292 0.917,1.204 -0.009,3.441 -1.494,3.673 -2.448,0.382 -5.112,-1.319 -7.49,-1.854 C 31.314,-6.341 27.694,-6.608 24.101,-6.337 16.159,-5.738 8.876,-2.41 3.536,3.536 1.381,5.934 -2.146,2.389 0,0"/>
        </g>
        <g transform="translate(421.1302,682.5659)" id="g100">
          <path id="path102" style="fill:#e9e72e;fill-opacity:1;fill-rule:nonzero;stroke:none" d="m 0,0 c 12.381,-7.019 28.943,-3.632 39.556,5.851 2.06,1.841 4.018,4.033 4.568,6.74 0.292,1.437 0.162,2.938 -0.227,4.352 C 42.044,23.68 34.576,27.612 27.588,27.67 20.601,27.727 13.978,24.792 7.623,21.886 5.201,20.779 2.766,19.659 0.585,18.13 -3.294,15.412 -6.342,11.182 -6.668,6.457 -6.994,1.731 -4.061,-3.3 0.523,-4.492 c 1.771,-0.46 3.635,-0.352 5.459,-0.212 3.934,0.302 7.858,0.737 11.763,1.305"/>
        </g>
        <g transform="translate(419.8684,680.4072)" id="g104">
          <path id="path106" style="fill:#f2eb4a;fill-opacity:1;fill-rule:nonzero;stroke:none" d="m 0,0 c 12.948,-6.889 28.869,-4.474 40.308,4.368 5.384,4.163 9.456,9.6 6.85,16.628 -2.14,5.771 -7.858,9.563 -13.703,10.809 -7.811,1.666 -15.55,-1.063 -22.632,-4.16 C 3.886,24.61 -3.375,21.327 -6.587,13.969 -8.998,8.447 -8.004,1.695 -3.332,-2.353 2.635,-7.524 12.679,-4.627 19.671,-3.651 22.844,-3.208 21.494,1.61 18.342,1.17 13.161,0.447 3.351,-2.285 -0.716,2.059 c -4.505,4.811 -1.376,11.78 2.972,15.365 4.071,3.357 9.685,5.459 14.562,7.326 5.226,2 11.067,3.486 16.603,1.915 4.515,-1.282 9.94,-5.124 9.622,-10.463 C 42.743,11.153 36.235,7.207 32.294,5.103 23.072,0.182 11.88,-0.661 2.524,4.317 -0.316,5.828 -2.845,1.514 0,0"/>
        </g>
        <g transform="translate(436.995,643.9721)" id="g108">
          <path id="path110" style="fill:#2a2a2b;fill-opacity:1;fill-rule:nonzero;stroke:none" d="M 0,0 C 0.913,-0.071 1.918,0.379 2.524,1.055 3.344,1.972 3.529,2.983 3.333,4.17 3.237,4.751 2.672,5.379 2.184,5.664 1.648,5.978 0.859,6.111 0.258,5.916 -1.142,5.463 -1.717,4.227 -1.488,2.841 c -0.108,0.651 -0.017,1.409 0.584,1.808 0.162,0.15 0.36,0.225 0.593,0.226 C 0.18,4.951 0.284,4.992 0,5 -1.307,5.102 -2.557,3.777 -2.5,2.5 -2.435,1.058 -1.4,0.109 0,0"/>
        </g>
        <g transform="translate(442.8195,661.9471)" id="g112">
          <path id="path114" style="fill:#2a2a2b;fill-opacity:1;fill-rule:nonzero;stroke:none" d="M 0,0 C 2.153,-1.414 5.521,0.426 5.283,3.07 5.222,3.745 5.045,4.343 4.55,4.838 4.117,5.271 3.405,5.598 2.783,5.57 1.529,5.514 0.157,4.465 0.283,3.07 0.291,2.883 0.305,2.921 0.323,3.184 0.334,3.407 0.401,3.615 0.523,3.808 0.809,4.141 0.883,4.238 0.746,4.099 0.607,3.964 0.702,4.037 1.033,4.319 1.164,4.37 1.296,4.422 1.428,4.474 1.177,4.404 1.291,4.412 1.771,4.5 1.921,4.477 2.071,4.454 2.222,4.431 2.64,4.22 2.74,4.182 2.524,4.317 1.428,5.037 -0.289,4.571 -0.897,3.42 -1.558,2.17 -1.169,0.768 0,0"/>
        </g>
        <g transform="translate(452.3961,679.2339)" id="g116">
          <path id="path118" style="fill:#2a2a2b;fill-opacity:1;fill-rule:nonzero;stroke:none" d="M 0,0 C -0.169,-0.332 -0.338,-0.664 -0.508,-0.996 -1.101,-2.16 -0.851,-3.761 0.389,-4.417 1.53,-5.019 3.176,-4.764 3.81,-3.52 3.979,-3.188 4.148,-2.856 4.317,-2.524 4.91,-1.36 4.661,0.241 3.42,0.897 2.28,1.5 0.634,1.244 0,0"/>
        </g>
        <g transform="translate(433.3923,561.8278)" id="g120">
          <path id="path122" style="fill:#fcee3a;fill-opacity:1;fill-rule:nonzero;stroke:none" d="M 0,0 C -2.791,-0.998 -3.773,-4.507 -1.711,-6.752 0.156,-8.784 3.598,-8.927 5.763,-7.311 8.036,-5.615 8.35,-1.883 5.786,-0.248 2.95,1.56 -0.526,-1.167 0.168,-4.304 0.46,-5.623 1.99,-6.395 3.244,-6.05 c 1.359,0.373 2.038,1.752 1.746,3.075 0.277,-1.254 -1.041,-2.348 -2.064,-1.352 -0.101,0.17 -0.203,0.34 -0.304,0.511 -0.005,0.281 -0.006,0.269 -0.005,-0.036 0.008,0.047 0.09,0.386 0.081,0.447 0.025,0.057 0.068,0.086 0.131,0.087 C 2.534,-3.372 2.459,-3.399 2.602,-3.4 2.883,-3.354 1.744,-3.448 2.169,-3.414 1.831,-3.441 2.005,-3.22 2.016,-3.421 2.024,-3.579 2.173,-3.728 2.169,-3.908 2.16,-4.371 1.725,-4.68 1.329,-4.821 2.6,-4.367 3.452,-3.118 3.075,-1.746 2.738,-0.517 1.277,0.457 0,0"/>
        </g>
        <g transform="translate(437.8165,546.9173)" id="g124">
          <path id="path126" style="fill:#fcee3a;fill-opacity:1;fill-rule:nonzero;stroke:none" d="m 0,0 c -1.599,-0.283 -2.659,-1.504 -3.2,-2.958 -0.379,-1.016 0.25,-2.309 1.149,-2.823 1.937,-1.11 4.298,-1.736 6.398,-0.659 1.587,0.813 2.643,2.689 2.481,4.467 C 6.613,0.389 4.531,1.978 2.196,1.57 0.328,1.242 -1.295,-0.407 -1.661,-2.262 c -0.261,-1.323 0.377,-2.699 1.746,-3.075 1.229,-0.338 2.813,0.415 3.076,1.746 0.079,0.277 0.063,0.297 -0.049,0.06 0.153,0.244 0.152,0.271 -0.006,0.078 0.213,0.2 0.216,0.224 0.01,0.074 0.257,0.144 0.256,0.159 -0.004,0.045 0.438,0.096 0.269,0.114 -0.507,0.055 -0.14,0.054 -0.268,0.13 -0.382,0.227 -0.268,0.251 -0.392,0.546 -0.371,0.885 -0.005,-0.286 0.005,-0.265 0.032,0.064 -0.085,-0.27 -0.078,-0.265 0.021,0.014 -0.152,-0.24 -0.149,-0.241 0.011,-0.003 0.412,0.27 -0.244,0.026 0.196,0.082 -0.507,-0.064 -1.096,0.235 -1.64,0.546 L 1.621,-4.287 C 1.564,-4.54 1.431,-4.714 1.221,-4.81 1.002,-4.886 1.038,-4.89 1.329,-4.821 2.66,-4.586 3.409,-2.96 3.075,-1.746 2.69,-0.343 1.334,0.236 0,0"/>
        </g>
        <g transform="translate(463.6112,540.6961)" id="g128">
          <path id="path130" style="fill:#c73639;fill-opacity:1;fill-rule:nonzero;stroke:none" d="m 0,0 c 30.193,19.7 61.444,37.779 93.573,54.134 1.244,0.633 2.516,1.273 3.896,1.481 3.466,0.521 6.874,-1.904 8.45,-5.035 1.576,-3.13 1.66,-6.797 1.353,-10.288 C 105.423,19.265 90.603,1.134 72.72,-10.08 54.837,-21.293 34.031,-26.719 13.592,-31.991 c -1.886,-0.486 -4.085,-0.915 -5.624,0.28 -1.189,0.923 -1.572,2.525 -1.878,3.999 -1.83,8.808 -3.66,17.616 -5.49,26.425"/>
        </g>
        <g transform="translate(464.873,538.5374)" id="g132">
          <path id="path134" style="fill:#c7373a;fill-opacity:1;fill-rule:nonzero;stroke:none" d="m 0,0 c 16.167,10.527 32.614,20.617 49.349,30.215 8.23,4.72 16.527,9.324 24.886,13.81 4.18,2.243 8.376,4.457 12.587,6.641 4.157,2.155 10.533,7.199 14.569,2.486 5.55,-6.481 0.932,-19.826 -2.07,-26.659 C 96.177,19.333 91.582,12.849 86.185,7.217 73.967,-5.534 57.897,-13.392 41.354,-18.976 c -9.436,-3.185 -19.132,-5.978 -28.836,-8.226 -4.289,-0.993 -4.866,0.417 -5.671,4.201 -0.535,2.514 -1.046,5.033 -1.569,7.55 C 4.102,-9.789 2.925,-4.126 1.749,1.536 1.094,4.684 -3.726,3.352 -3.073,0.207 c 1.177,-5.663 2.353,-11.325 3.53,-16.988 0.876,-4.218 0.882,-11.521 4.482,-14.539 2.823,-2.368 6.56,-1.294 9.76,-0.483 5.416,1.373 10.82,2.812 16.192,4.353 19.533,5.604 39.142,13.107 54.454,26.893 12.757,11.487 23.848,28.712 23.301,46.531 -0.216,7.031 -4.754,15.676 -13.103,14.21 C 91.036,59.393 86.607,56.187 82.615,54.108 77.005,51.186 71.424,48.211 65.87,45.183 42.543,32.467 19.74,18.813 -2.524,4.317 -5.21,2.568 -2.707,-1.763 0,0"/>
        </g>
        <g transform="translate(515,662)" id="g136">
          <path id="path138" style="fill:#fffdf9;fill-opacity:1;fill-rule:nonzero;stroke:none" d="m 0,0 c -28.202,-1.197 -42.47,16.923 -69.986,23.221 2.802,-6.201 6.924,-11.803 12.011,-16.323 -6.261,-0.257 -12.521,-0.514 -18.782,-0.77 3.591,-6.628 9.069,-12.221 15.622,-15.947 -8.308,-2.099 -16.924,-2.98 -25.485,-2.606 11.055,-4.753 22.649,-8.252 34.487,-10.408 11.89,-2.166 25.968,-4.269 31.466,-15.032 5.344,-10.458 -0.934,-23.284 -9.255,-31.573 -14.431,-14.374 -34.3,-21.524 -53.061,-29.454 -1.325,-0.56 -2.777,-1.257 -3.281,-2.604 -0.336,-0.898 -0.168,-1.895 0.004,-2.838 1.791,-9.808 3.583,-19.615 5.374,-29.423 9.95,5.363 21.139,7.858 31.994,11.008 22.654,6.575 44.41,16.241 64.474,28.646 7.143,4.416 14.182,9.277 19.439,15.825 8.796,10.955 14.361,5.474 16.979,19.278 5.476,-12.275 8.625,-5.12 19.031,-13.628 6.071,-4.965 13.356,-8.179 20.588,-11.212 21.051,-8.828 42.948,-16.734 65.75,-17.81 -1.929,14.25 -2.416,28.695 -1.451,43.043 -18.681,1.849 -36.044,13.837 -44.395,30.649 -0.858,1.726 -1.644,3.616 -1.372,5.524 0.419,2.938 3.142,4.926 5.708,6.417 15.74,9.15 35.451,13.789 45.525,28.955 -5.859,-2.17 -11.895,-3.861 -18.029,-5.05 -0.854,-0.166 -1.831,-0.294 -2.512,0.247 -0.873,0.694 -0.742,2.032 -0.528,3.127 0.56,2.867 1.12,5.733 1.681,8.6 -5.405,-2.83 -11.478,-4.373 -17.579,-4.465 2.639,6.497 5.278,12.993 7.916,19.489 C 114.033,29.058 99.751,14.79 82.652,6.045 57.872,-6.63 27.486,-4.388 0,0"/>
        </g>
        <g transform="translate(515,664.5)" id="g140">
          <path id="path142" style="fill:#fffbf9;fill-opacity:1;fill-rule:nonzero;stroke:none" d="m 0,0 c -25.627,-0.754 -45.265,17.372 -69.321,23.132 -2.238,0.535 -3.744,-1.721 -2.824,-3.673 3.033,-6.428 7.167,-12.021 12.402,-16.828 0.59,1.422 1.179,2.845 1.768,4.267 -6.261,-0.257 -12.521,-0.514 -18.782,-0.77 -1.887,-0.078 -3.122,-2.067 -2.158,-3.762 4.007,-7.05 9.554,-12.693 16.518,-16.844 l 0.598,4.57 c -8.184,-1.977 -16.412,-2.796 -24.821,-2.517 -2.334,0.077 -3.604,-3.668 -1.262,-4.659 8.525,-3.608 17.252,-6.62 26.256,-8.792 7.413,-1.789 15.041,-2.651 22.393,-4.692 7.693,-2.135 15.794,-6.13 17.675,-14.659 1.917,-8.695 -3.346,-17.722 -9.059,-23.837 -12.125,-12.977 -29.316,-20.045 -45.38,-26.726 -5.544,-2.305 -13.424,-3.671 -12.763,-11.044 0.898,-10.014 3.656,-20.193 5.463,-30.087 0.305,-1.671 2.36,-2.178 3.673,-1.494 13.606,7.086 29.083,9.632 43.503,14.593 14.213,4.889 28.027,10.987 41.207,18.211 6.423,3.521 12.819,7.226 18.804,11.46 5.536,3.915 9.869,8.447 14.443,13.39 3.053,3.299 6.919,4.804 10.354,7.508 3.523,2.774 4.831,6.83 5.724,11.088 -1.523,-0.199 -3.047,-0.398 -4.57,-0.597 2.991,-6.392 6.092,-8.224 12.451,-10.271 4.446,-1.431 7.709,-4.696 11.535,-7.22 4.683,-3.091 9.832,-5.399 14.98,-7.592 21.906,-9.33 44.588,-17.479 68.562,-18.805 1.226,-0.068 2.668,1.207 2.5,2.5 -1.868,14.293 -2.352,28.655 -1.451,43.043 0.091,1.456 -1.228,2.355 -2.5,2.5 -10.659,1.209 -20.822,5.64 -28.999,12.59 -3.779,3.212 -7.152,6.932 -9.9,11.063 -1.332,2.001 -3.11,4.471 -3.766,6.806 -1.146,4.075 1.228,5.947 4.493,7.829 15.854,9.139 34.842,13.695 45.797,29.495 1.21,1.745 -0.813,4.398 -2.823,3.672 -4.414,-1.593 -8.882,-2.979 -13.45,-4.06 -0.911,-0.221 -1.825,-0.427 -2.742,-0.618 -2.073,-1.216 -2.562,-0.667 -1.466,1.647 0.43,2.297 0.896,4.587 1.344,6.88 0.428,2.19 -1.662,3.822 -3.672,2.824 -5.169,-2.567 -10.555,-3.913 -16.317,-4.124 0.804,-1.054 1.608,-2.109 2.411,-3.164 2.639,6.496 5.277,12.992 7.916,19.488 0.716,1.763 -1.394,3.636 -3.075,3.076 C 109.765,27.492 93.808,9.261 72.056,1.744 49.183,-6.16 24.109,-3.787 0.665,-0.089 c -3.148,0.496 -4.504,-4.321 -1.33,-4.822 23.303,-3.675 47.938,-6.112 70.898,0.815 23.284,7.025 39.863,26.434 62.765,34.071 l -3.075,3.076 c -2.639,-6.497 -5.278,-12.993 -7.916,-19.489 -0.609,-1.499 0.928,-3.219 2.41,-3.165 6.666,0.244 12.869,1.841 18.84,4.806 l -3.672,2.824 c -0.733,-3.751 -4.324,-12.418 0.594,-14.803 2.702,-1.31 6.709,0.315 9.333,0.958 4.253,1.043 8.419,2.358 12.537,3.845 -0.941,1.224 -1.882,2.448 -2.824,3.672 -6.963,-10.043 -18.19,-15.28 -28.957,-20.265 -5.073,-2.349 -10.197,-4.64 -15.046,-7.436 -3.676,-2.119 -7.536,-4.986 -7.581,-9.645 -0.048,-4.849 3.604,-9.903 6.323,-13.655 3.321,-4.583 7.256,-8.638 11.721,-12.115 8.803,-6.853 19.177,-10.936 30.233,-12.19 -0.833,0.833 -1.667,1.666 -2.5,2.5 -0.901,-14.388 -0.417,-28.749 1.451,-43.043 l 2.5,2.5 c -22.714,1.256 -44.292,8.971 -65.085,17.721 -4.709,1.981 -9.406,4.045 -13.8,6.667 -3.862,2.305 -7.129,5.541 -11.155,7.558 -2.265,1.134 -4.637,1.557 -6.995,2.39 -3.371,1.191 -4.711,3.946 -6.175,7.076 -0.901,1.925 -4.144,1.432 -4.57,-0.597 -1.048,-4.998 -2.483,-7.693 -6.807,-10.241 -4.285,-2.525 -7.321,-5.504 -10.603,-9.222 -9.141,-10.354 -22.322,-17.257 -34.417,-23.562 -12.954,-6.753 -26.467,-12.396 -40.378,-16.858 -13.265,-4.255 -27.085,-6.898 -39.532,-13.38 1.224,-0.498 2.448,-0.996 3.673,-1.494 -1.553,8.5 -3.126,16.996 -4.658,25.5 -0.359,1.993 -1.445,4.303 0.084,5.916 1.022,1.079 3.897,1.702 5.312,2.291 3.015,1.255 6.034,2.501 9.041,3.774 12.836,5.43 25.603,11.425 36.303,20.517 9.008,7.654 17.567,19.083 16.01,31.594 -1.381,11.106 -10.938,17.203 -20.856,20.063 -6.978,2.012 -14.232,2.848 -21.301,4.469 -9.177,2.104 -18.149,5.032 -26.818,8.701 -0.421,-1.552 -0.841,-3.105 -1.262,-4.658 8.85,-0.294 17.546,0.617 26.15,2.695 2.127,0.514 2.397,3.497 0.597,4.57 -6.26,3.73 -11.124,8.714 -14.725,15.049 -0.72,-1.254 -1.439,-2.507 -2.159,-3.761 6.261,0.256 12.521,0.513 18.782,0.77 2.057,0.085 3.436,2.737 1.768,4.268 -4.939,4.535 -8.76,9.754 -11.62,15.817 -0.941,-1.224 -1.882,-2.448 -2.824,-3.673 C -46.036,12.417 -26.314,-5.774 0,-5 3.21,-4.906 3.224,0.095 0,0"/>
        </g>
        <g transform="translate(571.5,596.5)" id="g144">
          <path id="path146" style="fill:#cbcacb;fill-opacity:1;fill-rule:nonzero;stroke:none" d="m 0,0 c -0.547,19.76 -4.988,39.239 -5.535,58.999 -0.089,3.211 -5.089,3.224 -5,0 C -9.988,39.239 -5.547,19.76 -5,0 -4.911,-3.211 0.089,-3.224 0,0"/>
        </g>
        <g transform="translate(639.0147,691.3198)" id="g148">
          <path id="path150" style="fill:#2a2a2b;fill-opacity:1;fill-rule:nonzero;stroke:none" d="M 0,0 C 0.735,-1.282 2.284,-1.844 3.692,-1.441 5.043,-1.055 6.188,0.232 6.087,1.696 5.998,2.998 5.002,4.259 3.587,4.196 2.31,4.138 0.991,3.093 1.087,1.696 1.095,1.429 1.143,1.565 1.231,2.105 1.255,2.453 1.397,2.742 1.655,2.972 2.042,3.242 2.151,3.326 1.981,3.223 1.808,3.123 1.935,3.176 2.363,3.38 2.333,3.372 2.302,3.365 2.271,3.357 2.592,3.45 2.913,3.45 3.234,3.356 3.666,3.208 4.085,2.928 4.317,2.524 3.666,3.659 2.025,4.148 0.897,3.42 -0.249,2.682 -0.696,1.214 0,0"/>
        </g>
        <g transform="translate(653.2322,676.7322)" id="g152">
          <path id="path154" style="fill:#2a2a2b;fill-opacity:1;fill-rule:nonzero;stroke:none" d="m 0,0 0.5,-0.5 c 0.926,-0.926 2.622,-0.995 3.536,0 0.916,0.998 0.988,2.547 0,3.536 l -0.5,0.5 C 2.61,4.461 0.913,4.531 0,3.536 -0.916,2.538 -0.988,0.988 0,0"/>
        </g>
        <g transform="translate(667.7587,669.2488)" id="g156">
          <path id="path158" style="fill:#2a2a2b;fill-opacity:1;fill-rule:nonzero;stroke:none" d="m 0,0 c 1.05,-1.298 3.432,-1.292 4.487,-0.003 0.432,0.529 0.732,1.06 0.732,1.768 0,0.613 -0.272,1.346 -0.732,1.768 -0.916,0.841 -2.651,1.081 -3.535,0 0.365,0.305 0.796,0.47 1.291,0.494 C 3.496,3.244 3.927,3.08 3.536,3.536 2.709,4.557 0.848,4.459 0,3.536 -0.995,2.451 -0.881,1.089 0,0"/>
        </g>
        <g transform="translate(665.0692,595.9631)" id="g160">
          <path id="path162" style="fill:#fcee3a;fill-opacity:1;fill-rule:nonzero;stroke:none" d="m 0,0 c -1.63,1.207 -3.943,0.655 -5.29,-0.711 -1.566,-1.588 -1.573,-3.974 -0.579,-5.868 0.861,-1.638 2.499,-3.463 4.507,-3.398 2.072,0.067 3.528,2.076 3.951,3.939 0.384,1.689 0.076,3.546 -0.853,5.009 -1.109,1.749 -3.119,3.098 -5.076,1.749 -2.955,-2.034 -2.754,-7.13 0.556,-8.728 1.215,-0.586 2.701,-0.332 3.42,0.897 0.64,1.095 0.324,2.831 -0.897,3.421 -0.263,0.153 -0.312,0.165 -0.146,0.033 0.109,-0.185 0.088,-0.147 -0.064,0.113 0.02,-0.037 0.04,-0.075 0.06,-0.112 -0.072,0.302 -0.083,0.342 -0.031,0.12 0.203,0.838 -0.213,-0.442 0.067,0.376 -0.074,-0.216 -0.441,-0.398 0.002,-0.158 l -2.523,0 c 0.437,-0.264 0.623,-0.599 0.677,-1.194 -0.018,0.194 -0.075,-0.533 -0.085,-0.492 0.112,0.098 0.076,0.018 -0.106,-0.238 0.234,0.101 0.471,0.196 0.711,0.284 0.42,-0.113 0.841,-0.227 1.261,-0.341 -0.328,0.14 -0.486,0.291 -0.714,0.584 -0.086,0.11 -0.407,0.762 -0.418,0.764 -0.119,0.017 0.008,-0.249 -0.185,-0.295 -0.41,-0.099 -1.411,0.405 -0.769,-0.071 1.086,-0.804 2.791,-0.18 3.421,0.897 C 1.641,-2.148 1.089,-0.806 0,0"/>
        </g>
        <g transform="translate(661.7917,577.6127)" id="g164">
          <path id="path166" style="fill:#fcee3a;fill-opacity:1;fill-rule:nonzero;stroke:none" d="m 0,0 c -3.514,-0.609 -6.335,-4.746 -4.353,-8.098 1.853,-3.134 6.483,-3.689 8.456,-0.344 1.649,2.797 1.468,8.558 -2.947,8.234 -3.632,-0.266 -5.404,-5.167 -2.75,-7.679 0.911,-0.862 2.654,-1.066 3.536,0 1.107,1.339 1.484,2.718 1.15,4.428 -0.259,1.326 -1.844,2.085 -3.075,1.746 -1.385,-0.38 -2.006,-1.745 -1.746,-3.075 -0.041,0.209 -0.137,0.107 0.135,0.437 l 3.536,0 C 1.529,-3.961 2.037,-4.843 2.106,-4.949 2.112,-4.688 2.109,-4.648 2.097,-4.83 2.075,-5.011 2.095,-4.973 2.158,-4.715 2.063,-4.828 1.779,-5.157 2.146,-4.873 1.862,-5.093 1.346,-5.352 0.988,-5.12 0.689,-4.821 0.39,-4.522 0.091,-4.223 -0.023,-4.057 0.042,-3.382 0.02,-3.956 0.01,-4.209 0.023,-4.464 0.014,-4.718 c -0.016,-0.428 -0.044,-0.556 -0.142,-1 -0.113,-0.512 -0.154,-0.07 0.083,-0.094 0.046,-0.004 0.26,0.007 0.3,0.017 0.271,0.069 -0.442,0.004 -0.058,0.005 -0.079,0 -0.323,0.248 -0.136,0.087 0.198,-0.171 -0.155,0.04 -0.097,0.128 0.076,0.116 -0.089,-0.588 0.043,-0.1 0.086,0.314 0.007,0.079 -0.01,0.036 0.187,0.461 0.647,0.699 1.332,0.818 1.331,0.23 2.079,1.864 1.746,3.075 C 2.689,-0.339 1.335,0.231 0,0"/>
        </g>
      </g>
    </g>
    <g id="g168">
      <g clip-path="url(#clipPath172)" id="g170">
        <g transform="translate(541.8768,638.5473)" id="g176">
          <path id="path178" style="fill:#facdd0;fill-opacity:1;fill-rule:nonzero;stroke:none" d="m 0,0 c 10.834,2.777 21.893,4.671 33.033,5.658 1.377,0.121 2.779,0.228 4.127,-0.073 2.946,-0.658 5.181,-3.203 6.284,-6.012 1.103,-2.809 1.263,-5.887 1.41,-8.901 0.113,-2.312 0.226,-4.623 0.338,-6.935 0.075,-1.528 0.138,-3.121 -0.482,-4.52 -0.981,-2.212 -3.39,-3.376 -5.654,-4.23 -10.246,-3.866 -21.478,-5.082 -32.314,-3.499 -0.541,0.079 -1.123,0.187 -1.495,0.586 -0.415,0.446 -0.444,1.116 -0.457,1.725 -0.167,7.877 -1.483,15.728 -3.894,23.228"/>
        </g>
        <g transform="translate(542.5414,636.1366)" id="g180">
          <path id="path182" style="fill:#fbcdd1;fill-opacity:1;fill-rule:nonzero;stroke:none" d="m 0,0 c 10.029,2.522 20.213,4.416 30.513,5.395 2.329,0.222 4.916,0.781 7.062,-0.546 2.72,-1.684 3.502,-5.252 3.873,-8.14 0.522,-4.076 2.186,-13.102 -1.632,-15.932 -3.617,-2.679 -10.073,-3.563 -14.409,-4.268 -5.22,-0.848 -10.443,-0.894 -15.705,-0.534 -1.021,0.143 -2.047,0.222 -3.077,0.235 -0.026,1.212 -0.078,2.423 -0.158,3.632 -0.135,2.038 -0.352,4.068 -0.631,6.091 -0.664,4.821 -1.758,9.522 -3.194,14.169 -0.948,3.065 -5.776,1.757 -4.822,-1.329 1.076,-3.479 1.996,-6.989 2.634,-10.577 0.736,-4.141 0.573,-8.332 1.21,-12.448 0.727,-4.693 4.905,-4.541 8.948,-4.841 7.186,-0.532 14.496,0.132 21.483,1.897 4.681,1.182 11.744,2.714 14.109,7.562 1.138,2.333 0.854,5.013 0.739,7.516 -0.162,3.536 -0.191,7.12 -0.733,10.623 C 45.506,3.052 43.383,7.734 38.975,9.761 34.147,11.982 27.445,10.128 22.443,9.447 14.43,8.358 6.511,6.793 -1.329,4.821 -4.448,4.037 -3.127,-0.786 0,0"/>
        </g>
        <g transform="translate(410.3578,606.0109)" id="g184">
          <path id="path186" style="fill:#312f55;fill-opacity:1;fill-rule:nonzero;stroke:none" d="m 0,0 c 39.334,15.398 80.299,26.627 121.987,33.438 2.076,0.34 4.496,0.568 6.002,-0.901 1.007,-0.982 1.303,-2.464 1.549,-3.85 1.314,-7.387 2.627,-14.773 3.941,-22.159 0.282,-1.587 0.558,-3.264 -0.001,-4.777 -1.229,-3.323 -5.527,-4.034 -9.063,-4.259 -33.954,-2.161 -67.658,-8.223 -100.237,-18.03 -6.803,-2.048 -13.786,-4.285 -20.859,-3.618 -7.073,0.667 -14.338,5.088 -15.901,12.018 -1.563,6.931 5.37,14.99 12.089,12.682"/>
        </g>
        <g transform="translate(411.0224,603.6002)" id="g188">
          <path id="path190" style="fill:#2d2e4a;fill-opacity:1;fill-rule:nonzero;stroke:none" d="m 0,0 c 19.683,7.669 39.737,14.353 60.111,19.938 10.337,2.834 20.749,5.391 31.222,7.667 4.929,1.072 9.871,2.081 14.825,3.027 4.876,0.932 10.872,2.999 15.829,2.806 3.579,-0.138 4.193,-1.509 4.804,-4.852 0.451,-2.459 0.876,-4.924 1.314,-7.386 0.749,-4.212 4.783,-16.247 -0.189,-18.112 C 123.874,1.572 118.584,2.063 114.326,1.702 108.99,1.25 103.662,0.698 98.345,0.052 77.794,-2.444 57.415,-6.311 37.399,-11.605 c -10.851,-2.87 -23.342,-8.909 -34.744,-7.64 -4.706,0.524 -9.861,2.91 -12.301,7.154 -3.089,5.372 0.737,14.401 7.824,12.635 3.123,-0.778 4.455,4.043 1.329,4.822 -8.302,2.069 -15.905,-5.484 -15.449,-13.783 0.479,-8.744 9.342,-14.557 17.27,-15.659 12.195,-1.695 24.932,4.325 36.487,7.406 13.089,3.489 26.337,6.383 39.689,8.668 14.064,2.407 28.243,4.121 42.475,5.148 3.885,0.281 8.581,0.092 11.986,2.326 4.066,2.668 3.83,6.742 3.096,11.055 -1.101,6.469 -2.258,12.935 -3.448,19.388 -0.752,4.079 -1.773,7.889 -6.454,8.582 -5.474,0.811 -12.223,-1.526 -17.543,-2.516 C 100.798,34.711 94.003,33.323 87.233,31.818 57.065,25.111 27.464,16.04 -1.329,4.821 -4.295,3.666 -3.005,-1.171 0,0"/>
        </g>
        <g transform="translate(573.75,606)" id="g192">
          <path id="path194" style="fill:#fffdf9;fill-opacity:1;fill-rule:nonzero;stroke:none" d="M 0,0 C 0.365,6.074 -1.648,13.173 -2.868,19.134 -4.098,25.15 -4,28.5 -4.25,34.75 c -0.048,1.202 -0.801,6.798 -0.5,7.75 0.698,2.21 1.597,0.421 3.906,0.619 3.728,0.319 7.575,0.625 11.132,-0.536 5.004,-1.634 8.73,-6.015 10.822,-10.845 2.093,-4.83 2.779,-10.133 3.444,-15.354 0.403,-3.163 0.806,-6.325 1.208,-9.488 C 26.061,4.547 26.33,2.02 25.208,-0.065 23.916,-2.467 21.156,-3.614 18.602,-4.571 15.436,-5.758 12.139,-6.948 8.768,-6.686 5.396,-6.425 1.922,-4.29 1.23,-0.979"/>
        </g>
        <g transform="translate(576.25,606)" id="g196">
          <path id="path198" style="fill:#fffbf9;fill-opacity:1;fill-rule:nonzero;stroke:none" d="m 0,0 c 0.279,9.857 -3.593,19.213 -4.042,29.022 -0.165,3.612 -0.441,7.179 -0.681,10.782 -0.026,0.389 0.17,1.944 -0.091,2.219 0.349,-0.368 -2.114,-0.211 -0.42,-1.243 1.449,-0.883 5.133,0.134 6.717,0.128 C 15.101,40.853 18.126,27.399 19.554,16.384 20.231,11.16 23.292,2.378 18.009,-1.027 13.822,-3.725 3.28,-6.912 1.141,-0.315 0.153,2.733 -4.677,1.429 -3.68,-1.644 c 1.887,-5.819 7.503,-8.142 13.292,-7.374 5.068,0.672 12.567,2.889 15.255,7.691 1.426,2.547 1.189,5.445 0.895,8.223 -0.48,4.55 -1.098,9.111 -1.759,13.639 -0.998,6.844 -2.724,13.788 -7.457,19.063 -4.386,4.888 -10.263,6.52 -16.675,6.257 -4.474,-0.183 -9.495,1.603 -9.685,-4.578 C -9.985,35.699 -9.302,29.521 -8.662,23.979 -7.73,15.918 -4.768,8.191 -5,0 -5.091,-3.219 -0.091,-3.216 0,0"/>
        </g>
      </g>
    </g>
    <g id="g200">
      <g clip-path="url(#clipPath204)" id="g202">
        <g transform="matrix(1, 0.032857, 0, 1, 463.661285, 695.101624)" id="g208" style="">
          <path id="path210" style="fill-opacity: 1; fill-rule: nonzero; stroke: none; fill: url(#napoleon-gradient-1);" d="M 0 0 C 1.122 -42.504 2.244 -85.007 3.366 -127.511 C 3.638 -137.792 3.911 -148.097 5.308 -158.286 C 6.911 -169.982 9.98 -181.42 12.955 -192.845 C 16.022 -204.622 19.013 -216.515 19.646 -228.668 C 20.537 -245.775 16.731 -262.874 17.675 -279.978 C 18.307 -291.451 21.066 -303.011 18.963 -314.307 C -9.874 -311.117 -38.711 -307.927 -67.548 -304.736 C -68.534 -304.627 -69.573 -304.497 -70.361 -303.896 C -71.597 -302.952 -71.805 -301.203 -71.895 -299.65 C -73.658 -269.155 -77.074 -238.441 -75.459 -207.938 C -74.683 -193.301 -71.888 -178.723 -72.195 -164.069 C -72.592 -145.137 -73.518 -125.269 -72.848 -106.344 C -71.886 -79.157 -62.071 -53.318 -57.832 -26.447 C -56.074 -15.302 -54.008 -3.486 -46.478 4.916 C -41.605 10.353 -34.931 13.77 -28.417 17.067 C -24.475 19.062 -20.253 21.112 -15.858 20.662 C -10.461 20.109 -6.051 15.77 -3.85 10.812 C -1.649 5.854 -1.252 0.312 -0.886 -5.101"/>
        </g>
        <g transform="translate(461.1613,694.2393)" id="g212">
          <path id="path214" style="fill-opacity: 1; fill-rule: nonzero; stroke: none; fill: none;" d="m 0,0 c 1.104,-41.839 2.208,-83.679 3.314,-125.518 0.524,-19.845 2.285,-38.773 7.162,-58.061 5.084,-20.109 10.262,-39.341 8.971,-60.294 -0.703,-11.394 -2.261,-22.766 -1.858,-34.204 0.418,-11.875 3.397,-23.684 1.463,-35.566 0.804,0.612 1.607,1.224 2.411,1.836 -15.074,1.667 -30.148,3.335 -45.222,5.003 -7.209,0.797 -14.418,1.595 -21.628,2.393 -3.932,0.435 -7.864,0.87 -11.797,1.305 -1.737,0.192 -4.264,0.05 -5.898,0.652 -4.49,1.654 -3.863,3.225 -4.002,6.697 -1.206,29.923 3.628,59.63 5.075,89.455 1.442,29.704 -0.778,59.354 -0.486,89.057 0.298,30.301 4.813,60.271 9.574,90.134 2.38,14.928 5.606,28.75 19.337,37.191 6.041,3.713 16.016,10.622 23.135,7.19 8.202,-3.954 9.013,-14.452 9.563,-22.371 0.222,-3.192 5.223,-3.216 5,0 -0.785,11.296 -3.84,27.804 -18.292,28.291 -6.667,0.225 -13.383,-3.971 -19.002,-7.097 -5.678,-3.16 -11.034,-6.965 -14.878,-12.288 -8.24,-11.407 -9.251,-26.698 -11.343,-40.148 -2.572,-16.541 -4.994,-33.121 -6.506,-49.797 -3.112,-34.312 -0.126,-68.602 -0.584,-102.966 -0.458,-34.323 -6.503,-68.419 -5.715,-102.759 0.139,-6.063 -1.009,-13.92 6.493,-15.282 9.226,-1.674 18.867,-2.103 28.191,-3.135 19.661,-2.175 39.323,-4.35 58.985,-6.525 0.982,-0.109 2.25,0.847 2.41,1.835 1.601,9.836 0.219,19.43 -0.737,29.252 -0.993,10.188 -0.424,20.27 0.425,30.446 0.844,10.128 1.729,20.279 0.809,30.435 -0.888,9.805 -3.107,19.417 -5.541,28.936 -2.472,9.67 -5.15,19.295 -7.069,29.097 -2.042,10.433 -2.813,20.973 -3.172,31.582 C 7.87,-114.064 7.452,-92.89 6.893,-71.725 6.262,-47.816 5.631,-23.908 5,0 4.915,3.211 -0.085,3.224 0,0"/>
        </g>
        <g transform="translate(639.4798,725.6896)" id="g216">
          <path id="path218" style="fill-opacity: 1; fill-rule: nonzero; stroke: none; fill: url(#napoleon-gradient-2);" d="m 0,0 c 6.376,-14.433 12.751,-28.866 19.127,-43.299 7.583,-17.168 15.191,-34.402 20.358,-52.445 3.18,-11.106 5.416,-22.456 7.649,-33.79 2.919,-14.816 5.838,-29.632 8.757,-44.448 2.465,-12.514 4.935,-25.068 5.809,-37.792 1.116,-16.244 -0.384,-32.577 0.598,-48.83 0.801,-13.262 3.249,-26.371 4.418,-39.605 1.203,-13.617 1.047,-27.354 -0.466,-40.939 -0.189,-1.692 -0.202,-3.794 1.283,-4.625 0.707,-0.396 1.566,-0.364 2.375,-0.321 7.116,0.379 14.233,0.757 21.349,1.136 1.565,0.083 3.308,0.248 4.343,1.426 0.897,1.02 0.984,2.498 1.026,3.856 0.683,22.265 1.32,44.535 1.296,66.81 -0.02,18.172 -0.484,36.409 -3.328,54.358 -2.022,12.76 -5.234,25.297 -8.442,37.811 C 75.338,-138.504 64.524,-96.312 53.71,-54.12 49.744,-38.646 45.743,-23.074 39.059,-8.567 35.098,0.029 29.563,8.77 20.724,12.153 11.885,15.535 -0.419,10.348 -0.838,0.893"/>
        </g>
        <g transform="translate(637.3211,724.4279)" id="g220">
          <path id="path222" style="fill-opacity: 1; fill-rule: nonzero; stroke: none; fill: none;" d="m 0,0 c 11.568,-26.189 24.213,-52.181 33.99,-79.106 9.456,-26.042 13.647,-53.66 18.984,-80.751 2.812,-14.278 6.037,-28.568 7.682,-43.04 1.581,-13.907 0.987,-27.841 0.95,-41.801 -0.073,-28.028 6.785,-55.408 5.267,-83.513 -0.176,-3.253 -0.463,-6.49 -0.758,-9.734 -0.19,-2.096 -0.659,-4.406 0.312,-6.396 2.23,-4.567 8.392,-2.845 12.433,-2.63 5.499,0.293 12.269,-0.455 17.591,1.167 4.422,1.347 4.751,5.334 4.894,9.354 1.017,28.698 1.95,57.564 0.889,86.272 -1.028,27.844 -7.081,54.118 -13.97,80.997 -7.046,27.489 -14.092,54.978 -21.137,82.467 -4.018,15.674 -7.88,31.399 -12.111,47.017 C 51.42,-26.419 47.415,-12.714 40.649,-0.646 35.771,8.053 27.82,16.939 17.046,16.952 8.168,16.962 -0.282,11.351 -1.179,2.155 c -0.313,-3.201 4.689,-3.179 5,0 1.088,11.149 15.931,11.391 22.959,6.303 9.343,-6.762 13.855,-19.683 17.512,-30.088 8.235,-23.434 13.327,-48.129 19.488,-72.167 6.472,-25.251 12.944,-50.503 19.417,-75.754 6.518,-25.432 12.637,-50.392 13.875,-76.735 1.195,-25.427 0.394,-50.98 -0.321,-76.411 -0.092,-3.275 -0.188,-6.549 -0.287,-9.823 -0.037,-1.235 0.047,-2.684 -0.119,-3.93 -0.02,-0.654 -0.04,-1.309 -0.06,-1.964 -0.079,-2.118 -1.036,-3.046 -2.87,-2.782 -2.159,-0.806 -5.437,-0.29 -7.763,-0.413 -3.725,-0.199 -7.92,-0.923 -11.644,-0.62 -3.868,0.315 -3.156,1.567 -2.798,5.256 0.282,2.916 0.505,5.837 0.663,8.762 0.369,6.825 0.396,13.668 0.085,20.496 -0.564,12.43 -2.582,24.69 -3.98,37.037 -1.46,12.892 -1.382,25.735 -1.231,38.686 0.145,12.543 -0.329,24.921 -2.19,37.34 -1.815,12.112 -4.395,24.111 -6.762,36.124 -5.523,28.036 -9.91,56.525 -19.959,83.39 C 27.972,-48.766 15.689,-23.22 4.317,2.524 3.02,5.461 -1.29,2.919 0,0"/>
        </g>
        <g transform="translate(441.0971,698.0362)" id="g224">
          <path id="path226" style="fill:#bababa;fill-opacity:1;fill-rule:nonzero;stroke:none" d="m 0,0 c -4.503,14.536 -11.278,28.366 -20.002,40.834 21.066,4.569 42.877,3.623 64.427,3.117 60.413,-1.419 120.911,0.796 181.058,6.629 1.042,-9.649 -5.977,-18.719 -14.61,-23.153 C 202.24,22.994 192.26,22.203 182.581,21.494 120.286,16.931 57.992,12.368 -4.302,7.805"/>
        </g>
        <g transform="translate(443.5078,698.7007)" id="g228">
          <path id="path230" style="fill:#bababa;fill-opacity:1;fill-rule:nonzero;stroke:none" d="m 0,0 c -4.674,14.772 -11.446,28.68 -20.254,41.431 -0.498,-1.224 -0.996,-2.448 -1.494,-3.673 19.744,4.128 39.907,3.614 59.957,3.121 20.641,-0.507 41.287,-0.647 61.932,-0.337 41.052,0.619 82.065,2.937 122.932,6.873 l -2.5,2.5 C 222.012,28.435 195.968,24.508 180.17,23.33 159.297,21.773 138.419,20.271 117.544,18.742 76.125,15.708 34.706,12.674 -6.713,9.64 c -3.19,-0.233 -3.216,-5.235 0,-5 35.455,2.597 70.909,5.195 106.364,7.792 l 52.685,3.859 c 15.749,1.154 32.695,0.742 48.042,4.788 13.244,3.491 26.196,13.89 25.195,28.836 -0.084,1.248 -1.082,2.637 -2.5,2.5 C 181.552,48.416 139.88,46.088 98.171,45.514 77.546,45.23 56.925,45.42 36.305,45.927 16.424,46.415 -3.512,46.67 -23.077,42.58 -24.583,42.265 -25.457,40.19 -24.571,38.907 -16.002,26.503 -9.37,13.048 -4.821,-1.329 -3.854,-4.386 0.975,-3.08 0,0"/>
        </g>
        <g transform="translate(451.7396,661.2203)" id="g232">
          <path id="path234" style="fill:#363634;fill-opacity:1;fill-rule:nonzero;stroke:none" d="m 0,0 c -2.671,-1.788 -2.093,-5.606 0.6,-7.078 1.733,-0.948 4.112,-0.339 4.806,1.601 0.542,1.513 0.115,3.145 -0.855,4.374 -1.988,2.519 -5.981,2.649 -7.636,-0.323 -1.487,-2.669 -0.153,-6.046 2.667,-7.055 0.871,-0.311 1.78,0.086 2.433,0.643 0.692,0.592 1.384,1.183 2.076,1.775 1.027,0.878 0.902,2.633 0,3.536 -1.018,1.017 -2.506,0.879 -3.536,0 -0.692,-0.592 -1.384,-1.184 -2.076,-1.775 0.811,0.214 1.622,0.429 2.432,0.643 0.774,-0.277 -0.125,0.131 0.253,-0.124 0.162,-0.13 0.164,-0.12 0.007,0.03 0.063,-0.078 0.126,-0.157 0.19,-0.236 -0.173,0.43 0.098,-0.361 0,-0.056 C 1.25,-3.697 1.312,-3.84 1.325,-4.114 1.318,-3.973 1.336,-3.815 1.317,-3.678 1.275,-3.376 1.226,-4.275 1.328,-3.746 1.412,-3.303 1.181,-4.053 1.314,-3.803 1.44,-3.565 0.914,-4.185 1.296,-3.859 1.133,-3.999 1.005,-4.062 0.814,-4.149 1.051,-4.091 1.067,-4.083 0.863,-4.124 0.722,-4.166 0.581,-4.158 0.44,-4.099 0.714,-4.147 0.579,-4.132 0.395,-4.035 0.419,-4.048 0.943,-4.286 0.641,-4.164 0.429,-4.079 0.793,-4.388 0.55,-4.039 0.578,-4.08 0.921,-4.505 0.7,-4.263 0.627,-4.084 0.626,-4.108 0.696,-4.333 0.68,-4.239 0.665,-4.144 0.65,-4.05 c 0.021,0.411 0.048,0.2 -0.065,-0.098 0.383,0.498 0.766,0.996 1.149,1.494 -0.293,-0.187 0.051,0.016 0.171,0.056 0.341,0.11 0.599,0.057 0.922,-0.029 0.435,-0.117 -0.179,0.159 0.166,-0.077 0.461,-0.316 -0.452,0.451 0.216,-0.224 -0.075,0.075 -0.097,0.199 -0.158,0.284 0.069,-0.095 0.184,-0.469 0.101,-0.147 0.157,-0.611 -0.119,-1.185 -0.628,-1.526 1.12,0.75 1.608,2.204 0.896,3.42 C 2.77,0.215 1.127,0.755 0,0"/>
        </g>
        <g transform="translate(454.6541,628.3846)" id="g236">
          <path id="path238" style="fill:#363634;fill-opacity:1;fill-rule:nonzero;stroke:none" d="m 0,0 c -1.982,0.701 -4.266,-0.42 -5.239,-2.205 -1.102,-2.021 -0.34,-4.504 1.638,-5.636 1.753,-1.004 4.263,-0.788 5.546,0.872 0.72,0.933 0.919,2.204 0.569,3.332 -0.398,1.282 -1.33,2.114 -2.562,2.568 -1.229,0.453 -2.793,-0.506 -3.075,-1.746 -0.322,-1.414 0.43,-2.59 1.746,-3.075 -0.332,0.122 -0.626,0.278 -0.807,0.6 -0.124,0.35 -0.157,0.434 -0.102,0.251 0.053,-0.192 0.043,-0.094 -0.028,0.293 0.004,0.303 0.136,0.586 0.319,0.821 0.084,0.108 0.59,0.49 0.255,0.297 0.385,0.151 0.451,0.191 0.197,0.12 l 0.383,0.053 c -0.072,-0.004 -0.143,-0.004 -0.215,10e-4 -0.199,0.011 -0.096,-0.004 0.307,-0.044 -0.032,0.036 -0.56,0.178 -0.113,0.009 0.572,-0.215 -0.466,0.258 0.062,-0.029 0.174,-0.141 0.189,-0.143 0.043,-0.006 0.073,-0.095 0.146,-0.19 0.218,-0.284 -0.257,0.403 0.154,-0.549 0.034,-0.074 0.019,-0.115 0.038,-0.23 0.056,-0.345 -0.075,-0.401 -0.082,-0.467 -0.019,-0.198 -0.045,-0.101 -0.09,-0.202 -0.135,-0.304 0.111,0.181 0.103,0.187 -0.025,0.018 -0.138,-0.163 -0.136,-0.164 0.007,-0.003 0.039,0.038 0.078,0.075 0.117,0.113 -0.278,-0.2 -0.338,-0.25 -0.181,-0.151 0.068,0.044 0.139,0.083 0.212,0.116 -0.329,-0.13 -0.403,-0.17 -0.221,-0.121 0.193,0.045 0.102,0.033 -0.274,-0.037 0.46,0.052 -0.517,0.14 -0.042,-0.027 1.234,-0.437 2.79,0.494 3.075,1.746 C 2.065,-1.675 1.322,-0.468 0,0"/>
        </g>
        <g transform="translate(453.5074,596.9016)" id="g240">
          <path id="path242" style="fill:#363634;fill-opacity:1;fill-rule:nonzero;stroke:none" d="m 0,0 c -1.788,-0.622 -2.993,-2.057 -3.211,-3.951 -0.232,-2.014 0.869,-3.909 2.793,-4.606 1.604,-0.581 3.534,-0.186 4.782,0.986 1.551,1.458 1.462,3.543 0.429,5.278 -1.743,2.926 -6.273,4.37 -8.861,1.637 -2.261,-2.386 -1.338,-6.534 1.427,-8.12 1.98,-1.134 4.686,-0.477 5.429,1.805 0.759,2.331 -0.576,4.437 -2.696,5.33 -1.245,0.524 -2.751,-0.564 -3.076,-1.746 -0.396,-1.444 0.497,-2.549 1.746,-3.076 -0.382,0.162 -0.687,0.297 -0.749,0.711 -0.033,0.22 0.261,0.72 -0.036,0.327 0.498,0.383 0.996,0.765 1.494,1.148 -0.504,-0.181 0.358,-0.119 -0.126,-0.052 0.076,-0.01 0.731,-0.157 0.455,-0.08 -0.151,0.094 -0.114,0.062 0.112,-0.097 -0.048,0.048 -0.095,0.096 -0.143,0.143 0.15,-0.214 0.174,-0.246 0.074,-0.096 -0.059,0.087 -0.113,0.178 -0.161,0.272 0.172,-0.288 0.044,-0.14 -0.02,0.099 -0.103,0.383 0.063,0.289 -0.023,0.066 0.012,0.25 0.006,0.277 -0.018,0.079 -0.033,-0.195 -0.022,-0.172 0.032,0.068 -0.032,-0.075 -0.064,-0.15 -0.097,-0.224 0.126,0.205 0.141,0.231 0.045,0.079 -0.018,-0.122 -0.473,-0.37 0.014,-0.089 -0.052,-0.029 -0.104,-0.058 -0.156,-0.087 -0.244,-0.01 -0.273,-0.012 -0.087,-0.004 0.016,-0.019 0.589,-0.094 0.158,0.013 0.074,-0.019 0.664,-0.277 0.313,-0.093 0.439,-0.231 0.348,-0.147 0.658,-0.539 -0.247,0.312 0.143,-0.306 0.152,-0.323 -0.199,0.364 -0.003,-0.42 -0.043,0.068 l 0.342,1.262 C 0.757,-4.249 0.97,-3.828 1.155,-3.781 0.911,-3.844 0.997,-3.988 1.137,-3.819 0.879,-3.88 0.84,-3.891 1.019,-3.852 1.125,-3.815 1.231,-3.823 1.337,-3.875 0.993,-3.868 1.221,-3.737 1.39,-3.932 1.508,-4.067 1.635,-4.096 1.7,-4.294 1.728,-4.377 1.702,-4.931 1.712,-4.61 1.716,-4.482 1.519,-4.7 1.769,-4.473 1.611,-4.617 1.559,-4.741 1.329,-4.821 2.604,-4.378 3.45,-3.11 3.075,-1.746 2.735,-0.508 1.281,0.446 0,0"/>
        </g>
        <g transform="translate(450.979,565.167)" id="g244">
          <path id="path246" style="fill:#363634;fill-opacity:1;fill-rule:nonzero;stroke:none" d="M 0,0 C -2.148,-2.883 -0.017,-7.256 3.197,-8.217 6.61,-9.237 9.54,-6.404 9.575,-3.063 9.61,0.272 6.705,3.22 3.27,2.353 -0.324,1.445 -2.175,-2.646 -0.574,-5.922 0.019,-7.135 1.743,-7.465 2.847,-6.819 4.084,-6.095 4.339,-4.616 3.744,-3.399 3.8,-3.514 3.82,-3.052 3.73,-3.52 c 0.087,0.449 0.077,0.402 0.255,0.645 0.116,0.159 0.375,0.356 0.614,0.406 -0.097,-0.041 -0.192,-0.037 -0.284,0.013 0.323,-0.096 0.352,-0.096 0.086,0 l 0.19,-0.117 C 4.373,-2.411 4.366,-2.429 4.572,-2.625 4.401,-2.414 4.392,-2.43 4.546,-2.673 4.446,-2.418 4.442,-2.429 4.536,-2.707 4.659,-3.117 4.612,-2.481 4.575,-3.063 4.537,-3.663 4.688,-2.999 4.514,-3.41 4.42,-3.687 4.418,-3.693 4.507,-3.427 4.353,-3.669 4.354,-3.676 4.512,-3.448 4.124,-3.786 4.562,-3.396 4.686,-3.403 4.379,-3.486 4.348,-3.496 4.593,-3.435 4.846,-3.484 4.823,-3.47 4.526,-3.395 4.74,-3.48 4.714,-3.452 4.447,-3.31 c 0.168,-0.127 0.14,-0.09 -0.084,0.111 0.24,-0.277 -0.199,0.332 -0.209,0.347 0.081,-0.2 0.075,-0.159 -0.019,0.125 0.014,-0.251 0.016,-0.224 0.006,0.08 C 4.149,-2.766 4.113,-2.869 4.033,-2.955 4.111,-2.8 4.206,-2.656 4.317,-2.524 5.125,-1.44 4.494,0.269 3.42,0.897 2.145,1.643 0.809,1.086 0,0"/>
        </g>
        <g transform="translate(458.0553,535.7415)" id="g248">
          <path id="path250" style="fill:#363634;fill-opacity:1;fill-rule:nonzero;stroke:none" d="m 0,0 c -2.008,0.859 -4.205,0.551 -5.723,-1.127 -1.383,-1.53 -1.886,-3.847 -0.722,-5.66 2.161,-3.367 7.834,-2.523 8.853,1.37 0.341,1.305 -0.433,2.714 -1.746,3.075 -1.294,0.356 -2.733,-0.435 -3.076,-1.746 -0.144,-0.553 0.177,0.301 0.026,0.029 -0.15,-0.273 0.308,0.399 0.01,0.048 0.401,0.47 0.018,0.117 -0.075,0.016 0.076,0.082 0.427,0.202 0.096,0.076 -0.491,-0.187 0.479,0.003 -0.044,0.002 -0.336,-0.001 -0.014,0.002 0.135,-0.04 -0.248,0.071 -0.489,0.247 -0.057,-0.028 -0.388,0.247 0.242,-0.256 0.025,-0.039 -0.12,0.12 0.171,-0.327 0.207,-0.417 -0.178,0.445 0.008,-0.27 -0.012,0.014 0.006,0.144 0.003,0.13 -0.008,-0.042 -0.026,-0.204 -0.01,-0.187 0.049,0.048 -0.029,-0.078 -0.057,-0.155 -0.086,-0.233 0.132,0.201 0.143,0.228 0.033,0.082 -0.256,-0.179 0.196,0.178 0.218,0.197 -0.317,-0.278 0.119,-0.053 -0.122,-0.088 -0.179,-0.065 -0.155,-0.06 0.072,0.014 -0.093,-0.008 -0.186,-0.016 -0.279,-0.024 0.399,-0.175 -0.173,0.102 -0.298,0.156 1.241,-0.531 2.68,-0.37 3.421,0.897 C 1.512,-2.368 1.248,-0.534 0,0"/>
        </g>
        <g transform="translate(462.3269,511.4514)" id="g252">
          <path id="path254" style="fill:#363634;fill-opacity:1;fill-rule:nonzero;stroke:none" d="m 0,0 c -4.948,-1.282 -4.038,-9.492 1.118,-9.544 5.203,-0.052 6.102,8.147 1.226,9.532 -1.298,0.369 -2.719,-0.452 -3.075,-1.746 -0.361,-1.315 0.443,-2.705 1.746,-3.075 0.267,-0.082 0.223,-0.058 -0.132,0.071 -0.285,0.248 -0.33,0.282 -0.136,0.104 -0.57,0.625 -0.07,0.021 -0.038,-0.007 -0.142,0.354 -0.172,0.402 -0.091,0.143 0.054,-0.272 0.05,-0.214 -0.014,0.174 -0.01,-0.166 -0.004,-0.34 -0.007,-0.506 0.013,0.69 -0.029,0.069 -0.1,-0.154 0.192,0.596 -0.009,-0.012 -0.053,0.021 0.235,0.291 0.261,0.342 0.078,0.152 0.288,0.206 0.351,0.262 0.19,0.166 -0.166,-0.09 -0.087,-0.057 0.236,0.1 0.4,0.03 0.457,0.038 0.17,0.025 0.305,0.01 0.624,-0.091 0.694,-0.409 C 1.766,-4.886 1.725,-4.817 1.688,-4.745 1.601,-4.579 1.63,-4.653 1.773,-4.967 1.757,-4.756 1.727,-4.119 1.692,-4.809 1.7,-4.646 1.695,-4.466 1.696,-4.303 1.636,-4.691 1.635,-4.749 1.694,-4.479 1.779,-4.221 1.752,-4.27 1.613,-4.626 1.917,-4.252 1.233,-5.01 1.586,-4.627 1.274,-4.844 1.231,-4.881 1.458,-4.739 1.105,-4.872 1.062,-4.899 1.329,-4.821 c 1.307,0.338 2.1,1.787 1.746,3.075 C 2.712,-0.424 1.311,0.34 0,0"/>
        </g>
        <g transform="translate(465.8657,485.897)" id="g256">
          <path id="path258" style="fill:#363634;fill-opacity:1;fill-rule:nonzero;stroke:none" d="M 0,0 C -4.197,-2.03 -1.813,-8.637 2.343,-8.885 7.105,-9.169 8.981,-3.332 7.018,0.264 5.475,3.089 1.156,0.568 2.7,-2.26 2.903,-2.631 2.954,-2.873 2.789,-3.479 2.676,-3.895 2.82,-3.447 2.714,-3.669 2.668,-3.764 2.36,-4.137 2.619,-3.834 L 2.451,-3.996 c 0.17,0.129 0.181,0.147 0.032,0.056 -0.128,-0.07 -0.136,-0.076 -0.025,-0.016 0.086,0.059 0.183,0.076 0.292,0.05 -0.306,-0.007 -0.138,0.018 0.062,-0.025 0.68,-0.143 -0.337,0.139 0.234,-0.147 -0.184,0.092 -0.164,0.194 -0.022,-0.04 -10e-4,0.001 -0.323,0.553 -0.18,0.25 0.14,-0.297 -0.06,0.212 -0.076,0.287 0.144,-0.68 0.061,0.173 0.003,-0.218 C 2.732,-4.003 2.74,-3.992 2.794,-3.765 2.76,-3.853 2.726,-3.942 2.692,-4.03 2.585,-4.151 2.08,-4.532 2.524,-4.317 c 1.215,0.588 1.54,2.32 0.896,3.42 C 2.694,0.344 1.22,0.59 0,0"/>
        </g>
        <g transform="translate(469.9374,465.3378)" id="g260">
          <path id="path262" style="fill:#363634;fill-opacity:1;fill-rule:nonzero;stroke:none" d="m 0,0 c -2.419,-0.231 -4.094,-1.882 -4.419,-4.288 -0.283,-2.103 0.525,-4.412 2.455,-5.485 4.914,-2.733 9.895,4.26 6.85,8.459 C 4.094,-0.222 2.712,0.313 1.465,-0.417 0.388,-1.047 -0.228,-2.738 0.569,-3.837 0.668,-3.962 0.755,-4.094 0.83,-4.234 0.807,-4.178 0.783,-4.122 0.76,-4.065 0.827,-4.357 0.842,-4.363 0.805,-4.082 0.815,-4.199 0.817,-4.316 0.811,-4.433 0.802,-4.616 0.81,-4.589 0.837,-4.354 0.815,-4.471 0.786,-4.586 0.75,-4.7 0.694,-4.867 0.708,-4.854 0.793,-4.661 0.743,-4.77 0.688,-4.875 0.626,-4.977 0.569,-5.081 0.505,-5.181 0.436,-5.277 0.584,-5.079 0.562,-5.087 0.37,-5.301 0.687,-5.041 0.265,-5.376 0.138,-5.433 0.198,-5.404 0.259,-5.374 0.32,-5.344 0.032,-5.413 0.031,-5.415 0.318,-5.353 0.383,-5.367 0.449,-5.382 0.514,-5.396 0.238,-5.316 0.253,-5.336 0.56,-5.456 0.318,-5.15 0.828,-5.57 0.483,-5.392 0.9,-5.607 0.482,-5.598 0.466,-5.272 0.5,-5.957 0.48,-5.15 0.481,-5.132 c -0.034,-0.674 0.095,0.009 0.024,0.12 0.021,0.289 0.012,0.262 -0.026,-0.081 0.014,0.063 0.028,0.126 0.042,0.189 0.202,0.52 -0.267,-0.312 0.022,0.101 0.149,0.232 0.124,0.21 -0.075,-0.067 0.164,0.154 0.169,0.166 0.015,0.035 C 0.378,-4.939 0.251,-5.001 0.099,-5.021 0.369,-4.95 0.336,-4.943 0,-5 1.344,-4.872 2.5,-3.943 2.5,-2.5 2.5,-1.247 1.352,0.129 0,0"/>
        </g>
        <g transform="translate(465.8711,438.1867)" id="g264">
          <path id="path266" style="fill:#363634;fill-opacity:1;fill-rule:nonzero;stroke:none" d="m 0,0 c -2.375,-2.54 -1.476,-6.955 1.661,-8.47 0.762,-0.368 1.586,-0.567 2.434,-0.495 1.128,0.095 2.147,0.781 2.918,1.588 1.326,1.385 2.1,3.317 1.966,5.243 -0.094,1.347 -1.082,2.5 -2.5,2.5 -1.281,0 -2.594,-1.146 -2.5,-2.5 0.076,-1.097 -0.23,-1.678 -1.146,-2.173 0.421,0.114 0.842,0.228 1.262,0.342 -0.428,-0.044 -0.398,0.111 -0.136,-0.058 -0.227,0.072 -0.25,0.073 -0.07,0.004 0.177,-0.08 0.16,-0.064 -0.052,0.049 0.21,-0.18 0.247,-0.209 0.112,-0.088 -0.076,0.067 -0.147,0.138 -0.214,0.214 0.352,-0.352 0.005,0.034 -0.077,0.165 -0.284,0.454 0.246,-0.327 -0.045,0.167 -0.248,0.421 0.074,-0.373 -0.009,0.134 -0.073,0.448 0.129,-0.208 0.015,0.014 0.054,0.174 0.033,0.126 -0.063,-0.146 0.147,0.233 0.141,0.225 -0.02,-0.026 0.921,0.987 0.977,2.559 0,3.536 C 2.603,0.932 0.925,0.99 0,0"/>
        </g>
        <g transform="translate(468.8303,414.9849)" id="g268">
          <path id="path270" style="fill:#363634;fill-opacity:1;fill-rule:nonzero;stroke:none" d="m 0,0 c -3.787,-2.319 -2.09,-8.329 2.25,-8.561 0.868,-0.046 1.729,0.51 2.159,1.238 1.448,2.459 1.834,5.222 1.264,8.003 -0.27,1.314 -1.844,2.098 -3.076,1.746 -2.431,-0.696 -4.48,-2.433 -5.42,-4.796 -0.887,-2.231 -0.481,-4.982 1.481,-6.507 3.027,-2.353 9.411,-0.751 8.8,3.862 -0.177,1.338 -1.022,2.5 -2.5,2.5 -1.213,0 -2.679,-1.152 -2.5,-2.5 0.073,-0.555 -0.079,-0.269 0.063,-0.177 0.036,0.079 0.072,0.157 0.108,0.235 -0.125,-0.2 -0.136,-0.221 -0.032,-0.064 0.247,0.439 0.164,0.034 0.09,0.124 C 2.467,-5.01 2.438,-5.029 2.601,-4.955 2.769,-4.887 2.732,-4.894 2.489,-4.978 2.061,-5.139 2.648,-5.001 2.379,-5.016 2.191,-5.027 2.001,-5.032 1.813,-5.014 2.342,-5.066 1.697,-4.966 1.602,-4.918 2.018,-5.126 1.44,-4.819 1.694,-4.943 1.802,-5.031 1.804,-5.025 1.701,-4.927 1.58,-4.8 1.6,-4.823 1.759,-4.994 c -0.054,-0.278 0.003,0.353 -0.05,0.183 0.053,0.173 0.051,0.527 0.179,0.799 0.388,0.825 1.196,1.375 2.039,1.616 -1.025,0.582 -2.051,1.164 -3.076,1.746 0.3,-1.46 -0.011,-2.877 -0.76,-4.149 0.72,0.413 1.439,0.825 2.159,1.238 0.237,-0.013 0.368,-0.116 0.563,-0.217 0.15,-0.216 0.149,-0.199 -0.004,0.051 0.085,-0.203 0.102,-0.219 0.05,-0.049 -0.003,0.017 0.013,0.06 0.005,0.035 C 2.788,-3.96 2.75,-4.179 2.524,-4.317 5.263,-2.64 2.754,1.687 0,0"/>
        </g>
        <g transform="translate(471.4268,390.9092)" id="g272">
          <path id="path274" style="fill:#363634;fill-opacity:1;fill-rule:nonzero;stroke:none" d="M 0,0 C -0.083,2.43 -2.613,3.712 -4.716,2.619 -6.8,1.536 -6.989,-1.252 -5.312,-2.817 -2.336,-5.596 2.212,-3.42 3.573,-0.096 4.931,3.224 2.703,7.122 -1.081,6.84 -2.607,6.726 -4.086,6.023 -5.083,4.854 -6.35,3.367 -6.453,1.623 -5.689,-0.125 c 0.541,-1.237 2.352,-1.521 3.421,-0.896 1.277,0.746 1.44,2.178 0.897,3.42 0.106,-0.152 0.155,-0.321 0.146,-0.508 -0.07,-0.331 -0.083,-0.402 -0.038,-0.214 0.049,0.178 0.018,0.121 -0.093,-0.17 0.144,0.23 0.12,0.217 -0.071,-0.039 0.05,0.137 0.569,0.44 0.089,0.132 0.085,0.055 0.655,0.336 0.129,0.128 0.192,0.076 0.391,0.125 0.592,0.169 -0.79,-0.173 0.415,0.158 -0.007,-0.031 -0.202,0.028 -0.187,0.014 0.046,-0.043 -0.175,0.033 -0.32,0.117 -0.435,0.251 0.274,-0.228 0.014,-0.052 -0.028,0.17 0.112,-0.591 0.15,0.366 0.06,-0.236 C -0.997,1.709 -0.996,1.701 -0.98,1.984 -1.001,1.908 -1.022,1.832 -1.043,1.756 -0.753,2.106 -1.205,1.469 -1.266,1.382 -1.361,1.239 -1.357,1.247 -1.251,1.405 -1.362,1.283 -1.479,1.169 -1.604,1.061 -1.29,1.315 -1.856,0.946 -1.91,0.912 -1.483,1.186 -2.345,0.797 -1.806,0.932 -2.099,0.943 -2.13,0.93 -1.899,0.892 -1.988,0.917 -2.078,0.941 -2.167,0.966 -1.197,0.842 -1.26,-0.071 -2.354,-1.772 -3.042,-2.122 -3.7,-2.021 -4.329,-1.466 -4.543,-1.099 -4.758,-0.731 -4.972,-0.363 -4.981,-0.242 -4.991,-0.121 -5,0 -4.89,-3.209 0.11,-3.224 0,0"/>
        </g>
      </g>
    </g>
    <g id="g276">
      <g clip-path="url(#clipPath280)" id="g278">
        <g transform="translate(544.8256,837.3679)" id="g284">
          <path id="path286" style="fill:#facdd0;fill-opacity:1;fill-rule:nonzero;stroke:none" d="m 0,0 c -23.829,-2.151 -48.116,-5.228 -69.599,-15.761 -21.484,-10.533 -39.984,-29.887 -43.504,-53.553 -2.764,-18.586 4.077,-37.79 15.828,-52.453 11.751,-14.663 28.023,-25.159 45.201,-32.773 39.641,-17.571 88.482,-19.767 124.579,4.256 6.308,4.198 12.211,9.201 16.426,15.498 5.836,8.72 8.087,19.418 8.415,29.906 0.838,26.813 -10.591,53.549 -29.748,72.327 -19.157,18.779 -45.622,29.595 -72.421,30.809"/>
        </g>
        <g transform="translate(544.8256,839.8679)" id="g288">
          <path id="path290" style="fill:#fbcdd1;fill-opacity:1;fill-rule:nonzero;stroke:none" d="m 0,0 c -39.884,-3.639 -86.218,-11.665 -107.939,-49.766 -10.001,-17.543 -10.507,-38.12 -2.81,-56.643 7.77,-18.698 22.647,-33.18 39.722,-43.594 33.756,-20.589 77.38,-29.388 115.828,-18.248 18.069,5.236 38.475,15.507 48.014,32.52 9.566,17.06 8.541,39.321 3.289,57.576 -12.938,44.971 -55.142,74.009 -100.927,76.411 -3.216,0.169 -3.206,-4.832 0,-5 38.195,-2.004 74.072,-23.28 90.675,-58.309 8.009,-16.899 11.625,-37.256 7.334,-55.667 -4.669,-20.036 -21.88,-32.205 -40.113,-39.432 -34.244,-13.573 -74.092,-8.684 -106.906,6.644 -17.518,8.183 -34.275,19.612 -45.219,35.858 -10.871,16.138 -15.578,36.468 -9.182,55.236 C -93.125,-18.084 -40.407,-8.687 0,-5 3.178,-4.71 3.209,0.293 0,0"/>
        </g>
        <g transform="translate(544.1593,760.4258)" id="g292">
          <path id="path294" style="fill:#292929;fill-opacity:1;fill-rule:nonzero;stroke:none" d="m 0,0 c 1.262,-5.986 3.745,-11.567 7.553,-16.38 1.905,-2.407 4.225,-4.255 6.355,-6.43 4.076,-4.165 -3.921,-4.924 -6.834,-5.819 -3.066,-0.943 -1.758,-5.771 1.33,-4.822 5.416,1.665 16.117,3.462 11.257,11.506 -2.089,3.458 -5.87,5.675 -8.351,8.868 C 7.997,-8.813 5.932,-3.937 4.821,1.329 4.158,4.476 -0.663,3.144 0,0"/>
        </g>
        <g transform="translate(536.6304,708.4175)" id="g296">
          <path id="path298" style="fill:#292929;fill-opacity:1;fill-rule:nonzero;stroke:none" d="M 0,0 C 3.689,3.132 7.871,5.488 12.531,6.847 13.672,7.18 25.694,9.728 26.119,7.761 26.798,4.617 31.619,5.948 30.94,9.09 29.699,14.835 20.209,13.36 16.125,12.736 8.736,11.605 2.135,8.35 -3.536,3.536 -5.992,1.45 -2.44,-2.072 0,0"/>
        </g>
        <g transform="translate(490.6093,764.9805)" id="g300">
          <path id="path302" style="fill:#f4f9f0;fill-opacity:1;fill-rule:nonzero;stroke:none" d="M 0,0 C 10.891,1.515 21.781,3.03 32.672,4.545 32.229,6.152 31.786,7.759 31.343,9.366 23.165,6.852 14.87,4.939 6.416,3.619 c -2.447,-0.382 -2.323,-4.337 0,-4.821 8.533,-1.778 16.721,0.335 23.358,5.967 2.32,1.969 -0.637,5.02 -3.03,3.927 C 21.357,6.229 15.726,4.727 9.829,4.171 7.109,3.915 6.33,0.12 9.164,-0.74 14.97,-2.501 20.746,-1.694 25.82,1.636 28.499,3.395 25.997,7.727 23.296,5.954 19.248,3.296 15.134,2.674 10.494,4.082 10.272,2.445 10.051,0.808 9.829,-0.829 c 6.825,0.643 13.204,2.353 19.439,5.203 -1.01,1.309 -2.02,2.618 -3.03,3.927 C 21.038,3.887 14.413,2.23 7.745,3.619 l 0,-4.821 c 8.454,1.32 16.748,3.232 24.927,5.747 3.166,0.973 1.773,5.253 -1.329,4.821 C 20.452,7.851 9.562,6.336 -1.329,4.821 -4.503,4.38 -3.152,-0.438 0,0"/>
        </g>
        <g transform="translate(555.0019,772.5786)" id="g304">
          <path id="path306" style="fill:#f4f9f0;fill-opacity:1;fill-rule:nonzero;stroke:none" d="M 0,0 C 10.736,-0.086 21.471,-0.172 32.207,-0.257 31.786,1.295 31.365,2.848 30.945,4.401 22.486,-0.297 12.565,-0.485 3.959,3.972 1.108,5.448 -1.419,1.16 1.435,-0.346 8.808,-4.235 16.913,-5.125 24.932,-2.81 28.018,-1.919 26.705,2.908 23.603,2.012 16.855,0.064 10.187,0.686 3.959,3.972 3.118,2.533 2.276,1.093 1.435,-0.346 11.649,-5.635 23.4,-5.508 33.469,0.084 35.667,1.305 34.643,4.723 32.207,4.743 21.471,4.828 10.736,4.914 0,5 -3.218,5.026 -3.221,0.026 0,0"/>
        </g>
        <g transform="translate(505.425,766.3672)" id="g308">
          <path id="path310" style="fill:#2a2a2a;fill-opacity:1;fill-rule:nonzero;stroke:none" d="M 0,0 C 0.934,-1.207 2.786,-1.517 4.178,-1.084 5.885,-0.553 6.987,0.86 7.106,2.632 7.195,3.94 5.893,5.19 4.606,5.132 3.176,5.068 2.201,4.033 2.106,2.632 2.191,3.101 2.202,3.21 2.14,2.958 2.196,3.089 2.252,3.22 2.307,3.351 2.094,2.977 2.728,3.819 2.431,3.503 2.132,3.187 2.936,3.869 2.57,3.625 2.209,3.386 3.151,3.838 2.738,3.704 2.339,3.574 3.388,3.716 2.945,3.725 2.523,3.735 3.588,3.564 3.161,3.685 2.784,3.793 3.654,3.438 3.402,3.582 3.236,3.683 3.331,3.609 3.686,3.36 3.63,3.413 3.58,3.472 3.536,3.536 3.172,4.005 2.328,4.268 1.768,4.268 1.155,4.268 0.422,3.995 0,3.536 -0.437,3.059 -0.762,2.434 -0.732,1.768 -0.701,1.059 -0.43,0.555 0,0"/>
        </g>
        <g transform="translate(572.157,777.3763)" id="g312">
          <path id="path314" style="fill:#2a2a2a;fill-opacity:1;fill-rule:nonzero;stroke:none" d="m 0,0 c -1.252,0.278 -2.461,0.13 -3.599,-0.478 -1.123,-0.601 -1.815,-1.601 -2.265,-2.759 -0.291,-0.749 0.022,-1.923 0.643,-2.433 1.129,-0.926 2.418,-1.33 3.872,-1.025 1.173,0.246 2.24,1.009 2.821,2.064 0.63,1.146 0.317,2.779 -0.897,3.421 -1.173,0.619 -2.747,0.327 -3.421,-0.897 -0.16,-0.291 0.111,0.116 0.168,0.173 -0.244,-0.245 0.147,0.12 0.208,0.127 -0.027,-0.003 -0.217,-0.114 -0.23,-0.136 0.077,0.129 0.591,0.161 0.154,0.095 -0.311,-0.047 0.568,0.107 0.264,0.04 -0.082,-0.018 -0.456,0.027 -0.002,-0.02 0.504,-0.051 -0.193,0.132 0.248,-0.065 0.193,-0.091 0.232,-0.105 0.117,-0.043 -0.164,0.095 -0.086,0.029 0.233,-0.198 0.215,-0.811 0.429,-1.622 0.643,-2.432 -0.04,-0.104 -0.15,-0.502 -0.059,-0.191 0.091,0.312 0.029,-0.109 -0.12,-0.149 0.037,0.01 0.195,0.172 0.217,0.207 -0.079,-0.132 -0.414,-0.353 -0.07,-0.097 0.209,0.157 -0.439,-0.119 -0.182,-0.075 0.095,0.016 0.434,0.074 0.033,0.039 -0.425,-0.037 -0.038,-0.028 0.04,-0.013 0.253,0.051 -0.612,0.127 -0.145,0.024 1.274,-0.283 2.765,0.384 3.075,1.746 C 2.034,-1.809 1.365,-0.303 0,0"/>
        </g>
        <g transform="translate(490.9832,774.8748)" id="g316">
          <path id="path318" style="fill:#2a2c2b;fill-opacity:1;fill-rule:nonzero;stroke:none" d="m 0,0 c 10.01,0.448 20.02,0.896 30.029,1.344 3.205,0.143 3.223,5.144 0,5 C 20.02,5.896 10.01,5.448 0,5 -3.205,4.857 -3.222,-0.144 0,0"/>
        </g>
        <g transform="translate(558.7249,777.3345)" id="g320">
          <path id="path322" style="fill:#2a2c2b;fill-opacity:1;fill-rule:nonzero;stroke:none" d="m 0,0 c 5.981,1.415 11.961,2.83 17.942,4.245 3.13,0.741 1.805,5.563 -1.329,4.822 C 10.632,7.652 4.651,6.237 -1.329,4.821 -4.459,4.081 -3.134,-0.742 0,0"/>
        </g>
        <g transform="translate(421.7982,780.5688)" id="g324">
          <path id="path326" style="fill:#5c362e;fill-opacity:1;fill-rule:nonzero;stroke:none" d="m 0,0 c 6.467,-12.932 10.389,-27.132 11.475,-41.551 l 3.788,11.582 c 0.363,-1.292 2.373,-1.298 3.304,-0.331 0.932,0.967 1.138,2.393 1.516,3.681 1.896,6.452 8.477,10.092 13.305,14.772 2.836,2.749 5.145,5.983 7.572,9.099 13.555,17.402 31.282,31.529 51.27,40.857 8.421,3.93 17.376,7.049 26.655,7.563 8.932,0.495 17.802,-1.434 26.536,-3.366 6.91,-1.529 13.848,-3.077 20.443,-5.643 15.998,-6.226 29.524,-18.576 37.178,-33.942 3.502,-7.032 6.248,-15.172 12.966,-19.246 4.918,5.308 5.158,13.301 5.119,20.537 -0.026,4.848 -0.082,9.848 -1.995,14.302 -3.037,7.07 -10.09,11.414 -16.73,15.302 -6.349,3.719 -12.757,7.464 -19.741,9.776 -7.173,2.375 -14.762,3.173 -22.293,3.77 -28.675,2.274 -57.84,1.803 -85.769,-5.078 C 46.669,35.203 19.925,21.574 0.443,0.412"/>
        </g>
        <g transform="translate(419.6396,779.3071)" id="g328">
          <path id="path330" style="fill:#4c2e2f;fill-opacity:1;fill-rule:nonzero;stroke:none" d="m 0,0 c 6.204,-12.665 9.959,-26.234 11.134,-40.289 0.232,-2.774 4.004,-3.437 4.91,-0.664 1.263,3.86 2.525,7.721 3.788,11.581 -1.523,-0.199 -3.046,-0.398 -4.569,-0.597 1.286,-1.75 3.009,-2.729 5.27,-2.018 2.768,0.871 3.282,3.582 4.12,5.966 2.674,7.605 11.665,11.969 16.598,18.083 11.333,14.046 23.102,26.62 38.462,36.397 16.667,10.61 34.908,18.215 54.956,15.14 17.919,-2.748 36.83,-7.099 51.024,-18.991 7.218,-6.047 13.116,-13.478 17.349,-21.887 3.774,-7.497 6.594,-15.292 13.863,-20.143 0.85,-0.568 2.353,-0.413 3.029,0.391 5.011,5.955 5.817,13.31 5.855,20.849 0.04,8.149 -0.428,16.162 -5.933,22.643 -5.517,6.496 -13.872,10.68 -21.229,14.69 -8.763,4.776 -17.718,7.696 -27.629,8.94 C 130.889,55.126 87.354,52.895 49.784,37.027 31.37,29.25 14.5,18.085 0.834,3.442 -1.36,1.091 2.168,-2.452 4.369,-0.094 c 22.652,24.27 53.837,38.085 86.17,43.789 18.67,3.294 37.744,3.933 56.657,3.161 9.552,-0.389 19.328,-0.772 28.738,-2.539 9.391,-1.765 17.587,-5.902 25.776,-10.668 7.935,-4.619 16.694,-9.546 18.532,-19.348 1.548,-8.261 1.826,-21.059 -3.843,-27.797 1.01,0.131 2.019,0.261 3.029,0.391 -7.188,4.798 -9.487,13.826 -13.48,21.029 -3.641,6.571 -8.395,12.588 -13.886,17.709 -12.459,11.619 -27.475,16.734 -43.817,20.345 -9.47,2.093 -19.182,4.194 -28.937,3.329 C 111.01,48.571 103.095,45.954 95.511,42.609 79.913,35.73 65.568,25.833 53.441,13.863 46.29,6.806 40.915,-1.838 33.779,-8.817 c -2.961,-2.896 -6.444,-5.216 -9.283,-8.242 -1.465,-1.561 -6.735,-7.912 -4.916,-10.386 -1.269,1.726 -3.862,1.566 -4.569,-0.597 -1.263,-3.861 -2.525,-7.722 -3.788,-11.582 1.637,-0.222 3.274,-0.443 4.911,-0.665 C 14.883,-25.32 10.926,-10.966 4.317,2.524 2.902,5.413 -1.412,2.882 0,0"/>
        </g>
        <g transform="translate(337.9577,748.4725)" id="g332">
          <path id="path334" style="fill:#2a2a2a;fill-opacity:1;fill-rule:nonzero;stroke:none" d="m 0,0 c 40.589,1.368 80.91,10.343 118.248,26.319 15.119,6.47 29.847,14.108 45.731,18.365 34.076,9.133 70.146,1.987 104.688,-5.185 47.185,-9.798 94.371,-19.596 141.557,-29.394 9.995,-2.075 20.524,-4.129 30.248,-1.026 9.725,3.103 9.881,5.702 7.07,15.515 -2.349,8.202 -17.164,17.057 -25,20.433 -25.554,11.011 -37.726,23.095 -62.716,35.335 -24.989,12.239 -48.812,28.337 -65.09,50.905 -10.297,14.277 -17.248,30.669 -26.566,45.603 -16.016,25.668 -39.759,47.199 -68.412,56.908 -28.654,9.71 -62.264,6.445 -86.429,-11.758 C 64.197,185.011 67.916,103.678 18.878,66.544 -6.728,47.154 -31.006,42.669 -57.458,24.449 -63.771,20.1 -80.246,11.919 -74.09,7.351 -72.534,6.197 -70.559,5.798 -68.653,5.449 -47.018,1.49 -24.937,-0.022 -2.965,0.95"/>
        </g>
      </g>
    </g>
    <g id="g340">
      <g clip-path="url(#clipPath344)" id="g342">
        <g transform="translate(562.5007,907.0331)" id="g348">
          <path id="path350" style="fill:#ee3540;fill-opacity:1;fill-rule:nonzero;stroke:none" d="m 0,0 c -5.778,-0.245 -12.252,-0.812 -16.011,-5.208 -2.418,-2.827 -3.178,-6.734 -3.171,-10.454 0.009,-4.617 1.17,-9.418 4.245,-12.861 2.485,-2.783 5.983,-4.438 9.483,-5.735 4.511,-1.67 9.282,-2.877 14.088,-2.652 4.806,0.225 9.675,2.013 12.913,5.571 1.993,2.191 3.284,4.937 4.21,7.751 1.181,3.588 1.803,7.528 0.645,11.124 -1.56,4.844 -6.143,8.227 -11.013,9.702 -4.871,1.476 -10.062,1.348 -15.149,1.208"/>
        </g>
        <g transform="translate(562.5007,909.5331)" id="g352">
          <path id="path354" style="fill:#d73539;fill-opacity:1;fill-rule:nonzero;stroke:none" d="m 0,0 c -5.765,-0.277 -12.333,-0.765 -16.784,-4.919 -4.57,-4.263 -5.441,-11.087 -4.623,-16.996 1.916,-13.857 17.144,-20.661 30.041,-19.995 12.489,0.646 21.54,11.255 20.853,23.796 -0.815,14.869 -17.76,16.858 -29.247,16.56 -3.211,-0.084 -3.224,-5.084 0,-5 8.627,0.224 23.155,0.057 24.247,-11.56 0.903,-9.606 -6.316,-18.266 -15.853,-18.796 -9.071,-0.503 -21.98,3.623 -24.644,13.283 -1.316,4.773 -1.229,11.635 2.761,15.173 C -9.745,-5.346 -4.413,-5.212 0,-5 3.203,-4.846 3.222,0.155 0,0"/>
        </g>
        <g transform="translate(555.8774,900.1177)" id="g356">
          <path id="path358" style="fill:#fff6f2;fill-opacity:1;fill-rule:nonzero;stroke:none" d="m 0,0 c -2.246,-2.642 -3.757,-5.901 -4.323,-9.322 -0.266,-1.605 -0.32,-3.292 0.233,-4.823 0.562,-1.553 1.707,-2.83 2.973,-3.891 4.467,-3.745 10.5,-5.126 16.328,-5.265 3.537,-0.084 7.483,0.442 9.748,3.159 1.622,1.947 2.024,4.614 2.218,7.14 0.216,2.81 0.17,5.895 -1.596,8.091 -1.335,1.66 -3.424,2.503 -5.458,3.138 -6.291,1.965 -13,2.578 -19.543,1.786"/>
        </g>
        <g transform="translate(554.1097,901.8854)" id="g360">
          <path id="path362" style="fill:#fffef4;fill-opacity:1;fill-rule:nonzero;stroke:none" d="m 0,0 c -4.918,-6.269 -8.002,-15.551 -1.117,-21.571 6.179,-5.404 17.914,-8.057 25.66,-4.839 7.083,2.943 9.19,14.169 5.338,20.41 -4.802,7.779 -19.769,7.532 -27.534,6.745 -3.17,-0.321 -3.204,-5.324 0,-5 6.301,0.638 12.835,0.375 18.879,-1.696 3.259,-1.117 5.191,-3.082 5.296,-6.678 0.103,-3.556 -0.421,-7.468 -3.948,-9.137 -4.66,-2.205 -12.31,-0.553 -16.693,1.562 -3.116,1.503 -6.122,3.683 -6.117,7.491 0.004,3.278 1.811,6.678 3.772,9.177 C 5.5,-1.032 1.985,2.531 0,0"/>
        </g>
        <g transform="translate(565.6723,893.0725)" id="g364">
          <path id="path366" style="fill:#4a5ea8;fill-opacity:1;fill-rule:nonzero;stroke:none" d="m 0,0 c -2.551,-1.742 -3.735,-6.609 -1.313,-8.98 2.527,-2.473 6.96,-0.69 8.561,1.984 1.81,3.021 0.424,7.226 -3.207,7.91 -3.658,0.69 -6.775,-3.496 -4.543,-6.688 0.693,-0.991 1.648,-1.362 2.824,-1.149 2.281,0.411 3.303,3.262 2.188,5.192 C 3.487,0.04 0.891,0.952 -1.062,0.808 -6.033,0.443 -5.838,-6.779 -2.207,-8.854 2.008,-11.263 6.478,-4.897 4.471,-1.182 3.423,0.756 1.123,1.541 -0.943,0.886 -3.087,0.207 -4.485,-2.061 -4.544,-4.25 -4.619,-7.018 -2.386,-9.156 0.407,-8.472 2.901,-7.861 4.654,-5.658 5.502,-3.366 5.97,-2.099 4.978,-0.626 3.756,-0.29 2.359,0.094 1.151,-0.765 0.681,-2.036 0.522,-2.465 0.257,-2.845 -0.085,-3.149 -0.25,-3.309 -0.437,-3.439 -0.647,-3.538 0.07,-4.645 0.439,-4.897 0.46,-4.292 c 0.054,0.173 0.135,0.351 0.103,0.427 -0.23,0 -0.395,0.119 -0.496,0.357 -0.075,0.343 -0.135,0.344 -0.181,0.002 -0.137,-0.274 -0.289,-0.539 -0.457,-0.795 -0.272,-0.369 0.023,-0.448 0.887,-0.236 -0.082,-0.158 -0.161,0.42 -0.218,0.533 -0.037,0.139 -0.041,0.282 -0.013,0.429 0.221,0.311 -0.02,0.116 -0.722,-0.584 0.212,-0.054 0.423,-0.115 0.631,-0.182 0.767,-0.385 0.788,0.059 0.063,1.333 0.299,0.299 0.598,0.598 0.897,0.897 0.013,0.003 0.026,0.006 0.039,0.009 C 1.934,-2.485 2.875,-2.868 3.816,-3.251 3.969,-3.47 2.888,-4.117 3.043,-3.856 2.821,-4.229 3.164,-4.364 2.604,-4.792 2.446,-4.914 2.131,-4.957 2.01,-5.088 1.957,-5.126 1.9,-5.148 1.836,-5.155 1.479,-5.205 1.677,-5.434 2.429,-5.841 c 0.048,0.026 0.057,0.868 0.068,0.936 0.064,0.384 0.524,0.927 0.027,0.588 C 5.165,-2.514 2.667,1.821 0,0"/>
        </g>
        <g transform="translate(560.0859,974)" id="g368">
          <path id="path370" style="fill:#fcf064;fill-opacity:1;fill-rule:nonzero;stroke:none" d="m 0,0 c 1.377,-12.402 1.518,-24.977 0.807,-37.427 -0.508,-8.891 -1.451,-17.789 -3.212,-26.524 -1.641,-8.141 -3.647,-16.167 -4.235,-24.478 -0.517,-7.303 -1.139,-15.563 0.105,-22.815 0.871,-5.074 4.228,-9.22 9.737,-8.854 5.644,0.376 9.21,4.939 11.32,9.746 3.284,7.485 5.699,15.475 8.185,23.254 6.019,18.842 10.787,38.054 14.394,57.5 0.584,3.146 -4.234,4.494 -4.821,1.33 -3.491,-18.819 -8.067,-37.419 -13.816,-55.677 -1.341,-4.258 -2.745,-8.497 -4.207,-12.715 -1.568,-4.522 -2.852,-9.708 -5.337,-13.828 -3.094,-5.13 -9.766,-6.6 -10.675,0.974 -0.505,4.202 -0.242,8.638 -0.194,12.862 0.214,18.494 6.043,36.264 7.455,54.688 C 6.574,-28.029 6.543,-13.901 5,0 4.649,3.163 -0.355,3.199 0,0"/>
        </g>
      </g>
    </g>
  </g>
</svg>