<?xml version="1.0" encoding="utf-8"?>
<svg viewBox="611.582 34.044 369.641 711.305" height="1500" width="1500" version="1.1" id="svg2" character="napoleon" xmlns="http://www.w3.org/2000/svg" style="filter: url(#filter-droppy)">
<defs>

<linearGradient id="gradient-0" gradientUnits="userSpaceOnUse" x1="730.639" y1="280.965" x2="730.639" y2="289.873" gradientTransform="matrix(0.99974, -0.02279, 0.042795, 1.877304, -11.834211, -229.840174)">
  <stop offset="0" style="stop-color: rgb(252, 248, 138);"/>
  <stop offset="1" style="stop-color: rgba(147, 143, 29, 1)"/>
</linearGradient>

<linearGradient id="gradient-1" xlink:href="#gradient-0" gradientUnits="userSpaceOnUse" x1="730.639" y1="280.965" x2="730.639" y2="289.873" gradientTransform="matrix(0.99974, -0.02279, 0.042795, 1.877304, 146.051363, -231.359494)" />

<linearGradient id="gradient-2" xlink:href="#gradient-0" gradientUnits="userSpaceOnUse" x1="730.639" y1="280.965" x2="730.639" y2="289.873" gradientTransform="matrix(0.546451, -0.012457, 0.023391, 1.026121, 479.337437, 60.586813)" />

<linearGradient id="gradient-3" xlink:href="#gradient-0" gradientUnits="userSpaceOnUse" x1="730.639" y1="280.965" x2="730.639" y2="289.873" gradientTransform="matrix(0.546451, -0.012457, 0.023391, 1.026121, 485.514505, 68.469318)" />

<linearGradient id="gradient-4" xlink:href="#gradient-0" gradientUnits="userSpaceOnUse" x1="730.639" y1="280.965" x2="730.639" y2="289.873" gradientTransform="matrix(0.546451, -0.012457, 0.023391, 1.026121, 493.30393, 76.402991)" />

<linearGradient id="gradient-5" xlink:href="#gradient-0" gradientUnits="userSpaceOnUse" x1="730.639" y1="280.965" x2="730.639" y2="289.873" gradientTransform="matrix(0.546451, -0.012457, 0.023391, 1.026121, 501.237604, 84.336664)" />

<linearGradient id="gradient-6" xlink:href="#gradient-0" gradientUnits="userSpaceOnUse" x1="730.639" y1="280.965" x2="730.639" y2="289.873" gradientTransform="matrix(0.546451, -0.012457, 0.023391, 1.026121, 509.315525, 92.126089)" />

<linearGradient id="gradient-7" xlink:href="#gradient-0" gradientUnits="userSpaceOnUse" x1="730.639" y1="280.965" x2="730.639" y2="289.873" gradientTransform="matrix(0.546451, -0.012457, 0.023391, 1.026121, 518.691685, 98.47303)" />

<linearGradient id="gradient-8" xlink:href="#gradient-0" gradientUnits="userSpaceOnUse" x1="730.639" y1="280.965" x2="730.639" y2="289.873" gradientTransform="matrix(0.546451, -0.012457, 0.023391, 1.026121, 322.081127, 71.643017)" />

<linearGradient id="gradient-9" xlink:href="#gradient-0" gradientUnits="userSpaceOnUse" x1="730.639" y1="280.965" x2="730.639" y2="289.873" gradientTransform="matrix(0.546451, -0.012457, 0.023391, 1.026121, 317.753647, 79.143944)" />

<linearGradient id="gradient-10" xlink:href="#gradient-0" gradientUnits="userSpaceOnUse" x1="730.639" y1="280.965" x2="730.639" y2="289.873" gradientTransform="matrix(0.546451, -0.012457, 0.023391, 1.026121, 309.819977, 85.635132)" />

<linearGradient id="gradient-11" xlink:href="#gradient-0" gradientUnits="userSpaceOnUse" x1="730.639" y1="280.965" x2="730.639" y2="289.873" gradientTransform="matrix(0.546451, -0.012457, 0.023391, 1.026121, 299.866837, 90.97233)" />

<linearGradient id="gradient-12" xlink:href="#gradient-0" gradientUnits="userSpaceOnUse" x1="730.639" y1="280.965" x2="730.639" y2="289.873" gradientTransform="matrix(0.546451, -0.012457, 0.023391, 1.026121, 291.211914, 95.444036)" />

<linearGradient id="gradient-13" xlink:href="#gradient-0" gradientUnits="userSpaceOnUse" x1="730.639" y1="280.965" x2="730.639" y2="289.873" gradientTransform="matrix(0.546451, -0.012457, 0.023391, 1.026121, 283.422485, 99.771494)" />

<linearGradient id="gradient-14" xlink:href="#gradient-0" gradientUnits="userSpaceOnUse" x1="730.639" y1="280.965" x2="730.639" y2="289.873" gradientTransform="matrix(0.546451, -0.012457, 0.023391, 1.026121, 364.444588, 114.422462)" />

<linearGradient id="gradient-15" xlink:href="#gradient-0" gradientUnits="userSpaceOnUse" x1="730.639" y1="280.965" x2="730.639" y2="289.873" gradientTransform="matrix(0.546451, -0.012457, 0.023391, 1.026121, 375.330308, 116.288715)" />

<linearGradient id="gradient-16" xlink:href="#gradient-0" gradientUnits="userSpaceOnUse" x1="730.639" y1="280.965" x2="730.639" y2="289.873" gradientTransform="matrix(0.546451, -0.012457, 0.023391, 1.026121, 353.87007, 111.15692)" />

<linearGradient id="gradient-17" gradientUnits="userSpaceOnUse" x1="918.557" y1="513.203" x2="918.557" y2="527.675" gradientTransform="matrix(0.999905, 0.013811, -0.038365, 2.777577, 19.776623, -927.71991)">
  <stop offset="0" style="stop-color: rgb(245, 218, 156);"/>
  <stop offset="1" style="stop-color: rgba(127, 100, 38, 1)"/>
</linearGradient>

<linearGradient id="gradient-18" gradientUnits="userSpaceOnUse" x1="916.908" y1="448.714" x2="916.908" y2="503.134" gradientTransform="matrix(1, 0, 0, 1, 1.204148, 3.612445)">
  <stop offset="0" style="stop-color: rgb(211, 90, 90);"/>
  <stop offset="1" style="stop-color: rgb(129, 32, 32);"/>
</linearGradient>

<linearGradient id="gradient-19" gradientUnits="userSpaceOnUse" x1="805.892" y1="46.791" x2="805.892" y2="232.14" gradientTransform="matrix(1.1351, -0.203108, 0.133558, 0.749741, -112.440424, 165.389593)">
  <stop offset="0" style="stop-color: rgba(59, 59, 59, 1)"/>
  <stop offset="1" style="stop-color: rgb(28, 28, 28);"/>
</linearGradient>

<linearGradient id="gradient-20" gradientUnits="userSpaceOnUse" x1="808.24" y1="84.706" x2="808.24" y2="242.213" gradientTransform="matrix(1.13196, -0.219891, 0.20652, 1.053946, -121.399356, 165.864126)">
  <stop offset="0" style="stop-color: rgb(101, 101, 101);"/>
  <stop offset="1" style="stop-color: rgb(61, 61, 61);"/>
</linearGradient>

<linearGradient id="gradient-22" gradientUnits="userSpaceOnUse" x1="677.808" y1="817.531" x2="677.808" y2="865.537" gradientTransform="matrix(0.999958, -0.009151, 0.015745, 1.720608, -12.843754, -587.780701)">
  <stop offset="0" style="stop-color: rgb(232, 232, 232);"/>
  <stop offset="1" style="stop-color: rgb(123, 123, 123);"/>
</linearGradient>

<linearGradient id="gradient-23" gradientUnits="userSpaceOnUse" x1="679.219" y1="809.374" x2="679.219" y2="877.46" gradientTransform="matrix(0.999891, -0.014778, 0.022193, 1.501553, -18.794569, -384.423096)">
  <stop offset="0" style="stop-color: rgb(217, 217, 217);"/>
  <stop offset="1" style="stop-color: rgba(153, 153, 153, 1)"/>
</linearGradient>

<linearGradient id="gradient-24" gradientUnits="userSpaceOnUse" x1="631.371" y1="800.118" x2="631.371" y2="845.299" gradientTransform="matrix(-0.999303, 0.037313, -0.038882, -1.041353, 1294.291504, 1634.94458)">
  <stop offset="0" style="stop-color: rgba(208, 208, 208, 1)"/>
  <stop offset="1" style="stop-color: rgba(157, 157, 157, 1)"/>
</linearGradient>

<linearGradient id="gradient-25" xlink:href="#gradient-24" gradientUnits="userSpaceOnUse" x1="676.396" y1="771.095" x2="676.396" y2="818.473" gradientTransform="matrix(0.999975, -0.007097, 0.01236, 1.741596, -9.513654, -567.041016)" />

<linearGradient id="gradient-26" xlink:href="#gradient-24" gradientUnits="userSpaceOnUse" x1="728.009" y1="797.451" x2="728.009" y2="842.632" gradientTransform="matrix(0.999781, 0.020951, -0.038883, 1.855424, 29.703047, -696.240479)" />

<linearGradient id="gradient-27" xlink:href="#gradient-24" gradientUnits="userSpaceOnUse" x1="719.224" y1="853.3" x2="719.224" y2="913.542" gradientTransform="matrix(0.992596, 0.121467, -0.077765, 0.635477, 77.538284, 240.08252)" />

<linearGradient id="gradient-28" xlink:href="#gradient-24" gradientUnits="userSpaceOnUse" x1="642.196" y1="851.104" x2="642.196" y2="914.17" gradientTransform="matrix(0.955226, -0.295877, 0.292489, 0.944288, -216.08551, 247.382629)" />

<radialGradient id="gradient-21" gradientUnits="userSpaceOnUse" cx="761.505" cy="122.952" r="35.625" gradientTransform="matrix(0.433018, -0.06858, 0.349716, 1.900187, 378.720655, -70.955368)">
  <stop offset="0" style="stop-color: rgba(255, 255, 255, 0.43);"/>
  <stop offset="1" style="stop-color: rgba(165, 165, 165, 0);"/>
</radialGradient>

<linearGradient id="gradient-29" gradientUnits="userSpaceOnUse" x1="853.581" y1="335.17" x2="853.581" y2="420.373" gradientTransform="matrix(0.868097, -0.496395, 0.72632, 1.270191, -130.850754, 333.153236)">
  <stop offset="0" style="stop-color: rgba(163, 11, 11, 1)"/>
  <stop offset="1" style="stop-color: rgb(114, 5, 5);"/>
</linearGradient>

<linearGradient id="gradient-30" gradientUnits="userSpaceOnUse" x1="926.723" y1="518.153" x2="926.723" y2="534.574" gradientTransform="matrix(0.236212, 0.971702, -0.988449, 0.240283, 1220.348093, -498.847088)">
  <stop offset="0" style="stop-color: rgba(128, 151, 146, 1)"/>
  <stop offset="1" style="stop-color: rgba(80, 97, 93, 1)"/>
</linearGradient>

<linearGradient id="gradient-31" xlink:href="#gradient-30" gradientUnits="userSpaceOnUse" x1="911.921" y1="518.713" x2="911.921" y2="535.133" gradientTransform="matrix(0.464714, 0.885461, -0.793282, 0.416336, 899.624674, -504.716351)" />

<linearGradient id="gradient-32" xlink:href="#gradient-30" gradientUnits="userSpaceOnUse" x1="912.293" y1="506.211" x2="912.293" y2="522.631" gradientTransform="matrix(0.999981, -0.00619, 0.005167, 0.83478, -2.598276, 89.283071)" />

<linearGradient id="gradient-33" xlink:href="#gradient-30" gradientUnits="userSpaceOnUse" x1="926.225" y1="506.336" x2="926.225" y2="522.756" gradientTransform="matrix(-0.923362, 0.383933, -0.355729, -0.855527, 1961.561833, 597.187039)" />

<linearGradient id="gradient-34" gradientUnits="userSpaceOnUse" x1="810.766" y1="256.097" x2="810.766" y2="261.202" gradientTransform="matrix(0.999786, 0.020709, -0.03005, 1.450749, 7.864017, -133.89091)">
  <stop offset="0" style="stop-color: rgba(250, 205, 208, 1)"/>
  <stop offset="1" style="stop-color: rgb(240, 132, 139);"/>
</linearGradient>

<linearGradient id="gradient-35" gradientUnits="userSpaceOnUse" x1="809.832" y1="260.557" x2="809.832" y2="264.136" gradientTransform="matrix(0.999653, -0.026367, 0.04338, 1.644703, -11.180518, -145.993403)">
  <stop offset="0" style="stop-color: rgb(245, 165, 171);"/>
  <stop offset="1" style="stop-color: rgb(189, 66, 74);"/>
</linearGradient>

<linearGradient id="gradient-36" gradientUnits="userSpaceOnUse" x1="901.672" y1="206.237" x2="901.672" y2="215.34" gradientTransform="matrix(-0.948648, 0.316335, -0.256025, -0.767787, 1811.616776, 89.857359)">
  <stop offset="0" style="stop-color: rgba(250, 205, 208, 0);"/>
  <stop offset="1" style="stop-color: rgb(254, 167, 172);"/>
</linearGradient>

<linearGradient id="gradient-37" xlink:href="#gradient-36" gradientUnits="userSpaceOnUse" x1="901.672" y1="206.237" x2="901.672" y2="215.34" gradientTransform="matrix(-0.948648, -0.316335, -0.256025, 0.767787, 1605.461792, 334.142029)" />

<radialGradient id="gradient-38" gradientUnits="userSpaceOnUse" cx="808.498" cy="251.681" r="5.227" gradientTransform="matrix(0.650723, 0.002714, -0.012285, 2.946772, 286.435483, -491.895105)">
  <stop offset="0" style="stop-color: rgba(227, 166, 170, 0.59);"/>
  <stop offset="1" style="stop-color: rgba(250, 205, 208, 0);"/>
</radialGradient>

<linearGradient id="gradient-39" gradientUnits="userSpaceOnUse" x1="801.597" y1="239.073" x2="801.597" y2="280.121" gradientTransform="matrix(0.999819, -0.019065, 0.01976, 1.036227, -4.443339, 8.785439)">
  <stop offset="0" style="stop-color: rgb(250, 205, 208);"/>
  <stop offset="1" style="stop-color: rgba(167, 167, 167, 0.38);"/>
</linearGradient>

<linearGradient id="gradient-40" gradientUnits="userSpaceOnUse" x1="810.879" y1="265.839" x2="810.879" y2="273.925" gradientTransform="matrix(-1.43438, 0.097803, -0.125618, -1.842351, 2006.586336, 690.604476)">
  <stop offset="0" style="stop-color: rgba(216, 216, 216, 0);"/>
  <stop offset="1" style="stop-color: rgba(0, 0, 0, 0.15);"/>
</linearGradient>

<radialGradient id="gradient-42" gradientUnits="userSpaceOnUse" cx="742.335" cy="232.859" r="19.449" gradientTransform="matrix(0.93182, 0, 0, 1, 56.036936, 3.254799)">
  <stop offset="0" style="stop-color: rgba(243, 109, 109, 0.31);"/>
  <stop offset="1" style="stop-color: rgba(255, 255, 255, 0);"/>
</radialGradient>

<radialGradient id="gradient-41" xlink:href="#gradient-42" gradientUnits="userSpaceOnUse" cx="742.335" cy="232.859" r="19.449" gradientTransform="matrix(0.93182, 0, 0, 1, 172.606152, 4.098676)" />

<linearGradient id="gradient-43" gradientUnits="userSpaceOnUse" x1="776.819" y1="214.196" x2="776.819" y2="225.692" gradientTransform="matrix(0.999961, -0.00876, 0.011602, 1.324327, -2.651227, -64.165567)">
  <stop offset="0" style="stop-color: rgb(255, 192, 195);"/>
  <stop offset="1" style="stop-color: rgb(255, 180, 185);"/>
</linearGradient>

<linearGradient id="gradient-44" gradientUnits="userSpaceOnUse" x1="776.819" y1="214.196" x2="776.819" y2="225.692" gradientTransform="matrix(0.998263, -0.058922, 0.091673, 1.553102, 38.379401, -76.194605)">
  <stop offset="0" style="stop-color: rgb(255, 190, 193);"/>
  <stop offset="1" style="stop-color: rgb(255, 187, 192);"/>
</linearGradient>

<linearGradient id="gradient-46" gradientUnits="userSpaceOnUse" x1="775.774" y1="201.64" x2="775.774" y2="213.371" gradientTransform="matrix(-0.990268, -0.139177, 0.143641, -1.022016, 1514.516116, 524.697791)">
  <stop offset="0" style="stop-color: rgba(250, 205, 208, 1)"/>
  <stop offset="1" style="stop-color: rgb(245, 106, 115);"/>
</linearGradient>

<linearGradient id="gradient-47" gradientUnits="userSpaceOnUse" x1="835.359" y1="209.629" x2="835.359" y2="214.083" gradientTransform="matrix(-0.999917, 0.01286, -0.023207, -1.804454, 1676.096126, 580.590707)">
  <stop offset="0" style="stop-color: rgba(250, 205, 208, 1)"/>
  <stop offset="1" style="stop-color: rgb(242, 71, 83);"/>
</linearGradient>

<radialGradient id="gradient-49" gradientUnits="userSpaceOnUse" cx="779.734" cy="215.31" r="1.042" gradientTransform="matrix(2.261722, -0.341342, 0.303453, 2.010639, -990.305509, 47.426777)">
  <stop offset="0" style="stop-color: rgba(255, 255, 255, 0.53);"/>
  <stop offset="1" style="stop-color: rgba(241, 112, 121, 0);"/>
</radialGradient>

<radialGradient id="gradient-50" xlink:href="#gradient-49" gradientUnits="userSpaceOnUse" cx="779.734" cy="215.31" r="1.042" gradientTransform="matrix(2.261722, -0.341342, 0.303453, 2.010639, -1049.233302, 47.598967)" />

<linearGradient id="gradient-45" gradientUnits="userSpaceOnUse" x1="806.269" y1="347.611" x2="806.269" y2="596.865" gradientTransform="matrix(0.999736, -0.022972, 0.02029, 0.883034, -4.162865, 180.55794)">
  <stop offset="0" style="stop-color: rgba(204, 204, 204, 1)"/>
  <stop offset="1" style="stop-color: rgba(153, 153, 153, 1)"/>
</linearGradient>

<linearGradient id="gradient-48" gradientUnits="userSpaceOnUse" x1="809.783" y1="417.23" x2="809.783" y2="456.225" gradientTransform="matrix(-0.999945, 0.010541, -0.012396, -1.175834, 1625.01022, 935.643916)">
  <stop offset="0" style="stop-color: rgba(216, 216, 216, 0);"/>
  <stop offset="1" style="stop-color: rgb(50, 50, 50);"/>
</linearGradient>

<radialGradient id="gradient-52" gradientUnits="userSpaceOnUse" cx="912.43" cy="761.565" r="21.974" gradientTransform="matrix(0.408295, -0.135268, 0.262092, 0.582065, 342.41684, 409.134944)">
  <stop offset="0" style="stop-color: rgba(230, 230, 230, 0.21);"/>
  <stop offset="1" style="stop-color: rgba(165, 165, 165, 0);"/>
</radialGradient>

<radialGradient id="gradient-53" gradientUnits="userSpaceOnUse" cx="907.403" cy="600.595" r="27.845" gradientTransform="matrix(0.816304, 0.00393, -0.021386, 3.268437, 172.68808, -1382.309872)">
  <stop offset="0" style="stop-color: rgba(227, 227, 227, 0.35);"/>
  <stop offset="1" style="stop-color: rgba(35, 13, 13, 0);"/>
</radialGradient>

<radialGradient id="gradient-51" xlink:href="#gradient-53" gradientUnits="userSpaceOnUse" cx="907.403" cy="600.595" r="27.845" gradientTransform="matrix(0.816304, -0.00393, -0.021386, -3.268437, 17.350311, 2575.625847)" />

<linearGradient id="gradient-55" gradientUnits="userSpaceOnUse" x1="699.819" y1="227.388" x2="699.819" y2="591.579" gradientTransform="matrix(0.998223, 0.059572, -0.074349, 1.245837, 19.679902, -63.39948)">
  <stop offset="0" style="stop-color: rgba(138, 138, 138, 1)"/>
  <stop offset="1" style="stop-color: rgba(87, 87, 87, 1)"/>
</linearGradient>

<linearGradient id="gradient-56" gradientUnits="userSpaceOnUse" x1="903.319" y1="228.27" x2="903.319" y2="592.461" gradientTransform="matrix(0.996384, -0.084971, 0.108453, 1.271742, -60.987174, -137.823543)">
  <stop offset="0" style="stop-color: rgb(101, 101, 101);"/>
  <stop offset="1" style="stop-color: rgb(128, 128, 128);"/>
</linearGradient>

<linearGradient id="gradient-54" gradientUnits="userSpaceOnUse" x1="810.435" y1="264.331" x2="810.435" y2="419.262" gradientTransform="matrix(0.999978, -0.006671, 0.004708, 0.705754, -1.591122, 83.549083)">
  <stop offset="0" style="stop-color: rgb(255, 255, 255);"/>
  <stop offset="1" style="stop-color: rgba(182, 182, 182, 1)"/>
</linearGradient>

<linearGradient id="gradient-57" gradientUnits="userSpaceOnUse" x1="864.118" y1="350.735" x2="864.118" y2="447.506" gradientTransform="matrix(0.999391, -0.034896, 0.056263, 1.611316, -19.207161, -184.255393)">
  <stop offset="0" style="stop-color: rgba(220, 220, 220, 1)"/>
  <stop offset="1" style="stop-color: rgba(169, 169, 169, 1)"/>
</linearGradient>

<linearGradient id="gradient-58" xlink:href="#gradient-57" gradientUnits="userSpaceOnUse" x1="774.603" y1="350.663" x2="774.603" y2="464.178" gradientTransform="matrix(-0.993467, -0.11412, 0.144515, -1.258051, 1474.786216, 981.146483)" />

<linearGradient id="gradient-59" gradientUnits="userSpaceOnUse" x1="795.449" y1="382.768" x2="795.449" y2="413.916" gradientTransform="matrix(0.999525, -0.03082, 0.074163, 2.40515, -28.009246, -513.330766)">
  <stop offset="0" style="stop-color: rgba(250, 205, 208, 1)"/>
  <stop offset="1" style="stop-color: rgba(241, 112, 121, 1)"/>
</linearGradient>
</defs>

  <defs id="defs6">
    <filter xmlns="http://www.w3.org/2000/svg" id="filter-droppy" height="130%">
      <feGaussianBlur in="SourceAlpha" stdDeviation="3"/>
      <feOffset dx="2" dy="2" result="offsetblur"/>
      <feComponentTransfer>
        <feFuncA type="linear" slope="1"/>
      </feComponentTransfer>
      <feMerge>
        <feMergeNode/>
        <feMergeNode in="SourceGraphic"/>
      </feMerge>
    </filter>
    
    
    
    
    
    
    
    
    
    
    
    
    
    
    
    
    
    
    
    <clipPath id="clip-2" clipPathUnits="userSpaceOnUse">
      <path id="path-2" d="m 0,1200 1200,0 L 1200,0 0,0 0,1200 Z"/>
    </clipPath>
    
    
    
    
    
    
    
    
    
    
    
    
    
    
    
    
    
    
    
    
    
    
    
    
    
    
    
    
    
    
    
    
    
    
    
    
    
    
    
    
    
  </defs>
  <polygon style="fill: rgb(32, 42, 104);" points="721.4249877929688 240.62399291992188 700.3880004882812 259.4070129394531 689.1179809570312 280.4440002441406 682.3560180664062 326.2749938964844 681.60498046875 344.3070068359375 686.864013671875 385.6289978027344 695.8800048828125 418.68798828125 712.4089965820312 424.697998046875 789.0440063476562 430.7090148925781 849.1500244140625 429.20599365234375 893.47802734375 421.6929931640625 924.281982421875 408.16900634765625 933.2979736328125 384.87799072265625 933.2979736328125 360.83599853515625 928.7899780273438 327.0260009765625 926.5360107421875 296.22198486328125 922.0280151367188 275.9360046386719 908.5050048828125 253.39700317382812 896.4829711914062 238.3699951171875 883.7109985351562 234.61399841308594"/>
  <polygon style="fill: url(#gradient-45);" points="721.22998046875 362.8710021972656 712.905029296875 382.2019958496094 702.2009887695312 409.6709899902344 698.6320190429688 424.9309997558594 695.0650024414062 445.27801513671875 693.8759765625 460.53900146484375 691.4959716796875 492.0769958496094 695.0650024414062 526.6680297851562 712.905029296875 578.5540161132812 721.22998046875 588.7269897460938 734.31298828125 594.8309936523438 779.1220092773438 596.0150146484375 795.1489868164062 581.6580200195312 798.5390014648438 564.3099975585938 798.5390014648438 551.0850219726562 798.5390014648438 533.7890014648438 808.0540161132812 505.3030090332031 815.8209838867188 505.72900390625 821.1370239257812 525.6510009765625 825.89501953125 541.9290161132812 830.6510009765625 555.1539916992188 840.166015625 578.5540161132812 842.5440063476562 585.6740112304688 856.8179931640625 596.864990234375 878.2249755859375 596.864990234375 898.4450073242188 596.864990234375 910.9609985351562 589.1939697265625 918.6640014648438 571.4310302734375 921.0419921875 518.5289916992188 919.85302734375 451.3819885253906 917.4749755859375 425.947998046875 912.7169799804688 393.3919982910156 902.0130004882812 372.02801513671875 886.552001953125 352.697998046875 878.2249755859375 347.6109924316406"/>
  <polygon style="fill: rgb(35, 35, 35);" points="692.727 726.645 701.472 718.862 706.328 713.857 718.958 703.293 719.933 697.733 720.904 693.285 728.675 687.169 730.616 679.385 729.645 674.936 721.873 667.709 720.904 664.929 720.904 658.257 709.247 651.585 715.075 647.693 715.075 642.69 708.272 634.349 708.272 619.893 705.357 613.777 704.387 597.653 703.418 575.969 702.443 563.181 701.472 548.169 698.559 540.384 695.644 532.601 697.589 532.601 717.015 537.048 735.474 535.938 761.705 532.045 780.166 529.265 791.823 526.484 806.45 524.597 800.101 544.425 799.594 559.845 799.594 571.52 798.622 576.525 798.622 585.976 802.509 590.425 793.766 600.989 793.766 605.437 796.679 612.664 796.679 618.225 799.391 622.227 803.482 628.234 801.535 635.461 798.622 640.464 797.652 655.477 799.594 665.485 796.679 671.045 794.736 681.054 793.766 691.062 795.707 699.401 795.707 707.742 793.766 711.634 791.823 718.305 790.849 726.089 785.021 730.537 775.308 737.209 758.792 741.101 737.419 742.214 729.645 742.214 708.272 741.101 700.5 740.545 691.757 739.434 688.842 733.317 689.813 731.094"/>
  <polygon style="fill: url(#gradient-51); fill-opacity: 0.52;" points="710.455 653.981 711.96 622.48 721.292 604.146 706.36 578.684 709.64 565.415 714.175 547.849 735.62 539.222 744.905 538.378 754.144 539.945 761.272 569.581 761.63 583.748 765.844 617.831 766.145 639.263 762.533 649.333" transform="matrix(-1, 0, 0, -1, 1472.505005, 1192.359009)"/>
  <polygon style="fill: rgb(59, 59, 59);" points="749.79 601.259 745.881 596.819 755.241 591.164 761.792 588.232 782.586 586.033 796.829 586.033 802.526 586.766 791.417 589.943 783.441 590.187 772.617 590.92 763.216 593.852 755.241 597.272" transform="matrix(-1, 0, 0, -1, 1548.406982, 1187.291992)"/>
  <polygon style="fill: rgb(59, 59, 59);" points="754.416 658.298 746.736 655.621 735.057 653.422 719.96 653.911 708.566 654.155 725.657 651.468 735.912 650.49 748.636 647.695 760.978 654.644" transform="matrix(-1, 0, 0, -1, 1469.544006, 1305.992981)"/>
  <polygon style="fill: rgb(59, 59, 59);" points="748.421 666.08 749.487 671.241 753.393 667.419 759.138 665.179 774.022 661.819 794.128 659.356 799.612 659.132 789.689 658.46 778.461 658.46 763.838 659.132 757.571 660.475 752.349 661.372 748.088 664.178" transform="matrix(-1, 0, 0, -1, 1547.700012, 1329.70105)"/>
  <polygon style="fill: rgb(59, 59, 59);" points="751.066 692.071 745.477 689.665 737.904 688.77 727.459 689.217 723.542 688.994 726.676 688.321 739.993 687.202 747.566 687.202 751.221 687.426 756.183 688.078" transform="matrix(-1, 0, 0, -1, 1479.724976, 1379.27301)"/>
  <polygon style="fill: rgb(59, 59, 59);" points="760.361 618.238 768.812 618.345 786.046 619.242 803.541 623.945 793.357 624.169 785.263 624.169 772.99 625.065 767.299 628.343" transform="matrix(-1, 0, 0, -1, 1563.902039, 1246.580994)"/>
  <polygon style="fill: rgb(59, 59, 59);" points="777.546 549.584 798.224 548.604 800.052 548.604 793.785 546.812 785.429 545.244 777.679 544.755" transform="matrix(-1, 0, 0, -1, 1577.598022, 1094.338989)"/>
  <polygon style="fill: rgb(59, 59, 59);" points="743.997 708.198 740.406 707.151 731.267 705.359 721.605 705.359 713.51 705.583 721.605 703.791 731.789 703.343 737.012 703.343 747.718 703.343 749.394 703.689" transform="matrix(-1, 0, 0, -1, 1462.903992, 1411.541016)"/>
  <polygon style="fill: url(#gradient-48);" points="715.8499755859375 423.7900085449219 722.4089965820312 452.03399658203125 796.0260009765625 455.3139953613281 873.6510009765625 456.2250061035156 900.6199951171875 456.0429992675781 903.7169799804688 429.6210021972656 896.2459716796875 419.781005859375 881.3040161132812 417.2300109863281"/>
  <polygon style="fill: url(#gradient-57);" points="812.426025390625 350.7349853515625 812.7420043945312 436.5589904785156 820.0399780273438 441.42401123046875 832.2020263671875 447.5060119628906 844.9739990234375 445.072998046875 852.8790283203125 442.0329895019531 915.8109741210938 411.2340087890625"/>
  <polygon style="fill: url(#gradient-58);" points="715.06298828125 464.1780090332031 715.06298828125 361.6099853515625 723.625 356.7449951171875 735.7869873046875 350.6629943847656 748.5590209960938 353.09600830078125 814.6389770507812 369.68701171875 834.1430053710938 380.09100341796875" transform="matrix(-1, 0, 0, -1, 1527.817017, 798.096985)"/>
  <line style="fill: none; stroke-linecap: round; stroke: rgb(170, 170, 170);" x1="812.618" y1="436.255" x2="809.343" y2="434.425"/>
  <line style="fill: none; stroke-linecap: round; stroke: rgb(170, 170, 170);" x1="809.268" y1="434.273" x2="812.5383560512856" y2="346.56037428649245"/>
  <polygon style="fill: url(#gradient-29);" points="792.5399780273438 347.29400634765625 822.176025390625 361.43798828125 891.8880004882812 412.9639892578125 898.2860107421875 420.37298583984375 914.6229858398438 411.9679870605469 908.7260131835938 385.6860046386719 851.1380004882812 338.5379943847656 798.2650146484375 335.1700134277344"/>
  <polygon style="fill: rgb(59, 64, 92);" points="900.75 245.37399291992188 937.2650146484375 283.2749938964844 955.3280029296875 319.15899658203125 951.77001953125 327.85400390625 944.3309936523438 336.95098876953125 930.7780151367188 346.614013671875 919.97998046875 350.14300537109375"/>
  <polygon style="fill: url(#gradient-54);" points="809.5960083007812 291.6400146484375 798.2509765625 291.0769958496094 786.905029296875 289.11199951171875 776.5050048828125 286.5849914550781 769.8469848632812 283.7669982910156 761.9849853515625 278.6919860839844 740.5330200195312 269.20098876953125 740.6959838867188 279.989013671875 723.3380126953125 276.42498779296875 721.875 290.4739990234375 705.4559936523438 287.01800537109375 711.7440185546875 299.7799987792969 715.9970092773438 307.9219970703125 721.6699829101562 318.30999755859375 725.4530029296875 333.4700012207031 725.4530029296875 346.1050109863281 723.5599975585938 353.9649963378906 718.3610229492188 360.14300537109375 685.4749755859375 379.6629943847656 689.344970703125 396.06500244140625 693.0150146484375 409.8160095214844 695.64697265625 419.2619934082031 740.7769775390625 392.44500732421875 753.2789916992188 382.4930114746094 764.2150268554688 372.4949951171875 777.4509887695312 360.7030029296875 787.8519897460938 354.52801513671875 796.3599853515625 350.59698486328125 804.8699951171875 348.0690002441406 812.905029296875 346.9460144042969 819.0910034179688 348.3070068359375 827.677978515625 350.8340148925781 840.3629760742188 358.97698974609375 853.0859985351562 368.00299072265625 867.2680053710938 378.1099853515625 881.448974609375 389.34100341796875 890.7459716796875 397.656005859375 897.5830078125 402.60101318359375 907.969970703125 415.5090026855469 924.7059936523438 408.364990234375 931.6489868164062 388.9949951171875 935.39599609375 380.885009765625 920.6840209960938 372.7760009765625 909.3389892578125 360.9849853515625 897.9940185546875 351.1579895019531 888.0679931640625 339.0849914550781 886.177001953125 334.0329895019531 888.0679931640625 326.4519958496094 892.3209838867188 317.74798583984375 903.6669921875 301.1839904785156 909.301025390625 294.8559875488281 913.3740234375 286.8869934082031 893.5989990234375 290.3110046386719 897.1510009765625 276.6629943847656 878.676025390625 278.2820129394531 884.198974609375 264.33099365234375 848.3599853515625 280.9700012207031 837.4860229492188 286.5849914550781 826.614013671875 290.2349853515625 818.1060180664062 291.6400146484375"/>
  <line style="stroke: rgb(169, 169, 169);" x1="812.747" y1="347.18" x2="811.79168721411" y2="291.29263181293175"/>
  <polygon style="fill: rgb(170, 170, 170);" points="811.0549926757812 381.9750061035156 812.3870239257812 387.0710144042969 813.447998046875 393.20599365234375 813.9019775390625 398.33099365234375 813.60400390625 401.697998046875 813.7030029296875 403.8070068359375 813.4769897460938 406.66400146484375 813.010986328125 410.2300109863281 812.0330200195312 413.14898681640625 810.843017578125 417.3550109863281 809.5120239257812 422.0849914550781"/>
  <circle style="fill: url(#gradient-0);" cx="730.639" cy="285.419" r="4.454"/>
  <circle style="fill: url(#gradient-1);" cx="888.525" cy="283.9" r="4.454"/>
  <circle style="fill: url(#gradient-2);" cx="885.169" cy="342.225" r="2.435"/>
  <circle style="fill: url(#gradient-3);" cx="891.346" cy="350.108" r="2.435"/>
  <circle style="fill: url(#gradient-4);" cx="899.136" cy="358.041" r="2.435"/>
  <circle style="fill: url(#gradient-5);" cx="907.069" cy="365.975" r="2.435"/>
  <circle style="fill: url(#gradient-6);" cx="915.147" cy="373.764" r="2.435"/>
  <circle style="fill: url(#gradient-7);" cx="924.523" cy="380.111" r="2.435"/>
  <circle style="fill: url(#gradient-8);" cx="727.913" cy="353.281" r="2.435"/>
  <circle style="fill: url(#gradient-9);" cx="723.585" cy="360.782" r="2.435"/>
  <circle style="fill: url(#gradient-10);" cx="715.651" cy="367.273" r="2.435"/>
  <circle style="fill: url(#gradient-11);" cx="705.698" cy="372.61" r="2.435"/>
  <circle style="fill: url(#gradient-12);" cx="697.043" cy="377.082" r="2.435"/>
  <circle style="fill: url(#gradient-13);" cx="689.254" cy="381.409" r="2.435"/>
  <polygon style="fill: rgb(110, 110, 110);" points="793.85498046875 414.3710021972656 796.489990234375 409.1889953613281 797.281005859375 404.9729919433594 797.9829711914062 401.37200927734375 798.6859741210938 396.7170104980469 799.4760131835938 391.9739990234375 799.4760131835938 388.0220031738281 799.4760131835938 384.2449951171875 799.2130126953125 380.9949951171875 798.0709838867188 378.447998046875 797 377.3299865722656 785.2470092773438 375.7250061035156 773.8289794921875 399.8789978027344 783.052001953125 411.7359924316406"/>
  <polygon style="fill: url(#gradient-59);" points="779.43798828125 405.29400634765625 788.0189819335938 406.2330017089844 792.176025390625 408.37799072265625 795.7960205078125 409.45098876953125 803.1710205078125 411.99798583984375 808.1320190429688 413.7409973144531 811.801025390625 413.9159851074219 813.02197265625 410.3710021972656 813.4730224609375 406.6650085449219 813.6530151367188 404.4800109863281 813.7310180664062 403.40399169921875 814.0070190429688 398.4840087890625 813.5819702148438 394.4280090332031 813.2930297851562 392.05499267578125 812.9290161132812 390.1300048828125 810.6790161132812 389.2040100097656 806.9249877929688 389.07000732421875 805.8519897460938 388.53399658203125 809.0700073242188 388.53399658203125 810.5180053710938 388.01800537109375 811.2020263671875 386.51800537109375 809.875 384.37701416015625 807.4609985351562 383.5719909667969 805.0479736328125 383.43798828125 803.572998046875 383.7070007324219 802.3660278320312 383.9750061035156 799.6840209960938 384.510986328125 795.3939819335938 384.9129943847656 791.10302734375 384.77899169921875 782.7899780273438 383.9750061035156 777.2919921875 383.0360107421875 776.8900146484375 382.76800537109375"/>
  <polygon style="fill: rgb(32, 42, 104);" points="686.7429809570312 312.7250061035156 711.6729736328125 338.7879943847656 726.5689697265625 362.5350036621094 757.7969970703125 369.7539978027344 773.2420043945312 372.2309875488281 788.72802734375 375.427001953125 785.7059936523438 378.0710144042969 784.572998046875 384.49200439453125 784.1950073242188 390.5360107421875 784.1950073242188 398.0899963378906 784.9509887695312 406.3999938964844 787.9730224609375 412.8210144042969 788.3499755859375 413.1990051269531 781.551025390625 413.5769958496094 769.8419799804688 409.79901123046875 759.2659912109375 406.0220031738281 745.1229858398438 404.36700439453125 727.885986328125 401.2229919433594 707.6389770507812 393.2550048828125 689.2109985351562 372.739990234375 691.2760009765625 355.7850036621094 684.85498046875 339.5429992675781 684.4769897460938 321.7900085449219"/>
  <polygon style="fill: rgb(145, 10, 10);" points="778.501 412.365 776.861 409.085 776.246 405.089 776.246 399.555 776.246 395.149 776.656 387.976 778.706 382.545 781.78 378.036 784.547 375.269 786.391 374.757 788.133 374.859 791.31 375.782 797.048 377.319 794.487 379.471 793.052 381.93 791.412 385.312 789.875 389.206 788.748 393.817 788.236 399.76 788.236 404.474 788.441 407.036 789.67 409.905 791.515 412.057 793.872 414.312 789.67 414.619 784.752 414.414 779.833 412.979"/>
  <polygon style="fill: rgb(236, 236, 236);" points="784.7039794921875 399.68798828125 786.18701171875 392.0260009765625 786.6409912109375 388.60699462890625 787.2890014648438 387.135986328125 782.5670166015625 386.2030029296875 772.1810302734375 384.9440002441406 765.0289916992188 383.70001220703125 757.822021484375 382.3009948730469 757.0570068359375 386.7279968261719 755.8980102539062 392.62799072265625 755.2650146484375 398.2409973144531 763.1010131835938 396.4830017089844 767.9329833984375 401.15301513671875 777.208984375 398.635009765625 785.5449829101562 404.7309875488281" transform="matrix(0.997829, 0.065854, -0.065854, 0.997829, 27.678878, -49.983754)"/>
  <circle style="fill: url(#gradient-14);" cx="770.276" cy="396.061" r="2.435"/>
  <circle style="fill: url(#gradient-15);" cx="781.162" cy="397.927" r="2.435"/>
  <circle style="fill: url(#gradient-16);" cx="759.701" cy="392.795" r="2.435"/>
  <polygon style="fill: rgb(216, 216, 216); stroke: rgb(0, 0, 0);" points="823.538 395.364"/>
  <g transform="matrix(0.383008, -0.06219, 0.06219, 0.383008, 474.030151, 198.868423)" style="">
    <polygon style="fill: url(#gradient-18);" points="901.676 452.326 934.61 452.326 934.61 492.064 919.928 506.746 901.613 488.431"/>
    <polygon style="fill: url(#gradient-32);" points="904.332 516.909 904.084 514.421 904.332 512.928 905.452 510.689 907.442 508.824 910.179 506.958 913.662 506.211 914.532 506.336 919.011 509.072 920.503 518.277 914.906 522.631"/>
    <polygon style="fill: url(#gradient-33);" points="918.264 512.058 918.016 514.546 918.264 516.039 919.384 518.278 921.374 520.143 924.111 522.009 927.594 522.756 928.464 522.631 932.943 519.895 934.435 510.69 928.838 506.336" transform="matrix(-1, 0, 0, -1, 1852.450989, 1029.09198)"/>
    <polygon style="fill: url(#gradient-30);" points="919.882 522.259 918.514 526.363 918.762 527.856 919.882 530.096 921.872 531.961 924.609 533.826 928.092 534.574 928.962 534.449 933.441 531.712 934.933 522.507 929.336 518.153" transform="matrix(0, -1, 1, 0, 400.359985, 1453.086975)"/>
    <polygon style="fill: url(#gradient-31);" points="907.505 532.148 904.893 529.038 904.146 526.176 905.142 523.564 906.634 521.326 909.371 519.46 912.854 518.713 913.724 518.838 918.203 521.574 919.695 530.779 914.098 535.133" transform="matrix(0, -1, 1, 0, 384.997498, 1438.843506)"/>
    <polygon style="fill: rgb(251, 251, 251); stroke: rgb(221, 181, 88);" points="916.811 515.7 911.324 499.487 918.558 503.976 926.041 499.487 921.301 516.448"/>
    <polygon style="fill: rgb(251, 251, 251); stroke: rgb(221, 181, 88);" points="916.436 523.682 910.949 539.895 918.183 535.406 925.666 539.895 920.926 522.934"/>
    <polygon style="fill: rgb(251, 251, 251); stroke: rgb(221, 181, 88);" points="904.214 512.209 898.728 528.422 905.962 523.933 913.445 528.422 908.705 511.461" transform="matrix(0, 1, -1, 0, 1426.028015, -386.14502)"/>
    <polygon style="fill: rgb(251, 251, 251); stroke: rgb(221, 181, 88);" points="930.155 527.174 924.669 510.961 931.903 515.45 939.386 510.961 934.646 527.922" transform="matrix(0, 1, -1, 0, 1451.468994, -412.585999)"/>
    <circle style="fill: url(#gradient-17);" cx="918.557" cy="520.439" r="7.236"/>
  </g>
  <polygon style="fill: url(#gradient-19);" points="695.907 213.429 631.047 235.868 627.644 219.413 630.874 199.57 638.394 169.537 657.564 127.708 666.803 107.329 689.648 76.761 713.392 61.209 740.387 48.339 769.197 41.902 795.963 37.077 833.89 37.612 860.966 45.121 887.83 60.137 910.636 77.298 935.785 105.722 959.552 135.753 980.675 165.249 903.238 164.957" transform="matrix(0.983519, 0.180804, -0.180804, 0.983519, 37.928008, -143.146069)"/>
  <polygon style="fill: url(#gradient-55);" points="730.8150024414062 216.11399841308594 671.9110107421875 227.82899475097656 682.052001953125 239.29200744628906 688.2249755859375 246.78799438476562 690.4299926757812 252.52000427246094 690.4299926757812 258.6919860839844 688.666015625 268.8330078125 683.8159790039062 281.6199951171875 678.083984375 298.81500244140625 673.6749877929688 315.1289978027344 667.5020141601562 336.2919921875 664.416015625 354.80999755859375 661.77001953125 374.2099914550781 660.0070190429688 392.72900390625 659.5659790039062 414.3330078125 659.5659790039062 439.02398681640625 659.5659790039062 464.156005859375 657.218017578125 488.84698486328125 655.3590087890625 511.7200012207031 646.1589965820312 543.9959716796875 663.5440063476562 556.6339721679688 680.052001953125 562.0819702148438 697.1950073242188 568.1079711914062 711.8400268554688 573.5469970703125 727.0250244140625 579.541015625 740.2520141601562 584.5239868164062 750.833984375 590.697021484375 753.0390014648438 591.5789794921875 753.47900390625 571.2969970703125 752.156982421875 553.6599731445312 751.2750244140625 536.4650268554688 749.0700073242188 517.5059814453125 744.219970703125 493.6969909667969 739.8109741210938 472.5329895019531 734.0789794921875 453.13299560546875 728.3480224609375 426.2380065917969 724.8200073242188 398.9010009765625 721.2930297851562 372.88800048828125 718.2069702148438 351.7239990234375 718.6480102539062 319.5379943847656 718.6480102539062 308.5150146484375 722.1749877929688 267.95098876953125 722.6160278320312 258.2510070800781 727.0250244140625 246.78799438476562 729.22900390625 242.37899780273438 731.4340209960938 237.08799743652344 733.6389770507812 229.5919952392578 734.52001953125 227.82899475097656"/>
  <polygon style="fill: rgb(28, 28, 28);" points="616.431 204.76 618.172 208.219 626.31 209.703 637.671 205.913 645.135 195.201 644.439 190.916" transform="matrix(0.983519, 0.180804, -0.180804, 0.983519, 46.612601, -110.746823)"/>
  <polygon style="fill: rgb(28, 28, 28);" points="972.545 192.838 974.373 195.494 974.315 199.999 972.343 203.047 968.622 201.418 958.546 203.664 956.259 203.766 941.201 193.962 933.718 185.176" transform="matrix(0.983519, 0.180804, -0.180804, 0.983519, 50.884618, -169.290196)"/>
  <g transform="matrix(0.24242, 0, 0, 0.24242, 716.906189, 110.827065)" style="">
    <polygon style="fill: rgb(177, 177, 177);" points="625.149 866.342 630.381 868.821 631.759 866.342 631.483 864.415 632.86 864.69 635.064 869.372 638.092 872.401 640.021 869.647 639.746 866.893 638.644 864.69 641.949 868.27 647.456 871.024 650.486 869.922 650.486 867.995 648.558 864.965 646.629 862.212 649.108 863.313 653.515 863.864 654.066 860.835 653.515 857.805 650.761 855.327 649.66 854.776 651.863 855.602 654.616 855.878 655.443 854.501 656.269 852.573 654.066 849.268 644.426 833.847 625.701 833.571 606.974 845.413" transform="matrix(-0.328668, 0.944446, -0.944446, -0.328668, 1644.813999, 536.802894)"/>
    <line style="fill: none; stroke: rgb(151, 151, 151);" x1="628.824" y1="853.569" x2="623.475" y2="843.585" transform="matrix(-0.328668, 0.944446, -0.944446, -0.328668, 1633.379451, 536.112823)"/>
    <line style="fill: none; stroke: rgb(151, 151, 151);" x1="631.564" y1="861.324" x2="621.223" y2="845.815" transform="matrix(-0.328668, 0.944446, -0.944446, -0.328668, 1638.418849, 542.515697)"/>
    <line style="fill: none; stroke: rgb(151, 151, 151);" x1="632.702" y1="867.494" x2="620.579" y2="853.41" transform="matrix(-0.328668, 0.944446, -0.944446, -0.328668, 1645.247155, 551.427005)"/>
    <line style="fill: none; stroke: rgb(151, 151, 151);" x1="636.952" y1="870.929" x2="624.652" y2="860.233" transform="matrix(-0.328668, 0.944446, -0.944446, -0.328668, 1655.620464, 554.311429)"/>
    <polygon style="fill: rgb(177, 177, 177);" points="647.792 822.04 653.024 824.519 654.401 822.04 654.126 820.113 655.503 820.388 657.706 825.07 660.735 828.099 662.663 825.345 662.388 822.591 661.286 820.388 664.591 823.968 670.098 826.722 673.128 825.62 673.128 823.693 671.2 820.663 669.272 817.91 671.751 819.011 676.157 819.562 676.708 816.533 676.157 813.503 673.403 811.025 672.302 810.474 674.505 811.3 677.259 811.576 678.085 810.199 678.911 808.271 676.708 804.966 667.069 789.545 648.343 789.269 629.617 801.111" transform="matrix(-1, 0, 0, -1, 1308.528015, 1617.367981)"/>
    <line style="fill: none; stroke: rgb(151, 151, 151);" x1="659.303" y1="807.057" x2="653.955" y2="797.074" transform="matrix(-1, 0, 0, -1, 1313.257996, 1604.130981)"/>
    <line style="fill: none; stroke: rgb(151, 151, 151);" x1="657.164" y1="811.692" x2="646.824" y2="796.183" transform="matrix(-1, 0, 0, -1, 1303.987976, 1607.875)"/>
    <line style="fill: none; stroke: rgb(151, 151, 151);" x1="651.637" y1="813.475" x2="639.514" y2="799.391" transform="matrix(-1, 0, 0, -1, 1291.151001, 1612.865967)"/>
    <line style="fill: none; stroke: rgb(151, 151, 151);" x1="648.25" y1="817.397" x2="635.95" y2="806.701" transform="matrix(-1, 0, 0, -1, 1284.200012, 1624.097961)"/>
    <polygon style="fill: rgb(177, 177, 177);" points="675.318 866.083 680.55 863.604 681.927 866.083 681.652 868.01 683.029 867.735 685.232 863.053 688.261 860.024 690.189 862.778 689.914 865.532 688.812 867.735 692.117 864.155 697.624 861.401 700.654 862.503 700.654 864.43 698.726 867.46 696.798 870.213 699.277 869.112 703.683 868.561 704.234 871.59 703.683 874.62 700.929 877.098 699.828 877.649 702.031 876.823 704.785 876.547 705.611 877.924 706.437 879.852 704.234 883.157 693.455 906.392 675.869 898.854 657.143 887.012" transform="matrix(-0.802772, 0.596286, -0.596286, -0.802772, 1755.756586, 1185.680802)"/>
    <line style="fill: none; stroke: rgb(151, 151, 151);" x1="692.555" y1="885.144" x2="687.207" y2="895.128" transform="matrix(-0.802772, 0.596286, -0.596286, -0.802772, 1774.473823, 1193.345833)"/>
    <line style="fill: none; stroke: rgb(151, 151, 151);" x1="690.215" y1="883.643" x2="679.875" y2="899.152" transform="matrix(-0.802772, 0.596286, -0.596286, -0.802772, 1766.507893, 1198.50366)"/>
    <line style="fill: none; stroke: rgb(151, 151, 151);" x1="684.466" y1="886.18" x2="672.343" y2="900.264" transform="matrix(-0.802772, 0.596286, -0.596286, -0.802772, 1755.6245, 1205.752445)"/>
    <line style="fill: none; stroke: rgb(151, 151, 151);" x1="678.414" y1="885.438" x2="666.114" y2="896.134" transform="matrix(-0.802772, 0.596286, -0.596286, -0.802772, 1743.102017, 1205.02238)"/>
    <polygon style="fill: rgb(177, 177, 177);" points="720.885 839.185 726.117 836.706 727.494 839.185 727.219 841.112 728.596 840.837 730.799 836.155 733.828 833.126 735.756 835.88 735.481 838.634 734.379 840.837 737.684 837.257 743.191 834.503 746.221 835.605 746.221 837.532 744.293 840.562 742.365 843.315 744.844 842.214 749.25 841.663 749.801 844.692 749.25 847.722 746.496 850.2 745.395 850.751 747.598 849.925 750.352 849.649 751.178 851.026 752.004 852.954 749.801 856.259 740.162 871.68 721.436 871.956 702.71 860.114" transform="matrix(0.328668, 0.944446, -0.944446, 0.328668, 1293.476763, -114.610924)"/>
    <line style="fill: none; stroke: rgb(151, 151, 151);" x1="735.503" y1="843.14" x2="730.155" y2="853.124" transform="matrix(0.328668, 0.944446, -0.944446, 0.328668, 1292.986254, -122.738797)"/>
    <line style="fill: none; stroke: rgb(151, 151, 151);" x1="737.755" y1="845.37" x2="727.415" y2="860.879" transform="matrix(0.328668, 0.944446, -0.944446, 0.328668, 1297.537574, -119.156714)"/>
    <line style="fill: none; stroke: rgb(151, 151, 151);" x1="738.4" y1="852.965" x2="726.277" y2="867.049" transform="matrix(0.328668, 0.944446, -0.944446, 0.328668, 1303.872251, -114.303468)"/>
    <line style="fill: none; stroke: rgb(151, 151, 151);" x1="734.326" y1="859.788" x2="722.026" y2="870.484" transform="matrix(0.328668, 0.944446, -0.944446, 0.328668, 1305.921886, -106.928946)"/>
    <polygon style="fill: rgb(177, 177, 177);" points="694.548 792.854 699.78 790.375 701.157 792.854 700.882 794.781 702.259 794.506 704.462 789.824 707.491 786.795 709.419 789.549 709.144 792.303 708.042 794.506 711.347 790.926 716.854 788.172 719.884 789.274 719.884 791.201 717.956 794.231 716.028 796.984 718.507 795.883 722.913 795.332 723.464 798.361 722.913 801.391 720.159 803.869 719.058 804.42 721.261 803.594 724.015 803.318 724.841 804.695 725.667 806.623 723.464 809.928 713.825 825.349 695.099 825.625 676.373 813.783"/>
    <polygon style="fill: url(#gradient-25);" points="669.65 818.473 650.511 777.37 675.298 790.234 702.281 771.095 686.907 814.708"/>
    <polygon style="fill: url(#gradient-26);" points="702.909 825.062 740.56 797.451 733.657 823.807 754.993 841.691 701.026 842.632"/>
    <polygon style="fill: url(#gradient-27);" points="692.555 872.44 710.125 913.542 714.832 889.069 745.894 886.559 700.085 853.3"/>
    <polygon style="fill: url(#gradient-28);" points="667.768 869.302 658.041 914.17 646.118 882.794 616.624 884.99 656.158 851.104"/>
    <polygon style="fill: url(#gradient-24);" points="606.271 817.688 643.922 845.299 637.019 818.943 658.355 801.059 604.388 800.118" transform="matrix(-1, 0, 0, -1, 1262.742981, 1645.416992)"/>
    <line style="fill: none; stroke: rgb(151, 151, 151);" x1="701.33" y1="794.6" x2="695.981" y2="804.584"/>
    <line style="fill: none; stroke: rgb(151, 151, 151);" x1="708.461" y1="793.709" x2="698.121" y2="809.219"/>
    <line style="fill: none; stroke: rgb(151, 151, 151);" x1="715.77" y1="796.918" x2="703.647" y2="811.002"/>
    <line style="fill: none; stroke: rgb(151, 151, 151);" x1="719.335" y1="804.227" x2="707.034" y2="814.924"/>
    <polygon style="fill: url(#gradient-23); stroke: rgb(228, 228, 228);" points="656.472 870.557 648.001 862.713 644.863 853.614 642.98 843.26 643.608 831.023 648.001 819.414 655.217 813.453 667.454 809.374 676.553 809.374 686.907 809.374 697.261 813.766 704.791 818.159 710.439 825.375 715.459 837.612 714.832 847.025 711.38 860.831 705.105 869.616 697.889 873.381 685.652 877.46 675.612 877.146 668.709 875.264 661.806 872.753"/>
    <polygon style="fill: url(#gradient-22);" points="653.962 853.3 651.766 842.946 654.276 833.533 657.1 827.572 663.689 820.355 673.101 817.531 681.887 817.531 689.731 819.728 698.83 824.748 701.968 832.906 703.85 842.632 701.654 853.928 696.634 859.575 688.162 864.596 674.043 865.537 664.63 863.968 658.982 859.575"/>
  </g>
  <polygon style="fill: rgb(35, 35, 35);" points="825.277 541.123 834.022 548.906 838.878 553.911 851.508 564.475 852.483 570.035 853.454 574.483 861.225 580.599 863.166 588.383 862.195 592.832 854.423 600.059 853.454 602.839 853.454 609.511 841.797 616.183 847.625 620.075 847.625 625.079 840.822 633.419 840.822 647.875 837.907 653.991 836.937 670.115 835.968 691.799 834.993 704.587 834.022 719.6 831.109 727.384 828.194 735.167 830.139 735.167 849.565 730.72 868.024 731.83 894.255 735.723 912.716 738.503 924.373 741.284 939 743.171 932.651 723.343 932.144 707.923 932.144 696.248 931.172 691.243 931.172 681.792 935.059 677.343 926.316 666.779 926.316 662.331 929.229 655.104 929.229 649.543 931.941 645.541 936.032 639.535 934.085 632.307 931.172 627.304 930.202 612.291 932.144 602.283 929.229 596.723 927.286 586.714 926.316 576.706 928.257 568.367 928.257 560.026 926.316 556.135 924.373 549.463 923.399 541.679 917.571 537.231 907.858 530.559 891.342 526.667 869.969 525.554 862.195 525.554 840.822 526.667 833.05 527.223 824.307 528.334 821.392 534.451 822.363 536.674" transform="matrix(-1, 0, 0, -1, 1760.392029, 1268.725037)"/>
  <polygon style="fill: url(#gradient-53);" points="865.792 539.335 867.297 570.837 876.629 589.17 861.697 614.633 864.977 627.902 869.512 645.468 890.957 654.094 900.242 654.938 909.481 653.371 916.609 623.735 916.967 609.569 921.181 575.485 921.482 554.054 917.87 543.983"/>
  <polygon style="fill: url(#gradient-56);" points="929.885986328125 602.4240112304688 870.9819946289062 592.02001953125 881.1229858398438 580.5570068359375 887.2960205078125 573.0609741210938 889.5009765625 567.3289794921875 889.5009765625 561.156982421875 885.2869873046875 551.2039794921875 870.260009765625 532.9520263671875 858.4970092773438 509.1610107421875 854.0880126953125 500.5740051269531 854.8880004882812 491.8489990234375 860.2830200195312 472.7659912109375 860.8410034179688 445.6390075683594 859.0780029296875 427.1199951171875 858.6370239257812 405.5159912109375 858.6370239257812 380.82501220703125 858.6370239257812 355.6929931640625 862.1640014648438 331.00201416015625 863.2429809570312 316.4519958496094 865.7940063476562 300.3330078125 870.448974609375 280.84100341796875 875.2059936523438 264.1319885253906 885.9840087890625 247.3350067138672 900.6290283203125 238.46800231933594 917.2830200195312 234.3990020751953 928.551025390625 231.8979949951172 949.905029296875 229.15199279785156 952.1099853515625 228.27000427246094 952.5499877929688 248.552001953125 951.22802734375 266.1889953613281 950.3460083007812 283.3840026855469 948.1409912109375 302.3429870605469 943.291015625 326.1520080566406 938.8820190429688 347.3160095214844 933.1500244140625 366.71600341796875 927.4190063476562 393.6109924316406 923.8909912109375 420.947998046875 920.364013671875 446.96099853515625 917.2780151367188 468.125 917.718994140625 500.3110046386719 917.718994140625 511.3340148925781 921.2459716796875 551.8980102539062 921.68701171875 561.5980224609375 926.0960083007812 573.0609741210938 928.2999877929688 577.469970703125 930.5050048828125 582.760986328125 932.7100219726562 590.2570190429688 933.5910034179688 592.02001953125" transform="matrix(-1, 0, 0, -1, 1811.187012, 820.730988)"/>
  <polygon style="fill: rgb(250, 205, 208);" points="702.083984375 180.3209991455078 698.6110229492188 193.4980010986328 700.3079833984375 211 709.2349853515625 239.05599975585938 725.8140258789062 257.5480041503906 760.2449951171875 274.1260070800781 801.6909790039062 279.864013671875 834.8469848632812 279.22601318359375 862.2650146484375 271.57501220703125 890.958984375 248.62100219726562 898.6099853515625 225.66600036621094 896.697021484375 209.72500610351562 890.958984375 191.23500061035156 875.0180053710938 172.1060028076172 854.614013671875 159.3520050048828 822.094970703125 151.06300354003906 768.5339965820312 151.06300354003906 741.1170043945312 151.06300354003906 708.5980224609375 165.09100341796875"/>
  <polygon style="fill: url(#gradient-47);" points="815.099 213.652 855.62 214.083 855.476 211.305 844.699 209.916 837.275 209.629 832.294 209.629 828.223 209.629 824.63 209.677 819.745 210.539"/>
  <polygon style="fill: rgb(250, 205, 208);" points="707.251 227.076 693.635 219.417 689.664 215.162 688.529 209.773 689.097 207.503 694.77 204.667 699.309 205.801 704.415 210.907 704.982 212.042"/>
  <polygon style="fill: url(#gradient-46);" points="755.845 205.075 756.04 207.732 764.011 211.038 768.937 211.556 776.195 211.751 795.703 213.371 793.435 210.195 789.481 206.76 783.713 203.649 771.918 201.9 760.382 201.64"/>
  <polygon style="fill: rgb(250, 205, 208);" points="909.5070190429688 203.6739959716797 895.8909912109375 211.33299255371094 891.9199829101562 215.58799743652344 890.7849731445312 220.9770050048828 891.35302734375 223.2469940185547 897.0260009765625 226.08299255371094 901.5650024414062 224.94900512695312 911.1690063476562 220.8070068359375 914.3070068359375 218.38699340820312" transform="matrix(-1, 0, 0, -1, 1800.291992, 429.756989)"/>
  <polygon style="fill: rgb(232, 205, 143);" points="847.219 316.423 860.424 314.131 860.125 313.184 847.17 315.526"/>
  <polygon style="fill: url(#gradient-39);" points="709.2639770507812 239.072998046875 893.9299926757812 239.8300018310547 890.6829833984375 248.88499450683594 862.072998046875 271.7510070800781 834.6209716796875 279.40899658203125 802.2659912109375 280.1210021972656 759.8389892578125 274.2200012207031 725.448974609375 257.635009765625"/>
  <polygon style="fill: url(#gradient-38);" points="804.896 258.653 805.503 254.277 805.503 249.901 805.503 246.376 805.26 245.161 807.813 243.338 811.824 243.824 813.04 245.039 812.918 249.537 812.918 250.874 813.161 254.399 814.498 258.531 815.349 259.747"/>
  <polyline style="fill: none; stroke-linecap: round; stroke: rgba(255, 67, 79, 0.66);" points="766.837 197.133 775.769 196.446 777.83 196.618 781.093 197.305 784.872 198.679 788.307 200.397 789.853 201.771 792.602 203.832 795.522 205.378 799.987 206.752 807.202 206.752 810.637 206.752 815.275 206.752 819.225 206.408 825.065 205.206 832.279 204.691 842.929 204.691 852.376 205.549 854.437 205.893"/>
  <polyline style="fill: none; stroke-linecap: round; stroke: rgba(255, 67, 79, 0.66);" points="783.842 195.244 787.964 196.274 791.056 198.335 793.976 200.053 796.209 201.084 798.442 202.286 802.049 203.145 807.03 203.317 811.324 203.317 817.164 203.317 822.489 203.145 827.985 202.629 833.825 202.458 842.242 202.973 850.658 203.145"/>
  <polyline style="fill: none; stroke-linecap: round; stroke: rgba(255, 67, 79, 0.66);" points="792.945 194.728 797.755 197.133 800.675 198.679 805.827 200.397 813.042 200.568 820.084 200.568 827.642 200.568 836.745 200.568 845.677 201.084"/>
  <polyline style="fill: url(#gradient-36); stroke: rgb(248, 168, 174);" points="897.647 216.855 896.616 210.328 899.193 208.095 903.144 207.752 905.548 207.752 906.751 209.126 907.094 210.671 907.609 211.874 906.922 213.935"/>
  <polyline style="fill: url(#gradient-37); stroke: rgb(248, 168, 174);" points="691.492 207.145 691.118 212.378 693.038 215.905 696.876 216.923 699.393 216.248 701.159 214.761 701.502 213.216 701.455 212.126 700.767 210.065" transform="matrix(-1, 0, 0, -1, 1392.619995, 424.068008)"/>
  <polygon style="fill: rgb(91, 35, 0);" points="691.1920166015625 196.7729949951172 697.635009765625 206.40699768066406 702.927978515625 212.98699951171875 705.968017578125 216.96200561523438 705.7340087890625 216.49400329589844 704.3309936523438 210.18099975585938 704.3309936523438 203.16600036621094 705.031982421875 196.38499450683594 709.4749755859375 203.39999389648438 711.81298828125 205.50399780273438 711.3460083007812 203.63400268554688 710.8779907226562 194.98199462890625 714.1510009765625 200.593994140625 714.6190185546875 198.25599670410156 717.8930053710938 194.98199462890625 719.9970092773438 198.02200317382812 725.375 192.8780059814453 727.0120239257812 192.17599487304688 732.156005859375 194.98199462890625 734.260009765625 190.07200622558594 741.5089721679688 190.53900146484375 751.7969970703125 186.79800415039062 760.6829833984375 186.0970001220703 769.333984375 186.33099365234375 774.47900390625 187.9669952392578 776.8170166015625 188.2010040283203 796.926025390625 187.73300170898438 795.989990234375 189.13600158691406 795.0549926757812 191.47500610351562 795.5230102539062 195.6840057373047 797.8610229492188 199.65899658203125 803.0050048828125 205.50399780273438 812.8259887695312 209.94700622558594 814.697021484375 210.6479949951172 810.7219848632812 205.73800659179688 808.8510131835938 200.36000061035156 813.9949951171875 205.9720001220703 815.1640014648438 205.73800659179688 813.5269775390625 200.8280029296875 820.3079833984375 204.56900024414062 817.969970703125 200.36000061035156 815.1640014648438 194.281005859375 815.6320190429688 195.4499969482422 820.3079833984375 198.72300720214844 821.010009765625 197.78799438476562 821.2440185546875 194.98199462890625 824.0499877929688 195.91700744628906 823.5819702148438 190.7729949951172 828.2579956054688 192.8780059814453 828.4920043945312 192.8780059814453 828.7260131835938 189.13600158691406 828.9600219726562 187.26600646972656 831.531982421875 187.9669952392578 840.4169921875 188.9029998779297 850.4719848632812 191.0070037841797 855.6160278320312 193.57899475097656 856.551025390625 196.61900329589844 861.22802734375 194.98199462890625 864.968994140625 191.24099731445312 866.1380004882812 190.7729949951172 868.4769897460938 196.1510009765625 868.4769897460938 197.5540008544922 875.958984375 194.51400756835938 878.531005859375 192.41000366210938 887.416015625 192.8780059814453 892.093017578125 195.6840057373047 894.6649780273438 199.89199829101562 894.197021484375 205.27000427246094 891.8590087890625 209.47900390625 890.9240112304688 210.6479949951172 900.0430297851562 206.44000244140625 898.406005859375 209.47900390625 898.6400146484375 210.18099975585938 903.3170166015625 207.14100646972656 906.3560180664062 203.86700439453125 907.2919921875 200.12600708007812 907.2919921875 197.78799438476562 903.3170166015625 191.70899963378906 902.14697265625 191.0070037841797 785.0009765625 169.02699279785156 732.3900146484375 174.40499877929688 696.614990234375 180.9530029296875"/>
  <polygon style="fill: url(#gradient-35);" points="795.278 261.602 795.994 261.755 796.557 262.062 797.068 262.42 797.988 263.085 798.96 263.596 800.085 264.261 801.67 264.67 804.176 264.772 806.988 264.772 808.522 264.772 810.363 264.772 813.176 264.772 814.965 264.772 817.062 264.619 820.641 264.67 822.022 264.312 822.636 264.005 822.993 263.801 823.198 263.494 823.403 263.085 823.658 262.676 823.76 262.369 823.914 261.96 824.067 261.193"/>
  <polygon style="fill: url(#gradient-34);" points="789.352 261.838 793.66 261.331 797.697 260.66 800.348 259.58 802.115 258.598 803.588 257.813 805.06 256.929 806.042 256.733 806.926 257.322 807.318 257.813 809.969 258.303 810.558 258.009 811.442 257.42 812.816 256.929 813.7 256.929 814.78 257.813 815.172 258.009 818.216 259.187 821.259 260.169 824.597 260.856 827.248 261.15 829.8 261.347 831.044 261.689"/>
  <polygon style="fill: url(#gradient-20);" points="632.832 244.143 642.626 245.176 671.974 236.402 694.977 223.531 713.846 215.488 736.031 207.979 760.814 202.616 786.277 196.717 831.14 187.602 875.896 182.238 895.849 182.773 924.475 182.773 968.945 184.385 980.267 184.025 984.259 178.271 981.606 173.507 959.782 158.642 944.143 146.844 929.217 133.435 920.142 124.856 902.725 105.549 895.617 98.041 879.947 87.317 868.784 81.951 850.918 78.198 836.289 77.663 824.943 78.735 808.904 80.882 778.192 84.098 762.82 86.243 748.734 89.997 735.279 94.824 726.549 97.505 705.605 108.23 692.51 123.782 679.792 149.524 672.69 165.077 660.788 185.456 653.669 201.544 644.587 216.559 631.598 235.155 629.93 240.795" transform="matrix(0.983519, 0.180804, -0.180804, 0.983519, 42.486897, -143.265581)"/>
  <g id="g-2" transform="matrix(0.68832, 0, 0, -0.638516, 493.526947, 716.036499)" style="">
    <g clip-path="url(#clip-2)" id="g-3">
      <g transform="translate(562.5007,907.0331)" id="g-4">
        <path id="path-3" style="fill:#ee3540;fill-opacity:1;fill-rule:nonzero;stroke:none" d="m 0,0 c -5.778,-0.245 -12.252,-0.812 -16.011,-5.208 -2.418,-2.827 -3.178,-6.734 -3.171,-10.454 0.009,-4.617 1.17,-9.418 4.245,-12.861 2.485,-2.783 5.983,-4.438 9.483,-5.735 4.511,-1.67 9.282,-2.877 14.088,-2.652 4.806,0.225 9.675,2.013 12.913,5.571 1.993,2.191 3.284,4.937 4.21,7.751 1.181,3.588 1.803,7.528 0.645,11.124 -1.56,4.844 -6.143,8.227 -11.013,9.702 -4.871,1.476 -10.062,1.348 -15.149,1.208"/>
      </g>
      <g transform="translate(562.5007,909.5331)" id="g-5">
        <path id="path-4" style="fill:#d73539;fill-opacity:1;fill-rule:nonzero;stroke:none" d="m 0,0 c -5.765,-0.277 -12.333,-0.765 -16.784,-4.919 -4.57,-4.263 -5.441,-11.087 -4.623,-16.996 1.916,-13.857 17.144,-20.661 30.041,-19.995 12.489,0.646 21.54,11.255 20.853,23.796 -0.815,14.869 -17.76,16.858 -29.247,16.56 -3.211,-0.084 -3.224,-5.084 0,-5 8.627,0.224 23.155,0.057 24.247,-11.56 0.903,-9.606 -6.316,-18.266 -15.853,-18.796 -9.071,-0.503 -21.98,3.623 -24.644,13.283 -1.316,4.773 -1.229,11.635 2.761,15.173 C -9.745,-5.346 -4.413,-5.212 0,-5 3.203,-4.846 3.222,0.155 0,0"/>
      </g>
      <g transform="translate(555.8774,900.1177)" id="g-7">
        <path id="path-5" style="fill:#fff6f2;fill-opacity:1;fill-rule:nonzero;stroke:none" d="m 0,0 c -2.246,-2.642 -3.757,-5.901 -4.323,-9.322 -0.266,-1.605 -0.32,-3.292 0.233,-4.823 0.562,-1.553 1.707,-2.83 2.973,-3.891 4.467,-3.745 10.5,-5.126 16.328,-5.265 3.537,-0.084 7.483,0.442 9.748,3.159 1.622,1.947 2.024,4.614 2.218,7.14 0.216,2.81 0.17,5.895 -1.596,8.091 -1.335,1.66 -3.424,2.503 -5.458,3.138 -6.291,1.965 -13,2.578 -19.543,1.786"/>
      </g>
      <g transform="translate(554.1097,901.8854)" id="g-8">
        <path id="path-7" style="fill:#fffef4;fill-opacity:1;fill-rule:nonzero;stroke:none" d="m 0,0 c -4.918,-6.269 -8.002,-15.551 -1.117,-21.571 6.179,-5.404 17.914,-8.057 25.66,-4.839 7.083,2.943 9.19,14.169 5.338,20.41 -4.802,7.779 -19.769,7.532 -27.534,6.745 -3.17,-0.321 -3.204,-5.324 0,-5 6.301,0.638 12.835,0.375 18.879,-1.696 3.259,-1.117 5.191,-3.082 5.296,-6.678 0.103,-3.556 -0.421,-7.468 -3.948,-9.137 -4.66,-2.205 -12.31,-0.553 -16.693,1.562 -3.116,1.503 -6.122,3.683 -6.117,7.491 0.004,3.278 1.811,6.678 3.772,9.177 C 5.5,-1.032 1.985,2.531 0,0"/>
      </g>
      <g transform="translate(565.6723,893.0725)" id="g-9">
        <path id="path-8" style="fill:#4a5ea8;fill-opacity:1;fill-rule:nonzero;stroke:none" d="m 0,0 c -2.551,-1.742 -3.735,-6.609 -1.313,-8.98 2.527,-2.473 6.96,-0.69 8.561,1.984 1.81,3.021 0.424,7.226 -3.207,7.91 -3.658,0.69 -6.775,-3.496 -4.543,-6.688 0.693,-0.991 1.648,-1.362 2.824,-1.149 2.281,0.411 3.303,3.262 2.188,5.192 C 3.487,0.04 0.891,0.952 -1.062,0.808 -6.033,0.443 -5.838,-6.779 -2.207,-8.854 2.008,-11.263 6.478,-4.897 4.471,-1.182 3.423,0.756 1.123,1.541 -0.943,0.886 -3.087,0.207 -4.485,-2.061 -4.544,-4.25 -4.619,-7.018 -2.386,-9.156 0.407,-8.472 2.901,-7.861 4.654,-5.658 5.502,-3.366 5.97,-2.099 4.978,-0.626 3.756,-0.29 2.359,0.094 1.151,-0.765 0.681,-2.036 0.522,-2.465 0.257,-2.845 -0.085,-3.149 -0.25,-3.309 -0.437,-3.439 -0.647,-3.538 0.07,-4.645 0.439,-4.897 0.46,-4.292 c 0.054,0.173 0.135,0.351 0.103,0.427 -0.23,0 -0.395,0.119 -0.496,0.357 -0.075,0.343 -0.135,0.344 -0.181,0.002 -0.137,-0.274 -0.289,-0.539 -0.457,-0.795 -0.272,-0.369 0.023,-0.448 0.887,-0.236 -0.082,-0.158 -0.161,0.42 -0.218,0.533 -0.037,0.139 -0.041,0.282 -0.013,0.429 0.221,0.311 -0.02,0.116 -0.722,-0.584 0.212,-0.054 0.423,-0.115 0.631,-0.182 0.767,-0.385 0.788,0.059 0.063,1.333 0.299,0.299 0.598,0.598 0.897,0.897 0.013,0.003 0.026,0.006 0.039,0.009 C 1.934,-2.485 2.875,-2.868 3.816,-3.251 3.969,-3.47 2.888,-4.117 3.043,-3.856 2.821,-4.229 3.164,-4.364 2.604,-4.792 2.446,-4.914 2.131,-4.957 2.01,-5.088 1.957,-5.126 1.9,-5.148 1.836,-5.155 1.479,-5.205 1.677,-5.434 2.429,-5.841 c 0.048,0.026 0.057,0.868 0.068,0.936 0.064,0.384 0.524,0.927 0.027,0.588 C 5.165,-2.514 2.667,1.821 0,0"/>
      </g>
      <g transform="translate(560.0859,974)" id="g-10">
        <path id="path-9" style="fill:#fcf064;fill-opacity:1;fill-rule:nonzero;stroke:none" d="m 0,0 c 1.377,-12.402 1.518,-24.977 0.807,-37.427 -0.508,-8.891 -1.451,-17.789 -3.212,-26.524 -1.641,-8.141 -3.647,-16.167 -4.235,-24.478 -0.517,-7.303 -1.139,-15.563 0.105,-22.815 0.871,-5.074 4.228,-9.22 9.737,-8.854 5.644,0.376 9.21,4.939 11.32,9.746 3.284,7.485 5.699,15.475 8.185,23.254 6.019,18.842 10.787,38.054 14.394,57.5 0.584,3.146 -4.234,4.494 -4.821,1.33 -3.491,-18.819 -8.067,-37.419 -13.816,-55.677 -1.341,-4.258 -2.745,-8.497 -4.207,-12.715 -1.568,-4.522 -2.852,-9.708 -5.337,-13.828 -3.094,-5.13 -9.766,-6.6 -10.675,0.974 -0.505,4.202 -0.242,8.638 -0.194,12.862 0.214,18.494 6.043,36.264 7.455,54.688 C 6.574,-28.029 6.543,-13.901 5,0 4.649,3.163 -0.355,3.199 0,0"/>
      </g>
    </g>
  </g>
  <polygon style="fill: url(#gradient-21);" points="717.31 90.318 739.369 83.661 762.248 80.285 799.471 191.963 740.304 193.845"/>
  <polygon style="fill: rgb(151, 151, 151);" points="816.056 366.921 815.108 366.962 814.202 367.086 813.707 367.333 814.284 367.457 814.902 367.539 815.933 367.581 816.469 367.581 819.065 367.581 819.807 367.581 820.302 367.498 820.631 367.457 820.425 367.292 820.096 367.169 819.601 367.086 818.735 367.004 818.076 367.004 817.417 367.004"/>
  <circle style="fill: rgb(174, 174, 174);" cx="817.069" cy="367.151" r="1.958"/>
  <polygon style="fill: rgb(151, 151, 151);" points="816.139 373.162 815.191 373.203 814.285 373.327 813.79 373.574 814.367 373.698 814.985 373.78 816.016 373.822 816.552 373.822 819.148 373.822 819.89 373.822 820.385 373.739 820.714 373.698 820.508 373.533 820.179 373.41 819.684 373.327 818.818 373.245 818.159 373.245 817.5 373.245"/>
  <circle style="fill: rgb(174, 174, 174);" cx="817.152" cy="373.392" r="1.958"/>
  <polygon style="fill: rgb(151, 151, 151);" points="816.015 379.427 815.067 379.468 814.161 379.592 813.666 379.839 814.243 379.963 814.861 380.045 815.892 380.087 816.428 380.087 819.024 380.087 819.766 380.087 820.261 380.004 820.59 379.963 820.384 379.798 820.055 379.675 819.56 379.592 818.694 379.51 818.035 379.51 817.376 379.51"/>
  <circle style="fill: rgb(174, 174, 174);" cx="817.028" cy="379.657" r="1.958"/>
  <polygon style="fill: rgb(151, 151, 151);" points="816.922 386.087 815.974 386.128 815.068 386.252 814.573 386.499 815.15 386.623 815.768 386.705 816.799 386.747 817.335 386.747 819.931 386.747 820.673 386.747 821.168 386.664 821.497 386.623 821.291 386.458 820.962 386.335 820.467 386.252 819.601 386.17 818.942 386.17 818.283 386.17" transform="matrix(0.994309, -0.106536, 0.106536, 0.994309, -36.511754, 89.349322)"/>
  <polygon style="fill: rgb(151, 151, 151);" points="818.406 392.517 817.458 392.558 816.552 392.682 816.057 392.929 816.634 393.053 817.252 393.135 818.283 393.177 818.819 393.177 821.415 393.177 822.157 393.177 822.652 393.094 822.981 393.053 822.775 392.888 822.446 392.765 821.951 392.682 821.085 392.6 820.426 392.6 819.767 392.6" transform="matrix(0.998817, -0.048636, 0.048636, 0.998817, -18.136725, 40.323182)"/>
  <polygon style="fill: rgb(151, 151, 151);" points="818.653 399.689 817.705 399.73 816.799 399.854 816.304 400.101 816.881 400.225 817.499 400.307 818.53 400.349 819.066 400.349 821.662 400.349 822.404 400.349 822.899 400.266 823.228 400.225 823.022 400.06 822.693 399.937 822.198 399.854 821.332 399.772 820.673 399.772 820.014 399.772" transform="matrix(0.99942, 0.034056, -0.034056, 0.99942, 14.098574, -27.685915)"/>
  <polygon style="fill: rgb(151, 151, 151);" points="817.746 407.273 816.798 407.314 815.892 407.438 815.397 407.685 815.974 407.809 816.592 407.891 817.623 407.933 818.159 407.933 820.755 407.933 821.497 407.933 821.992 407.85 822.321 407.809 822.115 407.644 821.786 407.521 821.291 407.438 820.425 407.356 819.766 407.356 819.107 407.356" transform="matrix(0.988502, 0.151208, -0.151208, 0.988502, 71.048104, -119.131397)"/>
  <polygon style="fill: rgb(151, 151, 151);" points="815.974 414.61 815.026 414.651 814.12 414.775 813.625 415.022 814.202 415.146 814.82 415.228 815.851 415.27 816.387 415.27 818.983 415.27 819.725 415.27 820.22 415.187 820.549 415.146 820.343 414.981 820.014 414.858 819.519 414.775 818.653 414.693 817.994 414.693 817.335 414.693" transform="matrix(0.974545, 0.224194, -0.224194, 0.974545, 113.826294, -172.623404)"/>
  <polygon style="fill: rgb(151, 151, 151);" points="814.16 419.762 813.212 419.803 812.306 419.927 811.811 420.174 812.388 420.298 813.006 420.38 814.037 420.422 814.573 420.422 817.169 420.422 817.911 420.422 818.406 420.339 818.735 420.298 818.529 420.133 818.2 420.01 817.705 419.927 816.839 419.845 816.18 419.845 815.521 419.845" transform="matrix(0.974545, 0.224194, -0.224194, 0.974545, 114.935166, -172.085564)"/>
  <polygon style="fill: rgb(151, 151, 151);" points="813.69 425.549 812.742 425.59 811.836 425.714 811.341 425.961 811.918 426.085 812.536 426.167 813.568 426.209 814.103 426.209 816.699 426.209 817.441 426.209 817.936 426.126 818.266 426.085 818.059 425.92 817.73 425.797 817.235 425.714 816.369 425.632 815.71 425.632 815.051 425.632" transform="matrix(0.986953, 0.161008, -0.161008, 0.986953, 79.2006, -125.633498)"/>
  <circle style="fill: rgb(174, 174, 174);" cx="814.472" cy="425.574" r="1.958" transform="matrix(0.986953, 0.161008, -0.161008, 0.986953, 79.39563, -125.393997)"/>
  <polygon style="fill: rgb(151, 151, 151);" points="813.353 432.159 812.405 432.2 811.499 432.324 811.004 432.571 811.581 432.695 812.199 432.777 813.231 432.819 813.766 432.819 816.362 432.819 817.104 432.819 817.599 432.736 817.929 432.695 817.722 432.53 817.393 432.407 816.898 432.324 816.032 432.242 815.373 432.242 814.714 432.242" transform="matrix(0.999916, 0.012986, -0.012986, 0.999916, 5.684978, -10.540192)"/>
  <circle style="fill: rgb(174, 174, 174);" cx="814.472" cy="425.574" r="1.958" transform="matrix(0.999916, 0.012986, -0.012986, 0.999916, 5.490068, -3.727912)"/>
  <polygon style="fill: url(#gradient-43);" points="757.844 214.196 759.054 218.376 760.869 221.731 764.005 223.767 767.91 225.142 773.19 225.637 777.7 225.692 781.935 225.637 787.05 224.812 790.405 223.327 792.66 221.676 795.025 218.981 795.575 217.441 795.795 215.351 795.63 214.526"/>
  <polygon style="fill: rgb(255, 255, 255);" points="757.657 214.112 796.009 214.336 794.664 217.251 792.421 218.821 785.692 221.064 778.291 221.513 772.46 221.289 766.18 219.943 763.264 218.149 760.797 216.355"/>
  <polygon style="fill: url(#gradient-44);" points="815.1 214.175 816.31 218.355 818.125 221.71 821.261 223.746 825.166 225.121 830.446 225.616 834.956 225.671 839.191 225.616 844.306 224.791 847.661 223.306 849.916 221.655 852.281 218.96 852.831 217.42 853.051 215.33 852.886 214.505"/>
  <polygon style="fill: rgb(255, 255, 255);" points="814.926 213.969 853.278 214.193 851.933 217.108 849.69 218.678 842.961 220.921 835.56 221.37 829.729 221.146 823.449 219.8 820.533 218.006 818.066 216.212"/>
  <polygon style="fill: rgb(75, 75, 75);" points="795.805 213.995 794.426 211.746 789.189 207.569 782.849 205.32 766.219 204.142 762.636 204.249 758.134 205.213 755.654 206.284 754.735 203.714 754.091 202.001 756.481 200.073 760.891 199.645 766.495 199.645 773.478 199.645 784.227 202.964 787.627 204.785 791.027 207.034 795.161 211.103 795.988 211.96"/>
  <polygon style="fill: rgb(75, 75, 75);" points="814.811 213.818 816.609 212.919 821.361 211.378 827.784 210.735 838.573 210.478 847.051 210.735 854.886 212.02 855.528 212.277 855.656 208.937 852.445 208.038 846.408 207.91 840.628 207.524 835.876 207.524 826.884 207.91 820.205 209.836 816.48 211.635"/>
  <polyline style="fill: none;" points="774.088 268.688 776.456 265.206 778.824 262.699 782.445 259.773 785.928 257.545 789.41 255.734 794.146 253.923 804.732 251.973 808.771 251.973 815.736 251.973 823.118 252.809 830.919 254.063 834.819 255.873 837.465 257.684 838.301 259.216 838.858 261.584"/>
  <polyline style="fill: rgb(216, 216, 216);" points="956.141 244.591"/>
  <polyline style="fill: rgb(216, 216, 216);" points="647.203 256.275"/>
  <polygon style="" points="775.903 214.205 782.902 214.205 782.902 214.955 782.652 215.538 782.069 216.121 781.735 216.288 780.414 216.776 779.676 216.977 778.604 217.044 776.995 216.977 776.66 216.843 775.855 216.44 775.252 216.105 774.984 215.904 774.716 215.502 774.381 215.033 774.112 214.765 773.978 214.563 773.643 214.161"/>
  <polygon style="" points="835.025 214.037 842.024 214.037 842.024 214.787 841.774 215.37 841.191 215.953 840.857 216.12 839.536 216.608 838.798 216.809 837.726 216.876 836.117 216.809 835.782 216.675 834.977 216.272 834.374 215.937 834.106 215.736 833.838 215.334 833.503 214.865 833.234 214.597 833.1 214.395 832.765 213.993"/>
  <polyline style="stroke-linecap: round; fill: rgb(250, 205, 208); stroke: rgba(255, 67, 79, 0.66);" points="810.693 212.406 809.994 216.132 810.693 219.16 810.926 221.721 811.857 224.982 813.022 227.078 815.351 231.037 816.515 233.598 817.446 236.16 817.912 237.79 818.145 239.653 818.145 242.215 817.679 245.009 816.981 246.64 815.816 248.037 813.255 249.201 809.994 248.503 809.063 246.872 807.898 245.475 806.035 246.64 802.542 248.037 801.145 247.804 797.652 243.146 798.118 241.749 799.981 239.886"/>
  <polygon style="fill: url(#gradient-40);" points="805.909 279.012 804.103 276.078 802.523 273.369 804.215 267.952 805.006 267.613 809.407 267.387 814.486 267.952 817.195 269.983 817.646 273.481 817.421 275.739 816.405 278.222 816.292 278.447"/>
  <circle style="fill: url(#gradient-42);" cx="747.76" cy="236.114" r="19.449"/>
  <circle style="fill: url(#gradient-41);" cx="864.329" cy="236.958" r="19.449"/>
  <polygon style="fill: url(#gradient-49);" points="835.6339721679688 214.0279998779297 841.1740112304688 214.04400634765625 840.22998046875 216.0709991455078 836.1690063476562 216.50599670410156"/>
  <polygon style="fill: url(#gradient-50);" points="776.705 214.2 782.245 214.216 781.301 216.243 777.24 216.678"/>
  <polyline style="fill: none; stroke: rgba(0, 0, 0, 0.18); stroke-width: 2px; stroke-opacity: 0.32;" points="780.948 494.525 783.695 497.272 786.168 499.607 790.425 501.667 794.683 503.59 798.804 504.964 817.758 506.337 828.746 506.337 834.103 504.964 839.597 501.255 844.129 496.86 845.365 496.036"/>
  <polygon style="fill: rgb(59, 59, 59);" points="829.225 586.99 825.316 591.43 834.676 597.085 841.227 600.017 862.021 602.217 876.264 602.217 881.961 601.483 870.852 598.307 862.876 598.062 852.052 597.33 842.651 594.397 834.676 590.977"/>
  <polygon style="fill: rgb(59, 59, 59);" points="912.714 648.652 905.034 651.328 893.355 653.527 878.258 653.038 866.864 652.794 883.955 655.481 894.21 656.459 906.934 659.255 919.276 652.305"/>
  <polygon style="fill: rgb(59, 59, 59);" points="828.563 664.578 829.629 659.417 833.535 663.239 839.28 665.479 854.164 668.839 874.27 671.302 879.754 671.526 869.831 672.198 858.603 672.198 843.98 671.526 837.713 670.183 832.491 669.286 828.23 666.48"/>
  <polygon style="fill: rgb(59, 59, 59);" points="899.183 688.159 893.594 690.565 886.021 691.461 875.576 691.013 871.659 691.237 874.793 691.909 888.11 693.029 895.683 693.029 899.338 692.805 904.3 692.152"/>
  <polygon style="fill: rgb(59, 59, 59);" points="824.301 629.301 832.752 629.193 849.986 628.297 867.481 623.594 857.297 623.37 849.203 623.37 836.93 622.474 831.239 619.195"/>
  <polygon style="fill: rgb(59, 59, 59);" points="827.79 545.712 848.468 546.691 850.296 546.691 844.029 548.483 835.673 550.051 827.923 550.541"/>
  <polygon style="fill: rgb(216, 216, 216); stroke: rgb(0, 0, 0);" points="584.945 690.928"/>
  <polygon style="fill: rgb(59, 59, 59);" points="908.935 704.301 905.344 705.348 896.205 707.14 886.543 707.14 878.448 706.916 886.543 708.708 896.727 709.155 901.95 709.155 912.656 709.155 914.332 708.81"/>
  <polygon style="fill: url(#gradient-52);" points="907.635 742.548 932.018 740.224 936.834 735.317 934.426 730.928 925.696 724.731 910.043 712.079 898.905 711.304 892.885 721.116 899.507 741.515"/>
  <circle style="fill: rgb(65, 65, 65);" cx="713.66" cy="272.65" r="4.368"/>
  <circle style="fill: rgb(65, 65, 65);" cx="711.632" cy="294.595" r="4.368"/>
  <circle style="fill: rgb(65, 65, 65);" cx="710.178" cy="316.53" r="4.368"/>
  <circle style="fill: rgb(65, 65, 65);" cx="709.816" cy="340.079" r="4.368"/>
  <circle style="fill: rgb(65, 65, 65);" cx="710.903" cy="363.989" r="4.368"/>
  <circle style="fill: rgb(65, 65, 65);" cx="714.344" cy="390.798" r="4.368"/>
  <circle style="fill: rgb(65, 65, 65);" cx="718.692" cy="416.158" r="4.368"/>
  <circle style="fill: rgb(65, 65, 65);" cx="723.945" cy="448.945" r="4.368"/>
  <circle style="fill: rgb(65, 65, 65);" cx="730.466" cy="474.123" r="4.368"/>
  <circle style="fill: rgb(65, 65, 65);" cx="736.806" cy="504.374" r="4.368"/>
  <circle style="fill: rgb(65, 65, 65);" cx="741.697" cy="530.639" r="4.368" transform="matrix(1, 0, 0, 0.857769, 0, 74.614052)"/>
  <circle style="fill: rgb(65, 65, 65);" cx="743.327" cy="563.064" r="4.368" transform="matrix(1, 0, 0, 0.857769, 0, 74.614052)"/>
</svg>