<?xml version="1.0" encoding="utf-8"?>
<svg xmlns="http://www.w3.org/2000/svg" xmlns:bx="https://boxy-svg.com">
  <defs>
    <linearGradient id="gradient-0" gradientUnits="userSpaceOnUse" x1="547.528" y1="395.498" x2="547.528" y2="533.526" gradientTransform="matrix(1, 0, 0, 1, -464.760538, -85.923536)">
      <stop offset="0" style="stop-color: rgba(138, 14, 14, 1)"/>
      <stop offset="1" style="stop-color: rgb(123, 7, 7);"/>
    </linearGradient>
    <linearGradient id="gradient-1" gradientUnits="userSpaceOnUse" x1="606.464" y1="373.257" x2="606.464" y2="487.326" gradientTransform="matrix(0.999767, -0.021609, 0.022762, 1.05311, -473.114847, -92.642476)">
      <stop offset="0" style="stop-color: rgba(223, 223, 223, 1)"/>
      <stop offset="1" style="stop-color: rgb(194, 194, 194);"/>
    </linearGradient>
    <linearGradient id="gradient-2" gradientUnits="userSpaceOnUse" x1="598.554" y1="267.628" x2="598.554" y2="384.48" gradientTransform="matrix(0.999978, -0.006658, 0.005231, 0.785556, -472.258859, -24.547189)">
      <stop offset="0" style="stop-color: rgb(236, 236, 116);"/>
      <stop offset="1" style="stop-color: rgb(172, 172, 51);"/>
    </linearGradient>
    <linearGradient id="gradient-3" gradientUnits="userSpaceOnUse" x1="570.723" y1="215.674" x2="570.723" y2="322.436" gradientTransform="matrix(0.874984, -0.484153, 0.260187, 0.470222, -467.933481, 320.382449)">
      <stop offset="0" style="stop-color: rgb(176, 21, 21);"/>
      <stop offset="1" style="stop-color: rgb(94, 4, 4);"/>
    </linearGradient>
    <linearGradient id="gradient-4" gradientUnits="userSpaceOnUse" x1="692.1" y1="519.279" x2="692.1" y2="576.191" gradientTransform="matrix(0.990046, 0.14075, -0.140831, 0.990612, -383.938608, -165.904859)">
      <stop offset="0" style="stop-color: rgb(226, 226, 226);"/>
      <stop offset="1" style="stop-color: rgba(166, 166, 166, 1)"/>
    </linearGradient>
    <linearGradient id="gradient-5" gradientUnits="userSpaceOnUse" x1="538.898" y1="569.58" x2="538.898" y2="586.538" gradientTransform="matrix(0.998195, -0.060065, 0.063018, 1.047264, -499.681497, -78.070302)">
      <stop offset="0" style="stop-color: rgb(229, 229, 229);"/>
      <stop offset="1" style="stop-color: rgba(166, 166, 166, 1)"/>
    </linearGradient>
    <linearGradient id="gradient-6" gradientUnits="userSpaceOnUse" x1="547.528" y1="395.498" x2="547.528" y2="533.526" gradientTransform="matrix(0.998344, -0.057524, 0.055659, 0.965986, -493.549631, -36.280275)">
      <stop offset="0" style="stop-color: rgb(240, 141, 105);"/>
      <stop offset="1" style="stop-color: rgb(148, 49, 13);"/>
    </linearGradient>
    <linearGradient id="gradient-7" gradientUnits="userSpaceOnUse" x1="649.556" y1="475.919" x2="649.556" y2="600.127" gradientTransform="matrix(0.474642, 0.880178, -0.595609, 0.321182, 193.13146, -312.012143)">
      <stop offset="0" style="stop-color: rgba(255, 203, 203, 1)"/>
      <stop offset="1" style="stop-color: rgb(255, 151, 151);"/>
    </linearGradient>
    <linearGradient id="gradient-8" gradientUnits="userSpaceOnUse" x1="539.123" y1="487.959" x2="539.123" y2="615.336" gradientTransform="matrix(0.924647, -0.380826, 0.182254, 0.442514, -496.681589, 442.287539)">
      <stop offset="0" style="stop-color: rgba(255, 203, 203, 1)"/>
      <stop offset="1" style="stop-color: rgb(255, 142, 142);"/>
    </linearGradient>
    <linearGradient id="gradient-9" gradientUnits="userSpaceOnUse" x1="684.62" y1="345.351" x2="684.62" y2="402.273" gradientTransform="matrix(0.95679, -0.290779, 0.294648, 0.969519, -66.956009, 211.339279)">
      <stop offset="0" style="stop-color: rgba(255, 203, 203, 1)"/>
      <stop offset="1" style="stop-color: rgb(255, 176, 176);"/>
    </linearGradient>
    <linearGradient id="gradient-10" gradientUnits="userSpaceOnUse" x1="748.922" y1="337.948" x2="748.922" y2="361.748" gradientTransform="matrix(0.953948, -0.299971, 0.408753, 1.29989, -98.429565, 125.046928)">
      <stop offset="0" style="stop-color: rgba(255, 203, 203, 1)"/>
      <stop offset="1" style="stop-color: rgb(255, 160, 160);"/>
    </linearGradient>
    <linearGradient id="gradient-11" gradientUnits="userSpaceOnUse" x1="602.662" y1="296.045" x2="602.662" y2="387.097" gradientTransform="matrix(0.991646, -0.126553, 0.135961, 1.025407, -43.46857, 71.928274)">
      <stop offset="0" style="stop-color: rgba(255, 203, 203, 1)"/>
      <stop offset="1" style="stop-color: rgb(255, 175, 175);"/>
    </linearGradient>
    <linearGradient id="gradient-12" gradientUnits="userSpaceOnUse" x1="602.662" y1="296.045" x2="602.662" y2="387.097" gradientTransform="matrix(0.991646, -0.126553, 0.135961, 1.025407, -43.46857, 71.928274)">
      <stop offset="0" style="stop-color: rgba(255, 203, 203, 1)"/>
      <stop offset="1" style="stop-color: rgb(255, 175, 175);"/>
    </linearGradient>
    <linearGradient id="gradient-13" gradientUnits="userSpaceOnUse" x1="1241.43" y1="169.719" x2="1241.43" y2="230.497" gradientTransform="matrix(1, 0, 0, 1, 18.947426, 40.967407)">
      <stop offset="0" style="stop-color: rgba(61, 61, 61, 1)"/>
      <stop offset="1" style="stop-color: rgba(10, 10, 10, 1)"/>
    </linearGradient>
    <linearGradient id="gradient-21" gradientUnits="userSpaceOnUse" x1="1275.234" y1="222.84" x2="1275.234" y2="236.73" gradientTransform="matrix(0.985224, -0.171269, 0.163199, 0.9388, 0.855944, 273.863159)">
      <stop offset="0" style="stop-color: rgba(60, 60, 60, 1)"/>
      <stop offset="1" style="stop-color: rgba(9, 9, 9, 1)"/>
    </linearGradient>
    <linearGradient id="gradient-22" gradientUnits="userSpaceOnUse" x1="1274.265" y1="231.885" x2="1274.265" y2="249.005" gradientTransform="matrix(0.98636, -0.164604, 0.173786, 1.041378, -3.9695, 241.122192)">
      <stop offset="0" style="stop-color: rgba(60, 60, 60, 1)"/>
      <stop offset="1" style="stop-color: rgba(9, 9, 9, 1)"/>
    </linearGradient>
    <linearGradient id="gradient-23" gradientUnits="userSpaceOnUse" x1="1278.307" y1="241.252" x2="1278.307" y2="260.311" gradientTransform="matrix(0.980424, -0.196899, 0.170973, 0.851328, 3.716098, 332.074158)">
      <stop offset="0" style="stop-color: rgba(60, 60, 60, 1)"/>
      <stop offset="1" style="stop-color: rgba(9, 9, 9, 1)"/>
    </linearGradient>
    <linearGradient id="gradient-24" gradientUnits="userSpaceOnUse" x1="1285.795" y1="251.589" x2="1285.795" y2="271.617" gradientTransform="matrix(0.988549, -0.150905, 0.120257, 0.787782, 6.816813, 293.20874)">
      <stop offset="0" style="stop-color: rgba(60, 60, 60, 1)"/>
      <stop offset="1" style="stop-color: rgba(9, 9, 9, 1)"/>
    </linearGradient>
    <linearGradient id="gradient-25" gradientUnits="userSpaceOnUse" x1="1293.969" y1="261.926" x2="1293.969" y2="282.277" gradientTransform="matrix(0.980128, -0.198365, 0.160119, 0.79115, 3.430145, 356.315765)">
      <stop offset="0" style="stop-color: rgba(60, 60, 60, 1)"/>
      <stop offset="1" style="stop-color: rgba(9, 9, 9, 1)"/>
    </linearGradient>
    <linearGradient id="gradient-26" gradientUnits="userSpaceOnUse" x1="1301.399" y1="272.263" x2="1301.399" y2="296.813" gradientTransform="matrix(0.984845, -0.173437, 0.138503, 0.786475, 2.236105, 330.055664)">
      <stop offset="0" style="stop-color: rgba(60, 60, 60, 1)"/>
      <stop offset="1" style="stop-color: rgba(9, 9, 9, 1)"/>
    </linearGradient>
    <linearGradient id="gradient-27" gradientUnits="userSpaceOnUse" x1="1306.406" y1="282.277" x2="1306.406" y2="317.486" gradientTransform="matrix(0.973936, -0.226823, 0.185099, 0.794782, 1.456676, 399.184814)">
      <stop offset="0" style="stop-color: rgba(60, 60, 60, 1)"/>
      <stop offset="1" style="stop-color: rgba(9, 9, 9, 1)"/>
    </linearGradient>
    <linearGradient id="gradient-28" gradientUnits="userSpaceOnUse" x1="1250.159" y1="157.905" x2="1250.159" y2="172.896" gradientTransform="matrix(0.99334, 0.115221, -0.119603, 1.031124, 47.208118, -108.457565)">
      <stop offset="0" style="stop-color: rgb(248, 230, 181);"/>
      <stop offset="1" style="stop-color: rgb(192, 150, 35);"/>
    </linearGradient>
    <linearGradient id="gradient-30" gradientUnits="userSpaceOnUse" x1="1218.043" y1="111.096" x2="1218.043" y2="227.952" gradientTransform="matrix(0.99795, 0.063997, -0.064346, 1.003387, 28.592941, -37.360535)">
      <stop offset="0" style="stop-color: rgb(251, 228, 167);"/>
      <stop offset="1" style="stop-color: rgb(223, 183, 74);"/>
    </linearGradient>
    <linearGradient id="gradient-31" gradientUnits="userSpaceOnUse" x1="1199.646" y1="228.008" x2="1199.646" y2="250.943" gradientTransform="matrix(1, -0.000001, 0, 0.973653, 20.156061, 49.794838)">
      <stop offset="0" style="stop-color: rgb(248, 220, 142);"/>
      <stop offset="1" style="stop-color: rgba(224, 172, 29, 1)"/>
    </linearGradient>
    <linearGradient id="gradient-32" gradientUnits="userSpaceOnUse" x1="1255.045" y1="206.366" x2="1255.045" y2="263.864" gradientTransform="matrix(0.991606, 0.129297, -0.079115, 0.606751, 49.287601, -23.294807)">
      <stop offset="0" style="stop-color: rgb(173, 54, 54);"/>
      <stop offset="1" style="stop-color: rgb(28, 0, 0);"/>
    </linearGradient>
    <linearGradient id="gradient-14" gradientUnits="userSpaceOnUse" x1="1265.245" y1="302.425" x2="1265.245" y2="308.463" gradientTransform="matrix(1, 0, 0, 1, 18.947426, 40.967407)">
      <stop offset="0" style="stop-color: rgba(241, 206, 109, 1)"/>
      <stop offset="1" style="stop-color: rgba(226, 172, 22, 1)"/>
    </linearGradient>
    <linearGradient id="gradient-15" gradientUnits="userSpaceOnUse" x1="1309.923" y1="298.35" x2="1309.923" y2="304.388" gradientTransform="matrix(1, 0, 0, 1, 18.947426, 40.967407)">
      <stop offset="0" style="stop-color: rgba(241, 206, 109, 1)"/>
      <stop offset="1" style="stop-color: rgba(226, 172, 22, 1)"/>
    </linearGradient>
    <linearGradient id="gradient-16" gradientUnits="userSpaceOnUse" x1="1347.356" y1="290.954" x2="1347.356" y2="296.992" gradientTransform="matrix(1, 0, 0, 1, 18.947426, 40.967407)">
      <stop offset="0" style="stop-color: rgba(241, 206, 109, 1)"/>
      <stop offset="1" style="stop-color: rgba(226, 172, 22, 1)"/>
    </linearGradient>
    <linearGradient id="gradient-17" gradientUnits="userSpaceOnUse" x1="1335.885" y1="276.614" x2="1335.885" y2="282.652" gradientTransform="matrix(1, 0, 0, 1, 18.947426, 40.967407)">
      <stop offset="0" style="stop-color: rgba(241, 206, 109, 1)"/>
      <stop offset="1" style="stop-color: rgba(226, 172, 22, 1)"/>
    </linearGradient>
    <linearGradient id="gradient-18" gradientUnits="userSpaceOnUse" x1="1304.942" y1="282.35" x2="1304.942" y2="288.388" gradientTransform="matrix(1, 0, 0, 1, 18.947426, 40.967407)">
      <stop offset="0" style="stop-color: rgba(241, 206, 109, 1)"/>
      <stop offset="1" style="stop-color: rgba(226, 172, 22, 1)"/>
    </linearGradient>
    <linearGradient id="gradient-19" gradientUnits="userSpaceOnUse" x1="1264.641" y1="284.916" x2="1264.641" y2="290.954" gradientTransform="matrix(1, 0, 0, 1, 18.947426, 40.967407)">
      <stop offset="0" style="stop-color: rgba(241, 206, 109, 1)"/>
      <stop offset="1" style="stop-color: rgba(226, 172, 22, 1)"/>
    </linearGradient>
    <linearGradient id="gradient-20" gradientUnits="userSpaceOnUse" x1="1263.509" y1="273.294" x2="1263.509" y2="278.276" gradientTransform="matrix(1, 0, 0, 1, 18.947426, 40.967407)">
      <stop offset="0" style="stop-color: rgba(241, 206, 109, 1)"/>
      <stop offset="1" style="stop-color: rgba(226, 172, 22, 1)"/>
    </linearGradient>
    <linearGradient id="gradient-29" gradientUnits="userSpaceOnUse" x1="1297.093" y1="271.256" x2="1297.093" y2="276.238" gradientTransform="matrix(1, 0, 0, 1, 18.947426, 40.967407)">
      <stop offset="0" style="stop-color: rgba(241, 206, 109, 1)"/>
      <stop offset="1" style="stop-color: rgba(226, 172, 22, 1)"/>
    </linearGradient>
    <linearGradient id="gradient-33" gradientUnits="userSpaceOnUse" x1="1324.564" y1="266.727" x2="1324.564" y2="271.709" gradientTransform="matrix(1, 0, 0, 1, 18.947426, 40.967407)">
      <stop offset="0" style="stop-color: rgba(241, 206, 109, 1)"/>
      <stop offset="1" style="stop-color: rgba(226, 172, 22, 1)"/>
    </linearGradient>
    <linearGradient id="gradient-34" gradientUnits="userSpaceOnUse" x1="1314.3" y1="256.464" x2="1314.3" y2="261.446" gradientTransform="matrix(1, 0, 0, 1, 18.947426, 40.967407)">
      <stop offset="0" style="stop-color: rgba(241, 206, 109, 1)"/>
      <stop offset="1" style="stop-color: rgba(226, 172, 22, 1)"/>
    </linearGradient>
    <linearGradient id="gradient-35" gradientUnits="userSpaceOnUse" x1="1293.47" y1="260.992" x2="1293.47" y2="265.974" gradientTransform="matrix(1, 0, 0, 1, 18.947426, 40.967407)">
      <stop offset="0" style="stop-color: rgba(241, 206, 109, 1)"/>
      <stop offset="1" style="stop-color: rgba(226, 172, 22, 1)"/>
    </linearGradient>
    <linearGradient id="gradient-36" gradientUnits="userSpaceOnUse" x1="1261.32" y1="263.407" x2="1261.32" y2="268.389" gradientTransform="matrix(1, 0, 0, 1, 18.947426, 40.967407)">
      <stop offset="0" style="stop-color: rgba(241, 206, 109, 1)"/>
      <stop offset="1" style="stop-color: rgba(226, 172, 22, 1)"/>
    </linearGradient>
    <linearGradient id="gradient-37" gradientUnits="userSpaceOnUse" x1="1255.585" y1="251.784" x2="1255.585" y2="256.766" gradientTransform="matrix(1, 0, 0, 1, 18.947426, 40.967407)">
      <stop offset="0" style="stop-color: rgba(241, 206, 109, 1)"/>
      <stop offset="1" style="stop-color: rgba(226, 172, 22, 1)"/>
    </linearGradient>
    <linearGradient id="gradient-38" gradientUnits="userSpaceOnUse" x1="1280.942" y1="249.369" x2="1280.942" y2="254.351" gradientTransform="matrix(1, 0, 0, 1, 18.947426, 40.967407)">
      <stop offset="0" style="stop-color: rgba(241, 206, 109, 1)"/>
      <stop offset="1" style="stop-color: rgba(226, 172, 22, 1)"/>
    </linearGradient>
    <linearGradient id="gradient-39" gradientUnits="userSpaceOnUse" x1="1302.829" y1="245.596" x2="1302.829" y2="250.578" gradientTransform="matrix(1, 0, 0, 1, 18.947426, 40.967407)">
      <stop offset="0" style="stop-color: rgba(241, 206, 109, 1)"/>
      <stop offset="1" style="stop-color: rgba(226, 172, 22, 1)"/>
    </linearGradient>
    <linearGradient id="gradient-40" gradientUnits="userSpaceOnUse" x1="1295.433" y1="235.332" x2="1295.433" y2="240.314" gradientTransform="matrix(1, 0, 0, 1, 18.947426, 40.967407)">
      <stop offset="0" style="stop-color: rgba(241, 206, 109, 1)"/>
      <stop offset="1" style="stop-color: rgba(226, 172, 22, 1)"/>
    </linearGradient>
    <linearGradient id="gradient-41" gradientUnits="userSpaceOnUse" x1="1276.867" y1="237.596" x2="1276.867" y2="242.578" gradientTransform="matrix(1, 0, 0, 1, 18.947426, 40.967407)">
      <stop offset="0" style="stop-color: rgba(241, 206, 109, 1)"/>
      <stop offset="1" style="stop-color: rgba(226, 172, 22, 1)"/>
    </linearGradient>
    <linearGradient id="gradient-42" gradientUnits="userSpaceOnUse" x1="1254.83" y1="239.86" x2="1254.83" y2="244.842" gradientTransform="matrix(1, 0, 0, 1, 18.947426, 40.967407)">
      <stop offset="0" style="stop-color: rgba(241, 206, 109, 1)"/>
      <stop offset="1" style="stop-color: rgba(226, 172, 22, 1)"/>
    </linearGradient>
    <linearGradient id="gradient-43" gradientUnits="userSpaceOnUse" x1="1273.54" y1="229.696" x2="1273.54" y2="233.018" gradientTransform="matrix(1, 0, 0, 1, 18.947426, 40.967407)">
      <stop offset="0" style="stop-color: rgba(241, 206, 109, 1)"/>
      <stop offset="1" style="stop-color: rgba(226, 172, 22, 1)"/>
    </linearGradient>
    <linearGradient id="gradient-44" gradientUnits="userSpaceOnUse" x1="1290.891" y1="227.445" x2="1290.891" y2="230.767" gradientTransform="matrix(1, 0, 0, 1, 18.947426, 40.967407)">
      <stop offset="0" style="stop-color: rgba(241, 206, 109, 1)"/>
      <stop offset="1" style="stop-color: rgba(226, 172, 22, 1)"/>
    </linearGradient>
    <linearGradient id="gradient-45" gradientUnits="userSpaceOnUse" x1="1290.891" y1="227.445" x2="1290.891" y2="230.767" gradientTransform="matrix(0.704417, 0, 0, 0.704417, 376.952423, 88.172028)">
      <stop offset="0" style="stop-color: rgba(241, 206, 109, 1)"/>
      <stop offset="1" style="stop-color: rgba(226, 172, 22, 1)"/>
    </linearGradient>
    <linearGradient id="gradient-46" gradientUnits="userSpaceOnUse" x1="1290.891" y1="227.445" x2="1290.891" y2="230.767" gradientTransform="matrix(0.704417, 0, 0, 0.704417, 389.446869, 100.465324)">
      <stop offset="0" style="stop-color: rgba(241, 206, 109, 1)"/>
      <stop offset="1" style="stop-color: rgba(226, 172, 22, 1)"/>
    </linearGradient>
    <linearGradient id="gradient-47" gradientUnits="userSpaceOnUse" x1="1290.891" y1="227.445" x2="1290.891" y2="230.767" gradientTransform="matrix(0.704417, 0, 0, 0.704417, 381.765106, 104.046799)">
      <stop offset="0" style="stop-color: rgba(241, 206, 109, 1)"/>
      <stop offset="1" style="stop-color: rgba(226, 172, 22, 1)"/>
    </linearGradient>
    <linearGradient id="gradient-48" gradientUnits="userSpaceOnUse" x1="1290.891" y1="227.445" x2="1290.891" y2="230.767" gradientTransform="matrix(0.704417, 0, 0, 0.704417, 374.371704, 108.263344)">
      <stop offset="0" style="stop-color: rgba(241, 206, 109, 1)"/>
      <stop offset="1" style="stop-color: rgba(226, 172, 22, 1)"/>
    </linearGradient>
    <linearGradient id="gradient-49" gradientUnits="userSpaceOnUse" x1="1290.891" y1="227.445" x2="1290.891" y2="230.767" gradientTransform="matrix(0.704417, 0, 0, 0.704417, 367.209351, 112.133316)">
      <stop offset="0" style="stop-color: rgba(241, 206, 109, 1)"/>
      <stop offset="1" style="stop-color: rgba(226, 172, 22, 1)"/>
    </linearGradient>
    <linearGradient id="gradient-50" gradientUnits="userSpaceOnUse" x1="1290.891" y1="227.445" x2="1290.891" y2="230.767" gradientTransform="matrix(0.704417, 0, 0, 0.704417, 360.682373, 116.349861)">
      <stop offset="0" style="stop-color: rgba(241, 206, 109, 1)"/>
      <stop offset="1" style="stop-color: rgba(226, 172, 22, 1)"/>
    </linearGradient>
    <linearGradient id="gradient-51" gradientUnits="userSpaceOnUse" x1="1290.891" y1="227.445" x2="1290.891" y2="230.767" gradientTransform="matrix(0.704417, 0, 0, 0.704417, 355.945984, 121.779381)">
      <stop offset="0" style="stop-color: rgba(241, 206, 109, 1)"/>
      <stop offset="1" style="stop-color: rgba(226, 172, 22, 1)"/>
    </linearGradient>
    <linearGradient id="gradient-52" gradientUnits="userSpaceOnUse" x1="1290.891" y1="227.445" x2="1290.891" y2="230.767" gradientTransform="matrix(0.704417, 0, 0, 0.704417, 353.115692, 128.075317)">
      <stop offset="0" style="stop-color: rgba(241, 206, 109, 1)"/>
      <stop offset="1" style="stop-color: rgba(226, 172, 22, 1)"/>
    </linearGradient>
    <linearGradient id="gradient-53" gradientUnits="userSpaceOnUse" x1="1290.891" y1="227.445" x2="1290.891" y2="230.767" gradientTransform="matrix(0.704417, 0, 0, 0.704417, 383.093597, 93.823128)">
      <stop offset="0" style="stop-color: rgba(241, 206, 109, 1)"/>
      <stop offset="1" style="stop-color: rgba(226, 172, 22, 1)"/>
    </linearGradient>
    <linearGradient id="gradient-54" gradientUnits="userSpaceOnUse" x1="1290.891" y1="227.445" x2="1290.891" y2="230.767" gradientTransform="matrix(0.704417, 0, 0, 0.704417, 368.480103, 90.877319)">
      <stop offset="0" style="stop-color: rgba(241, 206, 109, 1)"/>
      <stop offset="1" style="stop-color: rgba(226, 172, 22, 1)"/>
    </linearGradient>
    <linearGradient id="gradient-55" gradientUnits="userSpaceOnUse" x1="1290.891" y1="227.445" x2="1290.891" y2="230.767" gradientTransform="matrix(0.704417, 0, 0, 0.704417, 359.411621, 94.920586)">
      <stop offset="0" style="stop-color: rgba(241, 206, 109, 1)"/>
      <stop offset="1" style="stop-color: rgba(226, 172, 22, 1)"/>
    </linearGradient>
    <linearGradient id="gradient-56" gradientUnits="userSpaceOnUse" x1="1290.891" y1="227.445" x2="1290.891" y2="230.767" gradientTransform="matrix(0.704417, 0, 0, 0.704417, 353.577789, 98.617271)">
      <stop offset="0" style="stop-color: rgba(241, 206, 109, 1)"/>
      <stop offset="1" style="stop-color: rgba(226, 172, 22, 1)"/>
    </linearGradient>
    <linearGradient id="gradient-57" gradientUnits="userSpaceOnUse" x1="1290.891" y1="227.445" x2="1290.891" y2="230.767" gradientTransform="matrix(0.704417, 0, 0, 0.704417, 347.801697, 102.776054)">
      <stop offset="0" style="stop-color: rgba(241, 206, 109, 1)"/>
      <stop offset="1" style="stop-color: rgba(226, 172, 22, 1)"/>
    </linearGradient>
    <linearGradient id="gradient-58" gradientUnits="userSpaceOnUse" x1="1290.891" y1="227.445" x2="1290.891" y2="230.767" gradientTransform="matrix(0.704417, 0, 0, 0.704417, 342.198883, 106.703796)">
      <stop offset="0" style="stop-color: rgba(241, 206, 109, 1)"/>
      <stop offset="1" style="stop-color: rgba(226, 172, 22, 1)"/>
    </linearGradient>
    <linearGradient id="gradient-59" gradientUnits="userSpaceOnUse" x1="1290.891" y1="227.445" x2="1290.891" y2="230.767" gradientTransform="matrix(0.704417, 0, 0, 0.704417, 339.65741, 111.324669)">
      <stop offset="0" style="stop-color: rgba(241, 206, 109, 1)"/>
      <stop offset="1" style="stop-color: rgba(226, 172, 22, 1)"/>
    </linearGradient>
    <linearGradient id="gradient-60" gradientUnits="userSpaceOnUse" x1="1290.891" y1="227.445" x2="1290.891" y2="230.767" gradientTransform="matrix(0.704417, 0, 0, 0.704417, 338.559967, 117.21627)">
      <stop offset="0" style="stop-color: rgba(241, 206, 109, 1)"/>
      <stop offset="1" style="stop-color: rgba(226, 172, 22, 1)"/>
    </linearGradient>
    <linearGradient id="gradient-61" gradientUnits="userSpaceOnUse" x1="1303.917" y1="314.251" x2="1303.917" y2="390.086" gradientTransform="matrix(0.999856, -0.016955, 0.018192, 1.072767, 122.832214, 2.129011)">
      <stop offset="0" style="stop-color: rgb(141, 68, 60);"/>
      <stop offset="1" style="stop-color: rgb(47, 18, 14);"/>
    </linearGradient>
    <linearGradient id="gradient-62" gradientUnits="userSpaceOnUse" x1="544.519" y1="416.721" x2="544.519" y2="500.868" gradientTransform="matrix(1, 0, 0, 1, -464.764676, -85.923414)">
      <stop offset="0" style="stop-color: rgba(216, 216, 216, 1)"/>
      <stop offset="1" style="stop-color: rgba(165, 165, 165, 1)"/>
    </linearGradient>
    <linearGradient id="gradient-63" gradientUnits="userSpaceOnUse" x1="1051.136" y1="1227.859" x2="1051.136" y2="1269.079" gradientTransform="matrix(0.803734, -0.59499, 0.320572, 0.433039, -191.572525, 1332.374268)">
      <stop offset="0" style="stop-color: rgba(196, 169, 71, 1)"/>
      <stop offset="1" style="stop-color: rgba(125, 107, 40, 1)"/>
    </linearGradient>
    <linearGradient id="gradient-64" gradientUnits="userSpaceOnUse" x1="1045.045" y1="1228.486" x2="1045.045" y2="1256.943" gradientTransform="matrix(0.748072, -0.663618, 0.34922, 0.393663, -168.356247, 1448.434326)">
      <stop offset="0" style="stop-color: rgba(196, 169, 71, 1)"/>
      <stop offset="1" style="stop-color: rgba(125, 107, 40, 1)"/>
    </linearGradient>
    <radialGradient id="gradient-65" gradientUnits="userSpaceOnUse" cx="704.618" cy="316.991" r="30.553" gradientTransform="matrix(0.244709, 0, 0, 0.244709, 561.008545, 281.778656)">
      <stop offset="0" style="stop-color: rgba(221, 76, 76, 0.48);"/>
      <stop offset="1" style="stop-color: rgba(165, 165, 165, 0);"/>
    </radialGradient>
    <radialGradient id="gradient-66" gradientUnits="userSpaceOnUse" cx="704.618" cy="316.991" r="30.553" gradientTransform="matrix(0.288753, 0, 0, 0.288753, -30.730839, 163.417987)">
      <stop offset="0" style="stop-color: rgba(221, 76, 76, 0.48);"/>
      <stop offset="1" style="stop-color: rgba(165, 165, 165, 0);"/>
    </radialGradient>
    <radialGradient id="gradient-67" gradientUnits="userSpaceOnUse" cx="704.618" cy="316.991" r="30.553" gradientTransform="matrix(0.221851, 0, 0, 0.221851, 526.405579, 317.157318)">
      <stop offset="0" style="stop-color: rgba(221, 76, 76, 0.48);"/>
      <stop offset="1" style="stop-color: rgba(165, 165, 165, 0);"/>
    </radialGradient>
    <radialGradient id="gradient-68" gradientUnits="userSpaceOnUse" cx="704.618" cy="316.991" r="30.553" gradientTransform="matrix(0.221851, 0, 0, 0.221851, 31.513697, 357.908328)">
      <stop offset="0" style="stop-color: rgba(221, 76, 76, 0.48);"/>
      <stop offset="1" style="stop-color: rgba(165, 165, 165, 0);"/>
    </radialGradient>
    <radialGradient id="gradient-69" gradientUnits="userSpaceOnUse" cx="704.618" cy="316.991" r="30.553" gradientTransform="matrix(0.221851, 0, 0, 0.221851, -31.285434, 399.335147)">
      <stop offset="0" style="stop-color: rgba(221, 76, 76, 0.48);"/>
      <stop offset="1" style="stop-color: rgba(165, 165, 165, 0);"/>
    </radialGradient>
    <linearGradient id="gradient-70" gradientUnits="userSpaceOnUse" x1="1064.64" y1="363.123" x2="1064.64" y2="427.214" gradientTransform="matrix(0.8494, -0.191751, 0.188774, 0.836211, -415.919107, 182.302752)">
      <stop offset="0" style="stop-color: rgba(86, 86, 86, 1)"/>
      <stop offset="1" style="stop-color: rgba(35, 35, 35, 1)"/>
    </linearGradient>
  </defs>
  <polyline style="fill: none; stroke: rgb(95, 13, 13);" points="974.548 396.027"/>
  <polygon style="fill: url(#gradient-8);" points="134.733 414.71 140.101 451.309 138.307 470.954 124.259 485.087 84.385 493.938 32.491 500.489 30.697 506.156 33.531 518.268 35.874 529.412 29.537 529.412 20.665 524.342 16.229 514.836 9.891 498.36 8.624 485.052 17.496 480.616 25.101 481.25 38.409 479.348 49.182 473.011 60.589 469.843 71.362 468.575 82.769 468.575 96.076 469.209 107.448 464.261 99.879 457.168 93.542 444.494 91.641 428.651 94.175 407.105 97.344 402.035"/>
  <g transform="matrix(0.753399, -0.436623, 0.436623, 0.753399, -420.569824, 441.982819)" id="samuraiArm" style="">
    <polygon style="fill: rgb(86, 86, 86);" points="1000.209 409.252 979.681 409.252 970.832 407.836 968.355 406.421 964.461 403.235 961.63 400.05 959.506 392.971 958.444 387.308 958.09 380.937 958.798 375.982 961.276 373.15 970.832 372.089 983.574 372.089 996.316 372.089 1001.271 373.15 1005.872 376.336 1007.996 378.459"/>
    <polygon style="fill: rgb(108, 25, 28);" points="886.562 365.393 923.775 361.151 944.688 370.675 971.937 387.527 994.684 405.138 997.92 405.111 1006.792 404.38 1008.059 394.122 1005.524 388.26 995.147 382.321 967.875 359.607 945.955 347.962 930.746 343.565 907.635 342.256 879.2 339.325" transform="matrix(-1, 0, 0, -1, 1887.259033, 744.463013)"/>
    <polyline style="fill: none; stroke: rgb(95, 13, 13);" points="994.89 400.364 985.915 400.215 969.164 399.168 958.096 398.121 947.327 395.13 937.904 392.138 933.866 390.942"/>
    <polyline style="fill: none; stroke: rgb(95, 13, 13);" points="998.03 397.074 986.065 396.476 972.903 395.429 964.826 394.083 954.805 391.39 945.682 388.848 934.314 385.258 928.481 383.314"/>
    <polyline style="fill: none; stroke: rgb(95, 13, 13);" points="999.526 391.54 987.411 391.241 976.792 389.895 966.92 388.698 958.993 386.604 948.075 383.463 939.848 380.173 935.96 378.378"/>
    <polyline style="fill: none; stroke: rgb(95, 13, 13);" points="1002.218 383.164 994.142 384.51 980.232 384.959 970.211 385.258 961.685 384.959 952.711 380.472 948.374 378.528 941.494 376.434"/>
    <g transform="matrix(0.284303, 0.340781, -0.340781, 0.284303, 1007.147644, -406.676697)" style="">
      <polygon style="fill: rgb(48, 48, 48);" points="1043.758 1260.454 1072.538 1291.32 1141.359 1361.809 1199.753 1418.952 1203.507 1423.123 1219.93 1409.567 1223.11 1404.353 1145.947 1328.024 1111.745 1292.154 1067.272 1248.62 1062.527 1244.188"/>
      <polygon style="fill: rgb(196, 169, 71);" points="1043.53 1260.727 1052.582 1252.969 1062.256 1243.71 1067.576 1248.833 1061.63 1253.745 1047.666 1264.865"/>
      <polygon style="fill: rgb(196, 169, 71);" points="1203.666 1423.395 1211.574 1416.356 1219.542 1410.149 1223.466 1404.464 1218.295 1399.552 1215.826 1405.637 1207.029 1414.236 1199.682 1419.2"/>
      <polygon style="fill: url(#gradient-63);" points="1038.895 1252.968 1035.129 1256.734 1031.363 1261.337 1029.479 1265.941 1030.735 1269.079 1037.849 1267.196 1047.893 1259.036 1062.331 1245.435 1069.236 1236.856 1072.793 1229.742 1069.654 1228.068 1067.562 1227.859 1064.423 1229.742 1056.681 1234.345"/>
      <polygon style="fill: url(#gradient-64);" points="1031.318 1245.345 1037.849 1238.948 1044.336 1232.671 1047.893 1228.486 1058.773 1239.995 1055.426 1247.527 1049.148 1252.758 1043.29 1256.943 1035.338 1250.457"/>
      <polygon style="fill: rgb(216, 216, 216);" points="1047.101 1229.464 1015.361 1197.347 968.508 1145.203 926.188 1096.838 887.647 1051.118 834.748 981.215 787.894 918.114 762.956 883.352 727.438 831.208 708.545 803.247 704.767 812.315 706.656 831.964 755.399 906.023 837.393 1016.733 900.872 1097.594 945.459 1148.604 988.912 1197.347 1032.743 1244.201"/>
      <polygon style="fill: rgb(230, 230, 230);" points="1037.583 1239.13 1012.848 1212.897 964.313 1159.772 926.196 1116.59 883.733 1064.847 830.413 997.745 786.641 938.006 755.96 896.8 712.177 826.025 708.413 802.967 704.635 812.035 706.524 831.684 755.267 905.743 837.261 1016.453 900.74 1097.314 945.327 1148.324 988.78 1197.067 1032.611 1243.921"/>
      <polygon style="fill: rgb(67, 67, 67);" points="1196.376 1409.312 1206.092 1406.348 1210.259 1397.286 1200.406 1400.177" transform="matrix(0.998455, -0.055571, 0.055571, 0.998455, -76.123263, 69.037997)"/>
      <polygon style="fill: rgb(67, 67, 67);" points="1187.116 1401.442 1196.832 1398.476 1200.999 1389.414 1191.146 1392.306" transform="matrix(0.998455, -0.055571, 0.055571, 0.998455, -75.700171, 68.511246)"/>
      <polygon style="fill: rgb(67, 67, 67);" points="1177.806 1392.369 1187.521 1389.405 1191.687 1380.343 1181.835 1383.234" transform="matrix(0.998455, -0.055571, 0.055571, 0.998455, -75.210421, 67.979808)"/>
      <polygon style="fill: rgb(67, 67, 67);" points="1168.613 1382.819 1178.329 1379.854 1182.495 1370.792 1172.643 1373.684" transform="matrix(0.998455, -0.055571, 0.055571, 0.998455, -74.693893, 67.454213)"/>
      <polygon style="fill: rgb(67, 67, 67);" points="1158.858 1373.397 1168.574 1370.432 1172.74 1361.37 1162.888 1364.262" transform="matrix(0.999587, -0.028742, 0.028742, 0.999587, -38.8197, 34.07231)"/>
      <polygon style="fill: rgb(67, 67, 67);" points="1149.812 1365.281 1159.528 1362.315 1163.694 1353.253 1153.843 1356.146" transform="matrix(0.999587, -0.028742, 0.028742, 0.999587, -38.590154, 33.808956)"/>
      <polygon style="fill: rgb(67, 67, 67);" points="1140.748 1355.962 1150.464 1352.997 1154.63 1343.935 1144.778 1346.827" transform="matrix(0.999587, -0.028742, 0.028742, 0.999587, -38.326067, 33.544589)"/>
      <polygon style="fill: rgb(67, 67, 67);" points="1131.816 1346.168 1141.532 1343.203 1145.698 1334.142 1135.846 1337.033" transform="matrix(0.999587, -0.028742, 0.028742, 0.999587, -38.04827, 33.28382)"/>
      <polygon style="fill: rgb(67, 67, 67);" points="1122.807 1336.39 1132.523 1333.425 1136.689 1324.363 1126.837 1327.255" transform="matrix(0.999587, -0.028742, 0.028742, 0.999587, -37.77094, 33.020842)"/>
      <polygon style="fill: rgb(67, 67, 67);" points="1113.761 1328.274 1123.477 1325.308 1127.643 1316.246 1117.792 1319.139" transform="matrix(0.999587, -0.028742, 0.028742, 0.999587, -37.541392, 32.757488)"/>
      <polygon style="fill: rgb(67, 67, 67);" points="1104.697 1318.955 1114.413 1315.99 1118.579 1306.928 1108.727 1309.82" transform="matrix(0.999587, -0.028742, 0.028742, 0.999587, -37.277303, 32.493122)"/>
      <polygon style="fill: rgb(67, 67, 67);" points="1095.765 1309.161 1105.481 1306.196 1109.647 1297.135 1099.795 1300.026" transform="matrix(0.999587, -0.028742, 0.028742, 0.999587, -36.99951, 32.232352)"/>
      <polygon style="fill: rgb(67, 67, 67);" points="1085.803 1299.624 1095.519 1296.659 1099.685 1287.597 1089.833 1290.489" transform="matrix(0.999587, -0.028742, 0.028742, 0.999587, -36.7295, 31.942085)"/>
      <polygon style="fill: rgb(67, 67, 67);" points="1076.757 1291.508 1086.473 1288.542 1090.639 1279.48 1080.788 1282.373" transform="matrix(0.999587, -0.028742, 0.028742, 0.999587, -36.499952, 31.678731)"/>
      <polygon style="fill: rgb(67, 67, 67);" points="1067.693 1282.189 1077.409 1279.224 1081.575 1270.162 1071.723 1273.054" transform="matrix(0.999587, -0.028742, 0.028742, 0.999587, -36.235863, 31.414363)"/>
      <polygon style="fill: rgb(67, 67, 67);" points="1058.761 1272.395 1068.477 1269.43 1072.643 1260.369 1062.791 1263.26" transform="matrix(0.999587, -0.028742, 0.028742, 0.999587, -35.95807, 31.153593)"/>
    </g>
    <polygon style="fill: rgb(108, 25, 28);" points="878.593 325.65 895.53 339.595 899.629 334.128 911.149 334.365 912.837 329.359 910.391 326.179 914.305 325.12 914.305 320.35 909.413 319.821 913.326 316.111 910.833 312.127 883.995 310.241" transform="matrix(-0.931046, -0.364901, 0.364901, -0.931046, 1596.924598, 970.562339)" bx:origin="0.324 0.823"/>
    <polygon style="fill: rgb(51, 0, 0);" points="901.867 349.028 901.317 355.755 906.832 364.421 914.71 369.542 925.74 375.057 930.861 377.814 937.164 380.571 946.618 378.208 945.436 374.663 940.709 370.723 935.982 368.36 921.407 360.088 917.074 356.148 908.408 350.24 906.126 347.981"/>
    <polygon style="fill: rgb(51, 0, 0);" points="904.075 359.3 898.56 358.118 893.045 359.694 894.621 367.178 900.529 373.087 913.923 383.329 925.74 391.601 933.225 395.54 942.679 396.328 943.86 391.207 943.466 386.874 939.921 381.359 939.133 380.177 935.982 378.208"/>
  </g>
  <polygon style="fill: url(#gradient-7);" points="166.42 389.995 195.57 403.937 228.665 420.592 234.895 433.102 227.817 459.91 223.504 490.613 232.959 500.261 242.022 505.366 247.534 512.935 236.761 514.203 209.511 506.598 198.739 503.43 195.676 498.325 206.713 485.28 205.267 467.643 206.236 451.8 210.252 437.153 197.506 435.764 186.961 435.43 167.686 431.186 153.111 426.117 135.367 415.343 128.396 411.541 122.059 405.838"/>
  <polygon style="fill: rgb(144, 8, 8);" points="88.121 425.499 85.957 457.954 101.103 457.088 96.776 423.335"/>
  <polygon style="fill: rgb(144, 8, 8);" points="98.939 426.364 103.267 446.27 104.998 451.895 111.056 458.819 116.249 457.088 111.056 448.001 107.594 427.23 105.43 425.931"/>
  <polygon style="fill: rgb(144, 8, 8);" points="109.325 422.902 114.95 446.27 118.412 451.463 121.874 454.492 124.471 454.492 120.576 446.703 117.547 439.779 115.383 431.557 114.518 425.066"/>
  <polygon style="fill: rgb(144, 8, 8);" points="119.278 424.2 117.547 436.317 121.009 444.539 124.903 450.597 127.067 454.924 130.962 454.059 131.394 445.837 129.231 432.855 126.634 427.23 123.172 421.604 123.172 421.171 122.307 420.306"/>
  <polygon style="fill: rgb(144, 8, 8);" points="127.932 420.306 131.827 435.019 133.991 445.404 135.289 452.761 139.183 452.328 139.616 443.241 138.751 432.422 133.991 422.47 130.962 415.979 130.962 415.546"/>
  <polygon style="fill: rgb(144, 8, 8);" points="133.991 409.055 138.318 421.171 140.914 426.364 143.511 434.586 144.809 447.135 144.809 451.463 147.405 451.463 150.867 446.27 150.434 435.451 149.136 427.662 146.54 417.71 143.943 410.786 140.482 404.728 139.183 402.997"/>
  <polygon style="fill: rgb(144, 8, 8);" points="138.852 400.146 141.881 409.233 146.642 416.59 149.67 428.706 150.103 439.092 149.67 445.15 150.103 449.477 157.892 450.343 160.489 446.015 159.623 432.168 158.324 425.677 154.864 416.157 152.267 406.204 146.208 396.251 144.045 395.386 142.313 395.386"/>
  <polygon style="fill: rgb(144, 8, 8);" points="150.332 394.546 155.092 394.113 158.123 397.142 160.285 403.633 163.748 412.721 165.479 424.404 166.344 435.223 168.074 443.445 167.642 444.743 162.449 445.176 161.151 445.176 159.42 439.55 157.69 424.837 157.256 418.779 154.66 410.99" transform="matrix(0.989888, -0.141852, 0.141852, 0.989888, -57.917515, 26.826752)"/>
  <polygon style="fill: rgb(144, 8, 8);" points="156.57 394.903 160.897 391.442 165.225 392.74 167.821 398.798 170.85 407.02 172.581 413.944 172.581 420.867 173.879 429.089 175.177 438.177 175.177 443.369 174.745 444.668 170.417 442.937 168.686 442.071 166.955 439.042 166.955 428.657 165.225 420.002 163.061 410.049 161.33 405.289 160.032 401.827" transform="matrix(0.987098, -0.160118, 0.160118, 0.987098, -64.797996, 31.953121)"/>
  <polygon style="fill: rgb(144, 8, 8);" points="166.013 393.477 168.609 390.447 172.071 391.746 178.562 395.207 184.62 399.102 189.38 401.266 196.304 405.16 201.497 406.458 207.989 409.055 211.45 411.219 209.286 415.113 204.526 414.68 198.468 412.084 194.573 410.353 183.323 405.593 170.34 400.4 167.311 398.237 160.82 393.477"/>
  <polygon style="fill: rgb(144, 8, 8);" points="165.147 396.506 170.773 400.4 177.264 406.026 190.246 411.651 200.631 416.411 207.122 418.575 206.69 420.306 204.959 423.335 202.362 425.499 198.035 424.2 191.545 420.739 185.918 418.142 177.698 414.68 172.071 411.651 166.879 408.622 158.657 402.564 151.3 396.938 149.569 395.64 157.358 390.88"/>
  <g transform="matrix(0.970987, 0.239135, -0.239135, 0.970987, -343.842194, -224.409164)" id="spartanArm">
    <polygon style="fill: url(#gradient-9);" points="632.771 381.467 669.984 385.136 690.897 376.898 718.146 362.323 740.893 347.091 744.129 347.114 753.001 347.747 754.268 356.619 751.733 361.689 741.356 366.826 714.084 386.471 692.164 396.543 676.955 400.346 653.844 401.478 625.409 404.013"/>
    <g transform="matrix(-0.58262, -0.876927, 0.850455, -0.565032, 891.003113, 1295.59436)" style="">
      <g transform="matrix(-0.881388, -0.165289, -0.165289, 0.881388, 756.147278, 393.240967)" style="">
        <polygon style="fill: rgb(165, 165, 165);" points="-196.603 65.548 -185.715 54.367 -174.533 46.127 -154.818 33.18 -131.278 21.41 -120.979 17.879 -98.321 8.463 -83.587 3.671 -77.662 7.685 -75.119 12.594 -74.401 16.454 -76.669 17.186 -81.843 16.113 -85.668 15.525 -94.496 18.467 -99.498 20.527 -115.682 26.707 -124.804 31.12 -131.572 34.357 -134.515 37.888 -143.637 46.127 -151.581 51.718 -160.115 57.309 -170.414 59.369 -195.425 65.549"/>
        <polygon style="fill: rgb(229, 229, 229);" points="-196.532 65.577 -181.106 58.267 -163.25 54.431 -147.94 44.821 -132.408 31.316 -116.77 24.448 -93.045 15.7 -84.05 13.043 -77.724 14.388 -77.184 8.218 -74.33 16.483 -76.598 17.215 -81.772 16.142 -85.597 15.554 -94.425 18.496 -99.427 20.556 -115.611 26.736 -124.733 31.149 -131.501 34.386 -134.444 37.917 -143.566 46.156 -151.51 51.747 -160.044 57.338 -170.343 59.398 -195.354 65.578"/>
        <polygon style="fill: rgb(75, 75, 75);" points="-83.941 3.836 -69.426 -2.55 -57.621 -7.389 -52.395 -6.808 -48.331 -3.905 -47.557 -0.034 -46.202 5.191 -48.138 8.868 -50.847 10.223 -53.75 7.32 -54.718 4.997 -53.944 2.675 -53.75 0.159 -54.137 -1.389 -56.266 -1.196 -61.878 2.094 -66.717 4.61 -71.748 4.804 -73.877 8.094 -73.684 11.964 -72.716 13.706 -69.039 12.932 -71.168 16.222 -74.264 16.803 -76.2 11.577 -78.135 7.9 -83.167 4.03"/>
        <polygon style="fill: rgb(216, 216, 216);" points="-74.473 -0.384 -71.776 4.862 -66.572 4.694 -61.84 2.091 -56.513 -1 -59.115 -6.886 -67.516 -3.394"/>
      </g>
    </g>
    <polygon style="fill: url(#gradient-10);" points="738.345 350.072 753.924 339.687 756.953 343.149 764.742 340.985 768.637 347.043 766.473 349.64 769.935 350.505 769.935 354.4 765.608 354.832 769.069 357.862 768.637 361.756 745.702 363.487" transform="matrix(0.990836, 0.135068, -0.135068, 0.990836, 54.398861, -98.638381)"/>
    <circle style="fill: url(#gradient-65); fill-opacity: 0.58;" cx="733.434" cy="359.349" r="7.476"/>
    <circle style="fill: url(#gradient-67);" cx="682.726" cy="387.482" r="6.778"/>
  </g>
  <polygon style="fill: rgb(144, 8, 8);" points="165.902 294.085 170.849 293.895 180.553 294.276 186.071 293.895 190.067 293.895 186.071 300.174 183.978 302.077 178.841 306.454 176.557 311.02 176.177 314.826 176.177 316.919 175.416 319.583 173.323 321.866 170.659 323.769"/>
  <polygon style="fill: url(#gradient-1);" points="163.884 287.333 177.949 325.21 175.206 341.655 171.489 362.745 170.221 383.658 169.587 391.896 153.744 399.501 132.198 401.402 123.326 401.402 103.047 294.304"/>
  <circle style="fill: url(#gradient-11);" cx="602.662" cy="341.571" r="45.526" transform="matrix(0.981069, 0, 0, 1, -454.213287, -85.923531)"/>
  <polygon style="fill: rgb(255, 185, 185);" points="92.908 300.008 75.164 321.554 68.193 368.449 87.838 373.518 110.018 320.286 111.286 294.304"/>
  <polygon style="fill: rgb(144, 8, 8);" points="110.721 311.782 104.061 306.263 97.972 302.838 93.215 301.506 88.838 300.555 93.405 297.32 99.304 295.417 107.105 294.847 111.482 294.847 112.814 295.227 114.146 295.988"/>
  <polygon style="fill: url(#gradient-3);" points="154.324 188.988 155.662 182.964 157.336 169.911 158.005 161.544 160.013 154.851 165.703 143.472 170.053 137.783 170.388 137.113 155.662 130.754 152.316 130.085 145.622 129.75 133.574 129.75 124.538 130.085 117.844 130.085 107.804 131.424 95.086 133.766 84.377 138.117 73.667 144.476 63.627 152.843 55.594 162.883 48.566 174.931 44.885 185.306 42.877 195.681 41.873 206.391 41.538 215.093 43.546 227.476 45.889 232.83 48.901 236.512 56.598 233.834 62.288 227.81 65.3 224.129 68.981 220.782 71.659 218.774 76.679 217.101 79.356 216.097 87.389 215.427"/>
  <path d="M 177.115 272.688 C 175.312 270.885 165.066 271.653 165.066 274.194" style="stroke: rgb(0, 0, 0); fill: none; stroke-linecap: round;"/>
  <polygon style="fill: url(#gradient-2);" points="170.221 239.171 158.18 228.398 139.803 227.13 132.198 233.468 138.535 239.805 155.646 245.508 165.151 246.776 166.42 255.014 181.782 291.615 82.969 298.556 91.964 260.873 90.404 247.982 86.571 237.27 85.303 228.398 85.303 213.822 92.768 195.646 110.482 184.038 131.718 181.704 154.609 187.779 167.052 197.98 175.924 215.724 177.826 226.497 179.55 233.756 180.751 242.385 184.619 260.56"/>
  <circle style="stroke-width: 6px; fill: url(#gradient-0); stroke: url(#gradient-6);" cx="82.768" cy="378.588" r="69.014"/>
  <polygon style="fill: url(#gradient-62);" points="37.881 414.051 38.155 408.974 45.406 408.367 78.151 336.553 72.592 336.598 72.385 331.394 93.108 330.798 93.146 335.896 87.208 336.278 116.08 409.463 121.013 409.463 121.629 414.671 105.719 414.945 105.379 409.737 110.577 410.011 82.362 340.938 50.34 408.367 57.478 408.092 57.46 413.589" transform="matrix(0.996271, -0.086283, 0.086283, 0.996271, -31.875037, 8.272062)"/>
  <polygon style="fill: rgb(123, 40, 12);" points="46.514 492.477 39.078 479.419 44.7 475.611 51.773 491.207"/>
  <polygon style="fill: rgb(123, 40, 12);" points="80.608 486.129 81.333 468.719 88.95 469.082 86.955 485.585"/>
  <polygon style="fill: url(#gradient-5);" points="33.898 500.614 32.461 498.602 34.761 495.153 37.922 493.141 45.683 489.404 54.019 487.68 62.067 485.955 73.277 484.805 87.361 483.656 99.433 483.656 110.068 484.805 113.23 485.955 115.816 487.392 112.655 489.117 100.87 492.279 91.385 493.428 80.75 494.866 74.714 496.015 67.24 496.878 58.043 498.315 50.569 498.89 43.671 499.464 39.36 500.039 39.36 500.039"/>
  <polygon style="fill: rgb(123, 40, 12);" points="221.338 477.968 205.741 478.15 204.834 472.165 222.063 472.528"/>
  <polygon style="fill: rgb(123, 40, 12);" points="223.332 453.123 207.011 449.133 208.28 442.605 225.146 447.864"/>
  <polygon style="fill: url(#gradient-4);" points="222.843 489.638 221.639 487.883 220.729 484.231 219.579 479.632 219.292 474.745 219.292 467.56 219.579 461.524 220.442 455.487 222.454 445.427 223.316 441.691 229.065 435.367 232.801 433.643 234.526 433.355 235.388 441.691 235.101 448.589 233.663 462.673 232.514 467.847 230.789 475.033 228.777 481.644 225.615 486.818 224.483 488.956 223.621 489.937"/>
  <polyline style="fill: none; stroke: rgb(114, 10, 10); stroke-opacity: 0.52;" points="85.318 206.654 77.012 206.061 65.738 206.654 56.541 211.698 55.948 212.884"/>
  <polyline style="fill: none; stroke: rgb(114, 10, 10); stroke-opacity: 0.52;" points="86.505 198.941 82.945 196.27 77.902 193.897 70.188 191.82 61.288 190.337 58.024 190.337"/>
  <polyline style="fill: none; stroke: rgb(114, 10, 10); stroke-opacity: 0.52;" points="92.735 190.337 90.362 180.547 84.725 171.943 79.385 166.306 69.001 159.78"/>
  <polyline style="fill: none; stroke: rgb(114, 10, 10); stroke-opacity: 0.52;" points="104.306 181.14 101.932 169.273 96.889 157.999 90.659 149.099 88.878 147.023"/>
  <polyline style="fill: none; stroke: rgb(114, 10, 10); stroke-opacity: 0.52;" points="121.216 176.393 122.403 167.196 121.513 152.659 119.139 144.649 116.766 141.682"/>
  <polyline style="fill: none; stroke: rgb(114, 10, 10); stroke-opacity: 0.52;" points="139.61 174.91 142.28 160.076 142.577 147.913 141.983 140.792 139.907 136.936"/>
  <polygon style="fill: rgb(123, 40, 12);" points="8.696 484.821 4.51 485.658 5.347 493.192 8.138 501.285 10.649 508.54 15.393 520.818 19.858 528.631 25.717 532.538 30.461 533.096 36.321 532.259 35.205 529.189 29.066 528.352 24.88 526.678 21.532 521.934 16.509 512.446 13.719 506.028 10.928 495.425 8.975 487.612"/>
  <polyline style="fill: none; stroke: rgb(123, 40, 12);" points="23.94 526.982 34.207 521.518 18.972 520.027 32.22 513.735 14.998 510.754 30.895 506.448 12.349 503.964 33.048 501.646 11.189 497.175 33.876 500.156 9.037 489.723 33.545 496.678 12.017 483.927 33.71 496.347 21.788 481.278 32.717 495.353 31.392 480.45"/>
  <polygon style="stroke: rgb(0, 0, 0);" points="162.241 239.57 150.295 235.407 150.295 236.855 151.562 238.846 152.648 240.113 154.82 240.837 158.259 240.837 161.517 240.294 161.698 240.294"/>
  <polygon style="fill: rgb(123, 40, 12);" points="196.108 498.098 198.771 503.424 237.092 514.225 246.857 513.042 247.597 514.818 238.275 515.852 224.811 513.042 198.476 505.348 194.924 503.424 194.184 499.133"/>
  <polyline style="fill: none; stroke: rgb(123, 40, 12);" points="243.898 514.225 241.382 505.2 235.464 514.077 234.872 501.353 225.847 511.414 229.842 497.358 217.413 510.082 226.587 493.511 211.791 507.715 223.629 490.996 199.067 504.016 222.444 489.516 196.108 498.542 222 489.516 201.879 491.588 222.444 489.664 206.021 487.001 221.408 487.593"/>
  <polygon style="fill: rgb(82, 49, 0);" points="507.629 285.495 506.143 310.252 511.342 319.164 523.472 324.115 555.16 327.829 566.548 319.411 562.339 289.457 555.655 275.098 551.694 270.395"/>
  <polygon style="fill: rgb(82, 49, 0);" points="511.4 388.325 504.664 394.229 487.845 394.339 451.168 401.356 438.842 411.126 434.221 436.938 443.049 460.398 454.875 496.092 462.595 508.466 445.825 521.117 444.824 529.322 455.584 528.65 467.798 522.136 479.325 516.121 483.302 510.625 475.332 501.791 475.13 488.59 474.629 475.543 473.311 462.497 471.307 453.476 465.106 444.158 460.424 434.933 490.608 441.945 518.951 439.131 534.334 435.15 541.824 428.346 547.438 426.654 539.465 417.894 549.046 445.006 538.887 454.888 555.095 478.55 560.42 496.202 565.322 511.11 572.024 524.267 579.227 537.313 585.097 542.292 579.915 549.904 566.514 562.055 570.08 568.445 584.569 563.969 599.136 553.631 606.136 544.094 605.949 538.453 604.946 535.556 601.106 533.662 597.522 530.154 592.152 515.4 592.152 503.874 590.071 488.167 589.475 471.111 589.554 451.754 584.569 437.94 570.537 415.388 560.514 401.856 552.493 387.323 548.988 378.302"/>
  <polygon style="fill: rgb(62, 38, 3);" points="541.722 459.406 555.046 478.701 555.046 467.369 561.324 462.009 568.063 456.038 567.298 454.505 544.939 452.974"/>
  <polygon style="fill: rgb(103, 23, 23);" points="521.863 409.418 519.358 416.935 520.36 427.46 523.868 439.988 528.379 456.026 534.894 459.535 558.949 462.541 584.007 460.036 606.058 454.523 611.571 445.501 606.058 431.971 602.55 424.954 594.532 417.938 579.998 411.423 569.473 409.418 555.942 408.917"/>
  <polygon style="fill: rgb(125, 25, 25);" points="519.86 390.374 519.86 408.917 522.865 424.954 528.379 441.993 531.386 444.5 573.983 441.493 597.538 434.977 599.043 433.975 593.53 413.427 586.512 401.399 575.988 390.875 570.475 390.374 550.429 390.374 529.881 390.374 520.861 391.376"/>
  <polygon style="fill: rgb(103, 23, 23);" points="483.18 399.553 480.663 401.288 474.37 402.252 464.049 402.252 455.742 402.831 447.938 403.023 445.924 403.023 445.422 401.48 446.931 400.324 452.217 398.781 458.762 397.818 469.587 396.854 478.146 396.854 481.166 396.854 482.425 396.854" transform="matrix(0.98839, -0.151935, 0.151935, 0.98839, -55.37438, 75.186712)"/>
  <polygon style="fill: rgb(125, 25, 25);" points="510.009 393.277 506.726 396.234 498.518 397.874 485.057 397.874 474.224 398.859 464.045 399.187 461.419 399.187 460.763 396.561 462.733 394.591 469.626 391.964 478.162 390.323 492.28 388.681 503.442 388.681 507.382 388.681 509.023 388.681"/>
  <polygon style="fill: rgb(85, 15, 15);" points="499.691 288.979 497.839 300.641 494.367 311.558 494.367 323.963 494.367 335.872 494.367 347.781 499.695 373.714 503.821 386.146 508.471 392.57 532.079 395.419 560.86 394.425 575.249 392.936 576.241 386.486 576.241 374.081 575.746 366.638 577.73 336.864 577.235 325.948 569.295 319.001 554.408 317.016 540.514 317.016 532.079 316.52 522.155 315.527 512.727 310.069 511.733 306.596 513.222 296.175 514.215 293.197 515.207 284.761 513.72 283.77 504.786 285.754 499.203 290.714 509.05 285.337"/>
  <polyline style="stroke: rgb(0, 0, 0); fill: none; stroke-opacity: 0.19;" points="507.871 389.068 520.238 389.745 534.3 390.083 551.071 390.083 563.269 388.728 573.264 387.711 574.79 387.373"/>
  <circle style="fill: url(#gradient-12);" cx="602.662" cy="341.571" r="45.526" transform="matrix(0.854291, 0, 0, 0.870775, 4.118144, -51.325779)"/>
  <polygon style="fill: rgb(82, 49, 0);" points="524.527 243.624 534.858 241.277 535.17 244.565 525.621 245.973"/>
  <polygon style="fill: rgb(82, 49, 0);" points="529.379 265.382 538.457 260.06 539.71 262.878 531.727 267.574"/>
  <g transform="matrix(0.921023, 0, 0, 0.811927, -820.496643, -32.977932)" style="">
    <polygon style="fill: url(#gradient-61); stroke-linecap: round; stroke-opacity: 0.18;" points="1448.25 320.47 1442.56 323.409 1435.31 325.369 1427.18 326.936 1420.58 325.462 1417.84 321.048 1415.52 317.139 1411.15 322.336 1408.35 324.781 1406.7 328.112 1404.75 331.247 1400.04 334.971 1399.26 344.573 1400.63 346.728 1407.05 347.48 1413.42 348.202 1410.47 347.522 1411.41 351.039 1412 353.587 1410.82 355.154 1416.9 353.978 1420.42 353.587 1422.38 355.546 1423.56 359.269 1423.56 363.58 1421.21 366.716 1416.7 365.736 1414.35 364.168 1412.58 362.601 1414.94 370.831 1403.58 388.663 1407.99 392.531 1420.23 392.974 1430.22 391.612 1440.78 389.709 1455.33 385.139 1473.82 377.291 1465.13 361.548 1463.55 341.849 1457.65 317.139" transform=""/>
    <polyline style="stroke: rgb(0, 0, 0); fill: none; stroke-linecap: round; stroke-opacity: 0.18;" points="1428.038 383.52 1432.374 379.907 1437.288 374.704 1440.179 368.633 1441.335 362.707 1440.468 357.937 1438.733 353.89 1436.276 350.566 1436.132 350.422 1435.12 349.554"/>
    <polyline style="stroke: rgb(0, 0, 0); fill: none; stroke-linecap: round; stroke-opacity: 0.18;" points="1433.819 370.657 1434.686 366.176 1435.264 362.563 1433.964 358.516 1432.952 355.769 1430.639 352.301 1429.049 350.855 1428.327 350.422"/>
    <polyline style="stroke: rgb(0, 0, 0); fill: none; stroke-linecap: round; stroke-opacity: 0.18;" points="1429.049 367.91 1430.061 363.574 1429.338 360.105 1428.471 357.648 1427.315 355.48 1425.725 353.168 1424.28 352.012"/>
    <polyline style="stroke: rgb(0, 0, 0); fill: none; stroke-linecap: round; stroke-opacity: 0.18;" points="1401.154 342.761 1401.154 340.015 1401.732 337.124 1403.467 334.812 1406.068 333.222 1408.381 332.355 1412.283 331.777 1416.186 331.921 1418.498 333.655 1422.112 335.824 1425.147 337.992 1428.182 339.003 1432.085 339.726 1435.553 340.015 1439.022 339.148 1441.335 337.413 1444.659 335.39 1447.55 332.933 1450.441 331.487 1452.753 330.476 1456.078 330.476 1458.535 330.476 1459.835 330.909"/>
    <polyline style="stroke: rgb(0, 0, 0); fill: none; stroke-linecap: round; stroke-opacity: 0.18;" points="1407.947 331.198 1411.561 330.331 1413.584 330.331 1416.475 330.62 1418.787 331.487 1421.533 332.933 1424.28 335.101 1429.917 336.691 1434.397 336.691 1437.721 335.245 1440.034 333.511 1443.069 331.343 1446.249 329.608 1449.718 328.163 1453.909 327.44 1458.101 327.007 1459.257 327.007"/>
    <polyline style="stroke: rgb(0, 0, 0); fill: none; stroke-linecap: round; stroke-opacity: 0.18;" points="1411.416 390.169 1419.799 388.29 1430.928 384.388 1442.202 376.727 1451.452 370.078 1455.499 365.453 1457.523 360.539 1458.968 355.914 1459.691 350.277"/>
    <polyline style="stroke: rgb(0, 0, 0); stroke-linecap: round; stroke-opacity: 0.18; fill: none;" points="1405.779 330.331 1414.451 324.983 1417.486 322.526"/>
  </g>
  <g transform="matrix(0.870775, 0, 0, 0.870775, -571.962952, -24.985516)" style="">
    <polygon style="fill: url(#gradient-21);" points="1269.631 277.697 1283.844 277.374 1292.566 276.405 1302.257 276.082 1312.27 273.498 1317.861 272.104 1316.147 265.422 1313.563 263.807 1277.061 266.714"/>
    <polygon style="stroke: rgb(0, 0, 0); fill: url(#gradient-13);" points="1201.46 269.603 1233.709 270.223 1251.694 271.464 1283.943 269.603 1308.13 267.122 1319.294 265.262 1314.952 246.656 1306.89 230.532 1299.448 219.369 1293.866 216.268 1274.021 210.686 1262.857 210.686 1246.113 214.407 1226.887 220.609 1224.406 222.47 1220.065 226.191 1211.383 235.493 1208.282 241.075 1205.181 250.998"/>
    <polyline style="stroke: rgb(0, 0, 0); fill: none; stroke-opacity: 0.3;" points="1220.254 268.653 1221.77 253.492 1224.196 245.608 1229.048 237.117 1234.506 231.053 1239.661 227.111 1246.332 221.956 1263.92 211.949"/>
    <polyline style="stroke: rgb(0, 0, 0); fill: none; stroke-opacity: 0.3;" points="1241.784 268.047 1243.3 258.04 1246.029 246.214 1248.455 240.15 1251.487 232.569 1256.339 223.169 1260.281 217.71 1267.559 210.433"/>
    <polygon style="fill: url(#gradient-31);" points="1203.41 269.298 1202.77 273.821 1199.54 273.821 1193.07 291.91 1216.13 289.319 1229.43 284.528 1236.28 279.822 1240.3 275.391 1242.17 272.991 1243.79 270.59 1244.11 268.975" transform=""/>
    <polygon style="fill: url(#gradient-27);" points="1274.476 336.488 1272.215 338.426 1270.6 341.656 1268.985 356.838 1270.277 358.453 1291.92 358.453 1324.868 355.223 1349.741 350.055 1367.831 345.209 1381.721 339.718 1381.075 334.872 1375.26 326.151 1373.322 324.213 1371.384 323.244 1366.862 323.244 1361.693 323.567 1361.047 323.567"/>
    <polygon style="fill: url(#gradient-26);" points="1272.215 320.982 1272.215 326.797 1272.215 332.288 1275.426 337.28 1290.305 335.195 1309.04 334.872 1319.054 334.872 1331.652 332.288 1343.927 330.027 1361.37 326.797 1368.477 322.921 1365.57 318.721 1359.432 313.23 1358.786 313.23 1345.542 313.23 1341.02 313.23"/>
    <polygon style="fill: url(#gradient-25);" points="1271.246 311.938 1270.923 320.982 1274.477 323.244 1282.552 322.274 1302.257 321.305 1323.576 319.367 1341.02 317.752 1354.587 313.23 1354.91 310.323 1349.741 304.831 1345.219 302.893 1337.789 304.185"/>
    <polygon style="fill: url(#gradient-24);" points="1263.43 297.971 1270.084 312.132 1276.738 312.584 1287.398 312.261 1303.549 311.292 1320.023 309.677 1333.913 306.769 1344.25 303.862 1342.312 298.371 1333.42 292.556 1330.417 293.423"/>
    <polygon style="fill: url(#gradient-23);" points="1262.529 288.68 1260.268 298.371 1265.759 299.986 1279.003 301.278 1292.247 299.986 1304.199 299.34 1321.965 296.432 1329.395 294.494 1334.24 292.879 1331.01 287.711 1325.518 284.481 1323.58 283.188 1321.319 282.219"/>
    <polygon style="fill: url(#gradient-22);" points="1270.6 278.02 1262.525 289.003 1267.047 289.972 1278.676 289.326 1289.013 288.034 1301.288 286.419 1314.532 284.481 1323.068 282.761 1322.653 278.694 1321.811 276.232 1319.538 273.394 1317.963 272.082"/>
    <polyline style="stroke: rgb(0, 0, 0); fill: none; stroke-opacity: 0.3;" points="1308.798 264.408 1308.495 255.008 1306.069 244.395 1302.43 235.904 1297.882 228.93 1293.333 224.685 1289.998 221.046 1284.236 215.891 1279.991 213.162 1273.623 210.736"/>
    <polygon style="fill: url(#gradient-30);" points="1197.205 268.534 1209.121 238.551 1214.119 245.086 1224.882 232.401 1228.341 216.257 1230.263 197.037 1230.263 190.502 1230.263 188.964 1225.65 184.736 1224.113 184.736 1221.806 186.274 1221.422 186.658 1223.728 180.892 1227.572 175.511 1234.491 167.438 1247.176 159.75 1256.786 156.675 1268.318 153.216 1276.775 152.063 1267.165 158.982 1261.015 164.748 1256.018 170.129 1254.096 172.82 1251.405 180.123 1249.098 188.58 1247.945 198.19 1245.254 212.028 1243.332 222.791 1241.411 234.323 1236.029 243.933 1227.957 251.237 1213.734 261.231 1209.121 264.306 1201.433 268.15 1200.28 268.919"/>
    <polyline style="stroke: rgb(0, 0, 0); fill: none; stroke-opacity: 0.3;" points="1282.72 248.034 1282.72 241.666 1282.72 235.601 1280.901 227.111 1278.172 218.014 1274.23 211.646 1272.107 209.523"/>
    <polygon style="fill: url(#gradient-32);" points="1245.407 285.45 1245.727 279.312 1247.017 269.944 1250.897 265.745 1259.297 260.254 1268.017 254.439 1277.057 249.917 1283.517 247.333 1289.017 247.656 1293.217 252.178 1300.317 257.669 1302.577 261.546 1301.287 264.453 1296.117 266.068 1285.777 271.56 1278.357 275.436 1269.307 281.896 1265.757 288.034 1262.527 294.171 1262.847 298.694 1267.367 302.441 1268.337 304.185 1266.727 304.831"/>
    <polygon style="fill: url(#gradient-28);" points="1257.468 212.326 1258.281 206.329 1262.466 205.791 1263.619 203.1 1265.541 200.794 1266.694 200.41 1269.769 198.872 1273.229 200.025 1276.304 201.947 1276.688 203.869 1277.072 206.56 1277.072 208.866 1280.744 209.548 1280.145 213.863"/>
    <circle style="fill: url(#gradient-14);" cx="1284.192" cy="346.411" r="3.019"/>
    <circle style="fill: url(#gradient-15);" cx="1328.87" cy="342.336" r="3.019"/>
    <circle style="fill: url(#gradient-16);" cx="1366.303" cy="334.94" r="3.019"/>
    <circle style="fill: url(#gradient-19);" cx="1283.588" cy="328.902" r="3.019"/>
    <circle style="fill: url(#gradient-18);" cx="1323.889" cy="326.336" r="3.019"/>
    <circle style="fill: url(#gradient-17);" cx="1354.832" cy="320.6" r="3.019"/>
    <circle style="fill: url(#gradient-20);" cx="1282.456" cy="316.752" r="2.491"/>
    <circle style="fill: url(#gradient-29);" cx="1316.04" cy="314.714" r="2.491"/>
    <circle style="fill: url(#gradient-33);" cx="1343.511" cy="310.185" r="2.491"/>
    <circle style="fill: url(#gradient-36);" cx="1280.267" cy="306.865" r="2.491"/>
    <circle style="fill: url(#gradient-35);" cx="1312.417" cy="304.45" r="2.491"/>
    <circle style="fill: url(#gradient-34);" cx="1333.247" cy="299.922" r="2.491"/>
    <circle style="fill: url(#gradient-37);" cx="1274.532" cy="295.242" r="2.491"/>
    <circle style="fill: url(#gradient-38);" cx="1299.889" cy="292.827" r="2.491"/>
    <circle style="fill: url(#gradient-39);" cx="1321.776" cy="289.054" r="2.491"/>
    <circle style="fill: url(#gradient-42);" cx="1273.777" cy="283.318" r="2.491"/>
    <circle style="fill: url(#gradient-41);" cx="1295.814" cy="281.054" r="2.491"/>
    <circle style="fill: url(#gradient-40);" cx="1314.38" cy="278.79" r="2.491"/>
    <circle style="fill: url(#gradient-44);" cx="1309.838" cy="270.073" r="1.661"/>
    <circle style="fill: url(#gradient-43);" cx="1292.487" cy="272.324" r="1.661"/>
    <circle style="fill: url(#gradient-45);" cx="1286.277" cy="249.557" r="1.17"/>
    <circle style="fill: url(#gradient-46);" cx="1298.771" cy="261.85" r="1.17"/>
    <circle style="fill: url(#gradient-47);" cx="1291.089" cy="265.431" r="1.17"/>
    <circle style="fill: url(#gradient-48);" cx="1283.696" cy="269.648" r="1.17"/>
    <circle style="fill: url(#gradient-49);" cx="1276.533" cy="273.518" r="1.17"/>
    <circle style="fill: url(#gradient-50);" cx="1270.006" cy="277.735" r="1.17"/>
    <circle style="fill: url(#gradient-51);" cx="1265.27" cy="283.164" r="1.17"/>
    <circle style="fill: url(#gradient-52);" cx="1262.44" cy="289.46" r="1.17"/>
    <circle style="fill: url(#gradient-53);" cx="1292.418" cy="255.208" r="1.17"/>
    <circle style="fill: url(#gradient-54);" cx="1277.804" cy="252.262" r="1.17"/>
    <circle style="fill: url(#gradient-55);" cx="1268.736" cy="256.305" r="1.17"/>
    <circle style="fill: url(#gradient-56);" cx="1262.902" cy="260.002" r="1.17"/>
    <circle style="fill: url(#gradient-57);" cx="1257.126" cy="264.161" r="1.17"/>
    <circle style="fill: url(#gradient-58);" cx="1251.523" cy="268.088" r="1.17"/>
    <circle style="fill: url(#gradient-59);" cx="1248.982" cy="272.709" r="1.17"/>
    <circle style="fill: url(#gradient-60);" cx="1247.884" cy="278.601" r="1.17"/>
  </g>
  <polygon style="stroke: rgb(0, 0, 0);" points="502.983 224.658 492.581 228.283 492.581 227.022 493.684 225.288 494.63 224.185 496.521 223.555 499.515 223.555 502.352 224.027 502.51 224.027" transform="matrix(-1, 0, 0, -1, 995.563995, 451.837997)"/>
  <polyline style="stroke: rgb(0, 0, 0); fill: none; stroke-opacity: 0.19;" points="562.082 351.966 575.636 351.457"/>
  <polyline style="stroke: rgb(0, 0, 0); fill: none; stroke-opacity: 0.19;" points="494.994 332.314 500.246 334.007 509.056 335.193 518.204 336.04 527.522 336.379 536.332 337.226 547.683 337.226 556.324 337.226 565.472 337.226 573.942 336.718 575.806 336.379"/>
  <polygon style="fill: rgb(108, 25, 28);" points="541.394 302.318 538.335 298.114 536.423 291.614 537.188 286.264 547.509 278.619 554.007 277.854 563.181 280.912 567.004 286.647 570.444 297.348 570.444 300.407 571.209 304.994 573.623 310.614 575.455 315.407 574.439 326.172 574.04 335.963 570.566 345.467 568.236 352.599 562.886 357.717 554.972 358.83 545.598 357.362 536.623 357.961 522.28 357.631 510.247 358.23 496.618 359.177 487.024 357.818 484.203 355.434 482.656 350.891 485.915 345.992 488.786 345.249 495.905 344.366 500.492 343.601 503.915 343.55 510.431 342.837 518.076 341.308 523.428 340.543 530.308 340.926 536.423 342.072 539.865 342.072 545.399 340.457 545.53 335.791 542.785 330.422 541.438 324.524 541.22 315.218 539.865 307.67 543.686 300.407 544.834 298.878"/>
  <polyline style="fill: none; stroke: rgb(95, 13, 13);" points="547.728 328.136 548.071 332.603 548.243 336.038 549.274 340.849 548.071 344.799 545.494 345.486 539.139 346.002 538.967 346.173"/>
  <polyline style="fill: none; stroke: rgb(95, 13, 13);" points="539.998 350.639 547.899 349.952 555.115 348.234 557.519 345.657 556.66 338.1 555.285 329.683 554.256 325.389"/>
  <polyline style="fill: none; stroke: rgb(95, 13, 13);" points="537.764 351.67 541.201 353.044 547.556 352.7 554.77 352.185 559.923 350.811 563.874 342.223 563.36 340.162 562.501 332.603 562.157 326.762 561.985 325.731"/>
  <polyline style="fill: none; stroke: rgb(95, 13, 13);" points="534.501 355.277 542.574 355.105 549.79 355.277 556.145 355.621 563.188 353.216 565.42 350.811 566.967 346.173 568.168 341.02 569.543 332.774 569.715 326.762 569.715 325.389"/>
  <polyline style="fill: none; stroke: rgb(95, 13, 13);" points="540.856 347.891 547.899 347.031 553.053 344.627 553.225 342.051 552.881 338.271 551.506 331.229 550.304 326.076"/>
  <polyline style="stroke: rgb(0, 0, 0); fill: none; stroke-opacity: 0.19;" points="494.656 318.251 502.618 320.792 508.548 322.317 516.003 323.164 522.27 324.35 530.91 325.366 540.059 325.875 548.191 326.384 555.137 326.891 568.352 327.061 573.603 327.061"/>
  <polygon style="fill: url(#gradient-70);" points="527.756 281.146 531.96 301.788 535.4 312.49 538.459 325.487 543.428 329.309 565.215 330.456 582.8 326.633 586.8 323.37 586.459 313.493 582.035 302.552 577.83 292.232 570.186 277.324 568.657 276.941 554.514 274.647 544.191 274.647 528.639 279.617 527.865 280.428"/>
  <polygon style="fill: rgb(129, 2, 2);" points="462.272 507.886 452.561 493.153 449.212 488.464 442.85 477.749 435.817 460.669 433.138 454.642 429.789 445.936 434.143 444.596 439.166 446.941 448.543 444.26 452.895 439.573 455.239 441.582 456.914 447.274 457.583 459.331 459.593 470.716 463.612 485.785 465.285 495.496 466.625 503.534 464.617 506.213 462.272 506.883"/>
  <polygon style="fill: rgb(129, 2, 2);" points="584.928 541.551 577.561 537.868 573.902 533.503 569.537 527.605 565.373 520.92 559.811 511.748 557.803 506.725 555.459 501.367 552.444 492.661 552.11 486.967 558.472 489.311 562.826 490.651 568.183 488.307 571.197 484.623 573.541 482.948 575.215 486.633 576.556 495.005 581.243 507.06 584.928 517.776 586.267 525.478 586.267 537.868 585.931 543.896"/>
  <polygon style="fill: rgb(108, 25, 28);" points="475.605 336.452 489.171 345.496 491.808 342.481 498.591 344.365 501.982 339.091 500.098 336.828 503.113 336.076 503.113 332.684 499.345 332.308 502.359 329.67 501.982 326.279 482.011 324.772" transform="matrix(-0.982954, 0.183854, -0.183854, -0.982954, 1023.622307, 588.748297)" bx:origin="0.324 0.823"/>
  <polygon style="fill: rgba(136, 136, 36, 0.44);" points="146.655 285.22 144.662 283.67 143.112 282.009 140.455 278.466 138.684 275.034 138.241 274.37 142.116 277.248 143.223 278.577 144.994 280.791 146.434 283.559 147.762 286.437 147.873 286.991" transform="matrix(0.939684, -0.342045, 0.342045, 0.939684, -87.376637, 65.861537)"/>
  <polygon style="fill: rgba(136, 136, 36, 0.21);" points="118.481 244.303 117.378 242.357 116.521 240.271 115.052 235.822 114.071 231.512 113.826 230.678 115.971 234.292 116.583 235.961 117.563 238.741 118.359 242.217 119.094 245.831 119.154 246.527" transform="matrix(0.522195, -0.852826, 0.852826, 0.522195, -147.826936, 213.351195)"/>
  <polygon style="fill: rgba(136, 136, 36, 0.29);" points="166.456 221.001 165.563 218.079 164.871 214.948 163.681 208.271 162.889 201.802 162.691 200.55 164.425 205.975 164.92 208.479 165.713 212.652 166.357 217.871 166.951 223.294 167.001 224.341" transform="matrix(0.659373, -0.751816, 0.751816, 0.659373, -103.568924, 196.298555)"/>
  <polygon style="fill: rgb(62, 38, 3);" points="490.664 442.061 463.832 427.502 471.532 435.563 460.824 434.722"/>
  <polygon style="fill: rgba(169, 169, 169, 0.44);" points="168.059 322.812 166.331 319.593 164.987 316.143 162.684 308.783 161.148 301.654 160.764 300.274 164.123 306.252 165.083 309.014 166.619 313.612 167.868 319.362 169.019 325.34 169.115 326.491" transform="matrix(0.939684, -0.342045, 0.342045, 0.939684, -97.242313, 75.318801)"/>
  <circle style="fill: url(#gradient-66);" cx="172.729" cy="254.949" r="8.822"/>
  <circle style="fill: url(#gradient-68);" cx="187.834" cy="428.232" r="6.778"/>
  <circle style="fill: url(#gradient-69);" cx="125.035" cy="469.659" r="6.778"/>
  <polygon style="fill: rgba(224, 4, 4, 0.48);" points="222.789 428.924 221.24 426.658 220.037 424.235 217.975 419.061 216.6 414.051 216.257 413.081 219.263 417.283 220.123 419.226 221.499 422.455 222.618 426.496 223.648 430.7 223.734 431.507" transform="matrix(0.85047, -0.526024, 0.526024, 0.85047, -189.240735, 178.868562)"/>
  <path d="M 482.622 259.754 C 484.152 258.736 486.086 259.844 487.185 259.844" style="stroke: rgb(0, 0, 0); fill: none; stroke-linecap: round;"/>
  <polyline style="fill: none; stroke: rgb(0, 0, 0); stroke-opacity: 0.14;" points="530.723 290.28 536.858 290.28 546.912 289.428 553.387 288.746 562.248 287.383 567.871 286.19 572.644 285.168"/>
  <polyline style="fill: none; stroke: rgb(0, 0, 0); stroke-opacity: 0.14;" points="534.131 300.164 545.55 299.482 553.046 298.8 563.441 297.097 569.405 295.393 576.051 293.518"/>
  <polyline style="fill: none; stroke: rgb(0, 0, 0); stroke-opacity: 0.14;" points="537.369 311.24 544.356 310.729 552.535 309.706 560.715 308.854 567.191 307.662 574.517 306.128 578.778 305.106 578.778 305.106"/>
  <polyline style="fill: none; stroke: rgb(0, 0, 0); stroke-opacity: 0.14;" points="539.584 319.76 546.741 319.76 556.113 319.079 565.998 317.544 574.517 316.011 584.571 312.944"/>
  <polygon style="fill: rgb(51, 0, 0);" points="500.081 371.033 499.013 366.306 503.815 358.76 510.675 354.301 520.28 349.499 524.739 347.098 530.227 344.697 538.459 346.755 537.43 349.842 533.314 353.273 529.198 355.33 516.506 362.533 512.733 365.964 505.187 371.109 502.786 371.109" transform="matrix(0.870191, 0.492715, -0.492715, 0.870191, 243.680841, -209.129848)"/>
  <polyline style="stroke: rgb(0, 0, 0); fill: none; stroke-opacity: 0.19;" points="503.127 379.072 511.428 379.242 518.882 379.411 528.371 379.411 538.873 379.411 550.394 379.242 561.744 379.072 568.012 377.377 573.264 376.531"/>
  <polygon style="fill: rgb(51, 0, 0);" points="507.107 362.188 502.305 363.218 497.503 361.845 498.875 355.329 504.02 350.183 515.683 341.265 525.973 334.062 532.49 330.632 540.723 329.945 541.751 334.405 541.408 338.178 538.321 342.98 537.635 344.009 534.891 345.724" transform="matrix(0.870191, 0.492715, -0.492715, 0.870191, 238.218227, -211.038488)"/>
  <polyline style="stroke: rgb(0, 0, 0); fill: none; stroke-opacity: 0.19;" points="499.399 368.23 507.022 368.737 519.73 369.923 531.928 370.262 539.55 370.092 547.175 369.753 555.477 369.416 566.319 368.398 568.691 368.23 572.248 367.721 573.434 367.382"/>
  <polygon style="fill: rgb(62, 38, 3);" points="494.977 441.373 506.032 429.822 506.281 434.044 513.235 433.424 513.608 436.53 520.191 437.026 521.186 438.889 505.535 440.752"/>
  <polyline style="fill: none; stroke: rgb(176, 126, 51); stroke-linecap: round;" points="445.998 521.274 452.091 519.371 454.248 519.245 456.153 517.339 462.755 513.024 466.562 510.611 462.373 508.708 466.562 510.865 478.367 506.296 466.815 510.992 454.122 519.116 455.518 528.511"/>
  <polyline style="fill: none; stroke: rgb(176, 126, 51); stroke-linecap: round;" points="566.852 562.313 577.514 557.932 584.819 563.629 577.514 558.078 588.761 545.224 584.671 542.742 588.908 545.517 600.301 533.392 588.908 545.224 605.267 544.932"/>
  <polygon style="fill: rgb(62, 38, 3);" points="476.837 422.32 498.951 425.109 506.921 420.527 511.303 417.937 503.135 418.932 496.76 421.323 488.79 422.32 478.829 421.722 467.075 420.924 466.278 420.924"/>
  <circle style="fill: rgb(111, 111, 111);" cx="533.313" cy="440.076" r="1.838"/>
  <circle style="fill: rgb(111, 111, 111);" cx="546.91" cy="439.108" r="1.838"/>
  <circle style="fill: rgb(111, 111, 111);" cx="562.524" cy="437.786" r="1.838"/>
  <circle style="fill: rgb(111, 111, 111);" cx="578.379" cy="435.505" r="1.838"/>
  <circle style="fill: rgb(111, 111, 111);" cx="593.514" cy="432.14" r="1.838"/>
  <circle style="fill: rgb(111, 111, 111);" cx="529.973" cy="432.14" r="1.838"/>
  <circle style="fill: rgb(111, 111, 111);" cx="526.49" cy="421.93" r="1.838"/>
  <circle style="fill: rgb(111, 111, 111);" cx="523.847" cy="413.043" r="1.838"/>
  <circle style="fill: rgb(111, 111, 111);" cx="522.886" cy="401.39" r="1.838"/>
  <circle style="fill: rgb(111, 111, 111);" cx="576.218" cy="396.827" r="1.838"/>
  <circle style="fill: rgb(111, 111, 111);" cx="583.184" cy="403.553" r="1.838"/>
  <circle style="fill: rgb(111, 111, 111);" cx="588.11" cy="412.803" r="1.838"/>
  <circle style="fill: rgb(111, 111, 111);" cx="591.954" cy="422.892" r="1.838"/>
</svg>