<?xml version="1.0" encoding="utf-8"?>
<svg viewBox="-402.364 -171.189 577.987 113.182" xmlns="http://www.w3.org/2000/svg">
  <defs>
    <linearGradient id="logogradient-2" gradientUnits="userSpaceOnUse" x1="191.678" y1="81.589" x2="191.678" y2="143.51" gradientTransform="matrix(1, 0, 0, 0.74828, -55.18708, -209.730682)">
      <stop offset="0" style="stop-color: rgba(173, 136, 77, 1)"/>
      <stop offset="1" style="stop-color: rgba(102, 81, 46, 1)"/>
    </linearGradient>
    <linearGradient id="logogradient-5" gradientUnits="userSpaceOnUse" x1="192.632" y1="94.353" x2="192.632" y2="112.638" gradientTransform="matrix(1, 0, 0, 1.25573, -47.087578, -244.389606)">
      <stop offset="0" style="stop-color: rgba(155, 121, 66, 1)"/>
      <stop offset="1" style="stop-color: rgba(83, 65, 35, 1)"/>
    </linearGradient>
    <linearGradient id="logogradient-4" gradientUnits="userSpaceOnUse" x1="188.768" y1="89.887" x2="188.768" y2="110.45" gradientTransform="matrix(0.999653, 0.026324, -0.02274, 0.86356, -37.787132, -213.502636)">
      <stop offset="0" style="stop-color: rgba(122, 92, 43, 1)"/>
      <stop offset="1" style="stop-color: rgba(47, 35, 16, 1)"/>
    </linearGradient>
    <linearGradient id="logogradient-6" gradientUnits="userSpaceOnUse" x1="204.229" y1="96.998" x2="204.229" y2="138.292" gradientTransform="matrix(0.999635, 0.027027, -0.018873, 0.698034, -70.927818, -199.0429)">
      <stop offset="0" style="stop-color: rgba(210, 170, 106, 1)"/>
      <stop offset="1" style="stop-color: rgba(165, 120, 50, 1)"/>
    </linearGradient>
    <linearGradient id="gradient-0" gradientUnits="userSpaceOnUse" x1="58.61" y1="-163.421" x2="58.61" y2="-66.382" gradientTransform="matrix(0.999923, -0.012436, 0.011441, 0.919914, 0.764001, -4.587411)">
      <stop offset="0" style="stop-color: rgb(236, 197, 135);"/>
      <stop offset="1" style="stop-color: rgb(207, 155, 73);"/>
    </linearGradient>
    <linearGradient id="gradient-1" gradientUnits="userSpaceOnUse" x1="58.61" y1="-163.421" x2="58.61" y2="-66.382" gradientTransform="matrix(2.560887, -0.012436, 0.029301, 0.919914, -312.964451, -4.522891)">
      <stop offset="0" style="stop-color: rgb(236, 197, 135);"/>
      <stop offset="1" style="stop-color: rgb(207, 155, 73);"/>
    </linearGradient>
  </defs>
  <polygon style="fill: url(#logogradient-2);" points="90.633 -131.281 90.362 -134.761 91.313 -137.527 93.487 -139.847 96.612 -141.631 99.058 -142.613 100.824 -140.115 100.96 -139.044 102.997 -137.705 103.813 -134.494 104.628 -132.977 106.666 -135.385 107.482 -137.081 106.531 -139.133 106.395 -141.096 108.025 -143.773 109.926 -146.092 116.857 -147.341 122.156 -148.412 129.765 -148.412 134.792 -148.68 141.314 -148.501 145.798 -148.412 150.825 -148.055 153.271 -147.43 154.902 -145.557 155.717 -144.219 154.63 -142.88 154.63 -141.185 155.717 -139.579 157.891 -138.24 158.434 -140.382 158.57 -142.167 160.744 -142.523 162.103 -142.88 162.239 -144.754 162.646 -146.271 165.364 -146.181 169.168 -144.843 173.516 -143.237 177.457 -141.899 180.038 -139.757 181.805 -138.419 182.62 -136.367 182.484 -134.226 182.62 -132.887 182.076 -131.638 181.125 -130.746 177.185 -123.252 174.875 -114.864 172.022 -100.41 163.054 -86.759 103.27 -88.008" transform="matrix(0, 1, -1, 0, 18.7715, -254.210495)"/>
  <polygon style="fill: url(#logogradient-5);" points="130.392 -114.762 132.95 -124.421 160.697 -125.908 158.975 -107.623" transform="matrix(0, 1, -1, 0, 28.779003, -262.310001)"/>
  <polyline style="fill: url(#logogradient-4);" points="129.909 -123.921 129.725 -126.182 131.603 -128.056 136.495 -129.662 140.843 -130.644 145.87 -130.911 150.354 -130.911 155.11 -130.733 158.371 -130.108 162.447 -129.394 165.3 -128.145 168.018 -126.539 167.61 -125.29 167.202 -124.13 165.436 -122.703 162.175 -121.989 158.235 -121.364 154.159 -121.186 150.898 -121.186 147.637 -121.543 143.968 -122.167 141.386 -122.881 138.458 -110.348" transform="matrix(0, 1, -1, 0, 28.242008, -269.501003)"/>
  <polygon style="fill: url(#logogradient-6);" points="97.361 -106.916 97.088 -122.412 96.952 -125.816 99.953 -122.592 103.636 -120.979 109.092 -118.919 113.321 -118.202 119.186 -117.844 127.371 -117.038 135.01 -116.769 138.42 -117.038 141.83 -117.217 143.058 -115.963 143.331 -113.365 145.104 -112.828 147.15 -110.946 147.15 -109.066 147.287 -107.722 149.197 -110.589 151.106 -112.201 149.879 -113.992 148.515 -115.336 149.606 -117.306 150.97 -118.829 155.608 -120.083 159.837 -121.517 162.565 -122.95 164.884 -124.383 165.839 -122.233 165.429 -120.173 165.02 -113.276 164.475 -106.737 163.929 -102.079 117.686 -84.522 97.361 -91.151" transform="matrix(0, 1, -1, 0, 26.226501, -236.564507)"/>
  <polygon style="fill: rgb(180, 145, 88);" points="-32.055 -121.079 -24.469 -120.368 -19.98 -120.267 -15.181 -120.673 -15.49 -129.518 -28.03 -131.449 -31.746 -130.839" transform="matrix(0, 1, -1, 0, -149.476002, -102.240002)"/>
  <polygon style="fill: url(#gradient-0);" points="-32.9010009765625 -154.45599365234375 -7.918000221252441 -151.80799865722656 -17.465999603271484 -157.01199340820312 8.12600040435791 -158.65199279785156 28.025999069213867 -158.46200561523438 43.90800094604492 -157.9600067138672 60.92100143432617 -157.5399932861328 79.61499786376953 -157.1199951171875 100.61900329589844 -156.91000366210938 135.48599243164062 -160.9010009765625 150.3990020751953 -163.42100524902344 146.197998046875 -158.80099487304688 141.78700256347656 -152.49899291992188 140.94700622558594 -149.3489990234375 137.37600708007812 -140.73699951171875 136.3260040283203 -134.43600463867188 135.906005859375 -128.97500610351562 135.0659942626953 -125.19400024414062 131.9149932861328 -123.51399993896484 128.13400268554688 -123.30400085449219 125.19400024414062 -123.30400085449219 121.2030029296875 -123.93399810791016 118.052001953125 -121.41300201416016 117.4219970703125 -120.572998046875 121.41300201416016 -120.78299713134766 122.88300323486328 -120.78299713134766 126.66400146484375 -117.4219970703125 128.97500610351562 -117.84200286865234 133.1750030517578 -118.26300048828125 133.1750030517578 -114.69200134277344 132.5449981689453 -104.81999969482422 132.96499633789062 -99.14900207519531 132.7550048828125 -89.48699951171875 131.7050018310547 -81.92500305175781 131.7050018310547 -73.10399627685547 132.3350067138672 -68.48300170898438 132.125 -66.38200378417969 -29.613000869750977 -66.38200378417969 -30.656999588012695 -76.88400268554688 -31.28700065612793 -85.91600036621094 -31.91699981689453 -96.83799743652344 -31.91699981689453 -106.70999908447266 -32.33700180053711 -112.1709976196289 -33.178001403808594 -119.52300262451172 -33.178001403808594 -122.6729965209961 -29.39699935913086 -122.46299743652344 -24.986000061035156 -122.46299743652344 -18.684999465942383 -121.41300201416016 -23.93600082397461 -123.93399810791016 -27.506000518798828 -124.77400207519531 -26.246000289916992 -126.4540023803711 -26.246000289916992 -128.97500610351562 -27.715999603271484 -129.18499755859375 -30.027000427246094 -129.60499572753906 -30.867000579833984 -129.60499572753906 -32.33700180053711 -131.7050018310547 -32.547000885009766 -134.01600646972656 -32.96699905395508 -141.9969940185547 -31.91699981689453 -148.50900268554688 -30.656999588012695 -153.75999450683594 -65.4000015258789 -155.47300720214844 -41.87799835205078 -155.19500732421875"/>
  <polygon style="fill: url(#gradient-1);" points="-376.2239990234375 -163.3560028076172 -332.64898681640625 -159.99600219726562 -307.90399169921875 -159.36599731445312 -282.0830078125 -159.156005859375 -244.96800231933594 -157.68499755859375 -202.47000122070312 -157.89500427246094 -158.8979949951172 -157.47500610351562 -111.02100372314453 -157.05499267578125 -57.22800064086914 -156.84500122070312 31.784000396728516 -157.99000549316406 72.68199920654297 -155.81399536132812 59.361000061035156 -156.45899963378906 48.207000732421875 -152.4340057373047 46.05500030517578 -149.28399658203125 36.90999984741211 -140.6719970703125 34.22100067138672 -134.37100219726562 33.145999908447266 -128.91000366210938 30.993999481201172 -125.12899780273438 22.923999786376953 -123.4489974975586 13.241000175476074 -123.23899841308594 5.710999965667725 -123.23899841308594 -4.510000228881836 -123.86900329589844 -12.579999923706055 -121.3479995727539 -14.194999694824219 -120.50800323486328 -3.9730000495910645 -120.71800231933594 -0.20800000429153442 -120.71800231933594 9.47599983215332 -117.35700225830078 15.395000457763672 -117.7770004272461 26.150999069213867 -118.197998046875 26.150999069213867 -114.62699890136719 24.53700065612793 -104.75499725341797 25.613000869750977 -99.08399963378906 25.076000213623047 -89.4219970703125 22.38599967956543 -81.86000061035156 22.38599967956543 -73.03900146484375 23.999000549316406 -68.41799926757812 23.461999893188477 -66.31700134277344 -390.76300048828125 -66.31700134277344 -393.4360046386719 -76.81900024414062 -395.0509948730469 -85.85099792480469 -396.66400146484375 -96.77300262451172 -396.66400146484375 -106.6449966430664 -397.739013671875 -112.10600280761719 -399.89300537109375 -119.45800018310547 -399.1310119628906 -122.60800170898438 -396.81201171875 -125.01499938964844 -387.6780090332031 -123.9229965209961 -383.16400146484375 -123.72899627685547 -385.1789855957031 -124.91699981689453 -391.2969970703125 -126.48600006103516 -383.2829895019531 -126.7699966430664 -386.06298828125 -127.94000244140625 -388.8689880371094 -128.05999755859375 -391.6289978027344 -128.57200622558594 -394.6520080566406 -129.25 -397.739013671875 -131.63999938964844 -398.2770080566406 -133.9510040283203 -399.3529968261719 -141.9320068359375 -396.66400146484375 -148.44400024414062 -393.4360046386719 -153.69500732421875 -390.2099914550781 -157.68499755859375 -385.3659973144531 -161.67599487304688"/>
</svg>