<?xml version="1.0" encoding="utf-8"?>
<svg viewBox="47.608 -48.742 431.988 662.095" xmlns="http://www.w3.org/2000/svg" xmlns:bx="https://boxy-svg.com">
  <defs>
    <filter id="grayscale">
     <feColorMatrix type="matrix" values="0.3333 0.3333 0.3333 0 0 0.3333 0.3333 0.3333 0 0 0.3333 0.3333 0.3333 0 0 0 0 0 1 0"/>
    </filter>
    <linearGradient id="patch-loading-gradient-0" gradientUnits="userSpaceOnUse" x1="265.269" y1="253.472" x2="265.269" y2="285.366">
      <stop offset="0" style="stop-color: rgba(216, 216, 216, 1)"/>
      <stop offset="1" style="stop-color: rgba(165, 165, 165, 1)"/>
    </linearGradient>
    <linearGradient id="patch-loading-gradient-1" gradientUnits="userSpaceOnUse" x1="267.66" y1="273.671" x2="267.66" y2="305.565">
      <stop offset="0" style="stop-color: rgba(216, 216, 216, 1)"/>
      <stop offset="1" style="stop-color: rgba(165, 165, 165, 1)"/>
    </linearGradient>
    <linearGradient id="patch-loading-gradient-2" gradientUnits="userSpaceOnUse" x1="269.788" y1="292.277" x2="269.788" y2="324.171">
      <stop offset="0" style="stop-color: rgba(216, 216, 216, 1)"/>
      <stop offset="1" style="stop-color: rgba(165, 165, 165, 1)"/>
    </linearGradient>
    <linearGradient id="patch-loading-gradient-3" gradientUnits="userSpaceOnUse" x1="271.116" y1="310.881" x2="271.116" y2="342.775">
      <stop offset="0" style="stop-color: rgba(216, 216, 216, 1)"/>
      <stop offset="1" style="stop-color: rgba(165, 165, 165, 1)"/>
    </linearGradient>
    <linearGradient id="patch-loading-gradient-4" gradientUnits="userSpaceOnUse" x1="274.305" y1="349.335" x2="274.305" y2="376.095">
      <stop offset="0" style="stop-color: rgba(216, 216, 216, 1)"/>
      <stop offset="1" style="stop-color: rgba(165, 165, 165, 1)"/>
    </linearGradient>
    <linearGradient id="patch-loading-gradient-5" gradientUnits="userSpaceOnUse" x1="272.977" y1="331.081" x2="272.977" y2="360.486">
      <stop offset="0" style="stop-color: rgba(216, 216, 216, 1)"/>
      <stop offset="1" style="stop-color: rgba(165, 165, 165, 1)"/>
    </linearGradient>
    <linearGradient id="patch-loading-gradient-6" gradientUnits="userSpaceOnUse" x1="314.418" y1="237.574" x2="314.418" y2="310.017" gradientTransform="matrix(0.986063, 0.16637, -0.193716, 1.148135, 75.168332, -81.724498)">
      <stop offset="0" style="stop-color: rgb(230, 230, 230);"/>
      <stop offset="1" style="stop-color: rgba(143, 143, 143, 1)"/>
    </linearGradient>
    <linearGradient id="patch-loading-gradient-7" gradientUnits="userSpaceOnUse" x1="186.54" y1="233.753" x2="186.54" y2="314.301" gradientTransform="matrix(0.939275, -0.089913, 0.135313, 1.589284, -17.64222, -120.974625)">
      <stop offset="0" style="stop-color: rgb(227, 227, 227);"/>
      <stop offset="1" style="stop-color: rgba(143, 143, 143, 1)"/>
    </linearGradient>
    <linearGradient id="patch-loading-gradient-8" gradientUnits="userSpaceOnUse" x1="255.428" y1="63.348" x2="255.428" y2="246.606" gradientTransform="matrix(0.999966, 0.008197, -0.009009, 1.099099, 3.055754, 10.614906)">
      <stop offset="0" style="stop-color: rgb(249, 231, 177);"/>
      <stop offset="1" style="stop-color: rgb(182, 146, 39);"/>
    </linearGradient>
    <linearGradient id="patch-loading-gradient-9" gradientUnits="userSpaceOnUse" x1="264.706" y1="86.777" x2="264.706" y2="269.181" gradientTransform="matrix(0.999718, -0.023764, 0.018233, 0.767022, 0.492466, 68.005903)">
      <stop offset="0" style="stop-color: rgb(255, 222, 225);"/>
      <stop offset="1" style="stop-color: rgb(255, 187, 194);"/>
    </linearGradient>
    <linearGradient id="patch-loading-gradient-10" gradientUnits="userSpaceOnUse" x1="202.811" y1="-33.912" x2="202.811" y2="138.759" gradientTransform="matrix(0.877415, -0.479734, 0.315616, 0.577249, 34.064958, 160.955534)">
      <stop offset="0" style="stop-color: rgba(139, 11, 11, 1)"/>
      <stop offset="1" style="stop-color: rgba(44, 4, 4, 1)"/>
    </linearGradient>
    <linearGradient id="patch-loading-gradient-11" gradientUnits="userSpaceOnUse" x1="263.204" y1="-34.775" x2="263.204" y2="71.418" gradientTransform="matrix(0.999997, 0.002351, -0.003084, 1.311513, 1.531117, 26.262813)">
      <stop offset="0" style="stop-color: rgba(210, 34, 34, 1)"/>
      <stop offset="1" style="stop-color: rgba(122, 20, 20, 1)"/>
    </linearGradient>
    <linearGradient id="patch-loading-gradient-12" gradientUnits="userSpaceOnUse" x1="149.797" y1="266.582" x2="149.797" y2="482.075" gradientTransform="matrix(0.999955, -0.009513, 0.010907, 1.146397, -2.900831, -37.601465)">
      <stop offset="0" style="stop-color: rgb(190, 25, 25);"/>
      <stop offset="1" style="stop-color: rgb(89, 7, 7);"/>
    </linearGradient>
    <linearGradient id="patch-loading-gradient-13" gradientUnits="userSpaceOnUse" x1="146.761" y1="348.847" x2="146.761" y2="399.859">
      <stop offset="0" style="stop-color: rgba(216, 216, 216, 1)"/>
      <stop offset="1" style="stop-color: rgba(165, 165, 165, 1)"/>
    </linearGradient>
    <linearGradient id="patch-loading-gradient-14" gradientUnits="userSpaceOnUse" x1="146.761" y1="348.847" x2="146.761" y2="399.859" gradientTransform="matrix(0.584221, 0, 0, 0.584221, 61.481886, 156.109047)">
      <stop offset="0" style="stop-color: rgb(242, 242, 242);"/>
      <stop offset="1" style="stop-color: rgb(204, 204, 204);"/>
    </linearGradient>
    <linearGradient id="patch-loading-gradient-15" gradientUnits="userSpaceOnUse" x1="287.752" y1="375.718" x2="287.752" y2="576.672" gradientTransform="matrix(-0.99883, 0.048373, -0.027259, -0.562759, 586.777669, 738.018567)">
      <stop offset="0" style="stop-color: rgba(255, 217, 221, 1)"/>
      <stop offset="1" style="stop-color: rgb(255, 161, 170);"/>
    </linearGradient>
    <linearGradient id="patch-loading-gradient-16" gradientUnits="userSpaceOnUse" x1="370.159" y1="266.785" x2="370.159" y2="376.155" gradientTransform="matrix(0.991507, 0.130052, -0.070949, 0.540913, 17.051018, 138.697996)">
      <stop offset="0" style="stop-color: rgba(255, 217, 221, 1)"/>
      <stop offset="1" style="stop-color: rgb(255, 170, 178);"/>
    </linearGradient>
    <radialGradient id="patch-loading-gradient-67" gradientUnits="userSpaceOnUse" cx="704.618" cy="316.991" r="30.553" gradientTransform="matrix(0.569248, 0, 0, 0.569248, -181.873541, -4.613583)">
      <stop offset="0" style="stop-color: rgba(221, 76, 76, 0.48);"/>
      <stop offset="1" style="stop-color: rgba(165, 165, 165, 0);"/>
    </radialGradient>
    <radialGradient id="patch-loading-gradient-17" gradientUnits="userSpaceOnUse" cx="704.618" cy="316.991" r="30.553" gradientTransform="matrix(0.569248, 0, 0, 0.569248, -66.961044, 33.999289)">
      <stop offset="0" style="stop-color: rgba(221, 76, 76, 0.48);"/>
      <stop offset="1" style="stop-color: rgba(165, 165, 165, 0);"/>
    </radialGradient>
  </defs>
  <polyline style="fill: rgb(130, 48, 18);" points="225.202 561.816 220.955 567.579 220.046 574.251 222.472 581.833 225.505 586.382 231.267 592.751 246.432 596.391 253.104 596.088 264.022 598.514 276.76 596.391 279.49 590.628 261.899 575.161"/>
  <polyline style="fill: rgb(130, 48, 18);" points="314.368 571.589 310.425 571.892 309.516 577.351 310.122 583.72 313.458 590.089 319.524 596.762 329.533 605.254 341.664 607.377 350.156 607.073 357.738 605.557 363.501 602.827 366.23 597.065 367.747 591.606 367.444 588.573 361.075 584.933"/>
  <polyline style="fill: url(#patch-loading-gradient-15);" points="230.408 406.558 232.398 459.283 242.279 489.208 236.083 518.892 231.008 545.442 227.215 561.15 240.356 559.76 257.263 563.741 263.719 536.378 274.676 518.468 275.169 499.075 276.165 472.216 276.168 462.267 289.72 420.485 271.196 396.609 285.882 420.582 292.087 418.355 292.188 419.31 298.518 427.109 304.205 446.579 317.952 489.128 317.952 516.983 316.958 550.807 317.96 569.206 339.838 576.672 348.289 565.231 347.79 542.348 347.295 516.484 345.803 493.107 345.807 469.231 340.833 442.371 336.854 425.459 326.906 398.599 321.932 391.635 315.963 384.672 270.201 375.718 253.289 377.708 234.387 385.666 229.413 387.656"/>
  <path stroke-width="0" d="M 222.894 320.729 C 227.043 320.729 229.896 322.026 231.452 324.62 C 232.749 326.176 233.527 328.251 233.786 330.844 C 234.824 344.849 235.213 359.502 234.953 374.804 C 234.435 377.657 233.268 379.731 231.452 381.028 C 229.118 383.881 225.228 385.178 219.782 384.918 C 215.113 383.881 211.612 381.677 209.278 378.305 C 202.794 370.265 200.33 358.335 201.886 342.515 C 202.405 339.403 203.702 337.198 205.777 335.901 C 207.851 333.827 210.834 332.789 214.724 332.789 C 214.465 332.011 214.335 330.844 214.335 329.288 C 214.854 326.176 216.151 323.971 218.225 322.675 C 219.263 321.637 220.819 320.989 222.894 320.729 Z" style="stroke-width: 2px; fill: rgb(178, 23, 23);"/>
  <path stroke-width="0" d="M 217.881 367.795 C 223.204 366.976 226.684 368.409 228.322 372.094 C 228.634 372.484 228.901 372.926 229.124 373.419 C 230.04 371.909 231.206 370.649 232.621 369.638 C 233.439 369.638 234.258 369.228 235.077 368.409 C 239.73 367.693 242.975 368.698 244.812 371.424 C 245.457 371.287 246.101 370.897 246.746 370.252 C 251.387 369.589 254.686 370.536 256.643 373.094 C 257.426 371.93 258.426 370.982 259.643 370.252 C 260.462 370.252 261.281 369.842 262.099 369.023 C 267.422 368.205 270.902 369.638 272.54 373.322 C 272.568 373.377 272.597 373.432 272.625 373.488 C 273.294 372.696 274.084 372.027 274.996 371.48 C 275.815 371.48 276.634 371.071 277.453 370.252 C 279.379 369.995 281.084 369.98 282.567 370.206 C 283.406 368.671 284.567 367.457 286.051 366.567 C 286.87 366.567 287.689 366.157 288.508 365.339 C 296.696 365.339 302.019 368.409 304.475 374.551 C 313.892 385.605 352.441 391.572 332.771 410.9 C 331.383 412.264 331.294 415.597 331.961 417.542 C 331.819 416.912 331.665 416.298 331.498 415.698 C 324.947 399.731 316.144 386.219 305.089 375.165 C 303.452 373.118 303.042 370.252 303.861 366.567 C 304.68 364.11 306.113 362.268 308.16 361.04 C 308.979 361.04 309.798 360.63 310.617 359.811 C 317.168 358.992 321.057 360.835 322.285 365.339 C 333.34 378.031 342.552 392.77 349.922 409.557 C 352.379 418.564 352.583 430.233 350.536 444.563 C 349.717 446.61 348.489 448.248 346.851 449.476 C 345.214 451.114 342.552 451.523 338.867 450.704 C 336.411 449.886 334.568 448.657 333.34 447.02 C 333.34 446.839 333.335 446.668 333.325 446.507 C 332.786 447.158 332.177 447.738 331.498 448.248 C 329.86 449.886 327.199 450.295 323.514 449.476 C 321.057 448.657 319.215 447.429 317.986 445.791 C 317.333 440.131 316.391 434.876 315.159 430.027 C 315.178 432.5 315.097 435.094 314.916 437.807 C 314.097 439.855 312.869 441.492 311.231 442.721 C 309.593 444.358 306.932 444.768 303.247 443.949 C 300.79 443.13 298.948 441.902 297.72 440.264 C 297.72 438.626 297.31 437.807 296.491 437.807 C 296.901 428.8 289.926 427.596 287.47 422.273 C 284.555 415.546 282.975 403.738 278.954 398.239 C 280.98 404.091 292.029 405.039 293.664 411.413 C 295.301 417.964 290.555 430.847 289.736 440.264 C 288.917 442.311 287.689 443.949 286.051 445.177 C 284.413 446.815 281.752 447.224 278.067 446.405 C 275.611 445.587 273.768 444.358 272.54 442.721 C 272.54 441.209 272.19 440.394 271.493 440.278 C 271.542 444.46 271.481 448.754 271.312 453.161 C 270.493 455.208 269.264 456.846 267.627 458.074 C 265.989 459.712 263.328 460.121 259.643 459.302 C 257.186 458.484 255.344 457.255 254.116 455.618 C 253.494 432.606 248.595 410.662 246.811 392.374 L 250.123 414.061 C 253.807 421.431 250.84 432.075 250.431 443.949 C 249.612 445.996 248.384 447.634 246.746 448.862 C 245.108 450.5 242.447 450.909 238.762 450.09 C 235.896 449.271 233.849 447.838 232.621 445.791 C 227.704 431.368 225.543 414.19 226.137 394.257 C 223.164 407.615 222.459 423.36 224.023 441.492 C 223.204 443.539 221.975 445.177 220.338 446.405 C 218.7 448.043 216.039 448.453 212.354 447.634 C 209.897 446.815 208.055 445.587 206.826 443.949 C 206.826 442.721 206.417 441.902 205.598 441.492 L 205.598 400.959 C 206.417 387.857 209.692 377.212 215.424 369.023 C 216.243 369.023 217.062 368.614 217.881 367.795 Z M 270.939 426.939 C 271.185 430.305 271.352 433.753 271.439 437.284 C 271.535 433.506 271.369 430.058 270.939 426.939 Z" style="stroke-width: 2px; fill: rgb(178, 23, 23);"/>
  <polygon style="fill: url(#patch-loading-gradient-16);" points="339.105 266.785 352.98 279.339 351.888 293.642 356.437 321.858 358.808 331.536 364.212 347.393 378.748 328.893 394.606 308.41 413.766 282.642 422.356 281.321 431.606 285.946 429.273 298.771 420.877 313.967 413.377 325.861 399.735 341.717 388.697 356.914 374.046 370.908 359.084 376.155 339.766 372.5 331.837 364.572 321.266 336.821 312.676 307.089 308.712 294.535"/>
  <polygon style="fill: url(#patch-loading-gradient-0);" points="210.783 253.472 227.793 257.725 245.335 261.977 275.103 261.446 291.581 261.446 299.023 258.256 317.097 256.13 319.754 266.23 317.097 275.798 303.276 282.177 280.418 283.771 265.534 284.835 243.74 285.366 225.135 285.366 219.82 283.771 213.972 281.114 212.378 278.987"/>
  <polyline style="fill: rgb(185, 24, 24);" points="320.799 323.326 354.739 299.132 311.39 292.747"/>
  <polygon style="fill: url(#patch-loading-gradient-1);" points="213.175 273.671 230.185 277.925 247.727 282.176 277.495 281.646 293.973 281.646 301.415 278.456 319.489 276.33 322.146 286.43 319.489 295.998 305.668 302.376 282.81 303.97 267.926 305.034 246.132 305.565 227.527 305.565 222.212 303.97 216.364 301.314 214.77 299.186"/>
  <polygon style="fill: url(#patch-loading-gradient-2);" points="215.302 292.277 232.312 296.531 249.854 300.782 279.622 300.252 296.1 300.252 303.542 297.062 321.616 294.936 324.273 305.036 321.616 314.604 307.795 320.982 284.937 322.576 270.053 323.64 248.259 324.171 229.654 324.171 224.339 322.576 218.491 319.92 216.897 317.792"/>
  <polygon style="fill: url(#patch-loading-gradient-3);" points="217.959 310.881 234.554 315.135 251.668 319.386 280.71 318.856 296.786 318.856 304.047 315.666 321.68 313.54 324.272 323.64 321.68 333.208 308.196 339.586 285.896 341.18 271.375 342.244 250.112 342.775 231.961 342.775 226.776 341.18 221.07 338.524 219.515 336.396"/>
  <polygon style="fill: url(#patch-loading-gradient-5);" points="222.744 331.081 238.425 335.003 254.599 338.922 282.044 338.434 297.235 338.434 304.096 335.493 320.76 333.532 323.209 342.844 320.76 351.665 308.018 357.546 286.944 359.015 273.221 359.996 253.129 360.486 235.976 360.486 231.076 359.015 225.684 356.566 224.214 354.605"/>
  <polygon style="fill: url(#patch-loading-gradient-4);" points="228.591 349.335 242.862 352.904 257.581 356.472 282.557 356.028 296.382 356.028 302.626 353.351 317.791 351.567 320.019 360.041 317.791 368.068 306.195 373.421 287.016 374.757 274.528 375.649 256.243 376.095 240.633 376.095 236.174 374.757 231.267 372.529 229.929 370.744"/>
  <polygon style="fill: url(#patch-loading-gradient-6);" points="314.683 306.844 330.017 310.017 344.823 309.488 350.64 307.901 355.927 300.498 356.456 293.625 354.341 276.174 352.755 272.473 349.582 262.426 347.996 259.782 341.65 252.379 337.42 249.206 320.499 240.217 314.154 238.632 305.165 237.574 283.485 237.574 280.312 238.103 273.438 241.275 272.38 242.333 278.197 243.39 286.658 244.977 292.474 246.563 297.762 250.264 307.28 258.196 312.039 264.542 316.269 277.761 318.913 287.279 318.913 299.441 318.913 301.027"/>
  <circle style="fill: url(#patch-loading-gradient-9);" cx="264.706" cy="177.979" r="91.202"/>
  <polygon style="fill: url(#patch-loading-gradient-10);" points="237.682 -33.912 213.735 -26.77 195.249 -14.587 178.864 0.958001 154.077 49.692 151.556 60.616 148.195 83.303 147.775 102.208 153.237 124.055 155.337 131.197 158.698 138.759 159.959 128.676 163.32 123.635 170.882 117.333 176.764 114.812 183.906 113.131 191.048 99.267 194.829 90.865 199.03 85.823 204.072 82.042 208.693 79.101 217.936 74.06 222.557 71.959 232.64 68.598 244.404 68.598 252.199 69.158 257.008 70.279 257.848 34.148 251.126 -4.504"/>
  <polygon style="fill: rgb(173, 173, 173);" points="147.113 238.381 143.271 242.519 140.315 250.203 139.429 268.231 139.724 273.846 142.68 277.392 151.546 278.575 159.23 278.575 161.299 277.688 162.185 272.368 161.003 264.98 161.003 257.591 164.254 249.907 167.505 246.656 171.643 245.474 173.416 245.474 169.278 239.563"/>
  <polygon style="fill: rgb(255, 217, 221);" points="166.908 340.607 161.489 337.689 157.32 332.686 154.402 323.932 153.568 316.429 153.985 303.09 155.653 296.42 158.154 292.251 156.07 280.579 151.901 264.322 150.65 256.818 154.819 245.563 165.657 239.31 176.079 237.643 186.083 240.561 191.502 246.814 195.671 254.734 199.423 261.821 201.09 271.825 201.09 275.577 201.09 287.249 200.673 291.834 201.507 311.01 196.088 321.848 188.168 332.27 183.165 333.937 182.748 333.937" transform="matrix(-1, 0, 0, -1, 352.156998, 578.25)"/>
  <polyline style="fill: rgb(185, 24, 24);" points="192.434 282.958 187.3 269.726 183.745 264.394 177.425 259.259 169.328 256.692 166.168 256.297 159.651 256.297 158.071 256.297 153.134 257.679 154.517 252.347 157.281 247.805 160.639 245.632 164.588 243.855 170.711 243.263 176.24 247.212 189.274 257.679 198.359 277.625 197.371 283.353"/>
  <polygon style="fill: url(#patch-loading-gradient-7);" points="189.478 310.773 205.558 314.301 221.083 313.713 227.183 311.949 232.727 303.718 233.282 296.075 231.064 276.672 229.401 272.557 226.074 261.386 224.41 258.446 217.757 250.215 213.32 246.687 195.577 236.692 188.924 234.929 179.497 233.753 156.763 233.753 153.437 234.341 146.228 237.868 145.119 239.044 151.219 240.22 160.09 241.984 166.189 243.748 171.735 247.863 181.716 256.682 186.705 263.738 191.142 278.436 193.913 289.019 193.913 302.542 193.913 304.306"/>
  <polyline style="fill: url(#patch-loading-gradient-8);" points="167.144 157.9 156.871 218.149 180.995 246.606 211.916 231.523 196.078 164.404 229.882 141.214 279.587 152.11 289.991 148.781 317.187 135.384 331.071 141.026 341.629 148.567 353.984 159.735 347.824 127.579 335.758 100.221 320.755 80.485 296.38 67.873 252.64 63.348 214.178 71.644 185.52 88.989 171.946 107.843 170.437 124.434 174.208 145.551 167.082 158.036"/>
  <polygon style="fill: rgb(113, 9, 9);" points="255.961 70.672 236.656 62.285 258.652 56.747 258.652 70.672"/>
  <polygon style="fill: url(#patch-loading-gradient-11);" points="255.417 70.71 271.7 71.418 271.7 54.427 273.116 30.357 280.903 -10.704 289.398 -29.819 262.736 -35.719 261.316 -30.293 258.008 -35.247 237.01 -34.067 237.01 -26.279 246.921 -5.749 252.585 16.198 255.417 35.312 255.417 45.932"/>
  <path style="fill: rgb(243, 243, 243);" transform="matrix(0.143535, -0.413203, 0.413203, 0.143535, -3.038212, 277.105927)" d="M 426.858 507.052 A 31.064 31.064 0 1 1 426 444.936 L 426 476 Z" bx:shape="pie 426 476 0 31.064 178.417 360 1@dad93098"/>
  <path style="fill: rgb(243, 243, 243);" transform="matrix(-0.143535, -0.413203, -0.413203, 0.143535, 563.792542, 274.620605)" d="M 426.858 507.052 A 31.064 31.064 0 1 1 426 444.936 L 426 476 Z" bx:shape="pie 426 476 0 31.064 178.417 360 1@dad93098"/>
  <polygon style="stroke-width: 4px; stroke: rgb(223, 223, 223); fill: url(#patch-loading-gradient-12);" points="92.855 271.356 105.13 276.129 111.95 276.811 122.179 279.539 133.772 279.539 152.184 279.539 167.868 279.539 182.189 276.811 190.372 274.765 204.693 270.674 212.876 267.264 212.876 288.404 212.194 342.959 210.83 465.708 201.965 469.8 186.963 475.255 174.006 478.665 161.731 480.711 148.774 481.393 137.863 482.075 123.543 482.075 118.087 480.711 101.721 475.937 96.947 473.892 91.492 470.482 87.4 468.436 86.718 266.582" transform="matrix(0.97925, 0.202655, -0.202655, 0.97925, 78.967837, -22.589876)"/>
  <circle style="fill: url(#patch-loading-gradient-13);" cx="146.761" cy="374.353" r="25.506"/>
  <circle style="fill: url(#patch-loading-gradient-14);" cx="147.223" cy="374.813" r="14.901"/>
  <ellipse style="fill: rgb(152, 55, 55);" cx="436.213" cy="277.952" rx="7.837" ry="28.023" transform="matrix(0.995766, -0.091929, 0.091929, 0.995766, -24.654608, 39.377563)"/>
  <polygon style="fill: rgb(255, 217, 221);" points="415.33 291.841 414.29 266.873 421.572 265.312 421.052 271.554 434.576 259.59 448.101 263.752 452.783 271.554 454.343 281.958 455.384 290.801 429.375 300.164" transform="matrix(0.948054, 0.318108, -0.318108, 0.948054, 111.618965, -123.786789)"/>
  <polygon style="fill: rgb(224, 224, 224);" points="423.739 246.738 394.085 97.412 400.969 24.338 429.034 102.707 438.565 244.09"/>
  <polyline style="fill: rgb(152, 55, 55);" points="430.063 258.056 422.215 255.681 416.982 252.357 414.366 246.657 415.674 244.757 448.378 242.857 447.724 250.457 445.762 251.882 441.183 255.206 435.296 258.056 434.642 258.056" transform="matrix(0.999047, -0.043652, 0.043652, 0.999047, -10.521741, 19.068983)"/>
  <polyline style="fill: rgb(255, 217, 221);" points="226.86 554.76 221.318 567.507 222.427 578.591 231.294 589.675 270.642 595.217 280.064 591.891 275.63 578.036 266.208 569.169 261.221 564.181 259.004 562.519 254.016 559.194 254.016 559.194"/>
  <polyline style="fill: rgb(255, 217, 221);" points="312.208 571.632 311.653 582.716 318.858 594.354 332.713 604.33 358.76 603.222 366.519 587.15 363.748 579.945 352.11 564.982 348.785 564.427 339.918 563.873 339.363 563.873"/>
  <path d="M 251.58756970636557 593.1221139829233 C 259.17570101756706 587.4311048089411 262.82251650010613 579.1708374023438 275.5473327636719 579.1708374023438" style="fill: none; stroke: rgb(130, 48, 18);"/>
  <path d="M 237.93960709905826 591.9089617511628 C 242.99223644107641 584.3301801055181 249.4488475608878 581.3096058082529 254.92373657226562 575.834716796875 C 256.540497805951 574.2179555631895 267.0552673339844 572.5410132967882 267.0552673339844 570.6787719726562" style="fill: none; stroke: rgb(130, 48, 18);"/>
  <path d="M 228.5376773029132 586.7530647661799 C 228.5376739501953 582.7989162495292 231.9706186867709 581.197075405026 233.99685668945312 579.1708374023438 C 239.20649942284714 573.9611946689497 251.36976058759984 564.3097534179688 260.0796203613281 564.3097534179688" style="fill: none; stroke: rgb(130, 48, 18);"/>
  <path d="M 225.202 561.277 C 234.006 555.407 246.545 558.851 258.26 558.851 C 240.522 560.064 232.635 568.756 221.562 576.138" style="fill: none; stroke: rgb(130, 48, 18);"/>
  <path d="M 227.32452507115255 557.9406992618646 C 238.58683862918406 557.940673828125 250.91294533195725 546.1124877929688 260.989501953125 546.1124877929688" style="fill: none; stroke: rgb(130, 48, 18);"/>
  <path d="M 258.25990698104914 558.5472753777449 C 253.9853451537533 552.1353351317788 240.12879286221917 543.6861572265625 231.26727294921875 543.6861572265625" style="fill: none; stroke: rgb(130, 48, 18);"/>
  <path d="M 231.873845940255 541.2598560751557 C 242.47854790309557 541.2598266601562 252.01479974794196 533.6776733398438 264.0223693847656 533.6776733398438" style="fill: none; stroke: rgb(130, 48, 18);"/>
  <path d="M 262.2026517342712 543.9894485966171 C 260.16376505027756 543.3098170284779 257.19013528315503 538.9769547411628 255.83360290527344 537.6204223632812 C 251.63662806402598 533.4234475220338 241.20348456464146 531.2513427734375 233.69357299804688 531.2513427734375" style="fill: none; stroke: rgb(130, 48, 18);"/>
  <path d="M 235.21001457759678 530.0381979313696 C 246.91118443193173 530.0382080078125 255.44607734759884 527.30859375 267.9651184082031 527.30859375" style="fill: none; stroke: rgb(130, 48, 18);"/>
  <path d="M 266.1453964874934 532.4645023948909 C 261.4183975743067 523.0105012033009 249.66436183252628 522.4559936523438 236.72645568847656 522.4559936523438" style="fill: none; stroke: rgb(130, 48, 18);"/>
  <path d="M 332.8687692343291 604.3437721267094 C 341.6069960022365 595.6055284118261 347.9016016132676 585.5399169921875 364.7140197753906 585.5399169921875" style="fill: none; stroke: rgb(130, 48, 18);"/>
  <path d="M 324.9832797278849 599.794451257607 C 324.9832763671875 597.1448017777223 330.9652422356842 594.7223798346283 332.56549072265625 593.1221313476562 C 338.74441690334464 586.9432051669679 350.5397043793464 580.384033203125 362.59100341796875 580.384033203125" style="fill: none; stroke: rgb(130, 48, 18);"/>
  <path d="M 316.4912141055603 591.9089617511628 C 324.7999546201717 583.6001918642033 345.1546181609767 577.3511352539062 360.4679870605469 577.3511352539062" style="fill: none; stroke: rgb(130, 48, 18);"/>
  <path d="M 311.9418932364579 584.933336418539 C 321.27988695182097 575.5953571888041 340.223086505628 571.8919677734375 357.7384033203125 571.8919677734375" style="fill: none; stroke: rgb(130, 48, 18);"/>
  <path d="M 318.00765439526117 571.5886618691718 C 326.5090819626504 567.3375453337757 337.5445209845097 566.4327392578125 348.9430236816406 566.4327392578125" style="fill: none; stroke: rgb(130, 48, 18);"/>
  <path d="M 317.0977902214406 568.5557812897703 C 326.8736389820581 566.1118824461366 335.19129542309287 557.0308227539062 347.7298889160156 557.0308227539062" style="fill: none; stroke: rgb(130, 48, 18);"/>
  <path d="M 348.3364601892774 564.6130365365482 C 348.3364562988281 558.5830998458117 330.00090394976814 559.925433979065 326.4997253417969 556.4242553710938 C 325.7394204405325 555.6639504698294 316.4912109375 556.1393289452611 316.4912109375 556.4242553710938" style="fill: none; stroke: rgb(130, 48, 18);"/>
  <path d="M 316.7945021635005 553.6946664507022 C 326.7955755114573 548.6942264622717 332.4984382383803 543.9894409179688 347.4266052246094 543.9894409179688" style="fill: none; stroke: rgb(130, 48, 18);"/>
  <path d="M 347.4265960154569 554.9078186824629 C 345.2969271153108 554.9078369140625 339.64881582519257 550.4661986376926 338.024658203125 548.842041015625 C 334.7229291598269 545.5403119723269 323.6120793104422 545.2025756835938 317.4010925292969 545.2025756835938" style="fill: none; stroke: rgb(130, 48, 18);"/>
  <path d="M 317.0977902214406 543.0795844227966 C 326.76912238968424 539.8559166134493 335.0911563314749 537.6204223632812 349.246337890625 537.6204223632812" style="fill: none; stroke: rgb(130, 48, 18);"/>
  <path d="M 348.0331721313372 541.5631441330958 C 340.41451521954343 536.483555382283 329.17991253219833 536.1039428710938 318.0076599121094 536.1039428710938" style="fill: none; stroke: rgb(130, 48, 18);"/>
  <path d="M 269.4679982130449 169.95064717267675 C 264.618690793686 166.31359982206712 254.2008013664077 153.97463989257812 248.9274139404297 153.97463989257812" style="stroke: rgb(0, 0, 0); fill: rgb(216, 216, 216); stroke-linecap: round;"/>
  <path d="M 288.1827578420068 167.21190186112136 C 292.658721904129 159.75187883758971 301.7705485902256 159.10178466544076 307.3539733886719 153.51817321777344 C 308.7368181600038 152.13528221909743 316.02667236328125 151.1514375878981 316.02667236328125 149.41006469726562" style="stroke: rgb(0, 0, 0); fill: rgb(216, 216, 216); stroke-linecap: round;"/>
  <path d="M 293.6431687282589 192.8902316601954 C 293.6431579589844 198.38296893807544 295.4255402100742 202.18934909947913 298.29644775390625 205.0603790283203 C 298.6841958139575 205.44814361783105 304.56468852410956 208.09871784796078 304.38153076171875 208.28187561035156 C 303.60565936287475 209.0577470091956 295.4251811933241 217.93868522164442 292.5693359375 215.0828399658203 C 288.36207613394265 210.87558016226296 270.0187683105469 199.34385577290595 270.0187683105469 212.93516540527344" style="stroke: rgb(0, 0, 0); fill: none; stroke-linecap: round;"/>
  <path d="M 275.03001257155506 245.5081923339543 C 276.4169986695079 238.57366749391107 283.6830781771606 236.70735007157595 289.7057800292969 233.6959991455078 C 293.84887008770374 231.62445411630438 299.7282409667969 230.84252100066973 299.7282409667969 235.8436737060547" style="stroke: rgb(0, 0, 0); fill: none; stroke-linecap: round;"/>
  <path d="M 287.2001531355537 243.00257515901342 C 287.2001647949219 240.15624055281114 291.1375427246094 239.29197673629932 291.1375427246094 238.3492889404297" style="stroke: rgb(0, 0, 0); fill: none; stroke-linecap: round;"/>
  <circle style="fill: rgb(237, 184, 104);" cx="437.91" cy="308.054" r="7.444"/>
  <path style="" transform="matrix(0.068762, -0.197949, 0.197949, 0.068762, 131.69043, 221.220718)" d="M 426.858 507.052 A 31.064 31.064 0 1 1 426 444.936 L 426 476 Z" bx:shape="pie 426 476 0 31.064 178.417 360 1@dad93098"/>
  <path style="" transform="matrix(-0.068762, -0.197949, -0.197949, 0.068762, 428.580994, 218.961075)" d="M 426.858 507.052 A 31.064 31.064 0 1 1 426 444.936 L 426 476 Z" bx:shape="pie 426 476 0 31.064 178.417 360 1@dad93098"/>
  <path d="M 410.98582074795917 53.275175117014776 C 409.24649174584926 54.144864881584276 406.0971628626518 53.601857005719914 404.82720947265625 54.87185287475586 C 403.5546960402412 56.144408871842856 403.69275934631906 59.199608766848556 402.3181457519531 60.57426834106445 C 400.64298996373805 62.24948016205278 405.6592746897858 71.83123702696243 403.00244140625 74.4881591796875 C 402.4892126337872 75.00140511928882 399.50725774430634 83.31016512794592 400.4933776855469 84.29631805419922 C 400.6217529454206 84.42469760813435 404.51553817079053 79.81796834814351 404.82720947265625 79.50628662109375 C 405.99781090649645 78.33564603146569 406.15988750455625 63.467470047129396 410.07342529296875 71.29480743408203 C 410.3084412006847 71.76485497174475 411.23487099075976 72.22814256530393 411.67010498046875 72.66339111328125 C 412.88475304587774 73.87807980780671 412.1263122558594 79.86496547382775 412.1263122558594 81.7872543334961 C 412.1263122558594 88.57274058799867 413.26678466796875 94.35827594095721 413.26678466796875 102.08786010742188 C 413.26678466796875 103.81013887925792 411.98262943508803 110.15562114897489 413.26678466796875 111.4398193359375 C 414.09504771578446 112.26811008856484 415.27825472031446 108.51598189454401 415.5477600097656 108.24646759033203 C 418.7640082292526 105.03011178962281 415.455428344371 95.33740616903935 418.7411193847656 92.05160522460938 C 420.8482248368691 89.94442929132269 422.1655316676097 97.52888931071638 422.6187438964844 97.98211669921875 C 424.42603315545335 99.78946641073186 425.30865725236475 107.38126284376253 423.074951171875 109.61504364013672 C 422.88488648667476 109.80511468286588 422.8848873872925 113.98690892286011 423.074951171875 114.1769790649414 C 424.4487278858709 115.55080173079419 425.4133150416859 117.42765451117965 426.7244873046875 118.7389144897461 C 426.9115946119418 118.92603431421387 428.77734375 114.75868890161294 428.77734375 113.72078704833984 C 428.77734375 113.31483822391753 424.43776724705896 101.85975646972656 427.8649597167969 101.85975646972656" style="fill: rgba(255, 32, 32, 0.51);"/>
  <circle style="fill: url(#patch-loading-gradient-67);" cx="219.23" cy="175.833" r="17.392"/>
  <circle style="fill: url(#patch-loading-gradient-17);" cx="334.142" cy="214.446" r="17.392"/>
  <circle style="fill: rgb(225, 200, 128);" cx="322.061" cy="304.434" r="2.764"/>
  <circle style="fill: rgb(225, 200, 128);" cx="351.983" cy="299.598" r="2.764"/>
  <circle style="fill: rgb(225, 200, 128);" cx="323.102" cy="286.896" r="2.764"/>
  <circle style="fill: rgb(225, 200, 128);" cx="317.356" cy="269.506" r="2.764"/>
  <circle style="fill: rgb(225, 200, 128);" cx="350.925" cy="283.267" r="2.764"/>
  <circle style="fill: rgb(225, 200, 128);" cx="345.784" cy="265.575" r="2.764"/>
  <circle style="fill: rgb(225, 200, 128);" cx="331.721" cy="251.361" r="2.764"/>
  <circle style="fill: rgb(225, 200, 128);" cx="195.932" cy="278.882" r="2.764"/>
  <circle style="fill: rgb(225, 200, 128);" cx="227.082" cy="275.101" r="2.764"/>
  <circle style="fill: rgb(225, 200, 128);" cx="190.79" cy="261.643" r="2.764"/>
  <circle style="fill: rgb(225, 200, 128);" cx="215.741" cy="253.327" r="2.764"/>
  <circle style="fill: rgb(225, 200, 128);" cx="199.107" cy="242.591" r="2.764"/>
  <circle style="fill: rgb(225, 200, 128);" cx="180.206" cy="250" r="2.764"/>
  <circle style="fill: rgb(225, 200, 128);" cx="167.352" cy="241.986" r="1.554"/>
  <circle style="fill: rgb(225, 200, 128);" cx="154.197" cy="238.961" r="1.554"/>
  <path d="M 191.83753263256685 354.0607382658997 C 189.3624241116557 349.1106470685897 187.80905737803172 340.3488312347659 184.1930694580078 336.7332763671875 C 183.71910356790426 336.259367239466 182.154541015625 331.6369934082031 182.154541015625 331.6369934082031 C 182.154541015625 331.6369934082031 185.7048283868722 337.71828104132254 186.23159790039062 338.7718200683594 C 188.9267524074003 344.1621290823787 195.4049530029297 352.12393600148073 195.4049530029297 358.9022216796875" style="fill: rgba(217, 31, 31, 0.63);"/>
  <path d="M 201.266 359.539 C 198.791 354.589 197.237 345.827 193.621 342.212 C 193.147 341.738 191.583 337.116 191.583 337.116 C 191.583 337.116 195.133 343.197 195.66 344.25 C 198.355 349.641 204.833 357.602 204.833 364.381" style="fill: rgba(217, 31, 31, 0.63);"/>
  <path d="M 329.426 127.824 C 325.466 121.819 322.98 111.191 317.196 106.806 C 316.438 106.231 313.936 100.625 313.936 100.625 C 313.936 100.625 319.615 108.001 320.458 109.278 C 324.769 115.818 335.132 125.474 335.132 133.697" style="fill: rgba(202, 176, 98, 0.68);"/>
  <circle style="fill: rgb(216, 216, 216);" cx="214.408" cy="440.98" r="3.149"/>
  <circle style="fill: rgb(216, 216, 216);" cx="241.213" cy="444.423" r="3.149"/>
  <circle style="fill: rgb(216, 216, 216);" cx="262.853" cy="453.522" r="3.149"/>
  <circle style="fill: rgb(216, 216, 216);" cx="281.543" cy="440.734" r="3.149"/>
  <circle style="fill: rgb(216, 216, 216);" cx="306.134" cy="437.537" r="3.149"/>
  <circle style="fill: rgb(216, 216, 216);" cx="324.332" cy="443.931" r="3.149"/>
  <circle style="fill: rgb(216, 216, 216);" cx="342.529" cy="445.161" r="3.149"/>
  <path d="M 269.1868458738151 246.60784483836767 C 269.1868591308594 249.2765510123494 271.00881070232356 248.97073364257812 273.0265197753906 248.97073364257812" style="stroke: rgb(0, 0, 0); fill: none; stroke-linecap: round;"/>
  <path d="M 306.25459388263505 239.51919183269695 C 306.7786246079887 238.99512495783063 307.87908935546875 237.74835741246685 307.87908935546875 237.0086212158203" style="stroke: rgb(0, 0, 0); fill: none; stroke-linecap: round;"/>
</svg>