<?xml version="1.0" encoding="utf-8"?>
<svg viewBox="363 80 648 715" xmlns="http://www.w3.org/2000/svg">
  <polygon style="stroke: rgb(0, 0, 0); fill: rgb(255, 255, 255); stroke-width: 7px;" points="494.528 642.955 438.44 592.339 391.245 508.208 374.145 417.921 377.565 327.633 402.189 251.71 459.644 173.051 524.624 123.119 625.171 87.551 738.03 87.551 826.949 114.911 904.925 168.263 948.7 218.878 981.532 287.962 997.264 385.773 988.372 457.592 963.748 545.144 930.233 588.919 891.929 621.751 859.781 649.111 844.733 671.683 838.577 708.618 835.841 749.658 826.265 772.914 807.798 783.174 781.806 783.174 770.178 770.862 767.442 748.29 763.338 727.77 758.55 720.93 754.446 727.77 753.762 750.342 750.342 770.862 742.818 781.122 727.77 787.962 710.67 785.91 695.622 779.754 690.15 768.126 686.047 736.662 685.362 722.298 683.311 717.51 679.891 716.142 676.471 720.246 676.471 740.082 673.735 764.706 663.475 783.174 646.375 787.962 627.907 785.226 616.279 777.018 610.123 751.026 609.439 730.506 606.703 725.718 604.651 722.298 599.179 722.298 597.811 729.822 595.075 758.55 593.023 772.23 587.551 778.386 577.291 782.49 566.347 783.858 552.668 782.49 540.356 777.018 530.096 768.126 527.36 747.606 523.94 714.09 521.204 683.995 512.996 664.159 497.948 644.323"/>
  <circle style="" cx="543.092" cy="467.169" r="80.715"/>
  <circle style="" cx="826.265" cy="467.168" r="80.715"/>
  <polygon style="" points="661.423 555.404 649.795 581.395 647.743 600.547 656.635 616.279 669.631 623.119 686.047 623.119 703.146 621.751 714.774 614.227 719.562 603.283 720.246 584.815 709.986 558.14 695.622 536.936 684.679 521.888"/>
</svg>