<?xml version="1.0" encoding="utf-8"?>
<svg viewBox="159.377 87.784 328.495 318.323" xmlns="http://www.w3.org/2000/svg">
  <defs>
    <linearGradient id="patch-loading-gradient-9" gradientUnits="userSpaceOnUse" x1="264.706" y1="86.777" x2="264.706" y2="269.181" gradientTransform="matrix(0.999718, -0.023764, 0.018233, 0.767022, 70.42944, 177.479568)">
      <stop offset="0" style="stop-color: rgb(255, 222, 225);"/>
      <stop offset="1" style="stop-color: rgb(255, 187, 194);"/>
    </linearGradient>
    <linearGradient id="patch-loading-gradient-10" gradientUnits="userSpaceOnUse" x1="202.811" y1="-33.912" x2="202.811" y2="138.759" gradientTransform="matrix(0.877415, -0.479734, 0.315616, 0.577249, 104.00193, 270.429199)">
      <stop offset="0" style="stop-color: rgba(139, 11, 11, 1)"/>
      <stop offset="1" style="stop-color: rgba(44, 4, 4, 1)"/>
    </linearGradient>
    <linearGradient id="patch-loading-gradient-8" gradientUnits="userSpaceOnUse" x1="255.428" y1="63.348" x2="255.428" y2="246.606" gradientTransform="matrix(0.999966, 0.008197, -0.009009, 1.099099, 72.992689, 120.08857)">
      <stop offset="0" style="stop-color: rgb(249, 231, 177);"/>
      <stop offset="1" style="stop-color: rgb(182, 146, 39);"/>
    </linearGradient>
    <linearGradient id="patch-loading-gradient-11" gradientUnits="userSpaceOnUse" x1="263.204" y1="-34.775" x2="263.204" y2="71.418" gradientTransform="matrix(0.999997, 0.002351, -0.003084, 1.311513, 71.468091, 135.736477)">
      <stop offset="0" style="stop-color: rgba(210, 34, 34, 1)"/>
      <stop offset="1" style="stop-color: rgba(122, 20, 20, 1)"/>
    </linearGradient>
  </defs>
  <polyline style="fill: rgb(92, 0, 0);" points="270.654 350.047 252.177 392.084 251.253 438.277 256.796 456.755 308.071 472.46 396.301 473.846 427.251 453.521 428.636 421.647 421.707 399.474 405.54 368.063 385.215 352.819"/>
  <circle style="fill: url(#patch-loading-gradient-9);" cx="334.643" cy="287.453" r="91.202"/>
  <polygon style="fill: url(#patch-loading-gradient-10);" points="307.619 75.562 283.672 82.704 265.186 94.887 248.801 110.432 224.014 159.166 221.493 170.09 218.132 192.777 217.712 211.682 223.174 233.529 225.274 240.671 228.635 248.233 229.896 238.15 233.257 233.109 240.819 226.807 246.701 224.286 253.843 222.605 260.985 208.741 264.766 200.339 268.967 195.297 274.009 191.516 278.63 188.575 287.873 183.534 292.494 181.433 302.577 178.072 314.341 178.072 322.136 178.632 326.945 179.753 327.785 143.622 321.063 104.97"/>
  <polyline style="fill: url(#patch-loading-gradient-8);" points="245.18 280.873 235.987 326.543 250.932 356.08 274.294 332.358 266.015 273.878 299.819 250.688 349.524 261.584 359.928 258.255 387.124 244.858 401.008 250.5 411.566 258.041 423.921 269.209 417.761 237.053 405.695 209.695 390.692 189.959 366.317 177.347 322.577 172.822 284.115 181.118 255.457 198.463 241.883 217.317 240.374 233.908 244.145 255.025 243.499 269.67"/>
  <polygon style="fill: url(#patch-loading-gradient-11);" points="325.354 180.184 341.637 180.892 341.637 163.901 343.053 139.831 350.84 98.77 359.335 79.655 332.673 73.755 331.253 79.181 327.945 74.227 306.947 75.407 306.947 83.195 316.858 103.725 322.522 125.672 325.354 144.786 325.354 155.406"/>
  <polygon style="fill: rgb(113, 9, 9);" points="322.728 180.166 303.423 171.779 325.419 166.241 325.419 180.166"/>
  <path d="M 349.831 299.72 C 348.169 308.031 358.513 316.836 362.047 320.371 C 362.48 320.803 369.028 322.698 369.028 322.698 C 369.028 322.698 360.952 327.061 357.685 327.061 C 351.917 327.061 342.764 328.874 337.324 327.061 C 333.153 325.67 327.59 322.407 324.526 322.407" style="stroke: rgb(0, 0, 0); fill: none; stroke-linecap: round;"/>
  <ellipse style="fill: rgb(251, 251, 251);" cx="302.16" cy="301.262" rx="23.168" ry="17.376" transform="matrix(0.954874, -0.297012, 0.297012, 0.954874, -60.148376, 90.634888)"/>
  <ellipse style="fill: rgb(251, 251, 251);" cx="371.325" cy="299.898" rx="23.168" ry="17.376" transform="matrix(0.970211, 0.242262, -0.242262, 0.970211, 87.485535, -93.729713)"/>
  <circle style="" cx="322.626" cy="285.149" r="10.401"/>
  <circle style="" cx="368.621" cy="284.127" r="10.401"/>
  <polygon style="" points="327.736 260.694 284.125 276.026 287.873 280.114"/>
  <polygon style="" points="409.847 276.877 366.237 261.545 369.985 257.457" transform="matrix(-1, 0, 0, -1, 776.083984, 534.334015)"/>
  <path stroke-width="0" d="M 331.542 331.959 C 343.807 331.505 355.051 332.187 365.272 334.004 C 370.723 335.139 375.153 337.411 378.56 340.818 C 378.56 341.272 378.787 341.499 379.241 341.499 C 380.377 341.499 381.058 342.067 381.285 343.203 C 383.557 345.474 384.465 349.108 384.011 354.106 C 383.33 356.377 382.308 358.308 380.945 359.898 C 378.219 362.623 373.903 363.532 367.998 362.623 C 363.228 361.488 359.48 359.443 356.754 356.491 C 356.981 355.809 356.868 355.582 356.414 355.809 C 354.597 353.992 352.325 352.856 349.599 352.402 C 340.968 352.402 335.176 355.128 332.223 360.579 C 332.223 361.033 332.11 361.26 331.883 361.26 C 328.703 364.44 323.706 365.69 316.891 365.008 C 314.393 364.327 312.462 363.305 311.099 361.942 C 309.055 359.898 308.26 356.831 308.714 352.743 C 310.531 345.929 313.711 340.591 318.254 336.729 C 321.661 334.231 326.09 332.641 331.542 331.959 Z" style="stroke-width: 2px;"/>
  <polygon style="stroke: rgb(0, 0, 0); fill: rgb(255, 255, 255);" points="316.391 339.865 318.715 336.994 324.047 334.123 327.738 333.03 333.069 332.483 340.315 332.62 350.978 333.03 362.325 334.26 371.484 336.721 377.089 340.549 379.003 342.462 377.226 343.419 370.664 340.822 362.872 339.181 350.841 338.361 342.229 338.225 334.983 338.088 328.011 338.771 323.91 340.275 315.024 343.146"/>
  <path d="M 284.229 309.309 C 284.229 314.203 277.657 325.924 282.148 330.415 C 284.893 333.16 285.34 326.629 286.012 325.956 C 289.258 322.711 284.229 312.731 284.229 309.011" style="fill: rgba(111, 154, 234, 0.4);"/>
  <path d="M 408.284 299.461 C 408.284 304.355 401.712 316.076 406.203 320.567 C 408.948 323.313 409.395 316.781 410.068 316.108 C 413.313 312.863 408.284 302.884 408.284 299.164" style="fill: rgba(111, 154, 234, 0.4);" transform="matrix(0.923486, -0.383633, 0.383633, 0.923486, -87.793336, 180.2171)"/>
</svg>