<?xml version="1.0" encoding="utf-8"?>
<svg viewBox="193.009 82.552 330.748 365.279" xmlns="http://www.w3.org/2000/svg" xmlns:bx="https://boxy-svg.com">
  <defs>
    <linearGradient id="patch-loading-gradient-9" gradientUnits="userSpaceOnUse" x1="264.706" y1="86.777" x2="264.706" y2="269.181" gradientTransform="matrix(0.999718, -0.023764, 0.018233, 0.767022, 0.492466, 68.005903)">
      <stop offset="0" style="stop-color: rgb(255, 222, 225);"/>
      <stop offset="1" style="stop-color: rgb(255, 187, 194);"/>
    </linearGradient>
    <linearGradient id="patch-loading-gradient-10" gradientUnits="userSpaceOnUse" x1="202.811" y1="-33.912" x2="202.811" y2="138.759" gradientTransform="matrix(0.877415, -0.479734, 0.315616, 0.577249, 34.064958, 160.955534)">
      <stop offset="0" style="stop-color: rgba(139, 11, 11, 1)"/>
      <stop offset="1" style="stop-color: rgba(44, 4, 4, 1)"/>
    </linearGradient>
    <linearGradient id="patch-loading-gradient-8" gradientUnits="userSpaceOnUse" x1="255.428" y1="63.348" x2="255.428" y2="246.606" gradientTransform="matrix(0.999966, 0.008197, -0.009009, 1.099099, 3.055754, 10.614906)">
      <stop offset="0" style="stop-color: rgb(249, 231, 177);"/>
      <stop offset="1" style="stop-color: rgb(182, 146, 39);"/>
    </linearGradient>
    <linearGradient id="patch-loading-gradient-11" gradientUnits="userSpaceOnUse" x1="263.204" y1="-34.775" x2="263.204" y2="71.418" gradientTransform="matrix(0.999997, 0.002351, -0.003084, 1.311513, 1.531117, 26.262813)">
      <stop offset="0" style="stop-color: rgba(210, 34, 34, 1)"/>
      <stop offset="1" style="stop-color: rgba(122, 20, 20, 1)"/>
    </linearGradient>
  </defs>
  <polygon style="fill: rgb(92, 0, 0);" points="443.748 471.174 458.383 426.055 455.757 380.522 448.628 361.48 393.121 351.717 308.623 358.839 279.052 380.205 279.914 411.624 288.328 433.996 300.695 451.091 309.874 460.107 297.81 451.844 272.403 426.572 260.378 424.211 247.013 434.274 239.506 443.81 231.155 454.896 224.747 476.636 240.188 478.69 247.503 488.857 265.252 489.227 272.628 478.227 273.876 470.24 286.433 473.046 294.728 477.712 304.574 483.223 309.188 485.268" transform="matrix(-0.995965 -0.089747 0.089747 -0.995965 654.536 870.375)"/>
  <circle style="fill: url(#patch-loading-gradient-9);" cx="264.706" cy="177.979" r="91.202" transform="matrix(1, 0, 0, 1, 54.242138, 122.178999)"/>
  <polygon style="fill: url(#patch-loading-gradient-10);" points="237.682 -33.912 213.735 -26.77 195.249 -14.587 178.864 0.958001 154.077 49.692 151.556 60.616 148.195 83.303 147.775 102.208 153.237 124.055 155.337 131.197 158.698 138.759 159.959 128.676 163.32 123.635 170.882 117.333 176.764 114.812 183.906 113.131 191.048 99.267 194.829 90.865 199.03 85.823 204.072 82.042 208.693 79.101 217.936 74.06 222.557 71.959 232.64 68.598 244.404 68.598 252.199 69.158 257.008 70.279 257.848 34.148 251.126 -4.504" transform="matrix(1, 0, 0, 1, 54.242138, 122.178999)"/>
  <polyline style="fill: url(#patch-loading-gradient-8);" points="175.243 171.399 166.05 217.069 180.995 246.606 204.357 222.884 196.078 164.404 229.882 141.214 279.587 152.11 289.991 148.781 317.187 135.384 331.071 141.026 341.629 148.567 353.984 159.735 347.824 127.579 335.758 100.221 320.755 80.485 296.38 67.873 252.64 63.348 214.178 71.644 185.52 88.989 171.946 107.843 170.437 124.434 174.208 145.551 173.562 160.196" transform="matrix(1 0 0 1 54.2421 122.179)"/>
  <polygon style="fill: url(#patch-loading-gradient-11);" points="255.417 70.71 271.7 71.418 271.7 54.427 273.116 30.357 280.903 -10.704 289.398 -29.819 262.736 -35.719 261.316 -30.293 258.008 -35.247 237.01 -34.067 237.01 -26.279 246.921 -5.749 252.585 16.198 255.417 35.312 255.417 45.932" transform="matrix(1, 0, 0, 1, 54.242138, 122.178999)"/>
  <polygon style="fill: rgb(113, 9, 9);" points="307.033 192.871 287.728 184.484 309.724 178.946 309.724 192.871"/>
  <path style="fill: rgb(255, 255, 255);" transform="matrix(0.018098, -0.248245, 0.190002, 0.013851, 209.019531, 359.813446)" d="M 311 555.381 A 106.381 106.381 0 1 1 311 342.619 L 311 449 Z" bx:shape="pie 311 449 0 106.381 180 360 1@14e6694c"/>
  <path style="fill: rgb(255, 255, 255);" transform="matrix(-0.018098, -0.248245, -0.190002, 0.013851, 449.418121, 358.280548)" d="M 311 555.381 A 106.381 106.381 0 1 1 311 342.619 L 311 449 Z" bx:shape="pie 311 449 0 106.381 180 360 1@14e6694c"/>
  <circle style="" cx="301.269" cy="299.627" r="9.721"/>
  <circle style="" cx="359.151" cy="298.173" r="9.721"/>
  <path d="M 334.13640858262454 312.42503948093554 C 332.47418439077535 320.7361947453419 342.81823051316377 329.54146193714104 346.3526306152344 333.07623291015625 C 346.7850567522018 333.50870442237414 353.33331298828125 335.40313720703125 353.33331298828125 335.40313720703125 C 353.33331298828125 335.40313720703125 345.25754122033425 339.7660827636719 341.98968505859375 339.7660827636719 C 336.22218673669187 339.7660827636719 327.0693048873009 341.57940656074095 321.62933349609375 339.7660827636719 C 317.4583505964352 338.3757551304524 311.8954952346379 335.1122741699219 308.8314208984375 335.1122741699219" style="stroke: rgb(0, 0, 0); fill: none; stroke-linecap: round;"/>
  <polygon style="" points="360.605 355.989 336.755 358.607 317.558 355.989 279.455 339.701 279.164 347.845 283.527 363.843 298.943 373.15 312.904 370.823 323.666 367.915 339.954 365.879 370.495 362.097 373.694 355.699" transform=""/>
  <polygon style="fill: rgb(255, 255, 255);" points="287.488 343.426 293.58 357.931 288.177 366.435 299.101 372.962 310.117 371.24 316.516 369.59 323.677 367.622 353.994 363.969 364.946 362.573 362.316 356.009 355.065 356.734 337.061 358.792 317.116 356.038 301.331 349.282"/>
  <g transform="matrix(-0.764102, 0.282713, 0.282713, 0.764102, 609.990356, -37.769802)" style="">
    <g transform="matrix(1.247048, -0.134605, 0.124766, 1.155892, -300.726959, -34.38488)" style="">
      <polygon style="stroke-width: 4px; fill: rgb(255, 218, 222); stroke: rgb(255, 190, 197);" points="497.741 405.148 488.786 394.015 480.073 379.493 472.086 369.57 468.456 359.163 467.003 351.902 465.309 347.787 459.985 344.399 454.418 344.157 448.367 348.272 446.189 353.838 445.463 359.405 445.947 366.182 449.82 377.073 452.482 381.913 449.335 383.365 442.317 383.365 433.846 382.881 426.101 382.881 420.05 386.512 418.356 394.499 418.356 397.161 421.26 400.065 428.279 401.276 432.152 401.276 442.075 401.276 450.304 401.276 446.189 401.76 441.591 401.76 432.878 402.002 425.375 403.212 419.324 404.18 416.662 405.874 414.726 409.262 415.21 412.409 415.936 414.345 420.776 418.459 426.343 419.67 436.024 419.67 444.979 419.67 449.093 419.912 441.107 419.912 427.553 421.122 420.776 422.09 419.808 426.204 419.566 429.593 420.534 432.739 423.923 434.917 430.457 435.401 438.444 434.917 445.947 435.159 448.851 435.401 429.247 436.612 420.776 439.274 421.502 439.274 420.776 446.293 423.197 449.439 432.636 452.343 441.107 452.585 450.546 452.585 455.386 452.101 470.876 451.859 480.073 448.229 490.238 443.146 495.321 440.242 499.677 431.529 501.855 421.606 502.339 412.409 500.645 407.568"/>
      <polyline style="fill: none; stroke-linecap: round; stroke-width: 3px; stroke: rgb(255, 190, 197);" points="453.692 383.123 455.386 390.384 457.323 400.791 464.825 410.714 471.36 414.829 484.43 418.459"/>
    </g>
  </g>
</svg>